<?xml version="1.0" standalone="no"?>
<!DOCTYPE svg PUBLIC "-//W3C//DTD SVG 20010904//EN"
 "http://www.w3.org/TR/2001/REC-SVG-20010904/DTD/svg10.dtd">
<svg version="1.0" xmlns="http://www.w3.org/2000/svg"
 width="512.000000pt" height="512.000000pt" viewBox="0 0 512.000000 512.000000"
 preserveAspectRatio="xMidYMid meet">
<metadata>
Created by potrace 1.16, written by Peter Selinger 2001-2019
</metadata>
<g transform="translate(0.000000,512.000000) scale(0.100000,-0.100000)"
fill="#000000" stroke="none">
<path d="M44 5056 c8 -80 27 -151 105 -396 91 -285 104 -342 105 -447 1 -103
14 -96 15 9 1 46 -10 109 -35 205 -20 76 -43 170 -50 208 -48 240 -84 439 -84
460 0 14 -5 25 -10 25 -14 0 -5 -70 31 -244 16 -77 27 -141 25 -144 -14 -13
-86 274 -86 341 0 28 -4 47 -11 47 -8 0 -10 -19 -5 -64z"/>
<path d="M195 5080 c19 -130 47 -236 84 -328 24 -60 47 -139 55 -191 22 -134
37 -162 184 -343 40 -50 60 -87 77 -140 12 -40 38 -113 58 -163 48 -121 53
-171 31 -300 -16 -90 -16 -116 -6 -187 14 -99 29 -118 98 -123 28 -2 39 0 25
4 -23 6 -22 7 21 43 25 21 48 35 51 32 8 -8 -3 -35 -22 -58 -13 -16 -14 -18
-1 -14 17 5 31 44 53 144 14 62 14 89 2 245 -8 95 -24 218 -35 272 -20 94 -20
100 -4 188 15 79 15 108 5 213 -16 167 -14 226 10 373 23 139 22 258 -2 328
-14 40 -14 40 -73 43 l-58 3 5 -43 c4 -24 9 -95 12 -158 4 -63 13 -167 21
-230 8 -63 14 -136 14 -162 0 -45 -28 -229 -36 -237 -2 -2 -3 54 -2 125 l1
129 -47 139 c-47 136 -48 141 -44 235 3 53 1 120 -5 149 -8 45 -13 52 -33 52
-23 0 -23 -1 -8 -42 8 -22 19 -91 24 -152 10 -110 23 -162 76 -306 26 -72 27
-82 25 -250 -1 -96 -4 -176 -6 -178 -2 -2 -16 20 -31 50 -14 29 -47 87 -72
128 -59 98 -130 250 -148 320 -8 30 -16 118 -19 195 -2 77 -2 129 1 115 26
-133 47 -230 51 -226 2 2 -5 50 -16 107 -10 57 -22 134 -26 172 -6 50 -11 67
-23 67 -13 0 -14 -22 -8 -177 4 -98 13 -208 21 -246 18 -85 95 -259 159 -357
89 -136 115 -202 122 -310 l5 -95 -35 40 c-20 22 -81 130 -136 240 -106 210
-158 356 -179 495 -20 137 -41 325 -41 368 l0 42 -50 0 c-27 0 -50 -4 -50 -8
0 -4 15 -61 34 -127 19 -66 39 -161 45 -211 16 -151 110 -417 193 -544 41 -64
-8 -13 -76 79 -83 112 -101 150 -115 244 -6 42 -20 103 -32 135 -12 31 -32 86
-44 122 -13 36 -34 117 -46 180 -12 63 -26 120 -31 125 -7 6 -8 -6 -3 -35z
m635 -667 c0 -7 -4 -13 -10 -13 -5 0 -10 12 -10 28 0 21 2 24 10 12 5 -8 10
-21 10 -27z m-240 -248 c0 -5 -5 -3 -10 5 -5 8 -10 20 -10 25 0 6 5 3 10 -5 5
-8 10 -19 10 -25z m113 -208 c88 -108 102 -184 80 -432 -9 -93 -20 -176 -25
-182 -16 -20 -46 3 -58 45 -15 54 -12 150 6 234 25 119 14 184 -69 395 -51
127 -53 149 -8 60 22 -43 55 -97 74 -120z"/>
<path d="M950 5048 c0 -40 7 -136 15 -213 8 -77 15 -196 15 -265 0 -129 13
-236 49 -400 14 -63 20 -128 20 -195 -1 -97 -1 -99 -14 -58 -7 22 -21 101 -30
175 -9 73 -27 192 -40 263 -32 180 -38 246 -27 289 6 20 7 36 2 36 -15 0 -23
-87 -16 -163 4 -40 16 -117 27 -172 10 -55 28 -165 39 -245 11 -80 25 -161 31
-180 6 -20 12 -173 14 -359 5 -361 7 -346 -68 -463 -36 -57 -107 -266 -126
-372 -6 -33 -11 -127 -11 -208 l0 -149 -54 -157 c-30 -86 -77 -220 -106 -297
-28 -77 -63 -187 -76 -245 -14 -58 -34 -134 -45 -169 -20 -66 -24 -132 -9
-166 7 -16 9 -14 9 15 1 19 10 58 20 85 28 72 39 33 17 -58 -9 -38 -15 -72
-13 -74 8 -7 46 113 77 237 48 200 67 253 104 296 19 22 51 69 71 103 20 34
39 61 41 58 6 -6 -33 -119 -73 -210 -20 -46 -38 -105 -41 -133 -4 -45 -1 -53
19 -67 49 -35 102 -1 188 120 107 149 141 231 167 396 9 55 25 123 35 151 11
28 17 40 14 26 -4 -14 -10 -77 -15 -140 -8 -119 -35 -212 -94 -328 -31 -62
-137 -204 -192 -257 -49 -49 -60 -67 -69 -125 -10 -62 -40 -129 -78 -170 l-32
-35 38 35 c49 44 74 93 83 159 7 56 17 73 108 178 158 185 231 338 248 522 9
101 39 246 59 282 5 10 23 33 40 51 l30 33 -8 -50 c-4 -27 -7 -70 -7 -95 1
-29 -1 -38 -6 -25 -9 24 -11 13 -35 -140 -31 -201 -64 -273 -228 -499 -60 -82
-157 -266 -178 -337 -7 -23 -33 -64 -58 -92 -32 -35 -38 -45 -20 -33 37 24 72
78 104 161 40 103 126 251 209 363 118 158 161 261 186 452 12 85 20 115 20
69 0 -13 -9 -91 -20 -174 -11 -82 -20 -165 -20 -184 0 -19 -15 -62 -36 -101
-29 -56 -46 -75 -100 -111 -86 -58 -131 -126 -174 -260 -18 -57 -45 -135 -61
-174 -16 -38 -39 -99 -52 -135 -38 -103 -65 -157 -133 -267 -142 -229 -155
-268 -163 -473 l-7 -165 -42 -96 c-23 -53 -42 -102 -42 -108 0 -6 18 -11 45
-11 25 0 45 2 45 5 0 2 25 101 55 219 77 299 139 457 257 653 52 87 121 208
153 268 32 61 89 162 128 225 85 139 113 206 159 375 36 131 73 390 62 431 -3
11 -2 35 3 53 l9 33 23 -66 c13 -37 25 -65 27 -63 2 2 -5 30 -17 63 -19 54
-20 73 -15 209 5 101 15 188 31 265 l25 115 -7 -100 c-14 -192 -9 -251 32
-356 73 -184 95 -254 95 -302 0 -54 -10 -79 -48 -119 -18 -20 -25 -36 -22 -60
11 -129 6 -173 -30 -243 -33 -65 -100 -148 -100 -123 0 6 21 53 47 105 42 85
47 100 49 176 l3 82 -8 -83 c-7 -71 -15 -97 -60 -185 -28 -56 -51 -112 -51
-125 0 -32 -12 -52 -95 -162 -102 -134 -225 -320 -212 -320 2 0 35 48 73 107
38 59 102 150 143 203 41 52 89 119 107 148 23 39 33 49 38 37 15 -39 -160
-323 -355 -576 -69 -88 -122 -199 -139 -286 -11 -57 -11 -92 3 -264 1 -14 15
-37 31 -51 25 -21 31 -35 37 -94 5 -38 8 -97 8 -131 1 -35 5 -63 11 -63 13 0
13 194 0 239 -5 19 -21 47 -36 62 -16 17 -32 50 -40 86 -16 68 -18 169 -4 178
6 4 10 -11 10 -37 0 -74 25 -156 61 -200 47 -59 58 -100 60 -223 1 -87 3 -101
10 -70 11 56 11 153 -1 197 -6 20 -26 59 -44 86 -45 64 -56 108 -56 218 0 116
25 202 84 286 254 363 358 538 391 651 9 32 32 92 52 134 19 42 37 99 40 130
7 61 23 53 23 -10 0 -73 -85 -349 -144 -465 -14 -27 -62 -96 -108 -154 -163
-208 -223 -289 -240 -326 -19 -41 -22 -141 -8 -297 7 -70 7 -54 4 68 -4 128
-2 167 11 205 14 43 128 198 272 370 29 34 64 81 77 105 56 95 156 401 156
476 0 22 8 43 21 57 19 20 21 34 20 109 -3 156 -31 274 -115 476 -44 105 -54
195 -33 292 17 78 10 126 -28 191 -33 57 -84 214 -87 267 -1 24 -1 80 1 124
l2 80 19 -77 c19 -75 76 -205 86 -195 3 3 -9 36 -26 73 -28 62 -62 189 -91
342 -6 29 -24 84 -40 123 -24 57 -29 79 -24 113 6 36 1 56 -25 116 l-32 73 13
96 c16 115 16 622 0 935 -9 188 -14 228 -24 215 -4 -5 10 -352 17 -434 l6 -60
-25 72 c-32 95 -49 228 -42 336 4 67 3 87 -7 87 -19 0 -28 -124 -15 -217 6
-43 24 -131 39 -196 39 -159 57 -402 39 -540 -13 -101 -19 -106 -41 -34 -5 18
-13 104 -18 192 -8 156 -37 339 -96 612 -13 62 -24 128 -24 148 0 19 -4 35
-10 35 -16 0 -11 -57 16 -185 54 -258 64 -329 66 -469 l2 -141 6 120 c4 105 6
114 13 72 5 -27 8 -90 8 -141 -1 -120 22 -267 47 -310 28 -48 19 -80 -19 -72
-28 5 -29 4 -30 -32 0 -20 -8 -61 -17 -91 l-17 -53 -1 133 c-1 102 -6 153 -22
214 -47 182 -56 275 -79 833 -5 131 -23 170 -23 50z m117 -1371 c-2 -23 -3 -1
-3 48 0 50 1 68 3 42 2 -26 2 -67 0 -90z m10 -99 c-2 -13 -4 -5 -4 17 -1 22 1
32 4 23 2 -10 2 -28 0 -40z m159 -23 c50 -38 65 -102 62 -261 l-3 -129 -34 70
c-88 184 -118 276 -101 320 12 32 34 32 76 0z m-169 -42 c-3 -10 -5 -4 -5 12
0 17 2 24 5 18 2 -7 2 -21 0 -30z m2 -227 c2 -101 -6 -57 -12 64 -3 79 -3 96
3 55 4 -33 8 -87 9 -119z m119 -99 c-8 -67 -45 -172 -93 -268 -24 -47 -27 -49
-66 -49 -29 0 -38 3 -33 13 5 6 27 42 51 79 24 37 63 105 88 153 37 70 45 96
46 143 1 44 3 50 8 27 4 -16 3 -60 -1 -98z m112 -182 c4 -75 11 -120 23 -142
28 -53 22 -99 -22 -167 -22 -34 -54 -92 -71 -131 -74 -166 -85 -186 -108 -207
-15 -14 -23 -17 -19 -8 3 8 22 56 42 105 20 50 54 128 77 175 39 78 42 92 44
175 l2 90 -7 -86 c-7 -72 -15 -102 -58 -195 -27 -60 -60 -134 -72 -164 -12
-31 -31 -71 -43 -90 l-22 -35 -7 25 c-21 75 18 355 58 409 32 41 52 49 69 26
21 -27 10 -72 -25 -110 -15 -16 -31 -39 -35 -50 -8 -25 41 34 67 79 23 41 22
62 -7 91 l-24 24 19 67 c19 69 38 224 40 323 l1 56 36 -75 c32 -68 36 -86 42
-185z m-93 173 c-3 -7 -5 -2 -5 12 0 14 2 19 5 13 2 -7 2 -19 0 -25z m-196
-62 c-22 -36 -48 -84 -57 -106 -19 -48 -32 -46 -15 2 13 35 103 179 110 173 2
-2 -15 -33 -38 -69z m186 -39 c-9 -129 -33 -219 -76 -282 -26 -38 -43 -80 -56
-133 -9 -42 -33 -130 -53 -196 -37 -126 -37 -131 -12 -341 l7 -60 1 49 c1 28
-3 86 -10 131 -11 76 -10 84 15 155 l25 75 1 -50 c1 -27 6 -84 12 -126 10 -64
9 -89 -6 -165 -19 -99 -75 -237 -125 -309 -17 -25 -30 -48 -28 -50 8 -9 71 97
107 181 43 99 71 222 71 307 0 49 3 57 22 63 13 4 40 25 61 48 41 44 41 46 -1
-60 -12 -29 -30 -103 -42 -165 -34 -186 -60 -250 -158 -397 -86 -128 -146
-171 -172 -122 -13 25 -3 68 50 205 21 55 51 143 67 195 27 93 28 99 25 308
l-2 212 48 73 c57 85 64 97 59 97 -2 0 -28 -34 -57 -75 -29 -41 -55 -75 -58
-75 -13 0 10 146 26 164 10 11 11 16 3 11 -11 -6 -12 -2 -7 20 4 16 13 43 21
61 13 32 14 33 67 27 l54 -5 33 66 c38 78 81 197 81 226 0 11 3 20 6 20 4 0 4
-37 1 -83z m74 -484 c-12 -20 -14 -14 -5 12 4 9 9 14 11 11 3 -2 0 -13 -6 -23z
m-426 -432 c-9 -28 -19 -51 -22 -51 -7 0 2 46 17 84 18 49 23 20 5 -33z m31
-5 c-11 -43 -66 -98 -66 -66 0 6 5 9 12 8 6 -2 21 21 32 51 19 52 35 57 22 7z
m693 -311 c0 -22 -4 -47 -9 -55 -9 -13 -13 -12 -30 9 -26 30 -25 46 2 99 l23
43 6 -28 c4 -16 7 -46 8 -68z m-419 -268 c-25 -54 -166 -202 -177 -184 -10 16
8 82 33 120 22 33 152 130 163 121 3 -2 -6 -28 -19 -57z m-90 -168 c-7 -11
-14 -18 -17 -15 -3 3 0 12 7 21 18 21 23 19 10 -6z m-57 -151 c-20 -35 -43
-48 -43 -25 0 13 44 57 57 57 3 0 -3 -14 -14 -32z m-80 -165 c-13 -34 -113
-195 -113 -182 0 15 102 199 110 199 5 0 6 -8 3 -17z"/>
<path d="M1147 2744 c-4 -4 -7 -14 -7 -23 0 -11 3 -12 11 -4 6 6 10 16 7 23
-2 6 -7 8 -11 4z"/>
<path d="M1267 5064 c-9 -85 10 -226 43 -322 59 -174 62 -199 55 -397 -5 -144
-3 -196 9 -260 9 -44 16 -96 17 -115 0 -25 2 -30 8 -17 5 14 11 6 24 -35 9
-29 19 -73 23 -98 3 -25 28 -108 55 -185 66 -189 79 -249 88 -395 4 -69 11
-134 15 -145 3 -11 0 -6 -8 10 -8 17 -15 52 -16 79 0 40 -8 63 -39 115 -27 45
-43 87 -51 131 -6 36 -24 121 -40 190 -16 69 -33 145 -39 170 l-10 45 6 -55
c3 -30 16 -102 30 -160 13 -58 30 -140 38 -182 14 -76 30 -118 66 -170 12 -16
21 -50 24 -87 5 -70 27 -118 88 -193 50 -62 87 -114 87 -122 0 -3 -19 7 -42
23 -24 15 -58 37 -76 47 -49 28 -96 127 -122 258 -23 113 -51 204 -94 298 -30
68 -43 143 -51 303 -3 66 -13 183 -21 260 -8 77 -21 230 -29 341 -15 205 -30
304 -46 304 -5 0 -5 -10 0 -24 10 -25 26 -186 36 -351 3 -55 12 -172 20 -260
8 -88 19 -236 25 -329 10 -166 11 -171 51 -259 47 -104 63 -162 147 -512 9
-39 17 -110 17 -160 0 -80 -3 -97 -30 -150 l-30 -60 -7 63 c-4 35 -12 78 -17
95 -6 18 -17 75 -26 127 -9 52 -21 101 -26 110 -7 11 -8 8 -4 -10 3 -14 14
-74 25 -135 11 -60 25 -133 32 -161 9 -41 9 -70 -2 -137 -7 -46 -10 -99 -6
-118 13 -67 58 -144 125 -214 43 -44 73 -85 81 -110 15 -47 34 -72 21 -28 -18
63 -44 103 -102 157 -84 77 -112 143 -107 251 3 69 7 85 31 116 56 74 86 227
58 301 -4 13 -11 37 -15 53 l-7 30 19 -31 c11 -16 49 -54 86 -83 37 -28 71
-63 76 -77 24 -61 60 -303 60 -396 0 -160 -17 -285 -48 -348 -18 -38 -28 -76
-30 -124 -3 -42 -8 -63 -13 -55 -6 11 -14 8 -34 -11 -43 -40 -54 -73 -59 -172
-7 -144 -37 -223 -162 -428 -202 -330 -316 -549 -337 -646 -9 -45 -8 -56 11
-96 12 -25 40 -59 62 -77 45 -36 50 -62 24 -117 l-16 -34 -46 61 c-28 37 -52
85 -63 122 -13 45 -18 54 -18 32 0 -45 20 -93 73 -170 l48 -70 -7 -92 c-7 -90
0 -173 13 -173 4 0 8 62 9 137 1 111 4 138 17 145 14 8 36 66 36 96 0 7 -22
37 -49 65 -53 56 -71 91 -70 135 0 25 1 26 12 7 32 -52 65 -75 109 -75 l44 0
-3 -68 c-2 -37 -8 -85 -13 -107 -4 -22 -8 -49 -8 -60 -1 -11 -4 -48 -8 -81 -7
-64 3 -194 14 -194 4 0 5 47 4 105 -5 128 9 176 99 342 43 79 75 124 106 151
24 20 62 53 83 73 22 20 40 35 40 33 0 -24 -74 -139 -126 -195 -137 -150 -173
-228 -174 -369 0 -143 -4 -138 96 -139 61 -1 84 2 86 11 1 7 2 69 2 138 1 138
-6 117 101 290 79 125 119 279 165 635 22 166 57 356 90 485 10 41 30 132 44
203 15 70 39 169 56 220 45 143 61 252 67 478 8 275 4 295 -107 512 -48 95
-95 196 -104 226 -18 61 -23 276 -6 286 5 3 -2 23 -18 47 -26 40 -27 46 -26
162 3 224 6 276 14 271 12 -7 37 -121 61 -280 12 -78 34 -174 49 -217 16 -42
41 -130 56 -195 31 -136 44 -169 90 -239 103 -155 144 -360 124 -625 -16 -214
-33 -279 -129 -485 -28 -61 -50 -124 -50 -140 1 -27 2 -27 8 6 4 20 22 63 40
95 54 99 110 240 127 317 9 41 19 153 22 258 l7 185 18 -85 c21 -104 22 -206
2 -373 -13 -111 -20 -137 -54 -205 -21 -42 -46 -100 -55 -128 -11 -34 -31 -65
-59 -92 -23 -22 -50 -51 -60 -66 -31 -45 -40 -33 -34 47 3 46 18 107 41 169
69 190 112 490 102 713 -7 163 -23 229 -85 352 -27 54 -76 183 -110 287 -58
179 -80 236 -81 209 -1 -33 138 -419 182 -506 79 -159 99 -314 74 -568 -23
-224 -43 -328 -88 -464 -46 -137 -62 -261 -36 -286 18 -16 19 -10 -43 -219
-27 -92 -75 -300 -109 -470 -33 -168 -69 -332 -80 -366 -12 -34 -46 -103 -76
-155 -100 -168 -97 -159 -102 -306 -3 -74 -1 -133 4 -133 5 0 9 53 9 118 0 87
5 128 18 159 31 79 122 207 178 252 30 25 72 61 93 80 l39 36 -24 -35 c-13
-19 -54 -67 -90 -107 -36 -40 -77 -94 -91 -120 -40 -73 -69 -187 -73 -293 l-4
-95 13 100 c29 209 61 285 167 399 84 91 232 290 259 347 l21 44 -5 -35 c-3
-19 -10 -78 -17 -130 -13 -102 -20 -120 -51 -120 -19 0 -47 -26 -69 -64 -8
-14 -1 -11 25 9 67 51 136 34 224 -54 89 -89 130 -210 155 -461 2 -19 4 1 5
45 3 137 -54 322 -129 416 -17 21 -52 51 -77 66 -83 47 -80 41 -65 141 7 48
15 148 18 222 3 74 11 169 17 212 7 57 7 85 -2 112 -32 97 -150 102 -150 5 0
-19 7 -105 16 -191 16 -147 16 -160 0 -200 -9 -24 -26 -54 -37 -68 l-21 -25 7
25 c4 14 9 41 11 60 l5 35 -16 -40 c-9 -22 -23 -60 -31 -85 -12 -40 -12 -43 1
-26 8 11 15 23 15 28 0 4 5 7 12 5 6 -1 27 21 46 48 l34 50 -5 110 c-4 61 -9
139 -13 175 -4 45 -3 61 5 50 5 -7 13 -47 17 -87 4 -52 10 -73 20 -73 8 0 14
5 14 11 0 5 -4 7 -10 4 -6 -4 -10 13 -10 42 0 27 -9 75 -21 108 -20 56 -20 60
-3 72 28 20 40 16 74 -24 24 -30 30 -44 26 -68 -3 -16 -10 -77 -16 -135 -5
-58 -17 -125 -27 -150 -34 -92 -146 -232 -269 -337 l-62 -52 20 52 c11 29 46
180 78 337 70 341 75 361 134 564 25 88 46 167 46 176 0 9 21 36 46 60 50 49
88 109 98 155 4 17 25 68 46 115 33 71 42 106 56 215 26 205 17 330 -40 540
-47 172 -74 237 -146 354 -30 49 -46 93 -66 180 -15 64 -40 153 -55 199 -28
82 -48 177 -69 327 -6 44 -25 120 -42 169 -20 59 -28 99 -24 118 7 35 -27 290
-49 365 -8 28 -31 88 -50 133 -19 45 -35 90 -35 99 0 9 12 42 26 72 15 30 28
70 30 89 2 19 7 55 12 80 9 41 10 38 11 -45 1 -49 8 -111 16 -138 8 -26 19
-84 25 -129 6 -45 33 -147 60 -227 31 -94 58 -201 75 -301 14 -85 44 -223 65
-306 21 -83 46 -202 55 -265 28 -208 46 -294 69 -339 41 -81 186 -350 237
-438 77 -135 109 -238 124 -397 3 -38 8 -88 11 -110 l6 -40 -27 52 c-28 54
-76 103 -102 103 -34 0 -70 -55 -86 -131 -35 -170 -47 -248 -47 -314 0 -38 -9
-113 -20 -165 -29 -141 -26 -182 30 -405 43 -168 49 -202 40 -229 -14 -40 -50
-265 -50 -311 0 -32 33 -115 45 -115 3 0 -1 12 -8 28 -8 15 -17 40 -21 56 -7
29 13 179 41 312 16 76 15 89 -36 279 -10 39 -21 87 -24 109 l-6 38 34 -38
c41 -47 54 -87 56 -174 l2 -65 7 50 c4 28 5 75 2 105 l-4 55 71 68 c39 38 76
67 83 65 7 -3 14 -23 16 -45 2 -33 -11 -75 -63 -198 -92 -219 -97 -260 -62
-481 15 -93 32 -243 38 -332 9 -130 15 -171 30 -197 16 -26 21 -60 26 -164 3
-72 10 -131 14 -131 5 0 6 69 2 153 -7 191 5 187 45 -13 l29 -145 7 85 c4 47
6 130 4 185 -4 94 -4 91 -7 -40 -3 -147 -18 -165 -22 -25 -1 60 -3 68 -9 40
-4 -19 -8 -33 -9 -30 -6 14 -25 513 -25 630 1 221 19 286 134 485 35 60 74
132 87 159 13 28 21 42 18 31 -29 -91 -75 -261 -85 -310 -7 -33 -35 -111 -62
-174 -62 -139 -70 -203 -43 -341 12 -60 15 -109 11 -147 -3 -32 -8 -103 -10
-158 -4 -100 -4 -100 4 -20 23 237 23 252 5 345 -10 53 -15 110 -12 138 6 54
40 149 63 178 14 18 15 18 8 -6 -4 -14 -7 -54 -7 -90 0 -52 -2 -58 -7 -30 -4
19 -6 -52 -4 -159 3 -107 7 -198 10 -202 5 -8 -3 -44 -21 -94 -6 -17 -5 -17 5
-5 9 12 10 -26 7 -165 -5 -178 -1 -275 12 -275 4 0 8 120 9 267 2 271 6 333
24 333 6 0 8 -30 4 -83 -13 -174 -18 -371 -11 -443 l7 -74 68 0 c67 0 69 1 74
27 3 16 4 161 3 323 -2 162 0 282 3 265 5 -24 9 -15 16 45 l9 75 6 -75 c5 -72
5 -70 7 36 1 61 9 157 18 215 11 74 15 143 11 239 -6 152 -1 160 12 19 7 -78
8 -61 6 96 -2 105 -2 179 1 165 6 -36 27 -201 29 -227 1 -13 5 -26 8 -30 13
-12 6 -218 -9 -288 -8 -38 -17 -95 -19 -125 -4 -53 -3 -53 4 -10 4 25 16 81
25 125 31 141 23 311 -29 615 -8 47 -15 110 -14 140 l1 55 9 -40 c15 -75 43
-280 42 -315 -1 -24 1 -29 6 -16 5 14 12 2 23 -45 9 -35 17 -53 17 -39 0 14
-6 50 -14 80 -17 62 -21 320 -6 320 5 0 11 -8 13 -18 7 -35 -4 375 -12 444 -4
39 -16 83 -25 98 -15 23 -18 55 -19 234 0 114 -3 176 -5 137 l-5 -70 -7 90
c-5 73 -6 66 -3 -35 2 -69 6 -147 9 -175 3 -37 0 -30 -10 25 -18 88 -22 213
-10 290 8 50 9 52 16 25 5 -25 7 -21 9 25 1 30 6 69 11 85 5 18 6 -13 3 -80
-5 -145 3 -123 15 40 6 72 17 182 26 245 8 63 22 193 30 290 8 96 20 220 26
275 7 64 8 164 4 280 -4 99 -9 221 -11 270 -3 91 -22 225 -31 225 -3 0 -2 -24
2 -52 4 -29 9 -120 11 -203 1 -82 7 -190 12 -240 8 -86 0 -224 -26 -430 -5
-38 -7 -90 -5 -115 2 -35 1 -41 -7 -25 -7 14 -9 -8 -6 -80 2 -55 0 -89 -4 -75
-8 24 -8 24 -9 -5 -1 -43 -34 -209 -70 -355 -47 -193 -53 -255 -41 -436 5 -87
13 -180 16 -207 8 -58 -4 -60 -40 -9 -41 60 -52 138 -33 230 9 42 25 136 37
207 11 72 29 164 40 205 23 86 60 303 59 340 -1 25 -11 -20 -45 -204 -10 -54
-20 -94 -22 -88 -2 6 3 46 12 89 36 184 57 368 49 423 -4 30 -6 71 -4 90 l5
35 7 -45 c4 -29 5 -17 3 35 -3 56 -1 75 6 65 7 -11 8 0 5 35 -4 37 -3 45 4 30
7 -14 9 7 5 70 -3 50 -2 85 3 78 4 -6 8 52 8 130 1 78 2 225 4 327 2 111 -1
203 -8 230 -6 25 -10 59 -10 75 1 19 8 2 19 -45 23 -94 25 -73 4 43 -26 151
-9 121 35 -61 56 -233 68 -318 76 -507 4 -120 2 -190 -10 -280 -9 -66 -17
-138 -18 -160 -5 -231 -45 -594 -78 -710 -7 -23 -11 -97 -10 -172 1 -73 -1
-166 -6 -205 -8 -73 -8 -73 -14 -28 -4 25 -4 3 -2 -49 3 -52 10 -112 17 -134
10 -36 11 -25 11 94 0 268 18 493 54 686 18 91 30 213 41 398 6 99 17 243 25
321 11 100 13 160 6 206 -5 37 -5 83 0 109 22 116 8 207 -69 454 -51 164 -66
244 -100 545 l-17 155 -65 3 -65 3 3 -191 c5 -230 -13 -564 -33 -640 l-14 -55
4 60 c10 120 14 352 5 300 -7 -40 -7 -32 -4 40 15 321 16 485 5 485 -9 0 -10
-25 -5 -98 7 -110 -6 -258 -37 -397 -11 -49 -26 -128 -33 -175 -7 -47 -25
-113 -38 -147 -32 -79 -26 -83 9 -5 19 44 62 230 63 275 0 4 5 7 11 7 8 0 10
-33 7 -112 -6 -128 -26 -195 -79 -261 -28 -35 -35 -55 -52 -161 -32 -193 -28
-364 13 -554 34 -159 49 -197 29 -73 -9 55 -9 95 -1 169 7 53 17 144 23 202 6
58 19 151 30 208 10 57 18 106 17 110 -3 13 14 82 21 86 3 2 8 -77 9 -177 3
-152 0 -196 -16 -267 -23 -101 -56 -299 -50 -305 2 -2 19 74 37 170 18 96 35
175 38 175 2 0 2 -19 -2 -42 -3 -24 -7 -115 -9 -203 -2 -111 -9 -181 -21 -228
-23 -87 -32 -80 -12 10 15 62 33 255 21 208 -3 -11 -27 -112 -54 -225 -27
-113 -53 -216 -58 -230 -8 -23 -10 -23 -15 -5 -16 55 -47 285 -52 395 -4 69
-13 202 -21 295 -15 189 -7 328 22 372 30 46 36 87 40 273 2 104 10 224 19
275 21 118 32 395 17 421 -9 14 -11 -22 -12 -151 0 -101 -6 -206 -15 -260 -8
-49 -15 -117 -16 -150 -2 -54 -3 -50 -12 38 -8 80 -7 113 7 182 22 109 34 355
18 355 -9 0 -12 -37 -12 -124 0 -73 -7 -158 -16 -207 -13 -69 -15 -112 -8
-239 14 -260 11 -315 -22 -390 -28 -62 -29 -71 -29 -220 0 -85 8 -270 18 -410
16 -244 29 -334 86 -600 22 -102 48 -330 54 -473 l3 -88 -27 84 c-15 47 -43
116 -62 153 -65 129 -75 183 -82 444 -3 129 -14 305 -23 390 -10 98 -16 243
-17 395 0 223 2 246 24 330 22 80 25 116 29 328 4 218 2 243 -17 305 -11 37
-23 105 -26 152 -10 149 -14 170 -33 170 -12 0 -21 -13 -29 -42 -6 -24 -23
-74 -38 -113 -40 -104 -43 -193 -11 -330 44 -193 52 -277 33 -385 -9 -52 -25
-120 -34 -150 l-17 -55 -9 60 c-4 33 -19 135 -32 227 -51 346 -55 539 -16 667
11 36 19 67 16 69 -2 2 -14 -29 -27 -69 -20 -65 -23 -94 -23 -241 l0 -167 -18
52 c-48 138 -60 216 -54 350 l6 127 -40 0 -40 0 5 -42 c3 -24 8 -72 11 -106 3
-35 24 -150 46 -255 39 -193 46 -240 28 -202 -7 16 -8 12 -5 -15 3 -19 13
-105 23 -190 12 -108 19 -144 23 -120 4 25 8 9 12 -55 3 -49 11 -144 18 -210
14 -130 5 -344 -11 -259 -4 22 -13 103 -19 180 -14 165 -33 311 -61 454 -20
105 -19 227 2 241 5 3 -7 68 -27 145 -45 174 -84 363 -84 403 0 17 -4 31 -10
31 -15 0 -12 -34 10 -156 13 -65 23 -174 26 -269 5 -145 4 -165 -15 -219 -24
-66 -27 -97 -6 -51 13 29 13 29 14 6 2 -59 10 -4 22 147 7 89 14 161 16 159 2
-2 6 -49 8 -103 8 -141 24 -313 34 -355 5 -20 7 -61 5 -90 -2 -50 -2 -51 5
-14 5 22 9 32 10 23 0 -9 8 -92 17 -184 12 -132 13 -168 3 -174 -9 -6 -9 -56
1 -239 6 -128 9 -248 5 -269 -7 -36 -7 -37 -18 -12 -7 15 -12 140 -14 325 -1
165 -6 343 -10 395 -5 58 -7 -54 -5 -285 3 -506 6 -515 196 -808 184 -285 259
-444 291 -612 9 -49 18 -101 21 -115 l5 -25 -15 25 c-8 14 -15 19 -16 12 0
-17 20 -57 80 -157 26 -44 58 -109 70 -145 l22 -65 -41 -115 c-43 -119 -85
-192 -153 -265 -36 -40 -96 -166 -145 -303 -22 -62 -10 -62 14 0 71 187 99
243 143 292 26 28 59 69 73 91 32 47 33 43 7 -59 -13 -53 -42 -118 -86 -196
-36 -65 -73 -140 -84 -166 -41 -109 -53 -310 -31 -525 14 -141 8 -326 -10
-298 -6 10 -9 8 -9 -10 l0 -24 -18 24 c-15 20 -21 58 -30 219 -7 107 -21 240
-32 295 -11 55 -20 136 -20 180 0 87 15 137 104 353 36 86 46 122 44 155 -3
37 -6 42 -30 45 -22 3 -40 -8 -80 -45 -29 -27 -65 -57 -80 -66 -27 -17 -27
-16 -62 25 -49 57 -53 91 -28 228 12 63 23 151 26 195 7 105 34 300 48 349 13
43 47 71 77 61 27 -8 64 -60 111 -154 22 -44 40 -82 40 -85 0 -2 -8 -6 -17 -9
-10 -2 -4 -4 14 -4 18 0 40 -6 50 -14 9 -8 5 2 -9 21 -30 41 -71 120 -65 126
2 2 12 -14 22 -36 17 -37 76 -101 102 -111 12 -5 73 -177 73 -205 -1 -11 -9
-37 -20 -59 -11 -22 -19 -51 -19 -65 0 -17 6 -8 21 30 29 75 27 130 -8 228
-21 59 -37 88 -56 100 -66 44 -91 101 -123 290 -32 185 -56 251 -147 414 -194
345 -230 419 -249 512 -10 49 -21 121 -24 160 -9 101 -32 224 -65 351 -71 271
-89 543 -50 765 32 185 36 292 14 435 -10 69 -22 125 -26 125 -11 0 -10 -3 8
-127 19 -127 15 -249 -15 -433 -11 -69 -23 -153 -26 -187 -4 -35 -10 -63 -14
-63 -10 0 -72 212 -71 247 0 17 14 65 30 107 42 104 44 124 26 205 -9 39 -19
111 -23 161 -3 49 -10 90 -15 90 -4 0 -6 -17 -3 -37 2 -21 7 -67 10 -103 4
-36 13 -93 22 -127 14 -59 14 -65 -7 -127 -12 -36 -24 -66 -27 -66 -3 0 -3 33
0 74 5 53 2 86 -7 114 -8 22 -17 62 -21 89 -16 126 -28 183 -37 183 -6 0 -7
-11 -3 -27 16 -64 35 -265 35 -363 l-1 -105 -25 95 c-20 72 -25 110 -21 155 4
46 -6 160 -23 243 0 1 -7 2 -15 2 -12 0 -15 -14 -15 -67 0 -38 -11 -122 -25
-188 -13 -66 -25 -124 -26 -130 0 -5 -5 4 -11 20 -5 17 -12 105 -15 198 -3 92
-10 167 -14 167 -5 0 -9 -64 -9 -141 0 -171 19 -267 90 -444 37 -92 53 -151
69 -251 23 -142 27 -219 11 -209 -5 3 -10 15 -10 26 0 11 -20 68 -44 127 -24
59 -54 143 -65 187 -11 44 -31 112 -45 150 -41 119 -58 235 -59 405 0 134 -1
146 -9 90 -18 -128 8 -384 49 -480 8 -19 27 -85 43 -146 15 -61 42 -141 59
-177 17 -36 31 -70 31 -74 -2 -17 -74 135 -105 221 -18 50 -43 115 -54 145
-40 100 -53 187 -56 371 -1 96 -3 181 -3 188 -1 8 -20 12 -56 12 l-53 0 -7
-61 c-10 -96 -6 -197 9 -279 8 -41 26 -145 39 -230 14 -85 41 -236 61 -335 33
-162 36 -190 30 -280 -7 -119 -13 -155 -26 -155 -5 0 -9 15 -9 34 0 19 -16 84
-35 145 -49 157 -62 257 -47 369 21 161 16 198 -55 417 -34 103 -37 118 -37
242 -1 139 -9 172 -19 77z m1103 -80 c6 -54 21 -133 33 -174 20 -68 22 -96 21
-305 -1 -219 -2 -235 -29 -335 -26 -100 -28 -116 -29 -330 0 -148 5 -288 17
-410 13 -132 17 -248 15 -403 l-3 -218 -77 124 c-132 211 -148 267 -104 362
55 120 60 159 62 450 2 265 3 272 34 400 45 187 43 273 -15 535 -21 91 -15
182 15 266 12 32 27 78 33 101 6 23 12 41 14 39 1 -1 7 -47 13 -102z m-909
-44 c-8 -129 -8 -131 -10 -44 -1 84 7 189 15 181 2 -1 0 -63 -5 -137z m216
-119 c-8 -36 -48 -124 -54 -118 -2 3 0 14 6 25 6 12 11 29 11 39 0 10 5 35 11
56 11 42 34 41 26 -2z m-210 -73 c-2 -13 -4 -5 -4 17 -1 22 1 32 4 23 2 -10 2
-28 0 -40z m10 -65 c-3 -10 -5 -4 -5 12 0 17 2 24 5 18 2 -7 2 -21 0 -30z
m1344 -137 l1 -91 12 70 12 70 12 -100 c17 -135 18 -204 9 -455 -10 -261 -48
-592 -84 -715 -41 -144 -52 -195 -59 -280 -7 -67 -9 -74 -15 -45 l-6 35 -3
-35 -2 -35 -9 40 c-4 22 -8 63 -7 90 0 44 1 47 9 20 7 -26 8 -24 5 15 -1 25 2
59 8 75 l11 30 5 -45 c3 -25 6 9 5 75 0 118 1 121 37 198 l38 79 -5 151 c-3
95 -1 143 4 127 6 -18 10 9 11 90 1 63 5 129 9 145 4 17 4 48 0 70 -4 22 -17
92 -29 156 -12 63 -20 126 -18 140 2 13 12 -21 22 -76 10 -55 20 -104 22 -110
8 -21 -5 85 -20 170 -21 112 -14 283 10 250 9 -12 14 -50 15 -109z m-1334 82
c-3 -7 -5 -2 -5 12 0 14 2 19 5 13 2 -7 2 -19 0 -25z m10 -40 c-3 -8 -6 -5 -6
6 -1 11 2 17 5 13 3 -3 4 -12 1 -19z m580 -75 c-3 -10 -5 -4 -5 12 0 17 2 24
5 18 2 -7 2 -21 0 -30z m-503 -145 c26 -70 55 -142 65 -160 31 -53 54 -146 48
-192 -5 -37 -2 -47 28 -85 33 -42 35 -46 30 -110 -17 -234 -17 -225 10 -282
22 -48 25 -67 25 -174 0 -66 5 -138 11 -160 6 -22 51 -122 100 -223 49 -101
93 -202 99 -225 5 -23 9 -89 9 -147 -1 -87 -3 -98 -10 -65 -32 140 -100 295
-193 439 -82 128 -88 149 -70 243 12 62 12 96 4 170 -5 51 -10 123 -10 160 -1
37 -10 115 -21 173 -11 58 -20 123 -21 145 0 28 -2 33 -5 15 -4 -19 -11 -7
-29 55 -13 44 -22 86 -19 93 2 6 1 12 -4 12 -5 0 -11 10 -14 23 -3 12 -16 72
-30 132 -14 61 -30 144 -36 185 -7 41 -14 84 -18 95 -3 11 -3 18 0 15 3 -3 26
-62 51 -132z m563 80 c-3 -7 -5 -2 -5 12 0 14 2 19 5 13 2 -7 2 -19 0 -25z
m10 -80 c-3 -7 -5 -2 -5 12 0 14 2 19 5 13 2 -7 2 -19 0 -25z m-680 -10 c-3
-8 -6 -5 -6 6 -1 11 2 17 5 13 3 -3 4 -12 1 -19z m54 -192 c11 -49 18 -94 16
-99 -3 -11 -68 251 -66 268 2 16 28 -74 50 -169z m1478 75 c12 -49 20 -104 20
-122 -1 -27 -3 -29 -6 -9 -6 38 -31 165 -39 194 -3 14 -4 26 -1 26 3 0 15 -40
26 -89z m-842 32 c-3 -10 -5 -4 -5 12 0 17 2 24 5 18 2 -7 2 -21 0 -30z m484
-85 c-32 -127 -59 -306 -75 -492 -9 -93 -17 -170 -19 -173 -2 -2 -9 22 -16 53
-17 87 -13 321 8 461 17 114 21 125 52 160 19 21 41 54 49 73 23 56 24 11 1
-82z m-1043 -353 c48 -171 56 -233 48 -385 -4 -74 -11 -153 -16 -175 -6 -27
-6 -9 -2 55 17 239 0 390 -63 550 -19 47 -34 79 -35 73 0 -7 11 -43 26 -80 37
-99 64 -274 63 -406 -1 -153 -11 -184 -28 -92 -8 39 -35 137 -62 219 -52 158
-60 196 -33 161 15 -19 15 -19 10 5 -3 14 -2 48 2 75 l8 50 13 -47 c14 -49 8
-123 -10 -113 -5 4 -9 -1 -9 -9 0 -27 18 -18 29 15 16 45 14 78 -8 140 -13 38
-16 61 -9 78 5 14 6 39 3 55 -12 68 43 -60 73 -169z m139 169 c-9 -9 -28 6
-21 18 4 6 10 6 17 -1 6 -6 8 -13 4 -17z m424 -305 c12 -68 22 -164 22 -214 0
-54 4 -80 8 -65 9 30 11 4 3 -27 -4 -13 -11 -20 -17 -16 -5 3 -8 2 -5 -3 3 -5
-2 -38 -11 -74 l-16 -65 -1 205 c0 113 -4 248 -8 300 -4 52 -5 92 -2 89 4 -3
16 -62 27 -130z m-474 -286 c-2 -16 -4 -3 -4 27 0 30 2 43 4 28 2 -16 2 -40 0
-55z m-10 -90 c-3 -10 -5 -4 -5 12 0 17 2 24 5 18 2 -7 2 -21 0 -30z m1172
-80 c1 -13 -3 -23 -9 -23 -5 0 -10 21 -9 48 1 38 2 42 9 22 4 -14 8 -35 9 -47z
m-1182 35 c-3 -8 -6 -5 -6 6 -1 11 2 17 5 13 3 -3 4 -12 1 -19z m-13 -56 c-4
-18 -10 -30 -13 -27 -8 4 3 -99 14 -130 3 -11 -1 -7 -10 8 -25 43 -31 129 -11
146 9 7 16 20 16 29 0 8 2 13 5 10 3 -3 2 -19 -1 -36z m936 -135 c-6 -63 -14
-127 -19 -143 -6 -25 -8 -22 -20 30 -12 54 -11 62 16 146 15 48 29 86 31 85 2
-2 -2 -55 -8 -118z m234 18 l-13 -90 5 84 c4 74 11 109 18 99 2 -2 -3 -43 -10
-93z m-1090 -40 c37 -57 49 -79 38 -70 -25 23 -82 131 -81 154 0 20 3 16 14
-17 7 -23 20 -54 29 -67z m1073 -102 c-3 -10 -5 -2 -5 17 0 19 2 27 5 18 2
-10 2 -26 0 -35z m-936 -135 c5 -10 8 -18 5 -18 -6 0 -96 155 -96 166 0 7 58
-87 91 -148z m-223 80 c64 -43 92 -69 92 -86 0 -9 -17 0 -43 24 -24 22 -59 51
-78 66 -47 37 -28 35 29 -4z m183 -186 c12 -35 22 -85 24 -110 1 -26 8 -74 16
-107 22 -101 17 -282 -14 -415 -37 -164 -169 -536 -263 -740 -28 -60 -404
-625 -404 -606 0 7 136 287 154 316 8 14 56 94 105 179 50 85 91 150 91 145 1
-5 17 38 36 96 25 76 37 133 43 206 6 80 12 107 30 132 22 31 51 43 51 21 0
-11 -30 -70 -41 -79 -3 -3 -2 -16 2 -30 4 -14 7 -18 8 -9 1 9 12 41 25 70 13
30 27 83 31 119 4 36 21 99 38 140 30 73 31 79 35 281 4 184 2 217 -18 317
-15 73 -20 124 -15 149 l7 37 19 -24 c10 -14 28 -54 40 -88z m76 -64 c-3 -8
-6 -5 -6 6 -1 11 2 17 5 13 3 -3 4 -12 1 -19z m48 -298 l3 -145 -8 135 c-4 74
-13 159 -19 189 -15 75 -12 87 6 21 8 -31 16 -118 18 -200z m52 118 c-3 -8 -6
-5 -6 6 -1 11 2 17 5 13 3 -3 4 -12 1 -19z m840 -260 c-3 -8 -6 -5 -6 6 -1 11
2 17 5 13 3 -3 4 -12 1 -19z m-900 -60 c-7 -57 -26 -132 -32 -126 -3 2 2 28
10 58 8 30 15 70 15 88 0 17 3 32 6 32 4 0 4 -24 1 -52z m-48 -177 c-6 -18
-13 -30 -15 -28 -2 2 1 18 7 36 6 18 13 30 15 28 2 -2 -1 -18 -7 -36z m888
-63 c-3 -7 -5 -2 -5 12 0 14 2 19 5 13 2 -7 2 -19 0 -25z m-916 -5 c-12 -20
-14 -14 -5 12 4 9 9 14 11 11 3 -2 0 -13 -6 -23z m914 -71 c-14 -64 -36 -134
-40 -130 -2 2 2 26 10 53 8 26 15 69 15 94 1 37 3 43 11 28 6 -10 8 -30 4 -45z
m-934 21 c-12 -20 -14 -14 -5 12 4 9 9 14 11 11 3 -2 0 -13 -6 -23z m-52 -172
c-21 -78 -44 -150 -50 -159 -9 -15 -10 -15 -5 2 6 17 36 125 72 255 8 29 17
51 19 49 2 -2 -14 -68 -36 -147z m1098 102 c-3 -10 -5 -4 -5 12 0 17 2 24 5
18 2 -7 2 -21 0 -30z m-1192 -320 c-9 -37 -18 -20 -9 19 4 18 9 27 11 20 3 -7
2 -24 -2 -39z m44 -94 c-18 -46 -34 -79 -36 -72 -4 12 58 165 65 159 1 -2 -11
-41 -29 -87z m1038 34 c-3 -10 -5 -2 -5 17 0 19 2 27 5 18 2 -10 2 -26 0 -35z
m10 -105 c-2 -13 -4 -3 -4 22 0 25 2 35 4 23 2 -13 2 -33 0 -45z m-8 -145 c-1
-95 -2 -96 -11 -43 -8 50 -3 140 8 140 2 0 3 -44 3 -97z m-1165 -23 c-32 -111
-35 -117 -28 -45 5 53 39 143 49 133 2 -2 -7 -42 -21 -88z m-42 23 c-11 -21
-34 -55 -51 -77 -17 -21 -31 -40 -31 -42 0 -12 14 1 47 44 l38 47 -3 -80 c-6
-144 -61 -309 -137 -415 -37 -52 -109 -176 -118 -205 l-7 -20 16 20 c8 11 27
40 41 65 43 75 115 181 121 176 3 -3 -1 -14 -9 -25 -63 -86 -85 -122 -143
-236 -36 -72 -66 -128 -66 -125 0 3 7 30 15 60 8 30 15 83 15 117 0 61 1 63
85 187 84 122 125 196 125 226 0 8 -11 -10 -24 -41 -24 -60 -144 -239 -185
-277 -32 -30 -84 -30 -105 0 -42 59 4 154 145 303 31 34 71 84 89 113 17 29
36 52 41 52 6 0 8 3 6 8 -6 9 102 176 109 169 3 -3 -3 -22 -14 -44z m1129
-134 c-2 -106 -11 -137 -11 -38 0 36 -6 89 -14 118 l-14 53 20 -20 c18 -18 20
-32 19 -113z m20 -259 c-9 -130 -18 -17 -12 145 l6 160 5 -120 c3 -66 3 -149
1 -185z m-1056 149 c-37 -150 -55 -199 -70 -199 -11 0 -8 13 10 51 13 29 36
101 52 160 15 60 29 105 31 100 2 -5 -9 -55 -23 -112z m1072 -31 c-2 -13 -4
-3 -4 22 0 25 2 35 4 23 2 -13 2 -33 0 -45z m-42 -92 c0 -69 -3 -117 -6 -107
-14 35 -14 231 -1 231 4 0 7 -56 7 -124z"/>
<path d="M2797 4510 c3 -36 7 -67 9 -69 8 -9 2 95 -6 114 -4 12 -6 -7 -3 -45z"/>
<path d="M2843 4460 c0 -41 2 -58 4 -37 2 20 2 54 0 75 -2 20 -4 3 -4 -38z"/>
<path d="M2812 4405 c0 -16 2 -22 5 -12 2 9 2 23 0 30 -3 6 -5 -1 -5 -18z"/>
<path d="M2821 4354 c0 -11 3 -14 6 -6 3 7 2 16 -1 19 -3 4 -6 -2 -5 -13z"/>
<path d="M2848 4333 c-2 -16 -1 -41 3 -58 5 -23 7 -16 8 28 1 60 -4 75 -11 30z"/>
<path d="M2842 4190 c-2 -19 -4 -111 -6 -205 l-4 -170 9 145 c5 80 8 172 6
205 -2 33 -4 44 -5 25z"/>
<path d="M2822 4190 c0 -14 2 -19 5 -12 2 6 2 18 0 25 -3 6 -5 1 -5 -13z"/>
<path d="M2803 3710 c0 -36 2 -50 4 -32 2 17 2 47 0 65 -2 17 -4 3 -4 -33z"/>
<path d="M2822 3715 c0 -16 2 -22 5 -12 2 9 2 23 0 30 -3 6 -5 -1 -5 -18z"/>
<path d="M2712 3090 c0 -19 2 -27 5 -17 2 9 2 25 0 35 -3 9 -5 1 -5 -18z"/>
<path d="M1641 4005 c1 -19 18 -51 18 -35 0 8 -4 22 -9 30 -5 8 -9 11 -9 5z"/>
<path d="M1661 3934 c0 -11 3 -14 6 -6 3 7 2 16 -1 19 -3 4 -6 -2 -5 -13z"/>
<path d="M1731 3184 c-1 -36 25 -86 79 -154 29 -36 64 -89 78 -117 15 -29 30
-53 34 -53 14 0 -64 134 -103 176 -42 47 -58 73 -75 129 -8 24 -13 32 -13 19z"/>
<path d="M1770 2764 c0 -5 5 -15 10 -20 6 -6 24 -42 40 -80 31 -73 42 -75 13
-2 -18 46 -63 119 -63 102z"/>
<path d="M1641 1724 c0 -11 3 -14 6 -6 3 7 2 16 -1 19 -3 4 -6 -2 -5 -13z"/>
<path d="M1640 1653 c-7 -26 -23 -85 -36 -129 -27 -91 -31 -121 -8 -59 21 57
65 227 61 232 -2 2 -10 -18 -17 -44z"/>
<path d="M1572 1390 c0 -14 2 -19 5 -12 2 6 2 18 0 25 -3 6 -5 1 -5 -13z"/>
<path d="M1551 1034 c0 -11 3 -14 6 -6 3 7 2 16 -1 19 -3 4 -6 -2 -5 -13z"/>
<path d="M1541 984 c0 -11 3 -14 6 -6 3 7 2 16 -1 19 -3 4 -6 -2 -5 -13z"/>
<path d="M1526 934 c-4 -14 -5 -28 -3 -31 3 -2 8 8 11 23 4 14 5 28 3 31 -3 2
-8 -8 -11 -23z"/>
<path d="M2424 4985 c0 -77 2 -107 3 -67 2 40 2 103 0 140 -2 37 -3 4 -3 -73z"/>
<path d="M2615 4993 c5 -99 3 -145 -9 -202 -9 -41 -14 -76 -12 -79 2 -2 11 28
20 67 19 82 23 341 5 341 -7 0 -8 -40 -4 -127z"/>
<path d="M2860 5108 c0 -53 46 -326 66 -393 25 -83 74 -272 118 -455 13 -58
25 -96 25 -85 1 11 -15 87 -34 169 -19 82 -35 152 -34 155 3 30 85 -302 99
-403 l9 -61 -3 65 c-4 70 -70 359 -92 400 -41 78 -103 320 -129 500 -15 106
-25 147 -25 108z"/>
<path d="M2920 5116 c0 -26 34 -168 55 -226 14 -41 44 -149 66 -240 88 -364
126 -615 116 -762 -6 -73 -13 -98 -73 -253 -24 -64 -27 -88 -35 -274 -4 -112
-15 -251 -24 -310 -8 -58 -24 -178 -36 -266 -11 -88 -29 -200 -40 -250 -10
-49 -21 -119 -23 -155 -2 -36 -2 -51 0 -35 6 38 74 405 79 425 2 8 2 -23 -1
-70 -19 -330 -22 -525 -14 -1305 3 -330 4 -341 12 -200 5 83 6 247 1 365 -17
493 2 1190 42 1515 8 65 15 164 15 220 1 55 5 145 9 200 8 87 14 111 50 185
45 94 61 166 61 280 0 96 -30 298 -70 470 -62 266 -108 508 -115 598 -4 51
-12 92 -17 92 -8 0 -7 -21 7 -170 l5 -45 -14 35 c-7 20 -19 68 -26 108 -6 40
-16 72 -21 72 -5 0 -9 -2 -9 -4z"/>
<path d="M3034 5098 c3 -13 10 -54 16 -93 6 -38 37 -176 69 -305 32 -129 78
-316 102 -415 l44 -180 -1 -190 c0 -177 -2 -197 -28 -295 -43 -158 -71 -543
-46 -620 5 -15 6 3 3 45 -8 108 23 400 60 555 30 126 32 147 32 315 -1 201 5
173 -150 795 -35 140 -69 290 -75 333 -7 42 -17 77 -22 77 -4 0 -6 -10 -4 -22z"/>
<path d="M3097 5078 c3 -24 16 -92 28 -153 78 -380 98 -475 102 -471 6 6 -35
239 -67 376 -16 69 -34 162 -41 208 -6 45 -15 82 -19 82 -5 0 -6 -19 -3 -42z"/>
<path d="M3204 5098 c3 -13 12 -59 21 -103 8 -44 42 -159 74 -255 32 -96 66
-207 76 -247 10 -40 22 -70 26 -67 8 4 15 -15 44 -121 9 -33 25 -72 36 -86 24
-34 24 -46 2 -28 -12 10 -11 5 4 -17 24 -34 64 -71 48 -44 -9 15 -13 32 -18
85 -2 17 -27 85 -55 153 -29 67 -57 146 -63 175 -5 28 -12 63 -15 77 -4 17 -2
22 5 15 16 -16 150 -437 147 -465 -1 -14 0 -29 3 -35 3 -5 7 -21 9 -35 3 -23
1 -23 -38 15 -40 39 -44 47 -89 205 -10 33 -10 33 -5 -10 4 -25 15 -74 26
-110 18 -57 29 -73 95 -137 41 -40 72 -77 68 -82 -6 -11 -85 41 -122 81 -28
31 -69 159 -88 283 -9 55 -20 108 -25 117 -6 10 -10 26 -10 35 0 26 -48 167
-65 189 -8 10 -3 -10 11 -45 14 -35 35 -114 45 -175 30 -171 47 -259 54 -281
6 -16 5 -17 -4 -5 -6 8 -29 70 -53 138 -23 68 -44 119 -45 115 -7 -19 81 -251
115 -307 20 -32 61 -80 91 -105 90 -76 109 -99 116 -140 10 -60 -9 -111 -60
-161 -25 -24 -45 -53 -45 -64 0 -17 5 -15 30 14 l30 35 -7 -30 c-3 -16 -17
-64 -29 -105 -35 -111 -21 -97 17 19 18 55 35 99 37 97 2 -3 -8 -49 -23 -103
-30 -111 -104 -285 -117 -277 -5 4 -8 0 -7 -7 1 -8 -1 -21 -4 -29 -25 -63 -56
-187 -52 -204 4 -14 3 -17 -3 -8 -10 14 -36 -71 -52 -173 -17 -107 -7 -348 13
-295 18 50 18 45 1 -47 -9 -47 2 -79 45 -126 47 -52 61 -78 77 -142 7 -30 13
-40 13 -25 1 14 -3 40 -8 58 -6 20 -6 32 0 32 5 0 0 9 -11 20 -35 35 -22 39
41 12 73 -31 84 -52 71 -126 l-10 -51 -1 62 c-2 90 -16 85 -16 -5 0 -102 -9
-139 -47 -198 -18 -27 -32 -51 -33 -54 -2 -18 -70 -170 -73 -162 -3 9 8 38 60
167 54 134 52 180 -10 247 -55 59 -137 209 -156 285 -39 154 -32 288 25 458
49 145 66 218 59 245 -6 23 -8 22 -18 -15 -6 -22 -13 -56 -17 -75 -4 -19 -22
-87 -40 -150 -63 -222 -67 -336 -14 -494 22 -65 110 -218 160 -277 42 -50 48
-100 19 -168 -13 -28 -31 -56 -41 -62 -10 -5 -23 -19 -29 -32 -10 -20 -9 -19
10 3 16 20 13 4 -19 -88 -38 -107 -51 -176 -66 -337 -14 -149 -54 -316 -102
-418 -38 -83 -48 -118 -63 -220 -10 -67 -30 -174 -44 -238 -14 -64 -29 -145
-33 -180 -6 -61 -7 -62 -15 -29 -17 73 14 546 53 805 11 75 24 236 30 380 5
138 16 300 25 360 19 139 34 403 34 610 1 204 10 270 60 401 55 144 60 176 69
414 5 134 11 212 20 225 10 16 11 -13 8 -155 l-4 -175 33 69 c18 38 41 103 50
145 8 42 25 109 35 148 l20 73 -31 64 c-37 79 -48 126 -29 126 27 0 37 -16 42
-65 6 -60 37 -149 48 -138 4 4 -1 34 -12 67 -26 77 -23 110 12 114 39 5 73
-41 65 -88 -4 -24 -3 -30 4 -20 5 8 10 23 10 33 0 47 -70 115 -100 97 -7 -4
-24 -4 -37 1 -63 24 -70 -10 -23 -109 17 -35 30 -74 30 -86 0 -41 -61 -291
-83 -339 l-22 -49 -1 153 c-1 85 -4 255 -8 379 -6 210 -9 235 -42 378 -19 84
-32 163 -29 175 5 17 4 19 -4 7 -8 -12 -10 -8 -9 15 2 35 -33 247 -40 241 -4
-4 16 -164 39 -306 6 -36 22 -110 36 -165 24 -91 26 -120 28 -330 2 -126 -1
-250 -7 -275 -5 -25 -13 -135 -18 -245 -9 -218 -15 -246 -86 -405 l-38 -85 -7
-370 c-5 -240 -13 -414 -24 -495 -9 -69 -20 -231 -25 -360 -8 -228 -33 -477
-49 -493 -7 -7 -25 545 -22 653 1 19 10 82 21 140 25 135 26 158 17 630 -5
279 -4 413 4 455 6 33 13 165 15 293 2 129 9 242 14 252 6 10 10 22 10 27 -1
4 -8 -5 -17 -22 -14 -25 -18 -73 -23 -275 -3 -135 -10 -252 -15 -260 -6 -9
-10 -218 -10 -520 l0 -505 -28 -105 c-17 -67 -28 -135 -29 -190 l-2 -85 -7
110 c-8 136 0 -229 13 -620 6 -159 12 -487 14 -727 l4 -438 41 0 41 0 -6 102
c-9 143 8 479 32 623 11 66 25 156 31 200 8 56 23 104 50 160 21 45 44 113 52
155 l14 75 3 -130 c4 -153 -10 -296 -39 -409 -12 -44 -27 -130 -34 -191 -11
-99 -11 -123 7 -240 10 -71 23 -179 27 -240 l8 -110 2 87 c0 47 -8 151 -20
230 -24 166 -22 200 38 508 50 264 65 281 77 87 11 -192 63 -257 157 -194 86
58 136 194 150 407 7 101 20 193 45 303 19 87 34 163 32 168 -4 13 -75 -278
-88 -361 -5 -36 -10 -92 -10 -125 -1 -135 -54 -290 -122 -351 -45 -40 -72 -41
-100 -4 -17 23 -18 47 -18 280 0 140 5 275 10 300 5 25 9 91 10 148 0 60 7
130 16 168 17 67 21 72 112 135 35 25 51 47 86 122 56 120 66 150 66 208 0 59
-33 230 -62 324 -19 63 -29 77 -96 142 -67 65 -75 78 -80 118 -2 25 -9 48 -13
51 -13 8 -11 86 5 192 15 102 70 232 138 328 20 27 43 64 53 83 9 18 35 54 58
79 l42 45 -53 -37 c-70 -50 -100 -89 -160 -204 -62 -120 -88 -202 -102 -328
-12 -106 -5 -208 13 -197 6 4 8 0 4 -11 -10 -26 17 -70 69 -112 40 -33 94
-101 94 -119 0 -3 -13 4 -29 16 -16 12 -50 24 -75 26 -61 7 -71 27 -86 163
-27 242 16 442 139 656 48 83 84 204 116 384 l23 135 1 -80 c1 -44 -3 -96 -9
-114 -7 -26 -7 -32 2 -23 36 36 12 313 -42 477 -16 50 -36 131 -45 180 -9 50
-36 140 -60 201 -92 237 -115 397 -75 545 11 41 20 77 20 82 0 4 -22 7 -49 7
l-49 0 -13 -47 -13 -48 -6 50 c-5 46 -6 47 -12 20 -4 -16 -10 -61 -14 -100
l-7 -70 -23 60 c-13 33 -26 77 -30 98 -6 36 -8 37 -50 37 -41 0 -44 -2 -40
-22z m124 -295 c11 -21 22 -51 26 -68 l6 -30 -25 30 c-14 17 -24 38 -21 48 2
9 0 17 -5 17 -5 0 -9 9 -9 20 0 29 7 25 28 -17z m181 -583 c1 -12 -1 -12 -13
0 -14 15 -47 105 -45 124 1 15 57 -105 58 -124z m11 -61 c0 -6 -4 -7 -10 -4
-5 3 -10 11 -10 16 0 6 5 7 10 4 6 -3 10 -11 10 -16z m-133 -1151 c-3 -8 -6
-5 -6 6 -1 11 2 17 5 13 3 -3 4 -12 1 -19z m-10 -40 c-3 -8 -6 -5 -6 6 -1 11
2 17 5 13 3 -3 4 -12 1 -19z m-10 -50 c-3 -7 -5 -2 -5 12 0 14 2 19 5 13 2 -7
2 -19 0 -25z m-10 -40 c-3 -8 -6 -5 -6 6 -1 11 2 17 5 13 3 -3 4 -12 1 -19z
m344 -778 c0 -25 -7 -63 -16 -85 l-15 -40 5 35 c3 19 8 62 10 95 l4 60 -9 -50
c-6 -27 -12 -76 -14 -108 -6 -73 -49 -170 -92 -205 -86 -70 -99 -78 -90 -57 4
11 19 48 31 81 13 34 46 103 73 155 28 52 57 119 67 149 9 30 19 62 22 70 8
20 23 -43 24 -100z m-315 -326 c-8 -21 -15 -34 -15 -28 -1 15 20 76 25 71 2
-2 -2 -21 -10 -43z m-323 -286 c15 -349 14 -585 -1 -600 -9 -9 -12 72 -14 357
-1 245 -4 326 -8 240 -6 -130 -6 -130 -8 -34 -2 102 8 312 15 305 2 -2 9 -123
16 -268z m304 220 c-3 -8 -6 -5 -6 6 -1 11 2 17 5 13 3 -3 4 -12 1 -19z m-10
-55 c-3 -10 -5 -4 -5 12 0 17 2 24 5 18 2 -7 2 -21 0 -30z m-10 -60 c-3 -10
-5 -4 -5 12 0 17 2 24 5 18 2 -7 2 -21 0 -30z"/>
<path d="M3647 5043 c-3 -43 -17 -114 -31 -158 -36 -113 -35 -176 7 -256 20
-40 45 -72 67 -86 62 -40 60 -33 60 -193 0 -124 4 -166 25 -252 14 -57 25
-134 26 -173 1 -56 2 -64 9 -41 11 34 45 73 83 92 32 17 32 15 17 -67 -7 -33
-30 -86 -61 -138 -27 -46 -43 -79 -35 -72 27 23 95 146 114 207 28 91 6 117
-65 73 -19 -12 -36 -20 -37 -18 -2 2 -16 56 -31 119 -23 98 -27 135 -26 250 1
147 19 349 33 364 5 6 8 5 8 -2 0 -7 5 -12 10 -12 7 0 7 6 0 19 -12 23 -14 71
-2 71 4 0 20 -18 34 -41 52 -81 50 -204 -8 -351 -22 -56 -35 -108 -36 -137 0
-91 60 -181 121 -181 47 0 148 87 185 158 31 60 58 174 71 302 15 141 21 600
8 600 -5 0 -6 -80 -4 -177 3 -172 -14 -480 -30 -532 -6 -22 -7 -18 -8 19 -1
53 -17 117 -32 126 -7 4 -6 -2 1 -16 7 -12 14 -66 17 -119 7 -132 -15 -192
-102 -278 -35 -34 -75 -65 -89 -69 -36 -9 -73 18 -97 69 -22 50 -23 98 -3 152
9 22 23 63 32 90 9 28 32 69 50 92 66 84 122 250 122 364 0 35 -31 211 -46
262 -6 18 -34 24 -34 7 0 -5 9 -48 20 -95 29 -123 26 -342 -3 -332 -6 2 -14
14 -18 28 -3 13 -31 111 -60 217 l-54 192 -40 0 -40 0 -19 -192 c-14 -156 -15
-210 -7 -283 14 -121 15 -120 -4 -105 -17 14 -47 76 -71 143 -8 22 -14 71 -14
109 0 59 6 83 35 148 35 77 40 111 25 160 -5 18 -7 7 -7 -35 0 -48 -7 -74 -34
-130 -29 -62 -33 -79 -32 -147 1 -64 7 -89 37 -159 19 -46 33 -85 31 -88 -11
-10 -60 48 -86 104 -35 72 -37 128 -9 211 20 56 50 206 50 245 0 11 -4 19 -9
19 -4 0 -11 -35 -14 -77z m207 -214 c3 -17 6 -43 6 -58 l-1 -26 -14 25 c-16
28 -20 90 -6 90 5 0 11 -14 15 -31z"/>
<path d="M4083 5053 c15 -114 3 -287 -26 -368 -47 -133 -93 -230 -145 -309
-58 -88 -65 -125 -34 -186 68 -137 226 -12 220 174 l-1 51 -7 -45 -7 -45 -1
52 c-1 33 2 53 11 56 9 4 9 6 -1 6 -19 1 -50 -75 -56 -139 -4 -42 -3 -47 3
-20 7 30 9 31 10 10 3 -25 3 -25 16 5 11 23 14 25 14 10 1 -33 -44 -120 -74
-143 -35 -28 -66 -28 -92 1 -57 62 -57 102 3 175 73 89 149 262 179 403 23
107 15 367 -11 376 -7 3 -8 -16 -1 -64z"/>
<path d="M4252 5068 c18 -102 12 -294 -16 -502 -50 -373 -115 -566 -269 -800
-41 -61 -91 -139 -113 -174 -21 -34 -63 -99 -92 -144 -29 -45 -46 -75 -37 -68
9 7 41 52 72 99 31 47 102 156 158 241 196 297 238 420 296 865 26 202 30 260
25 365 -5 126 -12 170 -26 170 -4 0 -3 -24 2 -52z"/>
<path d="M4368 5011 c5 -129 -11 -281 -43 -405 -37 -141 -38 -145 -20 -106 41
88 67 239 72 433 4 116 2 187 -4 187 -6 0 -8 -43 -5 -109z"/>
<path d="M4438 4950 c3 -169 3 -170 -24 -216 -22 -38 -27 -57 -26 -110 1 -49
-9 -101 -43 -217 -96 -331 -137 -425 -269 -620 -46 -68 -116 -188 -156 -267
-86 -171 -167 -292 -261 -386 -49 -49 -66 -107 -75 -259 -8 -117 4 -154 57
-175 27 -12 36 -11 65 5 18 9 40 33 49 51 9 19 19 34 22 34 8 0 -7 -162 -18
-181 -17 -32 -40 -30 -99 8 -31 21 -72 46 -89 55 -44 24 -54 57 -49 173 3 55
1 89 -3 75 -12 -42 -10 -193 4 -220 6 -14 35 -36 63 -50 28 -14 65 -37 83 -52
18 -16 43 -28 55 -28 23 0 23 -3 30 -146 5 -106 14 -173 33 -243 13 -53 29
-112 34 -131 25 -99 4 -204 -67 -340 -51 -96 -89 -216 -140 -440 -43 -188 -62
-258 -75 -265 -11 -8 -11 271 0 445 10 146 22 181 104 289 56 73 83 130 74
154 -3 7 -6 4 -6 -6 -1 -28 -28 -75 -87 -152 -84 -112 -94 -148 -106 -375 -11
-221 -6 -406 11 -423 9 -9 11 -8 6 4 -3 9 3 31 14 50 10 19 40 117 66 219 82
325 94 363 155 485 69 136 105 260 97 333 -3 26 -12 115 -21 197 -8 83 -18
164 -20 180 -3 17 1 52 9 79 8 27 15 83 15 125 0 130 20 354 37 405 9 28 31
74 49 105 32 53 33 54 42 30 39 -103 35 -185 -15 -260 -22 -34 -26 -53 -34
-186 -5 -81 -11 -154 -14 -160 -2 -7 -11 -67 -20 -134 -18 -140 -10 -228 32
-339 54 -142 55 -149 37 -208 -8 -30 -44 -114 -79 -186 -69 -142 -80 -175 -89
-251 -4 -27 -9 -68 -12 -90 -4 -28 -2 -36 5 -26 5 8 15 53 21 100 10 73 24
113 90 256 113 246 111 229 50 405 -41 120 -49 224 -26 366 9 56 23 118 31
138 9 20 20 85 26 144 6 60 21 138 35 178 28 82 30 137 8 231 -17 76 -13 125
18 218 24 71 120 265 173 350 35 56 36 58 31 25 -3 -19 -10 -111 -16 -205 -6
-93 -15 -197 -21 -230 -30 -167 -54 -276 -99 -445 -27 -102 -58 -237 -69 -300
-19 -114 -38 -330 -28 -320 3 3 10 64 16 135 13 150 42 297 100 510 73 266 98
413 122 740 8 111 17 169 28 188 l16 28 6 -28 c7 -28 7 -28 8 5 1 35 91 210
91 177 0 -11 -9 -50 -19 -87 -11 -37 -24 -118 -31 -180 -6 -62 -27 -178 -46
-257 -19 -79 -33 -145 -31 -147 11 -11 70 252 83 365 15 134 42 256 80 359 13
34 24 70 23 80 0 9 -8 -8 -19 -38 -26 -78 -24 -35 4 101 23 111 48 189 61 189
3 0 2 -8 -4 -17 -5 -9 -7 -40 -4 -68 6 -58 -36 -357 -73 -520 -14 -60 -38
-168 -54 -240 -16 -71 -40 -166 -54 -210 -14 -44 -27 -87 -27 -95 -1 -8 -5 3
-9 25 -6 33 -7 27 -8 -35 -1 -44 -11 -114 -26 -170 -27 -100 -28 -135 -2 -53
15 47 15 47 9 8 -3 -22 -31 -119 -64 -215 -71 -210 -83 -263 -104 -445 -25
-217 -24 -386 4 -533 13 -68 25 -121 27 -119 2 2 -1 39 -7 83 -20 145 -22 340
-4 514 20 207 45 329 100 500 42 128 75 265 89 375 4 28 22 104 41 170 58 210
155 689 155 770 0 16 3 26 6 22 22 -22 -71 -648 -126 -846 -11 -40 -20 -90
-19 -110 1 -20 -1 -56 -4 -81 -6 -43 -6 -43 13 15 11 33 19 67 19 75 -1 8 -5
4 -9 -10 l-8 -25 -1 24 c-1 13 12 78 28 145 45 187 99 513 116 701 21 224 58
347 155 515 68 117 198 384 214 438 20 70 3 57 -20 -15 -25 -81 -157 -332
-170 -325 -3 2 -9 0 -12 -4 -4 -4 -1 -4 6 0 19 11 14 -15 -10 -54 -11 -19 -40
-73 -64 -120 -24 -47 -44 -77 -44 -68 0 10 24 65 54 123 30 58 48 101 40 95
-15 -13 -100 -184 -107 -218 -3 -12 -1 -20 4 -16 5 3 9 1 9 -5 0 -17 -18 -22
-24 -6 -12 32 89 250 178 383 30 46 70 122 88 169 21 55 44 98 65 118 33 32
54 73 52 103 0 9 -7 -1 -15 -23 -8 -22 -25 -49 -39 -61 -14 -11 -45 -65 -70
-123 -44 -101 -84 -175 -91 -169 -1 2 21 69 51 148 30 80 54 154 54 165 0 11
-11 -11 -23 -50 -37 -113 -91 -240 -123 -286 -40 -59 -66 -110 -59 -117 3 -3
6 -1 6 4 0 15 60 107 66 102 8 -9 -83 -148 -91 -140 -5 4 -5 -2 -1 -13 5 -14
4 -17 -4 -9 -11 11 -3 47 9 40 4 -3 8 30 8 72 0 42 -1 66 -4 52 -5 -22 -7 -20
-19 20 -17 57 -17 74 1 35 l14 -30 -6 32 c-6 34 10 66 68 139 17 21 37 53 45
69 8 18 9 22 2 11 -7 -10 -25 -35 -41 -55 -15 -20 -41 -56 -58 -81 -27 -39
-30 -41 -25 -16 4 15 24 51 45 80 49 64 60 87 82 158 l17 58 -23 0 c-16 0 -30
-11 -43 -35 -14 -22 -32 -37 -54 -43 -44 -12 -51 -6 -45 39 9 67 -8 43 -28
-38 -23 -98 -23 -196 0 -295 22 -94 15 -135 -46 -272 -22 -49 -47 -119 -55
-155 -58 -259 -88 -335 -187 -472 -73 -102 -162 -254 -203 -348 -18 -43 -44
-131 -57 -197 -17 -86 -35 -141 -64 -199 -52 -103 -60 -144 -73 -367 -6 -100
-16 -212 -22 -248 -8 -51 -7 -96 6 -204 8 -76 13 -143 10 -147 -11 -18 -22 2
-40 73 -20 78 -22 198 -12 563 6 200 15 241 87 396 40 87 81 208 81 238 -1 9
-13 -22 -29 -69 -16 -47 -49 -130 -75 -185 -49 -104 -77 -194 -96 -307 -13
-74 -36 -104 -87 -114 -26 -5 -34 -2 -48 20 -15 23 -17 41 -11 129 10 150 23
204 52 224 53 34 183 225 269 394 47 92 122 218 166 281 122 172 169 280 268
622 31 104 41 157 41 209 0 61 4 76 31 118 l31 48 -8 171 c-4 93 -10 170 -13
170 -3 0 -5 -76 -3 -170z m227 70 c-9 -28 -32 -70 -50 -94 -44 -58 -55 -79
-56 -113 l-1 -28 -8 30 c-4 17 -8 58 -9 92 l-1 62 48 24 c31 15 54 35 67 60
26 48 31 31 10 -33z m27 -312 c-7 -7 -12 -8 -12 -2 0 6 3 14 7 17 3 4 9 5 12
2 2 -3 -1 -11 -7 -17z m-165 -410 c-3 -7 -5 -2 -5 12 0 14 2 19 5 13 2 -7 2
-19 0 -25z m-10 -50 c-3 -8 -6 -5 -6 6 -1 11 2 17 5 13 3 -3 4 -12 1 -19z
m-567 -1635 c-10 -16 -11 -15 -6 7 3 14 7 39 8 55 1 26 2 25 5 -7 2 -21 -1
-46 -7 -55z m-100 -542 c7 -31 8 -60 2 -82 -8 -32 -9 -30 -15 31 -3 36 -9 73
-12 83 -4 9 -3 17 3 17 5 0 15 -22 22 -49z"/>
<path d="M4955 5109 c-23 -63 -45 -135 -45 -147 0 -8 -18 -52 -39 -98 -22 -46
-38 -84 -35 -84 19 0 143 324 129 339 -3 2 -7 -2 -10 -10z"/>
<path d="M4997 5113 c-3 -5 -21 -72 -41 -151 -51 -196 -60 -214 -204 -412
-107 -147 -196 -322 -207 -412 -2 -15 -8 -53 -14 -85 -5 -32 -13 -92 -16 -133
-13 -148 -56 -408 -91 -549 -19 -78 -33 -145 -31 -147 9 -9 97 365 97 411 0
15 3 24 8 22 4 -3 7 14 7 36 1 75 45 360 67 432 43 142 86 212 54 89 -25 -96
-34 -180 -41 -347 -3 -87 -12 -195 -20 -240 -28 -153 -46 -227 -56 -227 -16 0
-10 96 12 197 13 60 18 103 12 115 -6 13 -8 5 -10 -29 -1 -27 -17 -111 -37
-187 -19 -77 -34 -142 -32 -144 2 -2 10 21 17 50 l14 53 5 -45 c3 -30 0 -57
-11 -80 -9 -19 -28 -71 -42 -115 -14 -44 -51 -133 -82 -198 -30 -66 -64 -155
-75 -199 -10 -43 -26 -100 -34 -126 -8 -26 -20 -83 -25 -127 -6 -44 -17 -132
-26 -195 -21 -169 -43 -501 -31 -489 3 2 12 105 21 229 22 314 71 618 96 593
14 -15 12 -96 -5 -181 -10 -45 -16 -88 -14 -94 2 -6 10 21 17 60 7 40 17 75
23 78 12 8 9 -39 -21 -276 -11 -91 -27 -223 -35 -295 -15 -126 -49 -296 -81
-400 l-15 -50 4 80 c3 64 2 72 -5 40 -5 -22 -12 -112 -15 -200 -6 -134 -4
-174 11 -240 20 -94 40 -145 55 -145 7 0 8 6 0 19 -42 79 -65 334 -38 422 14
50 28 50 28 1 0 -21 13 -89 30 -152 34 -132 36 -167 14 -280 -8 -45 -13 -84
-11 -86 9 -10 38 140 47 247 6 63 15 143 20 179 39 253 42 265 80 335 76 140
84 181 86 440 1 127 7 273 13 325 6 52 11 154 11 225 0 72 6 171 14 220 8 50
17 117 20 150 4 33 17 89 31 125 l24 65 0 -51 c1 -28 -2 -67 -6 -85 l-7 -34
-8 30 c-6 25 -7 23 -3 -10 2 -22 -5 -74 -17 -120 -30 -115 -30 -295 0 -385 26
-76 29 -187 8 -247 -8 -22 -22 -77 -31 -123 -14 -69 -15 -95 -6 -159 10 -66 9
-93 -9 -197 -11 -67 -32 -161 -45 -210 -83 -300 -149 -560 -170 -667 -13 -67
-29 -135 -35 -152 -7 -18 -7 -26 -1 -20 10 10 19 43 66 250 24 104 94 374 156
600 11 39 26 113 35 165 25 159 21 151 56 96 42 -64 54 -176 25 -240 -103
-227 -208 -540 -247 -736 -17 -85 -37 -175 -45 -199 -21 -64 -18 -133 10 -240
33 -121 50 -158 128 -284 36 -56 90 -142 121 -191 31 -49 56 -85 56 -79 0 10
-10 26 -153 258 -96 153 -119 206 -150 343 -18 80 -20 97 -8 135 7 23 25 107
41 187 15 80 33 166 39 193 29 125 137 421 222 611 22 48 47 115 55 147 14 53
14 63 0 91 -17 32 -20 68 -10 105 l6 21 39 -26 c45 -31 47 -46 19 -127 -11
-31 -17 -61 -14 -66 3 -5 1 -9 -4 -9 -15 0 -89 -178 -105 -255 -8 -38 -18 -99
-22 -135 -4 -36 -18 -91 -31 -122 -13 -32 -35 -84 -48 -115 -59 -143 -100
-264 -109 -331 -10 -66 -8 -87 17 -215 63 -326 89 -403 172 -529 30 -44 61
-105 70 -135 16 -55 29 -73 18 -25 -11 53 -35 105 -75 164 -83 122 -112 208
-169 508 -38 197 -36 223 25 396 50 142 67 177 106 222 33 37 36 48 43 152 7
104 48 258 92 346 43 88 63 107 33 32 -64 -160 -92 -272 -104 -413 -4 -52 -29
-160 -71 -307 -66 -235 -75 -296 -54 -383 5 -22 24 -123 41 -225 17 -102 39
-203 50 -225 10 -22 53 -85 94 -140 42 -55 78 -112 82 -127 3 -16 9 -28 14
-28 22 0 -3 65 -40 105 -43 46 -140 195 -127 195 3 0 25 -30 49 -67 24 -38 62
-92 85 -122 23 -30 44 -67 47 -83 5 -19 13 -28 27 -28 17 0 19 4 13 32 -13 60
-47 128 -107 210 -33 47 -65 104 -73 132 -18 62 -41 212 -50 321 l-6 80 77
-150 c121 -236 211 -496 201 -582 -4 -38 -2 -43 15 -43 19 0 20 6 16 82 -4 74
-12 102 -76 268 -42 106 -96 223 -127 275 -93 153 -117 233 -99 323 6 29 8 27
45 -46 21 -43 61 -104 89 -136 58 -66 83 -114 164 -302 52 -124 79 -227 111
-428 4 -21 8 -36 11 -34 10 10 -46 298 -72 368 -14 41 -51 128 -81 195 -106
232 -130 291 -173 416 l-42 126 21 48 c13 29 25 45 30 39 9 -9 29 -103 51
-237 15 -92 59 -213 135 -370 35 -73 75 -166 89 -207 26 -78 76 -312 76 -356
0 -22 4 -24 45 -24 l45 0 0 158 c0 214 -15 370 -43 451 -13 37 -59 120 -102
186 -68 105 -80 131 -96 204 -11 47 -18 90 -17 95 0 6 -3 20 -7 31 -4 11 -17
43 -27 70 -11 28 -28 64 -38 80 -28 46 -34 94 -16 137 9 21 16 52 17 70 l1 33
9 -33 c6 -21 6 -46 0 -69 -12 -43 -1 -105 29 -164 11 -21 24 -56 29 -76 8 -33
9 -34 10 -11 1 15 -8 51 -19 79 -10 29 -16 57 -13 62 3 6 1 7 -5 3 -18 -11
-26 62 -13 118 8 31 36 85 71 136 32 47 69 112 83 145 37 88 135 407 142 462
3 29 -15 -18 -45 -115 -100 -321 -135 -402 -216 -497 l-34 -40 0 39 c0 25 16
74 46 140 26 56 58 130 71 165 13 36 33 77 44 93 11 15 17 33 13 39 -4 7 -3 9
3 6 25 -15 78 168 89 301 4 48 13 99 20 114 8 15 14 35 14 45 -1 11 -9 2 -22
-22 -11 -22 -22 -42 -24 -44 -2 -2 -16 4 -31 14 l-28 18 28 -30 c29 -31 34
-71 21 -180 -9 -75 -24 -55 -24 33 0 106 -16 139 -82 168 -29 13 -61 32 -70
43 -27 29 -38 133 -21 196 21 82 63 290 63 314 0 12 4 23 9 25 5 2 6 17 3 33
-5 25 -8 19 -18 -40 l-12 -70 -1 71 c-1 65 2 77 33 128 36 60 39 74 56 251 25
268 52 392 96 444 15 18 24 40 22 53 -3 21 -5 20 -31 -14 -46 -60 -67 -162
-103 -493 -9 -82 -20 -156 -24 -164 -4 -8 -11 53 -15 135 -8 167 11 358 44
445 10 26 16 51 12 55 -3 4 -1 4 6 0 25 -14 109 136 111 199 l1 40 -20 -50
c-10 -27 -16 -39 -13 -25 3 14 8 74 11 134 3 65 9 103 14 95 5 -8 7 52 6 138
-3 227 -21 162 -28 -102 -6 -245 -15 -284 -84 -381 -39 -55 -99 -226 -114
-326 -6 -35 -17 -97 -26 -138 -11 -49 -19 -158 -25 -320 -7 -238 -8 -248 -40
-345 -32 -101 -49 -229 -36 -279 4 -15 31 -53 61 -86 86 -94 88 -176 6 -283
-26 -34 -61 -82 -77 -107 -16 -25 -37 -54 -48 -65 -18 -20 -18 -19 -1 13 9 19
23 66 31 104 8 39 20 80 26 92 13 23 18 48 25 118 4 42 2 50 -23 73 -15 14
-32 25 -39 25 -38 0 -58 154 -34 259 5 24 8 46 5 48 -2 3 -10 -22 -17 -54 -17
-78 -16 -181 4 -219 15 -29 14 -32 -14 -74 -35 -51 -38 -101 -9 -130 22 -22
79 -27 98 -8 7 7 12 9 12 5 0 -7 -38 -87 -46 -95 -1 -2 -17 4 -34 14 -46 28
-74 93 -67 157 12 110 27 254 31 302 l5 50 -10 -50 c-6 -27 -13 -61 -16 -75
l-6 -25 -7 25 c-18 56 -9 87 66 238 99 200 114 246 113 341 0 42 -4 85 -9 96
-4 11 -6 -15 -3 -60 4 -60 1 -97 -12 -140 -19 -68 -112 -271 -120 -263 -5 4
43 193 75 298 6 19 15 98 20 175 5 77 16 183 26 235 9 52 18 158 19 235 7 355
21 569 39 610 10 22 31 85 46 140 15 55 44 144 63 197 42 112 137 466 137 509
0 27 -3 29 -39 29 -22 0 -42 -3 -44 -7z m-151 -710 c-9 -33 -30 -93 -48 -134
l-32 -74 -2 -215 c-1 -217 -19 -382 -50 -480 -7 -25 -25 -137 -39 -250 -15
-113 -44 -281 -65 -375 -22 -93 -42 -190 -46 -215 l-8 -45 -13 50 c-15 56 -18
32 62 470 24 132 49 301 55 375 7 74 15 139 18 145 4 5 7 59 8 120 2 125 5
148 -34 -245 -20 -194 -34 -280 -100 -620 -21 -108 -31 -139 -36 -122 -13 41
5 181 41 312 20 72 35 155 37 195 2 39 12 124 24 190 12 66 28 192 36 280 8
88 19 174 25 190 9 28 9 27 12 -20 l2 -50 7 60 7 60 3 -80 c3 -63 5 -48 10 75
7 174 17 218 88 385 48 114 65 121 38 18z m-1 -100 c-9 -15 -14 -20 -11 -10 4
11 9 31 13 45 5 19 8 22 11 10 2 -9 -4 -29 -13 -45z m-50 -143 c-9 -41 -17
-33 -9 9 4 17 9 30 11 27 3 -2 2 -19 -2 -36z m-174 -265 l-9 -60 -1 65 c0 36
2 110 7 165 l7 100 3 -105 c1 -58 -2 -132 -7 -165z m440 18 c-10 -21 -27 -47
-35 -58 -9 -11 -2 8 16 42 18 34 34 60 36 58 2 -2 -6 -20 -17 -42z m-300 -538
c-11 -71 -22 -174 -25 -227 -5 -86 -52 -292 -123 -540 -3 -10 -10 -18 -16 -18
-15 0 -1 142 27 272 34 154 33 148 61 373 14 110 34 234 44 275 10 41 25 111
32 155 l14 80 3 -120 c2 -82 -3 -161 -17 -250z m168 -209 c-9 -8 -10 -3 -5 23
3 18 7 59 8 90 2 45 3 40 5 -23 3 -52 0 -83 -8 -90z m-443 117 c-10 -41 -38
-114 -43 -110 -4 5 39 137 45 137 2 0 1 -12 -2 -27z m-2 -219 c-17 -76 -36
-486 -38 -859 -2 -246 -10 -287 -85 -430 -20 -38 -41 -83 -46 -100 -10 -29
-11 -28 -34 44 -25 80 -25 88 3 270 11 66 28 127 46 166 45 95 56 186 36 275
-20 90 -20 160 -1 224 20 67 18 81 -4 26 -15 -35 -20 -41 -24 -25 -3 13 -5 7
-6 -15 -2 -64 -21 -10 -20 60 0 53 6 75 30 120 16 30 28 46 25 35 -9 -38 -18
-130 -13 -125 3 3 10 32 16 65 10 58 119 350 127 342 3 -2 -3 -35 -12 -73z
m-160 -183 c-9 -23 -18 -40 -20 -38 -2 2 4 22 13 45 9 23 18 40 20 38 2 -2 -4
-22 -13 -45z m260 -461 c1 -89 -3 -120 -28 -202 -16 -54 -32 -98 -36 -98 -4 0
-10 21 -13 46 -5 45 14 153 47 271 8 28 12 71 10 95 -4 38 -3 40 7 18 6 -14
12 -72 13 -130z m295 26 c9 -10 39 -29 68 -41 56 -25 76 -52 70 -93 -4 -26 -4
-26 -6 4 -1 36 -21 57 -76 80 -52 21 -85 52 -84 78 0 15 2 16 6 6 3 -8 13 -23
22 -34z m-262 -301 c7 -13 8 -36 4 -61 -5 -25 -3 -57 5 -84 13 -44 7 -105 -15
-160 -8 -21 -10 -15 -10 36 -1 50 -7 73 -37 129 l-36 68 25 86 c14 47 29 106
34 131 7 43 8 40 13 -40 3 -47 11 -94 17 -105z m141 163 c47 -60 -5 -154 -72
-129 -41 16 -47 58 -16 109 15 24 27 32 49 32 16 0 33 -6 39 -12z m239 -50
c-3 -8 -6 -5 -6 6 -1 11 2 17 5 13 3 -3 4 -12 1 -19z m29 -88 c-3 -16 -8 -45
-11 -62 -4 -30 -3 -30 10 7 10 31 13 34 13 15 0 -14 -8 -47 -19 -75 -16 -42
-18 -45 -13 -15 4 28 3 32 -6 20 -10 -12 -11 -10 -6 10 4 14 9 49 13 78 3 28
10 52 15 52 5 0 7 -13 4 -30z m-39 -37 c-3 -10 -5 -2 -5 17 0 19 2 27 5 18 2
-10 2 -26 0 -35z m-21 -93 c-21 -64 -20 -73 4 -30 23 42 27 32 5 -11 -10 -17
-20 -27 -27 -23 -8 5 -9 1 -5 -10 4 -11 3 -15 -4 -10 -7 4 -9 -1 -5 -17 3 -13
3 -18 0 -11 -5 10 -9 9 -19 -5 -8 -10 2 20 20 67 19 47 35 94 36 105 0 12 3
15 6 7 3 -7 -2 -35 -11 -62z m-82 -100 c-15 -22 -29 -38 -31 -36 -5 5 46 76
53 76 3 0 -8 -18 -22 -40z m-30 -207 c-21 -43 -44 -91 -50 -108 -7 -16 -13
-23 -13 -15 -1 18 91 212 97 205 3 -2 -13 -39 -34 -82z m-584 -15 c12 -35 27
-68 32 -74 5 -8 1 -55 -11 -125 -10 -63 -22 -143 -27 -179 l-7 -65 -24 90
c-33 119 -36 264 -9 353 11 34 20 62 21 62 1 0 12 -28 25 -62z m517 -180 c-2
-13 -4 -5 -4 17 -1 22 1 32 4 23 2 -10 2 -28 0 -40z m-234 -162 c-3 -14 -14
-33 -25 -43 -20 -17 -20 -17 1 25 24 48 30 52 24 18z m191 -218 c14 -40 48
-138 76 -218 28 -82 70 -178 97 -225 83 -140 103 -185 103 -229 l0 -41 -24 58
c-13 31 -42 88 -64 125 -23 37 -55 100 -73 140 -18 40 -34 71 -35 69 -7 -7 65
-169 109 -244 24 -43 55 -106 67 -141 20 -55 21 -66 9 -88 -11 -22 -11 -35 3
-87 30 -116 8 -68 -42 88 -12 39 -55 140 -95 225 -76 162 -138 335 -134 379 1
14 -3 46 -10 69 -7 24 -11 56 -10 70 2 15 1 32 -3 37 -3 6 -8 27 -12 48 -11
62 10 42 38 -35z m-109 -115 c9 -21 31 -81 50 -133 18 -52 41 -112 50 -133 22
-52 6 -40 -51 39 -70 100 -95 176 -78 242 8 30 11 28 29 -15z"/>
<path d="M4702 3804 c-1 -23 -4 -57 -7 -75 l-5 -34 11 33 c5 19 8 53 6 75 l-4
42 -1 -41z"/>
<path d="M4342 2700 c0 -14 2 -19 5 -12 2 6 2 18 0 25 -3 6 -5 1 -5 -13z"/>
<path d="M4696 2268 c-20 -28 -20 -42 -1 -58 14 -11 14 -10 5 14 -8 22 -6 30
10 46 11 11 16 20 11 20 -6 0 -17 -10 -25 -22z"/>
<path d="M4741 2275 c1 -19 18 -51 18 -35 0 8 -4 22 -9 30 -5 8 -9 11 -9 5z"/>
<path d="M5106 5053 c-10 -92 -60 -335 -96 -463 -16 -58 -36 -140 -44 -183 -9
-43 -24 -91 -36 -107 -61 -85 -74 -170 -44 -284 21 -79 13 -185 -21 -289 -19
-60 -25 -96 -23 -160 l1 -82 7 90 c4 50 15 108 24 130 28 69 56 196 56 253 0
29 -10 86 -22 125 -25 82 -19 123 31 204 16 26 32 68 36 93 3 25 24 110 45
190 62 229 119 550 98 550 -3 0 -8 -30 -12 -67z m-209 -1010 c-3 -10 -5 -4 -5
12 0 17 2 24 5 18 2 -7 2 -21 0 -30z"/>
<path d="M4771 5069 c-6 -18 -9 -34 -7 -36 2 -2 9 10 15 28 6 18 9 34 7 36 -2
2 -9 -10 -15 -28z"/>
<path d="M1642 4960 c0 -14 2 -19 5 -12 2 6 2 18 0 25 -3 6 -5 1 -5 -13z"/>
<path d="M1225 4700 c-3 -5 -1 -10 4 -10 6 0 11 5 11 10 0 6 -2 10 -4 10 -3 0
-8 -4 -11 -10z"/>
<path d="M5077 4553 c-34 -105 -38 -126 -47 -304 -11 -191 -27 -297 -55 -365
-21 -50 -18 -57 5 -14 30 58 49 178 60 375 9 175 12 193 46 291 19 57 34 110
31 117 -2 6 -20 -38 -40 -100z"/>
<path d="M1222 4550 c0 -14 2 -19 5 -12 2 6 2 18 0 25 -3 6 -5 1 -5 -13z"/>
<path d="M77 4516 c-5 -13 -3 -14 14 -3 17 10 22 9 35 -7 22 -31 22 -91 -1
-115 -11 -11 -15 -10 -25 9 -6 12 -9 34 -6 48 3 15 3 21 0 14 -3 -6 -11 -9
-16 -6 -21 13 1 -56 37 -117 19 -33 38 -72 41 -87 4 -15 11 -35 16 -46 15 -28
28 -1 26 54 l-1 45 -6 -45 -6 -45 -23 74 c-20 63 -22 81 -13 117 15 60 -4 118
-40 122 -17 2 -29 -3 -32 -12z"/>
<path d="M1 4490 c-1 -27 23 -137 45 -210 11 -38 13 -39 9 -10 -3 19 -10 64
-15 100 -11 77 -38 160 -39 120z"/>
<path d="M2541 4424 c0 -11 3 -14 6 -6 3 7 2 16 -1 19 -3 4 -6 -2 -5 -13z"/>
<path d="M3231 4424 c0 -11 3 -14 6 -6 3 7 2 16 -1 19 -3 4 -6 -2 -5 -13z"/>
<path d="M2531 4384 c0 -11 3 -14 6 -6 3 7 2 16 -1 19 -3 4 -6 -2 -5 -13z"/>
<path d="M3242 4380 c0 -14 2 -19 5 -12 2 6 2 18 0 25 -3 6 -5 1 -5 -13z"/>
<path d="M1973 4345 c0 -27 2 -38 4 -22 2 15 2 37 0 50 -2 12 -4 0 -4 -28z"/>
<path d="M3401 4374 c0 -11 3 -14 6 -6 3 7 2 16 -1 19 -3 4 -6 -2 -5 -13z"/>
<path d="M2023 4345 c0 -22 2 -30 4 -17 2 12 2 30 0 40 -3 9 -5 -1 -4 -23z"/>
<path d="M5 4270 c7 -46 53 -143 99 -209 20 -30 36 -65 36 -80 1 -14 9 -51 20
-81 11 -30 19 -66 19 -80 0 -24 -1 -23 -34 14 -19 21 -42 59 -51 85 -9 25 -32
80 -53 121 -27 57 -37 69 -39 52 -2 -12 6 -37 16 -55 11 -17 30 -70 42 -117
27 -105 49 -144 143 -245 56 -60 78 -93 92 -135 10 -30 28 -71 41 -91 67 -106
80 -244 39 -404 -24 -96 -26 -114 -17 -174 5 -37 23 -98 38 -137 38 -91 40
-213 7 -320 -24 -75 -55 -125 -70 -111 -4 5 -11 81 -14 170 -4 109 -11 176
-22 204 -8 22 -21 85 -27 140 -6 54 -20 134 -30 178 -19 82 -59 199 -66 193
-2 -2 6 -28 17 -58 22 -58 54 -188 63 -260 10 -76 -10 -25 -52 135 -22 83 -52
181 -66 219 -29 77 -30 80 -16 71 6 -3 7 1 4 9 -3 9 -11 13 -17 9 -6 -3 -7 -1
-3 5 4 6 -2 29 -14 52 -11 22 -19 52 -18 67 1 16 -15 59 -35 98 l-36 70 1
-190 c1 -104 3 -181 6 -171 5 25 65 -134 128 -339 27 -87 60 -173 80 -205 40
-67 52 -118 60 -258 3 -59 10 -122 16 -140 8 -27 7 -37 -8 -53 -10 -11 -21
-39 -24 -62 l-6 -42 -11 55 c-24 115 -35 239 -25 272 19 59 23 113 12 142 -6
16 -31 51 -56 79 -58 65 -66 82 -98 202 -28 106 -66 218 -72 212 -3 -2 2 -23
10 -46 9 -22 27 -92 42 -154 31 -132 42 -155 102 -222 56 -62 65 -87 57 -150
-12 -102 -32 -97 -60 13 -9 36 -34 100 -56 143 -49 96 -56 119 -75 243 -13 93
-24 134 -24 90 0 -34 29 -198 44 -245 8 -25 28 -70 45 -100 16 -30 40 -89 51
-132 12 -43 30 -93 40 -110 11 -20 23 -71 30 -132 6 -55 20 -132 31 -172 38
-135 42 -401 9 -566 -10 -50 -8 -70 17 -151 14 -44 14 -61 -2 -187 -16 -121
-17 -151 -6 -241 26 -206 29 -890 6 -965 -4 -13 -3 -23 2 -23 41 0 55 695 19
903 -11 65 -14 125 -9 235 8 194 7 262 -2 349 -5 44 -3 122 4 197 14 140 17
277 7 351 l-6 50 42 20 c35 17 50 34 90 106 41 73 52 105 69 195 39 210 36
291 -18 397 -26 51 -23 23 4 -43 22 -53 27 -79 26 -145 -1 -44 -5 -93 -10
-110 -7 -23 -9 -5 -9 70 1 93 -1 105 -31 165 -52 108 -59 166 -34 293 11 59
21 136 21 170 0 71 -33 175 -79 249 -16 26 -38 73 -48 104 -13 42 -27 65 -55
87 -20 16 -39 36 -42 43 -8 21 62 -17 98 -52 l29 -29 -8 35 c-4 19 -18 64 -32
100 -13 36 -34 92 -45 125 -26 72 -66 142 -118 204 -31 38 -92 146 -124 221
-3 8 -4 -1 -1 -20z m443 -1899 c-5 -65 -45 -161 -59 -139 -6 9 -9 7 -9 -10 0
-49 -56 -120 -85 -109 -10 4 -15 20 -15 47 0 42 3 47 83 118 l26 23 3 -28 c2
-16 12 18 23 79 14 76 22 103 28 92 5 -9 7 -42 5 -73z"/>
<path d="M4470 4220 c-7 -44 -11 -83 -8 -85 3 -3 10 32 17 76 7 45 10 83 8 85
-2 3 -10 -32 -17 -76z"/>
<path d="M341 4244 c-12 -15 -24 -39 -27 -53 -2 -14 -11 -49 -19 -77 -19 -65
-19 -128 0 -190 8 -27 15 -68 15 -91 0 -23 7 -77 15 -120 8 -43 13 -89 10
-103 -4 -17 4 -46 25 -85 17 -33 55 -114 86 -180 30 -66 66 -138 81 -159 26
-39 26 -41 14 -132 -16 -131 -14 -174 11 -267 23 -91 26 -158 16 -437 -5 -161
-8 -184 -41 -295 -20 -66 -56 -178 -82 -250 -72 -201 -94 -272 -115 -377 -26
-125 -35 -310 -21 -413 6 -44 16 -136 21 -205 7 -78 18 -146 31 -182 12 -31
24 -90 29 -130 l7 -73 2 57 c0 33 -7 82 -19 120 -27 83 -51 309 -57 539 -5
174 -3 192 21 293 14 59 44 155 67 214 130 341 172 501 170 657 0 61 4 158 9
216 9 93 7 119 -11 220 -31 162 -29 267 10 494 18 105 37 194 42 200 5 5 9 29
9 55 0 25 9 81 20 125 23 94 25 159 4 200 -8 17 -12 22 -9 12 13 -47 15 -96 6
-137 -32 -151 -61 -299 -76 -395 -10 -60 -21 -114 -26 -119 -10 -11 -27 24
-100 201 -99 242 -144 456 -106 506 16 23 195 68 219 56 10 -5 22 -28 28 -52
6 -23 17 -55 26 -72 8 -16 12 -21 8 -10 -3 11 -11 46 -18 77 -6 31 -19 65 -28
75 -9 10 -21 30 -27 43 -9 22 -10 23 -10 4 -1 -25 -51 -51 -125 -65 -28 -5
-63 -18 -77 -28 l-25 -19 -12 44 c-15 55 -15 124 -1 144 9 13 11 13 16 0 4 -8
19 -27 34 -42 32 -32 83 -38 115 -12 18 14 18 15 -5 4 -32 -16 -87 -4 -106 23
-24 34 -19 99 8 125 33 31 62 28 91 -11 43 -56 33 -103 -25 -117 l-34 -8 31
-1 c34 -1 74 33 74 63 0 24 -25 68 -51 90 -17 15 -20 21 -10 24 8 3 27 -10 44
-29 28 -33 28 -33 8 -3 -27 41 -40 50 -81 59 -19 4 -40 11 -46 17 -8 6 -19 0
-33 -18z"/>
<path d="M2912 4200 c0 -19 2 -27 5 -17 2 9 2 25 0 35 -3 9 -5 1 -5 -18z"/>
<path d="M901 4200 c-1 -14 8 -77 19 -140 15 -86 20 -161 20 -299 0 -101 2
-182 5 -179 3 3 7 88 8 189 3 167 1 196 -24 319 -15 74 -28 124 -28 110z"/>
<path d="M1999 4176 c-43 -21 -30 -96 16 -96 22 0 48 47 41 74 -7 30 -26 38
-57 22z m36 -42 c0 -10 -8 -20 -17 -22 -18 -3 -26 27 -11 42 12 11 28 0 28
-20z"/>
<path d="M390 4141 c-5 -11 -10 -28 -9 -38 1 -12 3 -10 8 7 4 14 18 30 31 37
24 12 24 13 3 13 -12 0 -27 -9 -33 -19z"/>
<path d="M3072 4130 c0 -14 2 -19 5 -12 2 6 2 18 0 25 -3 6 -5 1 -5 -13z"/>
<path d="M441 4122 c-1 -13 -5 -20 -11 -17 -5 3 -10 1 -10 -4 0 -16 20 -13 26
4 3 8 4 20 1 27 -3 7 -6 3 -6 -10z"/>
<path d="M3082 4080 c0 -14 2 -19 5 -12 2 6 2 18 0 25 -3 6 -5 1 -5 -13z"/>
<path d="M3390 4097 c-1 -20 42 -87 67 -105 52 -36 58 -35 15 3 -23 20 -51 53
-62 74 -10 20 -19 32 -20 28z"/>
<path d="M3741 4054 c0 -11 3 -14 6 -6 3 7 2 16 -1 19 -3 4 -6 -2 -5 -13z"/>
<path d="M561 4044 c0 -11 3 -14 6 -6 3 7 2 16 -1 19 -3 4 -6 -2 -5 -13z"/>
<path d="M2982 4040 c0 -14 2 -19 5 -12 2 6 2 18 0 25 -3 6 -5 1 -5 -13z"/>
<path d="M4561 4014 c0 -11 3 -14 6 -6 3 7 2 16 -1 19 -3 4 -6 -2 -5 -13z"/>
<path d="M2906 3959 c-11 -106 -7 -199 8 -214 12 -12 15 -11 20 8 8 31 6 94
-4 142 -6 30 -7 19 -4 -45 3 -80 3 -82 -6 -30 -6 30 -7 88 -4 128 8 88 -1 97
-10 11z"/>
<path d="M3103 3985 c0 -22 2 -30 4 -17 2 12 2 30 0 40 -3 9 -5 -1 -4 -23z"/>
<path d="M3752 4005 c0 -11 6 -78 13 -150 l14 -130 -5 110 c-4 96 -21 226 -22
170z"/>
<path d="M6 3973 c9 -33 9 -68 0 -103 -5 -20 -4 -19 5 3 11 27 12 25 40 -58
38 -113 62 -158 99 -186 101 -78 108 -89 125 -179 l6 -35 -30 45 c-16 25 -56
63 -87 85 -74 51 -118 110 -143 188 l-20 62 0 -45 c-1 -62 44 -139 111 -188
193 -140 255 -309 217 -588 -5 -43 -9 -104 -7 -134 3 -48 5 -40 17 60 7 63 15
159 18 212 5 88 3 106 -22 180 -16 46 -36 120 -45 165 -19 90 -36 124 -78 150
-79 49 -114 109 -171 292 -17 56 -34 101 -37 101 -4 0 -3 -12 2 -27z"/>
<path d="M1210 3992 c0 -7 8 -29 19 -50 10 -20 28 -68 41 -105 12 -38 24 -66
26 -64 6 6 -43 153 -66 195 -10 20 -19 31 -20 24z"/>
<path d="M2983 3900 c0 -25 2 -35 4 -22 2 12 2 32 0 45 -2 12 -4 2 -4 -23z"/>
<path d="M3087 3921 c-4 -17 -3 -21 5 -13 5 5 8 16 6 23 -3 8 -7 3 -11 -10z"/>
<path d="M963 3885 c0 -22 2 -30 4 -17 2 12 2 30 0 40 -3 9 -5 -1 -4 -23z"/>
<path d="M3847 3893 c-4 -3 -7 -13 -7 -22 1 -13 3 -13 11 2 11 19 8 33 -4 20z"/>
<path d="M1392 3865 c0 -16 2 -22 5 -12 2 9 2 23 0 30 -3 6 -5 -1 -5 -18z"/>
<path d="M4547 3814 c-8 -37 -12 -75 -9 -83 3 -8 12 20 19 63 17 98 10 110
-10 20z"/>
<path d="M444 3850 c-32 -13 -74 -69 -74 -98 0 -51 20 -95 58 -132 27 -26 43
-54 57 -98 10 -34 20 -60 23 -58 2 3 -4 30 -13 62 -12 42 -28 68 -59 99 -34
32 -45 51 -50 87 -8 54 4 89 37 111 47 30 74 31 101 3 31 -30 33 -65 12 -164
-16 -73 -27 -260 -14 -239 4 6 8 37 8 67 0 30 7 100 15 154 20 133 19 149 -11
185 -26 31 -51 37 -90 21z"/>
<path d="M972 3815 c0 -16 2 -22 5 -12 2 9 2 23 0 30 -3 6 -5 -1 -5 -18z"/>
<path d="M2993 3750 c0 -41 2 -58 4 -37 2 20 2 54 0 75 -2 20 -4 3 -4 -38z"/>
<path d="M432 3794 c-27 -19 -28 -49 -2 -91 13 -23 27 -33 44 -33 28 0 36 16
36 74 0 63 -31 83 -78 50z m66 -28 c4 -36 -5 -76 -18 -76 -36 0 -69 91 -37
104 29 12 52 1 55 -28z"/>
<path d="M1002 3775 c0 -16 2 -22 5 -12 2 9 2 23 0 30 -3 6 -5 -1 -5 -18z"/>
<path d="M983 3695 c0 -44 2 -61 4 -37 2 23 2 59 0 80 -2 20 -4 1 -4 -43z"/>
<path d="M4291 3744 c0 -11 3 -14 6 -6 3 7 2 16 -1 19 -3 4 -6 -2 -5 -13z"/>
<path d="M2912 3700 c0 -14 2 -19 5 -12 2 6 2 18 0 25 -3 6 -5 1 -5 -13z"/>
<path d="M2916 3590 c-10 -67 -16 -123 -13 -126 6 -6 41 220 35 236 -2 6 -12
-43 -22 -110z"/>
<path d="M5092 3662 c-12 -27 -26 -70 -32 -95 -10 -48 -15 -415 -5 -425 3 -3
5 26 6 64 3 351 3 356 33 427 15 38 26 70 23 73 -2 3 -14 -17 -25 -44z"/>
<path d="M1003 3620 c0 -25 2 -35 4 -22 2 12 2 32 0 45 -2 12 -4 2 -4 -23z"/>
<path d="M2901 3644 c0 -11 3 -14 6 -6 3 7 2 16 -1 19 -3 4 -6 -2 -5 -13z"/>
<path d="M2982 3630 c0 -19 2 -27 5 -17 2 9 2 25 0 35 -3 9 -5 1 -5 -18z"/>
<path d="M3881 3541 c-48 -78 -82 -119 -162 -192 -111 -103 -167 -184 -201
-291 -21 -68 -49 -235 -47 -283 1 -16 7 15 15 70 17 123 53 237 104 331 30 53
63 92 130 154 90 81 135 139 199 253 52 92 28 66 -38 -42z"/>
<path d="M983 3530 c0 -41 2 -58 4 -37 2 20 2 54 0 75 -2 20 -4 3 -4 -38z"/>
<path d="M5094 3564 c-9 -21 -18 -66 -20 -99 l-4 -60 14 71 c7 39 19 81 26 93
6 13 9 25 6 28 -3 4 -13 -11 -22 -33z"/>
<path d="M3513 3565 c-3 -9 -3 -18 -1 -21 3 -3 8 4 11 16 6 23 -1 27 -10 5z"/>
<path d="M952 3480 c0 -14 2 -19 5 -12 2 6 2 18 0 25 -3 6 -5 1 -5 -13z"/>
<path d="M1012 3475 c0 -16 2 -22 5 -12 2 9 2 23 0 30 -3 6 -5 -1 -5 -18z"/>
<path d="M3491 3484 c0 -11 3 -14 6 -6 3 7 2 16 -1 19 -3 4 -6 -2 -5 -13z"/>
<path d="M5114 3225 c0 -154 2 -216 3 -137 2 79 2 205 0 280 -1 75 -3 11 -3
-143z"/>
<path d="M150 3445 c0 -5 5 -17 10 -25 5 -8 10 -10 10 -5 0 6 -5 17 -10 25 -5
8 -10 11 -10 5z"/>
<path d="M962 3425 c0 -16 2 -22 5 -12 2 9 2 23 0 30 -3 6 -5 -1 -5 -18z"/>
<path d="M4812 3425 c0 -16 2 -22 5 -12 2 9 2 23 0 30 -3 6 -5 -1 -5 -18z"/>
<path d="M2893 3405 c0 -22 2 -30 4 -17 2 12 2 30 0 40 -3 9 -5 -1 -4 -23z"/>
<path d="M645 3380 c4 -44 10 -60 33 -81 23 -21 30 -24 40 -12 10 11 9 13 -6
13 -29 0 -52 33 -62 87 l-9 48 4 -55z"/>
<path d="M1022 3390 c0 -14 2 -19 5 -12 2 6 2 18 0 25 -3 6 -5 1 -5 -13z"/>
<path d="M171 3395 c0 -5 8 -26 19 -45 11 -19 19 -30 19 -25 0 6 -8 26 -19 45
-11 19 -19 31 -19 25z"/>
<path d="M3420 3358 c-11 -24 -20 -54 -20 -68 0 -20 -2 -22 -10 -10 -11 17
-12 4 -2 -22 5 -12 15 8 32 62 14 44 24 80 22 80 -1 0 -12 -19 -22 -42z"/>
<path d="M3476 3385 c-9 -26 -7 -32 5 -12 6 10 9 21 6 23 -2 3 -7 -2 -11 -11z"/>
<path d="M4797 3331 c-4 -35 -6 -85 -6 -110 1 -27 5 -7 10 49 10 108 7 158 -4
61z"/>
<path d="M970 3349 c0 -11 5 -17 10 -14 6 3 10 13 10 21 0 8 -4 14 -10 14 -5
0 -10 -9 -10 -21z"/>
<path d="M1012 3325 c0 -16 2 -22 5 -12 2 9 2 23 0 30 -3 6 -5 -1 -5 -18z"/>
<path d="M2883 3300 c0 -30 2 -43 4 -27 2 15 2 39 0 55 -2 15 -4 2 -4 -28z"/>
<path d="M3461 3334 c0 -11 3 -14 6 -6 3 7 2 16 -1 19 -3 4 -6 -2 -5 -13z"/>
<path d="M4441 3324 c0 -11 3 -14 6 -6 3 7 2 16 -1 19 -3 4 -6 -2 -5 -13z"/>
<path d="M957 3282 c-7 -56 -41 -128 -69 -146 -12 -8 -36 -16 -52 -18 l-29 -3
2 67 c2 56 -1 70 -18 87 -12 12 -29 21 -38 20 -14 0 -13 -2 4 -9 35 -14 46
-46 39 -114 -10 -91 -16 -240 -11 -234 3 3 9 38 13 79 7 73 7 73 42 84 56 17
79 33 100 75 18 35 39 150 28 150 -3 0 -8 -17 -11 -38z"/>
<path d="M217 3290 c3 -14 12 -41 20 -60 11 -30 12 -31 8 -6 -4 16 -13 43 -20
60 -11 23 -13 25 -8 6z"/>
<path d="M131 3275 c0 -5 8 -26 19 -45 11 -19 19 -30 19 -25 0 6 -8 26 -19 45
-11 19 -19 31 -19 25z"/>
<path d="M1003 3240 c0 -25 2 -35 4 -22 2 12 2 32 0 45 -2 12 -4 2 -4 -23z"/>
<path d="M5020 3230 c0 -22 -9 -66 -19 -97 -20 -61 -46 -267 -40 -318 3 -24 9
-31 29 -32 25 -3 25 -3 3 7 -28 11 -29 31 -9 190 18 139 39 204 31 95 -12
-172 -14 -250 -6 -205 11 58 26 400 17 400 -3 0 -6 -18 -6 -40z"/>
<path d="M2872 3210 c0 -19 2 -27 5 -17 2 9 2 25 0 35 -3 9 -5 1 -5 -18z"/>
<path d="M701 3214 c0 -11 3 -14 6 -6 3 7 2 16 -1 19 -3 4 -6 -2 -5 -13z"/>
<path d="M732 3210 c0 -14 2 -19 5 -12 2 6 2 18 0 25 -3 6 -5 1 -5 -13z"/>
<path d="M11 3210 c0 -8 4 -22 9 -30 12 -18 12 -2 0 25 -6 13 -9 15 -9 5z"/>
<path d="M3633 3177 c-59 -83 -55 -89 6 -9 19 24 31 45 29 47 -3 3 -18 -14
-35 -38z"/>
<path d="M683 3145 c0 -38 2 -53 4 -32 2 20 2 52 0 70 -2 17 -4 1 -4 -38z"/>
<path d="M4381 3194 c0 -11 3 -14 6 -6 3 7 2 16 -1 19 -3 4 -6 -2 -5 -13z"/>
<path d="M5087 3188 c-13 -51 -19 -209 -11 -274 8 -62 9 -51 14 111 3 99 4
181 4 183 -1 2 -4 -7 -7 -20z"/>
<path d="M251 3174 c0 -11 3 -14 6 -6 3 7 2 16 -1 19 -3 4 -6 -2 -5 -13z"/>
<path d="M713 3125 c0 -33 2 -45 4 -27 2 18 2 45 0 60 -2 15 -4 0 -4 -33z"/>
<path d="M621 3109 c1 -35 5 -77 9 -94 4 -17 6 10 3 60 -7 106 -14 126 -12 34z"/>
<path d="M745 3121 c3 -34 -5 -100 -19 -175 -22 -111 -54 -320 -62 -406 -6
-65 25 94 41 210 8 63 25 158 36 211 17 80 19 107 10 155 l-10 59 4 -54z"/>
<path d="M762 3150 c0 -14 2 -19 5 -12 2 6 2 18 0 25 -3 6 -5 1 -5 -13z"/>
<path d="M31 3155 c1 -19 18 -51 18 -35 0 8 -4 22 -9 30 -5 8 -9 11 -9 5z"/>
<path d="M2862 3135 c0 -16 2 -22 5 -12 2 9 2 23 0 30 -3 6 -5 -1 -5 -18z"/>
<path d="M261 3134 c0 -11 3 -14 6 -6 3 7 2 16 -1 19 -3 4 -6 -2 -5 -13z"/>
<path d="M3743 3079 c-1 -39 -9 -72 -32 -119 -17 -36 -31 -74 -31 -85 1 -13 6
-8 14 15 7 19 23 55 34 80 26 57 37 122 25 145 -8 13 -10 4 -10 -36z"/>
<path d="M52 3090 c0 -8 4 -26 8 -40 6 -20 8 -21 8 -5 0 11 -3 29 -8 40 -5 12
-8 14 -8 5z"/>
<path d="M3664 3056 c-9 -37 4 -51 27 -30 25 23 25 54 -1 54 -12 0 -22 -9 -26
-24z"/>
<path d="M3546 3014 c-9 -26 -16 -52 -15 -58 0 -6 9 13 20 43 10 30 17 56 15
58 -2 2 -11 -17 -20 -43z"/>
<path d="M72 3000 c0 -14 2 -19 5 -12 2 6 2 18 0 25 -3 6 -5 1 -5 -13z"/>
<path d="M832 2993 c-2 -39 -46 -179 -78 -249 -30 -66 -40 -112 -54 -254 -15
-154 -20 -178 -32 -157 -5 10 -13 36 -17 60 -7 31 -9 35 -10 15 -1 -15 7 -46
16 -69 15 -37 15 -52 4 -133 -17 -115 -60 -273 -152 -551 -67 -203 -73 -227
-73 -305 -1 -135 36 -179 126 -149 28 9 69 41 131 102 93 93 107 119 106 197
-1 35 -1 35 -9 7 -5 -16 -6 -36 -3 -44 4 -10 2 -14 -4 -10 -6 4 -24 -19 -42
-53 -55 -102 -193 -202 -239 -173 -33 19 -47 65 -46 143 1 64 11 106 72 293
40 121 85 269 101 330 39 143 81 374 81 438 0 35 3 48 11 43 13 -8 7 -120 -12
-217 -9 -44 -9 -64 0 -84 6 -14 14 -23 17 -21 2 3 0 17 -7 31 -9 19 -7 40 6
98 11 47 16 108 15 164 -5 190 -1 224 29 294 44 101 73 204 68 247 -3 36 -4
36 -5 7z m-62 -1588 c-7 -14 -17 -25 -22 -25 -5 0 -1 13 8 30 21 35 33 31 14
-5z"/>
<path d="M5038 2934 c-5 -4 -8 -25 -8 -48 0 -28 3 -37 11 -29 6 6 9 27 7 48
-2 20 -6 33 -10 29z"/>
<path d="M4955 2746 c-50 -23 -68 -51 -73 -115 -2 -33 1 -75 8 -95 13 -39 58
-83 96 -92 32 -8 97 34 119 76 13 26 7 22 -33 -19 -26 -28 -55 -51 -63 -51
-23 0 -77 37 -96 67 -21 31 -24 134 -5 169 14 26 70 54 110 54 16 0 47 -12 68
-26 l39 -26 -31 32 c-36 37 -93 48 -139 26z"/>
<path d="M5082 2665 c12 -24 23 -43 26 -41 4 5 -36 86 -43 86 -3 0 5 -20 17
-45z"/>
<path d="M4990 2692 c-8 -2 -25 -14 -37 -25 -34 -30 -33 -114 2 -151 32 -34
60 -33 97 4 27 27 30 36 25 71 -8 64 -51 113 -87 101z m49 -36 c33 -35 38 -85
11 -119 -34 -43 -80 -35 -99 16 -19 48 -13 84 15 106 34 27 45 26 73 -3z"/>
<path d="M4990 2601 c0 -12 5 -21 10 -21 6 0 10 6 10 14 0 8 -4 18 -10 21 -5
3 -10 -3 -10 -14z"/>
<path d="M4 2595 c2 -49 7 -101 10 -115 5 -21 5 -22 -3 -5 l-10 20 0 -20 c-1
-11 7 -74 16 -139 14 -101 15 -135 5 -224 -6 -57 -8 -109 -4 -116 4 -6 10
-166 13 -356 6 -328 8 -350 33 -448 14 -57 26 -116 26 -132 0 -16 -17 -109
-37 -207 -36 -174 -37 -183 -38 -418 -1 -132 -5 -284 -10 -337 l-8 -98 41 0
c48 0 48 0 57 124 4 49 18 134 31 188 13 55 24 126 24 159 0 32 4 67 9 77 5 9
19 69 30 132 l20 115 -4 -140 c-5 -141 -11 -190 -40 -322 -14 -66 -36 -322
-28 -332 9 -12 12 14 19 124 3 68 19 185 37 270 29 147 30 156 30 445 0 300
-4 354 -45 560 -18 91 -19 122 -12 230 15 224 10 288 -34 480 -22 96 -39 176
-38 177 1 1 18 -31 39 -71 33 -66 65 -186 80 -301 l4 -30 2 32 c4 96 -68 330
-119 388 -13 14 -19 45 -24 113 -7 92 -33 195 -62 242 -14 23 -14 19 -10 -65z
m23 -177 c-3 -8 -6 -5 -6 6 -1 11 2 17 5 13 3 -3 4 -12 1 -19z m49 -683 c-3
-33 -8 -88 -12 -122 -4 -37 -2 -75 5 -94 18 -53 24 -160 11 -208 -6 -23 -14
-41 -16 -38 -12 12 -23 317 -17 472 l6 170 14 -60 c9 -36 12 -84 9 -120z"/>
<path d="M2883 2615 c0 -22 2 -30 4 -17 2 12 2 30 0 40 -3 9 -5 -1 -4 -23z"/>
<path d="M1559 2563 c-13 -16 -12 -17 4 -4 9 7 17 15 17 17 0 8 -8 3 -21 -13z"/>
<path d="M1599 2531 c-24 -25 -29 -37 -29 -78 1 -51 12 -73 47 -91 28 -16 35
-15 59 4 16 13 17 15 1 10 -44 -14 -91 36 -89 96 2 65 81 92 121 42 25 -32 26
-53 5 -125 -20 -69 -47 -99 -91 -99 -45 0 -81 54 -93 141 l-9 64 4 -64 c6
-110 79 -187 140 -147 52 34 93 179 65 230 -27 51 -88 59 -131 17z"/>
<path d="M1533 2525 c-3 -9 -3 -18 -1 -21 3 -3 8 4 11 16 6 23 -1 27 -10 5z"/>
<path d="M2872 2505 c0 -16 2 -22 5 -12 2 9 2 23 0 30 -3 6 -5 -1 -5 -18z"/>
<path d="M2972 2478 c-5 -29 -7 -59 -3 -67 5 -7 10 13 14 50 3 35 4 65 3 67
-2 1 -8 -21 -14 -50z"/>
<path d="M3986 2493 c-12 -51 -18 -337 -8 -363 8 -18 9 2 5 75 -3 55 0 147 6
204 11 103 10 138 -3 84z"/>
<path d="M652 2470 c0 -19 2 -27 5 -17 2 9 2 25 0 35 -3 9 -5 1 -5 -18z"/>
<path d="M1637 2487 c-4 -10 2 -13 17 -10 15 3 25 -1 30 -12 8 -23 -1 -35 -27
-35 -16 0 -18 -3 -9 -12 10 -10 17 -8 34 9 20 21 20 23 4 47 -18 28 -41 34
-49 13z"/>
<path d="M782 2430 c0 -14 2 -19 5 -12 2 6 2 18 0 25 -3 6 -5 1 -5 -13z"/>
<path d="M4251 2394 c0 -11 3 -14 6 -6 3 7 2 16 -1 19 -3 4 -6 -2 -5 -13z"/>
<path d="M2952 2272 c-7 -271 -8 -543 -2 -497 3 28 5 -58 4 -190 l-2 -240 8
230 c8 214 7 801 -1 809 -2 2 -5 -48 -7 -112z"/>
<path d="M3508 2333 c6 -2 18 -2 25 0 6 3 1 5 -13 5 -14 0 -19 -2 -12 -5z"/>
<path d="M3 2205 c0 -44 2 -61 4 -37 2 23 2 59 0 80 -2 20 -4 1 -4 -43z"/>
<path d="M2915 2155 c0 -71 2 -110 5 -85 5 36 7 40 12 20 6 -30 -2 87 -11 150
-4 27 -6 -7 -6 -85z"/>
<path d="M3306 2233 c-10 -65 -6 -166 9 -223 23 -87 19 -122 -40 -294 -61
-180 -68 -213 -85 -366 -6 -58 -13 -114 -16 -125 -4 -17 -3 -17 5 -4 6 9 18
74 26 145 18 149 23 168 77 329 51 153 108 378 108 428 0 26 -11 57 -32 93
-18 29 -36 54 -39 54 -4 0 -9 -17 -13 -37z m44 -43 c0 -6 4 -9 9 -6 26 16 27
-73 2 -169 l-18 -70 -11 50 c-22 102 -24 126 -17 180 6 48 8 53 21 41 8 -8 14
-20 14 -26z"/>
<path d="M3361 2144 c0 -11 3 -14 6 -6 3 7 2 16 -1 19 -3 4 -6 -2 -5 -13z"/>
<path d="M3331 2134 c0 -11 3 -14 6 -6 3 7 2 16 -1 19 -3 4 -6 -2 -5 -13z"/>
<path d="M3226 2193 c-3 -38 -8 -180 -9 -318 l-4 -250 7 235 c4 129 11 272 15
318 4 45 5 82 2 82 -3 0 -8 -30 -11 -67z"/>
<path d="M2326 2201 c-31 -34 -46 -109 -46 -223 0 -71 -7 -144 -21 -208 -24
-120 -23 -213 4 -218 10 -2 41 12 70 30 65 43 97 55 166 62 29 3 60 11 69 18
49 41 58 181 17 263 -25 50 -25 45 2 -30 10 -26 14 -66 11 -114 -3 -64 -7 -76
-30 -96 -17 -15 -46 -25 -85 -30 -54 -6 -126 -35 -176 -70 -12 -8 -30 -15 -41
-15 -17 0 -18 5 -12 69 3 39 13 101 22 138 10 41 18 119 19 198 2 136 14 188
45 205 15 8 24 4 47 -21 52 -56 67 -52 18 5 -27 31 -52 56 -55 56 -4 0 -15 -9
-24 -19z"/>
<path d="M1341 2194 c0 -11 3 -14 6 -6 3 7 2 16 -1 19 -3 4 -6 -2 -5 -13z"/>
<path d="M3452 2103 c-13 -25 -18 -42 -12 -38 13 8 42 64 38 75 -2 4 -13 -12
-26 -37z"/>
<path d="M364 2017 c-1 -45 -11 -135 -23 -201 -12 -65 -20 -120 -18 -122 7 -7
47 206 53 286 3 41 2 85 -3 97 -5 15 -8 -4 -9 -60z"/>
<path d="M1417 2055 c3 -22 7 -42 9 -44 8 -9 2 45 -6 64 -7 14 -8 8 -3 -20z"/>
<path d="M5096 1953 c-38 -228 -99 -369 -198 -456 -39 -35 -62 -63 -68 -87
-10 -36 -12 -33 55 -152 23 -43 30 -70 35 -138 6 -80 10 -91 62 -180 30 -52
60 -108 66 -125 6 -16 22 -61 36 -100 14 -38 26 -62 26 -52 0 10 -13 57 -30
103 -29 82 -27 90 13 56 9 -8 20 -12 24 -9 3 4 -15 25 -40 48 -70 61 -119 167
-127 272 -5 74 -9 88 -48 148 -60 95 -58 119 19 204 102 113 185 320 196 493
3 45 4 82 1 82 -2 0 -12 -48 -22 -107z"/>
<path d="M2925 1640 c3 -212 10 -412 14 -445 4 -33 4 -163 -1 -290 -5 -126
-11 -321 -14 -433 -3 -117 -10 -200 -15 -196 -11 6 -10 -177 1 -221 6 -25 8
-20 10 30 3 58 3 58 10 20 5 -29 8 -8 10 75 3 141 17 204 18 80 1 -47 6 -109
12 -139 5 -29 10 -69 10 -87 0 -19 5 -34 11 -34 7 0 9 12 6 32 -23 132 -29
259 -22 463 4 121 7 294 6 385 -1 194 -17 493 -20 405 -3 -56 -4 -57 -11 -25
-5 19 -11 196 -13 393 -3 197 -8 361 -12 365 -3 3 -3 -167 0 -378z m-3 -1464
c-9 -18 -11 -16 -11 19 0 33 1 37 10 21 8 -12 8 -25 1 -40z"/>
<path d="M1432 1970 c0 -14 2 -19 5 -12 2 6 2 18 0 25 -3 6 -5 1 -5 -13z"/>
<path d="M2424 1980 c-11 -4 -34 -24 -52 -44 -55 -63 -55 -151 0 -205 54 -53
128 -53 173 1 30 35 34 105 10 185 -19 65 -68 89 -131 63z m84 -15 c28 -20 56
-115 49 -167 -6 -47 -38 -84 -78 -93 -62 -14 -139 53 -139 120 1 47 35 112 72
135 40 24 66 25 96 5z"/>
<path d="M2409 1911 c-18 -14 -23 -29 -23 -57 1 -53 6 -66 31 -86 50 -41 94
-1 92 84 l-2 43 -6 -46 c-12 -82 -47 -102 -81 -46 -41 67 -20 107 57 107 28 0
34 3 23 10 -24 16 -66 11 -91 -9z"/>
<path d="M2443 1856 c4 -10 7 -22 7 -27 0 -5 5 -9 11 -9 15 0 7 43 -10 48 -10
3 -12 0 -8 -12z"/>
<path d="M1423 1890 c0 -25 2 -35 4 -22 2 12 2 32 0 45 -2 12 -4 2 -4 -23z"/>
<path d="M4022 1853 c-2 -57 -52 -228 -83 -280 -10 -18 -15 -33 -10 -33 13 0
57 106 81 192 13 47 20 97 17 125 l-3 48 -2 -52z"/>
<path d="M210 1780 c-15 -105 -17 -266 -5 -348 12 -82 14 -36 4 83 -8 99 -7
134 6 210 9 50 15 106 13 125 -2 23 -8 -2 -18 -70z"/>
<path d="M4161 1724 c0 -11 3 -14 6 -6 3 7 2 16 -1 19 -3 4 -6 -2 -5 -13z"/>
<path d="M5085 1654 c-13 -45 -15 -79 -10 -163 7 -113 0 -148 -37 -188 -13
-14 -32 -22 -47 -22 -22 2 -23 2 -5 6 34 7 66 48 75 99 8 44 7 50 -18 76 -33
34 -66 36 -98 4 -35 -35 -41 -71 -20 -132 22 -64 49 -81 100 -60 57 24 69 61
62 197 -5 88 -3 130 8 174 20 76 12 83 -10 9z m-53 -221 c21 -19 23 -51 6 -87
-14 -31 -40 -41 -67 -25 -39 25 -48 80 -19 117 15 17 58 15 80 -5z"/>
<path d="M4981 1384 c0 -11 3 -14 6 -6 3 7 2 16 -1 19 -3 4 -6 -2 -5 -13z"/>
<path d="M233 1620 c0 -36 2 -50 4 -32 2 17 2 47 0 65 -2 17 -4 3 -4 -33z"/>
<path d="M311 1664 c0 -11 3 -14 6 -6 3 7 2 16 -1 19 -3 4 -6 -2 -5 -13z"/>
<path d="M3201 1594 c0 -11 3 -14 6 -6 3 7 2 16 -1 19 -3 4 -6 -2 -5 -13z"/>
<path d="M405 1544 c-21 -50 -52 -213 -59 -304 -4 -55 0 -41 14 55 11 72 31
165 44 208 25 82 26 100 1 41z"/>
<path d="M2903 1530 c0 -25 2 -35 4 -22 2 12 2 32 0 45 -2 12 -4 2 -4 -23z"/>
<path d="M3891 1534 c0 -11 3 -14 6 -6 3 7 2 16 -1 19 -3 4 -6 -2 -5 -13z"/>
<path d="M3870 1478 c-26 -43 -25 -60 1 -28 31 39 41 60 29 60 -6 0 -19 -15
-30 -32z"/>
<path d="M2113 1410 c0 -25 2 -35 4 -22 2 12 2 32 0 45 -2 12 -4 2 -4 -23z"/>
<path d="M222 1360 c0 -14 2 -19 5 -12 2 6 2 18 0 25 -3 6 -5 1 -5 -13z"/>
<path d="M5112 1310 c0 -14 2 -19 5 -12 2 6 2 18 0 25 -3 6 -5 1 -5 -13z"/>
<path d="M3861 1272 c-35 -37 -114 -166 -126 -207 l-6 -20 16 20 c9 11 39 58
68 105 130 211 183 128 243 -378 35 -305 54 -389 120 -540 38 -87 58 -145 61
-185 3 -32 10 -60 16 -64 6 -4 7 14 2 52 l-7 57 31 -18 c24 -14 35 -16 55 -6
24 11 25 10 34 -41 l10 -52 0 45 c1 85 -13 137 -49 179 -19 21 -49 60 -67 85
-18 25 -39 46 -47 46 -21 0 -26 14 -46 124 -18 107 -26 96 -9 -14 15 -93 28
-130 45 -124 9 4 25 -10 42 -36 15 -23 45 -61 66 -85 42 -48 46 -74 16 -101
-35 -32 -67 -4 -121 106 -82 167 -103 252 -133 550 -25 246 -70 461 -110 518
-25 34 -62 28 -104 -16z"/>
<path d="M4862 1245 c12 -24 23 -43 26 -41 4 5 -36 86 -43 86 -3 0 5 -20 17
-45z"/>
<path d="M2881 1264 c0 -11 3 -14 6 -6 3 7 2 16 -1 19 -3 4 -6 -2 -5 -13z"/>
<path d="M4040 1278 c0 -16 90 -337 120 -423 17 -49 39 -142 50 -205 29 -171
60 -256 147 -404 37 -63 58 -112 70 -168 10 -43 21 -78 25 -78 11 0 10 5 -11
87 -10 39 -33 98 -51 130 -83 147 -100 183 -124 253 -13 41 -32 122 -41 180
-9 58 -32 152 -51 210 -19 58 -53 170 -76 250 -36 129 -57 190 -58 168z"/>
<path d="M5090 1210 c-9 -55 -9 -90 -1 -148 6 -42 15 -80 20 -85 4 -4 1 32 -6
80 -11 69 -12 102 -3 152 6 35 9 65 7 68 -3 2 -10 -28 -17 -67z"/>
<path d="M11 1247 c-1 -4 8 -40 19 -79 26 -94 25 -133 -5 -246 -14 -51 -25
-105 -24 -120 1 -52 58 194 58 253 0 37 -9 87 -24 130 -12 39 -23 67 -24 62z"/>
<path d="M4980 1210 c5 -14 16 -56 24 -95 20 -99 51 -175 87 -215 28 -32 29
-32 14 -6 -10 16 -26 43 -36 60 -18 33 -54 146 -63 207 -4 19 -13 44 -21 55
-14 18 -15 18 -5 -6z"/>
<path d="M2896 1125 c3 -58 -2 -163 -11 -250 -8 -82 -14 -166 -14 -185 1 -19
6 1 10 45 5 44 16 123 25 175 15 87 15 105 0 205 l-15 110 5 -100z"/>
<path d="M800 1190 c-6 -11 -8 -20 -6 -20 3 0 10 9 16 20 6 11 8 20 6 20 -3 0
-10 -9 -16 -20z"/>
<path d="M2922 1170 c0 -19 2 -27 5 -17 2 9 2 25 0 35 -3 9 -5 1 -5 -18z"/>
<path d="M660 1140 c-113 -172 -142 -210 -160 -210 -10 0 -20 8 -23 19 -9 34
23 86 96 154 l72 69 -61 -47 c-66 -49 -92 -76 -117 -115 -12 -21 -13 -31 -4
-60 14 -41 40 -50 69 -23 11 10 47 56 81 103 76 108 83 114 62 65 -30 -74 -83
-160 -142 -229 -86 -102 -94 -113 -96 -136 -1 -19 -3 -19 -13 -5 -16 22 -26
96 -19 142 5 34 4 35 -6 13 -18 -41 -6 -153 21 -190 23 -32 23 -34 16 -243 -6
-174 -11 -221 -27 -267 -11 -30 -29 -83 -39 -117 -18 -61 -18 -63 0 -63 14 0
20 11 25 53 4 28 16 77 26 107 10 30 19 81 19 114 0 55 15 212 26 263 2 12 29
58 59 103 31 44 54 80 51 80 -6 0 -81 -102 -99 -135 l-16 -30 -1 45 c0 43 6
54 89 160 49 63 103 143 120 177 41 82 39 94 -3 17 -35 -67 -89 -143 -150
-214 -54 -62 -66 -68 -66 -32 0 23 19 51 75 118 104 121 186 286 173 350 -2
12 -13 2 -38 -36z"/>
<path d="M781 1099 c-23 -50 -40 -96 -39 -101 2 -6 23 34 46 87 23 54 41 99
39 102 -2 2 -23 -38 -46 -88z"/>
<path d="M4892 1165 c2 -54 -2 -76 -12 -70 -14 9 -12 -7 5 -48 8 -20 15 -50
15 -66 0 -17 5 -43 12 -58 16 -35 144 -229 158 -238 5 -3 -24 44 -65 106 -73
109 -95 157 -95 211 0 15 -4 38 -10 52 -6 17 -6 36 1 55 8 22 8 39 0 58 l-10
28 1 -30z"/>
<path d="M2020 1149 c-6 -11 -10 -27 -8 -35 2 -8 8 1 14 20 12 40 10 46 -6 15z"/>
<path d="M754 1105 c-14 -30 -24 -59 -22 -64 2 -5 15 19 29 55 33 78 27 85 -7
9z"/>
<path d="M461 1134 c0 -11 3 -14 6 -6 3 7 2 16 -1 19 -3 4 -6 -2 -5 -13z"/>
<path d="M2853 1085 c0 -38 2 -53 4 -32 2 20 2 52 0 70 -2 17 -4 1 -4 -38z"/>
<path d="M22 1065 c-1 -33 -4 -78 -7 -100 l-5 -40 10 33 c6 18 9 63 7 100 l-3
67 -2 -60z"/>
<path d="M2932 1100 c0 -14 2 -19 5 -12 2 6 2 18 0 25 -3 6 -5 1 -5 -13z"/>
<path d="M453 1075 c0 -22 2 -30 4 -17 2 12 2 30 0 40 -3 9 -5 -1 -4 -23z"/>
<path d="M3827 1084 c-15 -8 -54 -49 -87 -91 -58 -73 -67 -93 -100 -220 -5
-22 -30 -68 -54 -101 -55 -74 -99 -143 -94 -147 4 -4 98 131 135 193 12 20 29
69 38 109 13 56 27 86 61 132 51 68 108 121 130 121 54 0 76 -57 94 -245 6
-66 23 -174 37 -240 27 -133 90 -362 104 -385 11 -17 14 -29 -35 155 -45 170
-83 363 -95 497 -14 142 -28 194 -59 218 -29 24 -38 24 -75 4z"/>
<path d="M549 1033 l-24 -28 28 24 c15 14 27 26 27 28 0 8 -8 1 -31 -24z"/>
<path d="M281 1004 c0 -11 3 -14 6 -6 3 7 2 16 -1 19 -3 4 -6 -2 -5 -13z"/>
<path d="M2823 985 c0 -22 2 -30 4 -17 2 12 2 30 0 40 -3 9 -5 -1 -4 -23z"/>
<path d="M292 950 c0 -19 2 -27 5 -17 2 9 2 25 0 35 -3 9 -5 1 -5 -18z"/>
<path d="M3762 930 c-48 -34 -62 -57 -62 -100 0 -17 -7 -47 -15 -67 -21 -49
-18 -55 5 -13 11 19 19 51 20 71 0 20 9 47 19 61 26 32 84 63 105 55 41 -16
89 -177 106 -356 6 -63 15 -137 21 -165 14 -68 132 -416 142 -416 11 0 -1 42
-55 189 -61 167 -84 264 -98 413 -9 104 -45 261 -70 308 -16 30 -40 50 -59 50
-10 0 -36 -13 -59 -30z"/>
<path d="M1871 930 c-8 -4 -15 -30 -17 -61 l-3 -54 11 53 c11 52 32 70 41 35
4 -15 5 -15 6 -2 1 22 -21 40 -38 29z"/>
<path d="M2812 910 c0 -14 2 -19 5 -12 2 6 2 18 0 25 -3 6 -5 1 -5 -13z"/>
<path d="M2922 910 c0 -14 2 -19 5 -12 2 6 2 18 0 25 -3 6 -5 1 -5 -13z"/>
<path d="M2238 855 c-17 -62 -16 -75 8 -75 26 0 36 41 21 90 l-13 44 -16 -59z
m18 -63 c-13 -12 -17 8 -9 44 l8 39 3 -39 c2 -21 1 -41 -2 -44z"/>
<path d="M2832 880 c0 -14 2 -19 5 -12 2 6 2 18 0 25 -3 6 -5 1 -5 -13z"/>
<path d="M301 874 c0 -11 3 -14 6 -6 3 7 2 16 -1 19 -3 4 -6 -2 -5 -13z"/>
<path d="M2803 840 c0 -25 2 -35 4 -22 2 12 2 32 0 45 -2 12 -4 2 -4 -23z"/>
<path d="M3757 873 c-4 -3 -7 -18 -7 -32 -1 -41 -24 -96 -79 -186 -68 -110
-135 -254 -175 -372 -18 -53 -37 -98 -43 -100 -7 -3 -15 40 -22 114 -18 184
-30 245 -57 291 -14 24 -23 50 -20 58 3 8 1 12 -4 9 -5 -3 -15 3 -22 15 -7 11
-16 20 -20 20 -4 0 10 -33 32 -73 65 -120 75 -264 34 -501 -9 -53 -14 -101
-12 -108 3 -7 12 41 22 107 10 66 22 129 26 140 11 26 12 -94 1 -187 -4 -38
-3 -68 1 -68 4 0 8 13 8 29 0 15 13 52 29 82 15 30 32 70 36 89 10 47 110 294
142 350 50 89 106 170 116 170 6 0 8 -21 4 -56 -5 -44 -13 -64 -42 -100 -20
-24 -34 -48 -30 -53 3 -5 0 -13 -6 -17 -8 -4 -9 -3 -5 4 4 7 5 12 2 12 -10 0
-87 -121 -108 -167 -11 -25 -22 -60 -23 -78 -2 -18 -14 -68 -28 -111 -13 -43
-27 -96 -31 -116 l-7 -38 64 0 63 0 24 76 c13 41 42 103 64 137 l41 62 3 -33
c3 -26 -2 -38 -22 -53 -27 -21 -43 -60 -55 -138 -11 -72 2 -64 18 11 14 67 36
118 51 118 16 0 11 -53 -10 -115 -23 -67 -23 -65 -11 -65 5 0 18 24 28 53 l18
52 3 -53 3 -52 39 0 c37 0 40 3 59 44 21 48 36 116 46 210 l7 60 34 -105 c19
-57 41 -126 48 -154 13 -49 36 -73 36 -38 0 10 -16 70 -36 133 -45 147 -60
217 -78 376 -9 71 -25 158 -36 194 -11 36 -20 71 -20 78 0 8 -7 29 -16 48 -13
26 -22 34 -43 34 -15 0 -31 -3 -34 -7z m-141 -460 c-13 -21 -32 -57 -42 -81
-18 -47 -31 -52 -14 -6 14 36 73 135 78 130 2 -2 -8 -21 -22 -43z"/>
<path d="M2906 779 c-4 -39 -5 -73 -3 -76 3 -2 8 28 12 67 4 39 5 73 2 76 -2
3 -8 -27 -11 -67z"/>
<path d="M2794 610 c0 -102 2 -143 3 -92 2 50 2 134 0 185 -1 50 -3 9 -3 -93z"/>
<path d="M4321 734 c0 -11 3 -14 6 -6 3 7 2 16 -1 19 -3 4 -6 -2 -5 -13z"/>
<path d="M766 684 c-4 -14 -5 -28 -3 -31 3 -2 8 8 11 23 4 14 5 28 3 31 -3 2
-8 -8 -11 -23z"/>
<path d="M4331 700 c0 -8 6 -40 14 -70 7 -30 14 -46 14 -35 0 11 -6 43 -13 70
-8 28 -14 43 -15 35z"/>
<path d="M2843 645 c0 -33 2 -45 4 -27 2 18 2 45 0 60 -2 15 -4 0 -4 -33z"/>
<path d="M2824 555 c0 -77 2 -107 3 -67 2 40 2 103 0 140 -2 37 -3 4 -3 -73z"/>
<path d="M2894 575 c0 -66 1 -92 3 -57 2 34 2 88 0 120 -2 31 -3 3 -3 -63z"/>
<path d="M3375 648 c0 -33 21 -50 31 -25 6 16 -11 57 -24 57 -4 0 -7 -14 -7
-32z"/>
<path d="M732 563 c-46 -173 -54 -280 -24 -324 9 -15 30 -45 47 -69 23 -33 30
-56 33 -106 3 -49 8 -64 19 -64 13 0 14 9 9 53 -11 85 -25 125 -55 160 -35 40
-51 70 -51 96 0 25 -1 25 43 6 43 -18 96 -62 107 -89 6 -15 9 -17 9 -5 1 27
-71 93 -118 109 l-43 14 7 55 c4 31 15 96 26 145 10 49 17 91 15 93 -2 2 -13
-31 -24 -74z"/>
<path d="M2863 595 c0 -27 2 -38 4 -22 2 15 2 37 0 50 -2 12 -4 0 -4 -28z"/>
<path d="M2205 578 c62 -100 84 -163 110 -308 14 -79 25 -167 25 -195 0 -27 5
-57 11 -65 29 -40 -24 329 -66 461 -14 44 -26 97 -27 117 -1 32 -2 31 -7 -13
l-6 -50 -28 48 c-15 26 -30 47 -33 47 -3 0 7 -19 21 -42z"/>
<path d="M1847 508 c-110 -158 -134 -221 -160 -411 -11 -74 -11 -97 -2 -97 8
0 14 30 19 87 14 193 70 325 211 496 8 9 11 17 5 17 -5 0 -38 -42 -73 -92z"/>
<path d="M2752 514 c-1 -39 -5 -100 -8 -135 -5 -48 -4 -61 5 -53 8 7 11 50 8
135 -1 68 -4 92 -5 53z"/>
<path d="M4362 550 c0 -14 2 -19 5 -12 2 6 2 18 0 25 -3 6 -5 1 -5 -13z"/>
<path d="M2767 428 c-11 -300 -13 -428 -5 -428 4 0 9 24 10 53 l1 52 7 -55 c6
-49 7 -44 9 45 2 69 6 92 11 75 7 -19 8 -14 7 25 -1 28 1 82 4 120 4 39 4 57
2 40 -3 -16 -8 -34 -12 -40 -4 -5 -9 -28 -10 -50 -10 -159 -18 -116 -14 68 4
119 3 217 0 217 -3 0 -8 -55 -10 -122z"/>
<path d="M252 469 c-1 -37 -4 -82 -7 -100 l-5 -34 10 33 c6 18 9 63 7 100 l-3
67 -2 -66z"/>
<path d="M2873 455 c0 -44 2 -61 4 -37 2 23 2 59 0 80 -2 20 -4 1 -4 -43z"/>
<path d="M1934 501 c-49 -30 -50 -43 -2 -16 85 49 186 20 246 -69 33 -50 42
-54 18 -8 -50 95 -182 142 -262 93z"/>
<path d="M1944 448 c-42 -33 -52 -46 -83 -113 -27 -57 -29 -67 -28 -195 1
-118 1 -122 4 -33 2 57 8 103 12 103 5 0 11 10 15 23 7 30 75 137 87 137 5 0
9 -9 9 -19 0 -11 10 -27 22 -35 19 -14 20 -16 5 -16 -15 0 -16 -3 -7 -21 9
-16 8 -30 -6 -62 -19 -46 -29 -217 -13 -217 5 0 9 37 9 83 1 46 7 95 14 112
l14 30 11 -28 c6 -16 11 -66 11 -113 l0 -84 45 0 45 0 0 108 c0 87 -4 115 -21
152 -29 61 -31 86 -9 86 10 0 17 -3 15 -7 -3 -3 4 -14 15 -24 12 -10 20 -13
20 -7 0 7 -5 12 -11 12 -5 0 -8 4 -5 9 4 5 -6 18 -21 29 -16 11 -25 24 -20 28
21 22 103 -98 123 -180 12 -48 12 -49 13 -15 2 86 -59 185 -141 229 -56 29
-88 22 -140 -29 -48 -49 -50 -34 -2 18 58 65 116 62 199 -10 31 -27 36 -29 26
-11 -7 12 -30 36 -53 52 -52 38 -111 41 -154 8z m56 -42 c0 -2 -7 -7 -16 -10
-8 -3 -12 -2 -9 4 6 10 25 14 25 6z"/>
<path d="M2 425 c0 -16 2 -22 5 -12 2 9 2 23 0 30 -3 6 -5 -1 -5 -18z"/>
<path d="M2835 225 c-4 -119 -5 -218 -3 -221 3 -2 9 93 13 211 4 119 5 219 2
221 -3 3 -8 -92 -12 -211z"/>
<path d="M4855 397 c32 -56 61 -174 74 -296 6 -51 13 -96 17 -100 8 -8 -4 116
-22 219 -15 86 -55 190 -80 211 -8 6 -3 -9 11 -34z"/>
<path d="M2903 390 c0 -25 2 -35 4 -22 2 12 2 32 0 45 -2 12 -4 2 -4 -23z"/>
<path d="M2522 395 c0 -16 2 -22 5 -12 2 9 2 23 0 30 -3 6 -5 -1 -5 -18z"/>
<path d="M2884 285 c0 -50 1 -71 3 -48 2 23 2 64 0 90 -2 26 -3 8 -3 -42z"/>
<path d="M2211 344 c0 -11 3 -14 6 -6 3 7 2 16 -1 19 -3 4 -6 -2 -5 -13z"/>
<path d="M227 280 c-4 -30 -6 -84 -6 -120 2 -53 3 -44 10 45 9 118 7 165 -4
75z"/>
<path d="M2076 319 c20 -34 74 -100 74 -91 0 12 -55 88 -71 98 -8 5 -10 3 -3
-7z"/>
<path d="M4190 311 c0 -5 23 -34 51 -67 70 -80 68 -79 75 -71 4 4 -23 38 -59
76 -37 38 -67 66 -67 62z"/>
<path d="M356 269 c-10 -52 -7 -67 8 -39 l14 24 5 -24 c2 -14 5 -5 6 23 1 55
-22 67 -33 16z"/>
<path d="M1934 269 c-23 -25 -34 -118 -25 -209 5 -59 7 -52 11 62 4 105 8 130
24 147 11 12 17 21 14 21 -3 0 -13 -9 -24 -21z"/>
<path d="M1136 218 c-18 -149 -18 -218 -3 -218 13 0 15 23 15 140 1 77 -1 140
-2 140 -2 0 -6 -28 -10 -62z"/>
<path d="M2742 245 c0 -16 2 -22 5 -12 2 9 2 23 0 30 -3 6 -5 -1 -5 -18z"/>
<path d="M2853 180 c0 -25 2 -35 4 -22 2 12 2 32 0 45 -2 12 -4 2 -4 -23z"/>
<path d="M642 137 c-12 -13 -31 -49 -41 -80 l-20 -57 70 0 c38 0 69 4 69 8 0
10 -37 30 -65 34 -11 2 -21 11 -23 21 -5 25 28 59 50 54 20 -6 24 13 6 31 -17
17 -21 15 -46 -11z"/>
<path d="M2866 104 c-9 -67 -7 -104 4 -104 6 0 10 32 10 75 0 41 -2 75 -4 75
-2 0 -6 -21 -10 -46z"/>
<path d="M3316 118 c-3 -13 -5 -45 -4 -73 1 -46 1 -44 8 20 8 74 7 91 -4 53z"/>
<path d="M2942 30 c0 -19 2 -27 5 -17 2 9 2 25 0 35 -3 9 -5 1 -5 -18z"/>
<path d="M4191 33 c-1 -18 4 -33 9 -33 12 0 12 17 0 45 -7 17 -9 15 -9 -12z"/>
<path d="M1722 20 c0 -14 2 -19 5 -12 2 6 2 18 0 25 -3 6 -5 1 -5 -13z"/>
</g>
</svg>