<?xml version="1.0" standalone="no"?>
<!DOCTYPE svg PUBLIC "-//W3C//DTD SVG 20010904//EN"
 "http://www.w3.org/TR/2001/REC-SVG-20010904/DTD/svg10.dtd">
<svg version="1.0" xmlns="http://www.w3.org/2000/svg"
 width="512.000000pt" height="512.000000pt" viewBox="0 0 512.000000 512.000000"
 preserveAspectRatio="xMidYMid meet">
<metadata>
Created by potrace 1.16, written by Peter Selinger 2001-2019
</metadata>
<g transform="translate(0.000000,512.000000) scale(0.100000,-0.100000)"
fill="#000000" stroke="none">
<path d="M65 5110 c-3 -5 -19 -10 -36 -10 -16 0 -29 -5 -29 -11 0 -6 23 -9 63
-8 l62 3 11 -115 c6 -63 9 -117 7 -121 -2 -5 -36 -8 -75 -8 l-70 0 6 -37 c15
-92 18 -183 7 -183 -6 0 -11 -6 -11 -14 0 -11 35 -15 170 -21 l170 -7 0 -81
c0 -77 -1 -82 -36 -123 l-35 -44 -95 0 c-86 0 -98 2 -128 25 -18 14 -37 25
-41 25 -5 0 2 -11 15 -25 l23 -25 -21 0 c-15 0 -22 -6 -22 -20 0 -20 4 -20
160 -14 111 5 191 3 258 -6 l97 -13 24 -46 c21 -40 25 -64 29 -175 l5 -129
-29 6 c-40 9 -394 54 -477 61 -62 5 -67 4 -67 -14 0 -16 7 -20 38 -20 72 0 79
-6 72 -56 -4 -24 -3 -44 2 -44 4 0 8 15 8 34 0 19 4 38 10 41 6 4 10 -12 10
-41 l0 -47 -70 5 -70 5 0 -33 0 -34 64 0 64 0 7 -85 c4 -46 4 -96 1 -110 -6
-24 -10 -25 -71 -25 -51 0 -65 -3 -65 -15 0 -11 12 -15 50 -15 60 0 67 -11 54
-79 l-9 -46 -47 -3 c-43 -3 -48 -5 -48 -28 0 -22 4 -24 44 -24 50 0 51 -2 61
-91 l7 -64 -53 -12 c-53 -13 -66 -19 -58 -28 3 -2 26 2 52 10 l48 14 -3 -77
-3 -77 -47 -15 c-79 -25 -61 -40 47 -40 l95 0 0 -85 0 -84 -52 -16 c-28 -8
-71 -15 -95 -15 l-43 0 0 -114 c0 -82 3 -115 13 -118 6 -3 51 0 98 5 114 13
119 11 119 -56 l0 -54 -67 -6 c-38 -2 -76 -8 -85 -12 -13 -5 -20 0 -28 19 -6
16 -17 26 -30 26 -18 0 -20 -6 -20 -54 0 -40 4 -55 16 -60 19 -7 16 -62 -4
-58 -6 1 -12 -7 -12 -18 0 -13 5 -18 15 -14 12 5 15 -6 15 -65 0 -54 -4 -73
-15 -77 -8 -4 -15 -12 -15 -20 0 -10 14 -14 50 -14 45 0 50 -2 56 -25 9 -37
-11 -55 -63 -55 -29 0 -42 -4 -37 -11 3 -6 28 -9 58 -7 l51 3 3 -85 c2 -53 -2
-100 -11 -125 -13 -38 -16 -40 -60 -43 -40 -3 -47 -6 -47 -24 0 -18 4 -19 47
-14 27 3 112 9 190 12 l143 7 0 -86 0 -85 -128 6 c-105 4 -138 2 -190 -14 -73
-22 -83 -44 -19 -44 l44 0 -5 -58 c-2 -31 -9 -65 -14 -75 -5 -10 -5 -24 2 -36
5 -11 10 -40 10 -65 l0 -46 -40 0 c-35 0 -40 -3 -40 -24 0 -23 2 -23 133 -29
72 -3 143 -9 155 -14 l24 -9 -25 -30 c-33 -39 -54 -82 -68 -139 l-12 -47 -41
5 c-23 3 -69 3 -104 0 -51 -5 -62 -9 -62 -24 0 -10 5 -21 10 -24 6 -4 10 -57
10 -125 0 -68 -4 -121 -10 -125 -5 -3 -10 -15 -10 -26 0 -17 8 -19 88 -19 l88
0 13 -141 c11 -117 11 -143 0 -150 -7 -4 -53 -11 -102 -15 l-89 -7 5 -36 c3
-20 10 -58 16 -85 9 -41 8 -52 -4 -66 -8 -9 -15 -20 -15 -23 0 -4 38 -4 85 -1
l85 7 0 -37 0 -36 45 0 c37 0 45 3 45 19 0 15 14 21 78 34 42 9 129 21 192 27
63 6 135 13 158 16 l44 6 -7 -30 c-7 -36 11 -72 37 -72 16 0 18 12 18 114 0
81 4 117 12 123 7 4 95 9 194 11 219 5 208 14 202 -144 -1 -57 0 -104 3 -104
7 0 37 104 46 158 6 36 -20 87 -39 76 -6 -4 -9 -1 -6 7 2 8 19 15 38 17 l33 3
-7 -40 c-3 -23 -9 -81 -13 -131 -6 -86 -5 -90 15 -90 16 0 23 10 32 53 6 28
14 76 17 105 l6 52 151 -1 c83 -1 162 -4 176 -8 25 -7 33 -30 66 -178 9 -44
23 -22 26 40 3 59 4 62 28 60 14 -1 100 -5 192 -9 l167 -7 3 -51 c2 -40 7 -52
22 -54 16 -4 17 1 11 47 -6 47 -5 51 17 60 13 5 87 12 165 16 l140 7 7 -28
c24 -99 27 -104 49 -104 13 0 27 4 33 9 12 13 273 53 295 46 9 -3 20 -17 23
-30 5 -18 13 -25 31 -25 15 0 25 6 25 14 0 19 39 24 259 31 l174 6 -5 -23 c-3
-19 0 -24 17 -26 18 -1 21 3 17 23 -3 20 0 25 17 25 16 0 21 -6 21 -25 0 -22
4 -25 35 -25 32 0 35 2 35 30 l0 30 184 0 184 0 7 -30 7 -30 185 0 c140 0 198
4 240 16 57 17 163 12 163 -7 0 -16 67 -10 74 6 8 21 92 21 100 0 7 -19 55
-19 62 0 9 22 204 22 204 0 0 -17 36 -21 42 -4 2 7 36 14 81 17 l77 5 0 118 0
119 -44 0 c-33 0 -46 5 -51 18 -3 9 -9 79 -12 155 l-6 137 56 0 c42 0 57 4 57
14 0 11 -40 12 -230 8 -127 -3 -230 -1 -230 4 0 4 11 44 25 88 33 107 83 190
116 193 302 24 319 26 319 39 0 7 -12 14 -27 16 l-28 3 0 110 0 110 28 3 c23
3 28 8 25 25 -3 21 -8 22 -140 25 l-138 3 0 45 c0 53 17 98 68 176 31 48 41
56 60 51 36 -9 158 7 141 19 -11 7 -11 11 -1 15 6 2 12 16 12 30 0 20 -4 23
-20 18 -19 -6 -20 -2 -20 74 0 62 5 89 20 116 11 20 20 53 20 75 0 36 -3 40
-25 40 -23 0 -25 4 -25 45 0 41 2 45 25 45 20 0 25 5 25 24 0 22 -5 24 -105
36 l-105 13 1 136 c1 180 3 185 59 188 101 6 150 15 150 27 0 9 -25 15 -80 20
-44 3 -86 9 -95 12 -30 12 6 46 92 86 46 22 83 42 80 44 -10 10 -154 -58 -179
-85 -25 -28 -30 -29 -85 -24 -32 3 -61 11 -65 17 -9 13 -10 161 -2 204 l6 30
92 7 c103 7 158 -7 209 -53 39 -36 36 -5 -3 33 -16 16 -30 32 -30 37 0 4 14
14 30 23 25 13 30 22 30 50 l0 35 -53 0 c-46 0 -55 3 -66 23 -7 13 -11 39 -9
57 3 36 13 42 91 55 20 3 37 10 37 15 0 14 -110 16 -165 3 -76 -19 -75 -20
-75 50 l0 63 83 12 c46 7 100 12 120 12 24 0 37 5 37 14 0 31 -223 38 -364 11
-43 -8 -93 -15 -112 -15 l-34 0 0 100 0 100 48 0 c26 0 133 9 237 20 105 11
198 20 208 20 28 0 21 37 -8 44 -25 6 -26 9 -23 69 3 56 5 62 26 65 14 2 22
10 22 23 0 17 -8 19 -89 19 l-88 0 18 103 c10 56 19 103 19 105 0 1 32 2 70 2
61 0 70 2 70 18 0 10 -4 22 -10 28 -5 5 -12 35 -16 67 -6 49 -4 57 10 57 20 0
21 36 1 44 -22 8 -22 276 0 276 8 0 15 7 15 15 0 12 -22 15 -112 17 l-113 3
95 33 c52 17 103 32 113 32 9 0 17 5 17 11 0 13 -41 5 -133 -26 -61 -21 -71
-22 -95 -9 -31 16 -90 18 -125 5 -25 -10 -26 -8 -42 67 -12 51 -14 81 -8 92
16 24 92 38 253 46 110 5 150 10 150 19 0 7 -7 15 -15 19 -22 8 -22 181 0 190
8 3 15 10 15 17 0 8 -33 10 -112 8 l-113 -4 -10 45 c-6 25 -16 57 -23 73 -7
15 -9 46 -6 71 l6 43 107 7 c58 3 116 9 129 12 34 9 26 24 -12 24 -19 0 -38 5
-42 11 -4 8 -9 7 -15 -2 -12 -19 -320 -20 -327 -1 -6 18 -52 15 -52 -3 0 -12
-18 -15 -100 -15 -80 0 -102 3 -106 15 -9 23 -44 19 -44 -5 0 -19 -7 -20 -164
-20 -181 0 -226 5 -226 27 0 12 -13 14 -72 9 -104 -9 -110 -9 -457 -5 l-313 4
6 -45 c10 -72 19 -190 15 -191 -19 -6 -366 -25 -371 -20 -4 4 -15 64 -25 134
l-18 127 -32 0 c-23 0 -33 -5 -33 -15 0 -13 -28 -15 -190 -15 -160 0 -192 2
-196 15 -9 23 -44 19 -44 -6 0 -20 -3 -20 -187 -13 -143 5 -191 10 -199 20
-10 12 -102 14 -578 12 -311 -2 -566 -6 -566 -10 0 -5 -33 -8 -74 -8 -41 0
-78 -4 -81 -10 -4 -6 20 -10 66 -10 l71 0 -14 -22 c-13 -19 -31 -24 -109 -34
-52 -7 -114 -20 -139 -29 -25 -9 -87 -25 -139 -35 -51 -10 -104 -26 -117 -35
-13 -8 -26 -15 -29 -15 -3 0 -5 41 -5 90 0 63 4 92 13 95 6 3 59 9 117 14
l105 8 -172 2 c-105 0 -174 -3 -178 -9z m1755 -21 c0 -27 -24 -49 -71 -64 -47
-16 -65 -16 -190 -5 l-139 13 0 28 0 28 83 4 c203 8 317 7 317 -4z m-465 -80
c6 -42 7 -87 4 -100 -6 -19 -7 -16 -9 16 -1 22 -5 60 -10 85 -7 35 -8 26 -4
-43 l4 -88 -64 -30 -64 -30 -222 3 -221 3 -59 65 c-60 65 -75 100 -43 100 9 0
34 19 56 41 l39 42 131 7 c73 4 204 7 292 6 l159 -1 11 -76z m2361 69 c6 -7
-8 -205 -16 -217 -7 -13 -441 -18 -461 -6 -9 6 -10 35 -6 112 3 56 9 108 13
115 5 8 70 9 236 6 126 -3 231 -8 234 -10z m282 -15 l54 -6 -74 -23 c-40 -13
-78 -24 -85 -24 -22 0 -123 41 -123 51 0 10 148 12 228 2z m-1700 -22 c101 -5
187 -12 192 -17 10 -11 -8 -124 -20 -124 -5 0 -25 -16 -45 -35 l-37 -34 -256
11 c-142 6 -262 15 -269 20 -6 5 -14 44 -18 86 -4 42 -9 84 -11 93 -5 18 48
18 464 0z m1803 -11 c4 -14 7 -62 8 -107 l1 -83 -175 0 -175 0 0 43 0 42 88
38 c48 21 112 48 142 59 30 11 59 25 65 30 16 15 39 4 46 -22z m724 -92 c-4
-68 -9 -125 -10 -126 -7 -7 -261 20 -279 30 -16 9 -18 18 -12 77 4 36 9 83 13
104 l6 37 144 0 145 0 -7 -122z m-2081 104 c2 -4 8 -46 12 -93 8 -104 12 -102
-133 -85 l-100 11 11 43 11 43 90 30 c50 17 94 34 100 40 15 15 -4 11 -95 -21
-47 -16 -86 -26 -88 -21 -1 4 2 20 7 34 10 26 13 27 95 27 47 0 87 -4 90 -8z
m1716 -93 l0 -101 -122 7 c-161 9 -167 13 -163 102 2 37 4 71 4 75 1 9 61 14
184 16 l97 2 0 -101z m-582 46 c4 -4 -87 -45 -99 -45 -5 0 -9 20 -9 44 l0 44
53 -20 c28 -11 53 -21 55 -23z m-2068 10 c0 -27 -9 -29 -65 -15 l-30 7 25 10
c70 28 70 28 70 -2z m-147 -15 c159 -26 159 -26 155 -103 -3 -60 -4 -62 -30
-61 -16 0 -104 1 -198 2 l-170 2 0 93 0 93 63 -3 c34 -3 115 -13 180 -23z
m-1063 -37 c-25 -88 -36 -93 -178 -93 -67 0 -90 4 -104 17 -11 10 -40 20 -66
23 l-47 6 29 13 c16 6 83 19 150 27 67 9 137 19 156 24 64 15 70 13 60 -17z
m108 -121 c-49 -5 -58 3 -58 54 l0 46 44 -49 44 -48 -30 -3z m662 18 c0 -25
-17 -32 -66 -28 l-39 3 40 22 c51 27 65 28 65 3z m-770 -34 c0 -19 6 -25 28
-28 25 -3 28 -8 36 -61 13 -90 9 -92 -154 -81 -74 4 -182 7 -240 5 -58 -2
-123 -4 -145 -5 -33 -1 -41 3 -52 25 -18 37 -27 135 -13 144 7 4 111 10 233
15 122 4 241 8 265 8 38 2 42 0 42 -22z m2650 6 l115 -7 2 -60 1 -60 -8 48
c-5 27 -12 52 -16 55 -6 7 2 -69 13 -114 3 -16 -8 -35 -44 -73 l-50 -52 -164
7 c-101 4 -167 11 -171 18 -21 30 40 242 71 249 9 2 43 2 76 -1 33 -2 112 -7
175 -10z m-620 -12 c41 -5 114 -13 163 -16 l87 -6 0 -29 c0 -34 -8 -35 -77 -9
-29 11 -79 22 -110 25 -32 3 -71 8 -88 10 -20 3 -25 2 -15 -4 8 -5 46 -12 85
-16 38 -4 100 -18 137 -32 64 -24 68 -27 68 -57 0 -70 -6 -76 -74 -76 -33 0
-137 5 -229 12 -162 11 -168 13 -163 32 2 12 8 53 11 91 4 39 9 73 12 78 6 10
105 9 193 -3z m-434 -15 c76 -9 139 -17 140 -18 1 -1 -1 -36 -4 -77 -8 -90 3
-85 -189 -75 l-133 7 0 89 c0 105 -21 97 186 74z m1763 -1 c9 -9 -29 -138 -46
-154 -14 -14 -15 -11 -8 25 4 21 13 52 21 67 8 15 14 33 14 40 -1 22 -38 -55
-50 -104 l-12 -46 -81 -5 c-45 -2 -125 -14 -177 -26 -52 -11 -116 -21 -142
-21 l-48 0 0 113 c0 63 3 117 8 122 8 8 512 -2 521 -11z m395 -69 c5 -65 3
-94 -9 -121 l-15 -35 -169 3 c-111 2 -174 7 -182 14 -8 8 -9 38 -4 98 7 83 8
86 34 92 14 2 37 11 51 19 17 9 66 13 156 14 l131 1 7 -85z m37 63 c6 -15 7
-57 2 -118 -6 -76 -11 -95 -25 -98 -15 -3 -15 1 -1 40 12 35 13 54 4 97 -14
68 -14 101 -1 101 6 0 15 -10 21 -22z m166 14 c10 -6 5 -19 -18 -50 -17 -23
-44 -66 -60 -95 l-29 -52 0 103 0 102 48 0 c26 0 53 -4 59 -8z m-2597 -85 l0
-84 -147 -7 c-81 -3 -150 -3 -155 2 -10 10 -29 153 -22 164 3 4 77 8 165 8
l159 0 0 -83z m2738 73 c13 0 21 -3 19 -7 -5 -7 248 1 284 9 16 4 24 -71 14
-139 l-6 -42 -57 -6 c-31 -4 -106 -13 -165 -21 -59 -8 -153 -14 -207 -14 -94
0 -100 1 -100 20 0 28 34 94 82 159 39 51 42 53 77 47 20 -3 46 -6 59 -6z
m-3882 -27 c3 -16 12 -52 20 -82 9 -29 13 -55 10 -58 -3 -3 -30 -2 -61 2 l-55
6 0 80 0 79 40 0 c35 0 40 -3 46 -27z m239 15 c2 -2 1 -38 -2 -81 l-6 -77 -87
0 -87 0 -16 53 c-9 28 -19 67 -23 86 l-6 34 112 -6 c62 -3 114 -7 115 -9z
m493 -75 c2 -46 2 -83 0 -83 -2 -1 -46 -3 -99 -7 l-95 -5 -36 85 -36 86 62 4
c33 2 93 3 131 3 l70 -1 3 -82z m3532 6 c0 -51 -4 -78 -10 -74 -18 11 -12 155
7 155 2 0 3 -36 3 -81z m-3990 37 c0 -18 3 -54 6 -80 6 -43 5 -46 -16 -46 -18
0 -21 4 -16 23 3 12 6 48 6 80 0 31 5 57 10 57 6 0 10 -15 10 -34z m209 -43
c17 -43 31 -81 31 -85 0 -9 -125 -10 -157 -2 -21 6 -23 12 -23 78 0 40 3 76 7
79 3 4 30 7 59 7 l52 0 31 -77z m2066 -102 c-6 -39 -9 -41 -42 -41 l-36 0 39
43 c22 24 41 42 42 41 2 -2 1 -21 -3 -43z m-2867 5 c3 -4 -8 -21 -25 -39 -16
-17 -39 -44 -50 -59 l-20 -27 -7 61 c-6 45 -4 63 6 70 13 9 85 4 96 -6z m251
-13 c3 -2 7 -68 10 -148 l6 -144 -28 -5 c-29 -6 -259 9 -301 20 -21 5 -24 12
-28 67 -5 57 -2 66 25 107 17 24 46 62 66 83 l34 38 106 -7 c58 -4 108 -8 110
-11z m3197 -17 c-2 -11 -8 -81 -12 -153 l-7 -133 -36 -1 c-20 0 -85 -4 -146
-9 -62 -5 -114 -5 -119 0 -9 9 -28 281 -21 289 3 2 71 10 152 18 81 7 153 15
158 17 21 7 36 -7 31 -28z m-1333 -1 c15 -6 17 -24 17 -160 0 -132 -2 -154
-16 -159 -27 -10 -427 -28 -434 -19 -13 15 -28 68 -40 140 -10 57 -10 84 0
135 6 35 14 67 17 72 7 10 430 2 456 -9z m-1361 -10 c59 -3 114 -8 123 -11 20
-8 19 -53 -4 -111 -24 -62 -33 -113 -21 -113 6 0 10 10 11 23 0 12 7 38 14 57
l13 35 1 -58 c1 -43 -3 -59 -14 -64 -9 -3 -57 0 -107 6 l-91 12 -31 -29 -31
-30 -143 7 c-110 5 -145 10 -153 21 -5 8 -8 67 -7 130 l3 115 35 3 c19 2 39 8
45 13 9 9 52 8 357 -6z m803 -135 l0 -145 -212 0 c-117 0 -213 0 -213 1 0 0
37 30 83 66 82 66 126 108 113 108 -4 0 -31 -20 -59 -44 -29 -24 -85 -67 -126
-95 -64 -44 -81 -51 -122 -51 -26 0 -51 5 -55 12 -4 7 -8 37 -9 67 -1 31 -9
89 -19 130 -9 40 -14 76 -11 79 9 9 284 19 475 18 l155 -1 0 -145z m853 33
c-3 -49 -13 -111 -23 -139 l-19 -52 -59 -6 c-33 -3 -72 -6 -86 -5 -24 0 -23 2
9 14 19 7 45 14 58 14 12 1 22 6 22 11 0 11 -29 6 -94 -17 -22 -7 -40 -12 -42
-10 -2 1 10 54 26 117 17 63 30 125 30 137 0 22 3 23 91 23 l91 0 -4 -87z
m1184 62 l77 -7 20 -88 c33 -140 35 -136 -55 -143 -59 -5 -84 -3 -110 9 -52
25 -58 38 -62 146 l-4 100 28 -5 c16 -3 64 -9 106 -12z m551 8 c3 -5 7 -42 10
-83 l6 -75 -14 60 -14 60 4 -55 c2 -30 7 -77 11 -103 l7 -48 -204 7 c-112 4
-207 9 -211 13 -4 3 -3 36 2 71 5 36 12 86 15 113 l6 47 189 0 c104 0 191 -3
193 -7z m-1109 -15 c4 -18 22 -69 31 -91 9 -21 -54 -86 -115 -117 -46 -23
-266 -43 -420 -38 l-95 3 1 108 c1 64 6 113 12 119 18 18 121 25 360 27 171 1
223 -2 226 -11z m-3189 -157 c-5 -24 -12 -31 -31 -31 l-25 0 28 35 c32 39 38
39 28 -4z m4341 -58 c-12 -12 -26 11 -25 40 l1 32 14 -34 c8 -18 13 -36 10
-38z m313 -29 l34 -5 -8 -127 c-4 -70 -9 -131 -12 -136 -3 -4 -107 -7 -232 -5
-186 3 -228 7 -238 19 -21 26 -14 33 8 9 16 -19 18 -20 10 -4 -5 11 -21 33
-35 49 -22 25 -26 39 -26 96 l0 67 94 11 c98 12 126 19 126 31 0 8 224 4 279
-5z m-4421 -49 l3 -40 -21 37 c-24 46 -25 50 -2 46 12 -2 18 -14 20 -43z m366
29 c48 -7 49 -8 77 -69 20 -42 32 -87 38 -146 4 -46 6 -87 4 -91 -10 -18 -106
-8 -141 14 -28 17 -56 23 -123 26 l-88 4 1 38 c0 24 -14 66 -39 118 l-40 80
41 22 c36 19 52 21 131 16 50 -3 112 -8 139 -12z m426 -5 c74 -6 169 -14 210
-18 l75 -6 3 -144 3 -143 -30 25 c-43 36 -139 51 -323 52 l-158 0 0 121 c0 66
3 124 7 128 4 4 23 5 43 2 19 -3 96 -11 170 -17z m2104 5 c10 -26 6 -88 -7
-105 -8 -11 -71 -28 -182 -52 -94 -19 -171 -34 -172 -33 -3 3 19 161 24 166 5
5 251 37 299 39 21 1 34 -5 38 -15z m934 -116 c34 -68 62 -128 62 -134 0 -23
-163 -34 -524 -36 l-370 -3 -7 28 c-6 24 -5 26 7 16 8 -6 14 -17 14 -24 0 -9
28 -7 118 7 64 10 179 27 255 38 143 19 202 37 87 25 -95 -9 -274 -35 -358
-51 -95 -18 -87 -20 -117 23 -21 32 -25 49 -25 110 0 45 4 75 12 79 6 4 86 11
177 16 91 5 222 12 291 17 69 4 168 9 221 10 l95 1 62 -122z m-3342 92 c11 0
14 -16 13 -67 0 -57 -2 -64 -11 -43 -5 14 -18 44 -29 68 -23 52 -23 56 -3 48
9 -3 22 -6 30 -6z m1941 -12 c17 -16 23 -32 23 -64 0 -29 5 -46 16 -52 26 -14
9 -61 -41 -114 l-44 -48 -78 0 c-43 0 -157 -7 -252 -15 -96 -7 -179 -12 -183
-9 -10 6 -10 225 0 240 4 6 32 15 62 19 33 4 67 17 86 30 35 27 64 31 253 33
126 2 136 1 158 -20z m41 -40 c-1 -54 -2 -57 -5 -18 -3 25 -12 53 -20 62 -15
17 -14 18 5 18 20 0 22 -5 20 -62z m-1288 42 c12 -7 12 -12 -4 -29 -17 -19
-16 -23 19 -118 20 -54 39 -106 42 -115 5 -16 -2 -18 -46 -18 l-51 0 0 138 c0
154 3 165 40 142z m260 -5 c253 -9 238 -4 310 -93 45 -55 60 -81 56 -96 -3
-12 -6 -34 -6 -49 l0 -29 -195 4 c-107 1 -187 0 -177 -4 9 -4 88 -7 175 -7
111 -1 157 -4 157 -12 0 -19 -482 0 -502 19 -4 4 -23 54 -43 111 -36 104 -36
104 -18 138 15 28 22 32 48 28 16 -2 104 -7 195 -10z m-1351 -102 c17 -40 31
-79 31 -87 0 -21 -51 -66 -74 -66 -17 0 -18 6 -13 68 4 37 7 92 7 122 0 66 8
60 49 -37z m1715 71 c5 -12 2 -12 -15 -3 -30 16 -34 4 -4 -15 19 -13 25 -25
25 -54 l-1 -37 -30 35 c-16 19 -38 47 -49 61 l-19 26 44 1 c29 0 45 -5 49 -14z
m1132 -137 c6 -50 8 -96 3 -101 -4 -5 -97 -9 -206 -10 l-198 -1 -3 55 -3 56
175 35 175 35 16 -30 16 -31 -5 41 c-5 38 1 61 13 49 2 -3 10 -47 17 -98z
m-1951 -67 c52 -16 71 -30 53 -41 -7 -5 -113 -9 -235 -9 l-223 0 -6 26 c-4 17
-2 29 7 36 19 13 354 3 404 -12z m-676 -21 c12 -8 5 -9 -24 -5 -22 3 -73 6
-113 6 -52 0 -71 3 -66 11 8 14 179 4 203 -12z m4159 -55 l3 -61 -122 -6 c-67
-4 -211 -7 -319 -7 l-196 0 -17 35 c-27 57 -23 83 16 89 68 12 100 13 362 12
l270 -1 3 -61z m-1082 19 c13 -14 15 -28 10 -76 -3 -33 -6 -111 -6 -173 l0
-114 -140 0 c-104 0 -141 3 -144 13 -2 6 -11 35 -20 62 -9 29 -18 100 -22 172
l-5 122 38 4 c21 2 91 4 155 5 98 2 119 -1 134 -15z m364 -35 c9 -46 9 -54 -6
-65 -17 -13 -282 -79 -288 -72 -2 2 2 40 10 84 7 44 13 86 13 93 1 9 34 12
130 12 l129 0 12 -52z m-726 -10 c3 -24 10 -92 16 -153 6 -60 13 -128 15 -149
l6 -39 -53 7 c-71 9 -266 44 -252 45 7 1 14 35 17 85 7 88 38 206 60 224 15
12 53 18 128 21 l57 1 6 -42z m-2476 22 l42 0 0 -179 c0 -177 -6 -209 -33
-182 -6 6 -43 11 -83 11 -39 0 -99 3 -133 6 l-61 7 0 175 0 175 113 -6 c61 -4
131 -7 155 -7z m2112 -5 c10 -6 11 -41 8 -143 -5 -116 -8 -137 -24 -149 -13
-10 -63 -13 -189 -13 -95 0 -199 -3 -232 -6 l-60 -7 -21 79 c-15 56 -20 98
-17 144 3 43 2 57 -4 40 -7 -22 -9 -23 -16 -7 -11 27 13 47 59 48 22 0 82 7
131 14 93 14 342 14 365 0z m144 -2 c-18 -43 -43 -152 -44 -198 -3 -84 -18
-111 -19 -34 -1 36 -4 107 -7 157 l-7 92 43 0 c36 0 41 -2 34 -17z m-2879 -87
l0 -90 -93 -18 c-51 -10 -117 -25 -147 -33 -30 -9 -59 -14 -65 -10 -6 4 -10
56 -10 126 l0 120 158 -3 157 -3 0 -89z m325 39 c0 -66 0 -66 -145 -89 -55 -9
-110 -18 -122 -22 -22 -6 -23 -4 -23 73 0 44 3 83 7 86 3 4 69 7 145 7 l138 0
0 -55z m594 39 c9 -3 16 -15 16 -26 0 -10 11 -29 23 -41 15 -14 26 -38 30 -64
5 -39 3 -43 -16 -43 -71 1 -247 112 -247 156 0 23 2 24 89 24 49 0 96 -3 105
-6z m596 -21 c3 -3 6 -67 8 -143 3 -129 2 -139 -16 -149 -11 -6 -112 -11 -238
-13 l-219 -3 -7 60 c-3 33 -10 80 -16 105 -5 25 -12 71 -16 102 l-6 58 252 -7
c139 -3 255 -8 258 -10z m387 1 c220 -7 222 -7 227 -30 10 -37 -2 -52 -99
-123 -51 -38 -102 -83 -114 -100 l-22 -31 -144 0 c-128 0 -144 2 -149 18 -3 9
-12 59 -21 110 -13 76 -13 100 -3 133 l12 41 45 -6 c25 -3 146 -8 268 -12z
m-1047 -129 c19 -10 59 -26 89 -35 59 -17 61 -21 75 -110 l6 -45 -150 -2 -150
-3 0 141 0 141 48 -35 c26 -19 63 -42 82 -52z m3159 60 c3 -4 -8 -47 -25 -96
-34 -95 -29 -125 5 -36 l21 52 -7 -55 c-3 -30 -8 -57 -10 -60 -7 -8 -259 0
-375 12 l-108 11 0 51 0 51 163 42 c142 37 172 41 246 38 46 -2 86 -7 90 -10z
m447 -2 c-3 -10 -12 -56 -20 -102 -8 -45 -17 -85 -19 -88 -3 -2 -8 26 -11 64
-4 37 -9 85 -11 106 -5 37 -5 37 31 37 29 0 34 -3 30 -17z m-355 -70 c2 -128
16 -153 18 -30 l1 107 100 0 99 0 5 -32 c3 -18 7 -68 8 -110 l3 -78 -106 0
c-59 0 -121 -3 -138 -6 l-31 -6 0 116 c0 109 1 116 20 116 18 0 20 -7 21 -77z
m-3783 -65 l-3 -103 -131 -3 -131 -3 -6 53 c-15 118 -19 112 81 131 104 20
128 24 165 26 l28 1 -3 -102z m1791 -74 c-17 -21 -189 -20 -189 1 0 19 54 69
133 122 l62 42 3 -76 c2 -46 -2 -80 -9 -89z m106 14 c5 -13 3 -18 -8 -18 -18
0 -27 31 -26 90 l1 45 13 -50 c7 -27 16 -58 20 -67z m-2225 35 l-5 -68 -131
-19 c-73 -10 -139 -16 -148 -13 -11 5 -16 19 -16 51 l0 45 58 16 c43 13 183
44 242 54 3 1 3 -29 0 -66z m3700 -137 l0 -63 -82 -7 c-46 -4 -106 -9 -133
-12 l-50 -6 -22 51 c-23 56 -22 58 36 73 83 22 110 26 179 27 l72 1 0 -64z
m-910 18 c63 -9 120 -17 126 -19 8 -2 6 -28 -8 -87 -11 -46 -21 -84 -22 -86
-2 -1 -74 5 -161 13 -87 8 -206 15 -264 15 -58 0 -111 4 -118 8 -9 6 -19 132
-14 176 1 12 322 -2 461 -20z m980 17 c0 -6 -4 -13 -10 -16 -5 -3 -10 1 -10 9
0 9 5 16 10 16 6 0 10 -4 10 -9z m416 -3 c-1 -7 -7 -22 -13 -33 -14 -27 -27
-125 -14 -105 6 8 11 29 11 46 0 16 7 39 15 50 8 10 15 28 15 38 0 17 6 18 77
12 42 -3 102 -6 135 -6 l58 0 0 -69 0 -68 -142 -8 c-79 -4 -154 -8 -168 -8
-21 -2 -25 2 -23 23 6 55 5 66 -2 97 -6 28 -4 32 16 36 13 2 27 5 31 6 3 0 5
-5 4 -11z m-2828 -39 c-29 -53 -46 -66 -54 -45 -10 26 4 62 28 74 44 21 51 14
26 -29z m380 -42 l52 -83 0 -97 c0 -53 -4 -99 -10 -102 -6 -3 -66 -9 -135 -12
-69 -3 -125 -10 -125 -15 0 -18 -40 -7 -51 15 -6 12 -31 51 -54 87 -24 36 -53
89 -65 118 l-23 53 20 27 c11 15 27 42 37 60 l17 32 142 0 142 0 53 -83z m32
23 c13 -34 21 -62 19 -64 -2 -1 -23 26 -46 61 -39 60 -40 63 -18 63 18 0 27
-11 45 -60z m270 53 c0 -5 -19 -35 -41 -68 -49 -74 -117 -209 -124 -250 -5
-29 -5 -29 11 5 54 113 91 182 125 234 22 32 39 65 39 74 0 12 11 14 68 9 37
-4 83 -7 102 -7 35 0 36 -1 52 -62 31 -112 31 -116 9 -168 -24 -55 -26 -70
-10 -70 5 0 7 4 4 10 -3 5 1 22 9 37 l15 28 1 -27 c0 -61 -36 -70 -377 -94
l-93 -7 1 49 1 49 13 -35 c18 -47 18 -16 0 35 -10 26 -15 80 -15 153 l0 112
105 0 c58 0 105 -3 105 -7z m2013 -2 c27 -1 27 -2 27 -70 0 -39 -5 -73 -10
-76 -6 -4 -22 -24 -35 -45 l-24 -38 -43 15 c-24 8 -81 25 -128 37 l-85 23 -3
56 c-2 40 2 64 14 82 16 25 17 25 138 21 66 -3 133 -5 149 -5z m-734 -23 c6
-16 4 -25 -6 -31 -23 -14 -345 -128 -349 -124 -2 2 0 37 4 78 l7 74 115 11
c194 19 219 18 229 -8z m-3254 -37 c0 -54 -24 -75 -110 -97 -33 -9 -65 -20
-72 -26 -7 -5 -52 -13 -100 -18 l-88 -8 -28 30 c-23 25 -27 38 -27 88 0 54 2
60 23 65 45 10 95 12 247 11 l155 -1 0 -44z m555 23 c98 -7 107 -13 170 -109
47 -72 49 -94 15 -167 -14 -29 -25 -62 -24 -73 0 -11 9 2 19 29 31 78 40 79
40 4 l0 -67 -47 -7 c-58 -9 -602 -12 -623 -3 -13 5 -15 31 -12 162 l3 156 51
23 c29 13 70 33 93 46 43 23 73 24 315 6z m628 -172 l2 -182 -30 0 c-17 0 -63
9 -102 20 -94 26 -118 25 -162 -5 -20 -14 -41 -25 -46 -25 -12 0 -11 -8 -11
190 0 140 1 155 18 162 16 7 278 27 313 24 13 -1 15 -30 18 -184z m-1027 143
c-57 -26 -71 -25 -71 6 0 17 7 19 63 18 l62 0 -54 -24z m609 -42 l0 -67 -31
50 c-17 27 -38 57 -47 67 -14 16 -12 17 31 17 l47 0 0 -67z m2535 7 c9 -17 28
-36 44 -45 l29 -15 -20 -77 c-10 -43 -24 -95 -29 -117 l-11 -39 -194 5 c-107
3 -197 7 -200 10 -2 3 -6 45 -7 93 l-2 87 180 67 c99 37 183 66 188 64 4 -3
14 -17 22 -33z m-1946 -216 c23 -32 41 -61 41 -66 0 -4 -25 -8 -55 -8 -62 0
-54 -15 -79 145 -22 137 -20 141 19 58 18 -40 52 -98 74 -129z m-1359 172 c0
-18 -14 -23 -86 -30 l-59 -6 50 13 c28 7 59 18 70 25 25 15 25 15 25 -2z
m3484 -15 c7 -11 -33 -111 -44 -111 -11 0 -30 58 -30 91 0 26 3 29 34 29 19 0
37 -4 40 -9z m191 -16 c82 -15 231 -59 253 -74 11 -7 6 -22 -24 -74 l-38 -66
-134 0 c-74 0 -160 -3 -191 -7 l-56 -6 -22 49 -22 48 29 60 c16 33 30 66 30
73 0 17 79 16 175 -3z m-1012 -30 c82 -7 150 -15 153 -17 2 -3 1 -39 -2 -81
l-7 -77 -106 0 c-105 0 -395 25 -411 35 -8 5 -4 120 5 150 3 13 172 8 368 -10z
m-2591 -33 c12 -12 -7 -167 -23 -188 -5 -6 -61 -14 -127 -18 -64 -4 -157 -13
-207 -21 -50 -7 -93 -11 -97 -8 -5 2 -8 42 -8 89 l0 84 27 0 c18 0 37 12 62
41 l36 40 163 -4 c101 -2 167 -8 174 -15z m-372 -1 c0 -15 -42 -41 -67 -41
-30 0 -30 24 0 38 28 13 67 15 67 3z m4260 -46 c0 -29 -28 -83 -48 -94 -33
-18 -33 -14 -2 39 17 28 30 55 30 60 0 6 5 10 10 10 6 0 10 -7 10 -15z m-2088
-219 l21 -78 -57 -56 -56 -57 -132 -16 c-98 -12 -135 -14 -141 -5 -29 41 34
204 107 275 43 42 47 44 138 55 l93 12 3 -26 c2 -14 12 -60 24 -104z m536 95
c15 -18 12 -99 -6 -143 -11 -27 -15 -28 -84 -30 -117 -4 -137 -2 -156 15 -9 8
-42 19 -72 24 -51 8 -57 12 -107 73 -29 36 -53 68 -53 72 0 11 66 14 270 10
165 -4 197 -7 208 -21z m-805 -16 c-34 -27 -87 -112 -98 -157 -10 -38 -25 -25
-25 20 0 20 -5 55 -10 77 -14 60 10 75 140 83 25 2 24 1 -7 -23z m2642 -8 c4
-18 5 -53 3 -77 l-3 -45 -60 -8 c-33 -4 -126 -19 -207 -32 -81 -14 -163 -25
-181 -25 l-34 0 -6 82 c-4 50 -3 84 3 88 12 8 301 40 390 43 36 2 70 4 77 5 7
1 15 -13 18 -31z m-1137 -2 c1 -1 -1 -36 -4 -78 l-7 -76 -76 -36 -76 -37 -170
4 c-93 2 -177 8 -185 13 -8 5 -32 10 -54 11 -21 1 -42 6 -47 11 -11 11 -14
172 -3 183 5 5 59 11 119 12 103 3 497 -2 503 -7z m-1782 -40 c62 -54 78 -86
95 -189 11 -70 10 -79 -4 -87 -8 -5 -21 -34 -28 -65 l-12 -55 -151 7 c-83 4
-161 11 -173 15 -22 8 -23 12 -23 149 0 104 4 155 17 193 9 29 18 54 20 57 2
2 43 7 91 11 48 3 94 7 102 7 9 1 38 -18 66 -43z m77 8 c4 -21 9 -51 12 -68 6
-27 5 -28 -6 -10 -6 11 -32 41 -57 68 l-46 47 46 0 c45 0 45 -1 51 -37z m599
-48 c20 -23 40 -33 90 -42 l63 -12 -70 5 c-80 6 -96 16 -132 89 -24 50 -24 50
-1 20 13 -16 35 -43 50 -60z m1198 43 c-19 -44 -39 -162 -21 -123 5 11 10 29
10 40 1 11 12 44 26 73 l24 52 225 0 c213 0 226 -1 236 -19 5 -11 10 -63 10
-117 l0 -97 -52 -56 c-29 -31 -64 -71 -78 -89 l-25 -33 -125 -8 c-69 -4 -158
-5 -198 -3 l-73 4 1 132 c1 72 6 166 12 209 9 64 13 77 29 77 17 0 17 -1 -1
-42z m-2225 23 c3 -6 8 -45 12 -88 5 -72 3 -84 -26 -152 -17 -40 -31 -79 -31
-87 0 -17 -34 -22 -217 -30 -124 -5 -153 -3 -154 8 -5 44 5 256 11 273 7 16 9
11 10 -20 0 -22 5 -47 10 -55 6 -10 7 13 3 67 l-6 82 104 4 c235 7 278 7 284
-2z m-535 -120 c42 -87 43 -92 43 -188 l0 -98 -187 -13 c-104 -7 -190 -11
-193 -8 -3 2 9 22 26 43 54 68 73 125 77 237 l3 101 -13 -105 c-8 -58 -19
-118 -25 -134 -13 -31 -63 -105 -72 -106 -16 0 -38 338 -23 353 4 3 77 6 163
6 l157 1 44 -89z m20 47 c6 -24 15 -52 20 -63 l9 -20 0 20 c0 11 -6 38 -14 60
-8 22 -15 41 -15 43 0 1 8 2 19 2 16 0 20 -11 26 -86 4 -47 5 -88 2 -90 -5 -6
-87 149 -87 165 0 6 7 11 15 11 8 0 18 -17 25 -42z m-455 2 c7 -32 -3 -120
-14 -120 -4 0 -6 28 -3 63 2 45 0 58 -7 47 -6 -8 -11 -36 -11 -61 l0 -46 -47
-8 c-55 -10 -229 -13 -237 -4 -3 3 -8 31 -12 62 -5 44 -4 58 7 61 48 15 176
33 241 35 l76 1 7 -30z m1422 -72 c-3 -8 -6 -5 -6 6 -1 11 2 17 5 13 3 -3 4
-12 1 -19z m2837 5 c4 -5 35 -12 69 -18 l62 -10 3 -60 c1 -33 -2 -67 -8 -75
-8 -13 -52 -15 -311 -13 -331 2 -319 -1 -319 64 l0 36 119 27 c187 44 367 66
385 49z m-2248 -53 c-3 -22 -9 -59 -12 -81 -5 -30 -3 -40 5 -35 7 5 11 -6 11
-33 0 -22 -3 -42 -8 -45 -4 -2 -82 -8 -172 -12 l-165 -7 -28 54 c-32 63 -31
64 68 74 67 7 71 8 130 66 59 58 61 59 119 59 l58 0 -6 -40z m142 31 c10 -6 9
-11 -4 -22 -10 -8 -30 -32 -46 -53 -32 -44 -36 -32 -12 37 16 47 33 57 62 38z
m-721 -48 c-3 -10 -5 -4 -5 12 0 17 2 24 5 18 2 -7 2 -21 0 -30z m1013 6 c138
-23 191 -36 202 -53 10 -15 10 -134 1 -139 -5 -3 -116 1 -248 8 -196 10 -248
15 -282 31 -25 11 -43 26 -43 35 0 16 45 85 83 127 20 21 27 22 92 17 38 -4
126 -15 195 -26z m-2486 -5 c9 -3 16 -15 16 -25 0 -18 -9 -19 -145 -19 -141 0
-145 1 -145 21 0 17 4 19 18 13 34 -15 128 -16 178 0 59 18 58 18 78 10z
m1029 -41 c-8 -65 -20 -93 -38 -93 -8 0 -15 2 -15 5 0 9 52 135 56 135 2 0 1
-21 -3 -47z m2080 -35 c20 -77 13 -87 -65 -99 -29 -5 -57 -15 -63 -22 -8 -11
-29 -10 -122 2 l-112 16 -7 52 c-3 28 -3 56 0 62 8 13 40 19 186 35 182 21
165 26 183 -46z m-2564 -35 c-1 -76 -3 -82 -9 -43 -7 41 -3 130 6 130 2 0 3
-39 3 -87z m3199 -28 c-14 -14 -108 -30 -108 -20 0 4 26 36 58 73 l57 65 3
-53 c2 -34 -1 -57 -10 -65z m-3694 28 c3 -21 6 -63 6 -95 l0 -56 -37 -6 c-41
-6 -189 -10 -265 -8 l-47 2 6 88 c3 48 8 89 10 92 5 5 148 16 249 18 l71 2 7
-37z m1606 -89 c0 -11 -21 -14 -92 -14 -51 0 -99 4 -106 8 -9 6 -11 21 -6 50
6 40 8 41 58 52 100 20 99 20 124 -34 12 -27 22 -55 22 -62z m-1990 7 c0 -78
4 -75 -92 -86 -64 -7 -61 -11 -72 87 l-5 47 47 6 c26 3 54 8 62 9 58 13 60 11
60 -63z m2517 22 c-7 -7 -57 8 -57 18 0 4 14 3 31 -3 16 -6 28 -12 26 -15z
m1806 -36 c-46 -50 -93 -144 -92 -184 0 -22 5 -14 23 33 29 78 58 125 102 163
33 29 40 31 116 31 l81 0 -5 -107 c-6 -114 -12 -143 -33 -143 -9 0 -11 19 -9
73 3 73 2 72 -17 -19 l-10 -52 -121 -7 c-106 -6 -123 -5 -133 9 -13 17 -38
204 -29 217 8 14 65 27 118 28 l49 1 -40 -43z m-3103 -17 c-41 -57 -86 -64
-184 -28 l-61 23 40 7 c37 7 167 23 208 27 17 1 17 -1 -3 -29z m1482 -45 c-1
-33 -7 -91 -13 -128 l-11 -69 -52 3 c-28 2 -83 -3 -122 -10 -40 -8 -83 -11
-98 -7 l-26 6 6 88 c11 145 16 165 44 173 14 4 81 7 150 6 l125 -2 -3 -60z
m-1476 -73 c-19 -55 -20 -91 -1 -42 16 43 20 26 4 -20 l-12 -32 -26 40 c-14
22 -36 54 -49 71 l-23 31 25 0 c28 0 85 44 88 68 1 10 3 -3 5 -26 2 -24 -3
-65 -11 -90z m1746 112 l106 -7 46 -62 c25 -34 61 -95 81 -136 l35 -74 -102
-3 c-127 -4 -360 7 -378 18 -11 7 -11 30 -1 125 15 146 21 159 69 152 21 -4
85 -9 144 -13z m-1953 -30 c66 -25 78 -33 117 -87 51 -68 74 -131 56 -149 -7
-7 -40 -16 -75 -21 -76 -11 -442 -20 -474 -12 -23 5 -23 7 -23 145 0 163 -15
148 150 153 147 5 166 3 249 -29z m628 20 c21 -4 22 -8 17 -62 -4 -39 -1 -71
10 -102 9 -25 16 -58 16 -73 l0 -29 -92 9 c-51 4 -139 7 -195 6 l-103 -1 0 96
c0 53 3 113 6 133 l6 36 157 -4 c86 -2 166 -6 178 -9z m665 -119 c-2 -71 -5
-131 -7 -133 -6 -7 -291 -31 -361 -32 -39 0 -99 3 -132 6 l-62 7 6 36 c3 20 8
74 12 120 l7 84 55 19 c37 12 73 17 110 15 30 -2 69 -1 85 3 17 5 89 7 160 6
l130 -1 -3 -130z m1806 119 c22 -4 23 -7 20 -102 l-3 -97 -90 -6 c-181 -13
-601 -31 -650 -27 l-49 3 -12 65 c-20 101 -18 129 9 140 48 21 322 37 537 33
118 -2 225 -6 238 -9z m-860 -10 c28 -19 28 -49 -2 -139 l-22 -70 -13 38 c-7
20 -37 71 -66 112 l-54 75 67 0 c45 0 75 -5 90 -16z m-1567 -109 c-8 -38 -9
-36 -10 31 -1 39 2 74 7 78 11 12 14 -64 3 -109z m-1122 43 l-1 -33 -7 30 -7
30 -7 -25 c-4 -14 -7 -42 -7 -62 0 -26 -5 -38 -18 -42 -38 -12 -171 -25 -259
-26 l-93 0 0 54 c0 62 -15 53 140 80 113 20 135 23 203 25 l57 1 -1 -32z
m-448 -76 c6 -45 -2 -69 -20 -58 -16 10 -15 109 2 104 6 -3 15 -23 18 -46z
m436 -9 c-3 -10 -5 -4 -5 12 0 17 2 24 5 18 2 -7 2 -21 0 -30z m2719 -100 c-9
-22 -26 -5 -26 24 0 14 6 44 13 67 l12 41 3 -59 c2 -32 1 -65 -2 -73z m-3147
26 c57 -12 57 -14 71 -147 11 -105 7 -116 -36 -107 -18 3 -85 6 -148 7 -135 0
-128 -6 -127 123 0 95 12 122 56 128 63 8 136 7 184 -4z m374 -15 c-13 -112
-26 -180 -42 -220 l-19 -49 -58 3 c-90 4 -143 21 -149 46 -2 11 -7 69 -10 128
l-6 107 133 3 c163 4 153 5 151 -18z m3821 -136 c-9 -197 -9 -198 -75 -198
-44 0 -50 2 -45 17 4 9 11 50 17 92 11 82 45 197 60 206 5 4 9 11 9 17 0 7 -5
7 -14 -1 -25 -21 -56 -109 -66 -188 -6 -43 -15 -93 -21 -110 l-11 -33 -104 0
c-57 0 -104 2 -104 5 0 2 11 21 25 41 14 20 25 51 25 68 0 17 -11 52 -25 78
-18 34 -25 63 -25 103 l0 55 181 0 180 0 -7 -152z m151 141 c57 -14 185 -26
185 -18 0 4 -21 11 -47 14 -80 10 -81 13 -8 12 l70 -2 -3 -145 c-3 -95 -9
-157 -18 -179 l-14 -34 -62 7 c-33 3 -99 6 -146 6 l-84 0 6 103 c13 209 17
236 34 240 28 8 45 7 87 -4z m-565 -21 c3 -69 -2 -343 -6 -347 -2 -3 -55 0
-117 7 -61 6 -151 15 -199 18 l-88 7 0 158 0 158 73 4 c197 9 337 7 337 -5z
m-497 -13 c36 -6 37 -7 36 -48 -1 -23 -4 -54 -8 -69 -6 -26 -7 -24 -48 35 -53
78 -61 97 -36 92 10 -2 35 -7 56 -10z m-1643 -24 l75 -6 -4 -100 c-2 -55 -5
-103 -8 -107 -8 -14 -319 -9 -331 5 -8 9 -17 160 -13 214 1 11 105 9 281 -6z
m824 -12 c15 -75 7 -115 -29 -159 -19 -23 -39 -48 -43 -55 -5 -10 -41 -11
-153 -7 l-147 5 -11 74 c-15 98 -14 143 2 144 6 0 62 6 122 13 61 8 142 14
181 15 l72 1 6 -31z m-1174 -5 c6 -6 13 -38 15 -70 3 -49 -1 -65 -20 -95 -27
-42 -32 -43 -275 -59 -85 -5 -172 -13 -192 -16 -21 -3 -52 -3 -69 1 -30 7 -31
7 -24 58 3 29 11 75 16 103 l10 51 85 6 c46 2 90 9 97 15 18 15 75 20 219 18
79 -1 131 -5 138 -12z m2003 -111 c17 -20 19 -29 11 -75 -9 -51 -10 -53 -44
-56 -19 -2 -39 -8 -44 -13 -16 -15 -112 -11 -126 6 -7 8 -19 15 -26 15 -7 0
-32 26 -55 58 -23 31 -55 71 -71 88 -20 21 -29 40 -26 55 l3 24 137 -4 c121
-3 139 -1 144 13 5 13 15 5 42 -36 19 -29 44 -63 55 -75z m-494 101 l54 -6 -7
-77 c-4 -42 -10 -94 -13 -115 l-6 -39 -121 7 c-67 3 -138 9 -158 12 l-38 7 0
52 c0 29 3 80 7 115 l6 62 111 -6 c61 -4 135 -9 165 -12z m-2156 0 c45 -8 46
-19 16 -131 -24 -91 -39 -115 -28 -46 4 26 8 59 8 73 -1 23 -2 22 -9 -5 -4
-16 -11 -51 -15 -77 l-6 -46 -77 5 c-42 3 -99 8 -127 12 l-50 6 3 35 c2 19 14
54 28 77 13 23 24 52 24 66 0 13 3 27 7 30 8 9 175 9 226 1z m1364 -10 c7 -20
-77 -103 -130 -129 -29 -14 -60 -31 -69 -37 -26 -19 -35 -2 -41 79 -6 73 -6
73 21 79 15 3 38 10 52 14 35 12 163 7 167 -6z m15 -130 l3 -47 -90 2 c-49 1
-92 4 -94 6 -2 3 16 13 40 24 24 10 62 37 84 60 36 38 40 40 47 22 4 -11 8
-41 10 -67z m1848 7 c-1 -25 -7 -57 -15 -71 -13 -23 -14 -18 -14 65 0 81 1 88
14 71 8 -11 15 -40 15 -65z m-900 -13 c28 -39 50 -75 50 -80 0 -4 -32 -8 -71
-8 -69 0 -71 1 -66 23 3 12 9 50 13 84 3 35 11 60 16 57 4 -3 31 -37 58 -76z
m-503 -65 c-3 -2 -17 -3 -31 -1 l-26 3 27 40 28 40 3 -39 c2 -21 1 -40 -1 -43z
m-2350 9 c6 -4 13 -16 15 -27 3 -19 -2 -20 -72 -19 -118 2 -194 16 -198 37 -3
15 8 17 120 17 68 0 128 -4 135 -8z m1223 -47 c0 -12 -16 -14 -97 -10 -75 3
-87 2 -53 -5 25 -5 68 -9 96 -9 l50 -1 4 -82 c2 -46 4 -103 4 -127 l1 -43
-204 -4 -204 -5 7 62 c3 34 6 95 6 135 0 66 2 74 19 74 18 0 18 -4 9 -37 -14
-51 -5 -162 16 -198 15 -26 16 -27 10 -5 -11 39 -16 159 -9 205 l6 43 87 9
c48 6 124 11 170 12 66 1 82 -2 82 -14z m894 9 c11 -4 16 -18 15 -43 l-1 -36
-14 40 -14 40 6 -35 c15 -102 16 -123 10 -174 l-7 -56 -125 0 c-91 0 -126 3
-129 13 -3 6 -6 62 -8 122 l-2 110 95 11 c119 14 154 16 174 8z m-791 -31 c-5
-16 -8 -57 -8 -93 0 -36 3 -77 8 -92 6 -23 4 -28 -11 -28 -16 0 -20 11 -26 77
-10 125 -8 151 12 156 31 8 32 7 25 -20z m477 25 c0 -2 -14 -30 -30 -62 -24
-48 -30 -70 -29 -120 l2 -61 7 65 c3 36 14 79 24 95 l17 30 -6 -35 c-3 -19 -8
-68 -12 -107 l-6 -73 -106 6 c-58 2 -152 7 -208 10 l-102 6 -12 36 c-15 46
-15 147 -1 185 l12 27 225 0 c124 0 225 -1 225 -2z m-1969 -24 c-38 -17 -82
-15 -89 4 -3 9 13 12 60 11 l63 -1 -34 -14z m689 12 c0 -2 -18 -15 -39 -29
-22 -15 -52 -47 -66 -72 -15 -25 -31 -45 -35 -45 -22 0 -40 113 -19 125 20 13
159 31 159 21z m246 -22 c10 -40 -3 -170 -22 -224 l-17 -48 -112 -7 c-131 -8
-191 -1 -205 25 -6 11 -13 39 -16 63 -6 39 -2 50 29 96 48 72 90 101 146 102
25 0 55 4 66 9 11 5 44 9 72 9 49 1 53 -1 59 -25z m1699 16 c3 -5 -2 -34 -10
-65 -10 -34 -15 -81 -13 -119 l3 -64 -130 -4 c-139 -5 -161 -3 -168 15 -2 7
-1 56 2 110 8 135 10 137 182 137 71 0 130 -4 134 -10z m-2330 -15 c39 -8 87
-15 108 -15 42 0 77 -28 77 -61 0 -11 11 -37 25 -57 17 -24 25 -50 25 -78 l0
-40 -62 -14 c-58 -12 -243 -14 -260 -3 -5 2 -8 67 -8 144 0 104 3 139 13 139
6 0 44 -7 82 -15z m-122 -127 c-3 -73 -6 -134 -7 -135 0 0 -58 1 -128 4 l-128
6 0 113 c0 111 1 114 23 115 12 0 38 6 57 13 19 8 70 14 112 15 l77 1 -6 -132z
m2780 112 c4 -4 -34 -10 -85 -13 -51 -4 -110 -12 -131 -18 -22 -6 -41 -9 -43
-6 -2 2 5 16 17 31 l22 28 106 -7 c58 -4 110 -10 114 -15z m221 -10 l58 0 -6
-37 c-4 -21 -21 -89 -38 -151 -22 -83 -36 -115 -51 -123 -14 -8 -59 -8 -161 0
-149 13 -198 22 -258 48 -38 16 -38 17 -37 72 0 31 4 76 7 101 7 44 8 45 57
57 27 7 90 16 140 19 49 4 99 11 110 15 11 5 43 7 70 4 28 -3 76 -5 109 -5z
m293 -1 c118 -10 156 -19 141 -35 -4 -3 -30 -1 -60 5 -62 13 -275 23 -238 11
14 -4 59 -9 100 -9 41 -1 102 -7 135 -14 l60 -13 3 -97 3 -97 -47 -43 -47 -44
-76 14 c-42 8 -96 20 -120 28 -25 8 -62 15 -83 15 -37 0 -38 1 -32 28 6 30 74
243 81 255 6 9 28 9 180 -4z m1268 3 c6 -4 11 -93 12 -222 l3 -215 -39 -19
c-36 -17 -49 -17 -152 -7 -70 7 -118 16 -128 25 -9 8 -36 16 -61 18 l-45 3 -3
45 c-2 25 -1 69 3 98 6 47 9 52 31 52 24 0 24 0 24 108 0 60 3 112 7 115 9 9
336 9 348 -1z m-610 -75 c-71 -70 -136 -175 -134 -217 0 -8 14 14 31 50 23 48
55 89 119 153 85 84 90 87 133 87 41 0 46 -3 52 -26 8 -32 -4 -162 -18 -189
-23 -43 -85 -109 -155 -166 l-74 -60 -97 11 c-53 5 -121 11 -150 13 l-53 2
-51 107 -51 108 19 36 c29 54 45 64 166 101 154 46 224 61 285 62 l53 1 -75
-73z m-1494 -27 c-8 -69 -9 -71 -10 -24 -1 52 10 127 16 109 2 -6 -1 -44 -6
-85z m1187 36 c-86 -25 -105 -38 -124 -81 -13 -29 -14 -28 -11 30 l2 60 70 6
c138 11 145 9 63 -15z m-2212 -188 c-24 -34 -53 -90 -60 -118 -4 -14 7 0 24
30 38 68 76 117 85 108 3 -3 -4 -23 -18 -45 -29 -45 -69 -134 -63 -140 2 -2
26 38 53 89 l50 93 134 3 c74 1 179 -3 234 -10 l100 -13 -2 -72 c-1 -41 -8
-85 -17 -102 -15 -28 -19 -29 -103 -37 -49 -4 -182 -2 -297 4 -252 14 -246 11
-246 127 0 48 -4 74 -10 70 -5 -3 -10 1 -10 9 0 12 16 16 78 19 42 1 79 4 81
5 2 1 -4 -8 -13 -20z m2095 -38 c7 -22 15 -40 18 -40 3 0 7 -18 8 -40 2 -38 1
-40 -27 -40 l-30 0 0 86 c0 91 11 102 31 34z m-2533 -74 l3 -99 -207 6 c-115
3 -211 10 -217 16 -12 12 20 151 37 157 15 5 290 22 341 20 l40 -1 3 -99z
m1382 83 c69 -6 131 -16 138 -22 10 -8 12 -24 7 -56 -11 -83 9 -77 -222 -73
-115 1 -227 5 -250 8 l-43 5 0 57 c0 31 3 68 7 81 l6 24 116 -7 c64 -3 172
-11 241 -17z m-2266 5 c13 -5 16 -23 16 -95 l0 -89 -80 0 -80 0 0 88 c0 49 3
92 7 95 8 9 116 9 137 1z m1160 -10 c3 -9 6 -51 6 -95 l0 -79 -115 0 -115 0 0
34 c0 18 3 61 6 95 l7 61 102 0 c85 0 104 -3 109 -16z m2821 -69 c-22 -77 -24
-80 -54 -83 l-31 -3 17 38 c16 36 84 135 89 130 1 -1 -8 -38 -21 -82z m-3555
-15 l0 -79 -32 -6 c-18 -3 -78 -5 -132 -3 l-100 3 -38 75 c-21 41 -38 78 -38
82 0 5 77 8 170 8 l170 0 0 -80z m2627 56 c48 -14 105 -27 126 -31 42 -7 44
-11 19 -41 -16 -20 -24 -20 -147 -15 l-130 6 -3 47 c-3 42 -1 47 20 51 13 2
24 5 25 6 1 0 42 -10 90 -23z m263 -1 c0 -28 -20 -41 -47 -30 -16 6 -14 10 12
31 17 13 31 24 33 24 1 0 2 -11 2 -25z m-803 -7 c-2 -7 -10 -37 -17 -65 -8
-29 -18 -53 -23 -53 -10 0 -3 102 8 120 9 14 38 12 32 -2z m193 -14 c93 -9
158 -20 162 -27 5 -7 7 -25 6 -42 l-3 -30 -189 -3 c-172 -2 -188 -1 -182 14 4
9 11 36 17 60 6 24 16 44 23 44 6 0 81 -7 166 -16z m-2583 -76 l23 -48 -30 0
-30 0 1 63 c0 34 3 55 6 47 3 -8 16 -36 30 -62z m3183 44 c0 -18 -26 -32 -62
-32 -36 0 -37 1 -26 20 9 14 24 20 50 20 21 0 38 -4 38 -8z m593 -37 c-14 -29
-22 -35 -47 -35 l-31 1 40 34 c51 44 59 44 38 0z m-430 5 c3 -11 1 -20 -4 -20
-5 0 -9 9 -9 20 0 11 2 20 4 20 2 0 6 -9 9 -20z m-68 -64 l140 -12 -3 -59 c-2
-53 -45 -207 -63 -229 -6 -7 -420 27 -477 39 -19 5 -22 10 -18 38 3 18 8 57
11 87 l6 55 75 44 c41 24 73 45 70 48 -3 3 -33 -12 -68 -33 -35 -20 -66 -39
-70 -41 -5 -2 -8 5 -8 17 0 11 8 23 18 26 9 3 33 14 52 25 38 21 36 21 335 -5z
m-473 -66 c-4 -49 -9 -60 -48 -102 -24 -26 -52 -63 -61 -84 l-18 -36 -252 4
c-139 2 -255 6 -258 9 -9 10 -8 80 2 140 5 33 19 69 34 87 23 29 28 31 94 31
39 0 129 -6 200 -14 72 -8 159 -14 195 -13 65 1 56 3 -77 14 -124 10 -83 25
60 22 l132 -3 -3 -55z m-2334 -50 c2 -76 -1 -108 -18 -158 -12 -34 -20 -68
-17 -75 2 -7 10 6 17 28 20 63 32 67 28 10 l-3 -50 -212 -3 -213 -2 0 52 c1
85 14 130 53 183 78 108 93 114 252 112 l110 -2 3 -95z m1547 92 c45 -6 50
-10 53 -35 3 -22 -9 -41 -63 -99 -36 -39 -73 -84 -82 -99 l-16 -27 -226 -4
c-124 -2 -230 0 -236 3 -5 4 -25 10 -43 14 -36 7 -37 12 -47 118 -5 53 -4 67
7 67 8 0 23 7 34 15 18 14 17 14 -9 5 -37 -13 -39 -13 -35 7 3 15 15 18 68 20
36 1 103 6 150 11 101 11 374 13 445 4z m173 -21 c-12 -15 -28 -37 -35 -47
-10 -17 -12 -14 -12 22 -1 48 3 54 42 54 l29 0 -24 -29z m-2583 10 c44 -6 151
-13 237 -17 l157 -6 6 -30 c9 -39 3 -43 -33 -24 -29 15 -187 47 -221 45 -9 0
27 -10 79 -21 52 -10 114 -28 138 -38 l43 -19 -3 -108 -3 -108 -145 3 c-80 2
-203 9 -275 15 l-130 12 -3 139 c-2 93 1 143 9 152 14 16 37 17 144 5z m515
-30 c-25 -21 -47 -38 -48 -36 -8 7 16 37 44 56 49 32 51 21 4 -20z m1125 20
c47 -6 50 -8 53 -36 2 -17 -4 -57 -13 -90 -10 -39 -12 -62 -5 -69 7 -7 10 2
11 24 1 26 3 29 6 11 3 -13 2 -39 -2 -57 l-6 -34 -307 0 c-171 0 -322 -4 -341
-10 -48 -13 -59 0 -64 73 l-3 62 -2 -66 c-3 -88 8 -97 87 -81 67 14 140 15
160 3 10 -6 -5 -11 -45 -15 -32 -3 -86 -11 -119 -17 -88 -15 -91 -12 -98 84
-4 45 -7 112 -7 149 l0 67 53 5 c123 14 517 12 642 -3z m2847 -4 c12 -19 9
-236 -3 -259 -11 -21 -14 -21 -313 -13 -165 4 -304 9 -308 12 -14 8 -9 258 5
272 17 18 607 7 619 -12z m110 -29 c-16 -24 -34 -52 -41 -63 -10 -17 -11 -12
-7 29 7 58 20 76 53 76 l24 0 -29 -42z m-4092 -28 c-22 -31 -40 -46 -40 -34 0
8 51 64 58 64 2 0 -6 -13 -18 -30z m1980 -45 c0 -13 -5 -27 -12 -31 -8 -5 -6
-11 7 -20 24 -18 13 -62 -18 -68 -40 -9 -137 -13 -137 -6 0 11 119 148 132
153 20 7 28 -2 28 -28z m57 -12 c-3 -10 -5 -2 -5 17 0 19 2 27 5 18 2 -10 2
-26 0 -35z m644 -35 c-1 -29 -7 -58 -12 -64 -13 -16 -79 -23 -79 -9 0 7 89
125 94 125 1 0 -1 -24 -3 -52z m614 -64 c-4 -30 -11 -44 -22 -44 -9 0 -13 6
-10 14 3 8 11 34 18 58 14 52 24 34 14 -28z m-1027 -51 l182 -6 0 -76 c0 -42
-4 -83 -9 -91 -8 -12 -45 -12 -283 -1 -150 7 -288 15 -305 18 -35 6 -44 25
-59 116 -7 37 -6 37 29 37 l35 0 -14 -37 c-7 -21 -13 -49 -13 -63 1 -28 0 -28
25 53 l17 57 107 0 c59 0 189 -3 288 -7z m702 -8 c12 -7 13 -145 2 -160 -4 -7
-84 -9 -223 -7 l-216 4 19 76 c11 43 25 83 31 91 10 11 45 13 195 8 100 -3
187 -9 192 -12z m-414 -12 c-3 -10 -10 -40 -17 -68 -19 -79 -29 -76 -29 8 0
76 0 77 26 77 19 0 24 -4 20 -17z m-824 -14 c10 -6 19 -27 24 -57 7 -50 20
-83 38 -94 14 -9 45 -108 39 -125 -4 -10 -38 -13 -149 -13 l-144 0 0 111 c0
60 5 130 11 154 l11 45 77 -7 c42 -3 84 -10 93 -14z m-542 6 c0 -10 -56 -32
-69 -27 -8 2 -11 0 -8 -5 4 -6 0 -19 -8 -29 -13 -17 -14 -16 -15 24 l0 42 50
0 c28 0 50 -2 50 -5z m235 -56 c20 -33 39 -58 42 -56 2 3 -9 27 -26 53 l-30
49 40 3 c23 2 43 1 46 -2 3 -2 0 -26 -7 -53 -6 -26 -12 -53 -12 -60 -1 -12
-138 106 -138 120 0 4 11 7 24 7 18 0 32 -14 61 -61z m1929 55 c19 -7 22 -84
4 -102 -13 -13 -257 -15 -313 -3 -26 6 -30 11 -27 34 2 16 7 39 12 53 9 24 10
24 159 24 82 0 156 -3 165 -6z m-1967 -74 c77 -66 81 -71 78 -107 -4 -73 -17
-132 -31 -144 -22 -18 -339 -26 -359 -9 -11 9 -15 33 -15 92 0 73 3 83 35 133
46 72 95 104 161 104 49 1 54 -2 131 -69z m2814 -50 c-2 -63 -4 -116 -6 -118
-1 -1 -69 -5 -151 -9 l-149 -6 -28 94 c-32 110 -33 129 -9 130 9 0 73 6 142
14 69 7 143 12 165 11 l40 -1 -4 -115z m-3511 101 c0 -5 -7 -14 -15 -21 -8 -7
-15 -19 -15 -27 0 -8 -4 -11 -10 -8 -16 10 -12 43 8 54 21 13 32 14 32 2z
m104 -13 c-19 -63 -95 -207 -123 -232 l-31 -30 0 35 c1 74 20 162 45 204 25
43 28 45 71 45 42 0 45 -1 38 -22z m2816 5 c14 -3 30 -8 35 -9 6 -2 35 -8 65
-14 103 -20 100 -18 100 -50 0 -16 -5 -40 -11 -53 -12 -27 17 -26 -269 -9
l-115 7 -3 59 c-4 86 -6 85 90 79 46 -2 94 -7 108 -10z m-2575 -37 c4 -25 3
-97 -1 -162 l-9 -117 -185 2 c-121 2 -187 6 -191 13 -4 6 14 32 39 57 26 25
53 64 61 86 7 22 29 68 48 103 l34 62 99 0 99 0 6 -44z m-1396 18 c11 -4 13
-26 8 -121 -4 -63 -9 -118 -12 -121 -3 -3 -33 0 -68 7 -34 8 -79 16 -99 18
-31 4 -38 9 -38 27 0 43 31 111 70 158 38 44 42 46 82 41 24 -2 49 -7 57 -9z
m4125 8 c2 -4 -12 -6 -32 -4 -56 5 -62 10 -15 11 23 1 44 -3 47 -7z m-3184
-26 c0 -11 -32 -15 -152 -19 -141 -4 -236 -20 -322 -53 -29 -11 -18 21 17 47
31 23 40 24 222 29 105 3 200 7 213 8 13 1 22 -4 22 -12z m-558 -12 c4 -3 8
-24 7 -47 0 -31 -2 -37 -8 -22 -6 15 -14 -5 -30 -77 -26 -113 -13 -106 -162
-88 -130 17 -129 16 -129 50 0 16 4 31 9 34 5 3 14 36 21 73 6 38 14 74 16 82
4 11 28 13 136 7 73 -4 136 -10 140 -12z m548 -29 c8 -10 10 -29 6 -58 -4 -23
-9 -62 -12 -87 -10 -91 -10 -90 -62 -90 -55 0 -367 27 -399 35 -21 5 -23 11
-23 63 0 32 6 65 13 74 19 25 108 51 247 72 14 2 68 4 121 5 75 1 99 -2 109
-14z m2614 -26 c77 -5 148 -15 158 -20 11 -6 18 -6 18 0 0 5 -6 12 -12 14 -8
4 -7 6 3 6 14 1 17 -13 18 -93 l2 -93 -43 -7 c-94 -14 -330 -19 -337 -7 -4 7
-2 53 5 104 7 51 13 95 14 100 0 9 8 9 174 -4z m-1134 -32 l115 -12 3 -68 3
-69 -88 6 c-48 4 -111 9 -140 12 l-51 5 -7 59 c-10 90 -20 86 165 67z m-2039
-83 c-6 -32 -16 -63 -23 -69 -8 -7 -9 -5 -4 10 4 11 12 47 18 80 6 33 13 55
15 48 2 -6 -1 -38 -6 -69z m2647 70 c20 -6 22 -12 22 -79 l0 -73 -72 -7 c-40
-3 -143 -2 -228 2 l-155 8 0 70 c0 65 1 69 25 76 31 9 377 11 408 3z m298 -9
c12 -31 -43 -151 -61 -133 -2 2 9 33 26 67 16 35 27 66 24 69 -3 3 -20 -27
-38 -66 l-32 -72 -79 0 -79 0 7 38 c3 20 6 54 6 75 l0 37 110 0 c88 0 112 -3
116 -15z m751 -2 l112 -6 12 -55 c17 -82 8 -86 -156 -78 -71 4 -158 9 -192 13
l-63 6 0 63 0 64 88 0 c48 0 137 -3 199 -7z m-4329 -108 c46 -8 141 -19 210
-25 122 -9 253 -32 281 -49 8 -6 15 -39 18 -95 l6 -86 -282 -2 c-154 -1 -293
-2 -308 -2 l-28 -1 -3 115 c-3 114 2 160 16 160 4 0 45 -7 90 -15z m4542 -62
c-21 -38 -47 -99 -56 -138 -19 -74 -35 -102 -53 -91 -15 9 -3 172 15 207 25
49 70 89 102 89 l30 0 -38 -67z m-1990 40 c83 -7 85 -9 57 -43 -21 -25 -41
-68 -72 -157 -3 -9 -26 -13 -70 -13 l-65 0 0 94 c0 52 -3 101 -6 110 -4 11 3
16 33 19 21 2 45 2 53 -1 8 -2 40 -6 70 -9z m-175 -123 l0 -105 -230 -12
c-126 -6 -244 -12 -261 -12 -30 -1 -31 1 -58 86 -29 94 -28 99 29 107 17 3
104 10 195 16 91 6 190 15 220 20 110 16 105 20 105 -100z m-1386 74 c8 -9 -1
-170 -10 -178 -2 -2 -102 -2 -221 1 l-218 6 0 87 c0 48 3 90 8 95 10 10 432 0
441 -11z m1939 -26 l87 -41 17 -85 c10 -47 15 -89 12 -93 -6 -10 -325 -10
-423 0 -79 7 -98 27 -62 65 13 13 20 29 17 34 -3 6 1 27 10 48 9 22 20 50 25
63 5 13 12 21 15 18 3 -3 -6 -31 -20 -63 -15 -31 -24 -59 -22 -61 6 -7 37 55
51 102 l12 40 79 6 c43 3 87 6 96 7 10 1 57 -17 106 -40z m502 -13 c0 -99 -30
-131 -151 -165 -40 -11 -77 -24 -83 -30 -5 -5 -31 -10 -58 -10 -53 0 -51 -5
-63 132 l-5 67 45 7 c25 3 52 13 60 20 8 9 36 14 72 14 32 0 65 5 73 10 8 5
36 10 63 10 l47 0 0 -55z m-429 29 c5 -3 9 -12 9 -20 0 -11 -6 -13 -22 -8 -42
13 -88 34 -88 40 0 8 87 -3 101 -12z m572 -95 c11 -64 15 -115 10 -120 -5 -5
-29 -12 -54 -15 -55 -8 -56 -6 -65 111 l-7 82 39 27 c21 14 43 26 49 26 6 0
18 -50 28 -111z m617 92 l85 -6 -61 -19 c-62 -18 -62 -18 -132 3 -46 14 -94
21 -139 20 l-68 -2 80 -8 c44 -4 100 -15 124 -23 63 -23 101 -20 186 14 96 38
115 39 115 3 0 -32 -35 -171 -45 -181 -4 -4 -100 -10 -213 -13 -114 -4 -268
-10 -342 -14 -110 -6 -137 -5 -146 6 -12 15 -36 148 -29 160 3 3 20 10 39 13
20 4 56 16 81 27 89 40 150 42 465 20z m-2797 -10 c5 -5 1 -23 -9 -42 -11 -21
-18 -62 -20 -109 l-3 -75 10 70 c12 87 31 145 24 73 -12 -117 -17 -139 -33
-145 -23 -9 -249 25 -299 45 -29 11 -41 22 -39 32 2 8 12 51 21 94 l17 79 161
-7 c89 -3 165 -10 170 -15z m1767 10 c-26 -15 -90 -24 -90 -13 0 10 30 18 80
20 19 1 21 -1 10 -7z m-1397 -33 c2 -7 1 -22 -4 -33 -4 -11 -8 -43 -8 -71 -1
-38 -5 -54 -17 -58 -9 -3 -76 -6 -150 -6 l-134 0 0 90 0 90 154 0 c114 0 155
-3 159 -12z m1677 -142 c0 -37 -19 -44 -130 -51 -110 -7 -118 3 -20 24 30 6
73 22 95 35 44 27 55 25 55 -8z m-2773 -48 c44 -48 84 -111 75 -120 -19 -19
-603 -81 -650 -69 -20 6 -30 17 -39 47 -15 50 -16 110 -3 135 20 36 27 19 23
-48 -3 -38 0 -79 5 -93 9 -20 11 -4 11 72 l1 98 168 3 c92 1 214 4 273 5 l105
2 31 -32z m66 12 c5 -4 7 -21 5 -38 l-3 -30 -39 45 -39 45 34 -7 c19 -4 38
-11 42 -15z m1761 -98 c5 -62 6 -115 3 -119 -7 -7 -355 14 -368 23 -8 4 -14
181 -6 185 5 3 323 26 342 25 18 -1 21 -11 29 -114z m-1502 86 c3 -22 11 -24
123 -35 66 -7 126 -15 133 -18 6 -2 12 -18 12 -35 0 -43 -31 -164 -39 -151
-18 28 -325 39 -408 15 -23 -6 -23 -6 -23 120 l0 126 99 0 c96 0 100 -1 103
-22z m1034 -22 c4 -11 18 -38 30 -58 13 -21 24 -49 24 -62 l0 -25 -197 1
c-109 0 -208 4 -220 9 -20 7 -23 16 -25 61 l-1 53 -7 -55 -7 -55 -1 66 c-1 36
3 70 9 76 7 7 79 10 199 11 185 0 190 -1 196 -22z m2355 -19 c4 -15 11 -84 15
-152 6 -120 6 -125 -13 -125 -18 0 -19 6 -16 108 2 59 0 127 -6 152 -7 36 -9
20 -8 -85 1 -72 -2 -140 -6 -151 -7 -21 -16 -22 -145 -28 -75 -4 -175 -7 -222
-9 l-85 -2 -3 122 c-4 145 -10 138 130 146 53 4 111 13 130 22 24 11 26 14 8
9 -14 -3 -77 -11 -141 -18 -64 -7 -121 -16 -128 -20 -7 -5 -11 -51 -12 -134
-1 -101 -3 -119 -10 -88 -5 22 -10 87 -12 145 l-2 106 115 8 c63 4 140 11 170
16 30 5 95 8 144 7 89 -1 90 -1 97 -29z m-2809 -63 c10 -48 15 -90 13 -94 -3
-4 -25 -11 -49 -14 -40 -6 -46 -11 -60 -48 -14 -34 -20 -39 -39 -34 -12 3 -55
6 -94 6 -85 0 -82 -4 -57 109 16 71 17 73 73 109 68 45 82 50 146 51 l50 1 17
-86z m1267 60 c4 -4 50 -222 51 -241 0 -9 -21 -13 -73 -13 -60 0 -77 4 -91 19
-10 11 -51 30 -91 42 l-74 23 5 41 c3 22 1 60 -5 84 -5 25 -8 48 -5 52 4 7
275 0 283 -7z m1945 -31 c12 -70 24 -218 19 -223 -2 -3 -87 -7 -189 -9 l-184
-3 0 136 0 136 174 0 174 0 6 -37z m-1510 11 c13 -5 16 -23 16 -110 l0 -104
-182 2 -183 3 -3 114 -3 114 169 -6 c93 -4 177 -9 186 -13z m484 -9 c7 -14 14
-45 17 -68 4 -41 3 -38 -16 36 -5 20 -14 37 -20 37 -6 0 -6 -6 -1 -17 6 -10
13 -36 16 -58 l7 -40 -203 -17 c-112 -9 -206 -14 -210 -12 -5 3 -8 38 -8 79
l0 74 58 4 c31 2 123 4 203 5 l146 2 11 -25z m-3015 -142 c-3 -43 -7 -79 -8
-81 -6 -7 -536 -3 -592 4 -63 7 -73 15 -73 57 0 26 2 27 51 27 71 0 345 28
487 49 64 10 122 19 129 20 8 1 10 -20 6 -76z m1377 -4 c130 -14 220 -30 220
-38 0 -5 -9 -16 -20 -26 -11 -10 -37 -44 -57 -76 l-38 -59 -177 0 c-115 0
-179 4 -183 11 -4 6 -4 55 0 110 l7 100 77 -6 c42 -3 119 -11 171 -16z m1670
-18 c0 -16 3 -43 6 -60 l7 -31 -102 0 -101 0 0 54 c0 64 -1 63 113 65 l77 1 0
-29z m-2696 9 c48 -6 97 -15 107 -21 47 -25 3 -31 -283 -44 l-128 -5 0 25 c0
27 10 31 103 45 76 11 102 11 201 0z m697 0 l36 -10 6 -77 c4 -49 2 -82 -5
-90 -15 -18 -297 -19 -303 0 -3 6 -6 48 -8 92 l-2 80 50 6 c84 10 188 9 226
-1z m1762 3 c3 -5 8 -32 12 -61 l7 -53 -94 3 -93 3 -3 47 -3 47 43 5 c24 3 54
7 68 10 45 6 59 6 63 -1z m-886 -40 c21 -10 39 -18 41 -19 4 -2 -20 -158 -29
-180 -6 -18 -21 -24 -76 -32 -152 -24 -157 -24 -191 6 l-32 27 19 65 c11 36
25 84 31 107 10 40 13 42 53 46 66 7 143 -2 184 -20z m-267 -10 c0 -13 -20
-86 -32 -115 -10 -26 -15 -28 -65 -28 -52 0 -53 1 -42 23 6 12 29 46 51 75 28
38 45 52 63 52 14 0 25 -3 25 -7z m-2225 -39 l40 -4 -3 -70 c-3 -55 -7 -70
-19 -70 -9 0 -13 6 -9 15 3 8 1 15 -3 15 -5 0 -11 -5 -13 -11 -6 -17 -122 -39
-205 -39 -84 0 -86 3 -81 105 l3 60 50 6 c49 6 160 3 240 -7z m3199 -29 c12
-7 36 -16 54 -20 32 -7 32 -7 32 -64 l0 -58 -37 -7 c-21 -3 -116 -6 -210 -6
l-173 0 0 24 c0 54 13 146 21 146 5 0 29 -16 55 -35 45 -35 47 -35 142 -34 53
0 115 4 137 9 27 6 0 7 -81 3 -130 -6 -158 1 -199 47 l-20 23 129 -8 c78 -4
138 -12 150 -20z m-2049 -4 l70 -8 -65 -2 c-91 -1 -200 10 -194 21 3 5 31 6
62 3 32 -4 89 -10 127 -14z m1451 -43 c-4 -35 -11 -79 -16 -98 -7 -31 -8 -27
-9 31 -1 78 7 129 21 129 7 0 8 -23 4 -62z m-2386 41 c11 -8 6 -9 -20 -4 -23
4 -30 3 -20 -3 8 -5 47 -15 85 -22 39 -7 75 -14 81 -15 13 -4 26 -57 16 -67
-6 -5 -229 -28 -278 -28 -11 0 -14 16 -14 75 l0 75 68 0 c37 0 74 -5 82 -11z
m2624 -9 c6 -6 6 -36 0 -77 l-9 -68 -113 -8 c-63 -5 -116 -7 -118 -4 -5 4 8
94 22 156 5 24 5 24 107 17 56 -4 106 -11 111 -16z m1661 -17 c-3 -21 -8 -49
-11 -63 -4 -17 -2 -22 5 -15 6 6 15 35 20 65 9 54 9 54 10 -36 l1 -91 -182 -6
c-99 -4 -225 -7 -278 -7 l-97 0 -7 53 c-13 112 -22 103 112 117 64 6 126 13
137 14 11 2 82 4 158 5 l138 1 -6 -37z m-3626 -38 c0 -11 -6 -31 -14 -45 -13
-23 -14 -21 -14 45 0 66 1 68 14 45 8 -14 14 -34 14 -45z m3845 59 c13 -5 16
-22 16 -80 0 -85 -3 -88 -101 -82 l-54 3 -6 75 c-3 41 -4 78 -1 83 4 8 124 10
146 1z m-4457 -10 c-3 -3 -12 -4 -19 -1 -8 3 -5 6 6 6 11 1 17 -2 13 -5z m50
-10 c-3 -3 -12 -4 -19 -1 -8 3 -5 6 6 6 11 1 17 -2 13 -5z m3035 -11 c24 -22
23 -65 -3 -89 -17 -16 -22 -16 -29 -4 -6 8 -10 36 -10 63 0 51 11 59 42 30z
m576 -65 c7 -45 9 -85 5 -89 -8 -6 -255 -29 -320 -29 -26 0 -33 5 -42 31 -6
18 -11 34 -11 37 0 5 128 -5 184 -14 28 -5 29 -4 11 7 -12 8 -67 15 -133 17
-84 3 -115 8 -119 18 -3 8 -9 14 -14 14 -4 0 -6 -7 -3 -15 4 -10 0 -15 -13
-15 -30 0 -43 20 -43 66 0 41 2 43 33 47 17 2 127 5 243 5 l211 2 11 -82z"/>
<path d="M2008 3820 c-4 -14 -7 -61 -7 -105 1 -79 1 -79 11 -31 11 58 7 176
-4 136z"/>
<path d="M2942 3027 c-12 -27 -21 -52 -19 -53 7 -7 48 77 45 90 -2 8 -13 -9
-26 -37z"/>
<path d="M3050 3080 c0 -3 9 -34 20 -68 11 -35 20 -74 20 -87 0 -13 5 -27 12
-31 14 -9 5 55 -18 123 -13 40 -34 79 -34 63z"/>
<path d="M1602 2175 c-6 -14 -7 -25 -2 -25 9 0 25 39 18 46 -3 2 -10 -7 -16
-21z"/>
<path d="M1643 1925 c0 -27 2 -38 4 -22 2 15 2 37 0 50 -2 12 -4 0 -4 -28z"/>
<path d="M2235 967 c-21 -51 -18 -59 6 -14 11 22 18 41 15 44 -3 4 -13 -10
-21 -30z"/>
<path d="M0 4400 c0 -5 14 -10 31 -10 17 0 28 4 24 10 -3 6 -17 10 -31 10 -13
0 -24 -4 -24 -10z"/>
<path d="M2193 93 c15 -2 39 -2 55 0 15 2 2 4 -28 4 -30 0 -43 -2 -27 -4z"/>
</g>
</svg>