<?xml version="1.0" standalone="no"?>
<!DOCTYPE svg PUBLIC "-//W3C//DTD SVG 20010904//EN"
 "http://www.w3.org/TR/2001/REC-SVG-20010904/DTD/svg10.dtd">
<svg version="1.0" xmlns="http://www.w3.org/2000/svg"
 width="512.000000pt" height="512.000000pt" viewBox="0 0 512.000000 512.000000"
 preserveAspectRatio="xMidYMid meet">
<metadata>
Created by potrace 1.16, written by Peter Selinger 2001-2019
</metadata>
<g transform="translate(0.000000,512.000000) scale(0.100000,-0.100000)"
fill="#000000" stroke="none">
<path d="M1707 4343 c-14 -13 -6 -49 22 -106 24 -50 25 -55 7 -38 -88 79 -89
80 -101 61 -9 -15 21 -76 62 -128 l38 -47 -40 33 c-74 60 -96 32 -37 -47 14
-19 21 -32 16 -28 -6 3 -16 2 -23 -2 -21 -13 -4 -46 56 -112 56 -59 56 -60 35
-75 -32 -22 -27 -39 23 -93 29 -31 43 -54 39 -64 -3 -8 3 -24 13 -35 10 -10
19 -25 21 -33 9 -52 118 -209 144 -209 6 0 27 -13 48 -30 21 -16 43 -30 50
-30 6 0 10 -6 8 -12 -6 -16 -58 -34 -164 -55 -96 -18 -102 -28 -54 -83 16 -19
29 -43 30 -53 0 -10 15 -24 38 -33 20 -9 45 -20 54 -25 25 -12 61 4 112 51 43
40 45 40 100 34 51 -6 56 -9 56 -31 0 -37 16 -59 68 -94 26 -18 64 -47 85 -66
25 -23 47 -33 69 -33 24 0 41 -10 75 -45 47 -50 63 -56 63 -24 0 16 4 19 20
14 16 -5 20 -2 20 18 0 28 -57 77 -110 96 -31 10 -86 59 -77 68 2 1 32 -11 67
-28 36 -17 79 -33 97 -36 18 -3 38 -12 44 -19 6 -8 24 -14 40 -14 15 0 31 -5
34 -11 4 -6 21 -9 39 -8 17 1 38 -1 46 -4 8 -3 34 -8 57 -11 45 -7 63 5 43 29
-18 21 -7 19 51 -11 57 -30 132 -43 144 -24 4 6 -2 21 -14 34 -31 32 -26 36
26 20 49 -15 133 -19 133 -6 0 15 -16 31 -40 40 -19 7 -13 10 40 15 61 7 95
21 85 37 -2 4 -37 11 -76 14 -128 13 -302 73 -419 145 -27 16 -95 42 -151 57
-122 31 -144 41 -184 84 l-30 33 28 -5 c15 -3 27 -1 27 5 0 26 -43 95 -66 105
-22 11 -24 16 -18 49 4 21 11 46 16 56 5 10 15 47 23 82 12 60 11 76 -20 257
-24 142 -36 193 -46 193 -10 0 -15 -15 -17 -47 -3 -40 -6 -48 -23 -48 -14 0
-19 -7 -19 -24 0 -14 -5 -28 -11 -32 -7 -4 -10 -27 -7 -60 4 -46 2 -55 -14
-60 -12 -4 -18 -15 -18 -38 0 -17 -5 -37 -10 -42 -6 -6 -17 -36 -25 -68 -23
-86 -31 -98 -45 -61 -64 173 -59 165 -171 280 -114 118 -184 213 -219 300 -23
56 -50 74 -50 33 0 -13 12 -48 26 -77 23 -51 23 -54 4 -36 -11 10 -46 52 -77
92 -31 40 -57 73 -58 73 -1 0 -5 -3 -8 -7z"/>
<path d="M1184 2566 c-10 -26 39 -90 100 -133 31 -21 55 -41 56 -44 0 -4 -21
-2 -46 3 -37 8 -49 7 -61 -4 -25 -25 27 -73 135 -125 88 -42 94 -46 74 -57
-19 -10 -20 -14 -10 -28 16 -21 94 -60 178 -89 36 -12 84 -33 107 -46 35 -20
42 -29 38 -46 -7 -26 30 -81 72 -108 14 -10 31 -33 37 -51 8 -23 29 -45 71
-74 33 -22 66 -39 72 -36 7 2 35 -10 62 -26 61 -38 118 -55 142 -42 22 12 28
4 23 -35 -2 -16 3 -63 12 -103 l16 -73 -72 -66 c-82 -76 -110 -120 -85 -130
14 -5 58 5 103 24 8 3 4 -19 -13 -62 -31 -82 -32 -120 -5 -135 23 -12 77 10
87 35 10 27 19 7 21 -46 4 -85 43 -125 76 -77 12 17 18 19 30 9 8 -7 20 -10
25 -7 6 4 19 -11 30 -32 22 -44 44 -57 71 -42 26 14 50 82 50 142 l0 51 30
-42 c36 -49 74 -71 92 -53 9 9 10 20 1 42 -6 17 -8 28 -3 25 14 -9 40 6 40 24
0 9 -23 51 -50 95 -28 43 -49 80 -47 82 2 2 29 -2 60 -8 44 -9 60 -9 69 0 16
16 -7 40 -109 114 l-83 59 0 87 c0 118 4 129 41 124 20 -3 51 6 93 27 35 17
71 31 81 31 35 0 145 98 145 129 0 14 11 25 33 35 51 21 90 73 84 112 -5 28
-2 34 24 44 16 7 29 16 29 20 0 4 19 12 43 19 60 18 198 91 205 109 3 8 0 23
-6 32 -9 15 -6 20 20 31 51 21 176 106 187 127 15 28 -9 46 -51 37 l-33 -7 47
41 c52 46 93 105 83 121 -11 17 -37 12 -163 -35 -158 -58 -322 -101 -331 -86
-7 11 -193 -61 -269 -105 -52 -30 -63 -47 -106 -158 -44 -110 -90 -168 -168
-207 -33 -17 -62 -28 -65 -25 -6 5 -5 29 3 106 5 47 2 60 -16 82 -20 26 -25
27 -110 27 -49 0 -92 -4 -94 -8 -3 -4 11 -22 30 -40 19 -19 34 -41 34 -50 -1
-26 -38 -101 -54 -107 -21 -8 -91 31 -136 76 -40 40 -87 123 -110 194 -22 69
-73 107 -220 165 -83 34 -135 49 -139 43 -8 -13 -143 22 -324 84 -170 59 -175
60 -183 40z"/>
<path d="M2350 611 c-25 -21 -62 -46 -81 -54 -24 -10 -47 -32 -68 -65 -18 -27
-44 -55 -57 -62 -13 -8 -31 -24 -39 -37 -9 -12 -22 -23 -31 -23 -25 0 -87 -36
-119 -70 -16 -17 -52 -48 -78 -67 -45 -33 -49 -34 -66 -19 -38 34 -72 21 -248
-96 l-168 -113 468 -3 469 -2 18 22 c21 25 26 68 8 68 -6 0 -3 9 8 21 30 33
173 110 249 134 55 17 70 26 70 41 0 10 10 33 23 51 55 77 17 79 -139 7 -52
-24 -99 -44 -103 -44 -4 0 -14 7 -23 15 -11 12 -14 27 -8 61 4 29 2 50 -5 59
-9 11 -7 26 8 67 32 88 34 103 13 127 -26 30 -50 26 -101 -18z"/>
<path d="M2690 25 l-45 -24 78 -1 c61 0 79 3 84 15 7 21 2 25 -38 30 -24 4
-48 -2 -79 -20z"/>
</g>
</svg>