<?xml version="1.0" standalone="no"?>
<!DOCTYPE svg PUBLIC "-//W3C//DTD SVG 20010904//EN"
 "http://www.w3.org/TR/2001/REC-SVG-20010904/DTD/svg10.dtd">
<svg version="1.0" xmlns="http://www.w3.org/2000/svg"
 width="512.000000pt" height="512.000000pt" viewBox="0 0 512.000000 512.000000"
 preserveAspectRatio="xMidYMid meet">
<metadata>
Created by potrace 1.16, written by Peter Selinger 2001-2019
</metadata>
<g transform="translate(0.000000,512.000000) scale(0.100000,-0.100000)"
fill="#000000" stroke="none">
<path d="M20 5093 c41 -53 223 -233 235 -233 7 0 18 7 25 15 7 8 20 15 29 15
17 0 324 -306 605 -602 156 -164 167 -178 155 -199 -13 -26 -23 -15 200 -214
145 -129 148 -131 172 -116 11 6 23 11 28 11 6 0 61 -47 122 -105 107 -100
140 -119 146 -85 2 8 -37 60 -87 115 -49 55 -90 107 -90 116 0 9 -52 85 -116
170 -466 616 -448 590 -435 611 7 11 10 32 6 49 -5 23 -3 29 10 29 9 0 29 10
44 21 16 12 33 19 38 16 4 -3 31 -38 58 -79 27 -40 81 -115 118 -165 66 -88
69 -95 58 -122 -12 -27 -8 -35 99 -181 102 -140 111 -155 100 -175 -15 -28
-19 -22 105 -175 55 -69 128 -161 161 -205 138 -184 299 -393 335 -437 36 -42
41 -45 64 -35 14 7 25 17 25 23 0 15 -309 632 -365 729 -26 44 -75 137 -111
207 -35 69 -68 129 -74 133 -6 3 -25 -3 -44 -14 -18 -12 -36 -21 -39 -21 -13
0 -88 142 -83 156 3 8 17 14 31 14 34 0 32 21 -5 82 -16 26 -30 50 -30 52 0 4
-110 197 -116 205 -9 10 -54 -20 -54 -35 0 -9 14 -41 31 -71 29 -51 33 -73 11
-59 -20 12 -134 189 -246 384 l-117 202 -251 0 c-245 0 -250 0 -237 -19 8 -11
42 -59 75 -108 34 -48 71 -96 83 -107 20 -18 21 -18 56 3 20 11 43 21 50 21
14 0 93 -91 117 -134 8 -16 7 -18 -5 -13 -9 3 -34 -8 -62 -29 -25 -20 -54 -34
-65 -32 -12 2 -90 89 -187 208 l-168 205 -213 3 -214 2 22 -27z"/>
<path d="M1282 5108 c2 -7 47 -99 100 -205 74 -146 102 -192 118 -195 16 -2
36 -38 91 -158 106 -236 198 -421 225 -457 24 -32 26 -33 55 -18 16 9 29 17
29 19 0 3 -23 69 -51 148 -56 158 -59 169 -43 175 6 2 22 -27 37 -64 14 -38
63 -165 108 -283 127 -334 161 -402 191 -372 9 9 -42 195 -97 357 -31 90 -33
101 -18 112 19 15 15 32 -56 243 -33 97 -50 134 -60 132 -67 -15 -66 -15 -78
20 -6 18 -48 137 -92 263 -43 127 -85 245 -92 263 l-13 32 -179 0 c-138 0
-178 -3 -175 -12z"/>
<path d="M1823 5098 c9 -44 108 -392 114 -401 3 -4 15 -12 28 -17 12 -5 25
-19 27 -32 3 -13 28 -124 56 -248 28 -124 65 -290 82 -370 18 -80 59 -251 92
-380 117 -464 119 -471 137 -468 25 5 20 167 -14 406 -26 188 -30 204 -50 212
-19 7 -24 20 -34 102 -17 142 -93 531 -107 548 -23 28 -66 279 -59 345 5 52
-9 194 -31 298 l-6 27 -120 0 c-120 0 -120 0 -115 -22z"/>
<path d="M2253 5088 c4 -18 9 -77 13 -130 6 -84 10 -99 30 -117 14 -13 25 -36
30 -67 5 -33 12 -48 25 -51 17 -5 19 -17 19 -143 0 -76 3 -152 6 -169 6 -28
10 -31 43 -31 20 0 42 5 49 12 15 15 17 344 2 353 -6 4 -10 78 -10 191 l0 184
-106 0 -106 0 5 -32z"/>
<path d="M2666 5074 c-3 -26 -6 -82 -6 -124 0 -105 -8 -140 -35 -150 -17 -6
-24 -19 -29 -56 -10 -79 -8 -103 14 -116 17 -11 20 -24 20 -91 0 -73 -1 -78
-25 -87 -24 -9 -25 -12 -25 -103 0 -51 4 -97 10 -103 5 -5 11 -63 12 -129 l3
-120 33 -3 c17 -2 32 -6 32 -10 0 -4 -7 -37 -16 -75 -16 -63 -16 -69 0 -86 14
-16 15 -28 6 -97 -19 -139 -70 -457 -82 -508 -10 -44 -9 -51 8 -63 35 -26 54
-16 81 45 45 100 169 490 218 686 47 189 47 189 27 205 -21 16 -21 16 33 202
30 102 60 221 68 263 14 75 14 79 -5 98 -13 13 -30 18 -51 16 -30 -3 -33 -7
-49 -68 -10 -36 -36 -146 -58 -245 -22 -98 -45 -184 -50 -189 -7 -7 -17 -7
-30 2 -30 19 -49 14 -56 -13 -3 -13 -13 -30 -21 -37 -16 -13 -15 2 8 182 16
124 14 120 58 120 l40 0 10 53 c5 28 31 174 56 322 25 149 48 282 51 298 l6
27 -125 0 -124 0 -7 -46z"/>
<path d="M3130 5115 c0 -2 -13 -56 -29 -119 -16 -62 -32 -134 -36 -159 -7 -43
-6 -46 23 -61 17 -9 33 -20 36 -25 3 -5 -14 -76 -39 -157 -25 -82 -44 -158
-43 -168 3 -19 52 -41 69 -30 4 2 17 28 28 57 11 28 50 129 86 222 103 263
165 426 165 436 0 5 -58 9 -130 9 -71 0 -130 -2 -130 -5z"/>
<path d="M3593 5108 c-5 -7 -24 -47 -43 -88 -18 -41 -69 -151 -112 -244 -72
-153 -78 -172 -67 -193 12 -22 6 -38 -59 -168 -40 -79 -72 -148 -72 -153 0 -5
11 -19 24 -31 l25 -23 -31 -54 c-32 -57 -32 -84 1 -84 24 0 64 53 201 273 71
114 114 173 127 175 12 2 33 29 58 75 110 207 240 447 262 485 l25 42 -165 0
c-120 0 -167 -3 -174 -12z"/>
<path d="M4046 5067 c-16 -28 -53 -88 -81 -132 -80 -123 -79 -118 -47 -149 49
-46 64 -37 141 78 39 58 75 107 80 111 6 3 20 1 31 -5 25 -14 34 1 -135 -245
-75 -110 -155 -230 -176 -267 -22 -38 -42 -68 -45 -68 -3 0 -24 16 -47 35 -65
56 -69 54 -177 -100 -195 -277 -258 -368 -375 -539 -72 -104 -136 -191 -143
-194 -7 -2 -26 8 -42 23 l-28 27 50 81 c50 82 88 151 88 162 0 3 -9 5 -19 5
-20 0 -40 -29 -106 -160 -21 -41 -48 -86 -61 -100 -22 -26 -151 -250 -240
-419 l-49 -93 25 -17 c13 -9 40 -29 58 -45 33 -29 34 -29 51 -10 30 32 141
164 241 287 82 101 98 117 118 112 19 -5 40 10 112 75 91 83 108 111 83 131
-12 10 -26 1 -81 -54 -62 -62 -92 -81 -92 -58 0 13 91 123 258 310 126 141
147 168 144 193 -3 33 10 52 94 141 57 61 75 67 113 40 28 -19 23 -23 114 96
41 53 52 62 72 57 17 -4 31 1 47 16 25 25 203 219 330 359 67 75 80 85 105 82
24 -3 35 4 78 59 67 83 68 85 54 109 -10 19 -5 27 37 70 l48 49 -299 0 -300 0
-29 -53z"/>
<path d="M4903 5094 c-38 -47 -706 -741 -800 -831 -62 -59 -102 -79 -104 -50
-1 6 -2 23 -2 36 -1 13 -8 26 -14 28 -13 5 -203 -180 -203 -197 0 -5 8 -10 18
-10 46 0 55 -48 15 -80 -58 -45 -352 -332 -751 -733 l-253 -254 23 -36 c13
-20 25 -36 28 -37 3 0 28 17 55 38 151 114 427 310 544 387 126 84 133 90 129
117 -4 28 3 35 126 119 255 175 391 270 429 300 36 29 37 32 31 78 -6 45 -4
49 25 70 17 12 31 28 31 35 0 18 166 160 192 164 12 2 58 34 102 70 63 51 81
71 81 92 0 20 27 49 130 140 72 62 175 155 230 204 55 50 112 101 128 112 27
22 27 23 27 143 l0 121 -98 0 c-93 0 -99 -1 -119 -26z"/>
<path d="M1173 5003 c-19 -7 -16 -23 17 -75 51 -82 83 -56 34 28 -29 49 -34
53 -51 47z"/>
<path d="M0 4628 l0 -203 111 -83 111 -82 28 17 28 16 118 -89 c102 -76 115
-89 94 -92 -26 -4 -50 -27 -50 -48 0 -10 118 -96 420 -304 65 -45 79 -60 80
-82 0 -22 14 -35 83 -79 45 -29 132 -86 194 -127 108 -71 111 -75 107 -105 -5
-30 -2 -34 58 -66 78 -42 536 -327 561 -350 18 -15 22 -13 68 39 26 30 49 61
49 68 0 18 -404 422 -423 422 -8 0 -20 -7 -27 -15 -7 -8 -18 -15 -24 -15 -6 0
-78 57 -161 126 -151 127 -365 300 -420 341 -27 19 -29 24 -17 42 17 29 15 38
-15 65 -16 13 -69 59 -119 102 -50 44 -130 115 -178 158 -80 73 -89 79 -114
70 -26 -9 -37 0 -207 159 -99 93 -219 202 -267 244 l-88 74 0 -203z"/>
<path d="M2222 4812 c-30 -20 4 -385 69 -742 18 -102 18 -102 42 -98 32 4 31
28 -33 651 -10 98 -20 180 -22 181 -10 10 -45 14 -56 8z"/>
<path d="M236 4770 c-20 -22 -36 -43 -36 -48 1 -22 312 -322 335 -322 7 0 18
7 25 15 7 8 19 15 27 15 8 0 60 -42 116 -92 91 -83 102 -91 105 -70 3 19 -34
62 -185 215 -205 210 -328 327 -342 327 -5 0 -25 -18 -45 -40z"/>
<path d="M4955 4513 c-83 -64 -213 -167 -290 -228 -157 -125 -264 -205 -377
-285 -43 -29 -78 -57 -78 -61 0 -4 5 -20 10 -35 10 -25 7 -30 -26 -57 -28 -23
-35 -35 -31 -54 4 -21 -4 -30 -49 -60 -54 -36 -70 -63 -36 -63 22 0 121 60
181 109 42 36 274 187 484 318 l88 55 -6 37 c-7 42 6 57 89 110 55 34 63 32
80 -21 17 -48 39 -57 84 -32 l37 22 3 181 c1 100 -1 181 -6 181 -4 0 -75 -53
-157 -117z"/>
<path d="M3250 4503 c-13 -36 -17 -60 -11 -66 14 -14 26 -2 50 48 26 56 27 75
2 75 -15 0 -25 -15 -41 -57z"/>
<path d="M3165 4378 c-7 -18 -64 -150 -125 -293 -151 -351 -163 -386 -144
-405 22 -22 41 -5 84 75 248 463 245 457 222 473 -28 19 -28 28 8 103 16 34
27 66 24 71 -3 4 -16 8 -30 8 -19 0 -28 -8 -39 -32z"/>
<path d="M2445 4316 l-40 -13 -3 -218 c-1 -131 -7 -223 -13 -231 -7 -8 -5 -47
5 -126 22 -160 56 -471 56 -511 0 -33 2 -35 42 -41 25 -4 44 -3 48 4 13 22
100 556 100 619 0 5 -13 14 -30 20 -22 7 -30 16 -30 33 0 33 -14 51 -36 46
-19 -3 -23 -52 -33 -408 -1 -37 -5 -50 -10 -40 -5 8 -12 122 -16 253 -8 257
-10 244 41 238 24 -3 33 29 40 153 6 112 5 131 -9 141 -8 6 -17 29 -19 51 -3
34 -6 39 -28 41 -14 1 -43 -4 -65 -11z"/>
<path d="M0 3961 c0 -170 3 -251 11 -251 11 0 184 -67 660 -256 157 -63 293
-114 302 -114 8 0 19 9 22 20 8 25 12 25 69 -1 51 -22 76 -20 76 8 -1 18 -22
31 -324 207 -56 32 -109 65 -118 73 -9 8 -19 37 -23 64 -4 27 -13 56 -20 63
-14 14 -552 375 -617 415 l-38 23 0 -251z"/>
<path d="M4905 4009 c-115 -67 -253 -144 -305 -173 -52 -29 -168 -94 -257
-144 -162 -91 -258 -142 -268 -142 -2 0 -11 16 -19 35 -9 21 -22 35 -32 35
-10 0 -69 -30 -133 -67 -64 -37 -140 -80 -168 -96 -44 -23 -53 -33 -53 -56 0
-23 -8 -31 -55 -54 -31 -15 -58 -35 -61 -45 -12 -37 -23 -46 -123 -98 -126
-65 -128 -66 -113 -99 11 -23 18 -26 51 -24 22 2 46 -3 54 -9 13 -11 44 -2
181 49 91 33 169 66 172 71 4 6 -1 15 -10 20 -9 5 -16 19 -16 31 0 20 20 30
158 84 86 33 171 64 187 68 17 3 161 62 321 130 160 69 304 129 319 135 25 10
27 13 19 48 -17 82 -13 95 38 122 41 22 49 23 72 11 23 -13 34 -10 133 34 59
27 112 52 116 55 4 4 6 50 5 103 l-3 96 -210 -120z"/>
<path d="M3558 3881 c-87 -83 -108 -119 -56 -93 37 17 173 144 173 160 0 35
-28 18 -117 -67z"/>
<path d="M1958 3808 c-5 -14 50 -118 62 -118 21 0 19 24 -6 75 -27 53 -48 69
-56 43z"/>
<path d="M4960 3676 c-111 -48 -146 -68 -148 -83 -2 -12 -17 -25 -39 -34 -20
-8 -98 -39 -172 -69 l-136 -56 -17 -49 c-9 -27 -25 -56 -36 -63 -11 -7 -83
-33 -159 -58 -119 -38 -140 -42 -149 -29 -16 22 -33 19 -142 -22 -102 -38
-122 -53 -122 -89 0 -13 -4 -25 -9 -28 -8 -5 -127 -39 -481 -137 -125 -34
-431 -128 -437 -133 -1 -1 4 -24 12 -51 8 -26 15 -76 15 -110 l0 -62 53 -7
c28 -3 69 -6 90 -6 30 0 37 -4 37 -20 0 -17 -8 -20 -92 -22 l-92 -3 -12 -41
-12 -41 122 -37 c129 -40 389 -121 521 -163 90 -28 115 -46 115 -80 0 -12 2
-23 4 -23 2 0 73 -20 156 -45 84 -25 212 -62 284 -81 72 -20 220 -63 328 -95
109 -32 206 -59 217 -59 22 0 26 14 30 90 1 30 6 58 10 62 4 4 81 -5 171 -21
91 -16 184 -31 208 -35 l42 -6 0 169 0 169 -87 8 c-49 5 -140 8 -203 9 l-115
0 -5 -75 c-4 -58 -8 -75 -20 -74 -27 2 -373 74 -381 80 -5 3 -9 14 -9 24 0 37
-12 50 -46 50 -24 0 -34 -5 -34 -15 0 -27 -25 -27 -137 -5 -162 33 -353 77
-359 83 -3 2 -8 21 -11 41 -4 28 -3 35 8 32 8 -3 118 -17 244 -32 177 -20 235
-31 250 -44 11 -10 41 -21 67 -24 45 -7 48 -6 54 20 7 26 8 26 68 20 114 -11
381 -30 426 -31 41 0 45 2 53 33 8 24 15 32 33 32 20 0 24 5 24 31 0 61 12 69
100 69 l80 0 0 68 0 68 -67 -3 c-38 -2 -118 -8 -179 -13 -166 -15 -162 -16
-166 23 l-3 32 -65 -2 c-36 0 -193 -10 -350 -22 -157 -11 -351 -23 -432 -27
-143 -7 -146 -7 -157 -32 -11 -23 -15 -24 -74 -19 -34 4 -120 9 -190 13 l-128
7 -15 29 -15 30 -97 -3 -97 -3 -3 26 c-4 31 -24 26 253 63 105 14 237 32 295
40 161 23 164 22 186 -26 l18 -42 76 7 c41 3 130 9 198 13 149 7 161 14 145
75 -16 61 -7 96 26 102 47 10 204 37 300 52 51 8 97 17 102 19 4 3 5 36 2 74
l-6 69 39 11 c22 6 47 11 56 11 35 0 48 12 48 45 0 18 6 37 13 43 10 8 77 24
247 60 l35 8 3 202 c1 111 -1 202 -5 201 -5 0 -73 -29 -153 -63z"/>
<path d="M1422 3688 c-7 -7 -12 -15 -12 -19 0 -12 192 -169 206 -169 25 0 15
15 -63 91 -110 106 -117 111 -131 97z"/>
<path d="M2103 3565 c-3 -9 8 -46 25 -83 16 -37 54 -123 83 -192 29 -69 54
-127 55 -128 5 -8 44 10 44 20 0 6 -16 52 -36 102 -100 253 -150 335 -171 281z"/>
<path d="M0 3287 l0 -254 187 -12 187 -13 31 34 c16 18 46 53 65 76 l35 43
128 -26 c204 -40 235 -34 244 47 l5 46 -82 31 c-133 52 -784 281 -797 281 -2
0 -3 -114 -3 -253z"/>
<path d="M4305 3423 c-153 -64 -185 -81 -179 -97 8 -22 13 -21 149 25 119 40
164 67 151 88 -11 17 -55 11 -121 -16z"/>
<path d="M1815 3421 c-3 -6 -2 -17 2 -25 19 -33 155 -176 169 -176 30 0 11 39
-59 120 -71 82 -98 102 -112 81z"/>
<path d="M1122 3283 c-20 -27 -21 -27 -64 -15 -85 26 -93 26 -108 -2 -21 -41
-5 -49 178 -95 45 -12 131 -40 190 -63 66 -25 126 -42 157 -44 28 -1 67 -5 88
-9 32 -7 37 -5 37 11 0 15 -51 44 -225 132 -124 61 -227 112 -229 112 -2 0
-13 -12 -24 -27z"/>
<path d="M4940 3099 c-74 -10 -155 -22 -180 -26 l-45 -8 -10 -65 -10 -65 -79
-12 c-47 -7 -83 -18 -89 -27 -7 -10 -35 -18 -72 -21 -87 -9 -105 -14 -105 -29
0 -21 19 -24 103 -14 55 7 82 6 92 -2 9 -8 37 -8 97 -1 45 5 122 13 171 17 48
3 90 10 93 15 3 5 22 9 43 9 45 0 75 19 70 46 -3 15 -15 20 -59 24 -47 4 -55
8 -58 27 -3 20 2 22 65 27 37 4 87 9 111 12 l42 5 0 55 c0 63 18 60 -180 33z"/>
<path d="M934 3045 c-8 -20 -21 -38 -29 -42 -8 -3 -54 3 -101 12 -47 9 -90 13
-94 8 -5 -4 -10 -24 -12 -43 l-3 -35 -190 0 -190 0 0 -50 0 -50 50 -3 c58 -4
74 -14 55 -37 -13 -15 -46 -15 -332 0 l-88 5 0 -205 0 -205 23 0 c12 1 73 7
136 14 93 10 117 16 125 31 6 10 20 27 31 39 11 11 27 34 35 50 11 24 23 32
48 34 l32 3 1 67 c1 37 1 87 0 112 l-1 45 21 -27 21 -28 211 0 c181 0 213 2
229 16 16 15 35 16 195 5 98 -6 213 -11 255 -11 95 0 104 -4 118 -44 l11 -33
127 -6 c70 -4 160 -7 200 -7 l72 0 0 33 c0 17 5 49 11 70 6 22 9 40 7 42 -2 2
-66 20 -142 40 -76 19 -149 44 -162 54 -13 10 -41 22 -61 26 -46 8 -500 131
-538 145 -43 16 -55 12 -71 -25z"/>
<path d="M3182 3068 c-28 -14 -25 -44 3 -40 27 5 49 27 41 41 -9 13 -14 13
-44 -1z"/>
<path d="M1601 3036 c-27 -33 -10 -45 174 -126 22 -9 64 -25 94 -35 45 -15 55
-15 62 -4 5 8 8 20 6 28 -2 13 -250 134 -300 146 -15 4 -28 1 -36 -9z"/>
<path d="M3318 3039 c-21 -12 -13 -39 12 -39 32 0 50 11 50 31 0 21 -33 26
-62 8z"/>
<path d="M2998 2954 c-65 -32 -108 -60 -108 -69 0 -24 21 -18 134 35 84 39
106 53 106 70 0 11 -6 20 -12 19 -7 0 -61 -25 -120 -55z"/>
<path d="M3448 2733 c-50 -4 -58 -7 -58 -24 0 -19 4 -20 98 -14 114 8 122 10
122 30 0 16 -20 17 -162 8z"/>
<path d="M1043 2674 c-7 -3 -13 -16 -13 -29 0 -12 6 -25 13 -27 18 -7 254 6
262 14 4 4 5 14 2 23 -5 12 -26 15 -109 15 -57 0 -112 2 -123 5 -11 2 -26 2
-32 -1z"/>
<path d="M774 2613 c-97 -4 -101 -4 -116 -31 -34 -57 -48 -63 -173 -72 -65 -5
-122 -13 -126 -17 -13 -13 -24 -189 -12 -196 6 -4 97 9 204 28 107 19 206 35
220 35 30 0 55 24 64 62 4 17 17 30 35 36 25 9 29 17 39 76 13 72 9 87 -17 84
-9 -1 -62 -4 -118 -5z"/>
<path d="M1463 2600 c-147 -6 -164 -9 -180 -28 -16 -17 -37 -22 -158 -32 -77
-7 -145 -14 -151 -15 -6 -2 -14 -27 -18 -56 -9 -69 -20 -86 -59 -98 -73 -22
-152 -54 -159 -64 -13 -20 -9 -85 5 -90 18 -7 702 166 722 183 8 7 15 18 15
26 0 18 26 30 80 38 93 14 315 59 322 65 4 4 5 23 1 44 l-6 37 -126 -2 c-69 0
-199 -4 -288 -8z"/>
<path d="M1840 2459 c-36 -9 -94 -25 -130 -34 -97 -26 -120 -40 -120 -74 0
-27 -5 -31 -62 -50 -67 -21 -171 -51 -358 -100 -63 -17 -164 -44 -225 -61
-130 -35 -149 -36 -174 -11 -16 16 -26 18 -58 10 -33 -7 -40 -6 -55 12 -10 12
-18 32 -18 45 0 21 -5 24 -36 24 -32 0 -447 -65 -484 -76 -9 -2 -20 -19 -25
-37 -9 -27 -16 -33 -52 -41 l-43 -9 0 -158 0 -157 197 50 c109 28 204 56 211
63 16 15 6 42 -19 48 -10 3 -19 14 -19 24 0 16 26 24 192 61 106 24 202 43
214 42 33 0 54 -22 68 -70 8 -26 20 -46 30 -48 9 -2 55 11 102 29 60 23 89 39
96 55 8 18 50 37 197 89 389 140 351 124 351 155 0 15 6 32 13 37 6 5 62 27
122 48 152 52 187 71 176 93 -5 9 -13 26 -17 38 -9 21 -9 21 -74 3z"/>
<path d="M2876 2383 c-14 -29 -15 -38 -4 -44 7 -5 58 -40 113 -78 246 -173
265 -185 276 -174 6 6 8 16 4 22 -8 15 -112 81 -126 81 -17 0 -4 25 14 28 10
2 83 -31 163 -73 82 -44 152 -74 160 -71 9 3 43 -5 77 -19 34 -13 76 -24 92
-23 17 0 45 -7 62 -16 l32 -16 -14 -40 c-8 -22 -12 -47 -9 -55 3 -7 72 -42
152 -76 163 -68 369 -158 450 -196 57 -27 63 -42 36 -94 -8 -17 -13 -37 -10
-44 2 -7 45 -35 96 -61 85 -46 90 -51 85 -76 -6 -24 0 -29 87 -78 139 -78 175
-102 192 -131 8 -14 64 -54 128 -91 62 -36 130 -75 151 -88 l37 -22 0 180 0
180 -51 22 c-137 58 -556 264 -573 280 -27 27 -5 54 38 47 17 -3 40 -7 51 -9
13 -2 23 5 30 20 5 12 16 22 23 22 22 0 52 -20 52 -35 0 -19 12 -25 237 -115
l193 -78 0 161 0 162 -125 34 c-69 19 -127 32 -129 30 -2 -2 -11 -26 -21 -53
-18 -47 -60 -86 -93 -86 -7 0 -133 45 -280 101 -322 122 -344 128 -349 112 -8
-24 -54 -13 -251 63 -140 53 -219 90 -274 126 -43 29 -78 56 -78 60 0 5 -15
15 -32 23 -85 38 -566 225 -579 225 -9 0 -23 -17 -33 -37z"/>
<path d="M0 2314 l0 -47 42 7 c55 9 58 12 58 52 l0 34 -50 0 -50 0 0 -46z"/>
<path d="M1900 2253 c-52 -29 -130 -71 -172 -93 -65 -33 -77 -44 -80 -67 -4
-36 -47 -59 -79 -42 -18 9 -43 1 -173 -59 -83 -39 -196 -90 -251 -115 -100
-44 -120 -62 -95 -92 10 -12 18 -11 53 1 41 15 42 14 62 -11 31 -38 63 -32
197 40 123 66 142 73 153 55 3 -5 12 -10 19 -10 23 0 504 317 533 351 9 11 3
22 -30 55 l-42 41 -95 -54z"/>
<path d="M2793 2258 l-42 -43 46 -65 c133 -186 223 -322 223 -335 0 -38 -32
-7 -94 90 -66 102 -95 127 -109 91 -7 -18 165 -320 185 -324 25 -5 40 22 28
52 -17 46 12 29 55 -31 58 -82 68 -104 57 -115 -6 -6 -21 6 -41 36 -31 45 -53
57 -66 35 -4 -5 15 -47 42 -92 39 -65 54 -83 75 -85 22 -3 36 -23 102 -149 42
-79 76 -147 76 -149 0 -12 255 -511 300 -589 29 -49 62 -106 74 -127 l20 -36
-23 -20 -24 -19 31 -54 c17 -30 37 -65 44 -79 7 -14 42 -76 77 -138 l63 -112
230 0 c180 0 228 3 222 13 -4 6 -23 31 -41 55 -31 38 -38 42 -66 37 -32 -6
-34 -3 -152 161 -66 92 -143 199 -172 237 l-52 70 19 25 c21 26 21 29 -23 85
-26 34 -28 41 -17 62 15 28 20 18 -100 180 -132 177 -400 565 -400 579 0 6 9
22 20 36 11 14 20 30 20 37 0 25 20 22 53 -7 39 -34 49 -36 68 -14 11 13 -4
32 -107 135 -101 101 -117 122 -108 137 6 9 18 18 26 20 15 3 136 -95 328
-268 69 -62 140 -126 158 -142 28 -25 32 -34 27 -59 -5 -22 -2 -36 11 -50 20
-22 36 -24 63 -7 16 10 25 7 58 -22 87 -76 153 -140 153 -148 0 -18 40 -44 60
-39 15 4 40 -11 93 -55 39 -33 74 -64 75 -69 2 -5 -1 -23 -7 -39 -9 -28 -7
-32 36 -67 104 -86 158 -142 148 -152 -8 -8 -58 26 -165 111 -171 133 -300
240 -372 305 -39 36 -52 42 -76 37 -26 -5 -38 2 -103 65 -70 67 -72 71 -56 89
9 10 17 23 17 29 0 16 -116 103 -139 103 -38 0 -33 -22 14 -70 46 -46 56 -78
27 -88 -7 -2 -43 25 -80 60 -81 78 -110 98 -128 91 -23 -9 -17 -21 57 -106 88
-101 93 -105 122 -100 19 4 37 -10 90 -67 37 -40 67 -79 67 -87 0 -8 -10 -23
-22 -33 l-22 -17 35 -41 c149 -176 184 -211 215 -211 38 -1 78 -39 64 -61 -8
-12 -13 -13 -30 -2 -26 16 -40 15 -62 -4 -17 -16 -16 -19 18 -67 35 -48 36
-51 18 -63 -34 -23 -45 -36 -42 -45 2 -5 48 -63 103 -129 l100 -121 47 5 c44
5 49 3 79 -32 19 -22 42 -37 56 -38 25 -1 78 -58 173 -184 l45 -59 200 -1 200
0 -343 341 c-315 313 -346 341 -371 336 -24 -5 -36 3 -92 61 -95 98 -95 98
-73 123 17 19 16 21 -61 99 -57 58 -76 83 -71 96 6 16 8 16 29 -3 12 -11 56
-48 97 -84 41 -35 166 -147 278 -248 l203 -183 44 7 c39 5 45 4 45 -12 0 -26
26 -62 119 -163 87 -95 112 -107 144 -72 32 35 32 35 -131 174 -81 70 -93 85
-99 120 -3 23 -18 55 -34 73 -16 18 -29 35 -29 39 0 23 56 -16 257 -179 125
-102 231 -185 235 -185 5 0 8 97 8 215 l0 214 -52 34 c-29 19 -152 99 -273
179 -121 79 -300 197 -397 261 -121 79 -182 125 -192 146 -9 16 -21 31 -28 33
-10 4 -10 12 -3 34 11 29 17 31 75 23 21 -3 26 1 28 22 2 14 -3 31 -10 36 -25
21 -285 153 -300 153 -8 0 -27 -9 -41 -21 -31 -23 -31 -23 -147 54 -107 71
-121 86 -109 109 5 10 7 23 4 28 -3 5 -65 46 -137 90 l-130 81 -29 -27 c-16
-15 -31 -36 -35 -46 -9 -28 -30 -22 -92 27 -112 88 -411 315 -414 315 -2 0
-22 -19 -45 -42z"/>
<path d="M1753 2272 c-34 -16 -43 -39 -19 -48 16 -6 76 22 76 35 0 22 -26 28
-57 13z"/>
<path d="M2639 2146 l-46 -22 87 -307 c48 -169 95 -322 104 -341 9 -19 16 -38
16 -43 0 -5 15 -65 34 -134 18 -68 48 -180 66 -249 20 -77 42 -135 55 -150 13
-15 29 -58 40 -108 19 -86 32 -107 59 -96 45 17 24 128 -101 527 -46 147 -81
272 -78 277 4 6 15 10 26 10 25 0 66 -85 135 -280 26 -74 71 -202 101 -284 29
-82 53 -157 53 -168 0 -12 -12 -24 -35 -34 -19 -8 -35 -20 -35 -27 0 -12 144
-428 213 -617 l35 -95 166 -3 c91 -1 166 0 166 2 0 3 -45 100 -100 216 -55
117 -100 218 -100 225 0 7 7 18 15 25 8 7 15 20 15 28 0 20 -129 302 -147 322
-8 8 -28 20 -46 26 -29 10 -41 30 -154 270 -91 192 -122 266 -118 284 4 16 -4
48 -19 82 -21 47 -30 57 -53 60 -25 3 -34 18 -115 197 -48 107 -92 199 -98
205 -5 5 -10 19 -10 31 0 11 -19 59 -43 106 l-42 86 -46 -21z"/>
<path d="M2124 2120 c-29 -31 -44 -40 -71 -40 -18 0 -33 5 -33 10 0 24 -34 4
-131 -76 -57 -47 -184 -142 -282 -211 -98 -69 -184 -135 -193 -147 -13 -19
-13 -22 1 -32 8 -6 15 -14 15 -17 0 -5 -286 -219 -465 -348 -49 -36 -139 -96
-200 -134 -60 -37 -113 -73 -117 -79 -8 -12 29 -56 48 -56 26 0 19 -26 -15
-57 -34 -30 -35 -32 -19 -49 19 -20 14 -22 109 58 30 27 59 48 64 48 5 0 16
-7 26 -16 23 -21 24 -21 215 161 86 82 164 148 175 149 12 1 111 90 237 213
283 276 535 503 546 492 5 -5 -12 -32 -40 -65 -27 -31 -89 -105 -137 -163 -49
-58 -122 -146 -164 -196 -91 -109 -103 -130 -81 -151 22 -22 47 -7 111 70 28
34 95 114 148 177 102 122 291 370 327 431 l23 37 -30 16 c-30 15 -30 15 -67
-25z"/>
<path d="M2200 2053 c-52 -102 -110 -186 -317 -464 -104 -140 -217 -293 -252
-341 -72 -100 -139 -178 -152 -178 -25 0 -4 35 89 150 23 28 42 58 42 66 0 8
-16 22 -35 30 -34 14 -35 17 -29 49 7 40 -2 44 -39 15 -17 -14 -34 -18 -54
-14 -24 4 -36 -3 -93 -60 -50 -52 -62 -68 -52 -78 24 -24 10 -47 -83 -135 -96
-90 -111 -117 -80 -143 27 -22 16 -45 -70 -142 -47 -53 -85 -102 -85 -108 0
-7 10 -20 22 -30 l22 -18 -115 -128 c-118 -133 -368 -417 -427 -485 l-34 -39
214 0 213 0 65 96 c35 53 72 99 81 103 17 6 109 130 122 163 3 9 -1 24 -8 35
-11 14 -16 16 -26 6 -15 -15 -29 -17 -29 -5 0 5 54 85 121 178 66 93 153 217
192 276 43 64 79 107 89 108 9 0 26 13 38 30 12 16 28 30 35 30 8 0 17 9 20
20 9 28 123 180 135 180 13 0 -22 -68 -89 -175 -85 -135 -94 -155 -80 -171 7
-8 24 -14 38 -12 22 3 39 26 108 148 131 232 130 230 161 236 25 5 37 24 107
167 43 89 97 194 119 234 45 80 73 97 62 38 -11 -59 19 -44 44 23 19 50 130
381 130 387 0 1 -12 5 -27 8 -16 3 -35 8 -43 11 -11 4 -25 -13 -50 -61z"/>
<path d="M2477 2093 l-29 -5 7 -242 c6 -178 4 -248 -4 -264 l-12 -22 -40 22
c-39 22 -40 25 -36 65 6 55 -11 80 -41 64 -12 -6 -22 -14 -22 -18 0 -16 -112
-608 -116 -615 -3 -4 -14 -8 -24 -8 -13 0 -22 -9 -26 -27 -4 -16 -17 -68 -30
-118 -16 -60 -20 -93 -14 -99 20 -20 43 9 63 77 11 37 24 67 30 67 11 0 5 -61
-24 -210 -29 -152 -37 -178 -58 -185 -24 -7 -39 -48 -47 -131 -6 -54 -4 -65
10 -70 10 -4 16 -18 16 -38 0 -30 -24 -233 -35 -303 l-6 -33 131 0 130 0 1
148 c2 194 4 202 54 216 l40 12 3 88 c3 88 3 89 -28 115 l-31 26 21 175 c47
406 55 464 65 462 6 -1 12 -39 15 -84 4 -70 8 -83 23 -86 11 -2 27 5 37 16 11
11 24 22 31 24 7 2 15 54 21 143 l11 139 -27 21 c-25 20 -26 24 -26 130 0 132
10 275 20 275 3 0 11 -53 17 -117 8 -83 15 -120 26 -128 12 -8 20 -55 32 -181
9 -93 29 -290 45 -439 16 -148 32 -313 36 -365 3 -52 11 -103 15 -112 16 -31
46 -40 84 -28 42 14 41 12 19 191 l-17 129 23 18 c23 18 23 20 11 98 -29 186
-93 490 -105 499 -8 6 -26 76 -41 155 -25 132 -87 410 -116 518 -12 44 -14 45
-82 35z"/>
<path d="M2366 2052 c-12 -20 -47 -179 -49 -225 -2 -41 1 -52 13 -52 20 0 59
149 59 228 1 51 -9 72 -23 49z"/>
<path d="M795 1846 c-147 -49 -218 -71 -257 -80 -15 -3 -29 -15 -33 -26 -5
-15 -55 -35 -243 -96 -130 -42 -243 -78 -249 -80 -10 -2 -13 -50 -13 -194 0
-104 4 -190 8 -190 5 0 83 35 173 78 90 43 184 87 209 97 56 24 80 43 80 66 0
32 44 69 120 102 72 31 75 34 78 69 2 20 8 41 15 46 7 5 53 26 102 47 187 76
205 86 205 111 0 12 -4 26 -10 29 -5 3 -10 19 -10 36 0 39 -15 38 -175 -15z"/>
<path d="M1340 1725 c-50 -27 -72 -30 -98 -14 -14 8 -78 -19 -337 -147 -176
-86 -402 -197 -502 -246 -101 -49 -183 -93 -183 -97 0 -5 -19 -20 -43 -34 -58
-34 -84 -64 -69 -79 9 -9 23 -7 57 10 25 12 59 22 75 22 19 0 143 55 317 140
157 77 292 140 300 140 7 0 13 -6 13 -13 0 -8 8 -21 18 -30 18 -16 24 -14 103
34 46 29 99 61 117 72 18 10 37 28 42 38 6 10 56 46 113 79 130 78 172 112
164 134 -9 22 -34 20 -87 -9z"/>
<path d="M2081 1508 c-16 -35 -39 -91 -52 -125 -13 -35 -30 -63 -36 -63 -14 0
-68 -104 -178 -345 -98 -211 -119 -249 -139 -253 -11 -2 -32 12 -55 37 -21 23
-44 41 -53 41 -8 0 -28 -15 -45 -32 -34 -36 -223 -325 -223 -341 0 -6 7 -18
15 -27 14 -15 11 -22 -26 -76 -43 -61 -199 -312 -199 -320 0 -2 75 -4 168 -4
l167 0 34 88 c65 165 100 235 115 229 20 -8 28 3 81 123 53 118 60 129 76 113
9 -9 -2 -49 -43 -160 -31 -81 -59 -158 -62 -170 -10 -32 16 -42 77 -28 l52 11
38 95 c66 161 68 171 52 189 -20 22 -19 34 11 112 23 62 28 68 54 68 15 0 32
6 38 13 5 6 31 91 57 187 26 96 53 193 60 215 74 234 137 456 132 469 -4 11
-19 16 -47 16 -41 0 -42 -1 -69 -62z"/>
<path d="M3150 1328 c1 -27 96 -193 113 -196 35 -7 28 29 -23 118 -37 64 -57
90 -71 90 -10 0 -19 -6 -19 -12z"/>
<path d="M775 1244 c-33 -20 -134 -79 -225 -132 -91 -52 -173 -100 -182 -106
-12 -7 -24 -6 -42 3 -26 15 -30 13 -248 -110 l-78 -44 0 -148 c0 -138 1 -147
18 -138 9 6 69 44 132 85 116 75 140 81 140 35 0 -34 33 -19 165 75 l130 92 0
50 c1 27 5 57 9 68 6 12 5 26 -2 37 -21 33 -13 47 45 80 148 85 238 147 238
165 0 31 -36 27 -100 -12z"/>
<path d="M3316 1032 c-2 -4 7 -34 21 -65 18 -40 32 -57 44 -57 26 0 24 21 -6
80 -23 46 -46 62 -59 42z"/>
<path d="M2443 958 c-13 -21 -31 -291 -21 -310 5 -10 17 -18 28 -18 40 0 47
22 54 174 4 80 4 150 1 156 -9 14 -52 12 -62 -2z"/>
<path d="M934 879 c-64 -57 -69 -59 -74 -38 -3 12 -10 24 -16 26 -6 2 -86 -55
-178 -126 -143 -112 -170 -129 -185 -119 -21 13 -15 17 -290 -192 l-191 -144
0 -143 0 -143 89 0 89 0 198 207 c272 285 462 479 572 586 73 72 92 96 92 119
0 44 -29 35 -106 -33z"/>
<path d="M2863 844 c-3 -9 6 -79 21 -157 24 -124 25 -143 12 -152 -13 -10 -12
-27 8 -143 13 -72 28 -137 33 -144 5 -7 20 -66 33 -130 l24 -118 97 0 98 0 -9
28 c-5 15 -22 67 -39 116 -34 100 -38 126 -17 126 8 0 17 4 21 10 8 13 -31
160 -47 176 -16 16 -58 7 -58 -12 0 -8 -4 -14 -10 -14 -5 0 -10 7 -10 17 0 13
-50 220 -91 376 -8 30 -14 37 -35 37 -13 0 -27 -7 -31 -16z"/>
<path d="M2531 833 c-5 -10 -12 -201 -16 -425 l-7 -408 116 0 c135 0 123 -18
106 151 -13 122 -17 139 -35 139 -19 0 -25 23 -25 92 0 37 -5 65 -14 73 -10
11 -16 61 -21 190 -6 133 -11 180 -22 191 -20 20 -70 18 -82 -3z"/>
<path d="M2020 668 c-15 -38 -60 -208 -60 -227 0 -25 27 -35 39 -13 12 25 61
215 61 240 0 29 -28 29 -40 0z"/>
<path d="M1810 231 c-11 -22 -33 -47 -48 -55 -16 -8 -36 -33 -47 -55 -11 -26
-25 -41 -36 -41 -12 0 -24 -13 -34 -36 -8 -20 -15 -38 -15 -40 0 -2 47 -4 104
-4 l103 0 33 114 c17 62 30 122 28 132 -2 13 -13 20 -35 22 -28 3 -34 -1 -53
-37z"/>
<path d="M5027 263 c-16 -16 -4 -41 38 -81 25 -23 47 -42 50 -42 3 0 5 15 5
34 0 28 -7 41 -37 65 -39 33 -46 35 -56 24z"/>
</g>
</svg>