<?xml version="1.0" standalone="no"?>
<!DOCTYPE svg PUBLIC "-//W3C//DTD SVG 20010904//EN"
 "http://www.w3.org/TR/2001/REC-SVG-20010904/DTD/svg10.dtd">
<svg version="1.0" xmlns="http://www.w3.org/2000/svg"
 width="512.000000pt" height="512.000000pt" viewBox="0 0 512.000000 512.000000"
 preserveAspectRatio="xMidYMid meet">
<metadata>
Created by potrace 1.16, written by Peter Selinger 2001-2019
</metadata>
<g transform="translate(0.000000,512.000000) scale(0.100000,-0.100000)"
fill="#000000" stroke="none">
<path d="M3207 4734 c-4 -5 9 -13 30 -19 37 -11 36 -11 -27 -11 -68 0 -145
-30 -182 -71 -28 -31 -48 -89 -48 -140 l0 -48 -21 43 c-21 41 -39 55 -39 29 0
-7 6 -37 14 -67 7 -30 16 -67 20 -82 10 -43 23 -34 41 30 27 92 37 112 59 127
30 22 42 18 15 -4 -20 -16 -23 -28 -24 -98 -2 -84 -24 -213 -36 -213 -3 0 -12
14 -19 30 -13 31 -29 40 -31 18 -1 -7 -2 -24 -2 -38 -2 -19 -11 -28 -42 -39
-22 -7 -59 -14 -83 -15 -34 -1 -40 -3 -26 -11 10 -5 35 -26 57 -45 40 -35 40
-35 35 -9 -5 26 -4 26 35 17 22 -5 74 -22 115 -38 42 -16 78 -27 81 -25 2 3
-1 40 -7 82 -7 42 -10 78 -8 80 4 5 46 -146 46 -167 0 -25 15 3 35 63 10 31
25 63 33 70 9 7 45 12 90 12 59 0 77 3 86 17 8 14 5 22 -14 43 -13 13 -22 26
-19 28 2 2 15 9 29 15 l25 12 -27 -5 c-32 -6 -38 10 -8 20 11 3 20 12 20 20 0
8 9 17 20 20 26 8 25 16 -10 72 -17 26 -28 53 -26 60 3 7 -5 15 -19 19 -38 9
-47 -3 -26 -34 20 -29 36 -132 21 -132 -6 0 -10 17 -10 39 0 39 -23 72 -66 97
-19 11 -18 12 4 36 28 31 28 56 -3 102 -18 27 -21 36 -10 36 18 0 19 12 3 28
-16 16 -3 15 32 -3 17 -9 30 -11 30 -5 0 17 -39 50 -59 50 -10 0 -31 3 -47 6
-16 3 -33 2 -37 -2z m-86 -304 c14 -8 19 -21 19 -48 l-1 -37 -24 50 c-14 28
-24 59 -24 70 2 17 2 17 6 -3 2 -12 13 -27 24 -32z"/>
<path d="M3660 4231 c0 -20 -6 -21 -92 -22 -76 -1 -87 -3 -58 -10 49 -13 310
-16 395 -5 l70 9 -85 18 c-47 9 -118 20 -157 24 -69 6 -73 6 -73 -14z"/>
<path d="M1390 4190 c138 -10 1128 -10 1250 0 52 3 -231 7 -630 7 -399 0 -678
-4 -620 -7z"/>
<path d="M2155 4133 c-38 -2 -155 -8 -260 -12 l-190 -8 241 -1 c132 -1 294 -5
360 -8 110 -5 121 -4 144 15 l25 21 -125 -2 c-69 -1 -156 -3 -195 -5z"/>
<path d="M2655 4119 c-37 -6 -187 -71 -244 -106 -2 -2 -1 -6 2 -10 4 -3 54 6
112 20 58 15 113 27 122 27 19 -1 -162 -122 -206 -138 -14 -6 -78 -20 -141
-32 -191 -35 -203 -44 -305 -229 -27 -50 -51 -89 -53 -87 -7 7 28 136 51 188
40 89 118 136 272 163 99 17 121 31 131 84 7 33 7 34 -22 27 -68 -17 -311
-150 -362 -199 -43 -42 -129 -219 -187 -387 -26 -74 -64 -166 -85 -205 -44
-81 -70 -162 -70 -217 0 -22 -7 -52 -15 -68 -14 -27 -14 -30 5 -40 17 -9 21
-8 26 7 13 42 25 65 31 60 3 -4 -3 -24 -14 -46 -22 -44 -15 -61 23 -61 12 0
24 -7 28 -15 7 -18 56 -20 79 -2 11 8 17 31 19 80 3 56 5 64 16 50 6 -9 12
-34 12 -55 0 -60 17 -44 25 22 7 56 5 63 -24 107 -44 66 -46 80 -16 158 31 84
48 111 125 206 67 82 127 192 156 284 16 49 20 55 22 33 3 -28 4 -28 76 -28
116 0 172 15 301 80 73 37 141 64 173 69 47 7 92 32 92 52 0 15 -117 42 -185
42 l-70 0 52 18 c28 9 75 22 105 28 57 12 129 48 135 68 5 15 -60 49 -107 55
-19 3 -57 2 -85 -3z"/>
<path d="M2054 4049 c123 -5 221 -5 240 0 20 6 -50 9 -209 9 l-240 -1 209 -8z"/>
<path d="M3195 4040 c-8 -26 1 -40 26 -40 18 0 19 2 4 30 -18 35 -22 36 -30
10z"/>
<path d="M2896 4008 c-9 -47 -51 -109 -93 -138 l-35 -24 28 -23 c33 -26 19
-30 -33 -8 -51 21 -78 19 -140 -12 l-55 -28 7 -70 c13 -135 70 -337 127 -450
11 -22 80 -98 153 -170 128 -125 134 -132 154 -199 12 -37 21 -76 22 -85 0 -9
3 -11 5 -5 7 16 -32 283 -52 358 -23 89 -66 169 -145 268 -38 49 -67 93 -64
99 4 5 -8 35 -26 67 -38 67 -33 63 53 -45 149 -184 180 -244 213 -405 26 -126
54 -233 59 -227 4 4 -5 75 -19 154 l-6 40 19 -24 20 -24 -6 72 c-4 56 -1 80
14 112 16 36 16 49 7 117 -6 42 -10 79 -7 81 8 8 65 -23 79 -43 25 -34 19
-142 -11 -216 -14 -34 -27 -86 -30 -114 -5 -49 -4 -47 24 36 17 49 50 121 75
160 24 40 56 99 70 131 15 32 39 75 55 95 15 21 34 51 41 67 l13 30 14 -30 c7
-16 29 -66 49 -110 40 -90 82 -155 99 -155 16 0 60 91 48 99 -5 3 -22 35 -37
70 -15 36 -44 90 -64 120 -65 96 -77 126 -50 123 8 -1 -35 117 -60 166 -11 20
-34 51 -52 67 l-32 30 22 -32 c48 -70 65 -124 65 -209 0 -92 -14 -125 -67
-152 -55 -30 -87 -67 -87 -104 0 -18 -11 -62 -25 -98 l-24 -65 0 57 c-1 74
-25 102 -132 158 -44 23 -79 44 -76 46 2 2 36 -9 76 -26 104 -44 130 -28 111
69 -24 129 -87 236 -208 354 l-79 79 -7 -34z m-179 -410 c46 -62 56 -78 49
-78 -5 0 -73 89 -90 118 -18 30 5 7 41 -40z"/>
<path d="M3224 3865 c21 -146 17 -279 -11 -353 -15 -37 21 4 39 46 25 56 26
169 3 256 -20 76 -39 107 -31 51z"/>
<path d="M3872 3818 c-14 -14 -16 -62 -2 -87 5 -10 23 -24 40 -31 20 -8 29
-18 26 -27 -10 -25 5 -93 20 -93 18 0 18 -3 -7 -53 -52 -103 -131 -208 -202
-266 -40 -32 -90 -77 -111 -100 -22 -22 -43 -38 -48 -35 -4 3 -8 3 -8 0 0 -3
20 -17 44 -31 l45 -26 72 43 c75 45 128 107 201 238 17 30 46 74 65 97 19 24
33 51 31 61 -2 11 4 27 11 36 8 10 15 35 16 56 1 44 14 63 56 80 22 9 29 19
27 34 -3 18 -9 20 -49 18 -26 -2 -49 0 -52 5 -3 4 15 6 39 4 56 -4 58 12 4 57
-46 38 -61 40 -91 7 l-24 -24 -17 22 c-15 19 -19 20 -28 7 -9 -13 -12 -13 -21
3 -12 20 -21 21 -37 5z"/>
<path d="M4100 3654 c-30 -13 -33 -17 -18 -25 22 -12 58 5 58 26 0 8 -1 15 -2
15 -2 -1 -19 -8 -38 -16z"/>
<path d="M2170 3651 c0 -11 124 -122 233 -210 116 -92 68 -32 -82 105 -114
104 -151 130 -151 105z"/>
<path d="M3861 3490 c-25 -17 -69 -38 -98 -46 -71 -21 -110 -55 -144 -129 -30
-61 -36 -99 -20 -124 6 -9 15 6 30 51 29 87 42 103 114 139 34 18 74 40 89 50
36 26 43 24 23 -8 -16 -25 -16 -26 -1 -12 10 9 18 22 20 30 1 8 10 29 19 47
10 17 16 32 15 32 -2 0 -23 -14 -47 -30z"/>
<path d="M3384 3492 c-20 -14 -44 -57 -44 -80 0 -16 31 -56 102 -128 55 -57
105 -104 110 -104 4 0 8 16 8 36 0 28 -9 46 -44 85 -24 26 -61 82 -82 123 -23
44 -44 72 -50 68z"/>
<path d="M2670 3217 c0 -3 10 -30 21 -61 12 -31 19 -59 16 -63 -4 -3 -18 2
-33 11 -41 28 -43 7 -1 -26 43 -35 48 -52 11 -38 -31 12 -81 13 -88 2 -2 -4
16 -14 40 -21 25 -8 88 -35 139 -60 86 -44 92 -45 84 -24 -8 23 -7 22 29 -7
21 -16 56 -53 77 -81 22 -29 41 -47 42 -42 6 17 -36 117 -69 168 -17 26 -66
75 -107 109 -41 34 -95 78 -118 100 -24 21 -43 36 -43 33z"/>
<path d="M1626 3000 c-7 -46 1 -72 16 -47 7 14 3 75 -6 85 -2 1 -6 -16 -10
-38z"/>
<path d="M2560 2964 c-32 -28 -90 -119 -90 -143 0 -8 23 19 51 59 l51 73 59
-7 c62 -6 158 -41 211 -76 23 -15 17 -6 -19 28 -56 54 -138 92 -198 92 -22 0
-44 -9 -65 -26z"/>
<path d="M2712 2793 c-49 -18 -68 -29 -59 -35 8 -4 70 -14 138 -23 68 -9 136
-20 151 -25 l28 -9 -15 30 c-20 38 -84 80 -132 85 -25 2 -63 -6 -111 -23z"/>
<path d="M2615 2699 c21 -40 68 -119 106 -176 l69 -103 -53 23 c-29 13 -72 36
-96 51 -65 41 -40 13 43 -48 68 -50 77 -62 130 -162 100 -189 135 -224 311
-312 107 -53 142 -81 187 -151 37 -58 36 -76 -1 -24 -34 47 -107 97 -214 146
-43 20 -132 68 -198 107 -67 40 -123 70 -125 68 -7 -7 65 -121 99 -157 49 -52
138 -106 244 -148 65 -25 109 -50 132 -73 19 -19 32 -27 28 -18 -5 14 0 17 23
15 36 -2 37 -10 5 -35 -39 -31 -47 -67 -51 -212 -2 -121 -2 -127 6 -54 16 152
35 197 123 297 l60 68 -99 97 c-80 78 -106 111 -133 170 -19 39 -39 72 -43 72
-13 0 -38 -64 -38 -95 0 -14 -7 -28 -15 -31 -22 -9 -98 47 -122 91 -18 33
-113 335 -113 359 0 11 143 -109 241 -202 65 -61 95 -99 114 -140 15 -31 33
-71 42 -89 34 -70 194 -202 229 -189 21 8 17 44 -10 90 -13 23 -31 66 -41 96
-35 108 -159 322 -241 415 l-26 30 18 -30 c10 -16 39 -66 66 -109 26 -44 46
-81 44 -83 -2 -2 -39 18 -82 46 -44 27 -135 84 -204 126 -132 82 -207 136
-280 204 -39 36 -29 31 70 -32 63 -41 176 -114 250 -164 74 -49 142 -93 149
-98 28 -16 -29 53 -136 167 -60 63 -123 131 -141 151 -18 20 -36 37 -40 37
-25 0 -231 30 -247 36 -11 4 -33 16 -48 27 l-28 19 36 -73z m66 -6 c13 -16 12
-17 -3 -4 -10 7 -18 15 -18 17 0 8 8 3 21 -13z"/>
<path d="M2586 2348 c44 -46 84 -101 84 -115 0 -4 -41 -55 -91 -113 -167 -193
-203 -245 -213 -315 l-6 -40 14 30 c8 17 42 62 76 100 34 39 87 105 117 148
31 43 57 76 59 74 2 -2 -16 -46 -40 -98 -24 -52 -76 -173 -116 -269 -40 -96
-81 -192 -91 -212 -21 -41 -44 -62 -36 -32 3 11 8 44 12 74 5 53 5 54 -8 25
-25 -52 -62 -76 -184 -119 -151 -54 -230 -101 -368 -216 -192 -161 -205 -167
-285 -115 -67 43 -86 44 -95 5 -8 -37 -18 -38 -39 -5 -9 14 -21 23 -26 20 -16
-10 -12 -168 5 -214 13 -38 13 -47 0 -78 -8 -19 -15 -50 -15 -67 0 -30 61
-220 74 -234 12 -11 26 21 26 58 0 20 14 59 30 89 23 41 27 57 19 68 -9 10 -5
13 23 13 28 0 37 6 53 33 10 17 24 36 32 40 7 4 13 16 13 27 0 42 125 112 330
185 58 21 161 62 230 92 69 31 174 72 233 93 59 21 117 46 129 56 18 16 70
117 99 192 8 20 7 21 -11 12 -11 -6 -32 -9 -47 -8 -16 1 -35 -2 -42 -6 -11 -7
-11 -4 -1 15 20 36 99 116 170 172 72 56 190 167 190 179 0 4 -21 36 -46 70
-62 85 -86 135 -119 248 -15 52 -32 101 -38 108 -11 14 -120 72 -134 72 -4 0
11 -19 33 -42z m-286 -945 c-1 -43 -41 -70 -271 -184 -171 -85 -389 -215 -439
-261 -17 -16 -24 -18 -33 -8 -9 9 -5 17 18 36 55 46 287 186 399 241 122 61
228 127 265 167 28 30 61 35 61 9z m-800 -358 l25 -30 -27 24 c-16 14 -28 29
-28 34 0 6 1 8 3 6 1 -2 13 -17 27 -34z m56 -153 c-4 -3 -14 2 -24 12 -16 18
-16 18 6 6 13 -6 21 -14 18 -18z"/>
<path d="M620 1877 c0 -2 30 -25 68 -50 l67 -47 220 10 c121 5 382 14 580 20
500 15 649 22 633 31 -20 11 -1568 47 -1568 36z"/>
<path d="M3437 1718 c-100 -126 -129 -250 -92 -406 18 -77 51 -143 148 -304
82 -135 124 -225 157 -335 24 -81 37 -89 84 -52 21 16 26 17 26 5 0 -8 -4 -18
-10 -21 -14 -9 -12 -22 4 -28 8 -3 31 5 50 18 37 25 50 20 19 -7 -40 -34 -61
-39 -93 -23 -51 27 -70 13 -70 -50 0 -60 7 -67 73 -79 56 -10 221 21 294 55
34 17 85 52 113 79 97 95 83 143 -26 85 -62 -33 -101 -32 -190 8 -65 28 -74
35 -74 59 0 33 -15 44 -28 22 -8 -15 -14 -11 -37 26 -24 37 -164 374 -271 652
-37 95 -45 166 -31 276 5 39 4 62 -2 62 -5 0 -25 -19 -44 -42z m53 -443 c74
-129 157 -297 131 -267 -27 32 -155 255 -190 333 -36 81 -49 128 -20 74 11
-22 47 -85 79 -140z"/>
<path d="M3526 1665 c-3 -9 -5 -38 -5 -63 2 -46 2 -46 9 13 7 64 6 76 -4 50z"/>
<path d="M1710 1613 c-36 -26 -110 -78 -165 -117 -281 -199 -641 -470 -695
-524 -73 -72 697 485 883 639 74 62 62 62 -23 2z"/>
<path d="M1296 757 c-14 -113 33 -257 85 -257 40 0 38 12 -44 223 l-34 89 -7
-55z"/>
<path d="M4188 566 c-63 -69 -138 -112 -255 -146 -143 -42 -217 -71 -201 -81
8 -5 -8 -9 -39 -9 -28 0 -55 -4 -58 -10 -4 -7 72 -10 222 -9 237 2 243 16 8
19 l-120 2 62 13 c34 7 70 18 80 23 10 6 48 18 83 27 127 33 241 116 269 195
14 41 4 36 -51 -24z"/>
</g>
</svg>