<?xml version="1.0" standalone="no"?>
<!DOCTYPE svg PUBLIC "-//W3C//DTD SVG 20010904//EN"
 "http://www.w3.org/TR/2001/REC-SVG-20010904/DTD/svg10.dtd">
<svg version="1.0" xmlns="http://www.w3.org/2000/svg"
 width="512.000000pt" height="512.000000pt" viewBox="0 0 512.000000 512.000000"
 preserveAspectRatio="xMidYMid meet">
<metadata>
Created by potrace 1.16, written by Peter Selinger 2001-2019
</metadata>
<g transform="translate(0.000000,512.000000) scale(0.100000,-0.100000)"
fill="#000000" stroke="none">
<path d="M2661 3804 c-12 -25 -21 -51 -21 -57 0 -5 -8 -3 -18 6 -22 20 -32 13
-32 -23 0 -31 34 -80 56 -80 8 0 20 11 26 25 6 14 14 25 18 25 4 0 13 12 19
28 13 31 2 113 -16 119 -6 2 -21 -17 -32 -43z"/>
<path d="M2306 3655 c-9 -47 0 -73 39 -115 23 -25 37 -55 49 -104 9 -38 15
-70 13 -72 -2 -2 -18 19 -37 47 -58 90 -145 108 -101 20 16 -30 37 -50 76 -72
30 -17 55 -35 55 -40 0 -6 -8 -5 -19 1 -29 15 -41 12 -50 -12 -8 -22 -9 -21
-25 10 -18 35 -51 53 -94 52 -15 -1 -40 2 -56 6 -27 6 -29 5 -22 -17 5 -13 10
-36 13 -51 3 -15 14 -30 24 -33 11 -4 26 -22 34 -41 8 -19 18 -34 24 -34 10 0
121 -220 121 -240 0 -7 -24 10 -53 37 -45 40 -52 51 -43 65 14 23 -25 65 -68
73 -17 3 -48 13 -68 22 -28 12 -41 13 -51 4 -11 -8 -28 -4 -73 18 -73 37 -134
50 -134 29 0 -16 40 -55 83 -82 l29 -18 -23 -24 c-18 -19 -20 -26 -9 -39 7 -8
21 -15 32 -15 11 0 26 -7 34 -15 10 -10 24 -13 41 -9 20 5 30 1 47 -20 19 -25
24 -26 61 -18 22 5 48 13 58 17 13 6 28 -3 57 -34 42 -44 73 -96 68 -112 -2
-5 -38 13 -81 41 -45 29 -83 47 -92 43 -14 -5 -14 -7 0 -23 15 -17 14 -18 -29
-22 -37 -2 -47 0 -52 14 -7 24 -62 68 -85 68 -28 0 -24 -36 7 -65 15 -14 35
-25 44 -25 10 0 23 -7 30 -14 6 -8 32 -23 57 -32 35 -14 41 -19 29 -26 -9 -5
-16 -22 -16 -38 0 -35 -16 -40 -25 -7 -8 24 -44 67 -57 67 -4 0 -8 -8 -9 -17
-1 -12 -3 -10 -8 6 -9 33 -38 51 -51 31 -19 -30 -10 -55 29 -79 56 -34 107
-99 114 -145 l6 -40 -55 55 c-30 30 -62 70 -72 89 -9 19 -26 37 -36 39 -19 3
-19 -6 0 -54 15 -37 -24 4 -59 62 -28 47 -41 58 -106 89 -85 40 -102 36 -76
-21 20 -42 63 -77 118 -96 21 -7 44 -20 50 -28 10 -11 5 -12 -33 -7 -25 4 -67
14 -93 23 -52 16 -93 13 -159 -14 -21 -8 -38 -21 -38 -28 0 -14 58 -45 84 -45
9 0 16 -4 16 -10 0 -13 66 -13 90 0 13 7 19 6 23 -4 3 -8 20 -17 37 -21 l32
-7 -32 -27 c-23 -19 -31 -33 -29 -51 4 -22 8 -25 42 -22 26 3 45 -2 58 -14 17
-15 24 -16 74 -4 49 12 60 11 90 -3 19 -9 35 -21 35 -27 0 -16 -43 -29 -62
-19 -37 19 -158 -40 -158 -78 0 -18 73 -16 125 2 48 18 45 17 45 5 0 -5 -13
-22 -30 -37 -16 -14 -30 -34 -30 -44 0 -32 -17 -29 -61 12 -45 42 -87 50 -81
17 4 -22 4 -22 -44 -2 -70 29 -216 2 -172 -33 25 -19 99 -43 136 -43 30 -1 34
-3 20 -11 -10 -5 -18 -16 -18 -24 0 -7 -14 -16 -30 -20 -17 -4 -43 -17 -58
-29 -15 -13 -40 -26 -57 -30 -35 -9 -75 -33 -75 -45 0 -17 62 -31 163 -37 108
-7 127 -13 102 -34 -8 -7 -15 -21 -15 -31 0 -15 7 -19 33 -19 36 0 80 25 111
65 l22 27 59 -31 c61 -31 95 -54 95 -63 0 -3 -27 -11 -60 -18 -46 -10 -67 -10
-85 -2 -18 9 -32 9 -52 0 -16 -6 -68 -14 -116 -18 -128 -10 -154 -47 -60 -88
l45 -19 -46 -22 c-51 -25 -96 -73 -96 -102 0 -24 7 -24 72 1 45 17 54 18 68 5
14 -12 24 -12 80 6 36 11 75 27 87 34 12 8 29 15 38 15 13 0 14 -4 5 -20 -6
-11 -20 -20 -31 -20 -37 0 -89 -29 -109 -62 -17 -27 -20 -46 -18 -105 2 -39 7
-75 11 -79 4 -4 26 7 50 24 23 18 60 42 82 53 58 31 84 58 95 101 13 46 22 48
41 6 8 -17 19 -33 24 -35 6 -1 22 17 37 40 78 120 76 118 116 115 31 -3 40 -9
59 -43 29 -51 29 -93 -1 -291 -13 -88 -27 -186 -30 -219 -12 -108 -14 -114
-49 -119 -183 -28 -317 -60 -317 -77 0 -5 74 -9 175 -9 168 0 175 -1 175 -20
0 -11 -13 -34 -29 -52 -29 -33 -30 -33 -133 -35 -57 -1 -112 -2 -123 -3 -11
-1 -38 1 -60 5 -24 4 -52 2 -70 -6 -30 -12 -29 -12 40 -25 42 -8 103 -10 153
-7 51 4 82 2 82 -4 0 -12 -166 -41 -270 -47 -87 -5 -140 -22 -140 -43 0 -11 6
-13 23 -8 12 4 78 11 147 15 69 5 155 16 193 23 37 8 67 11 67 7 0 -4 -24 -18
-52 -31 -40 -17 -79 -24 -163 -29 -77 -4 -120 -11 -144 -24 -49 -26 -26 -42
33 -22 26 9 63 16 84 15 l37 0 -54 -27 c-30 -15 -52 -31 -50 -37 5 -13 23 -9
94 25 33 16 61 27 63 25 6 -6 -19 -49 -46 -77 -14 -15 -23 -31 -19 -35 13 -12
58 17 75 48 30 54 51 77 82 87 l30 11 -15 -29 c-10 -19 -11 -31 -5 -35 16 -10
38 13 45 46 7 29 57 71 118 97 l27 12 -14 -28 c-20 -37 -152 -162 -171 -162
-25 0 -76 -30 -69 -41 3 -5 14 -7 25 -4 13 4 19 2 19 -9 0 -23 7 -20 53 19 63
54 80 42 27 -18 -34 -39 -36 -47 -16 -47 29 0 73 55 81 100 6 33 18 55 45 83
21 20 46 54 56 75 9 20 19 31 21 25 3 -7 -10 -42 -27 -77 -23 -47 -31 -73 -26
-91 6 -22 0 -34 -30 -67 -24 -27 -33 -43 -26 -50 7 -7 25 2 56 28 44 37 46 41
41 79 -4 30 0 49 16 75 l21 34 14 -24 c7 -14 13 -35 14 -47 0 -12 10 -29 21
-37 16 -11 20 -21 15 -40 -3 -14 -9 -37 -12 -51 -9 -35 19 -33 36 3 l13 27 13
-32 c8 -18 19 -33 24 -33 18 0 11 56 -10 83 -14 18 -20 40 -20 76 0 28 3 51 8
51 22 -1 47 -35 87 -117 16 -34 35 -44 35 -18 0 20 9 19 47 -5 20 -12 35 -15
38 -9 10 15 -13 37 -61 59 -45 19 -47 23 -58 72 -5 22 -21 35 -69 60 -71 36
-58 50 23 23 34 -11 59 -28 76 -51 18 -23 40 -37 68 -45 24 -6 51 -22 66 -40
24 -29 97 -62 113 -52 13 8 -12 31 -47 43 -24 8 -32 16 -32 32 1 18 -9 26 -55
43 -56 20 -89 41 -89 55 0 18 144 -33 187 -66 47 -36 80 -48 110 -42 13 3 3
12 -34 31 -28 15 -54 31 -58 37 -10 16 96 12 149 -6 34 -12 51 -13 58 -6 23
23 -70 49 -190 54 -63 3 -119 11 -125 17 -8 8 -2 11 23 11 48 1 173 35 178 49
5 16 -58 14 -110 -3 -59 -20 -157 -30 -212 -22 -58 9 -60 26 -3 26 45 0 187
39 187 52 0 11 -74 10 -103 -1 -13 -5 -56 -13 -94 -16 -68 -7 -71 -6 -102 21
-17 16 -34 44 -37 61 l-6 33 198 2 199 3 -70 22 c-69 21 -186 46 -277 58 l-48
6 0 132 c0 222 15 268 109 339 43 33 51 34 51 7 0 -27 18 -60 44 -81 28 -23
44 -22 48 1 3 18 6 18 40 6 21 -7 40 -10 43 -7 14 14 4 109 -15 137 -11 17
-20 33 -20 36 0 7 79 39 95 39 6 0 21 -27 33 -60 21 -54 68 -110 93 -110 16 0
9 54 -12 90 -12 19 -33 45 -48 57 -16 14 -21 22 -12 23 8 0 45 -32 82 -71 59
-61 70 -69 88 -60 12 7 21 24 23 42 l3 31 45 -31 c25 -17 48 -31 53 -31 18 0
4 55 -33 125 -22 41 -35 75 -29 75 6 0 27 -14 47 -31 62 -54 147 -86 227 -85
l70 1 -2 29 c-1 16 -13 45 -27 66 -15 23 -22 45 -19 61 7 40 -36 72 -106 77
-55 4 -58 5 -53 29 3 15 -1 29 -9 34 -21 13 -81 11 -130 -6 -48 -17 -202 -45
-208 -39 -2 2 2 10 9 19 17 21 5 44 -29 56 -22 8 -30 18 -34 42 -2 18 -3 34
-1 36 2 2 36 -7 76 -19 50 -16 98 -24 153 -24 73 -1 80 1 80 19 0 37 -81 75
-204 95 -73 13 -120 26 -137 39 l-24 19 47 15 c91 29 109 28 204 -4 49 -17 99
-29 111 -26 12 3 34 -1 50 -9 29 -15 48 -12 48 8 0 5 -15 24 -32 41 l-33 30
30 -9 c37 -11 133 -12 159 -1 18 7 18 8 0 28 -60 66 -181 79 -245 25 -43 -37
-76 -48 -112 -40 l-30 6 35 22 c73 44 129 91 126 105 -2 8 -21 19 -43 26 l-40
12 43 13 c67 21 72 36 21 59 l-44 20 36 0 c40 1 126 28 135 43 10 15 -24 44
-79 69 l-52 23 30 7 c17 4 46 7 66 8 25 1 43 9 62 29 33 34 34 45 6 64 l-21
14 21 34 c11 19 21 45 21 58 0 18 -5 22 -32 22 -18 0 -53 -10 -78 -22 -25 -11
-60 -20 -78 -19 -42 2 -85 -39 -103 -98 -9 -32 -22 -48 -53 -66 -22 -13 -42
-22 -44 -20 -2 1 7 20 21 42 26 42 52 111 44 119 -15 16 -48 -25 -89 -109 -50
-103 -113 -171 -133 -144 -5 8 -20 19 -32 26 -29 15 -29 28 -2 36 48 16 189
188 189 231 0 18 -27 18 -78 0 -29 -10 -43 -11 -51 -3 -8 8 -21 5 -48 -10 -39
-21 -132 -47 -140 -40 -2 3 21 31 52 62 45 47 60 56 78 50 85 -26 94 -27 130
-11 41 16 48 41 17 51 -41 13 -8 26 49 19 65 -7 101 6 101 36 0 14 11 22 38
30 22 5 47 19 57 30 17 19 17 21 0 40 -21 24 -88 44 -115 35 -16 -5 -20 -2
-20 14 0 43 -96 19 -138 -33 -10 -14 -49 -45 -84 -69 l-65 -43 38 70 c21 39
47 73 57 77 37 14 82 99 52 99 -25 0 -86 -33 -121 -65 -22 -19 -48 -35 -59
-35 -23 0 -24 6 -5 40 18 32 19 80 2 80 -7 0 -23 -18 -36 -40 -21 -38 -41 -52
-41 -30 0 6 -11 15 -25 20 l-25 9 21 35 c16 28 28 36 62 41 28 5 53 19 75 41
42 42 38 60 -12 56 -20 -2 -36 0 -36 3 0 3 11 23 25 44 32 48 46 141 22 141
-9 0 -32 -23 -51 -51 l-34 -50 -19 27 c-14 18 -26 25 -37 21 -18 -7 -21 -34
-17 -139 3 -57 -1 -74 -22 -111 -14 -24 -34 -50 -43 -58 -15 -12 -16 -12 -11
6 3 11 9 38 13 60 4 22 15 53 26 70 20 33 23 71 8 109 -13 36 -35 32 -65 -11
-29 -43 -31 -66 -10 -107 14 -26 14 -36 -5 -104 -36 -129 -44 -122 -49 38 -1
30 -10 87 -21 125 -10 39 -18 91 -17 116 2 40 -3 52 -36 92 -21 26 -44 47 -52
47 -7 0 -16 -16 -19 -35z m90 -482 c3 -29 4 -56 1 -59 -3 -3 -15 9 -27 26 -19
27 -21 35 -10 60 7 16 10 38 6 47 -5 16 -5 16 8 -1 8 -10 18 -43 22 -73z m-61
-38 c20 -36 35 -76 33 -88 -3 -17 -13 -6 -46 53 -23 41 -42 81 -42 88 0 28 20
8 55 -53z m434 -52 c-43 -78 -46 -80 -54 -44 -8 36 3 54 50 83 17 10 31 18 33
18 2 0 -11 -26 -29 -57z m-175 -97 c13 -52 -6 -150 -47 -243 -22 -51 -44 -90
-49 -87 -4 3 -8 34 -8 69 0 56 3 64 21 70 25 8 59 61 59 93 0 12 -9 30 -20 39
-25 21 -25 37 -3 63 23 27 40 25 47 -4z m81 -57 c-36 -78 -45 -82 -45 -18 0
64 3 69 41 69 l28 0 -24 -51z m-270 -84 c15 -21 29 -55 31 -74 5 -35 4 -34
-24 19 -28 53 -51 111 -39 100 3 -3 18 -23 32 -45z m405 -49 c0 -8 -5 -18 -10
-21 -6 -4 -16 -21 -24 -38 -7 -18 -36 -64 -63 -104 -46 -67 -50 -70 -62 -51
-12 20 -13 19 -42 -13 -25 -29 -29 -40 -25 -75 4 -34 0 -48 -29 -89 l-35 -49
0 73 c0 79 29 181 74 262 35 62 54 77 123 99 72 23 93 24 93 6z m-421 -104
c44 -88 52 -133 49 -278 l-3 -139 -22 36 c-14 22 -23 52 -23 77 0 23 -6 56
-14 74 -8 18 -19 59 -26 90 -7 37 -20 65 -37 82 -34 34 -39 33 -53 -9 -15 -47
-5 -74 31 -82 35 -7 38 -30 8 -62 -19 -20 -23 -21 -42 -8 -51 33 -87 123 -87
217 0 38 2 40 31 40 17 0 38 -7 46 -16 20 -20 82 -12 96 11 11 20 23 12 46
-33z m456 18 c5 -9 -53 -45 -61 -38 -2 2 3 14 12 26 16 23 39 29 49 12z m-745
-147 c67 -59 67 -74 3 -41 -31 15 -66 28 -79 28 -15 0 -24 6 -24 15 0 8 -8 15
-17 15 -10 0 -25 5 -33 10 -11 7 3 10 47 10 58 0 66 -3 103 -37z m946 12 c-11
-8 -29 -15 -40 -15 -19 1 -19 2 4 15 35 20 62 19 36 0z m-354 -77 c-34 -35
-47 -16 -16 22 24 28 30 31 32 16 2 -10 -5 -27 -16 -38z m263 -13 c-27 -13
-61 -26 -75 -30 -24 -6 -23 -5 8 24 26 25 41 31 75 30 l42 -1 -50 -23z m-165
-33 c0 -5 -8 -17 -19 -26 -17 -16 -19 -16 -25 0 -4 10 -1 21 6 26 17 10 38 10
38 0z m-80 -11 c0 -10 -91 -44 -98 -37 -2 3 11 14 29 25 35 22 69 27 69 12z
m-515 -26 c22 -11 25 -14 10 -14 -73 4 -78 -4 -39 -50 32 -38 19 -40 -35 -4
-46 30 -49 51 -11 70 31 16 38 16 75 -2z m859 0 c-4 -8 -12 -15 -19 -15 -7 0
-18 7 -25 15 -11 13 -8 15 18 15 24 0 30 -4 26 -15z m-337 -23 c9 -6 -11 -39
-68 -112 -45 -58 -92 -116 -106 -130 l-25 -25 6 73 c4 52 13 84 31 112 27 43
33 48 90 72 46 19 55 21 72 10z m230 -84 c9 -10 1 -18 -38 -37 -27 -14 -52
-22 -56 -18 -10 11 15 77 46 117 l26 35 6 -42 c3 -23 10 -47 16 -55z m-113 16
c-13 -22 -24 -53 -24 -67 0 -15 -4 -27 -8 -27 -23 0 -172 -123 -210 -174 -24
-32 -46 -55 -49 -53 -13 14 124 219 206 309 40 44 56 55 80 54 l29 -1 -24 -41z
m-524 -166 c0 -100 -19 -96 -29 6 -7 70 -6 76 16 76 10 0 13 -20 13 -82z m101
8 c15 -34 19 -66 19 -183 0 -82 -4 -143 -9 -143 -11 0 -46 91 -68 174 -23 90
-4 220 29 200 6 -4 19 -25 29 -48z m-278 -12 c9 -4 17 -10 17 -15 0 -14 -13
-10 -40 12 -14 11 -18 18 -10 15 8 -3 23 -9 33 -12z m107 -19 c0 -5 3 -21 7
-35 l6 -25 -22 20 c-13 11 -27 28 -32 37 -8 15 -6 17 16 16 14 -1 25 -7 25
-13z m-124 -42 c28 -21 114 -132 114 -147 0 -20 -34 2 -88 57 -55 56 -67 63
-95 60 -30 -4 -31 -3 -13 11 13 11 17 22 12 41 -6 25 -5 25 16 14 13 -7 37
-23 54 -36z m151 -65 c31 -32 90 -145 80 -154 -5 -5 -137 168 -137 180 0 16
29 3 57 -26z m461 -49 c-49 -27 -139 -104 -164 -140 -32 -46 -42 -38 -23 18
14 45 49 102 96 160 l34 43 36 -36 c30 -30 33 -38 21 -45z m81 -28 c11 -11 39
-25 61 -31 23 -6 40 -13 38 -15 -2 -2 -46 -13 -98 -25 -52 -12 -121 -32 -154
-45 l-59 -24 34 36 c30 32 145 123 155 123 2 0 13 -9 23 -19z m-711 -86 c-41
-38 -68 -44 -88 -20 -7 8 -24 15 -39 15 -14 1 -37 7 -51 16 -24 14 -22 14 35
9 33 -4 71 -2 85 4 14 5 41 10 60 10 l35 0 -37 -34z m1068 23 c-3 -7 -9 -21
-12 -30 -7 -19 -15 -18 -99 7 l-40 12 35 11 c51 15 123 15 116 0z m-920 -39
c18 -11 37 -26 44 -34 11 -13 8 -15 -18 -15 -16 0 -35 7 -42 15 -17 21 -47 19
-67 -5 -19 -21 -63 -28 -63 -9 0 6 17 27 37 45 40 37 53 37 109 3z m746 -37
c27 -26 12 -28 -36 -6 -38 19 -71 12 -62 -11 4 -12 -3 -11 -35 5 -56 29 -41
43 42 38 55 -3 74 -8 91 -26z m-155 -50 l48 -32 -47 0 c-26 0 -58 -4 -71 -9
-21 -8 -26 -6 -38 16 -7 13 -21 29 -31 34 -32 17 -8 32 43 27 31 -3 65 -16 96
-36z m-777 18 c0 -5 -7 -10 -15 -10 -8 0 -15 5 -15 10 0 6 7 10 15 10 8 0 15
-4 15 -10z m602 -89 c-7 -41 -13 -49 -76 -94 l-69 -49 8 39 c11 64 65 130 125
154 20 8 21 2 12 -50z m-174 -966 c-3 -3 -9 2 -12 12 -6 14 -5 15 5 6 7 -7 10
-15 7 -18z"/>
<path d="M2894 3494 c-54 -62 -58 -70 -59 -117 0 -31 5 -52 12 -54 7 -3 31 13
53 34 33 31 44 50 56 98 16 69 18 105 5 105 -5 0 -35 -30 -67 -66z"/>
<path d="M3166 3489 c-37 -44 -33 -79 6 -58 16 9 48 64 48 84 0 16 -32 1 -54
-26z"/>
<path d="M3253 3495 c-17 -7 -36 -23 -43 -34 -10 -19 -8 -21 18 -21 32 0 66
30 60 54 -3 12 -7 13 -35 1z"/>
<path d="M3405 3170 c-33 -12 -48 -37 -41 -66 8 -30 22 -28 49 8 25 33 20 68
-8 58z"/>
<path d="M1720 3129 c1 -21 35 -93 51 -105 8 -6 28 -16 44 -22 17 -5 38 -13
48 -17 41 -17 -9 95 -56 124 -45 27 -87 37 -87 20z"/>
<path d="M3592 2767 c-22 -23 -30 -57 -13 -57 18 0 61 42 61 61 0 26 -22 24
-48 -4z"/>
<path d="M1240 2531 c15 -29 51 -51 82 -51 34 0 36 19 5 48 -15 15 -36 22 -60
22 -34 0 -37 -2 -27 -19z"/>
<path d="M3575 2487 c-25 -19 -11 -37 29 -37 32 0 73 30 59 43 -11 12 -68 8
-88 -6z"/>
<path d="M1585 2459 c4 -13 16 -32 28 -42 22 -19 68 -20 74 -1 7 21 -32 55
-71 61 -37 6 -38 5 -31 -18z"/>
<path d="M1400 2430 c-12 -7 -6 -12 24 -25 41 -17 66 -14 66 9 0 24 -59 36
-90 16z"/>
<path d="M1390 2252 c-13 -11 -20 -24 -16 -30 11 -19 61 -14 87 8 21 17 22 21
9 30 -23 15 -55 12 -80 -8z"/>
<path d="M3550 2241 c0 -5 14 -21 31 -35 38 -33 109 -37 109 -8 0 33 -33 52
-88 52 -29 0 -52 -4 -52 -9z"/>
<path d="M1290 1685 c-20 -21 -21 -25 -6 -25 23 0 76 28 76 40 0 20 -47 9 -70
-15z"/>
<path d="M2281 1696 c-12 -14 -5 -46 10 -46 5 0 9 14 9 30 0 34 -3 36 -19 16z"/>
<path d="M1595 1499 c-37 -33 -44 -49 -21 -49 20 0 76 49 76 66 0 22 -16 17
-55 -17z"/>
<path d="M3030 1435 c0 -28 35 -69 53 -62 16 6 10 47 -10 69 -23 26 -43 22
-43 -7z"/>
</g>
</svg>