<?xml version="1.0" standalone="no"?>
<!DOCTYPE svg PUBLIC "-//W3C//DTD SVG 20010904//EN"
 "http://www.w3.org/TR/2001/REC-SVG-20010904/DTD/svg10.dtd">
<svg version="1.0" xmlns="http://www.w3.org/2000/svg"
 width="512.000000pt" height="512.000000pt" viewBox="0 0 512.000000 512.000000"
 preserveAspectRatio="xMidYMid meet">
<metadata>
Created by potrace 1.16, written by Peter Selinger 2001-2019
</metadata>
<g transform="translate(0.000000,512.000000) scale(0.100000,-0.100000)"
fill="#000000" stroke="none">
<path d="M2385 4641 c-41 -18 -89 -66 -120 -119 -17 -28 -18 -29 -90 -24 -92
6 -135 -9 -178 -59 -21 -24 -43 -39 -56 -39 -12 0 -31 -5 -43 -11 -11 -6 -37
-12 -58 -13 -22 -2 -51 -12 -66 -22 -30 -21 -36 -24 -79 -45 -16 -8 -37 -29
-45 -46 -14 -30 -19 -33 -60 -33 -101 0 -180 -49 -201 -123 -7 -23 -23 -54
-37 -69 -15 -17 -26 -43 -29 -71 -5 -42 -8 -46 -38 -51 -41 -8 -85 -51 -85
-82 0 -15 -6 -24 -15 -24 -9 0 -27 -11 -41 -25 -24 -24 -25 -31 -23 -113 l3
-86 -31 -7 c-47 -9 -99 -46 -113 -79 -7 -18 -11 -62 -9 -113 l4 -84 -47 -17
c-49 -17 -82 -52 -93 -99 -6 -23 -12 -27 -45 -27 -27 0 -48 -8 -71 -27 -32
-28 -64 -87 -54 -103 3 -4 -11 -14 -31 -20 -69 -23 -96 -117 -53 -186 16 -26
18 -38 10 -53 -16 -29 -13 -117 4 -151 19 -36 58 -67 95 -75 23 -5 30 -12 30
-29 0 -36 37 -74 83 -88 23 -7 56 -20 72 -30 34 -20 77 -23 106 -8 15 9 24 5
48 -22 26 -29 34 -32 80 -30 45 2 51 0 51 -18 0 -12 12 -32 26 -47 21 -20 32
-24 60 -20 18 3 36 1 39 -4 9 -14 62 -11 93 5 15 8 38 26 51 40 30 32 51 33
51 4 0 -35 36 -87 65 -94 15 -4 46 -4 71 -1 38 4 46 2 55 -17 32 -62 102 -74
151 -26 22 23 29 37 25 56 -3 20 1 28 24 40 16 8 33 23 39 33 15 28 12 84 -5
107 -17 22 -17 22 -19 -33 -3 -48 -18 -71 -62 -89 -26 -11 -31 -18 -27 -39 6
-30 -12 -55 -38 -55 -29 0 -59 36 -59 70 0 26 -3 30 -29 30 -16 0 -34 -7 -41
-15 -7 -8 -28 -15 -46 -15 -44 0 -65 32 -67 100 l-2 50 -35 -6 c-19 -3 -42
-15 -52 -25 -9 -10 -23 -19 -32 -19 -9 0 -16 -8 -16 -19 0 -20 -35 -51 -57
-51 -7 0 -21 9 -30 19 -13 16 -20 17 -39 9 -40 -18 -54 -4 -54 53 0 45 -2 50
-17 43 -10 -4 -31 -8 -48 -8 -16 -1 -36 -5 -44 -10 -10 -7 -20 -2 -34 15 -24
30 -18 91 14 125 38 41 77 47 199 33 l110 -12 -47 -28 c-26 -15 -61 -30 -77
-33 -30 -6 -31 -8 -31 -57 0 -36 5 -55 16 -62 28 -17 64 0 88 43 15 26 29 40
43 40 17 0 18 -2 8 -15 -23 -28 -1 -28 34 -1 19 14 43 26 54 26 43 0 142 44
230 102 99 65 165 89 247 87 l50 -1 -45 -12 c-77 -22 -122 -45 -192 -98 -60
-46 -88 -72 -57 -52 8 4 9 0 4 -15 -10 -32 7 -26 50 19 43 44 60 51 50 20 -3
-11 -3 -30 1 -42 7 -22 7 -22 15 -3 4 11 8 32 8 46 2 64 217 143 296 109 15
-6 7 -9 -31 -9 -108 -2 -165 -39 -164 -109 1 -27 1 -27 15 6 18 40 29 42 22 2
-4 -17 -2 -32 5 -36 14 -9 48 31 48 56 0 22 19 30 71 30 89 0 171 -67 224
-184 36 -77 65 -198 65 -269 0 -122 -74 -435 -135 -574 -42 -94 -71 -117 -193
-154 -67 -21 -163 -70 -214 -111 -23 -18 -31 -20 -52 -10 -46 21 -138 24 -221
8 -89 -18 -167 -20 -235 -6 -28 5 -64 4 -95 -2 -27 -5 -68 -14 -90 -18 -27 -6
-67 -3 -120 7 -98 18 -171 13 -285 -22 -108 -33 -172 -35 -287 -6 -85 22 -99
23 -180 12 -92 -12 -250 -54 -267 -71 -22 -22 10 -21 139 4 165 32 226 32 324
5 93 -26 179 -22 294 16 88 28 183 33 279 13 49 -10 72 -9 152 7 83 16 103 17
168 5 67 -11 85 -10 185 9 116 22 160 25 213 15 l32 -7 -54 -54 c-80 -82 -100
-91 -219 -102 -157 -15 -257 -51 -373 -135 -47 -33 -53 -35 -106 -29 -73 7
-149 -15 -226 -66 -44 -29 -73 -40 -117 -45 -31 -3 -121 -21 -200 -40 -78 -18
-177 -39 -221 -46 -168 -26 -160 -36 26 -33 l173 3 -56 -29 c-86 -46 -94 -64
-17 -40 63 20 208 38 303 39 l50 0 -32 -22 c-53 -37 -48 -50 10 -26 47 19 188
58 211 58 6 0 -13 -11 -41 -25 -103 -52 -89 -71 25 -35 35 11 119 27 185 36
154 19 194 30 235 61 18 14 72 43 120 65 48 22 114 60 148 83 33 24 109 70
170 103 94 51 117 69 169 131 74 87 90 99 146 106 l44 6 -46 -25 c-25 -14 -78
-61 -119 -105 -66 -74 -82 -86 -186 -137 -63 -30 -118 -63 -124 -73 -5 -10
-53 -38 -107 -61 -133 -58 -269 -147 -252 -165 3 -2 49 23 104 57 114 69 244
132 327 158 31 10 81 35 110 56 28 21 49 33 44 26 -15 -24 9 -11 46 25 21 20
38 33 38 28 -1 -20 -27 -57 -52 -73 -15 -9 -61 -44 -104 -77 -81 -62 -113 -84
-127 -85 -5 0 37 36 92 81 106 85 134 115 54 56 -107 -77 -153 -104 -238 -142
-49 -22 -132 -64 -185 -93 -52 -29 -126 -61 -165 -72 -81 -24 -181 -68 -198
-88 -8 -10 -1 -9 28 3 22 10 82 30 132 45 51 16 134 49 186 74 70 35 119 51
201 67 136 25 200 49 281 104 36 24 61 36 56 26 -5 -9 -35 -32 -66 -51 -31
-19 -96 -60 -143 -91 -49 -32 -131 -73 -187 -94 -117 -43 -177 -74 -225 -117
-32 -28 -33 -29 -5 -12 74 44 116 64 197 93 48 17 102 38 120 47 32 17 33 17
19 -2 -47 -61 -84 -90 -166 -129 -49 -23 -101 -52 -115 -64 -24 -21 -22 -21
20 2 25 14 77 35 115 47 73 24 82 31 216 176 27 28 81 69 131 96 100 56 121
77 145 142 11 29 31 59 51 74 l32 25 0 -66 c0 -86 -21 -112 -135 -162 -60 -27
-82 -41 -73 -48 9 -6 8 -7 -5 -3 -48 16 -167 -113 -167 -180 0 -30 -6 -35 -72
-72 -40 -22 -91 -57 -113 -77 l-40 -37 35 21 c72 44 128 69 225 101 55 18 117
41 137 51 21 11 39 19 41 19 2 0 0 -20 -6 -44 -5 -24 -6 -56 -2 -72 l7 -29 13
30 c7 17 19 45 25 62 30 81 66 120 143 157 87 41 132 89 143 150 l6 40 29 -54
c15 -30 28 -60 29 -67 0 -6 -41 -35 -90 -63 -92 -53 -113 -73 -125 -123 -8
-31 1 -34 35 -10 34 23 48 43 54 78 5 25 16 36 61 58 31 15 57 27 59 27 9 0
-18 -109 -34 -135 -23 -37 -50 -53 -183 -109 -114 -47 -198 -100 -264 -164
-40 -39 -135 -173 -128 -180 8 -8 27 12 80 84 30 41 56 74 58 74 1 0 1 -26 -1
-57 -4 -79 17 -137 50 -141 20 -2 27 2 32 23 10 38 45 91 109 165 30 34 75 93
99 131 32 50 54 73 85 88 57 28 119 85 151 140 14 25 43 68 64 94 31 39 38 45
38 27 0 -37 -19 -61 -155 -200 -117 -120 -137 -145 -173 -221 -49 -104 -66
-163 -57 -198 6 -23 9 -20 21 27 8 30 18 61 24 70 8 14 9 12 10 -11 0 -36 34
-101 62 -121 23 -17 158 -23 158 -8 0 4 -9 31 -20 60 -44 114 -17 199 102 327
38 41 67 75 63 75 -4 0 10 19 31 42 22 24 47 54 57 68 l18 25 -12 -25 c-6 -14
-30 -44 -52 -67 -23 -24 -38 -43 -33 -43 18 0 82 59 108 99 23 37 28 56 28
105 -1 69 -6 83 -124 286 -89 154 -102 185 -112 270 l-7 61 -34 -70 c-51 -102
-119 -169 -248 -246 -92 -54 -104 -59 -70 -29 22 20 56 44 75 54 74 38 128 98
178 198 50 100 63 144 106 367 63 323 85 546 89 905 2 190 0 210 -21 280 -57
182 -165 288 -343 335 -83 22 -91 17 -19 -12 212 -85 349 -287 338 -496 l-3
-57 -55 71 c-63 81 -142 147 -250 209 -101 57 -140 95 -140 135 0 18 -15 61
-32 96 l-32 64 -10 -49 c-16 -86 21 -147 128 -214 20 -12 20 -13 -4 -6 -14 3
-52 23 -85 43 -51 31 -62 43 -74 81 -25 83 -54 139 -84 167 l-30 28 33 -60
c18 -33 36 -73 41 -90 9 -34 8 -33 -52 53 -17 24 -33 41 -36 39 -11 -11 20
-79 59 -128 22 -28 38 -53 35 -55 -10 -11 -130 25 -168 50 -51 34 -44 43 17
22 26 -9 50 -16 52 -16 3 0 -16 19 -42 41 -58 52 -76 85 -76 146 -1 47 -1 47
-15 23 -19 -32 -19 -62 0 -107 8 -20 14 -37 13 -38 -2 -2 -32 23 -66 55 -58
52 -63 60 -52 79 14 28 4 78 -19 91 -17 8 -17 6 -10 -33 12 -64 12 -72 -5 -57
-8 6 -23 35 -32 63 -18 56 -41 97 -54 97 -19 0 -19 -35 -1 -64 11 -17 27 -43
36 -59 l16 -27 -33 13 c-22 9 -34 21 -36 36 -2 13 -27 47 -55 76 -66 67 -118
86 -180 64 -25 -8 -46 -23 -52 -36 -13 -30 -31 -29 -50 1 -18 28 -9 59 22 70
15 6 14 9 -7 19 -53 26 -30 83 46 112 44 16 48 17 59 1 7 -9 19 -16 27 -16 18
0 19 84 0 117 -16 29 -15 58 3 73 8 7 15 16 15 21 0 5 -7 9 -15 9 -8 0 -15 4
-15 9 0 13 26 21 66 21 32 0 33 1 22 25 -10 22 -8 30 9 53 16 21 28 27 57 26
20 -1 45 -9 55 -18 20 -18 36 -22 26 -6 -4 6 -8 34 -10 64 -5 60 4 73 65 99
21 10 28 16 17 16 -23 1 -55 -15 -84 -42 -13 -11 -23 -16 -23 -10 0 21 41 62
70 68 25 5 28 9 18 24 -17 28 -1 69 35 91 33 20 113 26 150 11 16 -6 13 -10
-20 -31 -29 -19 -42 -37 -54 -75 -10 -27 -22 -51 -28 -53 -6 -2 -1 -25 14 -59
14 -30 25 -70 25 -87 l-1 -31 -14 32 c-11 26 -58 63 -80 63 -16 0 1 -26 50
-80 75 -82 78 -101 26 -154 -51 -51 -64 -40 -58 49 l5 60 -17 -37 -18 -38 -11
38 -11 37 3 -48 c2 -30 13 -62 30 -87 26 -39 26 -40 12 -117 -13 -77 -13 -78
-21 -38 -4 22 -14 51 -22 65 -9 15 -12 17 -7 5 3 -11 8 -31 11 -45 4 -22 2
-22 -10 5 -8 17 -25 39 -37 50 l-23 20 7 -44 c9 -62 32 -99 70 -117 21 -11 37
-28 45 -51 16 -43 64 -99 105 -120 17 -9 54 -20 81 -24 28 -4 75 -14 105 -22
30 -9 90 -23 133 -32 43 -10 76 -19 73 -22 -2 -3 -85 12 -183 32 -201 42 -278
75 -367 156 -63 58 -100 122 -121 214 -9 39 -21 77 -28 86 -18 23 -56 41 -74
35 -12 -5 -10 -10 11 -27 23 -18 66 -86 66 -104 0 -3 -13 1 -30 10 -41 21 -38
3 5 -29 20 -15 49 -54 66 -88 30 -59 30 -60 7 -53 -13 3 -47 31 -75 61 l-53
55 0 -30 c0 -45 51 -99 107 -113 31 -7 65 -28 106 -65 93 -83 152 -106 372
-143 323 -55 449 -103 560 -215 51 -50 66 -74 92 -143 17 -45 29 -92 26 -105
-3 -15 -2 -18 4 -9 12 16 12 -66 1 -283 -20 -387 -43 -629 -85 -874 -10 -64
-14 -129 -11 -205 8 -171 42 -245 199 -431 69 -81 100 -153 101 -230 1 -84
-18 -121 -118 -226 -61 -65 -96 -112 -118 -158 -28 -60 -30 -75 -31 -171 0
-114 -12 -91 -14 27 -1 83 17 147 61 213 27 41 28 43 6 22 -67 -62 -103 -208
-79 -323 l12 -56 49 -2 50 -1 1 107 1 108 30 -63 c17 -35 33 -84 36 -108 3
-29 9 -44 19 -44 24 0 0 106 -43 192 -33 66 -30 73 6 13 16 -27 37 -85 47
-127 14 -65 20 -78 36 -78 18 0 19 5 14 58 -5 54 -4 55 9 27 7 -16 13 -42 14
-57 0 -23 5 -28 25 -28 20 0 25 5 25 23 0 36 -34 127 -68 183 -46 75 -64 122
-53 141 7 14 10 13 16 -8 4 -13 29 -53 55 -89 64 -87 90 -141 97 -201 5 -39 9
-49 22 -47 21 5 19 83 -3 127 -9 17 -13 31 -8 31 19 0 148 -100 167 -129 11
-17 28 -31 38 -31 24 0 22 5 -19 61 -44 60 -79 87 -180 142 -81 43 -124 89
-124 132 0 13 27 52 66 96 79 89 94 120 94 198 0 51 -5 65 -34 107 -19 27 -46
70 -61 97 l-26 48 28 -7 c47 -11 81 -51 94 -111 10 -44 25 -68 78 -129 113
-129 140 -167 161 -228 27 -82 26 -172 -4 -261 -14 -38 -23 -72 -21 -73 8 -8
66 84 86 137 17 43 22 78 22 148 0 51 3 93 6 93 12 0 57 -34 125 -97 38 -35
71 -61 74 -59 2 3 -14 27 -36 53 -23 26 -38 51 -33 56 11 11 169 -10 233 -32
29 -10 77 -31 107 -45 73 -38 60 -12 -19 36 -79 47 -139 66 -250 77 -115 13
-132 21 -174 84 -47 71 -61 82 -158 132 -111 56 -128 81 -128 187 0 106 -18
139 -145 263 -76 74 -111 117 -135 164 -60 120 -74 262 -45 476 17 127 19 202
4 170 -19 -42 -2 91 24 189 15 54 27 124 27 156 0 74 13 111 66 186 55 78 104
121 173 152 95 42 287 45 362 7 45 -24 127 -111 155 -167 30 -60 30 -65 -3
-71 -20 -4 -31 0 -41 14 -23 32 -104 67 -86 37 4 -7 -18 11 -49 40 -72 67
-130 93 -210 94 -124 2 -256 -71 -312 -173 -28 -52 -30 -61 -34 -204 -13 -402
-4 -526 45 -674 30 -88 26 -120 -4 -39 -47 127 -57 207 -57 473 1 268 -10 257
-21 -22 -6 -138 -4 -163 20 -275 57 -274 122 -397 256 -481 93 -59 132 -119
144 -218 10 -92 36 -138 92 -167 12 -6 68 -19 125 -28 120 -19 235 -53 297
-88 46 -27 55 -22 20 11 -55 50 -162 87 -311 108 -113 16 -149 29 -181 64 -23
25 -18 26 26 7 18 -8 89 -27 158 -41 214 -46 302 -78 452 -167 97 -58 120 -45
28 16 -94 63 -176 97 -339 141 -73 19 -140 39 -149 44 -10 5 -46 17 -81 26
-62 16 -111 40 -111 55 0 4 24 5 53 2 38 -3 66 -14 102 -38 83 -56 81 -39 -7
57 -83 90 -158 147 -276 209 -34 18 -61 35 -59 36 11 11 137 -45 203 -89 58
-38 95 -74 144 -137 38 -49 85 -97 111 -113 25 -15 101 -45 170 -66 68 -21
171 -57 228 -80 88 -36 127 -45 255 -61 84 -11 192 -31 240 -45 49 -14 91 -24
93 -21 7 7 -57 48 -103 65 -44 17 -44 17 103 14 189 -5 338 -19 415 -38 33 -9
62 -14 64 -12 7 7 -46 39 -100 59 l-51 19 170 -5 c94 -2 179 -7 190 -11 13 -4
12 -1 -5 9 -14 8 -61 22 -105 30 -44 9 -126 25 -182 36 -56 11 -115 20 -131
20 -16 0 -63 11 -103 24 -41 13 -110 27 -154 31 -69 7 -86 12 -123 41 -58 44
-142 75 -220 79 -57 3 -73 10 -163 65 -148 92 -218 119 -351 132 l-112 12 -86
69 c-103 85 -175 120 -299 146 -59 13 -105 30 -125 45 -73 55 -126 174 -147
331 -15 114 -6 404 16 495 29 122 134 236 239 260 60 13 139 -1 188 -34 35
-23 33 -18 37 -145 1 -12 17 -39 36 -58 29 -29 41 -34 71 -31 29 2 40 -2 58
-23 49 -61 120 -67 172 -15 19 19 34 41 34 50 0 14 7 16 35 10 40 -7 107 21
144 60 l23 25 32 -42 c60 -78 153 -85 217 -15 l28 31 47 -32 c35 -23 59 -31
92 -31 39 0 102 25 102 40 0 17 44 50 66 50 31 0 84 50 84 79 0 15 6 21 20 21
33 0 77 27 107 66 22 30 28 49 31 103 3 58 1 71 -22 103 -23 35 -24 40 -11 65
61 117 -72 262 -206 226 -47 -12 -66 -2 -74 41 -9 45 -58 102 -100 116 -20 7
-37 20 -41 33 -12 38 -10 101 5 125 22 36 9 108 -27 145 l-30 32 19 30 c41 65
10 146 -63 166 -24 6 -46 13 -50 15 -4 3 -1 -10 6 -27 8 -18 23 -36 34 -40 26
-10 45 -44 37 -69 -3 -10 -20 -31 -38 -46 l-32 -27 41 -36 c23 -20 47 -46 53
-59 15 -29 6 -74 -20 -98 l-21 -19 25 -20 c13 -11 31 -45 41 -77 10 -32 21
-58 25 -58 4 0 27 -17 50 -37 38 -32 42 -40 38 -68 -4 -26 -1 -33 24 -47 16
-10 29 -25 29 -34 0 -12 5 -15 23 -9 81 27 153 13 187 -35 26 -36 25 -71 -1
-121 -17 -35 -18 -43 -6 -52 86 -71 45 -241 -58 -241 -33 0 -35 -2 -35 -31 0
-44 -30 -69 -73 -62 -31 5 -36 2 -50 -28 -20 -42 -68 -69 -107 -60 -28 6 -46
21 -90 75 l-20 25 -23 -27 c-12 -16 -33 -28 -45 -28 -17 0 -22 -6 -22 -25 0
-55 -90 -53 -115 3 -5 12 -17 22 -27 22 -19 0 -33 34 -22 52 5 8 2 9 -12 4
-10 -5 -36 -10 -56 -13 -30 -5 -37 -10 -40 -31 -2 -14 -15 -34 -31 -46 -25
-18 -31 -19 -65 -7 -20 7 -51 24 -69 37 -40 30 -50 12 -22 -43 19 -37 19 -38
1 -63 -12 -15 -31 -26 -50 -28 -26 -3 -35 2 -50 26 -14 24 -21 28 -34 21 -13
-7 -23 -1 -45 26 -30 38 -43 44 -43 19 0 -25 -33 -12 -48 19 -8 16 -11 40 -8
53 l7 25 30 -25 c38 -32 52 -33 44 -3 l-6 22 20 -24 c12 -13 21 -32 21 -42 0
-20 15 -26 25 -9 3 6 19 17 34 24 27 14 29 14 59 -26 37 -48 42 -36 11 24 -27
53 -51 120 -44 126 2 3 21 -8 42 -24 21 -16 47 -31 58 -34 11 -3 25 -16 31
-29 10 -20 12 -21 18 -4 7 16 9 16 26 -7 11 -14 20 -20 20 -14 0 5 -5 15 -11
21 -7 7 -1 12 21 17 43 8 85 42 68 53 -13 8 -68 78 -68 86 0 3 16 8 35 11 59
11 142 -39 176 -106 21 -40 49 -55 76 -39 16 9 15 10 -8 11 -15 0 -32 7 -39
15 -11 13 -8 15 19 15 17 0 31 3 31 8 0 4 -36 27 -80 52 -44 25 -80 48 -80 52
0 6 33 14 157 38 58 12 65 11 110 -11 l48 -23 -40 -8 c-22 -4 -62 -7 -88 -7
-27 -1 -47 -4 -45 -8 2 -5 14 -29 26 -55 13 -26 32 -52 42 -58 25 -14 25 -13
-5 45 -14 26 -23 50 -20 54 4 3 66 6 138 7 73 0 138 3 145 5 8 2 20 -6 29 -18
l15 -22 -94 4 c-51 2 -101 7 -112 11 -15 6 -14 0 9 -37 15 -24 35 -53 44 -64
11 -13 7 -12 -12 4 -15 14 -27 19 -27 13 0 -26 45 -42 98 -35 29 3 52 9 52 13
0 4 -11 5 -24 3 -17 -4 -35 5 -65 32 -23 21 -39 40 -37 43 3 2 35 -7 71 -22
36 -14 68 -26 71 -26 4 0 4 11 2 25 -7 32 14 33 35 3 13 -19 16 -20 16 -5 1 9
8 17 17 17 12 0 8 9 -14 32 -38 38 -34 49 15 36 21 -5 61 -11 88 -14 47 -5 49
-4 30 11 -20 16 -76 34 -110 36 l-20 0 20 8 c11 5 37 6 57 3 41 -5 88 4 88 17
0 16 -58 30 -97 24 -42 -6 -85 -26 -121 -54 -13 -10 -43 -21 -67 -24 -46 -7
-70 1 -118 41 l-29 24 94 1 c107 1 86 14 -40 26 l-74 6 56 23 56 23 46 -21
c45 -19 48 -19 105 -3 39 10 74 14 103 10 45 -7 86 6 86 27 0 7 -20 9 -59 5
l-60 -5 40 50 c59 76 55 80 -50 48 -35 -11 -66 -18 -69 -16 -11 11 37 73 70
91 33 17 42 18 84 7 58 -16 66 -9 23 17 -41 25 -106 27 -138 5 -13 -9 -35 -44
-50 -78 -24 -52 -34 -63 -65 -74 -47 -17 -53 -11 -27 25 24 32 42 111 22 99
-6 -4 -20 -24 -31 -44 -15 -26 -19 -30 -14 -12 3 14 14 37 25 53 22 30 11 37
-13 10 -28 -32 -39 -64 -41 -111 -2 -47 -2 -47 -62 -79 -70 -38 -164 -75 -177
-71 -5 2 26 29 69 60 43 30 87 65 97 77 37 41 8 30 -64 -25 l-74 -56 -18 22
c-38 47 -11 78 92 112 77 24 149 77 175 129 25 48 17 45 -35 -13 -50 -57 -100
-88 -140 -88 -20 0 -19 3 11 23 41 27 55 66 17 47 -12 -7 -37 -26 -54 -42 -30
-28 -33 -29 -77 -17 -53 13 -80 7 -75 -18 3 -14 12 -17 53 -15 47 3 49 2 29
-12 -33 -24 -103 -37 -179 -34 l-70 3 67 38 c37 21 97 58 133 82 36 24 80 46
98 49 17 3 49 8 70 11 24 4 53 19 75 40 47 43 35 58 -13 16 -20 -17 -40 -31
-45 -31 -4 0 -17 -3 -27 -6 -10 -4 4 9 32 27 42 29 47 34 28 37 -12 2 -55 -15
-96 -37 -40 -23 -77 -41 -80 -41 -9 0 50 98 76 128 26 28 11 28 -50 -2 -26
-13 -63 -27 -82 -30 l-33 -6 31 29 c35 33 40 51 12 51 -19 0 -38 -17 -56 -53
-15 -30 -44 -45 -54 -29 -7 11 -9 11 -14 -2 -5 -12 -21 -16 -73 -16 l-66 0 41
33 c22 17 64 50 92 71 29 22 47 42 41 44 -6 2 -26 -8 -44 -21 -18 -13 -44 -30
-58 -37 -22 -11 -21 -8 9 24 19 19 32 38 29 41 -10 10 -60 -38 -74 -71 -7 -18
-26 -41 -41 -52 -29 -19 -93 -45 -93 -36 0 2 11 21 24 42 13 20 27 48 31 62 7
23 6 24 -10 10 -9 -8 -34 -39 -55 -70 -41 -61 -103 -121 -147 -143 -15 -8 -64
-20 -108 -27 -44 -7 -91 -16 -105 -21 -17 -6 2 17 57 70 69 67 101 89 200 137
65 32 147 75 183 95 36 21 88 44 117 52 46 14 53 14 64 1 23 -27 67 -44 118
-44 60 0 76 17 24 25 -78 13 -93 17 -98 26 -4 5 3 9 14 9 11 0 23 5 27 11 8
13 -113 8 -151 -6 -19 -7 -19 -7 1 8 28 22 137 54 206 62 44 5 63 3 80 -9 24
-17 73 -22 63 -7 -3 5 3 11 12 13 14 3 10 9 -17 26 -34 21 -30 26 19 22 23 -2
23 -2 5 24 -24 33 -32 32 -70 -5 -27 -26 -43 -33 -86 -36 -52 -4 -52 -4 -23
10 47 22 94 74 101 113 10 52 -2 52 -15 0 -12 -48 -29 -64 -96 -91 l-40 -16
26 23 c14 13 41 35 60 49 18 15 32 29 28 33 -7 7 -104 -57 -149 -99 -19 -18
-51 -41 -70 -50 -19 -10 -61 -36 -93 -57 l-59 -40 44 53 c24 30 57 75 73 101
18 29 41 52 60 59 65 23 232 109 246 126 10 13 13 32 9 63 l-5 45 -15 -44 c-8
-24 -25 -51 -38 -59 l-23 -15 22 39 22 39 -35 -34 -36 -33 20 77 c14 55 17 80
9 86 -6 5 -9 6 -6 3 6 -8 -47 -104 -57 -104 -10 0 -9 20 1 85 6 36 4 64 -6
100 -8 27 -14 69 -13 93 1 35 -5 48 -28 72 -32 32 -84 46 -136 36 -56 -11
-133 -73 -113 -92 4 -4 33 9 66 29 61 38 113 47 152 27 24 -14 52 -67 39 -75
-17 -10 -11 -51 10 -70 19 -17 19 -18 -14 -59 -19 -22 -45 -59 -60 -80 -25
-37 -26 -38 -26 -12 0 14 -5 26 -11 26 -8 0 -9 -13 -3 -42 17 -93 4 -163 -47
-243 l-32 -50 -8 29 c-6 21 -3 39 12 68 13 26 19 53 17 81 l-4 42 -28 -58
c-24 -50 -28 -68 -24 -115 6 -70 -5 -104 -49 -159 -39 -49 -89 -81 -202 -128
l-80 -34 11 27 c18 41 47 70 110 109 52 32 128 116 144 158 9 22 -4 19 -62
-15 -39 -22 -55 -39 -67 -68 -12 -29 -28 -47 -63 -66 l-46 -26 7 27 c24 98
119 219 257 330 94 75 116 119 45 89 -22 -9 -53 -37 -79 -70 l-43 -56 -9 41
c-7 29 -6 47 2 60 18 29 -4 23 -28 -8 -11 -15 -18 -34 -15 -42 18 -47 15 -67
-16 -101 -18 -19 -30 -27 -26 -18 8 22 -9 83 -28 98 -23 19 -42 -59 -25 -109
11 -35 10 -41 -13 -77 -34 -52 -53 -104 -71 -193 -9 -40 -25 -93 -36 -116 -30
-62 -151 -173 -245 -224 -44 -24 -91 -51 -105 -59 l-25 -14 25 21 c14 12 59
41 100 65 79 46 132 91 139 116 16 55 12 92 -13 134 -53 91 -117 114 -198 71
-28 -14 -62 -31 -77 -36 -23 -9 -22 -6 15 33 22 24 66 75 98 115 82 103 183
195 268 243 40 24 109 66 153 96 80 53 109 63 240 84 114 18 112 30 -5 24
-126 -5 -112 6 51 40 131 29 166 45 95 46 l-49 0 20 23 c23 25 47 67 38 67 -3
0 -30 -25 -60 -55 -29 -30 -60 -55 -69 -55 -19 0 -19 0 -6 37 10 27 8 26 -22
-9 -34 -38 -140 -95 -146 -78 -2 5 7 27 19 49 19 34 33 45 101 72 43 17 78 35
78 39 0 9 -86 -12 -117 -29 -12 -6 -24 -11 -26 -11 -5 0 5 55 18 103 4 15 5
27 2 27 -6 0 -31 -67 -49 -130 l-12 -45 -6 45 c-3 25 -9 45 -15 45 -5 0 -17
-22 -26 -50 l-16 -50 -7 35 c-4 19 -10 29 -13 22 -3 -7 3 -35 13 -62 23 -64
15 -80 -84 -155 -43 -32 -65 -45 -50 -29 57 61 98 188 98 300 0 52 1 54 38 72
20 11 66 29 102 41 98 32 159 76 137 98 -11 10 -56 -7 -78 -30 -12 -12 -19
-15 -15 -7 7 13 6 13 -6 0 -13 -15 -53 -40 -63 -40 -3 0 3 17 14 38 19 37 34
48 96 74 l30 12 -38 4 c-55 5 -124 -47 -140 -106 -8 -31 -20 -48 -39 -58 -37
-19 -37 -19 -27 28 13 55 39 98 61 98 14 0 18 8 18 38 0 51 -20 78 -46 64 -15
-8 -25 -6 -43 9 -23 18 -51 25 -51 13 0 -4 18 -26 40 -50 25 -27 40 -53 40
-69 0 -35 -14 -31 -25 8 -6 17 -14 30 -20 27 -12 -6 -9 -37 6 -67 27 -52 -15
-128 -99 -175 l-30 -18 20 57 c12 31 29 66 39 77 13 13 19 34 19 65 l-1 46
-19 -23 c-11 -13 -22 -40 -26 -60 -10 -56 -43 -139 -60 -153 -14 -12 -16 -6
-12 54 3 58 1 65 -11 50 -11 -16 -12 -7 -8 61 4 69 2 77 -9 61 -13 -18 -14
-18 -14 3 0 12 9 38 19 59 10 21 22 58 25 83 l6 45 -25 -40 c-14 -22 -25 -44
-25 -50 -1 -30 -20 26 -21 60 0 22 -5 49 -10 60 -6 13 -7 -5 -4 -57 3 -43 3
-78 0 -78 -3 0 -15 20 -26 45 -11 25 -22 45 -24 45 -3 0 -5 -16 -5 -34 0 -26
8 -42 31 -64 28 -26 33 -40 44 -118 8 -49 12 -90 11 -92 -2 -1 -14 16 -28 38
l-24 41 -42 -31 c-47 -33 -54 -27 -19 17 25 30 41 63 30 63 -4 0 -17 -10 -30
-22 l-23 -21 0 27 c0 14 7 43 15 64 l15 37 -24 -27 c-24 -27 -24 -27 -30 -5
-16 59 15 127 83 184 l26 22 -23 1 c-28 0 -69 -39 -78 -76 -6 -25 -8 -26 -14
-9 -6 16 -10 11 -22 -25 l-15 -45 -7 50 c-3 28 -11 57 -16 65 -9 13 -13 12
-30 -8 -18 -22 -19 -26 -4 -60 8 -21 26 -46 39 -57 47 -38 67 -132 46 -205 -9
-27 -9 -25 -39 95 l-10 40 0 -35 c-1 -19 3 -56 7 -82 4 -27 7 -48 5 -48 -1 0
-15 21 -30 48 -26 42 -29 45 -32 23 -2 -15 8 -40 27 -68 17 -24 31 -47 31 -51
0 -4 -21 -43 -47 -87 l-46 -79 -23 99 c-34 150 -33 172 21 243 50 67 58 88 19
51 l-26 -24 4 91 c3 71 9 99 26 129 13 20 21 39 19 41 -10 11 -48 -32 -59 -68
l-12 -40 -22 48 -21 49 -12 -28 c-19 -48 -11 -73 16 -46 15 15 31 -33 36 -113
4 -53 1 -72 -14 -95 l-19 -28 0 46 c0 25 -7 54 -15 65 -14 18 -14 17 -15 -16
-1 -34 -2 -33 -15 15 -7 28 -18 61 -24 75 l-10 25 0 -24 c-1 -37 29 -143 51
-181 18 -31 54 -207 44 -217 -2 -2 -11 22 -20 54 -18 66 -41 108 -30 58 3 -16
13 -52 21 -78 8 -27 13 -50 10 -53 -13 -13 -45 68 -52 131 -8 72 -23 69 -25
-5 l0 -35 -20 25 c-11 14 -23 37 -26 52 -4 15 -12 32 -20 38 -10 9 -11 5 -3
-22 16 -59 69 -146 110 -181 21 -19 39 -37 39 -42 0 -11 -71 43 -102 79 -17
19 -27 25 -28 16 0 -24 31 -55 92 -93 62 -40 73 -59 72 -137 0 -46 -40 -135
-85 -190 l-20 -25 7 50 c4 28 6 65 5 84 -2 36 -26 91 -40 91 -14 0 -43 -107
-36 -132 4 -13 18 -43 31 -67 l24 -43 -20 -67 c-11 -36 -26 -94 -33 -129 l-13
-64 -43 62 -43 62 31 79 c28 72 31 91 31 188 l0 107 40 54 c22 29 40 55 40 56
0 7 -36 -10 -62 -28 -16 -11 -31 -31 -34 -44 -6 -22 -10 -16 -35 46 -34 85
-36 106 -8 115 54 18 108 92 79 110 -15 9 -90 -34 -100 -58 -8 -19 -9 -17 -9
13 -1 56 9 80 41 96 17 9 28 18 25 21 -3 2 -15 0 -26 -7 -12 -6 -21 -9 -21 -6
0 15 103 212 124 237 20 23 26 42 26 77 0 42 -1 45 -16 30 -9 -9 -20 -31 -24
-49 l-8 -34 -1 35 -2 35 -16 -29 c-10 -19 -13 -43 -10 -67 3 -26 0 -42 -9 -50
-8 -7 -16 -10 -18 -8 -14 16 -46 92 -46 111 0 13 -5 30 -11 38 -17 25 0 -76
22 -127 26 -61 24 -78 -16 -148 l-35 -60 0 38 c0 40 -16 51 -23 15 -3 -15 -5
-10 -6 13 0 20 4 50 10 68 16 45 4 50 -20 10 -33 -53 -26 -103 19 -154 16 -17
17 -28 8 -80 -5 -33 -7 -73 -4 -90 6 -29 3 -27 -49 27 -50 52 -55 60 -55 102
0 25 -4 46 -10 46 -5 0 -10 -7 -10 -16 0 -8 -4 -12 -10 -9 -6 3 -10 48 -10
100 0 85 2 96 25 123 25 30 30 60 16 96 -10 26 -16 14 -31 -59 l-12 -59 -19
36 c-10 20 -26 41 -35 46 -12 7 -15 19 -12 46 3 30 1 36 -14 36 -32 0 -22 -55
22 -120 31 -46 40 -68 40 -101 l0 -42 -19 24 c-10 13 -28 45 -39 72 -11 26
-26 47 -31 47 -14 0 -14 -36 1 -63 8 -15 -2 -10 -31 16 -57 51 -65 39 -12 -18
40 -43 41 -47 41 -112 0 -40 -10 -103 -23 -152 l-23 -84 -11 34 c-11 33 -11
33 -12 6 -1 -15 6 -43 13 -62 8 -19 13 -35 10 -35 -9 0 -82 49 -89 60 -8 13
-25 13 -25 -1 0 -25 78 -83 167 -126 84 -40 97 -49 133 -103 22 -32 40 -62 40
-66 0 -3 -18 10 -39 29 -44 40 -103 60 -159 55 l-37 -3 44 -15 c25 -8 38 -16
30 -19 -56 -23 -124 -104 -136 -161 l-6 -31 -22 40 c-60 104 -88 256 -71 373
6 42 11 48 53 70 26 13 48 29 51 36 3 9 -9 7 -36 -7 l-41 -21 27 58 c29 63 39
120 48 261 7 103 0 111 -36 41 -25 -48 -25 -90 -3 -153 16 -45 16 -49 0 -80
-24 -43 -55 -83 -60 -77 -3 3 -8 24 -12 47 -6 40 -5 43 21 53 23 9 25 13 14
20 -8 5 -23 7 -32 4 -27 -8 -22 11 7 30 16 10 25 26 25 41 0 31 -7 31 -37 3
-23 -21 -23 -21 -23 -1 0 11 9 32 21 47 11 14 19 36 17 48 -4 21 -6 19 -28
-16 l-23 -38 -14 27 c-17 32 -27 28 -15 -6 5 -13 13 -49 16 -79 4 -30 10 -64
12 -75 3 -11 -9 2 -27 29 -17 27 -41 58 -53 67 -18 16 -22 16 -32 3 -10 -12
-2 -25 43 -67 87 -82 88 -83 88 -305 0 -210 -1 -212 -51 -107 -21 45 -24 64
-24 183 0 101 -4 141 -17 170 -12 28 -17 32 -20 19 -3 -10 0 -32 6 -49 14 -38
14 -51 1 -43 -5 3 -14 32 -21 65 -6 33 -16 60 -20 60 -5 0 -9 -25 -9 -57 0
-44 5 -63 25 -89 22 -29 25 -42 25 -116 l-1 -83 -29 35 c-53 62 -32 13 44
-100 62 -92 70 -108 48 -96 -15 8 -75 37 -134 65 -60 28 -108 56 -108 61 0 6
12 15 26 21 25 9 26 11 10 28 -22 24 -10 55 41 112 l38 42 -39 -7 -39 -7 6 56
c9 86 -11 117 -33 51 -9 -29 -8 -40 5 -66 21 -40 17 -44 -21 -22 -69 39 -67
37 -60 78 6 29 22 53 62 92 44 42 54 59 54 85 0 46 26 80 57 74 16 -3 27 2 34
15 14 26 55 41 78 28 14 -7 23 -4 37 11 14 16 28 20 63 17 40 -3 44 -1 47 22
2 14 18 37 34 51 26 22 44 27 108 32 45 3 81 2 88 -4 9 -7 15 -5 22 7 9 15 14
16 36 6 23 -10 26 -10 26 9 0 37 41 96 83 119 47 27 130 32 191 11 22 -8 61
-34 87 -58 28 -26 53 -42 59 -38 7 4 25 -2 40 -14 l29 -21 20 34 c22 35 73 66
110 66 52 0 98 -47 72 -73 -21 -21 -11 -27 30 -21 35 6 41 4 46 -15 4 -16 13
-21 37 -21 37 0 70 -29 87 -78 10 -30 12 -31 32 -17 31 22 46 19 107 -19 30
-19 74 -46 97 -61 34 -21 46 -24 62 -16 25 14 81 14 101 1 8 -5 12 -10 8 -10
-4 0 0 -16 8 -35 7 -19 14 -50 14 -68 0 -19 7 -40 15 -47 8 -7 15 -18 15 -24
0 -8 11 -11 28 -9 34 5 109 -33 135 -68 27 -37 37 -92 25 -139 -12 -47 -2 -90
13 -52 10 26 18 27 44 8 14 -10 18 -24 17 -59 -2 -30 2 -46 11 -50 9 -3 13 2
13 17 -1 16 4 20 22 19 23 -3 28 6 13 22 -5 6 -11 24 -13 40 -2 22 -11 34 -33
45 -27 13 -30 19 -27 54 7 87 -62 182 -150 207 -54 16 -48 10 -59 60 -13 57
-45 107 -83 130 -38 23 -103 25 -134 3 -21 -15 -24 -13 -70 32 -50 50 -122 89
-152 81 -12 -3 -22 3 -29 19 -12 28 -67 64 -96 64 -24 1 -52 24 -83 68 -56 79
-160 88 -237 20 -43 -37 -65 -34 -122 20 -23 22 -63 47 -89 56 -65 22 -178 21
-229 -3z m-358 -433 c-2 -13 -4 -5 -4 17 -1 22 1 32 4 23 2 -10 2 -28 0 -40z
m1631 -1 c12 -13 27 -38 33 -56 10 -30 10 -36 -6 -47 -25 -19 -35 -9 -35 37 0
22 -7 51 -16 64 -20 31 -5 33 24 2z m-1441 -29 c30 -33 43 -63 43 -96 0 -64
30 -119 112 -204 53 -55 90 -104 110 -146 27 -56 30 -70 26 -140 -4 -71 -38
-182 -57 -182 -5 0 -80 134 -90 162 -2 6 3 9 11 5 10 -3 2 16 -19 51 l-35 57
7 95 c4 52 4 92 0 89 -3 -4 -14 -34 -23 -67 l-17 -61 -63 39 c-58 37 -62 42
-62 77 0 20 10 71 21 112 21 74 22 165 4 214 -10 24 8 21 32 -5z m1163 -8 c0
-5 -4 -10 -10 -10 -5 0 -10 5 -10 10 0 6 5 10 10 10 6 0 10 -4 10 -10z m-330
-93 c0 -6 11 -32 24 -57 39 -76 50 -117 36 -149 -14 -36 -67 -87 -102 -100
-27 -10 -28 -9 -28 22 0 19 11 67 25 107 26 76 31 110 17 110 -12 0 -56 -49
-50 -55 3 -3 13 6 22 21 29 44 29 19 0 -38 l-28 -53 -9 64 -9 64 43 38 c47 41
59 46 59 26z m-496 -88 c-27 -30 -55 -44 -48 -24 4 9 18 22 33 30 35 19 37 18
15 -6z m383 -135 l6 -100 -33 -37 c-18 -21 -42 -43 -54 -49 -13 -7 -10 -1 10
18 30 29 51 70 41 81 -3 3 -12 -9 -21 -25 -15 -29 -70 -82 -85 -82 -5 0 -6 23
-3 52 3 37 15 68 42 109 20 31 44 78 54 104 11 28 22 43 27 38 6 -6 12 -55 16
-109z m363 51 c0 -66 -30 -162 -70 -225 -16 -25 -55 -68 -87 -95 -97 -84 -91
-82 -86 -32 4 29 0 54 -11 74 -15 29 -14 33 6 59 19 25 17 24 -15 -6 -45 -42
-64 -99 -48 -149 14 -47 -1 -78 -82 -173 -36 -43 -80 -99 -98 -125 -35 -53
-158 -183 -173 -183 -11 0 -1 104 16 156 11 34 19 41 58 53 113 34 150 69 156
147 3 48 3 49 -5 9 -6 -27 -20 -49 -47 -72 -87 -75 -100 -63 -23 22 73 79 54
80 -25 1 -36 -35 -75 -70 -87 -76 -20 -11 -21 -10 -14 32 22 130 95 228 244
325 47 30 105 69 128 84 29 21 53 29 82 29 46 0 94 18 129 49 31 27 28 31 -19
31 -46 0 -71 -11 -113 -49 -21 -18 -15 -7 19 38 27 35 62 71 78 80 16 9 39 24
51 33 32 26 36 22 36 -37z m-1631 -20 c-3 -16 -16 -50 -27 -74 -23 -49 -26
-44 -37 51 l-7 56 39 -1 c39 -2 39 -3 32 -32z m1547 -70 c-11 -8 -27 -15 -35
-14 -9 0 -2 7 14 14 39 18 45 18 21 0z m-1539 -140 l46 -35 -64 -1 c-63 -1
-63 -1 -34 -15 19 -9 46 -12 73 -8 98 13 236 -54 281 -136 l24 -42 -44 25
c-24 14 -58 28 -76 32 -18 3 -42 14 -55 24 -13 9 -36 22 -53 29 -28 11 -27 9
13 -27 27 -25 38 -41 30 -44 -7 -3 1 -6 17 -6 43 -1 75 -27 75 -59 0 -68 74
-169 161 -220 72 -43 62 -20 -17 39 -57 42 -97 104 -110 174 l-7 38 29 -20
c45 -32 60 -53 93 -126 17 -38 40 -80 51 -94 11 -14 17 -29 14 -34 -3 -5 5
-13 18 -18 13 -6 17 -10 10 -10 -24 -2 -164 72 -193 102 -17 16 -43 57 -58 92
-30 65 -76 106 -119 102 -26 -2 -23 -22 14 -79 25 -39 39 -51 124 -105 l55
-34 -40 6 c-95 15 -156 38 -200 77 -54 48 -69 94 -62 191 2 37 3 67 1 67 -2 0
-8 -19 -14 -42 l-12 -41 -21 38 c-12 21 -33 45 -47 54 -25 16 -25 16 3 -18 33
-40 30 -48 -12 -26 -42 21 -39 4 5 -30 34 -26 43 -41 58 -95 6 -21 3 -19 -15
9 -13 20 -25 29 -27 22 -2 -7 11 -29 30 -49 33 -36 83 -112 72 -112 -3 0 -22
9 -43 19 -108 56 -166 221 -108 312 22 36 79 109 85 109 2 0 24 -16 49 -35z
m954 -94 c-8 -21 -9 -13 -9 39 0 62 0 63 9 26 6 -25 6 -49 0 -65z m1173 26
c18 -49 23 -74 16 -86 -9 -17 -108 -67 -116 -58 -2 2 7 26 21 53 29 57 30 61
10 44 -12 -10 -15 -9 -15 5 0 15 51 117 56 112 1 -1 14 -33 28 -70z m-793 -28
c-5 -13 -10 -19 -10 -12 -1 15 10 45 15 40 3 -2 0 -15 -5 -28z m-702 -6 c29
-27 92 -168 143 -318 21 -63 36 -242 24 -289 l-6 -26 -30 33 c-16 19 -72 64
-124 101 -111 79 -159 129 -192 201 -63 137 -45 274 41 311 53 23 111 18 144
-13z m728 -38 c-2 -19 -6 -37 -9 -40 -3 -3 -4 5 -3 17 1 13 3 31 4 41 0 9 3
17 6 17 3 0 4 -16 2 -35z m300 -57 c-2 -13 -4 -3 -4 22 0 25 2 35 4 23 2 -13
2 -33 0 -45z m-1483 -98 c8 -8 17 -26 21 -40 6 -21 -1 -17 -44 25 -28 27 -51
53 -51 58 0 10 56 -22 74 -43z m1600 -51 c-10 -11 -28 -26 -39 -31 -14 -8 -12
-2 9 21 33 34 61 44 30 10z m-2219 -3 c41 -18 101 -62 108 -80 4 -11 -1 -11
-31 0 -21 7 -51 13 -69 14 -17 0 -43 4 -58 10 -17 7 -24 7 -20 0 11 -19 67
-42 134 -56 64 -13 64 -14 13 -8 -61 6 -64 -10 -5 -20 102 -18 128 -34 249
-151 66 -63 138 -124 162 -135 24 -11 80 -25 125 -31 44 -6 87 -14 96 -18 19
-11 -206 -26 -260 -17 -93 15 -151 66 -215 186 -38 72 -88 120 -127 120 -32 0
-16 -42 28 -72 48 -33 59 -35 45 -7 -6 11 -10 25 -8 31 2 6 21 -24 42 -66 21
-42 36 -79 33 -82 -8 -8 -140 62 -161 85 -11 12 -36 51 -55 88 -20 36 -40 65
-46 65 -16 -1 -27 -60 -15 -82 13 -24 32 -27 23 -3 -4 9 10 -1 29 -23 20 -21
35 -40 33 -42 -5 -6 -79 28 -97 45 -9 8 -24 37 -33 64 -13 37 -23 51 -42 55
-13 4 -29 2 -35 -4 -6 -6 -18 -8 -26 -4 -17 6 10 -39 52 -87 l21 -24 -23 12
c-13 7 -26 10 -30 7 -8 -9 30 -35 51 -36 27 0 207 -81 207 -93 0 -6 -20 -7
-51 -4 -44 5 -49 4 -39 -8 10 -13 8 -15 -12 -15 -25 0 -67 25 -81 46 -13 22
-34 5 -29 -22 9 -46 92 -69 159 -43 15 6 51 11 79 12 41 1 61 -5 94 -27 23
-15 40 -30 37 -32 -3 -3 -31 -1 -62 5 -58 11 -101 3 -55 -10 23 -6 23 -7 3 -8
-12 -1 -34 -6 -50 -12 -24 -9 -26 -12 -11 -20 11 -6 41 -4 90 6 98 20 105 20
181 -15 78 -35 164 -49 302 -50 118 0 195 -17 259 -54 25 -15 46 -28 46 -30 0
-2 -35 7 -77 21 -109 35 -246 37 -358 4 -103 -30 -166 -25 -271 22 -44 19
-109 44 -145 56 -36 12 -81 33 -99 46 -40 29 -41 30 -33 9 11 -30 -52 12 -89
58 -53 67 -67 93 -79 150 -6 29 -18 64 -26 78 -13 24 -14 22 -9 -25 4 -34 3
-45 -4 -35 -9 13 -10 13 -10 0 0 -8 5 -22 10 -30 8 -12 10 -12 10 -1 0 8 3 12
6 8 3 -3 3 -11 -1 -16 -4 -8 -13 -6 -28 4 -28 20 -37 19 -37 -4 0 -21 19 -31
55 -31 18 0 31 -14 59 -64 42 -75 90 -120 145 -137 22 -7 50 -22 61 -34 12
-12 59 -35 105 -51 47 -16 85 -32 85 -36 0 -8 -90 -28 -127 -28 -18 0 -24 4
-19 15 7 20 -3 45 -20 45 -8 0 -11 -6 -8 -15 8 -20 -5 -19 -28 2 -10 9 -18 11
-18 5 0 -6 12 -20 26 -31 23 -18 24 -21 7 -21 -10 0 -39 10 -63 23 -33 16 -52
35 -71 71 -16 29 -29 43 -31 35 -4 -9 -12 -2 -24 20 -11 19 -26 41 -34 50 -8
9 -16 30 -18 45 -4 34 -40 86 -59 86 -15 0 -13 -6 21 -55 18 -27 15 -25 -29
12 -50 43 -62 42 -51 -2 4 -17 25 -36 64 -57 31 -18 60 -32 64 -31 4 2 5 -3 2
-10 -3 -9 -17 -12 -37 -10 -120 14 -114 11 -141 58 -23 42 -24 47 -9 76 11 23
13 36 5 52 l-10 22 -10 -25 c-11 -25 -11 -25 -11 7 -1 35 -16 51 -25 27 -10
-25 -7 -47 10 -79 l15 -30 -30 29 c-32 30 -51 28 -51 -7 0 -14 18 -38 47 -64
l48 -42 -52 -1 c-41 0 -58 5 -82 26 -17 14 -30 33 -29 42 2 8 -3 17 -9 19 -34
12 1 -88 36 -107 25 -13 76 -13 121 0 32 9 37 8 70 -25 l35 -35 -40 1 c-22 0
-62 4 -90 8 -37 7 -56 5 -75 -6 l-25 -14 30 5 c62 9 215 -22 304 -63 166 -76
273 -90 393 -50 l63 20 45 -20 c44 -20 44 -20 18 -30 -67 -25 -122 -33 -223
-32 -117 1 -152 5 -229 27 -27 8 -79 14 -115 14 -80 0 -111 8 -111 27 0 8 -13
28 -29 44 -41 40 -91 40 -132 0 -29 -30 -37 -55 -20 -66 5 -3 12 4 16 15 4 11
18 28 31 37 24 15 28 15 74 -7 51 -24 63 -39 33 -41 -16 0 -2 -7 55 -25 10 -3
5 -14 -17 -39 -49 -56 -36 -63 19 -11 l50 46 66 -5 c76 -6 122 -24 64 -25 -43
-1 -108 -30 -135 -60 l-20 -23 30 7 c17 4 38 9 48 12 16 5 18 2 12 -18 -10
-34 -52 -68 -85 -68 -28 0 -60 22 -60 41 0 5 -15 9 -33 9 -44 0 -67 18 -76 60
-7 35 -19 45 -64 55 -47 10 -67 39 -67 96 0 29 7 63 16 79 16 27 16 29 -10 62
-32 42 -34 86 -5 122 15 20 29 26 48 24 23 -3 26 0 23 25 -2 15 2 35 9 44 7 8
18 25 24 37 14 27 86 35 121 12 23 -16 23 -16 14 9 -8 20 -6 27 5 31 10 4 13
14 9 30 -4 17 1 30 21 50 24 24 32 26 80 21 46 -5 54 -3 58 14 4 13 14 19 36
19 29 0 30 1 19 26 -10 21 -9 27 3 35 21 13 85 11 124 -5z m1774 -191 c14 -13
23 -26 20 -29 -8 -8 -158 27 -153 36 21 34 96 30 133 -7z m-1854 -43 c-7 -7
-45 28 -57 53 -7 12 3 7 26 -14 19 -19 34 -37 31 -39z m1646 -9 c-28 -38 -41
-107 -34 -174 4 -37 0 -74 -10 -110 -18 -60 -84 -172 -97 -164 -5 3 -16 50
-26 105 -10 56 -21 97 -27 93 -11 -6 -2 -95 19 -195 13 -62 12 -72 -5 -114
l-18 -47 -13 136 c-21 224 -9 300 64 390 47 59 145 125 164 111 2 -1 -5 -15
-17 -31z m84 -4 c28 -17 47 -20 83 -16 26 2 54 8 63 11 23 10 31 -18 19 -64
-14 -53 -42 -84 -108 -121 -31 -18 -72 -43 -90 -57 -18 -13 -35 -22 -37 -21
-2 2 -6 54 -10 114 -6 100 -4 113 14 143 11 17 23 32 25 32 3 0 21 -10 41 -21z
m54 15 c17 -4 31 -11 31 -15 0 -10 -45 -2 -70 12 -18 10 -3 11 39 3z m951 -59
c0 -25 -56 -107 -85 -125 -44 -27 -55 -20 -26 16 22 28 28 54 11 54 -5 0 -15
-9 -22 -20 -7 -11 -16 -20 -19 -20 -11 0 -30 53 -22 61 13 13 163 44 163 34z
m-1937 -75 l6 -35 -14 30 c-8 17 -14 41 -14 55 0 22 1 23 8 5 4 -11 11 -36 14
-55z m1765 1 c18 -59 15 -74 -25 -112 -51 -49 -83 -69 -108 -69 -11 1 -64 20
-118 44 -101 45 -105 54 -22 56 17 1 55 9 85 19 l55 18 -37 8 c-21 4 -38 11
-38 16 0 12 -47 11 -55 -1 -3 -5 4 -10 17 -11 27 -1 -32 -22 -97 -33 l-40 -8
37 26 c21 14 52 36 69 48 26 19 47 24 137 29 59 3 112 6 118 7 6 1 16 -15 22
-37z m-2912 -23 c44 -51 47 -61 7 -28 -24 19 -43 38 -43 43 0 14 17 7 36 -15z
m1759 -100 c-3 -43 0 -142 9 -238 18 -183 19 -310 6 -385 -20 -107 -20 -139 0
-60 11 44 23 129 28 188 5 59 13 112 18 117 15 15 -13 -319 -32 -383 -10 -35
-20 -53 -25 -46 -10 17 -11 -567 -1 -661 5 -41 6 -104 2 -140 l-6 -65 -14 45
c-23 71 -21 838 2 1015 21 153 22 231 4 420 -12 131 -12 187 0 243 10 48 15
18 9 -50z m865 -38 c107 -39 120 -46 100 -60 -8 -5 -40 -19 -70 -31 -63 -24
-134 -27 -345 -15 -117 7 -149 6 -194 -8 -106 -31 -184 -96 -231 -190 -13 -28
-20 -34 -20 -20 0 69 175 281 280 338 71 39 61 20 -19 -37 -37 -26 -85 -66
-107 -89 l-39 -41 65 45 c79 56 148 91 218 111 l52 16 0 -25 c0 -31 51 -64
101 -64 38 0 134 29 125 38 -3 2 -32 -1 -64 -8 -50 -10 -63 -10 -98 5 -35 14
-37 17 -21 27 11 6 42 7 75 4 32 -4 77 -9 102 -12 37 -4 42 -3 26 7 -28 17
-115 39 -166 40 -44 2 -44 2 -10 8 55 10 148 -5 240 -39z m-2354 -23 c11 -17
28 -44 38 -59 l17 -26 -87 38 c-49 20 -94 47 -102 59 -14 21 -14 21 49 21 61
0 65 -2 85 -33z m924 23 c15 -6 -8 -7 -60 -3 -47 3 -87 7 -89 9 -9 8 125 2
149 -6z m-680 -35 c14 -8 21 -14 15 -14 -5 0 -21 6 -35 14 -14 8 -20 14 -15
14 6 0 21 -6 35 -14z m3038 -7 c-10 -16 -27 -24 -52 -26 -20 -2 -36 1 -36 6 0
6 57 30 99 41 2 1 -3 -9 -11 -21z m-486 -75 l20 -21 -39 -25 c-66 -44 -146
-62 -268 -61 -92 0 -120 4 -170 25 l-60 24 130 6 c96 4 140 11 170 24 36 17
38 19 16 23 -13 2 -43 -1 -67 -7 -23 -6 -64 -11 -91 -11 l-48 0 60 27 c44 19
87 28 160 34 55 4 114 11 130 16 26 9 30 7 33 -11 2 -12 13 -31 24 -43z m421
20 c28 -17 -57 -32 -97 -17 -21 8 -20 21 2 27 18 5 81 -1 95 -10z m-2243 -2
c131 -22 219 -73 304 -176 76 -94 104 -170 98 -267 -3 -47 -18 -31 -37 38 -28
105 -69 177 -136 238 -33 31 -71 59 -84 62 -14 3 -25 10 -25 15 0 4 -12 15
-27 24 -27 15 -27 16 -3 9 97 -26 194 -110 248 -214 17 -34 32 -58 32 -51 0
27 -55 118 -101 166 -27 28 -71 64 -98 79 -91 49 -276 69 -426 47 -130 -20
-149 -22 -143 -16 13 13 224 53 283 54 33 0 85 -3 115 -8z m481 -194 c1 -48
-1 -90 -4 -94 -4 -3 -7 32 -7 79 0 47 -2 107 -5 134 -4 48 -4 48 5 9 5 -22 10
-79 11 -128z m-856 78 c-44 -36 -145 -85 -190 -91 -22 -3 -54 -12 -72 -20 -17
-8 -41 -14 -53 -14 -26 0 -55 -15 -94 -47 -35 -29 -42 -24 -21 16 9 18 30 37
51 46 19 8 54 28 77 44 23 16 53 32 67 35 24 7 24 6 -2 -9 -37 -21 -35 -31 6
-33 24 -1 40 6 57 24 34 37 76 57 134 65 28 3 55 7 60 8 6 0 -3 -10 -20 -24z
m1735 -20 c47 -19 97 -35 111 -35 51 0 88 -21 123 -70 l35 -48 -35 -7 c-20 -3
-42 -9 -50 -12 -10 -4 -13 1 -12 18 2 16 -3 24 -16 27 -12 3 -16 0 -11 -8 5
-8 3 -11 -6 -8 -8 3 -13 11 -11 17 1 7 -1 10 -6 7 -18 -11 -110 44 -162 98
-30 31 -52 56 -50 56 3 0 43 -16 90 -35z m-890 -407 c0 -106 1 -251 2 -323 1
-71 -2 -215 -6 -320 -9 -212 -2 -276 40 -362 37 -76 112 -154 186 -193 85 -45
117 -70 134 -102 22 -43 17 -45 -23 -6 -21 20 -71 54 -110 76 -99 55 -156 105
-188 163 -14 27 -28 49 -31 49 -9 0 36 -78 71 -125 33 -43 60 -95 86 -165 l9
-25 -20 25 c-55 67 -170 230 -189 268 -35 70 -53 158 -54 271 -1 100 3 143 40
436 24 193 42 395 43 463 0 34 2 62 5 62 2 0 4 -87 5 -192z m-74 -105 c-12
-131 -66 -366 -81 -351 -2 2 10 55 26 118 17 63 35 159 42 213 6 53 13 97 16
97 2 0 1 -35 -3 -77z m-39 -345 c-3 -8 -6 -5 -6 6 -1 11 2 17 5 13 3 -3 4 -12
1 -19z m-22 -105 c-20 -95 -48 -144 -113 -205 -61 -57 -81 -67 -208 -107 -115
-35 -166 -68 -307 -199 -59 -55 -100 -85 -125 -91 -73 -19 -168 -41 -238 -55
-99 -21 -152 -44 -279 -120 -63 -38 -143 -77 -188 -91 -89 -29 -127 -32 -52
-6 73 26 170 77 250 131 127 86 199 112 395 145 131 22 166 40 250 129 93 97
184 158 285 192 154 51 191 82 255 214 49 101 44 68 -6 -40 -19 -41 -49 -88
-67 -103 -19 -17 -23 -24 -11 -18 61 30 129 141 154 254 7 31 15 55 18 53 2
-3 -3 -40 -13 -83z m-62 -261 c-40 -49 -146 -105 -260 -136 -145 -40 -184 -65
-301 -186 -95 -100 -164 -160 -236 -206 -51 -32 -25 -3 129 147 202 196 252
232 379 269 121 36 228 88 276 132 44 41 52 28 13 -20z m660 -88 c45 -14 102
-39 127 -55 52 -33 117 -96 107 -105 -9 -9 -65 16 -80 35 -25 35 -85 70 -160
95 -102 33 -157 66 -190 113 -45 65 -31 66 44 4 56 -48 87 -65 152 -87z m132
9 c27 -13 79 -48 115 -77 89 -72 114 -83 212 -96 155 -19 273 -69 458 -195
174 -118 245 -147 445 -179 l90 -15 -89 6 c-151 9 -258 45 -393 130 -219 140
-326 188 -485 218 -133 25 -149 32 -224 89 -76 58 -141 94 -227 126 -29 11
-62 27 -73 34 -30 23 110 -11 171 -41z m-860 -104 c-21 -40 -86 -104 -127
-125 -18 -9 -55 -32 -81 -51 -45 -32 -48 -33 -42 -11 11 35 23 46 88 81 34 17
86 55 117 84 30 29 56 52 58 53 1 0 -5 -14 -13 -31z m-60 -5 c-16 -14 -55 -36
-85 -49 l-55 -25 30 25 c27 22 122 75 135 74 3 0 -8 -11 -25 -25z m471 -38
c-6 -41 -5 -44 30 -72 21 -16 69 -45 108 -64 41 -20 72 -42 74 -52 3 -14 -10
-11 -70 18 -40 20 -87 47 -104 60 -41 30 -66 83 -58 123 10 49 27 38 20 -13z
m40 -11 c18 -28 10 -53 -12 -34 -13 10 -20 59 -9 59 2 0 12 -11 21 -25z m-287
-58 c-2 -2 -30 -18 -62 -36 -85 -48 -127 -116 -127 -206 0 -51 -20 -105 -51
-138 l-29 -32 27 53 c20 41 28 75 33 140 4 59 12 96 25 115 16 26 94 87 110
87 4 0 18 9 33 20 17 14 29 17 36 10 5 -5 8 -11 5 -13z m863 2 c123 -31 225
-86 250 -134 10 -19 10 -19 -8 -4 -36 31 -179 96 -248 113 -71 18 -129 46 -92
46 10 0 54 -9 98 -21z m-857 -54 c-103 -60 -132 -145 -77 -221 44 -60 58 -69
71 -45 12 22 13 120 1 166 -6 25 -8 26 -9 7 -1 -30 -21 -18 -21 13 0 23 23 55
39 55 13 0 44 -160 37 -193 -4 -18 -17 -48 -31 -69 l-24 -37 -32 27 c-61 51
-90 87 -100 127 -13 48 0 102 33 132 35 32 122 73 127 60 2 -6 -4 -16 -14 -22z
m910 -56 c28 -15 91 -39 140 -54 82 -24 211 -83 202 -92 -2 -2 -26 6 -53 16
-27 11 -94 33 -149 50 -62 18 -125 46 -163 70 -92 60 -79 66 23 10z m270 1
c28 -10 94 -32 148 -49 84 -26 194 -77 185 -86 -2 -2 -59 16 -128 40 -69 23
-136 46 -150 50 -16 5 -1 -12 40 -44 110 -87 133 -100 203 -117 37 -9 66 -18
64 -20 -11 -11 -134 19 -166 40 -118 83 -177 127 -186 139 -5 8 -29 26 -52 40
-44 28 -57 45 -25 32 9 -4 40 -15 67 -25z m-2150 -85 c-33 -14 -79 -38 -103
-55 -29 -20 -40 -24 -33 -13 26 49 99 92 156 92 l40 1 -60 -25z m2667 -1 c15
-8 28 -22 28 -30 0 -12 -7 -14 -32 -9 -43 10 -78 23 -78 30 0 3 12 2 28 -1 35
-9 21 7 -21 24 l-32 12 40 -6 c21 -3 52 -12 67 -20z m-1962 -123 c-15 -58 -51
-95 -116 -120 -31 -11 -86 -41 -123 -66 -62 -41 -149 -80 -158 -71 -10 10 39
87 70 110 18 14 76 45 128 69 103 48 141 82 180 164 l24 48 3 -47 c2 -26 -2
-65 -8 -87z m-1175 94 c-75 -44 -232 -95 -288 -94 -41 0 -40 1 24 17 36 10 89
33 117 51 66 42 116 60 167 60 l40 0 -60 -34z m345 16 c0 -5 -24 -15 -52 -22
-46 -10 -73 -19 -173 -54 -11 -4 2 8 28 26 66 44 197 78 197 50z m1428 -84
c103 -105 71 -192 -103 -287 l-60 -33 87 82 c66 62 89 90 94 116 7 38 -14 90
-52 126 -24 23 -31 39 -16 39 4 0 27 -19 50 -43z m1647 2 c36 -14 -25 -9 -70
6 l-40 14 45 -6 c25 -3 54 -9 65 -14z m-2360 -28 c-19 -18 -144 -66 -151 -58
-4 3 147 72 166 76 2 1 -4 -7 -15 -18z m-705 -10 c-31 -10 -256 -24 -248 -16
3 3 25 9 49 14 55 11 234 12 199 2z m1793 -152 c16 -21 27 -43 25 -50 -2 -9
-34 17 -79 63 l-75 77 50 -27 c27 -15 63 -43 79 -63z m-676 -42 c-8 -19 -43
-65 -77 -103 -90 -99 -115 -156 -115 -267 0 -48 -4 -87 -8 -87 -4 0 -17 21
-29 47 -43 98 -1 203 144 358 50 53 92 94 95 91 2 -2 -2 -19 -10 -39z m-317
-11 c0 -2 -8 -10 -17 -17 -16 -13 -17 -12 -4 4 13 16 21 21 21 13z m-52 -193
c-23 -32 -68 -87 -98 -123 -31 -36 -65 -77 -77 -92 -23 -31 -33 -27 -33 11 0
90 54 160 170 221 41 22 76 40 78 40 1 0 -16 -26 -40 -57z"/>
<path d="M2238 3889 c-28 -21 -39 -54 -16 -47 11 4 55 69 46 68 -1 0 -15 -10
-30 -21z"/>
<path d="M2363 3786 c-15 -33 -16 -41 -3 -78 8 -23 21 -43 28 -46 11 -3 10 3
-2 26 -17 34 -22 87 -6 77 5 -3 12 -22 16 -42 7 -36 7 -36 16 -13 10 28 4 64
-17 93 -13 19 -15 18 -32 -17z"/>
<path d="M1740 3594 c37 -16 140 -51 140 -48 0 9 -80 43 -115 48 -22 3 -33 3
-25 0z"/>
<path d="M1770 3490 c8 -5 20 -10 25 -10 6 0 3 5 -5 10 -8 5 -19 10 -25 10 -5
0 -3 -5 5 -10z"/>
<path d="M2200 3548 c24 -19 66 -23 90 -8 23 15 4 23 -56 25 -57 2 -57 1 -34
-17z"/>
<path d="M2197 3397 l-29 -12 37 -37 c44 -46 61 -51 149 -41 l69 8 -28 33
c-15 18 -40 39 -56 47 -34 18 -103 19 -142 2z m138 -27 c37 -24 35 -24 -40 0
-55 17 -57 19 -25 19 19 1 49 -8 65 -19z m-55 -41 c35 -7 35 -7 4 -8 -16 0
-39 6 -50 15 -10 8 -12 12 -4 8 8 -4 30 -11 50 -15z"/>
<path d="M1500 3021 c11 -21 47 -37 58 -26 9 9 -35 45 -54 45 -11 0 -12 -4 -4
-19z"/>
<path d="M945 2684 c36 -31 68 -44 102 -44 l26 0 -23 25 c-23 25 -76 45 -115
45 -17 -1 -16 -4 10 -26z"/>
<path d="M838 2615 c-9 -10 4 -55 16 -55 7 0 23 11 36 25 23 25 23 25 3 25
-12 0 -28 2 -35 5 -8 3 -17 3 -20 0z"/>
<path d="M3460 2860 c18 -12 68 -12 95 0 14 6 0 9 -45 9 -45 1 -60 -2 -50 -9z"/>
<path d="M2496 1924 c-4 -10 -9 -45 -11 -78 l-5 -61 15 74 c14 73 14 100 1 65z"/>
<path d="M2471 1754 c0 -11 3 -14 6 -6 3 7 2 16 -1 19 -3 4 -6 -2 -5 -13z"/>
<path d="M2589 985 c5 -11 17 -29 26 -40 l16 -20 -10 20 c-5 11 -17 29 -26 40
l-16 20 10 -20z"/>
<path d="M2478 4566 c-70 -26 -109 -58 -114 -96 -1 -8 -6 -32 -9 -52 -4 -20
-4 -45 -1 -55 6 -14 12 -5 25 36 22 64 46 98 92 129 61 43 153 18 194 -51 14
-23 19 -26 31 -16 13 10 10 17 -18 46 -60 63 -133 84 -200 59z m-78 -60 c0 -2
-8 -10 -17 -17 -16 -13 -17 -12 -4 4 13 16 21 21 21 13z"/>
<path d="M2424 4378 c-32 -35 -65 -140 -80 -252 -19 -140 -19 -138 27 -187
l41 -44 -33 47 c-29 44 -31 51 -25 100 4 29 11 85 15 125 5 60 12 80 44 126
26 38 37 64 35 82 l-3 27 -21 -24z"/>
<path d="M3197 4250 c-15 -32 -16 -33 -17 -10 -1 25 -1 25 -12 3 -13 -26 -3
-86 17 -103 11 -9 16 -4 25 27 6 21 10 56 8 78 l-4 40 -17 -35z"/>
<path d="M2583 4194 c-7 -19 15 -62 39 -75 15 -8 18 -6 19 13 2 40 -3 63 -15
70 -18 12 -36 9 -43 -8z"/>
<path d="M2097 4123 c-21 -40 -21 -72 -1 -102 13 -18 18 -20 25 -10 11 17 10
97 0 124 -7 18 -9 17 -24 -12z"/>
<path d="M1747 4103 c-11 -10 -8 -71 3 -78 6 -4 10 12 10 39 0 47 -2 51 -13
39z"/>
<path d="M3558 4043 c12 -2 30 -2 40 0 9 3 -1 5 -23 4 -22 0 -30 -2 -17 -4z"/>
<path d="M3512 3960 c0 -19 2 -27 5 -17 2 9 2 25 0 35 -3 9 -5 1 -5 -18z"/>
<path d="M1970 3813 c0 -14 41 -78 58 -90 18 -15 71 -17 91 -4 11 7 4 11 -25
16 -39 7 -90 33 -81 41 2 3 16 0 31 -6 40 -15 23 6 -24 30 -43 22 -50 24 -50
13z"/>
<path d="M1300 3794 c0 -20 18 -54 44 -82 21 -24 85 -56 94 -48 2 3 -15 37
-39 76 -37 59 -48 70 -71 70 -19 0 -28 -5 -28 -16z m75 -54 c13 -18 23 -36 20
-38 -8 -8 -46 30 -62 61 -13 26 -13 28 1 20 9 -5 27 -24 41 -43z"/>
<path d="M3252 3546 c-12 -7 -20 -15 -16 -19 11 -10 -25 -57 -52 -67 -18 -7
-24 -17 -24 -42 l0 -32 36 35 c32 30 90 126 82 134 -2 2 -13 -2 -26 -9z"/>
<path d="M3153 3501 c-71 -39 -139 -99 -204 -178 -29 -37 -74 -89 -99 -117
-60 -65 -18 -45 62 30 53 50 60 54 105 53 26 0 57 -4 67 -8 16 -6 13 -10 -22
-24 -24 -9 -57 -17 -75 -18 -30 0 -30 -1 -10 -11 32 -15 89 -1 125 31 l32 28
-29 15 -29 16 33 7 c41 9 48 0 57 -73 12 -98 -10 -182 -68 -264 -28 -40 -6
-34 31 7 49 56 64 94 69 176 3 61 0 85 -15 121 l-20 44 34 38 c38 41 37 63 0
28 -13 -12 -31 -22 -41 -22 -13 0 -17 -6 -14 -18 5 -19 3 -19 -142 -48 -21 -4
-15 5 35 56 33 34 85 80 115 103 73 54 76 57 65 57 -6 0 -33 -13 -62 -29z"/>
<path d="M3497 3494 c-13 -13 -7 -61 9 -74 12 -11 18 -10 31 3 13 13 15 23 7
44 -9 27 -33 41 -47 27z m30 -56 c-3 -8 -6 -5 -6 6 -1 11 2 17 5 13 3 -3 4
-12 1 -19z"/>
<path d="M1150 3441 c0 -17 42 -61 58 -61 9 0 29 -6 43 -14 24 -12 26 -12 22
5 -8 29 -70 79 -98 79 -14 0 -25 -4 -25 -9z"/>
<path d="M3860 3245 c7 -9 29 -15 54 -15 23 0 49 -6 58 -12 9 -7 26 -44 38
-83 l20 -70 61 0 c57 0 59 1 39 17 -12 10 -18 23 -14 32 7 19 4 19 -30 6 -30
-11 -44 3 -25 26 10 12 6 19 -17 40 -21 19 -25 27 -15 31 22 9 -89 43 -137 43
-38 0 -43 -2 -32 -15z"/>
<path d="M3540 3126 c-12 -33 -13 -46 -1 -46 9 0 24 60 16 68 -2 3 -9 -7 -15
-22z"/>
<path d="M3358 3053 c7 -3 16 -2 19 1 4 3 -2 6 -13 5 -11 0 -14 -3 -6 -6z"/>
<path d="M2045 3021 c24 -47 62 -71 112 -71 31 0 45 5 50 17 12 32 -81 83
-151 83 -26 0 -26 0 -11 -29z m130 -38 c19 -13 18 -14 -10 -7 -37 8 -82 30
-90 44 -8 12 71 -17 100 -37z"/>
<path d="M2220 2955 c0 -16 31 -63 59 -89 l31 -30 0 32 c0 21 -10 42 -30 64
l-31 33 26 -39 c35 -54 32 -68 -4 -18 -29 39 -51 60 -51 47z"/>
<path d="M3100 2577 c0 -2 20 -18 45 -36 33 -23 54 -31 77 -29 51 5 47 28 -5
28 -36 0 -46 4 -50 20 -4 15 -14 20 -36 20 -17 0 -31 -1 -31 -3z"/>
<path d="M1196 2529 c-40 -10 -76 -34 -76 -52 0 -12 42 -1 103 26 73 34 60 46
-27 26z"/>
<path d="M1855 2503 c-4 -21 -9 -45 -11 -53 -2 -8 1 -22 6 -30 8 -13 10 -12
10 3 0 10 11 29 24 42 20 20 22 27 12 46 -18 37 -34 34 -41 -8z"/>
<path d="M2044 2532 c4 -7 2 -28 -4 -48 -13 -40 -44 -57 -89 -48 -34 7 -46 -7
-31 -36 18 -34 88 -22 129 21 26 28 28 91 4 110 -12 10 -15 10 -9 1z"/>
<path d="M3685 2489 c-10 -15 -4 -18 56 -35 74 -19 85 -19 68 3 -28 33 -110
55 -124 32z"/>
<path d="M1629 2451 c-46 -29 -94 -80 -84 -89 3 -3 17 5 32 19 29 26 22 7 -10
-28 -26 -29 -14 -42 20 -23 25 14 101 136 91 145 -2 3 -25 -8 -49 -24z"/>
<path d="M1685 2390 c-44 -44 -53 -58 -35 -53 29 8 100 77 100 98 0 8 -1 15
-3 15 -1 0 -29 -27 -62 -60z"/>
<path d="M2858 2424 c-16 -8 -28 -16 -28 -18 0 -2 23 -1 50 2 42 4 56 0 91
-22 22 -15 39 -29 37 -31 -2 -2 -34 5 -71 17 -108 32 -149 8 -88 -53 25 -24
37 -29 78 -28 l48 0 -40 13 c-47 15 -89 36 -83 42 3 2 24 -2 49 -10 24 -8 68
-16 97 -19 l52 -4 -24 41 c-44 76 -109 103 -168 70z"/>
<path d="M1756 2381 c-19 -21 -19 -72 0 -78 7 -2 24 7 39 20 23 19 27 29 21
50 -8 32 -35 36 -60 8z"/>
<path d="M2074 2093 c4 -5 29 -13 54 -20 l47 -12 -45 4 c-25 3 -63 7 -85 11
-38 5 -39 5 -20 -11 40 -34 100 -55 158 -55 31 0 57 4 57 8 0 14 -54 60 -83
71 -32 12 -94 15 -83 4z"/>
<path d="M3907 2059 c-10 -25 -17 -63 -15 -85 l3 -39 18 33 c12 23 17 49 15
85 l-3 52 -18 -46z"/>
<path d="M3170 2033 c-20 -7 -60 -44 -60 -55 0 -4 18 3 40 17 22 14 44 25 49
25 5 0 13 5 16 10 7 11 -20 12 -45 3z"/>
<path d="M4607 2029 c-83 -19 -181 -85 -229 -152 -20 -28 -18 -27 32 12 92 73
232 131 316 131 16 0 36 5 44 10 19 12 -109 12 -163 -1z"/>
<path d="M540 2012 c0 -4 30 -18 68 -31 37 -12 74 -25 82 -28 24 -10 -21 37
-52 53 -29 15 -98 19 -98 6z"/>
<path d="M725 1971 c-6 -11 1 -16 35 -24 14 -4 51 -22 83 -41 l58 -35 -32 40
c-17 22 -44 46 -60 54 -32 17 -75 20 -84 6z"/>
<path d="M2607 1670 c-19 -147 -4 -255 50 -368 27 -57 58 -98 140 -184 124
-130 142 -165 143 -266 0 -123 14 -137 243 -237 173 -75 194 -86 272 -146 37
-28 69 -48 72 -45 9 9 -46 75 -91 108 -58 42 -117 70 -226 108 -119 41 -210
84 -232 111 -16 19 -26 79 -13 79 2 0 45 -27 95 -59 172 -113 580 -251 742
-251 80 0 153 -18 233 -57 l50 -24 -30 26 c-60 51 -113 67 -235 75 -71 5 -136
15 -170 27 -30 11 -89 28 -130 38 -105 25 -308 108 -397 162 -55 33 -87 62
-119 105 -24 33 -44 65 -44 70 0 6 -16 33 -35 60 -24 33 -30 46 -17 39 25 -13
41 -33 79 -100 27 -47 32 -52 33 -30 0 45 -29 123 -60 161 -19 23 -61 51 -114
78 -98 47 -155 104 -192 186 -31 70 -31 95 0 29 26 -58 64 -105 108 -136 27
-20 26 -16 -16 40 -63 86 -103 222 -129 431 -1 14 -6 1 -10 -30z m20 -242 c-3
-8 -6 -5 -6 6 -1 11 2 17 5 13 3 -3 4 -12 1 -19z"/>
<path d="M1548 1674 c-44 -23 -33 -30 36 -26 54 4 74 0 122 -22 54 -25 56 -25
38 -5 -27 30 -108 69 -141 69 -15 -1 -40 -8 -55 -16z"/>
<path d="M3617 1264 c-3 -3 -65 -9 -139 -13 -122 -7 -130 -8 -103 -20 31 -14
97 -16 270 -11 83 3 126 -2 250 -28 83 -18 191 -35 240 -38 92 -7 97 -6 305
51 112 31 250 19 445 -39 50 -15 123 -30 163 -33 62 -5 72 -4 72 10 0 16 -10
20 -83 32 -21 3 -102 25 -180 48 -133 39 -150 41 -267 42 -114 0 -134 -3 -233
-34 -103 -32 -115 -33 -220 -28 -64 3 -180 18 -270 36 -151 29 -237 38 -250
25z"/>
<path d="M2880 526 c0 -28 -12 -79 -31 -126 -17 -44 -29 -85 -27 -91 7 -22 69
111 75 161 3 27 8 50 10 50 19 0 64 -35 69 -54 9 -38 -4 -66 -60 -126 -70 -75
-90 -100 -82 -100 4 0 28 21 53 47 l47 48 7 -45 c4 -25 12 -56 17 -70 10 -24
11 -24 11 10 0 19 -6 51 -13 70 -11 33 -10 38 16 72 15 20 31 49 34 66 11 53
-35 111 -100 128 -25 6 -26 5 -26 -40z"/>
<path d="M3534 532 c4 -7 13 -12 19 -12 25 0 222 -92 268 -125 62 -44 65 -28
4 18 -74 57 -313 154 -291 119z"/>
<path d="M1694 308 c-33 -35 -70 -79 -83 -98 -16 -24 -3 -15 41 30 58 60 115
130 105 130 -2 0 -31 -28 -63 -62z"/>
<path d="M2364 268 c-34 -65 -25 -268 11 -268 10 0 10 7 -1 38 -7 20 -13 71
-13 112 0 41 6 92 13 113 17 46 12 48 -10 5z"/>
<path d="M3211 253 c12 -23 49 -68 82 -100 l61 -58 -60 70 c-32 39 -69 84 -82
100 l-23 30 22 -42z"/>
</g>
</svg>