<?xml version="1.0" standalone="no"?>
<!DOCTYPE svg PUBLIC "-//W3C//DTD SVG 20010904//EN"
 "http://www.w3.org/TR/2001/REC-SVG-20010904/DTD/svg10.dtd">
<svg version="1.0" xmlns="http://www.w3.org/2000/svg"
 width="512.000000pt" height="512.000000pt" viewBox="0 0 512.000000 512.000000"
 preserveAspectRatio="xMidYMid meet">
<metadata>
Created by potrace 1.16, written by Peter Selinger 2001-2019
</metadata>
<g transform="translate(0.000000,512.000000) scale(0.100000,-0.100000)"
fill="#000000" stroke="none">
<path d="M2684 4990 c-40 -16 -74 -68 -74 -114 0 -48 19 -80 60 -101 53 -28
120 -11 154 37 21 30 20 102 -1 135 -28 42 -92 62 -139 43z"/>
<path d="M870 4568 c0 -7 36 -47 80 -88 l80 -75 -12 -42 c-36 -127 112 -260
236 -213 23 8 32 4 83 -44 55 -51 57 -55 45 -80 -17 -38 -15 -102 4 -142 34
-71 126 -103 198 -69 l37 18 29 -34 c16 -19 64 -80 107 -136 43 -56 81 -102
86 -103 16 0 5 26 -40 89 -138 194 -152 220 -152 277 2 96 -61 164 -150 164
-26 0 -53 -6 -60 -12 -10 -11 -21 -4 -53 32 -64 71 -70 83 -58 114 13 35 13
107 -1 143 -38 100 -175 150 -252 90 l-32 -25 -75 67 c-87 78 -100 87 -100 69z"/>
<path d="M3422 4424 c-7 -8 -24 -39 -38 -68 -21 -46 -29 -55 -58 -60 -50 -9
-96 -68 -96 -121 0 -66 53 -115 126 -115 39 0 51 5 79 33 38 38 50 74 41 113
-7 27 -51 77 -75 85 -10 4 -7 19 13 68 28 65 31 90 8 65z"/>
<path d="M2469 4413 c-98 -61 -70 -209 44 -237 40 -10 111 24 131 63 32 62 6
148 -54 178 -34 17 -90 16 -121 -4z"/>
<path d="M652 4250 c-50 -31 -74 -76 -68 -129 15 -112 135 -167 220 -100 l26
21 95 -62 c52 -33 100 -58 105 -55 6 3 -14 22 -42 42 -29 19 -72 50 -95 70
-41 32 -43 37 -43 86 0 65 -27 113 -75 133 -47 19 -84 18 -123 -6z"/>
<path d="M2975 4250 c-6 -8 -32 -82 -60 -164 -49 -146 -51 -149 -85 -160 -54
-17 -83 -68 -78 -137 3 -37 12 -66 27 -87 l22 -32 -25 -88 c-14 -48 -34 -129
-46 -180 -11 -52 -28 -108 -37 -125 -9 -18 -35 -104 -58 -193 -33 -126 -40
-170 -35 -205 l7 -44 35 75 c20 41 46 102 58 135 33 93 72 175 81 175 13 0 54
88 46 96 -4 4 -14 -3 -24 -14 -18 -21 -18 -21 -42 -3 l-24 19 17 63 c10 35 33
115 52 177 29 92 38 112 54 112 30 0 89 58 101 100 16 53 4 108 -32 141 l-30
28 46 146 c43 135 55 204 30 165z"/>
<path d="M4429 3892 c-13 -10 -59 -42 -102 -72 -73 -49 -79 -52 -95 -36 -27
24 -75 20 -102 -9 -19 -20 -22 -32 -17 -65 l5 -40 -94 -66 c-52 -36 -92 -70
-89 -75 6 -9 41 11 147 83 40 26 68 38 93 38 41 0 85 36 85 69 0 15 30 42 105
93 57 40 106 79 109 86 8 18 -18 15 -45 -6z"/>
<path d="M2394 3610 c25 -351 59 -644 76 -665 4 -5 11 -23 13 -40 3 -16 4 56
1 160 -2 105 -9 210 -14 235 -5 25 -21 119 -35 209 -28 185 -52 242 -41 101z"/>
<path d="M916 3671 c-8 -12 5 -23 244 -192 222 -157 284 -200 480 -333 63 -44
129 -92 145 -109 l30 -29 -27 4 c-16 3 -28 2 -28 -2 0 -4 43 -33 96 -65 54
-32 135 -87 182 -123 82 -62 219 -139 229 -128 7 7 -20 34 -96 97 -36 29 -59
55 -52 57 6 2 50 -22 97 -53 47 -32 88 -55 91 -52 3 4 -30 43 -73 87 -81 83
-92 89 -144 66 -10 -4 -50 24 -119 86 -88 77 -113 93 -156 104 -60 13 -233
126 -626 406 -288 205 -266 191 -273 179z"/>
<path d="M108 3592 c-64 -39 -72 -125 -18 -185 25 -28 35 -32 79 -32 41 0 55
5 79 28 l30 29 47 -21 c87 -38 107 -21 23 20 -51 24 -53 26 -59 73 -7 66 -50
106 -112 106 -23 0 -54 -8 -69 -18z"/>
<path d="M2210 3559 c0 -56 190 -661 211 -675 21 -13 -5 89 -114 441 -14 44
-37 119 -52 168 -25 82 -45 112 -45 66z"/>
<path d="M2033 3540 c14 -66 247 -552 322 -670 32 -51 49 -52 30 -2 -8 20 -51
136 -95 257 -45 121 -89 228 -98 238 -9 10 -25 16 -36 15 -17 -2 -29 12 -62
80 -46 92 -70 125 -61 82z"/>
<path d="M4730 3477 c-33 -17 -70 -74 -70 -108 0 -24 -8 -31 -67 -59 -76 -36
-70 -54 7 -21 61 26 61 26 106 -4 55 -37 107 -34 150 9 28 28 34 41 34 78 0
50 -18 82 -60 103 -35 18 -67 19 -100 2z"/>
<path d="M3715 3324 c-110 -64 -258 -150 -330 -192 -71 -41 -149 -86 -172
-100 -45 -25 -58 -48 -21 -36 12 3 96 49 187 102 91 53 254 146 361 208 180
104 223 134 188 134 -7 0 -103 -53 -213 -116z"/>
<path d="M2554 3175 c-14 -22 -19 -56 -22 -166 -3 -87 -1 -139 5 -139 12 0 77
279 71 306 -5 29 -35 28 -54 -1z"/>
<path d="M2844 3093 c-107 -124 -220 -293 -195 -293 25 0 212 214 231 265 22
59 4 73 -36 28z"/>
<path d="M3080 3101 c-14 -10 -42 -27 -62 -38 -41 -22 -334 -300 -325 -309 8
-9 76 29 209 117 130 86 157 111 158 145 0 11 16 34 35 51 53 47 41 75 -15 34z"/>
<path d="M2130 3088 c1 -25 76 -147 138 -222 61 -75 89 -95 77 -56 -14 43
-139 252 -163 270 -28 23 -52 26 -52 8z"/>
<path d="M634 2840 c-11 -4 -33 -22 -47 -40 -77 -91 17 -225 131 -187 43 14
82 67 82 111 0 82 -92 146 -166 116z"/>
<path d="M4732 2834 c-26 -18 -52 -65 -52 -94 0 -55 57 -110 115 -110 32 0 77
25 94 52 16 25 17 89 2 116 -25 47 -114 67 -159 36z"/>
<path d="M2803 2773 c-35 -24 -63 -49 -63 -54 0 -11 108 36 132 58 21 19 24
43 6 42 -7 0 -41 -21 -75 -46z"/>
<path d="M2940 2723 c-121 -40 -180 -65 -180 -75 0 -18 247 -2 428 27 94 16
172 32 172 37 0 13 -64 9 -200 -11 -76 -12 -129 -16 -134 -10 -6 6 -3 9 7 9
23 0 34 29 16 41 -18 12 -22 11 -109 -18z"/>
<path d="M2026 2725 c-7 -18 11 -26 125 -55 121 -31 124 -20 10 28 -111 46
-126 49 -135 27z"/>
<path d="M2430 2708 c-72 -50 -95 -116 -65 -193 22 -59 73 -95 133 -95 88 0
150 53 160 135 14 126 -128 221 -228 153z"/>
<path d="M1624 2702 c3 -5 40 -17 83 -26 43 -9 98 -22 123 -27 25 -6 55 -17
67 -25 44 -28 343 -59 343 -35 0 23 -36 30 -462 100 -141 23 -162 25 -154 13z"/>
<path d="M2815 2600 c-11 -5 -36 -9 -55 -10 -34 -1 -34 -2 -10 -12 29 -12 375
-24 414 -14 48 12 30 33 -35 40 -87 9 -290 6 -314 -4z"/>
<path d="M2125 2530 c-213 -19 -215 -19 -205 -45 8 -21 5 -23 -46 -34 -30 -6
-81 -8 -113 -5 -54 6 -59 5 -79 -21 -35 -45 -6 -115 47 -115 39 0 69 26 76 64
6 31 11 35 68 50 34 9 118 27 187 40 137 27 190 43 190 57 0 5 -4 9 -9 9 -5 0
-15 2 -23 4 -7 1 -49 0 -93 -4z"/>
<path d="M2765 2520 c-3 -6 2 -13 12 -16 10 -3 34 -12 53 -20 146 -58 426
-144 472 -144 48 0 7 23 -99 55 -83 26 -124 44 -138 60 -16 19 -37 27 -100 37
-73 11 -77 13 -40 18 30 4 35 7 22 13 -28 11 -175 9 -182 -3z"/>
<path d="M2988 2513 c12 -2 32 -2 45 0 12 2 2 4 -23 4 -25 0 -35 -2 -22 -4z"/>
<path d="M2720 2473 c0 -8 131 -93 143 -93 4 0 41 -17 84 -38 93 -45 247 -108
286 -118 18 -4 27 -2 27 6 0 6 -4 9 -10 5 -5 -3 -27 10 -48 29 -42 38 -155 94
-327 161 -134 52 -155 59 -155 48z"/>
<path d="M2220 2450 c-32 -10 -172 -71 -275 -120 -139 -67 -192 -149 -78 -121
56 14 118 48 268 146 141 92 168 122 85 95z"/>
<path d="M2245 2387 c-22 -13 -80 -49 -128 -82 -69 -46 -87 -62 -85 -79 8 -53
78 -13 203 113 73 75 76 85 10 48z"/>
<path d="M2750 2380 c74 -64 122 -91 137 -78 18 15 6 26 -89 74 -82 42 -94 43
-48 4z"/>
<path d="M2684 2354 c15 -40 173 -279 227 -344 21 -25 90 -111 154 -192 64
-82 121 -148 127 -148 5 0 8 4 6 10 -3 10 -122 174 -250 346 -43 57 -75 104
-72 104 3 0 20 -10 36 -22 30 -21 31 -21 45 -2 13 17 11 22 -19 48 -18 16 -71
63 -117 105 -126 113 -151 131 -137 95z"/>
<path d="M2230 2274 c-74 -84 -100 -127 -87 -140 23 -23 99 62 156 173 41 81
23 72 -69 -33z"/>
<path d="M2359 2313 c-64 -72 -235 -381 -278 -500 -16 -43 -39 -102 -52 -131
-17 -38 -20 -55 -12 -63 9 -9 20 5 43 52 18 35 57 101 86 147 70 108 125 217
186 371 49 124 56 158 27 124z"/>
<path d="M2635 2318 c29 -91 83 -228 98 -248 10 -14 37 -58 60 -99 41 -72 69
-102 83 -88 19 19 -204 447 -233 447 -7 0 -11 -6 -8 -12z"/>
<path d="M2372 2208 c-39 -102 -60 -169 -101 -323 -11 -44 -35 -132 -52 -195
-41 -151 -43 -160 -31 -160 12 0 9 -7 89 220 81 232 163 560 140 560 -3 0 -23
-46 -45 -102z"/>
<path d="M2515 2213 c-9 -114 1 -427 14 -452 5 -9 16 -90 25 -180 15 -153 20
-181 30 -170 2 2 0 146 -4 319 -6 238 -14 346 -29 444 -12 71 -23 131 -25 133
-2 3 -7 -40 -11 -94z"/>
<path d="M2428 2169 c-36 -178 -42 -222 -34 -265 11 -55 39 -42 48 21 15 104
27 311 20 344 -6 29 -11 16 -34 -100z"/>
<path d="M2570 2281 c-1 -60 112 -585 157 -728 16 -52 33 -70 33 -35 0 9 -11
67 -25 127 -13 60 -29 153 -35 207 -11 95 -85 372 -115 427 l-14 26 -1 -24z"/>
<path d="M4410 2082 c-98 -49 -86 -192 20 -223 30 -9 46 -9 70 1 110 46 105
198 -8 230 -47 13 -41 13 -82 -8z"/>
<path d="M265 2051 c-63 -28 -93 -117 -61 -180 34 -66 118 -90 180 -51 104 64
65 226 -56 236 -24 2 -52 0 -63 -5z"/>
<path d="M2830 1850 c0 -17 67 -137 81 -146 24 -14 19 9 -14 69 -38 67 -67
100 -67 77z"/>
<path d="M1480 1742 c-8 -3 -61 -36 -117 -73 -88 -60 -103 -66 -114 -53 -38
46 -128 58 -173 23 -56 -44 -70 -110 -36 -166 37 -61 108 -79 167 -43 41 24
63 59 66 102 1 18 6 38 9 44 4 6 53 41 110 79 57 38 105 70 107 71 9 7 -6 20
-19 16z"/>
<path d="M3810 1735 c7 -8 57 -44 111 -80 55 -35 99 -68 99 -73 0 -4 -7 -17
-15 -28 -22 -29 -19 -106 5 -137 23 -29 80 -51 110 -42 11 3 34 18 51 33 30
24 33 25 58 10 136 -81 174 -99 181 -92 5 5 -35 35 -93 70 -99 60 -102 63
-109 104 -12 68 -72 117 -127 105 -24 -5 -46 6 -130 60 -109 70 -164 98 -141
70z"/>
<path d="M4675 1661 c-50 -30 -68 -58 -73 -110 -8 -84 42 -141 124 -141 75 0
134 59 134 135 0 101 -104 167 -185 116z"/>
<path d="M1829 1533 c-9 -10 -54 -79 -102 -153 -84 -133 -88 -136 -124 -138
-75 -5 -122 -54 -123 -129 0 -41 5 -58 25 -82 69 -81 205 -50 222 51 6 43 -10
99 -37 123 -19 17 -19 18 5 60 27 49 58 99 122 198 28 42 41 73 36 78 -6 6
-15 3 -24 -8z"/>
<path d="M803 1270 c-49 -38 -52 -39 -80 -25 -34 18 -54 19 -88 3 -58 -26 -71
-103 -26 -149 31 -31 75 -38 112 -19 26 15 49 62 49 105 0 19 4 35 8 35 12 0
92 70 92 81 0 16 -14 10 -67 -31z"/>
<path d="M2910 1302 c0 -6 23 -89 50 -184 33 -113 47 -174 39 -177 -6 -2 -26
-17 -45 -33 -80 -71 -42 -203 65 -224 23 -5 31 -13 37 -38 17 -80 76 -282 84
-290 22 -22 17 7 -25 164 -30 114 -40 166 -32 169 27 10 64 59 71 94 10 56
-21 120 -72 146 -44 22 -34 0 -119 280 -15 52 -34 96 -41 99 -6 2 -12 -1 -12
-6z"/>
<path d="M2312 666 c-33 -31 -37 -39 -37 -85 0 -42 5 -55 30 -81 17 -18 40
-36 53 -41 22 -8 22 -11 22 -189 0 -113 4 -180 10 -180 6 0 10 68 10 185 0
181 0 185 21 185 12 0 36 15 55 34 28 28 34 42 34 75 0 81 -45 131 -117 131
-35 0 -50 -6 -81 -34z"/>
</g>
</svg>