<?xml version="1.0" standalone="no"?>
<!DOCTYPE svg PUBLIC "-//W3C//DTD SVG 20010904//EN"
 "http://www.w3.org/TR/2001/REC-SVG-20010904/DTD/svg10.dtd">
<svg version="1.0" xmlns="http://www.w3.org/2000/svg"
 width="512.000000pt" height="512.000000pt" viewBox="0 0 512.000000 512.000000"
 preserveAspectRatio="xMidYMid meet">
<metadata>
Created by potrace 1.16, written by Peter Selinger 2001-2019
</metadata>
<g transform="translate(0.000000,512.000000) scale(0.100000,-0.100000)"
fill="#000000" stroke="none">
<path d="M2882 4937 c-48 -51 -80 -234 -56 -317 10 -34 11 -46 1 -52 -9 -6 -9
-8 1 -8 7 0 -5 -17 -28 -38 -37 -36 -40 -43 -40 -91 0 -68 22 -110 61 -118 39
-8 42 -15 34 -79 -6 -53 -57 -147 -80 -148 -16 -1 -64 136 -65 184 0 28 8 57
21 79 11 18 18 38 17 43 -5 14 -36 -35 -52 -78 l-11 -34 -33 42 c-17 23 -29
44 -26 47 3 3 10 -2 15 -12 15 -25 34 -21 63 14 30 35 35 93 11 125 -14 18
-16 18 -50 -19 -20 -20 -38 -51 -42 -67 -8 -42 -18 -37 -30 13 -8 33 -11 36
-12 15 0 -15 3 -37 8 -50 6 -16 5 -32 -5 -48 -13 -24 -13 -24 -14 -4 0 28 -27
51 -41 37 -17 -17 -7 -68 13 -67 21 2 18 -3 -40 -76 l-45 -54 8 109 c6 90 11
112 26 123 152 106 204 204 148 276 -49 62 -84 2 -67 -113 8 -53 8 -75 -1 -84
-17 -17 -24 -2 -28 61 -2 31 -11 73 -20 93 -18 45 -8 71 39 95 24 12 28 18 17
25 -15 9 -65 -32 -74 -62 -3 -9 -19 -19 -34 -22 -22 -5 -32 -15 -41 -41 -20
-63 10 -113 72 -118 32 -3 46 -46 19 -55 -9 -3 -24 -13 -33 -21 -17 -14 -18
-12 -18 20 0 43 -22 67 -45 48 -21 -18 -19 -39 11 -81 l26 -37 -12 -119 c-16
-155 -28 -185 -22 -53 3 79 0 121 -13 170 -9 36 -17 87 -16 114 1 51 -18 86
-46 86 -17 0 -16 -38 2 -70 16 -27 19 -113 5 -145 -8 -19 -9 -18 -9 4 -1 23
-40 101 -50 101 -15 -1 -61 -49 -76 -80 -22 -42 -24 -118 -4 -131 12 -8 12
-10 -1 -19 -20 -13 -31 0 -37 46 -6 52 22 117 81 183 47 53 58 91 37 130 -8
15 -5 16 24 13 30 -4 35 -1 41 22 13 52 -53 109 -97 85 -12 -6 -18 -17 -15
-25 3 -9 1 -12 -4 -9 -6 3 -10 17 -10 30 0 13 -5 27 -12 31 -21 13 0 -54 32
-97 31 -43 37 -85 19 -124 -8 -16 -9 -14 -5 10 6 37 -26 112 -50 122 -12 4
-26 -4 -46 -25 -41 -47 -39 -102 4 -145 l32 -32 7 30 7 30 1 -32 c1 -21 -10
-50 -30 -80 -28 -44 -30 -53 -25 -110 3 -37 1 -63 -4 -63 -18 0 -42 -62 -38
-97 4 -32 3 -33 -10 -17 -10 14 -12 33 -7 69 7 50 25 243 26 278 0 25 -19 47
-41 47 -34 0 -40 -59 -10 -97 16 -20 20 -41 20 -94 0 -37 -5 -80 -10 -94 l-10
-27 -26 38 c-32 48 -65 84 -76 84 -5 0 4 -17 21 -37 26 -34 61 -116 61 -144 0
-6 -13 -28 -29 -48 -16 -20 -37 -53 -47 -73 l-17 -36 -38 59 c-21 32 -43 59
-49 59 -6 0 -9 4 -6 9 3 5 -1 15 -10 22 -13 10 -17 10 -25 -2 -14 -22 -12 -26
26 -55 51 -39 73 -73 91 -145 9 -35 24 -78 34 -96 l18 -31 -26 8 c-15 5 -53
14 -85 20 -34 7 -61 18 -66 28 -5 9 -11 76 -15 147 -13 256 -14 266 -53 303
-59 55 -103 37 -103 -43 0 -60 53 -115 110 -115 19 0 20 -6 19 -107 0 -95 -2
-104 -12 -76 -19 51 -37 65 -67 50 -40 -20 -40 -70 1 -108 23 -21 40 -29 56
-26 15 3 23 -1 23 -9 0 -8 -6 -14 -14 -14 -20 0 -136 62 -131 70 3 4 -1 7 -8
6 -6 0 -42 13 -79 29 -58 26 -68 34 -68 56 0 35 -21 62 -43 53 -20 -7 -23 -44
-4 -63 10 -11 7 -12 -13 -6 -40 12 -44 21 -26 66 15 37 15 44 2 64 -8 13 -31
33 -50 45 -23 14 -36 29 -36 43 0 12 -9 36 -19 54 -15 24 -25 30 -41 26 -11
-3 -23 -9 -26 -14 -9 -15 14 -46 52 -69 28 -18 34 -27 29 -44 -21 -73 -19 -85
21 -123 23 -22 31 -33 19 -29 -63 26 -124 36 -152 25 -44 -16 -103 -79 -102
-109 0 -24 1 -24 12 -5 7 11 29 37 50 58 43 42 59 44 157 22 129 -28 156 -36
205 -56 78 -32 305 -171 305 -187 0 -7 -9 -35 -21 -62 l-21 -49 -32 44 c-60
85 -128 170 -137 173 -21 8 -6 -27 32 -73 66 -80 90 -130 105 -216 8 -44 21
-94 30 -111 8 -16 14 -34 12 -39 -5 -15 -122 46 -168 87 -39 35 -80 99 -80
124 0 7 7 4 16 -4 20 -21 26 -20 57 4 33 27 41 62 22 107 -16 38 -52 83 -66
83 -17 0 -59 -88 -59 -123 0 -42 31 -129 57 -161 12 -14 12 -16 1 -6 -37 34
-111 128 -129 163 -15 28 -19 54 -17 95 3 51 1 57 -17 57 -17 0 -20 -8 -23
-49 l-3 -48 -24 22 c-18 17 -23 30 -19 49 5 25 5 25 -10 7 -15 -19 -16 -19
-16 11 0 48 -16 81 -49 98 -58 30 -121 13 -121 -32 0 -39 66 -99 124 -114 33
-8 62 -26 96 -58 58 -56 166 -211 147 -211 -27 0 -83 24 -134 58 -46 30 -121
57 -131 47 -3 -2 20 -15 50 -28 76 -34 81 -47 20 -47 -85 0 -137 25 -190 90
-26 32 -55 70 -65 84 -10 14 -26 26 -35 26 -9 0 -23 4 -31 9 -9 6 -3 8 18 6
17 -1 38 -11 46 -21 17 -23 19 -9 4 37 -19 55 -37 69 -88 69 -69 0 -77 -9 -62
-62 7 -24 21 -55 32 -69 17 -24 84 -53 110 -47 12 3 59 -56 59 -75 0 -17 -27
12 -40 43 -7 16 -16 27 -21 24 -5 -3 0 -18 11 -34 27 -38 25 -49 -3 -22 -56
53 -127 43 -162 -22 -20 -37 -26 -39 -95 -37 l-35 1 30 -16 c23 -13 35 -15 58
-6 25 10 27 9 22 -9 -6 -17 -1 -19 59 -19 74 0 110 11 147 46 l25 24 70 -24
c38 -13 107 -27 154 -31 162 -12 199 -22 339 -93 113 -57 140 -75 173 -116 21
-27 37 -50 36 -52 -2 -1 -24 2 -48 7 -63 14 -224 105 -277 156 -61 59 -91 59
-35 0 l27 -29 -35 21 c-54 32 -59 25 -7 -10 51 -33 91 -81 79 -94 -4 -5 -2 -5
4 -2 5 3 30 -12 54 -33 41 -36 134 -75 228 -95 17 -4 32 -11 32 -16 0 -5 -15
-39 -34 -76 -19 -38 -38 -81 -42 -97 l-7 -28 -92 4 c-79 3 -101 8 -158 36 -36
18 -88 53 -115 77 -28 25 -53 41 -56 36 -4 -5 3 -19 15 -30 l21 -20 -23 6
c-13 3 -41 21 -61 39 -40 35 -102 51 -164 41 -25 -4 -37 -2 -41 9 -3 7 -10 14
-16 14 -6 0 -4 -8 4 -17 8 -10 23 -34 33 -53 53 -99 126 -123 215 -73 31 18
32 18 84 -11 28 -16 80 -43 114 -61 l62 -32 -37 -30 c-43 -34 -145 -63 -225
-63 -60 0 -78 13 -83 57 -4 32 -30 62 -71 79 -42 18 -38 20 -52 -24 -29 -87 4
-119 138 -136 81 -10 89 -13 70 -24 -11 -7 -19 -16 -16 -18 3 -3 17 2 31 11
25 17 127 47 134 40 2 -2 -20 -18 -50 -35 -51 -30 -51 -31 -18 -26 19 4 52 18
72 31 63 42 107 32 198 -43 32 -26 66 -52 76 -59 17 -10 14 -12 -18 -12 -21
-1 -78 -14 -128 -31 -111 -37 -185 -40 -224 -9 -15 12 -42 45 -61 75 -37 57
-77 82 -150 91 -37 5 -38 4 -20 -9 11 -8 39 -20 63 -27 27 -7 48 -21 59 -39 9
-15 30 -47 46 -71 l30 -44 -29 5 c-16 3 -66 22 -111 41 -46 20 -83 34 -83 32
0 -3 34 -22 75 -42 l74 -38 -53 -25 c-52 -25 -52 -25 -48 -4 6 35 -41 64 -104
64 -54 0 -75 -13 -55 -33 6 -6 11 -19 11 -28 0 -25 48 -59 83 -59 17 0 51 10
75 21 63 31 122 35 212 14 l78 -18 84 41 c95 47 203 69 265 56 33 -7 24 -9
-62 -15 -113 -7 -158 -25 -213 -82 -42 -44 -25 -60 23 -22 54 41 99 55 173 55
97 0 149 -21 224 -90 168 -153 238 -336 238 -619 0 -118 -46 -599 -71 -735
-30 -167 -91 -238 -309 -359 -140 -77 -211 -99 -730 -226 -251 -62 -542 -152
-589 -182 -14 -9 -13 -10 3 -4 73 23 429 117 511 135 219 47 462 91 490 88 28
-3 25 -6 -48 -51 -81 -51 -327 -233 -387 -288 -21 -19 -25 -25 -10 -15 305
195 531 316 636 339 76 17 244 33 244 24 0 -4 -19 -16 -42 -28 -108 -55 -679
-416 -692 -438 -8 -12 114 31 309 109 291 117 563 199 715 216 59 7 63 6 56
-12 -19 -52 -79 -135 -151 -212 -88 -94 -83 -98 38 -33 87 45 142 93 167 141
48 94 91 236 135 448 27 128 63 257 71 250 2 -3 -5 -47 -15 -99 -11 -52 -26
-140 -35 -197 -25 -163 -49 -225 -205 -517 l-33 -60 53 55 c62 65 135 175 160
239 9 25 20 45 23 44 3 -2 11 -3 16 -3 19 0 131 -164 181 -265 28 -55 53 -102
56 -105 7 -6 -4 146 -13 177 -4 14 26 -9 81 -65 48 -48 81 -76 75 -62 -7 14
-41 77 -75 140 -60 110 -92 186 -82 196 2 2 55 -19 118 -47 63 -28 179 -76
259 -107 80 -30 199 -79 264 -108 l120 -54 -55 56 c-71 74 -201 178 -266 216
-60 34 -67 48 -24 48 107 0 294 -59 620 -197 424 -180 505 -213 509 -209 5 6
-156 95 -337 185 -138 70 -286 135 -407 182 -49 18 -17 20 72 5 188 -33 582
-135 758 -196 90 -31 78 -16 -16 20 -246 96 -394 140 -908 270 -382 97 -465
127 -543 199 -24 22 -55 64 -69 93 -53 108 -78 316 -59 492 16 149 50 250 114
340 126 178 260 348 289 366 67 40 163 36 222 -11 33 -26 33 -39 0 -39 -15 0
-23 -4 -19 -10 4 -7 26 -8 56 -4 49 7 50 6 44 -17 -8 -34 4 -47 63 -69 51 -19
52 -19 62 -1 15 29 12 77 -5 95 -10 10 -26 13 -49 9 -19 -3 -51 0 -72 7 -37
12 -37 13 -15 22 29 10 23 18 -20 25 -19 3 -50 13 -69 23 -54 27 -102 33 -164
20 -66 -14 -91 -36 -187 -162 -35 -46 -89 -114 -122 -153 -71 -85 -127 -199
-158 -320 -19 -75 -23 -115 -22 -240 1 -249 38 -373 140 -471 73 -71 161 -114
343 -169 157 -48 284 -94 277 -101 -2 -3 -33 5 -68 15 -121 38 -234 61 -295
61 -84 0 -185 50 -268 134 -102 102 -153 224 -166 391 l-7 90 -1 -85 c-1 -47
5 -114 13 -149 29 -120 65 -172 303 -427 26 -28 91 -79 145 -114 53 -34 97
-63 97 -65 0 -2 -48 17 -107 42 -119 49 -160 83 -329 271 -106 119 -140 186
-159 318 l-15 99 5 -80 c9 -163 55 -247 239 -431 109 -110 117 -121 83 -108
-116 41 -260 143 -292 204 -32 62 -48 206 -42 380 7 194 21 276 86 488 26 86
56 189 65 228 22 90 45 128 93 153 48 24 112 94 228 247 50 65 127 156 171
203 l81 83 70 -4 c55 -3 85 -11 137 -38 61 -31 66 -35 50 -47 -54 -40 -284
-103 -284 -78 0 4 9 20 21 36 26 37 17 37 -31 -1 -39 -31 -120 -142 -120 -164
0 -9 16 -11 53 -8 35 3 65 -1 90 -12 20 -9 52 -22 70 -30 29 -13 38 -12 87 6
30 12 84 31 120 44 l65 24 -50 -7 c-27 -3 -74 -14 -104 -24 -30 -11 -61 -19
-70 -19 -28 -1 -190 55 -190 65 0 31 32 48 137 70 63 13 135 36 172 55 67 34
83 34 155 6 74 -28 173 -13 238 37 24 18 38 22 49 16 9 -5 23 -7 30 -4 21 8
48 59 48 89 0 29 -35 70 -53 63 -12 -5 -13 -9 -2 -42 3 -11 -1 -8 -10 8 -17
30 -36 34 -54 13 -15 -18 -17 -41 -7 -83 7 -30 5 -33 -36 -55 -31 -16 -61 -22
-104 -23 -57 0 -73 5 -195 68 -74 37 -154 71 -179 76 -25 5 -40 9 -35 10 6 1
41 21 79 46 76 48 104 55 241 59 79 1 98 6 158 35 38 18 67 34 65 36 -2 2 -34
-7 -73 -20 -53 -18 -98 -24 -186 -27 l-117 -3 23 46 c48 95 117 128 233 114
66 -8 186 -56 220 -88 l23 -21 -25 -13 c-34 -18 -42 -60 -18 -92 18 -25 40
-38 131 -80 l43 -20 -4 66 c-4 59 -7 69 -36 94 -18 16 -41 29 -52 29 -11 0
-20 4 -20 9 0 5 -12 23 -26 40 -19 23 -22 32 -12 36 42 16 116 35 134 35 48 0
114 -86 114 -150 0 -16 5 -30 10 -30 6 0 10 9 10 19 0 29 13 32 46 10 l29 -20
-30 3 c-25 2 -31 -1 -33 -20 -7 -50 37 -112 80 -112 20 0 41 62 32 97 -4 14
-28 36 -63 57 -57 35 -129 101 -85 78 18 -9 25 -8 39 8 20 22 22 20 -36 25 -9
0 -31 13 -50 29 -36 31 -24 30 -198 10 -44 -6 -69 -2 -123 17 -37 13 -68 27
-68 31 0 15 127 69 188 79 34 6 73 20 85 30 32 26 9 24 -100 -10 -88 -27 -97
-26 -67 9 7 8 29 49 49 90 21 41 44 83 53 93 8 9 11 17 5 17 -16 0 -39 -31
-73 -100 -38 -76 -81 -128 -138 -170 -46 -33 -67 -41 -31 -11 18 14 21 23 13
31 -8 8 -18 3 -37 -19 -17 -20 -35 -31 -52 -31 -36 0 -95 -26 -127 -57 -21
-20 -28 -23 -28 -11 0 25 48 66 122 105 43 22 79 50 97 75 17 23 32 35 36 29
10 -17 68 -13 94 5 30 21 51 72 51 124 0 35 -3 40 -22 40 -32 -1 -99 -33 -122
-58 -12 -14 -18 -36 -18 -61 1 -34 -5 -45 -34 -71 -33 -29 -103 -64 -111 -56
-4 3 19 115 31 151 3 11 -3 2 -13 -20 -11 -22 -25 -64 -31 -92 -15 -72 -70
-110 -70 -50 0 12 -5 29 -10 37 -8 11 -9 7 -5 -15 l5 -30 -11 27 c-8 22 -6 36
10 74 12 26 21 47 21 48 0 8 -100 5 -105 -3 -8 -14 12 -51 28 -51 9 0 12 -34
11 -130 -1 -122 -3 -132 -27 -169 -42 -63 -124 -97 -285 -119 l-133 -19 6 21
c4 12 10 58 13 103 6 75 9 83 37 104 72 56 148 136 191 204 26 40 58 78 71 84
13 6 54 11 91 11 81 0 106 12 196 98 50 47 62 62 47 62 -11 0 -43 -20 -71 -45
-28 -24 -65 -52 -82 -61 -37 -19 -198 -33 -198 -17 0 18 81 84 129 106 37 16
77 22 196 27 160 8 175 12 262 71 67 46 90 52 113 29 30 -30 56 -24 105 21
l45 42 84 -7 c68 -6 87 -4 99 8 17 17 12 55 -8 63 -16 5 -66 -19 -84 -41 -15
-17 -96 -23 -105 -7 -8 13 -81 24 -105 16 -11 -3 -29 -21 -40 -40 -11 -19 -28
-35 -37 -35 -15 0 -16 2 -2 18 19 23 61 92 55 92 -3 0 -23 -25 -46 -55 -33
-43 -48 -55 -69 -55 -37 0 -72 10 -72 21 0 11 63 69 117 108 42 30 56 58 68
138 9 59 -1 86 -28 77 -32 -10 -116 -67 -123 -84 -10 -23 -22 -99 -15 -97 4 1
16 -7 28 -19 l23 -20 -48 -39 c-26 -22 -48 -43 -50 -47 -2 -4 -9 -8 -16 -8 -7
0 -25 -13 -41 -30 -16 -16 -24 -30 -19 -30 6 0 21 11 33 24 l23 24 50 -26 51
-26 -44 -19 c-34 -15 -67 -19 -148 -18 -57 1 -106 3 -108 4 -2 2 23 20 54 40
32 19 89 65 128 102 l70 67 0 93 c0 51 -3 96 -7 100 -14 15 -56 -25 -82 -76
-30 -60 -33 -114 -10 -147 13 -19 13 -26 3 -38 -26 -32 -105 -79 -212 -126
-59 -26 -122 -57 -138 -69 -37 -26 -37 -18 2 43 34 52 72 82 184 142 109 59
135 82 135 119 0 39 36 115 86 182 l38 50 -38 -35 c-43 -40 -96 -140 -96 -181
0 -16 -9 -37 -20 -47 -20 -19 -240 -125 -240 -116 0 10 43 95 51 100 5 3 9 -3
9 -13 0 -10 4 -24 9 -32 8 -12 12 -12 26 3 19 18 14 46 -9 46 -12 0 -11 9 5
50 10 28 19 60 19 73 -1 14 -8 5 -20 -27 -21 -54 -40 -80 -40 -56 -1 8 -7 -2
-15 -24 -16 -45 -41 -75 -32 -38 3 12 1 22 -4 22 -5 0 -9 -17 -9 -37 0 -21 -5
-45 -10 -53 -7 -11 -10 -7 -10 18 0 43 -43 90 -65 72 -8 -7 -15 -27 -15 -44 0
-39 40 -82 66 -72 18 7 18 7 -34 -58 -13 -16 -38 -56 -55 -89 -51 -96 -56
-104 -72 -117 -8 -6 -36 -18 -62 -26 l-48 -14 53 5 c28 3 52 3 52 0 0 -18 -79
-110 -121 -141 -78 -57 -103 -109 -110 -229 -4 -67 -12 -112 -24 -135 -9 -19
-59 -78 -110 -131 -52 -53 -105 -119 -119 -148 -29 -57 -28 -67 2 -20 30 48
142 158 187 185 49 28 147 50 270 58 113 9 97 -7 -24 -24 -120 -17 -228 -53
-292 -98 -59 -41 -140 -141 -191 -237 -29 -54 -33 -70 -36 -163 -4 -91 -2
-102 12 -96 9 3 16 4 16 1 0 -18 -86 -321 -115 -407 -20 -58 -42 -135 -50
-172 -23 -105 -38 -332 -32 -468 7 -157 36 -261 116 -425 56 -113 57 -118 25
-80 -45 51 -128 221 -150 305 -18 67 -18 82 -15 455 2 209 18 313 71 471 17
48 28 89 26 91 -5 6 -64 -149 -71 -190 -4 -21 -10 -36 -12 -33 -7 6 42 218 67
291 20 59 20 60 0 35 -39 -49 -119 -226 -140 -308 -28 -113 -50 -263 -50 -347
0 -70 -28 -228 -49 -275 -10 -21 -10 -17 -6 25 4 40 3 46 -6 31 -7 -11 -9 -36
-5 -62 4 -35 0 -58 -20 -107 -62 -151 -126 -196 -354 -247 -137 -31 -272 -71
-323 -97 -16 -8 -31 -12 -34 -9 -14 13 211 107 327 136 209 53 244 77 309 213
73 154 106 298 116 517 5 92 14 154 27 195 25 76 118 253 170 323 51 69 78
128 77 172 l-1 35 -9 -38 c-12 -51 -24 -72 -74 -132 -23 -27 -54 -70 -68 -95
-30 -51 -34 -50 -12 3 8 20 15 47 15 61 0 13 8 32 18 42 9 10 17 20 18 23 0 3
8 23 17 43 10 21 17 45 17 55 0 28 -32 133 -41 133 -4 0 -18 -17 -31 -37 -21
-35 -23 -50 -25 -183 0 -80 -3 -156 -5 -170 -2 -14 -33 -83 -70 -155 -63 -125
-84 -182 -144 -383 -47 -159 -37 -93 16 104 87 320 90 334 109 492 11 85 22
156 25 160 15 15 2 -208 -18 -303 -6 -29 -6 -29 4 -5 20 45 39 162 48 290 8
104 14 137 40 200 43 103 47 141 26 246 -9 49 -17 134 -17 189 -1 55 -2 88 -4
73 -3 -16 -9 -28 -15 -28 -15 0 -3 108 21 190 10 36 37 116 59 177 23 62 44
132 47 156 9 57 -17 124 -88 225 -31 44 -53 83 -50 86 4 3 1 6 -5 6 -6 0 -27
26 -46 57 l-36 57 0 161 c0 130 -4 173 -20 230 -22 77 -25 141 -10 196 9 32
131 210 149 217 3 1 21 -20 38 -47 31 -46 32 -52 30 -139 -1 -66 2 -94 12
-104 11 -11 13 0 8 72 -3 49 -2 74 2 60 5 -14 18 -48 29 -77 l21 -51 -52 -34
c-29 -18 -71 -50 -94 -72 l-43 -39 0 57 c0 52 2 56 23 56 61 0 77 76 36 170
l-22 51 -23 -22 c-32 -30 -64 -98 -64 -136 0 -16 8 -37 18 -46 16 -15 18 -29
14 -104 -2 -49 -13 -114 -23 -145 -23 -70 -26 -212 -5 -263 8 -18 32 -53 54
-77 61 -67 113 -139 107 -148 -3 -5 9 -34 26 -65 38 -68 41 -132 10 -215 -25
-65 -25 -66 -7 -50 15 11 47 101 62 170 5 19 8 103 9 185 0 83 4 206 9 275 7
112 6 134 -13 207 -11 45 -21 105 -21 135 l-1 53 -19 -24 c-26 -30 -25 -58 5
-166 14 -50 25 -115 25 -145 0 -68 -26 -222 -46 -269 l-15 -35 -60 60 c-81 79
-102 122 -101 202 1 87 31 206 67 266 25 42 125 134 146 136 3 0 19 -46 34
-102 31 -113 35 -198 16 -348 -6 -46 -11 -149 -11 -228 0 -155 -17 -265 -52
-342 -12 -25 -20 -51 -19 -59 1 -7 -2 -10 -8 -7 -18 12 -105 -194 -89 -210 3
-2 10 15 17 38 21 76 43 120 53 106 6 -8 7 -4 3 11 -4 14 -3 21 2 18 5 -3 31
36 57 88 39 77 51 114 66 204 23 133 33 156 111 246 33 39 78 95 99 125 22 30
49 66 60 80 l22 25 -19 -33 c-10 -18 -56 -84 -102 -145 -105 -141 -140 -212
-148 -303 l-6 -69 42 40 c22 21 41 35 41 29 0 -6 -15 -25 -33 -43 -33 -31
-114 -177 -105 -187 3 -2 30 28 61 68 31 40 79 96 109 123 l52 50 -51 -56
c-66 -72 -155 -208 -197 -302 -47 -102 -67 -193 -75 -337 -6 -118 -7 -122 -14
-65 -7 52 4 232 18 315 3 14 -2 5 -11 -20 -26 -76 -29 -287 -7 -405 14 -72 18
-122 14 -177 -4 -50 -2 -86 6 -105 20 -47 16 -126 -8 -157 -25 -32 -11 -35 18
-4 46 51 54 95 28 168 -39 110 -28 245 26 320 16 22 29 43 29 47 0 10 -34 -30
-61 -72 -10 -16 -19 -26 -19 -22 0 18 30 64 61 92 17 17 28 23 24 15 -5 -8 3
-4 16 10 13 14 66 54 116 89 51 35 116 89 145 120 39 42 47 48 35 25 -29 -55
-67 -93 -167 -164 -152 -108 -200 -187 -200 -332 0 -82 15 -130 46 -142 10 -4
6 5 -11 26 -26 31 -27 36 -21 107 8 94 47 181 112 251 59 64 80 66 24 3 -104
-119 -122 -212 -66 -358 20 -53 20 -23 0 46 -21 71 -14 149 21 224 21 44 56
86 139 167 61 60 118 121 128 136 10 15 18 22 18 16 0 -6 -12 -29 -26 -50 -24
-36 -25 -37 -4 -19 30 26 46 67 54 135 12 101 28 154 73 243 31 61 46 105 50
145 3 33 16 74 29 98 18 30 22 49 18 73 l-7 32 -29 -28 c-24 -23 -28 -33 -23
-58 10 -50 6 -97 -15 -160 -30 -88 -36 -92 -32 -16 3 53 0 76 -16 107 l-20 38
-21 -34 c-25 -41 -28 -114 -7 -164 12 -29 11 -42 -11 -126 -13 -52 -29 -101
-36 -110 -62 -83 -111 -128 -200 -186 -56 -37 -119 -80 -139 -96 l-37 -29 -7
37 c-16 89 21 248 87 372 60 112 122 188 240 290 l26 22 26 -37 c23 -32 27
-34 27 -16 0 12 -10 29 -21 37 -21 15 -20 17 66 110 97 106 139 132 230 142
98 11 101 26 5 20 -47 -3 -96 -8 -110 -11 -14 -3 17 15 68 41 69 35 114 67
182 130 66 61 113 96 182 131 135 69 128 68 106 25 -19 -37 -23 -64 -12 -75 8
-8 65 103 59 113 -6 10 65 30 111 31 l39 1 -35 8 c-19 5 -52 6 -75 4 -32 -4
-38 -3 -27 7 6 7 12 21 12 30 0 9 36 55 80 101 44 45 80 87 80 91 0 15 -57
-32 -109 -89 -57 -63 -67 -53 -20 22 53 85 66 94 125 94 40 0 59 5 79 23 30
26 48 90 36 133 -7 25 -12 29 -40 27 -18 0 -43 -11 -57 -24 -28 -27 -63 -111
-47 -116 5 -2 19 -10 29 -18 17 -13 15 -14 -25 -15 -39 0 -49 -5 -82 -41 -21
-23 -46 -62 -55 -88 -43 -119 -61 -148 -105 -174 -51 -30 -150 -70 -156 -63
-2 2 10 41 27 85 31 80 34 84 105 133 41 28 81 66 91 83 10 18 32 40 51 49 35
17 43 40 17 50 -21 8 -20 8 -38 -9 -13 -13 -15 -13 -21 6 -10 30 -50 22 -50
-10 0 -31 31 -52 45 -31 8 12 10 12 10 1 0 -24 -39 -78 -61 -84 -16 -4 -18 -3
-8 9 9 11 8 14 -4 14 -8 0 -24 -15 -35 -32 -10 -18 -33 -41 -49 -50 l-30 -17
7 40 c4 23 21 56 39 77 40 47 91 123 91 136 0 6 -29 -21 -65 -59 -57 -62 -64
-67 -65 -45 -1 43 -13 53 -40 32 -21 -17 -22 -20 -10 -74 17 -77 9 -90 -23
-35 -33 56 -34 73 -2 119 32 47 32 88 1 121 -23 25 -24 27 -10 75 11 35 25 58
53 80 21 17 41 40 44 51 6 23 -18 61 -38 61 -23 0 -47 -46 -44 -84 3 -26 -3
-42 -20 -60 -17 -18 -22 -33 -18 -52 4 -21 -3 -37 -25 -65 -38 -48 -36 -87 7
-109 l30 -15 -27 -3 -26 -3 20 -57 c11 -31 27 -70 35 -87 9 -16 17 -55 17 -85
1 -102 -91 -247 -202 -319 -27 -17 -51 -31 -53 -31 -3 0 -6 18 -7 40 -3 37 0
40 38 60 29 15 40 26 36 36 -3 9 -6 18 -6 20 0 2 -9 4 -20 4 -29 0 -51 -42
-57 -110 -6 -65 -10 -70 -66 -93 l-37 -16 6 42 c9 68 34 149 57 187 66 109
129 156 247 181 28 6 49 13 46 16 -11 11 -118 -10 -161 -32 -36 -18 -43 -19
-31 -6 9 10 13 21 9 26 -5 4 -2 5 5 0 9 -5 27 6 53 31 21 21 39 42 39 46 0 17
-21 6 -55 -29 -19 -20 -35 -33 -35 -30 0 3 18 57 40 119 22 62 43 137 45 168
5 50 2 52 -11 10 -3 -8 -15 9 -28 42 -13 31 -35 71 -50 88 -14 17 -26 44 -27
58 0 23 -2 24 -8 8 -7 -18 -8 -18 -14 -3 -6 17 -27 24 -27 9 0 -4 22 -30 48
-58 28 -29 53 -67 60 -91 17 -57 14 -141 -8 -188 l-19 -40 0 37 c-1 20 4 38
10 40 6 2 14 27 16 55 5 42 2 54 -16 72 -25 25 -69 28 -78 6 -3 -9 4 -44 16
-79 29 -87 28 -159 -6 -227 -29 -58 -127 -161 -177 -185 -31 -15 -31 -15 6 18
20 18 56 50 81 70 42 35 85 103 73 115 -6 7 -104 -90 -123 -122 -7 -12 -6 -2
3 24 8 24 19 49 24 56 5 6 28 48 51 94 34 69 40 90 36 123 -3 22 -8 43 -12 46
-4 4 -24 -12 -46 -35 -43 -47 -52 -92 -23 -124 20 -22 12 -71 -10 -63 -29 11
-53 -14 -59 -60 -4 -25 -24 -78 -44 -118 l-38 -73 -3 39 c-2 23 4 56 14 78 31
70 -9 126 -56 76 -30 -33 -25 -102 9 -106 22 -3 23 -7 19 -58 -4 -43 -11 -61
-33 -84 -16 -17 -32 -30 -36 -30 -4 0 -12 33 -19 73 -22 137 -29 147 -24 30 7
-137 -1 -164 -67 -228 l-51 -50 6 85 c11 136 36 288 57 345 26 70 70 129 125
168 46 32 61 60 50 95 -8 25 -37 37 -48 20 -8 -12 -7 -44 3 -76 2 -8 -7 -21
-19 -30 -20 -13 -23 -13 -22 -1 5 30 0 59 -10 59 -14 0 -24 -48 -12 -63 7 -9
-3 -24 -39 -57 -27 -25 -49 -45 -49 -43 0 1 14 26 31 55 17 29 40 75 51 103
29 74 42 85 104 85 56 0 102 13 119 33 6 7 26 26 44 42 l33 30 -7 -27 c-6 -22
-4 -28 9 -28 17 0 19 11 10 59 l-7 32 -30 -36 c-31 -38 -46 -41 -27 -5 6 12 9
28 6 35 -8 22 -133 -38 -178 -85 -47 -49 -50 -34 -4 17 19 22 78 62 136 92 98
53 160 106 160 136 0 12 4 13 19 4 25 -16 49 -5 63 28 6 15 23 40 37 56 24 26
18 40 -7 15 -7 -7 -27 -13 -44 -14 -19 -1 -39 -11 -50 -23 -17 -22 -17 -21
-15 20 1 22 3 36 5 30 4 -12 44 -15 55 -5 10 10 -12 44 -28 44 -8 0 -15 -6
-15 -12 0 -7 -5 -5 -11 5 -5 9 -20 17 -31 17 l-21 0 21 23 c36 38 46 80 28
116 -20 38 -31 44 -54 32 -28 -15 -45 -65 -38 -106 8 -43 26 -45 60 -4 14 17
26 26 26 21 0 -5 -7 -15 -16 -23 -8 -7 -24 -30 -35 -52 -22 -42 -14 -67 22
-67 16 0 19 -8 19 -40 0 -73 -14 -89 -160 -178 -25 -16 -25 -16 3 17 31 38 32
41 13 67 -13 17 -16 17 -30 4 -16 -17 -38 -89 -30 -101 2 -4 -15 -21 -40 -38
-24 -17 -55 -44 -69 -61 l-26 -30 -7 35 c-9 49 2 95 31 135 29 40 33 85 8 93
-10 2 -26 8 -35 12 -16 6 -18 1 -18 -38 0 -25 5 -49 10 -52 13 -8 13 -27 -1
-62 -10 -26 -12 -27 -19 -8 -12 29 -12 109 1 159 13 52 -9 120 -36 110 -24
-10 -28 -47 -10 -90 9 -21 18 -68 20 -104 1 -36 8 -92 15 -125 17 -84 9 -132
-33 -198 -72 -111 -88 -157 -71 -201 3 -8 12 -12 21 -9 14 5 13 1 -3 -25 l-18
-32 -23 63 c-55 150 -55 149 -19 203 42 63 56 105 56 168 1 36 8 63 25 91 30
48 32 97 6 165 l-19 50 29 36 c16 20 29 41 29 45 0 12 -55 39 -80 39 -36 0
-22 -43 18 -56 l34 -11 -26 -16 c-14 -9 -27 -17 -30 -17 -12 0 -26 71 -26 132
0 62 3 72 28 96 15 14 35 38 45 52 17 22 18 23 12 3 -11 -39 64 -67 78 -28 8
19 -16 59 -41 70 -13 6 -25 20 -29 33 -7 28 -14 28 -41 -1z m-481 -610 c1 -29
-1 -108 -6 -177 -7 -116 -6 -135 20 -254 23 -109 26 -142 20 -205 -4 -42 -8
-89 -9 -104 l-1 -28 -23 28 c-44 55 -76 117 -62 121 44 15 70 92 31 92 -11 0
-29 -11 -40 -26 l-20 -25 -4 33 c-2 18 -3 11 -1 -16 2 -27 17 -77 33 -112 17
-35 28 -64 25 -64 -27 0 -112 61 -136 98 -33 50 6 133 82 172 44 23 45 24 55
67 l6 32 -33 -9 c-40 -12 -61 -37 -54 -66 4 -13 -1 -28 -13 -38 -17 -16 -18
-15 -13 10 8 41 -22 19 -53 -39 -27 -52 -32 -95 -14 -130 11 -20 10 -21 -6 -6
-32 31 -30 89 6 170 44 99 44 143 1 205 -46 64 -50 100 -18 143 l26 35 0 -41
c0 -45 17 -103 31 -103 5 0 17 -16 26 -35 18 -37 33 -44 52 -21 10 12 8 19 -8
35 -12 12 -27 21 -34 21 -23 0 -44 32 -51 75 -8 49 -1 59 46 74 52 17 86 56
106 122 19 67 30 55 33 -34z m-627 -122 l17 -30 -20 24 c-12 13 -21 28 -21 34
0 12 0 11 24 -28z m353 -170 c31 -59 34 -130 9 -189 -45 -107 11 -202 175
-301 35 -21 81 -53 103 -69 61 -49 164 -175 198 -243 26 -54 30 -70 26 -126
-3 -52 -14 -83 -61 -180 -32 -64 -61 -117 -66 -117 -4 0 -16 19 -28 43 -36 74
-109 163 -180 219 l-68 55 -12 94 c-6 52 -25 137 -42 189 -17 52 -36 133 -42
180 -18 129 -26 154 -74 225 -25 35 -47 75 -50 88 -9 33 12 115 42 166 28 48
27 49 70 -34z m-120 -57 c-3 -8 -6 -5 -6 6 -1 11 2 17 5 13 3 -3 4 -12 1 -19z
m-10 -50 c-3 -7 -5 -2 -5 12 0 14 2 19 5 13 2 -7 2 -19 0 -25z m1660 -20 c-3
-7 -5 -2 -5 12 0 14 2 19 5 13 2 -7 2 -19 0 -25z m-2353 -49 c5 -5 7 -11 4
-14 -6 -7 -78 21 -78 29 0 8 63 -5 74 -15z m2023 -73 c-64 -59 -75 -81 -133
-240 -24 -65 -56 -135 -71 -155 -15 -20 -28 -39 -28 -42 0 -11 -61 -57 -110
-83 -123 -66 -126 -1 -8 156 27 35 79 107 117 161 52 73 92 116 163 173 51 42
93 80 93 85 0 4 7 6 15 2 12 -4 3 -18 -38 -57z m-1383 -14 c63 -22 108 -65
129 -122 80 -228 118 -367 123 -453 5 -73 4 -90 -6 -81 -6 7 -13 32 -15 55 -1
24 -6 62 -10 83 -5 26 -4 37 3 32 6 -4 8 2 5 14 -3 11 -10 17 -15 14 -5 -4 -6
-39 -2 -87 l6 -82 -51 50 c-120 116 -156 202 -172 409 -5 77 -13 143 -15 146
-3 3 -4 -81 -2 -186 4 -226 -20 -177 230 -485 108 -132 172 -276 212 -474 22
-110 56 -425 55 -510 -1 -49 -8 -5 -24 150 -29 278 -40 349 -71 459 -52 183
-100 261 -389 630 -68 87 -117 186 -123 247 -3 31 3 72 17 117 11 39 21 78 21
87 0 18 5 17 94 -13z m-307 -64 c-2 -13 -4 -5 -4 17 -1 22 1 32 4 23 2 -10 2
-28 0 -40z m1210 -50 c-2 -13 -4 -5 -4 17 -1 22 1 32 4 23 2 -10 2 -28 0 -40z
m-10 -90 c-2 -13 -4 -3 -4 22 0 25 2 35 4 23 2 -13 2 -33 0 -45z m378 -85
c-19 -86 -63 -178 -102 -215 -18 -16 -15 -9 10 25 35 46 60 111 87 225 7 29
15 51 17 48 3 -3 -2 -40 -12 -83z m-388 -40 c-2 -21 -4 -6 -4 32 0 39 2 55 4
38 2 -18 2 -50 0 -70z m-830 -233 c25 -43 25 -44 3 -25 l-23 20 7 -21 c4 -14
-6 -39 -35 -85 -54 -82 -69 -133 -70 -233 0 -55 -3 -74 -9 -61 -26 59 -2 194
52 298 24 45 33 75 33 110 0 26 4 46 8 44 4 -1 19 -22 34 -47z m94 -161 c16
-41 5 -79 -25 -79 -45 0 -138 23 -143 36 -3 7 11 40 31 72 20 33 36 66 36 73
0 19 87 -69 101 -102z m-705 45 c18 -14 18 -14 -6 -3 -31 14 -36 19 -24 19 6
0 19 -7 30 -16z m838 -30 c3 -8 2 -12 -4 -9 -6 3 -10 10 -10 16 0 14 7 11 14
-7z m138 -91 c64 -69 94 -133 129 -276 64 -257 75 -374 48 -497 -11 -51 -13
-53 -21 -29 -5 15 -17 94 -27 175 -10 82 -19 129 -20 104 0 -25 6 -92 15 -150
24 -170 28 -220 17 -220 -6 0 -13 28 -17 63 -4 34 -15 148 -26 253 -22 210
-48 319 -105 437 -20 40 -27 61 -16 47 l20 -25 -3 43 c-2 30 -10 49 -26 65
l-24 22 19 -23 c17 -21 29 -52 19 -52 -5 0 -35 58 -33 66 0 3 -10 18 -23 32
-13 15 -32 38 -43 51 -36 44 64 -30 117 -86z m1309 54 c-10 -9 -11 -8 -5 6 3
10 9 15 12 12 3 -3 0 -11 -7 -18z m-270 -26 c-13 -24 -93 -94 -137 -120 -54
-32 -39 -15 26 29 33 22 72 56 87 75 31 39 39 44 24 16z m-1570 -131 c4 -36
11 -77 17 -92 20 -49 -15 -33 -80 37 -33 35 -65 62 -71 58 -5 -3 12 -26 39
-50 l49 -44 -48 35 c-27 19 -64 40 -84 47 l-35 11 24 25 c32 35 54 42 123 40
l60 -2 6 -65z m229 13 c69 -34 137 -103 173 -176 32 -65 45 -117 29 -117 -6 0
-48 25 -93 55 -45 30 -107 62 -138 71 -31 9 -66 20 -79 25 -30 12 -52 66 -52
130 l0 52 53 -7 c28 -4 77 -19 107 -33z m289 -77 c42 -103 80 -286 91 -443 6
-76 17 -200 26 -276 8 -76 14 -141 11 -143 -6 -7 -36 212 -47 351 -19 246 -48
390 -105 532 -19 49 -28 79 -20 69 8 -10 28 -51 44 -90z m-89 -1 c0 -5 -5 -3
-10 5 -5 8 -10 20 -10 25 0 6 5 3 10 -5 5 -8 10 -19 10 -25z m310 -30 c-10
-27 -19 -45 -20 -40 0 15 34 108 37 98 2 -4 -6 -30 -17 -58z m-693 -56 c5 -5
45 -19 88 -30 42 -10 103 -33 135 -50 101 -53 230 -176 230 -218 0 -8 -42 26
-92 76 -109 105 -161 138 -270 169 -45 12 -90 32 -102 43 -11 12 -16 21 -10
21 5 0 15 -5 21 -11z m1737 -70 c-16 -17 -38 -35 -49 -41 -11 -5 0 8 25 31 54
48 65 53 24 10z m565 -29 c0 -9 -4 -8 -9 5 -5 11 -9 27 -9 35 0 9 4 8 9 -5 5
-11 9 -27 9 -35z m-1959 -137 c0 -8 -9 0 -50 45 l-45 47 48 -45 c26 -24 47
-45 47 -47z m-25 -4 c34 -37 31 -35 -20 11 -80 72 -85 77 -50 52 17 -11 48
-40 70 -63z m1074 -100 c-46 -50 -112 -128 -147 -173 -99 -128 -155 -182 -208
-200 l-47 -16 6 60 c4 43 15 79 41 126 93 168 187 248 330 279 117 26 117 25
25 -76z m-996 2 c27 -46 14 -38 -18 12 -16 23 -22 37 -14 30 8 -6 22 -25 32
-42z m188 -541 c2 -78 3 -87 9 -50 6 40 7 37 8 -30 2 -91 -14 -172 -62 -309
-20 -57 -53 -183 -72 -280 -20 -97 -41 -183 -46 -191 -7 -11 -8 -8 -4 10 4 14
22 115 41 225 24 143 46 234 76 320 l42 120 -5 185 c-2 102 -1 165 3 140 4
-25 9 -88 10 -140z m146 78 c-2 -13 -4 -3 -4 22 0 25 2 35 4 23 2 -13 2 -33 0
-45z m-120 -20 c-3 -7 -5 -2 -5 12 0 14 2 19 5 13 2 -7 2 -19 0 -25z m-98
-213 c0 -38 -4 -88 -8 -110 -6 -27 -8 12 -8 120 0 110 3 144 8 110 4 -27 7
-81 8 -120z m88 -387 c-3 -8 -6 -5 -6 6 -1 11 2 17 5 13 3 -3 4 -12 1 -19z
m-17 -186 c-22 -168 -109 -382 -182 -448 -44 -40 -94 -64 -132 -64 -41 0 -38
15 10 51 54 40 165 200 223 322 37 76 79 218 83 276 1 15 3 9 5 -13 3 -22 -1
-77 -7 -124z m-121 -144 c-32 -63 -133 -207 -126 -180 6 25 139 234 145 228 2
-2 -7 -24 -19 -48z m-264 -148 c9 -15 -61 -53 -185 -100 -63 -23 -132 -51
-153 -62 -22 -11 -41 -17 -45 -14 -3 3 44 28 104 56 60 27 145 68 189 89 44
22 81 40 82 40 1 1 5 -3 8 -9z m125 -95 c-7 -9 -32 -30 -54 -46 -35 -27 -34
-25 9 15 51 47 67 58 45 31z m591 -132 c13 -17 13 -17 -6 -3 -11 8 -22 16 -24
17 -2 2 0 3 6 3 6 0 17 -8 24 -17z"/>
<path d="M3067 3380 c-20 -27 -32 -50 -25 -49 16 1 56 17 45 18 -4 1 0 15 8
32 28 52 12 52 -28 -1z"/>
<path d="M2087 3403 c3 -32 12 -65 20 -73 13 -13 14 -11 8 20 -11 56 -25 110
-30 110 -2 0 -1 -26 2 -57z"/>
<path d="M2140 3365 c0 -5 5 -17 10 -25 5 -8 10 -10 10 -5 0 6 -5 17 -10 25
-5 8 -10 11 -10 5z"/>
<path d="M2072 3308 c-30 -30 1 -94 33 -68 20 17 19 43 -3 63 -14 13 -21 14
-30 5z"/>
<path d="M2405 2809 c40 -85 67 -179 52 -179 -4 0 -11 19 -18 43 -14 54 -70
189 -76 184 -2 -3 7 -31 20 -63 13 -33 32 -83 41 -111 10 -29 21 -55 25 -58 4
-2 9 -30 10 -62 3 -89 11 -76 11 18 0 96 -17 167 -56 245 -48 95 -56 80 -9
-17z"/>
<path d="M2528 4943 c-34 -5 -45 -36 -24 -66 44 -62 42 -61 75 -37 22 15 31
29 31 50 0 30 -23 61 -43 59 -7 -1 -24 -4 -39 -6z"/>
<path d="M2196 4909 c-14 -17 -26 -35 -26 -41 0 -5 -10 -18 -22 -27 -26 -21
-18 -51 13 -51 16 0 20 4 15 18 -4 11 1 8 15 -8 12 -14 28 -24 35 -22 8 2 14
-3 14 -9 0 -7 7 -4 15 7 20 27 18 78 -5 124 -11 22 -22 40 -24 40 -2 0 -16
-14 -30 -31z"/>
<path d="M3157 4892 c-35 -38 -11 -114 30 -98 9 4 20 1 24 -5 12 -20 59 17 59
46 0 27 -26 35 -47 14 -7 -7 -12 0 -17 25 -8 40 -24 46 -49 18z"/>
<path d="M2420 4860 c0 -36 5 -43 48 -75 54 -40 58 -41 66 -19 9 25 -19 79
-56 108 -48 36 -58 33 -58 -14z"/>
<path d="M3028 4883 c-20 -25 -39 -118 -29 -144 5 -15 3 -33 -7 -51 -23 -48
12 -173 47 -166 10 2 29 -14 49 -42 17 -25 32 -39 32 -32 0 6 7 12 16 12 8 0
22 17 31 38 13 31 14 44 4 82 -17 65 -33 78 -67 56 -14 -10 -33 -36 -42 -57
-14 -37 -16 -38 -34 -22 -23 20 -35 65 -30 109 3 25 13 39 43 58 30 20 39 23
39 11 0 -23 47 -19 60 6 17 30 5 52 -25 47 -23 -5 -25 -2 -25 28 0 40 -19 84
-35 84 -7 0 -19 -8 -27 -17z"/>
<path d="M2740 4865 c0 -28 44 -80 59 -70 14 8 25 66 15 75 -5 4 -24 11 -41
15 -31 6 -33 5 -33 -20z"/>
<path d="M2321 4863 c-27 -22 -40 -91 -20 -104 23 -14 38 -11 64 15 21 21 23
27 13 65 -11 45 -24 50 -57 24z"/>
<path d="M2651 4852 c-65 -33 -69 -82 -7 -82 40 0 66 28 66 72 0 33 -12 35
-59 10z"/>
<path d="M2056 4841 c-35 -39 1 -93 39 -61 18 15 19 52 3 68 -16 16 -22 15
-42 -7z"/>
<path d="M1947 4803 c-4 -3 -7 -19 -7 -34 0 -36 46 -72 61 -48 6 10 9 8 10
-11 0 -23 1 -23 9 -5 13 30 12 79 -2 93 -13 13 -60 16 -71 5z"/>
<path d="M2883 4803 c-30 -11 -3 -102 36 -123 29 -15 39 -13 52 11 29 55 -34
135 -88 112z"/>
<path d="M2713 4778 c-13 -6 -25 -19 -28 -28 -4 -12 -12 -16 -24 -13 -29 7
-34 -14 -9 -39 l23 -23 3 24 4 23 14 -21 c10 -14 26 -21 48 -21 58 0 74 43 31
85 -27 28 -30 28 -62 13z"/>
<path d="M1761 4766 c-20 -24 -9 -59 22 -74 26 -13 31 -12 51 7 12 12 30 21
40 21 27 0 17 44 -11 48 -15 2 -23 -2 -23 -12 0 -13 -5 -12 -34 5 -29 17 -35
17 -45 5z"/>
<path d="M2390 4761 c-27 -51 0 -90 53 -75 42 13 47 44 11 73 -33 26 -50 27
-64 2z"/>
<path d="M2069 4741 c-32 -32 -38 -75 -16 -105 13 -18 15 -17 54 2 43 22 53
37 53 81 0 56 -45 67 -91 22z"/>
<path d="M3380 4744 c-24 -63 4 -110 40 -66 17 20 17 20 26 -16 7 -29 14 -36
29 -34 11 2 26 11 33 20 14 19 16 71 2 92 -8 12 -13 11 -38 -7 l-28 -21 -11
29 c-14 36 -40 38 -53 3z"/>
<path d="M3172 4738 c-7 -7 -12 -27 -12 -45 0 -40 40 -74 64 -54 37 31 25 111
-17 111 -13 0 -28 -5 -35 -12z"/>
<path d="M3540 4688 c-25 -41 -25 -53 0 -78 24 -24 30 -24 54 -7 23 17 24 56
1 90 -22 35 -31 34 -55 -5z"/>
<path d="M1632 4688 c-31 -31 -1 -68 56 -68 23 0 31 5 36 24 16 66 -36 74 -74
11 -11 -20 -9 -8 6 30 7 18 -7 20 -24 3z"/>
<path d="M1910 4683 c1 -33 28 -53 100 -75 8 -3 12 -3 8 -1 -5 3 -8 11 -8 18
0 7 -12 27 -26 44 -29 35 -74 43 -74 14z"/>
<path d="M1849 4667 c-16 -34 4 -77 35 -77 33 0 40 15 25 53 -21 51 -43 60
-60 24z"/>
<path d="M1740 4661 c-16 -32 -12 -51 20 -83 25 -25 33 -28 45 -18 24 20 19
86 -7 104 -30 21 -45 20 -58 -3z"/>
<path d="M3033 4669 c-27 -10 -31 -47 -7 -56 10 -3 26 4 41 20 24 24 25 25 7
35 -11 6 -28 6 -41 1z"/>
<path d="M3720 4657 c-34 -17 -47 -57 -30 -96 15 -36 28 -38 64 -10 29 22 32
40 15 88 -12 35 -14 36 -49 18z"/>
<path d="M1530 4614 c0 -27 7 -42 32 -65 18 -16 35 -29 38 -29 20 1 31 21 28
51 -2 27 -10 38 -43 56 -22 13 -43 23 -47 23 -5 0 -8 -16 -8 -36z"/>
<path d="M2690 4629 c0 -11 5 -17 10 -14 6 3 10 13 10 21 0 8 -4 14 -10 14 -5
0 -10 -9 -10 -21z"/>
<path d="M1450 4607 c0 -45 24 -67 48 -44 15 16 15 19 -4 44 -30 40 -44 40
-44 0z"/>
<path d="M3631 4621 c-15 -27 -14 -63 2 -86 21 -27 37 -9 37 39 0 52 -22 79
-39 47z"/>
<path d="M2732 4624 c-7 -3 -19 -19 -28 -36 -19 -36 -5 -58 35 -58 43 0 73 27
69 63 -3 28 -7 32 -33 34 -16 1 -36 -1 -43 -3z"/>
<path d="M2084 4606 c-3 -8 -14 -12 -27 -9 -21 4 -21 4 -2 -8 11 -6 26 -19 33
-27 11 -15 14 -15 28 0 10 10 14 23 9 37 -7 24 -33 28 -41 7z"/>
<path d="M1643 4569 c8 -39 66 -99 96 -99 11 0 23 -5 26 -11 5 -7 16 -2 31 12
27 26 31 44 9 53 -11 4 -15 -1 -15 -19 0 -13 -4 -27 -10 -30 -6 -4 -10 8 -10
29 0 50 -34 86 -89 93 l-44 6 6 -34z"/>
<path d="M3204 4575 c-4 -15 3 -50 16 -88 l22 -63 34 30 c36 31 46 75 22 93
-28 21 -49 22 -68 3 -11 -11 -20 -16 -20 -11 0 5 7 14 15 21 19 16 19 40 0 40
-8 0 -17 -11 -21 -25z"/>
<path d="M1370 4561 c0 -39 19 -69 50 -80 18 -6 36 -8 41 -5 16 10 9 64 -11
84 -27 27 -80 27 -80 1z"/>
<path d="M1960 4556 c0 -24 38 -81 48 -72 3 3 12 1 19 -6 31 -25 47 57 17 86
-8 9 -31 16 -50 16 -29 0 -34 -3 -34 -24z"/>
<path d="M3514 4566 c-10 -25 0 -48 29 -70 27 -20 29 -20 42 -3 24 33 -5 87
-47 87 -10 0 -21 -6 -24 -14z"/>
<path d="M1833 4551 c2 -25 36 -51 84 -66 18 -5 24 -1 29 20 4 15 1 31 -6 40
-14 17 -66 20 -75 5 -10 -15 -23 -12 -29 8 -3 10 -4 7 -3 -7z"/>
<path d="M1501 4521 c-12 -22 -5 -31 26 -31 27 0 42 28 22 41 -22 14 -37 11
-48 -10z"/>
<path d="M3747 4522 c-12 -13 -17 -36 -17 -73 0 -34 3 -49 9 -40 6 9 11 10 15
2 19 -31 86 21 86 66 0 59 -56 86 -93 45z"/>
<path d="M3862 4528 c-15 -15 -15 -43 -2 -69 17 -31 58 -24 97 18 l35 37 -43
13 c-55 16 -72 16 -87 1z"/>
<path d="M3451 4489 c-16 -22 -33 -53 -36 -70 -8 -34 9 -92 32 -110 8 -7 19
-22 23 -34 8 -18 9 -18 9 -1 1 16 3 17 18 5 15 -13 16 -11 9 14 -3 15 -4 27
-1 27 2 0 8 -14 13 -32 l8 -32 20 20 c28 28 38 105 19 149 -15 37 -65 105 -77
105 -5 0 -21 -18 -37 -41z"/>
<path d="M1606 4475 c13 -20 15 -38 10 -82 -13 -108 -9 -105 -72 -71 -36 20
-64 28 -86 26 l-33 -3 35 -23 c19 -12 48 -22 63 -22 39 0 84 -26 92 -52 4 -13
18 -37 31 -55 28 -37 29 -43 10 -43 -13 0 -26 -20 -26 -41 0 -17 30 -9 42 11
16 25 28 26 28 0 0 -24 44 -55 66 -46 10 4 14 15 12 33 -3 24 -8 28 -38 31
-43 4 -68 25 -91 77 -21 47 -37 161 -19 132 9 -14 15 -16 26 -6 24 20 16 63
-22 112 -40 51 -55 62 -28 22z"/>
<path d="M1822 4465 c-18 -39 -14 -106 8 -142 22 -37 57 -49 103 -36 29 8 32
12 35 55 4 58 -16 99 -61 127 -46 28 -71 27 -85 -4z m98 -145 c6 -11 8 -20 6
-20 -3 0 -10 9 -16 20 -6 11 -8 20 -6 20 3 0 10 -9 16 -20z"/>
<path d="M1206 4448 c-15 -57 9 -98 56 -98 30 0 24 61 -10 93 -34 33 -38 33
-46 5z"/>
<path d="M1316 4448 c-9 -12 -16 -33 -16 -45 0 -25 30 -93 41 -93 15 0 59 63
59 84 0 27 -35 76 -55 76 -8 0 -21 -10 -29 -22z"/>
<path d="M1406 4443 c8 -34 22 -53 40 -53 36 0 26 39 -17 64 l-30 18 7 -29z"/>
<path d="M1490 4440 c-16 -40 -2 -73 42 -100 l32 -19 18 27 c23 35 23 63 -3
96 -30 38 -73 36 -89 -4z"/>
<path d="M1660 4458 c1 -14 38 -63 44 -57 2 2 7 14 10 26 5 16 2 25 -13 32
-26 14 -41 14 -41 -1z"/>
<path d="M2010 4461 c0 -5 7 -12 16 -15 14 -5 15 -4 4 9 -14 17 -20 19 -20 6z"/>
<path d="M1734 4425 c-8 -21 1 -42 25 -55 19 -9 21 -8 21 14 0 35 -10 56 -26
56 -8 0 -17 -7 -20 -15z"/>
<path d="M3825 4420 c-10 -11 -35 -28 -56 -37 -42 -18 -43 -21 -30 -42 7 -11
10 -10 15 5 3 11 18 25 33 32 16 7 36 24 46 37 22 30 17 33 -8 5z"/>
<path d="M3880 4412 c-41 -20 -51 -59 -25 -98 14 -21 14 -27 2 -45 -13 -18
-15 -17 -27 27 -20 71 -55 69 -86 -5 -30 -71 -29 -76 14 -90 34 -12 43 -11 65
3 14 10 28 23 31 31 2 7 30 32 60 55 55 40 56 42 56 90 0 48 -1 50 -27 50 -16
0 -44 -8 -63 -18z"/>
<path d="M2017 4403 c-4 -3 -7 -21 -7 -39 0 -25 7 -38 25 -50 31 -20 45 -11
45 30 0 43 -41 82 -63 59z"/>
<path d="M4024 4346 c-11 -30 1 -61 24 -64 28 -4 72 33 72 60 0 15 -8 18 -45
18 -30 0 -47 -5 -51 -14z"/>
<path d="M3649 4321 c-35 -35 -35 -56 1 -83 31 -23 54 -16 70 22 32 77 -14
117 -71 61z"/>
<path d="M3313 4313 c-9 -22 24 -62 46 -56 31 8 46 30 32 47 -16 20 -72 26
-78 9z"/>
<path d="M1136 4307 c-27 -20 -17 -51 18 -55 45 -5 76 6 76 28 0 35 -59 52
-94 27z"/>
<path d="M2891 4306 c-16 -19 6 -66 31 -66 21 0 26 48 6 68 -16 16 -23 15 -37
-2z"/>
<path d="M1362 4290 c-16 -27 -15 -69 2 -76 38 -14 76 38 56 76 -14 26 -42 26
-58 0z"/>
<path d="M3967 4295 c-44 -15 -53 -22 -44 -32 12 -11 87 17 87 32 0 8 -1 15
-2 15 -2 -1 -20 -7 -41 -15z"/>
<path d="M1820 4255 c0 -36 3 -46 10 -35 5 8 10 24 10 35 0 11 -5 27 -10 35
-7 11 -10 1 -10 -35z"/>
<path d="M1513 4272 c-13 -2 -23 -9 -23 -16 0 -7 10 -28 23 -46 41 -61 126
-43 94 20 -14 27 -61 48 -94 42z"/>
<path d="M4208 4269 c-20 -11 -24 -58 -5 -60 40 -4 57 10 57 49 0 24 -22 29
-52 11z"/>
<path d="M3997 4263 c-10 -9 -8 -55 2 -72 12 -18 27 -7 35 25 9 34 -17 67 -37
47z"/>
<path d="M1046 4225 c-8 -19 -22 -35 -30 -35 -28 0 -17 -28 15 -39 52 -18 76
-14 83 14 9 34 -3 74 -24 85 -27 14 -28 13 -44 -25z"/>
<path d="M3481 4234 c0 -11 3 -14 6 -6 3 7 2 16 -1 19 -3 4 -6 -2 -5 -13z"/>
<path d="M1135 4229 c-15 -24 6 -80 38 -99 90 -55 145 23 61 89 -28 22 -88 29
-99 10z"/>
<path d="M1445 4224 c-31 -32 -10 -84 35 -84 33 0 36 10 19 58 -13 37 -33 47
-54 26z"/>
<path d="M3898 4229 c-21 -12 -24 -49 -6 -67 22 -22 67 -14 80 14 21 46 -28
81 -74 53z"/>
<path d="M2750 4211 c0 -30 11 -51 26 -51 19 0 18 35 -2 54 -20 21 -24 20 -24
-3z"/>
<path d="M1959 4201 c-17 -13 -23 -28 -22 -54 1 -46 9 -57 38 -57 20 0 26 7
34 38 19 73 20 76 16 35 -5 -45 7 -57 24 -25 7 14 5 27 -9 50 -22 36 -47 40
-81 13z"/>
<path d="M3208 4184 c-38 -20 -40 -64 -3 -64 28 0 38 16 33 53 -3 24 -4 25
-30 11z"/>
<path d="M3663 4165 c0 -22 2 -30 4 -17 2 12 2 30 0 40 -3 9 -5 -1 -4 -23z"/>
<path d="M4205 4175 c-38 -37 -33 -55 15 -55 34 0 42 4 52 26 11 22 10 28 -7
40 -26 19 -32 18 -60 -11z"/>
<path d="M3690 4174 c0 -15 22 -44 35 -44 21 0 28 19 15 35 -12 14 -50 21 -50
9z"/>
<path d="M1540 4150 c-18 -18 -21 -30 -16 -58 6 -39 31 -78 59 -96 26 -16 33
2 27 79 -4 55 -9 70 -27 82 -19 13 -24 12 -43 -7z m7 -31 c-8 -21 -13 -26 -15
-15 -2 10 2 23 8 31 18 22 20 18 7 -16z"/>
<path d="M1140 4137 c0 -11 42 -77 48 -76 4 0 16 4 27 8 19 7 18 8 -5 21 -14
7 -35 22 -47 33 -13 11 -23 18 -23 14z"/>
<path d="M4286 4114 c-24 -24 -19 -42 17 -64 17 -11 35 -20 38 -20 18 0 50 39
55 68 l7 32 -51 0 c-33 0 -56 -6 -66 -16z"/>
<path d="M952 4086 l-37 -34 20 -22 c25 -28 75 -50 115 -50 22 0 43 11 72 39
l42 38 -44 32 c-62 44 -117 44 -168 -3z"/>
<path d="M3127 4102 c-24 -27 -22 -62 4 -62 49 0 76 39 47 68 -17 17 -32 15
-51 -6z"/>
<path d="M4169 4081 l-23 -18 31 -17 c24 -12 38 -13 57 -6 30 11 32 22 10 44
-21 21 -47 20 -75 -3z"/>
<path d="M3371 4084 c0 -6 -14 -31 -31 -55 -38 -56 -38 -65 0 -42 33 19 44 46
37 84 -2 13 -5 19 -6 13z"/>
<path d="M4372 4014 c-18 -13 -21 -19 -11 -30 18 -22 45 -17 57 11 7 14 12 28
12 30 0 11 -37 4 -58 -11z"/>
<path d="M4035 3979 c-40 -37 -45 -46 -45 -85 0 -38 4 -46 25 -56 18 -8 24
-17 19 -30 -8 -26 14 -23 77 10 40 21 64 28 94 25 56 -5 98 23 120 81 10 26
15 56 11 71 -6 23 -11 25 -60 25 -40 0 -60 -6 -81 -22 -32 -25 -64 -91 -65
-130 0 -28 -23 -49 -67 -63 -18 -5 -22 -3 -17 9 3 8 14 18 25 21 41 13 62 100
39 159 -5 14 -14 26 -20 26 -6 0 -31 -19 -55 -41z"/>
<path d="M3015 3985 c-14 -13 -25 -30 -25 -38 0 -20 27 -40 44 -34 24 10 48
54 41 77 -9 27 -31 25 -60 -5z"/>
<path d="M3134 3989 c-8 -14 14 -29 42 -29 28 0 36 10 23 27 -14 16 -55 17
-65 2z"/>
<path d="M1326 3974 c-9 -23 21 -66 42 -62 21 4 28 44 12 64 -17 19 -46 18
-54 -2z"/>
<path d="M1420 3975 c-10 -12 -10 -21 -1 -41 9 -21 17 -25 44 -22 27 2 33 8
35 30 3 22 -2 30 -23 38 -35 13 -40 13 -55 -5z"/>
<path d="M1630 3981 c0 -6 4 -13 10 -16 6 -3 7 1 4 9 -7 18 -14 21 -14 7z"/>
<path d="M955 3957 c-17 -13 -17 -15 4 -36 16 -16 32 -21 62 -19 52 3 66 -13
82 -92 14 -72 32 -85 66 -51 46 46 6 142 -52 127 -20 -5 -29 2 -56 39 -35 48
-69 58 -106 32z"/>
<path d="M3110 3951 c0 -5 5 -13 10 -16 6 -3 10 -2 10 4 0 5 -4 13 -10 16 -5
3 -10 2 -10 -4z"/>
<path d="M4385 3948 c-30 -17 -35 -28 -35 -80 0 -37 -4 -48 -19 -53 -11 -3
-25 -12 -32 -21 -10 -12 -9 -13 7 -8 10 4 29 15 41 25 13 9 39 20 59 23 28 6
38 14 50 41 8 19 14 46 14 60 0 22 -4 25 -32 25 -18 0 -42 -6 -53 -12z"/>
<path d="M1544 3926 c-4 -11 -1 -21 7 -27 17 -11 26 18 10 34 -7 7 -12 5 -17
-7z"/>
<path d="M3483 3800 c-33 -20 -47 -51 -41 -91 2 -19 10 -25 34 -27 44 -4 76
36 72 92 -4 48 -19 55 -65 26z"/>
<path d="M4205 3799 c-22 -10 -50 -19 -62 -19 -27 0 -73 -20 -73 -32 0 -22
113 15 172 56 30 21 12 19 -37 -5z"/>
<path d="M4332 3788 c-22 -22 -14 -57 18 -73 44 -23 73 -18 105 15 16 16 27
32 24 34 -36 32 -125 46 -147 24z"/>
<path d="M778 3723 c6 -93 18 -117 63 -121 39 -3 48 4 69 56 16 41 1 76 -43
99 -16 8 -27 17 -24 20 10 9 52 -18 85 -55 l33 -37 -20 42 c-26 52 -45 63
-113 63 l-54 0 4 -67z"/>
<path d="M1220 3765 c-34 -41 44 -110 97 -86 32 15 31 63 -2 85 -31 20 -79 21
-95 1z m78 -40 c-2 -12 -7 -7 -15 16 -12 30 -11 32 3 17 9 -8 14 -23 12 -33z"/>
<path d="M3017 3760 c-7 -27 20 -69 46 -70 25 0 21 25 -11 61 -29 32 -29 32
-35 9z"/>
<path d="M4241 3754 c-23 -17 -29 -64 -8 -64 16 0 57 41 57 57 0 19 -27 22
-49 7z"/>
<path d="M1130 3712 c0 -25 35 -56 55 -49 20 8 19 30 -3 50 -25 23 -52 22 -52
-1z"/>
<path d="M3850 3675 c-8 -9 -8 -15 -2 -15 18 0 42 12 42 21 0 14 -26 10 -40
-6z"/>
<path d="M4297 3683 c-34 -34 61 -114 98 -83 21 18 18 37 -10 65 -23 24 -73
34 -88 18z"/>
<path d="M4442 3668 c-5 -7 -11 -32 -14 -55 l-3 -41 34 14 c18 8 35 14 36 14
11 0 12 35 3 55 -12 27 -39 33 -56 13z"/>
<path d="M4244 3655 c-8 -20 4 -35 27 -35 22 0 23 4 9 31 -13 23 -28 25 -36 4z"/>
<path d="M4541 3594 c-17 -12 -21 -24 -19 -52 5 -64 68 -52 68 13 0 44 -19 59
-49 39z"/>
<path d="M4250 3593 c-27 -10 -60 -46 -60 -65 0 -21 53 -48 93 -48 34 0 77 37
77 65 0 15 -8 26 -27 33 -43 17 -67 21 -83 15z"/>
<path d="M726 3545 c-12 -33 -17 -132 -7 -157 12 -32 64 -62 95 -54 12 3 34
19 50 35 26 27 27 33 17 61 -9 28 -9 31 4 20 22 -18 18 -60 -7 -87 -16 -18
-18 -22 -6 -18 23 9 48 49 48 77 0 36 -26 66 -83 95 -72 36 -104 44 -111 28z"/>
<path d="M4414 3548 c-42 -20 -60 -98 -23 -98 23 0 95 48 104 69 13 34 -36 51
-81 29z"/>
<path d="M1207 3533 c-10 -10 -8 -52 3 -74 19 -35 70 -14 70 30 0 28 -56 62
-73 44z"/>
<path d="M1340 3500 c0 -56 68 -91 105 -54 15 15 15 18 -2 37 -17 19 -72 47
-93 47 -5 0 -10 -13 -10 -30z"/>
<path d="M1010 3501 c-19 -10 -36 -25 -38 -33 -1 -8 14 -34 35 -58 34 -37 44
-43 80 -43 57 0 169 47 121 51 -7 0 -33 7 -58 16 -44 14 -45 15 -12 15 18 1
43 -4 55 -10 12 -6 1 10 -25 35 -39 38 -53 46 -85 46 -21 0 -54 -8 -73 -19z"/>
<path d="M4600 3487 c-36 -18 -38 -50 -3 -66 l28 -13 -35 -29 c-46 -39 -133
-99 -143 -99 -5 0 1 13 12 29 30 41 28 79 -4 87 -39 10 -93 -4 -110 -29 -15
-22 -21 -86 -7 -88 132 -15 188 4 254 84 24 29 53 63 64 76 l22 23 -5 -26 c-5
-22 -2 -26 19 -26 28 0 48 17 48 42 0 16 -17 23 -43 19 -4 -1 -15 5 -23 14
-19 18 -41 19 -74 2z"/>
<path d="M1276 3393 c22 -6 30 -12 19 -12 -11 -1 -51 -17 -88 -36 -76 -39
-143 -47 -154 -19 -8 21 -79 53 -103 47 -25 -7 -31 -27 -19 -63 18 -51 71 -66
104 -30 14 15 31 20 70 20 50 0 52 -1 48 -24 -6 -30 27 -66 61 -66 23 0 56 23
56 39 0 18 -49 51 -76 52 -24 0 -16 7 51 40 98 48 136 50 165 9 18 -25 28 -30
64 -30 23 0 46 4 51 9 6 5 23 11 38 13 l28 3 -30 32 -29 32 -147 -2 c-130 -2
-143 -3 -109 -14z"/>
<path d="M2621 3358 c41 -57 59 -75 40 -40 -5 9 -26 35 -46 57 -35 39 -35 39
6 -17z"/>
<path d="M3346 3364 c-3 -9 -6 -38 -6 -66 0 -44 4 -54 34 -84 38 -38 62 -37
77 3 23 62 4 120 -51 148 -37 19 -46 19 -54 -1z"/>
<path d="M4623 3364 c-21 -9 -15 -39 15 -67 31 -29 68 -35 96 -14 18 13 17 15
-10 45 -28 31 -75 47 -101 36z"/>
<path d="M1317 3343 c-14 -13 -7 -43 12 -53 23 -12 101 -14 101 -2 0 4 -9 13
-20 20 -12 7 -18 17 -15 21 10 17 -63 30 -78 14z"/>
<path d="M783 3295 c-20 -8 -33 -21 -33 -32 1 -17 1 -17 11 0 15 25 98 23 133
-4 20 -16 26 -29 25 -57 l-1 -37 -9 32 c-11 38 -43 63 -79 63 -36 0 -50 -17
-50 -61 0 -56 16 -89 50 -102 20 -7 30 -18 30 -32 0 -11 5 -27 10 -35 7 -11 8
-5 4 18 -6 29 -2 38 29 70 45 46 54 80 33 121 -30 56 -97 81 -153 56z"/>
<path d="M4080 3297 c-33 -17 -37 -43 -8 -67 l23 -20 -47 14 c-26 8 -49 11
-52 8 -4 -3 -6 0 -6 6 0 17 -50 15 -56 -2 -8 -21 15 -58 34 -54 9 2 21 12 27
23 10 20 11 20 55 3 121 -46 261 6 220 82 -17 32 -35 18 -34 -28 0 -33 -3 -42
-20 -46 -33 -9 -36 -8 -36 22 0 33 -8 45 -37 61 -27 14 -32 14 -63 -2z"/>
<path d="M4580 3295 c0 -2 12 -11 28 -20 22 -13 23 -15 4 -10 -57 16 -120 -36
-107 -88 5 -19 0 -25 -32 -37 -21 -8 -40 -16 -44 -18 -3 -1 -3 13 -1 31 7 59
-39 94 -115 89 -52 -4 -46 -86 10 -128 l25 -19 -25 -10 c-22 -9 -30 -6 -58 22
-38 38 -62 41 -99 12 -54 -42 -16 -119 60 -119 24 0 39 8 56 29 28 34 69 57
133 71 27 6 60 19 74 29 26 19 27 19 54 -5 39 -34 88 -32 129 5 31 27 31 29
18 62 -17 41 -77 109 -96 109 -8 0 -14 -2 -14 -5z"/>
<path d="M635 3280 c-8 -13 39 -60 60 -60 18 0 21 40 3 58 -15 15 -54 16 -63
2z"/>
<path d="M1475 3275 c-22 -8 -49 -15 -61 -15 -27 0 -127 -30 -121 -36 3 -3 31
2 63 10 55 14 89 15 44 1 -26 -8 -23 -40 5 -40 11 0 24 10 30 22 12 28 51 43
138 50 37 3 70 10 73 14 9 15 -128 9 -171 -6z"/>
<path d="M1023 3240 c-28 -16 -33 -26 -33 -56 0 -39 -1 -38 67 -19 11 4 9 1
-4 -6 -22 -11 -32 -39 -15 -39 18 0 55 35 68 65 28 69 -14 97 -83 55z"/>
<path d="M3197 3253 c-16 -15 -5 -43 25 -64 l31 -23 -6 34 c-10 47 -32 71 -50
53z"/>
<path d="M1482 3192 c-17 -50 19 -100 53 -72 19 16 19 50 -1 78 -21 30 -40 28
-52 -6z"/>
<path d="M608 3198 c-8 -7 -28 -30 -44 -52 -28 -38 -28 -39 -9 -53 59 -45 140
-56 170 -23 17 19 18 19 37 -3 l19 -22 -10 22 c-6 12 -11 33 -11 47 0 14 -12
42 -26 63 -15 21 -24 29 -19 18 17 -45 23 -75 15 -70 -5 3 -11 19 -15 35 -10
46 -70 67 -107 38z"/>
<path d="M3816 3167 c-67 -37 -77 -52 -45 -60 27 -7 45 2 83 41 44 47 27 55
-38 19z"/>
<path d="M1669 3168 c-8 -7 -21 -21 -29 -32 -11 -13 -4 -11 24 8 52 35 70 33
114 -11 21 -21 29 -30 18 -21 -51 41 -103 42 -149 1 -16 -15 -16 -18 -1 -34
24 -26 70 -32 136 -17 l58 13 -20 41 c-12 23 -32 46 -46 53 -33 15 -86 14
-105 -1z"/>
<path d="M4230 3176 c0 -2 7 -9 15 -16 9 -7 15 -8 15 -2 0 5 -7 12 -15 16 -8
3 -15 4 -15 2z"/>
<path d="M3308 3158 c-8 -21 2 -38 22 -38 28 0 35 19 14 35 -24 18 -31 18 -36
3z"/>
<path d="M958 3119 c-26 -15 -3 -56 44 -80 l38 -19 0 43 c0 37 -4 46 -25 55
-31 14 -35 14 -57 1z"/>
<path d="M1069 3099 c-6 -12 -8 -35 -5 -53 4 -17 7 -37 8 -43 2 -17 38 -50 38
-35 0 6 -8 16 -17 21 -10 6 -13 11 -7 11 5 0 15 -5 22 -12 18 -18 52 18 52 56
0 65 -64 104 -91 55z m55 -89 c-6 -6 -10 -3 -10 10 0 13 4 16 10 10 7 -7 7
-13 0 -20z"/>
<path d="M4493 3099 c-28 -10 -29 -30 -5 -52 33 -30 62 -16 62 28 0 21 -32 34
-57 24z"/>
<path d="M3090 3081 c0 -12 5 -21 10 -21 6 0 10 6 10 14 0 8 -4 18 -10 21 -5
3 -10 -3 -10 -14z"/>
<path d="M4569 3040 c-37 -36 -29 -53 21 -48 39 4 60 30 44 55 -17 28 -32 26
-65 -7z"/>
<path d="M772 3037 c-17 -8 -21 -16 -16 -31 15 -48 59 -69 107 -50 15 5 13 38
-5 61 -16 20 -61 31 -86 20z"/>
<path d="M4322 3034 c-46 -32 -11 -84 57 -84 24 0 44 8 63 27 35 34 35 39 -2
58 -37 19 -90 19 -118 -1z"/>
<path d="M1445 3000 c-18 -19 -17 -20 6 -20 25 0 49 16 49 32 0 16 -37 8 -55
-12z"/>
<path d="M3026 3012 c-11 -18 25 -52 55 -52 35 0 37 9 6 38 -24 22 -52 29 -61
14z"/>
<path d="M606 2989 c-26 -21 -26 -22 -9 -41 10 -11 30 -26 45 -34 28 -15 128
-20 128 -6 0 13 -41 77 -58 90 -24 19 -76 14 -106 -9z"/>
<path d="M907 3003 c-16 -15 -6 -44 18 -53 26 -10 75 2 75 18 0 28 -73 56 -93
35z"/>
<path d="M4086 2994 c-10 -26 -7 -34 14 -34 20 0 44 32 33 44 -12 12 -41 6
-47 -10z"/>
<path d="M3529 2983 c13 -25 41 -43 67 -43 16 0 16 1 -1 20 -10 11 -26 20 -35
20 -9 0 -22 6 -29 13 -11 10 -11 8 -2 -10z"/>
<path d="M4469 2974 c-12 -14 -11 -16 5 -13 11 2 21 10 24 17 5 17 -13 15 -29
-4z"/>
<path d="M4540 2960 c-14 -4 -43 -9 -65 -9 -22 -1 -47 -6 -55 -12 -11 -8 -7
-9 17 -5 18 3 58 0 89 -6 51 -10 58 -10 70 7 8 10 14 22 14 27 0 10 -36 9 -70
-2z"/>
<path d="M857 2935 c-15 -14 -39 -25 -52 -25 -15 0 -32 -11 -45 -30 -19 -27
-26 -30 -56 -24 -68 13 -111 -26 -127 -113 l-6 -33 50 0 c27 0 65 6 84 14 40
17 71 68 56 93 -15 29 13 70 53 77 35 7 86 40 86 57 0 15 -13 10 -43 -16z
m-152 -107 c-11 -6 -27 -16 -35 -22 -9 -6 -5 -1 8 12 13 12 28 22 35 22 7 0 3
-6 -8 -12z"/>
<path d="M1016 2942 c-11 -2 -36 -15 -55 -27 -20 -13 -52 -26 -71 -30 -19 -4
-46 -14 -58 -22 -25 -15 -52 -69 -52 -102 0 -18 5 -20 33 -15 94 17 132 48
144 119 5 28 11 36 40 46 46 15 100 3 128 -27 23 -25 24 -25 34 -5 10 17 7 23
-15 37 -28 19 -97 32 -128 26z"/>
<path d="M1542 2939 c5 -16 68 -25 68 -10 0 6 -6 11 -12 11 -7 0 -24 3 -37 7
-18 4 -23 2 -19 -8z"/>
<path d="M3097 2943 c-12 -11 -8 -23 8 -23 8 0 15 7 15 15 0 16 -12 20 -23 8z"/>
<path d="M4200 2922 c-26 -21 -19 -49 16 -63 52 -19 109 38 68 68 -25 18 -58
16 -84 -5z"/>
<path d="M4332 2918 c-11 -15 -33 -88 -26 -88 20 0 65 35 70 55 10 40 -20 62
-44 33z"/>
<path d="M4072 2889 c-32 -12 -25 -43 10 -47 15 -2 34 1 43 5 13 8 13 11 -1
31 -17 24 -19 25 -52 11z"/>
<path d="M4445 2890 c-51 -20 -59 -74 -14 -99 23 -13 28 -12 67 14 22 15 46
25 53 23 6 -2 -15 -19 -47 -37 -43 -24 -51 -31 -29 -26 34 7 115 52 115 64 0
13 -44 49 -73 60 -33 13 -44 13 -72 1z"/>
<path d="M1020 2865 c-14 -17 -2 -38 33 -56 24 -14 67 -3 67 16 0 42 -74 72
-100 40z"/>
<path d="M1146 2814 c-9 -24 -8 -31 10 -48 35 -36 55 -12 32 39 -13 28 -33 33
-42 9z"/>
<path d="M944 2774 c-19 -19 -34 -39 -34 -43 0 -5 18 -20 40 -35 22 -14 40
-32 40 -38 0 -9 -3 -9 -12 0 -7 7 -18 12 -26 12 -12 0 -12 -3 -2 -15 16 -19
54 -19 69 -1 10 11 8 15 -6 19 -15 4 -15 5 3 6 50 3 71 74 34 111 -31 31 -68
25 -106 -16z"/>
<path d="M3933 2765 c-4 -12 1 -24 16 -37 28 -22 35 -22 56 -2 20 20 6 39 -37
49 -21 6 -29 3 -35 -10z"/>
<path d="M2645 2740 c-4 -17 -5 -34 -2 -36 2 -3 7 10 11 27 8 42 0 50 -9 9z"/>
<path d="M4207 2764 c-12 -12 -8 -51 7 -63 8 -7 30 -14 49 -18 41 -6 54 14 34
55 -9 21 -21 28 -47 30 -20 2 -39 0 -43 -4z"/>
<path d="M1097 2754 c-11 -12 -8 -41 6 -53 22 -17 55 12 41 36 -12 19 -36 28
-47 17z"/>
<path d="M4503 2744 c-55 -27 -54 -62 4 -89 46 -22 99 -14 132 20 l26 26 -33
30 c-37 33 -79 38 -129 13z"/>
<path d="M804 2730 c-12 -5 -25 -14 -29 -20 -4 -6 -14 -8 -24 -5 -9 3 -26 -1
-37 -9 -18 -14 -18 -17 -4 -57 17 -48 37 -61 42 -27 2 18 11 24 40 29 63 10
97 56 66 87 -14 14 -24 14 -54 2z"/>
<path d="M1285 2711 c-8 -15 35 -35 47 -23 6 6 7 15 4 21 -9 14 -43 14 -51 2z"/>
<path d="M2612 2680 c0 -19 2 -27 5 -17 2 9 2 25 0 35 -3 9 -5 1 -5 -18z"/>
<path d="M4297 2629 c3 -24 7 -46 9 -48 9 -10 3 65 -5 78 -6 10 -8 -1 -4 -30z"/>
<path d="M855 2625 c-32 -32 -31 -49 4 -74 40 -29 75 -27 100 5 17 21 19 30 9
48 -27 51 -75 60 -113 21z"/>
<path d="M1012 2597 c-12 -13 -22 -31 -22 -40 0 -26 38 -7 62 31 19 31 19 32
1 32 -11 0 -29 -10 -41 -23z"/>
<path d="M3985 2585 c59 -34 95 -44 95 -26 0 10 -115 61 -138 61 -9 0 10 -16
43 -35z"/>
<path d="M1856 2561 c-16 -3 -35 -16 -44 -28 -18 -29 0 -31 28 -3 21 21 97 30
85 10 -4 -6 -12 -10 -18 -9 -50 6 -81 -17 -72 -54 4 -15 14 -27 21 -27 26 0
62 30 75 62 11 27 10 32 -6 44 -20 15 -24 15 -69 5z"/>
<path d="M4339 2563 c-9 -2 -21 -15 -28 -29 -13 -30 -2 -37 55 -32 44 3 55 25
29 52 -16 16 -26 18 -56 9z"/>
<path d="M1047 2553 c-4 -3 -7 -15 -7 -25 0 -13 7 -18 28 -17 32 1 77 17 51
18 -9 1 -22 8 -29 16 -13 16 -32 19 -43 8z"/>
<path d="M1424 2526 c-57 -25 -79 -69 -83 -170 l-3 -89 68 7 c84 9 127 28 162
74 21 28 27 46 28 101 2 55 1 60 -5 26 l-8 -40 -2 42 c-1 31 -6 45 -20 53 -27
14 -100 12 -137 -4z"/>
<path d="M1714 2530 c-47 -19 -94 -103 -94 -169 0 -22 3 -23 52 -19 44 5 57
11 85 42 40 43 46 103 13 136 -22 22 -25 23 -56 10z"/>
<path d="M1195 2521 c3 -5 1 -12 -5 -16 -5 -3 -10 -1 -10 4 0 20 -28 11 -49
-15 -12 -15 -21 -41 -21 -61 0 -31 2 -34 23 -27 48 14 75 35 85 62 10 29 0 62
-19 62 -6 0 -8 -4 -4 -9z"/>
<path d="M923 2495 c-20 -14 -61 -101 -52 -110 10 -9 122 13 130 26 12 19 11
56 -1 80 -13 23 -47 25 -77 4z"/>
<path d="M1020 2456 c0 -63 52 -72 69 -12 11 41 7 46 -35 46 -32 0 -34 -2 -34
-34z"/>
<path d="M4280 2460 c0 -41 29 -79 68 -89 20 -6 43 -11 50 -11 15 0 16 54 1
83 -17 31 -28 37 -76 37 -37 0 -43 -3 -43 -20z"/>
<path d="M4173 2450 c-17 -27 -17 -29 10 -39 30 -12 59 5 55 32 -4 30 -48 35
-65 7z"/>
<path d="M4126 2372 c-9 -28 10 -71 38 -83 33 -16 73 -4 109 32 33 34 27 50
-20 56 -117 16 -121 15 -127 -5z"/>
<path d="M4027 2343 c-25 -24 26 -83 73 -83 34 0 38 11 13 31 -15 12 -16 12
-8 -1 8 -13 6 -13 -7 -2 -9 8 -14 20 -12 27 8 20 -43 45 -59 28z"/>
<path d="M3741 2304 c-29 -37 -26 -61 12 -99 23 -23 48 -36 86 -44 30 -6 56
-10 58 -8 2 2 -2 28 -8 58 -8 38 -21 63 -44 86 -41 41 -76 43 -104 7z m84 -16
c18 -17 15 -17 -20 3 -51 29 -56 33 -25 24 14 -4 34 -16 45 -27z"/>
<path d="M3909 2299 c-15 -15 -19 -28 -14 -47 8 -35 47 -92 62 -92 6 0 19 20
28 43 15 40 15 47 1 80 -17 43 -45 48 -77 16z"/>
<path d="M3179 2179 c-140 -180 -161 -204 -224 -256 -76 -62 -85 -78 -19 -32
82 56 116 92 217 227 108 147 128 191 26 61z"/>
<path d="M4170 2251 c0 -6 7 -22 14 -34 23 -34 36 -108 26 -147 -8 -33 -8 -33
-9 18 -1 63 -22 116 -50 132 -26 14 -35 9 -51 -30 -21 -50 -6 -92 52 -146 l52
-48 18 39 c21 48 23 126 4 163 -17 33 -56 70 -56 53z"/>
<path d="M3680 2072 c0 -5 5 -13 10 -18 6 -6 14 -39 18 -74 l7 -63 70 -43 c78
-48 83 -46 84 30 1 62 -33 121 -82 144 -47 22 -107 35 -107 24z"/>
<path d="M2536 1445 c-3 -9 -5 -40 -5 -68 l2 -52 8 65 c8 65 7 84 -5 55z"/>
</g>
</svg>