<?xml version="1.0" standalone="no"?>
<!DOCTYPE svg PUBLIC "-//W3C//DTD SVG 20010904//EN"
 "http://www.w3.org/TR/2001/REC-SVG-20010904/DTD/svg10.dtd">
<svg version="1.0" xmlns="http://www.w3.org/2000/svg"
 width="512.000000pt" height="512.000000pt" viewBox="0 0 512.000000 512.000000"
 preserveAspectRatio="xMidYMid meet">
<metadata>
Created by potrace 1.16, written by Peter Selinger 2001-2019
</metadata>
<g transform="translate(0.000000,512.000000) scale(0.100000,-0.100000)"
fill="#000000" stroke="none">
<path d="M1 4993 l0 -128 121 -85 c66 -47 124 -87 130 -89 5 -2 20 2 33 9 20
11 27 10 51 -9 15 -11 33 -21 41 -21 8 0 33 -16 56 -35 30 -26 51 -35 79 -36
21 -1 44 -2 51 -3 7 -1 11 10 10 27 -2 31 4 33 35 11 29 -20 54 -12 44 15 -4
10 -88 90 -187 177 -165 144 -204 184 -177 184 14 0 102 -77 137 -117 18 -23
35 -33 54 -33 31 0 -4 30 525 -447 394 -356 419 -377 451 -378 12 -1 42 -18
67 -38 43 -35 68 -46 68 -29 0 4 -29 37 -65 72 -36 35 -65 68 -65 73 0 16 57
-33 198 -168 77 -74 143 -131 147 -125 6 10 -189 209 -316 322 -54 48 -68 65
-63 82 3 15 -4 30 -26 51 -22 21 -30 38 -30 62 0 26 -11 46 -52 91 -173 189
-191 212 -178 227 15 19 20 13 -214 263 l-189 202 -369 0 -368 0 1 -127z"/>
<path d="M1002 5113 c8 -20 329 -442 340 -449 7 -5 21 -8 30 -9 9 0 27 -16 40
-35 14 -21 32 -35 45 -35 14 0 40 -24 78 -70 32 -38 66 -76 77 -83 15 -11 16
-17 7 -28 -11 -14 -9 -41 6 -76 14 -35 -22 -18 -59 27 -51 62 -73 73 -98 47
-20 -20 -20 -20 13 -82 l33 -62 -22 -18 c-12 -10 -22 -22 -22 -26 0 -16 98
-112 150 -145 55 -35 110 -91 110 -111 0 -6 23 -35 50 -64 31 -32 50 -62 50
-76 0 -16 26 -50 83 -106 45 -45 87 -82 93 -82 6 0 22 12 37 28 l26 27 -56 85
c-30 47 -65 105 -76 130 -11 25 -30 61 -42 80 -12 19 -24 54 -27 77 -5 32 -33
84 -107 199 -56 87 -101 163 -101 170 0 7 7 14 16 16 11 2 -3 31 -58 118 -41
63 -134 215 -207 338 l-133 222 -140 0 c-77 0 -138 -3 -136 -7z m882 -1211
c31 -45 36 -80 5 -42 -52 66 -61 80 -46 80 8 0 26 -17 41 -38z"/>
<path d="M1539 5103 c47 -88 265 -581 420 -951 83 -196 89 -218 56 -206 -7 3
-15 -6 -19 -22 -6 -24 -2 -33 34 -62 22 -19 52 -56 66 -83 22 -45 26 -48 44
-37 25 16 25 20 -1 87 -36 96 -2 115 38 21 15 -33 32 -60 40 -60 18 0 17 9
-11 71 -36 82 -263 826 -357 1171 l-24 88 -148 0 c-138 0 -147 -1 -138 -17z"/>
<path d="M2004 5093 c3 -15 19 -104 35 -198 35 -195 44 -243 107 -525 31 -137
43 -205 35 -208 -15 -5 -14 -18 4 -80 10 -31 22 -52 30 -52 9 0 16 -15 20 -37
3 -21 14 -69 23 -108 15 -60 20 -70 37 -67 11 2 22 6 24 8 2 2 -12 106 -32
231 -61 385 -94 680 -78 696 18 18 30 -4 37 -73 10 -104 28 -102 20 1 -3 46
-9 155 -12 242 -6 146 -15 191 -30 153 -9 -25 -22 -19 -26 12 l-3 27 -98 3
-99 3 6 -28z"/>
<path d="M2315 4938 c3 -101 11 -244 16 -318 33 -499 41 -597 46 -610 3 -8 7
-40 9 -70 7 -90 11 -100 42 -100 45 0 51 11 54 90 2 59 6 75 18 75 12 0 16 19
18 100 2 77 7 104 20 118 23 26 30 163 10 215 -16 40 -15 53 7 237 13 101 45
414 45 438 0 4 -66 7 -146 7 l-146 0 7 -182z"/>
<path d="M2857 5103 c-5 -19 -93 -379 -109 -445 -5 -20 -19 -50 -33 -66 -20
-24 -28 -53 -45 -168 -11 -76 -25 -157 -31 -179 -6 -22 -17 -69 -25 -105 -19
-82 -27 -91 -18 -20 11 88 -15 47 -30 -47 -10 -65 -10 -82 0 -89 10 -7 10 -22
-1 -74 -8 -35 -13 -66 -11 -67 2 -2 20 -4 40 -6 37 -2 38 -1 61 56 36 86 130
372 176 532 23 77 71 241 109 365 37 124 75 249 83 278 l15 52 -88 0 c-76 0
-89 -3 -93 -17z"/>
<path d="M3248 4933 c-133 -277 -190 -398 -234 -495 -43 -95 -61 -125 -70
-116 -3 4 15 53 41 109 49 108 54 144 20 144 -14 0 -27 -15 -46 -55 -43 -90
-99 -228 -106 -260 -7 -37 10 -40 38 -7 36 44 19 -6 -45 -127 -34 -67 -73
-150 -86 -186 -12 -36 -31 -82 -41 -102 l-19 -38 41 -21 c41 -20 42 -20 52 -2
6 10 24 31 41 47 27 25 31 36 32 85 1 48 9 70 54 151 29 52 102 185 163 295
61 110 127 227 147 260 62 102 206 358 244 433 l36 72 -86 0 -85 0 -91 -187z"/>
<path d="M3720 5048 c-30 -39 -75 -96 -98 -127 -24 -31 -95 -126 -157 -211
-62 -85 -139 -184 -172 -220 -163 -179 -227 -280 -178 -280 8 0 15 -3 15 -6 0
-14 -74 -120 -102 -146 -15 -15 -28 -35 -28 -46 0 -32 -41 -104 -111 -196
l-68 -89 37 -33 c20 -18 42 -33 49 -34 7 0 27 15 45 33 131 129 219 210 223
205 3 -3 -13 -25 -37 -49 -46 -46 -37 -70 10 -27 15 13 66 59 115 102 48 43
87 84 87 92 0 21 -9 18 -57 -22 -24 -20 -47 -34 -50 -30 -6 5 83 107 99 114 5
2 8 -1 8 -7 0 -24 36 -8 91 39 32 28 60 50 63 50 3 0 64 43 136 96 109 81 130
101 130 123 0 20 20 44 91 106 50 44 122 113 160 153 38 41 72 71 77 68 5 -3
102 89 218 205 l209 209 -180 -2 -179 -3 -280 -319 c-237 -270 -278 -321 -268
-336 9 -14 1 -26 -45 -71 -63 -62 -323 -345 -398 -433 -27 -32 -51 -53 -53
-47 -4 12 38 70 107 146 121 133 306 368 306 387 0 38 -23 30 -76 -26 -28 -31
-56 -53 -61 -50 -12 8 20 60 88 144 37 46 54 75 50 86 -4 11 18 49 67 113 67
88 231 319 272 384 l17 27 -59 0 -59 0 -54 -72z"/>
<path d="M4858 5107 c-7 -7 -67 -60 -133 -117 -127 -112 -166 -145 -636 -540
-167 -140 -314 -265 -327 -278 -24 -23 -22 -45 3 -35 28 10 15 -13 -32 -61
-56 -55 -221 -171 -231 -161 -4 3 3 24 16 45 27 47 28 60 3 60 -18 0 -114 -70
-366 -268 -71 -56 -133 -102 -136 -102 -4 0 -10 10 -13 23 -6 22 -6 22 -21 2
-8 -11 -24 -30 -35 -42 l-21 -22 37 -58 c20 -32 38 -59 40 -61 3 -4 99 43 191
94 99 55 151 93 171 128 13 21 50 48 118 85 54 30 155 88 224 129 231 139 305
191 1202 838 l208 149 0 103 0 102 -124 0 c-87 0 -129 -4 -138 -13z m-1718
-1507 c-24 -15 -37 -11 -16 5 11 8 22 12 25 9 3 -3 -1 -9 -9 -14z"/>
<path d="M4945 4573 c-183 -123 -410 -265 -600 -376 -178 -104 -168 -97 -156
-111 14 -17 5 -24 -79 -66 -77 -38 -100 -57 -100 -81 0 -20 -57 -52 -180 -104
-85 -36 -95 -44 -73 -61 16 -11 14 -14 -27 -32 -25 -11 -123 -54 -218 -96 -95
-42 -174 -76 -177 -76 -2 0 -33 -13 -67 -28 -35 -16 -90 -39 -123 -52 -73 -28
-82 -35 -66 -53 10 -12 40 -7 201 34 104 27 196 46 204 43 34 -13 289 57 386
106 68 35 199 82 214 77 6 -2 0 -10 -14 -17 -13 -7 -49 -32 -79 -56 -36 -28
-84 -53 -134 -70 -84 -28 -99 -44 -72 -74 17 -19 17 -20 -6 -28 -13 -5 -68
-20 -122 -32 -71 -16 -101 -20 -109 -12 -8 8 -1 16 25 28 20 10 34 22 30 27
-9 15 -83 -2 -163 -38 -83 -37 -224 -75 -280 -75 -49 1 -25 12 98 45 67 18
102 32 102 41 0 8 -10 14 -24 14 -20 0 -236 -57 -282 -74 -14 -5 5 -106 20
-105 6 0 43 6 83 13 40 7 78 9 85 5 15 -10 46 -7 311 32 190 28 426 75 495
100 30 10 42 32 24 43 -4 2 -41 -2 -82 -10 -103 -19 -142 -19 -138 3 2 12 42
27 155 58 83 22 158 47 167 54 10 8 16 29 16 52 0 36 2 38 53 57 28 11 70 25
92 32 74 23 419 151 448 166 24 13 28 20 25 49 -1 19 2 39 7 44 11 10 252 111
266 111 22 0 5 -19 -41 -48 -82 -51 -62 -79 33 -46 l47 16 0 150 0 149 -52
-29 c-137 -77 -413 -212 -434 -212 -55 0 3 41 240 171 l246 133 0 163 c0 90
-1 162 -2 162 -2 -1 -79 -53 -173 -116z m-471 -591 c-17 -15 -34 -34 -37 -42
-2 -8 -55 -34 -117 -58 -104 -40 -147 -47 -138 -22 4 12 287 149 308 149 9 0
3 -10 -16 -27z"/>
<path d="M386 4494 c-3 -8 -3 -26 0 -40 5 -21 3 -24 -20 -24 -32 0 -42 -20
-25 -52 7 -13 12 -35 11 -50 -1 -14 5 -33 13 -41 19 -20 180 -115 530 -312
348 -196 325 -182 325 -204 0 -15 37 -39 147 -96 82 -43 186 -101 233 -129 89
-54 225 -122 263 -131 19 -5 25 0 36 30 7 20 11 37 9 39 -1 1 -40 26 -85 55
-75 48 -99 71 -75 71 5 0 46 -25 91 -56 78 -52 84 -54 96 -37 8 10 11 21 7 24
-99 92 -335 254 -357 245 -21 -8 -10 -25 55 -81 59 -51 70 -65 48 -65 -8 0
-374 235 -447 287 -2 1 2 9 8 17 10 12 7 18 -16 35 -15 11 -84 60 -153 110
-134 96 -136 97 -368 268 -132 97 -156 111 -171 101 -16 -9 -28 -6 -68 20 -55
36 -78 40 -87 16z"/>
<path d="M0 4092 l0 -300 188 -62 c103 -34 193 -68 201 -76 13 -12 12 -16 -2
-32 -21 -22 -21 -36 -4 -51 24 -19 559 -154 607 -153 25 0 68 4 96 7 40 5 74
1 148 -20 133 -36 149 -44 142 -71 -4 -13 0 -29 8 -37 22 -21 225 -51 338 -50
88 1 98 -1 103 -18 12 -36 30 -14 33 38 l3 51 -238 77 c-131 42 -260 83 -288
92 -81 26 -305 136 -305 150 0 17 -5 18 116 -27 59 -22 113 -40 120 -40 43 0
-12 34 -243 147 -289 142 -343 172 -343 190 0 7 5 13 10 13 16 0 11 36 -7 52
-10 9 -33 23 -52 33 -19 9 -53 36 -76 59 -23 22 -82 63 -131 90 -49 28 -157
89 -240 138 -83 48 -158 90 -167 94 -16 6 -17 -18 -17 -294z m595 -402 c204
-79 238 -94 243 -108 6 -18 -26 -9 -178 48 -148 56 -220 89 -220 101 0 16 24
10 155 -41z m344 -81 c32 -11 42 -29 16 -29 -20 0 -65 22 -65 32 0 11 11 10
49 -3z"/>
<path d="M1780 4318 c0 -16 42 -77 58 -83 19 -7 14 24 -9 61 -20 33 -49 46
-49 22z"/>
<path d="M1656 3842 c-7 -13 4 -25 77 -80 38 -29 77 -52 88 -52 10 0 19 2 19
4 0 7 -162 136 -170 136 -5 0 -11 -4 -14 -8z"/>
<path d="M5088 3705 c-3 -3 -61 -21 -129 -39 -68 -19 -223 -61 -344 -95 -121
-33 -254 -68 -295 -78 -70 -17 -92 -37 -45 -39 38 -2 45 -4 45 -13 0 -12 -21
-19 -98 -31 -82 -13 -102 -19 -102 -30 0 -5 10 -10 22 -12 38 -5 30 -25 -14
-36 -45 -11 -257 -46 -343 -57 -84 -10 -143 -26 -198 -53 -57 -28 -147 -42
-147 -23 0 13 -356 16 -363 4 -3 -5 -8 -33 -11 -63 l-7 -55 143 -23 c79 -13
220 -34 313 -47 292 -42 376 -55 515 -82 162 -31 219 -32 237 -6 13 17 40 18
433 21 l420 3 0 106 0 106 -152 -7 c-84 -4 -184 -11 -223 -16 -38 -5 -109 -9
-156 -10 -78 0 -87 2 -92 20 -5 18 -14 20 -83 20 -76 0 -79 -1 -183 -59 l-106
-60 -215 10 c-200 9 -293 18 -306 32 -6 6 37 19 124 37 54 12 74 40 28 40 -14
0 -28 4 -31 10 -4 6 18 8 57 6 73 -4 404 10 560 23 92 8 115 14 161 40 30 17
70 31 88 32 19 0 144 19 279 42 l245 42 3 173 c2 139 0 172 -11 172 -8 0 -16
-2 -19 -5z m-1669 -584 c7 -5 9 -11 5 -13 -15 -8 -104 3 -104 13 0 11 81 12
99 0z"/>
<path d="M1600 3470 c0 -13 41 -33 123 -60 63 -20 93 -21 71 -1 -14 13 -160
71 -178 71 -9 0 -16 -4 -16 -10z"/>
<path d="M0 3422 l0 -39 98 -17 c53 -10 208 -37 344 -60 136 -23 251 -45 254
-48 3 -4 -5 -12 -17 -19 -18 -9 -87 -10 -284 -6 -143 4 -290 10 -327 13 l-68
7 0 -124 0 -124 158 -4 c86 -3 247 -5 357 -5 120 -1 207 -5 218 -11 12 -8 68
-5 200 11 100 13 256 28 347 34 91 6 181 15 200 20 19 4 64 11 100 15 268 25
290 29 290 58 l0 23 -263 13 c-152 7 -311 10 -376 6 -106 -7 -113 -7 -135 14
-13 12 -45 30 -71 39 -68 24 -57 38 28 34 73 -3 115 10 89 26 -7 5 -93 19
-190 31 -97 13 -283 40 -412 61 -129 22 -293 48 -365 60 -72 11 -140 23 -152
25 -21 5 -23 2 -23 -33z"/>
<path d="M1800 3024 c-41 -8 -89 -12 -105 -9 -17 3 -73 -1 -125 -9 -52 -8
-156 -24 -230 -36 -74 -12 -180 -27 -235 -34 -148 -20 -423 -68 -436 -77 -21
-12 -1 -58 28 -65 14 -4 83 3 152 15 69 11 223 37 341 56 118 19 269 46 335
60 66 14 136 25 155 25 33 0 216 43 226 53 8 8 -8 37 -20 36 -6 -1 -45 -8 -86
-15z"/>
<path d="M3020 3010 c-6 -12 -10 -23 -8 -24 2 -1 37 -17 78 -36 41 -18 102
-46 135 -61 233 -107 311 -139 339 -137 27 1 163 -55 426 -174 30 -14 93 -42
140 -63 47 -21 108 -48 137 -61 28 -13 103 -44 165 -70 62 -25 135 -57 161
-70 l48 -25 -6 -52 c-11 -93 -13 -99 -35 -87 -11 6 -38 42 -62 82 -38 63 -48
74 -102 99 -34 16 -68 26 -78 23 -21 -6 -95 26 -427 187 -145 71 -270 129
-278 129 -31 0 -4 -24 77 -67 187 -101 229 -153 50 -63 -90 45 -142 58 -126
32 6 -10 219 -139 283 -171 35 -17 41 -25 40 -48 -2 -28 -32 -9 549 -347 l61
-35 7 -203 c3 -112 9 -230 13 -263 l6 -60 -45 65 c-42 61 -44 66 -28 80 51 47
42 96 -16 85 -37 -7 -41 0 -22 40 9 20 9 28 1 33 -7 4 -16 19 -22 33 -14 37
-57 47 -86 19 l-22 -20 -66 85 c-37 47 -67 94 -67 105 0 12 -12 32 -27 46 -24
22 -34 25 -73 20 -25 -2 -46 -5 -47 -5 -2 -1 -3 -13 -3 -27 0 -38 59 -94 99
-94 22 0 43 -11 68 -34 36 -33 36 -33 15 -45 -17 -9 -20 -17 -16 -41 6 -29 6
-29 -28 -18 -26 8 -42 7 -71 -5 -43 -19 -47 -40 -12 -63 18 -12 23 -22 20 -38
-9 -33 52 -126 99 -149 37 -19 38 -21 32 -61 -4 -23 -13 -63 -20 -91 -8 -27
-22 -86 -31 -130 -10 -44 -22 -91 -27 -104 -8 -21 -10 -22 -26 -8 -28 25 -79
31 -107 13 -23 -15 -28 -15 -54 -1 -18 9 -32 11 -36 5 -3 -5 3 -14 14 -19 11
-6 25 -27 31 -46 6 -20 23 -49 38 -66 l26 -31 -52 7 c-38 5 -57 3 -69 -7 -15
-12 -16 -7 -10 52 4 41 3 60 -2 51 -8 -12 -11 -8 -16 15 -4 16 -11 39 -16 52
-17 42 -11 50 36 58 25 3 55 14 68 23 12 9 35 22 50 29 24 10 26 15 17 32 -9
17 -6 20 22 28 39 10 40 18 11 56 -18 22 -34 29 -75 35 -49 6 -53 8 -53 33 -1
40 -11 44 -61 26 -24 -8 -44 -14 -44 -12 0 15 45 50 95 75 76 37 123 75 110
88 -15 15 -85 16 -126 2 -54 -18 -81 -52 -87 -110 l-4 -49 -39 26 c-38 27 -38
28 -38 92 0 76 18 106 73 121 30 8 62 43 84 92 9 18 -33 36 -70 30 -26 -4 -38
-2 -38 6 0 7 -20 21 -45 32 -44 20 -45 20 -83 0 -28 -14 -50 -18 -75 -14 -29
4 -37 2 -46 -15 -10 -19 -5 -25 41 -60 90 -67 118 -108 118 -174 0 -30 0 -30
-43 24 -60 74 -137 185 -137 196 0 5 -14 27 -31 48 -24 30 -29 45 -25 68 5 24
-2 40 -40 90 -62 80 -155 176 -171 176 -21 0 -15 -25 12 -50 28 -26 32 -40 12
-40 -17 0 -63 49 -121 129 -25 34 -70 93 -101 130 -159 193 -185 227 -185 238
0 7 -8 17 -18 22 -11 6 -29 37 -41 70 -12 33 -26 63 -31 66 -8 5 -90 -42 -90
-52 0 -9 103 -179 135 -223 53 -74 276 -450 307 -518 15 -35 37 -77 48 -92 11
-16 27 -47 35 -69 15 -44 140 -176 181 -191 31 -12 92 -1 107 20 7 9 26 20 44
23 29 6 36 1 79 -46 48 -53 84 -105 84 -121 0 -4 -10 -6 -22 -3 -36 10 -61
-10 -55 -43 5 -24 2 -29 -18 -34 -39 -10 -51 -43 -30 -83 14 -26 16 -36 7 -45
-7 -7 -12 -21 -12 -31 0 -18 5 -19 50 -13 47 6 52 5 74 -21 21 -24 25 -42 31
-136 4 -59 5 -110 2 -113 -2 -3 -22 18 -43 47 -31 43 -39 65 -48 128 -8 56
-15 76 -26 76 -15 0 -17 -15 -6 -68 l6 -29 -35 31 c-23 19 -47 31 -65 31 -30
0 -48 -14 -30 -25 5 -3 10 -18 10 -33 0 -40 14 -55 49 -54 38 1 40 -13 4 -31
-36 -17 -70 -11 -84 16 -11 20 -59 165 -59 179 0 3 23 14 50 23 51 17 53 20
51 65 -1 16 9 36 28 55 46 43 36 73 -18 53 -30 -11 -36 -5 -21 22 15 29 -12
74 -40 65 -10 -3 -21 -1 -25 5 -10 16 -33 12 -56 -11 l-21 -21 -22 25 c-43 52
-85 59 -118 22 -12 -14 -31 -25 -42 -25 -10 0 -27 -7 -36 -15 -21 -19 -31 -8
-48 51 -16 55 -16 55 15 48 23 -6 25 -5 19 12 -5 10 -15 37 -23 60 l-16 40 37
48 c37 48 44 70 26 81 -5 3 -22 -14 -37 -39 -15 -26 -31 -46 -35 -46 -5 0 -8
30 -8 66 0 55 3 69 22 83 27 22 19 62 -22 102 -35 36 -48 36 -61 3 -7 -20 -6
-32 5 -49 18 -27 33 -145 19 -145 -6 0 -20 21 -31 48 -11 26 -61 137 -112 247
-50 110 -114 250 -142 310 -27 61 -65 144 -85 186 l-35 76 -33 -11 -33 -10 20
-70 c12 -45 16 -72 9 -79 -9 -9 -22 24 -37 102 -5 25 -11 31 -28 29 -27 -4
-28 3 44 -303 32 -137 64 -277 70 -310 6 -33 20 -78 30 -100 12 -25 20 -72 22
-127 3 -62 9 -93 21 -105 31 -35 45 -291 16 -309 -5 -3 -9 -21 -9 -40 0 -54
-13 -40 -36 39 -11 39 -24 79 -28 88 -5 11 5 32 29 63 29 38 36 55 33 84 -3
32 -7 38 -37 48 -45 14 -72 64 -52 95 31 51 -48 58 -173 17 -32 -10 -60 -17
-63 -14 -17 17 134 136 173 136 13 0 30 38 20 47 -3 3 -26 -9 -52 -26 -65 -43
-94 -41 -59 5 21 28 19 64 -4 64 -23 0 -31 -19 -31 -73 0 -33 -8 -52 -35 -86
l-35 -44 0 68 c0 58 2 68 20 72 11 3 20 12 20 19 0 8 -9 19 -20 26 -13 8 -20
24 -20 44 0 40 8 47 33 29 14 -10 25 -11 38 -4 20 10 21 -5 -7 314 -24 282
-20 265 -64 265 -46 0 -47 -2 -61 -220 -5 -85 -17 -200 -27 -255 -16 -91 -19
-100 -38 -97 -34 5 -49 -25 -50 -100 -1 -37 -2 -74 -3 -82 -2 -24 -32 -47 -53
-41 -10 4 -25 1 -33 -5 -11 -9 -15 -9 -15 -1 0 10 -61 41 -81 41 -5 0 -14 -11
-19 -25 -8 -22 -13 -24 -29 -15 -34 18 -51 12 -57 -20 -5 -23 -12 -30 -29 -30
-19 0 -22 4 -18 23 9 33 20 44 54 51 19 3 36 16 47 36 21 36 32 37 80 5 28
-19 38 -22 44 -11 4 7 19 71 33 141 24 116 90 400 116 498 7 27 15 37 25 33
14 -5 20 10 26 64 3 21 -1 25 -28 28 -29 3 -32 0 -44 -43 -7 -25 -19 -49 -27
-53 -7 -5 -15 -18 -18 -31 -8 -45 -77 -151 -98 -151 -19 0 2 72 54 182 48 105
50 112 33 125 -10 7 -23 13 -29 13 -6 0 -30 -38 -53 -85 -23 -47 -46 -85 -50
-85 -5 0 -15 22 -24 50 l-16 50 51 46 c49 44 50 47 32 60 -16 12 -22 12 -41
-1 -27 -17 -43 -3 -23 21 10 13 8 20 -13 41 l-26 25 -51 -38 c-56 -42 -66 -64
-25 -56 36 7 29 -6 -33 -61 -34 -30 -66 -48 -90 -53 -21 -3 -49 -17 -63 -29
-25 -23 -147 -85 -167 -85 -23 0 -46 -41 -45 -81 1 -22 -5 -53 -13 -70 -12
-22 -13 -34 -5 -49 8 -15 7 -27 -5 -49 -21 -42 -32 -45 -49 -14 -8 15 -26 39
-40 52 -18 17 -26 35 -26 57 0 37 -33 64 -78 64 -21 0 -32 7 -40 24 -6 13 -27
36 -47 52 -29 22 -49 28 -95 30 -80 3 -85 -4 -76 -114 4 -48 8 -97 8 -108 1
-36 -25 -78 -57 -93 -42 -19 -65 -41 -65 -62 0 -10 -7 -24 -15 -33 -21 -20
-36 -63 -29 -81 12 -30 94 -4 94 29 0 8 6 19 14 25 12 10 15 6 21 -18 8 -39
25 -50 32 -22 6 23 18 27 28 10 4 -5 19 -7 34 -4 28 6 27 6 59 -57 2 -4 -12
-3 -30 3 -18 5 -36 9 -40 9 -14 0 -9 -27 7 -40 8 -7 15 -16 15 -21 0 -10 -30
0 -50 17 -19 16 -37 6 -56 -31 -18 -36 -19 -34 23 -51 l37 -16 -25 -19 -24
-19 39 -36 c36 -34 42 -36 88 -32 46 5 50 3 59 -20 6 -14 14 -62 20 -106 5
-45 14 -115 19 -156 5 -41 7 -76 5 -78 -2 -2 -22 15 -44 37 l-41 41 25 38 c29
42 31 62 11 100 -22 43 -54 68 -68 54 -10 -10 -16 -5 -28 20 -12 26 -21 33
-44 33 -25 0 -35 -8 -53 -43 -1 -2 -10 1 -21 7 -41 22 -77 -23 -53 -67 9 -17
8 -19 -9 -15 -15 4 -20 0 -20 -14 0 -20 -18 -43 -33 -43 -4 0 -7 8 -5 18 1 9
-5 28 -14 42 -9 14 -20 37 -23 53 -6 23 -4 27 14 27 49 0 35 66 -18 84 -28 10
-36 21 -66 94 -18 45 -45 103 -59 128 l-26 46 30 30 c32 32 32 49 0 41 -26 -7
-25 5 1 33 12 12 18 27 14 33 -9 15 -46 13 -69 -4 -23 -17 -36 -11 -36 16 0
22 -41 45 -65 35 -9 -3 -23 -19 -33 -36 -20 -35 -28 -37 -37 -10 -10 30 -31
24 -56 -17 l-23 -38 -4 29 c-9 71 48 193 112 240 17 13 47 29 66 36 31 11 41
9 92 -14 68 -31 88 -32 95 -6 5 19 5 19 44 -1 43 -22 59 -18 59 12 0 25 25 35
45 19 12 -10 18 -10 30 0 17 14 20 56 5 65 -28 17 -34 14 395 171 49 18 91 31
93 29 11 -10 -18 -31 -87 -62 -169 -77 -185 -89 -142 -112 23 -13 109 14 178
55 24 14 49 24 56 21 7 -2 1 -9 -13 -17 -28 -14 -40 -29 -40 -48 0 -10 7 -9
30 3 46 24 99 61 132 94 40 39 137 90 222 116 64 19 99 45 62 45 -34 0 -23 21
29 54 30 20 55 40 55 45 0 17 -35 71 -46 71 -7 0 -73 -20 -148 -45 -76 -25
-148 -45 -160 -45 -13 0 -75 -15 -137 -34 -63 -18 -136 -39 -164 -45 -101 -24
-155 -42 -155 -53 0 -15 67 -5 149 22 60 20 86 20 65 1 -5 -5 -45 -20 -90 -35
-61 -20 -84 -33 -92 -50 -9 -19 -38 -33 -152 -71 -78 -26 -144 -45 -147 -42
-13 14 17 29 127 64 73 22 120 42 120 50 0 18 -9 17 -154 -22 -72 -19 -132
-32 -135 -29 -3 3 -4 20 -3 38 4 39 -25 66 -68 66 -17 0 -29 8 -35 23 -8 18
-18 22 -58 22 -26 0 -48 5 -48 10 -1 6 0 40 1 77 2 75 -14 96 -49 64 -16 -15
-22 -15 -40 -4 -33 21 -56 0 -55 -51 0 -22 -2 -41 -5 -41 -3 0 -20 14 -38 32
-28 27 -40 32 -75 31 -26 -1 -47 -8 -54 -18 -9 -12 -39 -17 -128 -22 -110 -6
-162 -20 -143 -39 5 -5 65 -8 135 -6 l127 2 33 -29 34 -29 -39 -6 c-21 -3 -83
-10 -138 -16 -55 -5 -124 -13 -153 -16 l-52 -7 0 -59 c0 -52 2 -59 18 -54 9 3
46 10 82 16 36 6 121 23 190 36 l125 25 20 -25 c29 -37 59 -95 52 -102 -3 -3
-41 -16 -84 -29 -55 -15 -79 -27 -81 -40 -2 -9 8 -50 22 -90 31 -87 34 -114
10 -94 -9 7 -29 32 -46 56 -23 34 -27 47 -19 57 13 15 4 93 -11 102 -5 3 -16
-4 -26 -15 -11 -14 -57 -32 -132 -54 l-115 -33 -3 -47 c-2 -26 -2 -47 0 -47 2
0 38 11 81 24 l77 24 20 -27 c17 -25 17 -29 4 -43 -35 -35 46 -93 114 -82 31
5 41 2 59 -18 13 -13 26 -38 29 -56 5 -27 4 -32 -12 -32 -11 0 -36 -9 -57 -20
-33 -18 -38 -19 -44 -4 -4 10 -13 14 -29 10 -12 -3 -26 -2 -29 4 -3 5 -20 10
-37 10 -21 0 -31 -6 -35 -20 -6 -24 -26 -26 -43 -5 -16 19 -39 19 -46 0 -4 -8
-17 -15 -30 -15 -35 0 -31 -26 17 -115 33 -62 51 -83 89 -106 26 -16 50 -38
53 -48 5 -21 -3 -121 -10 -121 -3 0 -43 39 -89 88 -63 66 -83 82 -84 67 0 -12
18 -39 41 -60 22 -22 54 -60 70 -85 l30 -44 -23 -17 -22 -17 32 -28 c32 -28
32 -29 32 -124 0 -94 -6 -140 -19 -140 -13 1 -102 261 -96 281 7 21 -18 69
-35 69 -6 0 -10 -30 -10 -68 0 -65 2 -69 31 -91 29 -22 69 -96 69 -128 0 -9
-17 4 -41 31 -22 25 -45 46 -50 46 -5 0 -9 -45 -9 -100 0 -82 4 -105 20 -132
25 -41 25 -54 0 -103 -15 -30 -20 -59 -20 -126 0 -75 4 -95 30 -150 16 -35 41
-107 56 -159 15 -52 33 -107 40 -122 16 -32 18 -64 4 -73 -6 -3 -13 2 -15 12
-10 32 -75 157 -95 183 l-20 25 0 -53 c0 -30 10 -85 21 -123 22 -73 20 -91 -6
-69 -13 11 -15 -13 -15 -219 l0 -231 164 0 163 0 6 60 c4 34 11 70 17 80 15
28 63 50 108 50 39 0 40 -1 70 -69 17 -38 34 -81 38 -95 5 -22 12 -26 40 -26
l34 0 0 49 c0 28 5 53 11 57 18 11 81 -58 76 -83 l-4 -23 193 0 c107 0 194 4
194 9 0 5 -7 14 -15 21 -23 19 -18 33 20 58 52 33 57 29 53 -33 l-3 -55 123 0
c120 0 123 1 164 30 22 17 44 30 49 30 4 0 10 -14 14 -30 l7 -30 140 0 140 0
-16 25 c-17 26 -20 92 -7 160 l7 40 33 -65 c18 -36 40 -73 49 -83 14 -16 14
-20 -2 -47 l-17 -30 151 0 151 0 -16 30 c-16 30 -21 140 -7 140 5 0 18 -10 30
-23 18 -19 22 -35 22 -85 0 -48 3 -62 15 -62 12 0 15 14 15 70 0 60 3 71 21
80 52 29 64 -21 24 -100 l-25 -50 116 0 c107 0 116 1 108 18 -11 23 -10 90 1
101 6 6 26 -4 54 -28 l44 -37 -18 -27 -17 -27 167 0 c149 0 166 2 161 16 -3 9
-9 33 -12 55 -9 54 12 51 26 -3 17 -65 18 -68 34 -68 15 0 15 12 0 87 -10 49
40 6 66 -57 l12 -30 224 0 c150 0 225 4 230 11 4 7 21 8 48 4 22 -4 137 -9
253 -11 l212 -5 3 147 c2 116 6 148 17 152 12 4 13 -19 8 -147 l-7 -151 103 1
102 0 33 41 c17 22 48 53 68 69 l37 29 24 -32 c14 -18 33 -50 44 -71 l19 -37
85 0 c83 0 86 1 95 26 19 50 112 174 131 174 3 0 3 -19 -2 -42 -4 -24 -8 -69
-9 -100 l0 -58 55 0 55 0 1 78 c0 42 4 86 8 97 7 16 12 9 25 -37 19 -64 21
-83 11 -116 l-7 -22 141 0 141 0 0 243 c0 231 -1 245 -20 262 -13 12 -20 30
-19 54 0 20 3 30 6 24 9 -23 33 -14 33 11 0 17 -10 31 -30 43 -38 22 -38 32 0
40 l30 6 0 79 c0 78 0 79 -22 72 -72 -22 -98 -47 -105 -104 -5 -35 -9 -40 -33
-40 -37 0 -75 41 -61 66 5 11 19 48 30 83 31 95 60 118 112 90 11 -6 33 -7 50
-4 28 6 29 8 29 71 0 73 -10 79 -69 43 -54 -33 -49 -12 12 45 54 51 69 76 47
76 -5 0 -36 -26 -68 -57 -43 -43 -71 -84 -108 -160 -28 -57 -53 -100 -57 -97
-8 9 6 51 61 175 28 63 64 152 80 199 16 47 46 123 66 170 28 65 36 98 36 144
l0 60 -55 -54 c-30 -30 -76 -85 -102 -122 -42 -59 -51 -66 -73 -61 -14 3 -28
8 -32 12 -4 3 -4 50 -1 104 6 105 16 127 57 127 12 0 33 11 46 25 22 23 22 25
4 30 -86 28 -97 44 -92 132 l3 51 114 -49 c62 -27 117 -49 122 -49 5 0 9 25 9
55 0 43 -4 56 -19 64 -10 6 -21 22 -25 35 -9 35 -42 55 -207 126 -81 34 -161
70 -178 81 -34 21 -35 31 -10 131 l9 37 53 -18 c28 -10 111 -42 183 -70 100
-39 133 -57 142 -75 5 -13 20 -26 31 -29 21 -5 21 -2 21 157 l0 163 -61 18
c-43 13 -66 26 -77 44 -9 14 -24 36 -34 47 -19 21 -19 21 16 27 57 9 86 34 86
73 0 37 6 40 34 19 30 -23 36 -18 36 25 0 48 -7 51 -141 53 l-94 2 -54 -45
c-35 -30 -62 -64 -81 -102 -29 -61 -40 -64 -40 -14 0 36 31 91 66 119 39 30
54 70 54 145 0 75 -9 92 -51 92 -15 0 -30 4 -34 9 -6 11 -68 4 -107 -12 -27
-11 -38 -40 -38 -98 0 -29 0 -29 -25 -13 -19 12 -28 14 -38 5 -10 -8 -61 -1
-198 29 -187 41 -243 47 -254 30 -3 -5 5 -16 18 -24 27 -18 387 -106 433 -106
30 0 74 -34 74 -56 0 -6 13 -28 30 -50 18 -24 30 -51 30 -71 0 -18 -3 -33 -6
-33 -36 0 -477 151 -894 305 -85 32 -163 57 -172 57 -10 -1 -30 -2 -45 -3 -16
-1 -125 32 -243 73 -268 94 -275 96 -290 68z m-1120 -100 c0 -5 -1 -10 -2 -10
-2 0 -60 -20 -130 -45 -94 -33 -128 -41 -128 -31 0 9 43 29 118 54 127 44 142
47 142 32z m3020 -267 c0 -27 -149 -171 -163 -156 -16 15 58 114 108 144 30
19 55 24 55 12z m-2895 -83 c-3 -5 -11 -10 -16 -10 -6 0 -7 5 -4 10 3 6 11 10
16 10 6 0 7 -4 4 -10z m-255 -87 c-54 -50 -70 -61 -70 -46 0 12 11 24 64 72
66 60 71 36 6 -26z m319 -8 l22 -61 -20 -45 c-12 -26 -27 -51 -34 -57 -22 -18
-95 -26 -112 -12 -21 17 -18 30 11 65 l24 30 19 -25 c17 -21 22 -23 45 -12 44
20 44 42 1 79 -27 23 -48 33 -72 33 -22 0 -33 5 -33 15 0 18 31 35 63 35 14 0
30 7 37 15 17 20 22 13 49 -60z m-189 21 c-5 -15 -17 -34 -25 -42 -20 -20 -20
-64 0 -64 8 0 15 -5 15 -10 0 -16 -62 -50 -92 -50 -50 0 -74 -19 -91 -72 -18
-57 -13 -81 14 -73 11 3 28 8 39 11 13 3 22 0 26 -10 9 -23 -92 -173 -136
-202 -26 -17 -47 -47 -74 -100 -21 -42 -39 -74 -41 -72 -3 2 0 31 5 64 13 77
13 209 0 256 -8 27 -8 44 1 60 16 31 60 78 74 78 6 0 51 44 100 98 143 156
215 205 185 128z m-1321 -32 c23 -17 23 -17 3 -28 -62 -34 -126 -117 -153
-201 -12 -38 -13 -39 -20 -15 -4 14 -8 45 -8 70 -1 25 -8 63 -16 85 -8 23 -11
43 -5 49 7 7 149 53 170 55 3 1 16 -6 29 -15z m1873 -39 c-3 -26 0 -45 6 -45
6 0 13 -28 15 -62 3 -35 12 -100 19 -145 8 -46 11 -83 7 -83 -3 0 -9 9 -12 20
-4 17 -10 20 -32 14 -26 -7 -27 -6 -19 27 4 19 7 98 7 177 0 78 2 142 6 142 3
0 5 -20 3 -45z m1683 -67 c128 -74 142 -84 133 -94 -7 -7 -65 22 -178 89 -92
54 -120 75 -120 89 0 10 9 6 165 -84z m-3881 15 c61 -97 38 -114 -44 -33 -50
51 -61 74 -37 83 31 13 46 4 81 -50z m1197 -132 c16 -16 29 -33 29 -38 0 -4
-31 -7 -70 -5 -75 4 -82 11 -54 50 21 31 60 28 95 -7z m589 26 c0 -2 -11 -30
-23 -63 -13 -32 -32 -80 -41 -107 -13 -34 -27 -52 -49 -64 -18 -8 -49 -31 -70
-49 -38 -35 -57 -42 -57 -23 0 6 27 68 60 139 33 71 60 132 60 137 0 5 19 14
43 20 45 11 77 15 77 10z m75 -122 c-8 -30 -20 -55 -25 -55 -14 0 -13 5 12 73
26 73 36 60 13 -18z m-660 21 c49 -21 65 -60 65 -156 0 -76 -1 -80 -22 -80
-13 0 -30 4 -38 10 -12 8 -12 11 3 28 21 23 22 49 1 69 -12 13 -20 13 -40 4
-32 -14 -31 -14 -37 9 -8 30 -35 35 -61 11 -21 -19 -23 -20 -39 -4 -16 16 -17
14 -17 -40 0 -60 -13 -70 -23 -17 -8 37 19 93 65 137 47 44 87 52 143 29z
m-1045 -182 c0 -9 13 -33 29 -53 46 -57 56 -108 43 -199 -7 -42 -9 -101 -6
-129 4 -29 4 -53 0 -53 -3 0 -15 20 -27 45 -14 30 -28 45 -40 45 -23 0 -24
-17 -5 -89 13 -51 13 -53 -11 -82 -27 -32 -43 -37 -43 -14 0 37 -92 7 -129
-42 l-20 -28 -1 91 0 92 30 6 c34 6 39 29 14 57 -19 21 -29 94 -20 141 5 23
19 42 49 64 28 21 53 53 76 98 32 62 61 86 61 50z m338 -51 c35 -67 74 -181
66 -194 -3 -5 -15 -9 -28 -9 -12 0 -46 -12 -74 -26 -41 -20 -56 -23 -66 -14
-12 9 -21 2 -47 -36 -40 -58 -44 -51 -53 85 -6 94 -4 106 15 137 11 19 40 46
64 60 24 13 49 31 55 39 22 26 36 16 68 -42z m4002 -27 l85 -42 3 -57 3 -58
-83 45 c-64 35 -87 43 -100 35 -16 -9 -18 -4 -18 56 0 46 4 65 13 64 6 0 50
-19 97 -43z m-2330 -59 c0 -71 -1 -72 -31 -86 -33 -14 -48 -42 -100 -178 -17
-46 -35 -83 -40 -83 -12 0 -11 7 2 91 10 54 16 69 29 69 27 0 43 26 38 62 -3
20 1 42 10 55 13 22 13 23 -8 23 -20 0 -22 4 -16 32 9 45 24 58 67 58 28 0 39
4 39 15 0 8 2 15 5 15 3 0 5 -33 5 -73z m2447 41 c-3 -8 -6 -5 -6 6 -1 11 2
17 5 13 3 -3 4 -12 1 -19z m-2986 -19 c19 -7 35 -13 37 -15 2 -1 -2 -20 -8
-42 -11 -34 -10 -43 6 -66 15 -24 15 -29 3 -37 -29 -18 -48 -10 -46 18 2 21
-3 29 -19 31 -19 3 -20 -1 -16 -53 3 -40 0 -67 -13 -96 -10 -21 -20 -39 -22
-39 -2 0 -21 9 -43 20 -47 24 -66 25 -74 4 -9 -24 -7 -62 4 -69 6 -3 17 -20
26 -36 14 -29 14 -32 -14 -77 -15 -26 -31 -55 -35 -65 -5 -13 -13 -16 -27 -12
-29 9 -66 -17 -89 -63 -22 -42 -87 -109 -97 -99 -8 7 32 108 63 158 12 20 65
123 119 230 96 192 162 302 186 312 20 8 22 8 59 -4z m-397 -144 c-13 -77 -31
-183 -40 -235 -16 -98 -21 -113 -28 -89 -2 8 -19 58 -36 111 -31 93 -32 99
-21 158 14 69 7 91 -11 42 -7 -18 -16 -32 -19 -32 -12 0 -42 89 -35 105 5 15
10 13 36 -8 30 -26 86 -44 98 -32 4 3 -1 20 -11 36 -22 40 -22 49 6 49 12 0
36 8 52 19 17 10 31 18 32 17 1 -1 -9 -64 -23 -141z m1456 -64 c14 -18 51 -46
84 -63 56 -28 58 -30 51 -61 -19 -90 -18 -95 9 -122 19 -19 34 -25 49 -22 66
17 79 19 103 13 35 -9 22 -21 -19 -18 -41 3 -85 -31 -68 -52 10 -11 9 -22 -5
-47 -15 -31 -15 -33 2 -46 12 -9 29 -11 54 -6 49 10 91 7 132 -10 30 -12 39
-24 53 -66 23 -69 14 -85 -16 -30 -19 34 -31 45 -53 47 -44 5 -76 -6 -76 -27
0 -26 65 -81 96 -81 13 0 35 -7 48 -15 23 -15 64 -91 54 -100 -3 -3 -31 8 -63
25 -31 16 -68 30 -81 30 -19 0 -23 5 -21 22 1 17 -4 24 -21 26 -18 3 -21 8
-16 28 5 19 1 26 -21 34 -15 6 -38 19 -51 29 -28 22 -61 17 -84 -11 -13 -16
-20 -18 -44 -8 -36 13 -66 4 -66 -21 0 -21 -8 -23 -29 -10 -21 13 -2 33 46 50
68 24 92 62 58 91 -13 11 -23 8 -58 -16 -47 -34 -91 -106 -128 -209 -23 -66
-24 -68 -27 -34 -3 30 27 126 74 243 5 13 3 17 -6 14 -7 -2 -28 -44 -47 -94
-33 -88 -33 -88 -30 -39 3 28 14 76 27 108 19 52 25 58 45 53 12 -3 25 -2 29
2 4 4 33 16 63 27 31 11 58 25 60 30 7 22 -19 40 -66 45 l-50 5 19 40 c16 35
23 40 52 40 27 0 34 4 36 23 4 24 -16 30 -36 10 -18 -18 -14 3 5 24 9 10 24
18 35 18 21 0 23 11 6 28 -17 17 -64 14 -126 -7 l-52 -18 -16 31 c-24 48 -30
129 -10 145 9 7 16 17 16 22 0 4 10 25 23 46 l22 38 5 -60 c4 -43 12 -70 30
-94z m1769 102 c34 -42 35 -56 3 -61 -37 -6 -26 -38 23 -66 25 -15 45 -29 45
-31 0 -10 -29 -112 -39 -138 -6 -16 -11 -44 -11 -63 0 -26 -4 -34 -19 -34 -16
0 -20 16 -35 128 -10 70 -20 166 -23 215 -7 102 5 112 56 50z m-2061 -20 c2
-20 12 -37 28 -47 29 -20 32 -36 4 -29 -11 3 -27 0 -36 -8 -10 -8 -40 -12 -85
-11 -76 2 -89 -9 -34 -32 40 -17 46 -36 12 -36 -13 0 -32 -6 -42 -14 -18 -13
-18 -15 10 -48 26 -30 39 -36 90 -43 56 -7 58 -9 32 -19 -15 -5 -30 -20 -33
-33 -6 -24 12 -57 26 -48 5 3 11 1 15 -5 3 -5 1 -10 -6 -10 -6 0 -17 -8 -24
-17 -12 -15 -15 -15 -45 10 -38 32 -68 34 -104 6 l-26 -20 0 134 c0 194 -2
189 86 229 47 21 74 39 74 49 0 22 11 30 35 27 14 -2 21 -12 23 -35z m-1793
-100 c31 -82 76 -167 98 -185 13 -10 39 -18 65 -18 38 0 42 -2 42 -24 0 -27
33 -56 63 -56 29 0 75 28 82 50 10 30 39 6 77 -65 31 -59 32 -63 36 -221 5
-165 -3 -294 -18 -294 -4 0 -11 21 -15 47 -10 65 -43 172 -66 212 -22 38 -15
51 29 51 12 0 25 7 29 15 8 22 -25 55 -54 55 -17 0 -27 7 -30 21 -3 11 -11 18
-19 15 -7 -3 -19 6 -28 18 -9 14 -29 26 -48 29 -18 3 -44 8 -58 12 -19 5 -32
0 -53 -19 -15 -14 -27 -32 -27 -40 0 -25 -16 -26 -38 -3 -12 12 -26 47 -33 77
-13 61 -44 130 -59 130 -14 0 -12 -12 10 -61 34 -75 26 -87 -25 -40 -24 22
-53 41 -63 41 -26 0 -124 -30 -139 -42 -20 -16 -15 -28 11 -28 14 0 31 -6 38
-13 7 -6 30 -21 50 -31 35 -19 38 -19 79 -3 23 9 45 14 49 12 21 -13 40 -82
54 -195 9 -69 18 -139 20 -156 5 -35 -1 -48 -29 -58 -11 -4 -16 -4 -13 0 4 3
-2 14 -14 23 -17 14 -19 21 -9 38 6 12 8 28 5 37 -8 22 -45 31 -55 15 -14 -23
-10 -39 16 -63 14 -13 25 -33 25 -45 0 -29 -8 -25 -54 26 -24 28 -35 47 -30
55 16 24 43 113 44 138 0 15 -8 30 -20 38 -11 7 -20 18 -20 26 0 25 -25 37
-47 21 -18 -13 -21 -11 -35 18 -21 44 -60 64 -93 49 l-25 -12 0 70 c0 66 2 70
28 84 15 8 37 24 50 36 22 21 23 23 6 42 -21 22 -10 51 22 56 50 8 63 14 69
32 4 13 -1 31 -14 49 l-21 29 32 20 c78 47 101 44 123 -15z m1381 20 c-7 -24
-24 -144 -31 -219 -3 -33 -14 -85 -25 -115 l-20 -54 5 110 c9 206 16 269 33
283 23 18 44 15 38 -5z m-332 1 c9 -3 16 -15 16 -25 0 -26 50 -49 104 -49 l45
0 18 -57 c15 -49 18 -93 17 -278 -2 -210 -10 -275 -33 -275 -5 0 -13 21 -17
48 -9 65 -26 103 -66 148 -19 22 -48 62 -65 89 -27 42 -30 56 -24 85 7 33 9
35 44 32 37 -4 48 7 25 26 -20 15 -90 9 -101 -10 -7 -11 -7 -38 0 -84 6 -38 8
-72 4 -76 -4 -4 -21 -4 -37 1 -78 22 -89 -65 -11 -92 9 -4 17 -12 17 -19 0 -7
9 -19 20 -26 29 -18 25 -45 -11 -66 -35 -20 -37 -58 -4 -64 37 -7 45 -23 45
-86 -1 -60 -1 -60 -16 -34 -19 37 -51 53 -70 37 -12 -9 -14 -6 -14 23 0 29
-12 81 -35 155 -6 17 -2 22 16 25 28 4 36 23 13 32 -18 7 -70 -16 -67 -30 1
-5 5 -17 8 -26 6 -15 2 -18 -20 -18 l-28 0 7 83 c10 119 13 128 43 121 21 -6
24 -3 21 13 -2 12 9 30 27 46 25 22 28 28 15 37 -8 5 -30 10 -47 10 -39 0 -39
3 -13 40 15 21 26 26 44 23 30 -6 116 25 116 41 0 21 -39 94 -52 98 -10 4 -10
8 -2 19 6 8 17 31 23 52 13 38 18 41 45 31z m248 -123 c-2 -39 -7 -71 -11 -71
-4 0 -12 26 -18 58 -6 31 -14 65 -18 74 -5 13 -1 20 16 27 31 11 35 0 31 -88z
m244 -70 c-10 -140 -13 -155 -32 -168 -21 -13 -23 -11 -62 61 l-41 76 32 62
c23 46 38 64 55 66 13 2 26 11 29 20 6 18 25 44 27 40 1 -2 -3 -72 -8 -157z
m2439 99 c3 -10 4 -35 1 -55 -4 -19 -8 -50 -11 -69 -6 -38 -29 -53 -51 -32
-12 13 -11 25 9 95 22 79 40 100 52 61z m-259 -130 c37 -77 63 -163 64 -213 0
-28 -1 -27 -37 20 -20 26 -45 54 -56 62 -15 10 -17 21 -13 46 8 42 -22 80 -79
99 -48 17 -67 11 -59 -18 4 -17 -1 -25 -22 -34 -14 -7 -28 -11 -31 -9 -8 8 29
102 45 115 9 6 30 12 47 12 19 0 39 8 50 21 l19 20 18 -23 c10 -13 34 -57 54
-98z m-1716 84 c0 -8 -4 -14 -10 -14 -5 0 -10 9 -10 21 0 11 5 17 10 14 6 -3
10 -13 10 -21z m-1486 -102 c29 -119 32 -177 15 -285 -16 -107 -29 -106 -30 4
0 51 -6 156 -12 231 -11 126 -11 158 -2 158 2 0 15 -49 29 -108z m1586 69 c0
-8 -62 -124 -92 -171 -9 -14 -24 -50 -34 -80 l-19 -55 -3 40 c-4 47 15 166 33
212 11 25 21 33 49 39 20 3 36 10 36 15 0 5 7 9 15 9 8 0 15 -4 15 -9z m-235
-52 c31 -58 79 -379 56 -364 -6 3 -13 21 -17 40 -3 19 -16 45 -29 57 -18 17
-21 25 -12 39 9 14 7 22 -5 36 -8 10 -19 29 -23 43 -4 14 -13 32 -20 40 -13
16 -20 113 -10 130 13 21 45 9 60 -21z m-2385 -27 c0 -5 -21 -46 -47 -91 -51
-90 -61 -90 -62 -4 -1 46 14 68 64 89 35 16 45 17 45 6z m1961 -174 c8 -15 5
-18 -16 -18 -14 0 -28 -7 -31 -15 -8 -19 42 -79 79 -95 17 -8 27 -20 27 -34 0
-11 7 -30 15 -40 8 -11 15 -28 15 -39 0 -18 -1 -18 -27 1 -61 42 -152 55 -189
27 -10 -8 -22 -15 -26 -15 -19 0 0 98 52 268 l22 74 35 -49 c19 -26 39 -56 44
-65z m-1793 10 l-3 -93 -35 -5 c-38 -6 -76 -54 -53 -68 27 -17 17 -34 -27 -48
-24 -7 -45 -12 -46 -11 -1 1 5 20 13 42 21 54 22 90 3 90 -11 0 -19 -21 -28
-75 -16 -92 -38 -122 -28 -40 8 72 33 169 52 197 16 25 122 101 142 102 10 1
12 -21 10 -91z m3980 68 c36 -19 108 -94 99 -103 -4 -4 -13 -1 -19 5 -25 25
-138 2 -138 -28 0 -18 46 -38 104 -45 33 -4 70 -11 82 -16 22 -8 71 -86 61
-96 -3 -2 -31 0 -63 6 -32 6 -85 11 -119 11 -69 0 -206 -32 -243 -56 -30 -20
-34 -16 -21 27 5 19 21 79 35 134 18 69 33 106 47 118 69 58 122 71 175 43z
m247 -26 c22 -35 25 -50 25 -134 0 -152 -23 -131 -50 44 -6 41 -13 87 -16 103
-8 39 12 34 41 -13z m152 13 c-23 -45 -49 -132 -69 -223 l-17 -85 4 133 c2 73
8 140 13 148 9 16 61 54 75 54 4 0 1 -12 -6 -27z m-4682 -58 c7 -56 3 -85 -13
-85 -11 0 -22 94 -15 121 9 35 22 19 28 -36z m1455 -68 c0 -24 -2 -26 -19 -17
-11 5 -41 10 -67 10 l-48 0 44 45 45 46 22 -28 c13 -15 23 -41 23 -56z m1829
-45 c11 -75 5 -141 -13 -145 -30 -7 -59 190 -35 235 11 20 13 20 24 4 7 -9 18
-51 24 -94z m-2539 11 c0 -6 16 -25 35 -41 l36 -29 -21 -52 c-11 -28 -20 -61
-20 -72 0 -14 -5 -19 -17 -17 -15 3 -21 25 -35 128 -9 69 -16 136 -16 150 0
21 2 19 19 -15 10 -22 19 -45 19 -52z m960 57 c0 -5 -4 -10 -10 -10 -5 0 -10
5 -10 10 0 6 5 10 10 10 6 0 10 -4 10 -10z m1975 -48 c18 -54 34 -282 19 -282
-17 0 -46 133 -52 239 -6 114 4 126 33 43z m-3575 24 c0 -8 -5 -27 -11 -43 -6
-15 -15 -54 -19 -87 -8 -53 -31 -96 -52 -96 -12 0 -10 128 3 153 19 36 59 87
70 87 5 0 9 -6 9 -14z m1304 -42 c22 -8 20 -41 -3 -54 -13 -7 -28 -7 -45 0
-22 8 -26 7 -26 -9 0 -10 7 -35 16 -56 22 -53 14 -67 -36 -59 -36 6 -41 4 -49
-17 -7 -19 -10 -8 -16 55 l-8 78 34 27 c46 37 95 50 133 35z m316 -28 c0 -16
-18 -31 -27 -22 -8 8 5 36 17 36 5 0 10 -6 10 -14z m-725 -50 c32 -66 50 -184
40 -273 -6 -55 -9 -63 -23 -57 -49 20 -60 17 -99 -34 -21 -28 -41 -51 -45 -51
-7 -1 -49 87 -68 143 -17 52 -4 64 52 49 45 -12 68 -4 68 23 0 17 -51 44 -85
44 -35 0 -31 14 10 40 19 12 35 28 35 35 0 22 -27 25 -46 4 -9 -10 -21 -19
-25 -19 -10 0 16 89 31 104 8 8 97 41 122 45 3 1 18 -23 33 -53z m-1134 17
c19 -49 10 -183 -12 -183 -10 0 -49 73 -49 93 0 27 31 117 41 117 5 0 14 -12
20 -27z m2697 -7 c17 -38 27 -196 13 -196 -7 0 -17 15 -23 33 -6 17 -29 65
-50 106 -21 41 -38 76 -38 78 0 2 20 3 43 3 37 0 46 -4 55 -24z m-108 -47 c17
-39 20 -53 10 -59 -9 -5 -10 -22 -5 -58 11 -83 -32 -130 -51 -55 -14 58 -34
54 -34 -7 0 -44 3 -53 20 -57 12 -3 19 -11 18 -17 -26 -85 -44 -136 -49 -136
-16 0 -26 330 -13 398 6 30 18 39 60 41 15 1 26 -11 44 -50z m-630 31 c0 -5
-7 -10 -15 -10 -8 0 -15 5 -15 10 0 6 7 10 15 10 8 0 15 -4 15 -10z m490 -82
c-1 -103 -10 -101 -30 6 -11 57 -10 70 1 77 26 17 29 9 29 -83z m438 41 c40
-54 63 -79 90 -99 20 -15 21 -26 24 -397 2 -210 1 -380 -3 -377 -4 2 -10 23
-14 47 -4 23 -25 101 -47 172 -65 218 -77 259 -83 297 -5 33 -3 38 25 55 21
12 34 30 41 58 6 22 18 53 26 69 13 24 13 30 2 37 -8 5 -24 8 -36 6 -12 -2
-24 2 -27 10 -8 21 -46 -2 -46 -28 l0 -20 -26 20 c-15 12 -33 21 -41 21 -8 0
-13 4 -11 8 50 123 74 172 82 169 6 -2 26 -23 44 -48z m-2453 -20 c0 -51 -1
-54 -27 -57 l-27 -3 6 53 c10 87 48 93 48 7z m3265 -6 c0 -8 -14 -13 -38 -13
-21 0 -43 -5 -50 -12 -19 -19 -25 -2 -12 37 17 51 48 62 77 27 13 -15 23 -33
23 -39z m-2130 6 c0 -32 -3 -40 -16 -37 -31 6 -40 35 -20 57 28 31 36 26 36
-20z m823 -11 c8 -29 18 -70 22 -91 3 -21 9 -45 12 -53 3 -8 1 -14 -5 -14 -5
0 -24 33 -42 74 -24 56 -30 82 -25 105 10 45 22 38 38 -21z m-2053 -17 c-6
-27 -22 -61 -34 -74 -12 -13 -32 -37 -44 -53 l-23 -29 6 65 c10 102 14 110 59
131 22 10 42 16 44 14 3 -2 -1 -26 -8 -54z m1350 -53 c0 -59 -8 -70 -30 -43
-7 8 -21 15 -31 15 -15 0 -19 8 -21 40 -1 22 -2 48 -2 58 -1 12 5 16 22 14 14
-2 25 3 29 15 11 29 32 -33 33 -99z m-326 -6 c6 -56 4 -75 -7 -86 -8 -8 -17
-43 -21 -78 -14 -138 -19 -169 -24 -164 -3 3 -11 1 -19 -6 -7 -6 -16 -8 -19
-5 -12 12 17 312 36 370 34 102 42 97 54 -31z m543 68 c-9 -16 -21 -55 -28
-85 -7 -30 -16 -55 -21 -55 -4 0 -8 27 -8 60 0 55 3 63 32 89 39 35 45 33 25
-9z m2679 17 c18 -9 37 -30 44 -49 24 -62 25 -518 2 -518 -4 0 -24 39 -44 86
l-36 86 25 36 c22 33 24 45 21 109 -3 56 -9 79 -27 103 -18 25 -21 39 -16 66
7 40 -11 53 -50 36 -17 -8 -27 -7 -42 3 -21 16 -99 20 -108 5 -3 -5 -20 -9
-38 -7 -39 3 -48 -25 -18 -57 18 -20 20 -30 15 -83 -8 -78 6 -122 62 -184 37
-42 44 -56 44 -92 l0 -42 -59 62 c-65 69 -101 82 -167 64 -61 -17 -60 -18 -59
77 0 87 1 88 34 118 21 19 36 43 41 69 4 22 11 48 15 58 6 14 2 17 -21 17 -43
0 -16 19 58 41 83 24 276 22 324 -4z m-1305 -40 c78 -54 129 -123 169 -230 21
-54 20 -63 -5 -53 -11 4 -14 13 -10 25 9 29 -22 34 -67 12 -38 -18 -39 -18
-49 0 -5 11 -16 19 -25 19 -28 0 3 37 52 60 27 13 42 26 37 31 -15 15 -76 13
-109 -4 -46 -24 -114 -102 -114 -132 0 -24 -2 -25 -38 -19 -36 6 -40 4 -52
-25 -15 -37 -8 -58 24 -71 l24 -9 -34 -91 c-19 -49 -34 -97 -34 -105 0 -8 -5
-15 -11 -15 -8 0 -10 42 -8 143 4 134 6 145 34 202 30 59 87 128 115 137 13 5
12 8 -3 24 -18 19 -19 18 -45 -12 -15 -18 -40 -54 -57 -80 l-30 -49 -3 88 c-2
52 2 94 8 102 6 7 37 20 69 29 32 9 66 25 76 36 24 26 32 25 86 -13z m164 1
c-10 -45 -16 -53 -26 -35 -11 18 5 67 22 67 7 0 8 -11 4 -32z m-3354 -160 c9
-149 4 -186 -18 -124 -19 55 -27 154 -18 232 11 103 25 59 36 -108z m1870 89
c1 -18 -3 -50 -9 -72 -6 -22 -14 -71 -18 -108 -4 -37 -11 -70 -15 -73 -11 -7
-14 2 -28 98 -10 65 -10 86 4 139 9 35 21 72 27 82 9 18 11 17 24 -8 7 -14 14
-41 15 -58z m-1761 -6 c-4 -54 -13 -88 -27 -111 l-20 -32 -5 88 c-3 49 -3 94
-1 100 4 10 38 31 53 33 3 1 3 -34 0 -78z m3340 -150 c36 -180 47 -271 32
-271 -11 0 -38 79 -53 155 -5 22 -17 81 -29 130 -11 50 -19 119 -19 155 l0 65
20 -44 c11 -25 33 -110 49 -190z m-2820 122 c14 -25 6 -43 -19 -43 -10 0 -24
-7 -31 -15 -16 -20 -30 -19 -30 1 0 9 9 18 20 21 22 6 22 6 14 27 -14 37 -64
10 -64 -34 0 -38 -31 -214 -39 -222 -4 -4 -20 -10 -37 -14 l-31 -6 -6 65 c-5
49 -2 74 9 97 9 17 18 63 20 101 2 38 6 74 9 79 3 5 18 7 33 4 15 -3 38 -1 52
4 20 8 31 5 56 -17 18 -14 37 -36 44 -48z m3316 50 c3 -16 10 -38 15 -51 14
-34 12 -53 -21 -207 -16 -77 -32 -162 -35 -188 -4 -27 -8 -47 -11 -45 -2 3
-15 59 -29 126 -13 67 -32 150 -41 184 -15 59 -15 63 3 76 10 7 30 16 45 19
43 9 54 28 33 59 -16 24 -16 26 2 40 26 19 32 17 39 -13z m-1774 -35 c25 -41
68 -149 68 -173 0 -29 -20 -75 -32 -75 -5 0 -11 7 -13 15 -16 49 -12 47 -44
30 -22 -11 -32 -25 -37 -50 -4 -25 -11 -35 -25 -35 -14 0 -19 -7 -19 -29 0
-27 -3 -30 -37 -33 -83 -7 -35 -78 52 -78 31 0 35 -3 35 -26 0 -14 -5 -45 -11
-69 l-11 -44 -35 26 c-24 18 -46 27 -70 26 l-35 -1 7 106 c4 58 12 114 18 124
9 13 8 21 -1 30 -13 13 -16 104 -6 157 5 24 12 31 30 31 25 0 94 54 94 74 0 7
5 17 12 24 14 14 40 1 60 -30z m1444 31 c3 -6 15 -8 26 -6 13 4 22 -1 27 -16
11 -31 22 -117 15 -117 -4 0 -23 15 -43 33 -20 17 -48 41 -64 52 -26 19 -27
21 -12 43 17 24 40 29 51 11z m-2257 -22 c13 -15 19 -30 15 -40 -4 -12 -1 -17
10 -17 13 0 16 -13 16 -81 0 -71 -2 -80 -15 -69 -46 38 -98 230 -63 230 8 0
24 -11 37 -23z m135 7 c10 -25 7 -84 -4 -84 -19 0 -10 -49 10 -60 18 -10 20
-21 20 -110 0 -55 -3 -100 -7 -100 -20 1 -54 42 -67 81 -23 67 -23 229 -1 262
19 30 40 35 49 11z m799 -56 c40 -60 71 -171 65 -232 -3 -30 -4 -29 -22 19
-19 49 -91 184 -127 236 -21 31 -15 41 21 37 18 -2 36 -19 63 -60z m-1529 16
c3 -9 6 -23 6 -31 0 -13 -3 -13 -16 -3 -8 8 -20 22 -25 32 -8 14 -6 18 10 18
10 0 22 -7 25 -16z m1775 -90 c-24 -26 -17 -48 21 -64 33 -14 37 -30 47 -172
6 -97 6 -99 -23 -141 -17 -23 -41 -66 -54 -96 l-25 -55 -6 120 c-8 159 -5 178
35 195 38 17 42 44 6 43 -14 -1 -34 -5 -44 -9 -18 -8 -19 -4 -13 66 5 68 13
97 50 167 l12 22 7 -27 c6 -21 2 -33 -13 -49z m-1790 20 c22 -28 28 -54 12
-54 -5 0 -11 7 -15 15 -10 26 -33 16 -40 -16 -7 -37 -27 -34 -37 6 -5 18 -3
40 6 62 12 29 17 33 34 24 11 -6 29 -23 40 -37z m1174 -6 c15 2 17 -7 17 -63
l0 -65 -36 0 -35 0 6 58 c3 31 9 71 12 87 6 30 6 30 13 5 4 -16 12 -24 23 -22z
m-1087 -23 c3 -19 3 -42 0 -51 -7 -17 -32 -14 -30 4 1 7 2 28 3 47 1 45 18 45
27 0z m469 -37 c25 -92 25 -103 -1 -104 -12 -1 -27 -5 -34 -9 -11 -7 -12 6 -7
61 4 38 7 81 7 97 0 48 15 29 35 -45z m-1196 -13 c-14 -73 -29 -86 -29 -25 0
40 26 107 37 96 3 -3 0 -34 -8 -71z m1676 -8 c4 -40 3 -63 -5 -73 -30 -35 -36
-4 -23 105 7 62 18 51 28 -32z m2230 -69 c-4 -94 -37 -228 -57 -228 -16 0 0
149 34 325 11 56 12 58 20 30 4 -17 6 -74 3 -127z m-379 117 c54 -32 64 -50
64 -117 l0 -53 -50 -16 c-28 -8 -50 -15 -50 -15 0 11 -22 179 -26 199 -7 34 6
35 62 2z m-2994 -17 c33 -64 56 -126 63 -167 l7 -41 -64 30 c-34 16 -73 30
-85 30 -32 0 -35 12 -23 83 10 57 15 66 43 80 42 21 40 22 59 -15z m2887 -14
c26 -21 31 -33 30 -67 0 -37 -2 -40 -12 -23 -7 10 -21 33 -32 50 -45 68 -39
85 14 40z m-1937 -39 c3 -28 6 -90 7 -140 l0 -90 -24 30 c-23 28 -25 38 -25
143 0 103 2 113 18 110 12 -2 19 -17 24 -53z m123 -22 c-5 -61 -14 -89 -38
-130 -56 -93 -59 -61 -10 92 45 140 59 151 48 38z m-669 21 c13 -27 15 -50 10
-107 -10 -101 -13 -109 -49 -134 -37 -26 -47 -18 -47 39 0 25 6 40 18 47 16 9
16 11 -1 41 -20 32 -17 64 9 127 16 40 37 35 60 -13z m634 39 c0 -11 -46 -122
-54 -130 -3 -3 -6 26 -6 65 l0 72 30 0 c17 0 30 -3 30 -7z m-918 -16 c3 -34
-15 -188 -22 -177 -11 21 -23 167 -15 180 7 12 36 10 37 -3z m-400 -127 c-4
-15 -141 -124 -148 -118 -9 10 51 116 91 160 25 28 46 55 47 62 0 6 4 -11 7
-39 3 -27 5 -57 3 -65z m757 -24 l-21 -21 7 60 c4 33 12 69 19 80 9 17 11 11
14 -39 3 -50 0 -63 -19 -80z m1200 54 c21 -52 27 -78 20 -85 -16 -16 -36 20
-44 78 -3 29 -9 61 -12 72 -11 39 7 8 36 -65z m1221 -2 c34 -72 37 -93 13
-102 -22 -9 -29 6 -37 76 -4 33 -10 66 -13 74 -3 8 -2 14 1 14 4 0 20 -28 36
-62z m1284 5 c-10 -7 -24 -11 -31 -9 -7 3 -13 -1 -13 -9 0 -8 -4 -15 -10 -15
-13 0 -13 1 6 39 21 41 57 58 62 28 2 -12 -4 -27 -14 -34z m-2154 39 c0 -4 15
-7 33 -7 31 0 33 -2 62 -87 16 -48 27 -89 25 -91 -3 -2 -28 -7 -57 -10 l-52
-6 -7 57 c-4 31 -8 71 -8 89 -1 18 -5 35 -9 39 -10 11 -9 24 3 24 6 0 10 -3
10 -8z m2023 -136 c-28 -89 -42 -83 -36 16 2 46 7 94 10 108 5 23 7 22 25 -20
19 -44 20 -46 1 -104z m-897 -42 c6 -88 5 -102 -10 -107 -14 -6 -16 8 -15 141
1 162 13 147 25 -34z m-3595 66 c-49 -101 -55 -108 -46 -50 8 52 28 95 58 128
35 38 30 10 -12 -78z m2079 23 c4 -21 11 -45 14 -54 5 -11 -1 -25 -17 -40 -44
-44 -65 -84 -78 -149 -15 -75 -17 -79 -29 -60 -16 25 -12 100 4 100 8 0 17 4
20 9 9 14 -4 41 -20 41 -8 0 -14 10 -14 23 0 16 9 26 30 34 32 12 69 77 70
122 0 34 11 19 20 -26z m1123 -6 c23 -74 22 -80 -10 -74 -16 3 -43 -1 -62 -9
-44 -18 -43 -19 -35 22 5 29 4 36 -7 32 -8 -3 -16 -22 -19 -44 -5 -35 -6 -37
-13 -14 -3 14 -7 40 -7 58 0 30 4 35 53 57 75 34 81 33 100 -28z m1013 45 c16
-10 29 -38 53 -111 26 -79 26 -78 0 -86 -11 -4 -33 -25 -49 -47 -19 -26 -31
-36 -34 -27 -9 30 -26 173 -26 224 0 50 2 55 23 55 12 0 27 -4 33 -8z m-276
-32 c22 -11 52 -20 67 -20 34 0 64 -20 93 -61 23 -32 53 -127 44 -141 -3 -5
-25 18 -48 49 -70 96 -131 139 -211 150 -35 4 -45 10 -45 24 0 26 49 25 100
-1z m-2204 -17 c-3 -16 -10 -102 -16 -193 -6 -91 -14 -172 -16 -180 -13 -40
-22 28 -25 195 l-4 179 25 13 c36 18 42 16 36 -14z m1167 7 c20 0 19 -3 -10
-31 -18 -16 -33 -39 -33 -50 0 -12 -8 -33 -19 -47 -10 -15 -29 -47 -41 -72
-35 -69 -35 -32 1 72 48 142 48 141 65 134 9 -3 25 -6 37 -6z m594 -132 c-4
-62 -7 -135 -8 -163 l0 -50 -18 50 c-10 28 -28 88 -40 136 l-23 85 24 27 c13
15 34 27 47 27 l24 0 -6 -112z m-1857 -40 c-1 -164 -10 -165 -34 -3 -17 110
-17 110 5 128 12 9 23 17 25 17 2 0 4 -64 4 -142z m2963 118 c27 -22 28 -24
15 -65 -11 -35 -16 -41 -34 -37 -19 5 -26 -4 -54 -74 -18 -45 -38 -79 -44 -77
-27 10 10 199 49 255 20 28 33 27 68 -2z m-667 -110 c41 -61 81 -121 89 -132
10 -14 14 -31 9 -48 -6 -27 -18 -33 -29 -16 -4 6 -23 19 -44 29 -20 11 -60 40
-87 65 -38 34 -54 42 -62 34 -24 -24 -24 4 -2 89 13 49 25 91 27 96 8 14 26
-7 99 -117z m-2928 67 c-30 -70 -38 -74 -38 -17 0 57 4 64 36 64 l23 0 -21
-47z m-735 29 c3 -4 -2 -39 -11 -77 -17 -75 -22 -72 -35 27 -5 39 -4 47 11 51
28 7 31 7 35 -1z m817 -9 c0 -10 -42 -53 -52 -53 -5 0 -2 14 7 30 14 26 45 42
45 23z m1175 -45 c3 -29 5 -91 3 -138 l-3 -85 -13 55 c-7 30 -16 92 -19 138
-5 70 -4 82 10 82 11 0 17 -14 22 -52z m-2071 10 c15 -102 15 -108 -4 -118
-17 -9 -20 -6 -25 17 -4 16 -11 48 -16 72 -8 34 -7 46 3 52 25 16 37 9 42 -23z
m2806 22 c0 -5 6 -10 14 -10 16 0 29 -27 17 -34 -4 -3 -20 -10 -34 -15 -24 -9
-28 -7 -43 21 -13 25 -14 32 -2 39 18 12 48 11 48 -1z m-2513 -155 c62 -36
113 -84 113 -107 0 -10 7 -21 15 -24 9 -4 15 -19 15 -40 0 -36 -15 -46 -24
-16 -3 9 -21 27 -38 39 -18 13 -55 43 -83 69 -73 67 -122 102 -157 109 -30 7
-30 7 -24 58 4 28 10 55 13 60 3 5 32 -20 64 -56 32 -36 80 -77 106 -92z
m1077 84 c4 -34 5 -63 3 -65 -2 -3 -21 12 -41 32 l-37 37 27 28 c15 16 31 29
35 29 3 0 10 -27 13 -61z m1368 30 c4 -26 0 -32 -26 -46 -17 -8 -39 -22 -49
-31 -29 -25 -30 -7 -3 46 22 44 35 55 67 61 4 0 9 -13 11 -30z m488 -100 c23
-72 39 -133 37 -136 -5 -5 -47 68 -92 159 -27 54 -28 57 -11 82 9 14 18 26 21
26 2 0 23 -59 45 -131z m-2250 96 c10 -11 10 -26 0 -67 -7 -29 -15 -57 -19
-63 -7 -13 -18 37 -20 91 -1 54 14 70 39 39z m1439 -22 c25 -95 25 -93 2 -93
-12 0 -36 -7 -53 -16 -17 -9 -34 -12 -38 -7 -4 4 -11 32 -15 60 -7 51 -6 53
22 63 15 5 35 14 43 19 24 16 29 13 39 -26z m2116 -54 c0 -31 -43 -40 -62 -13
-14 19 -18 66 -6 77 12 13 68 -40 68 -64z m-3616 -14 c6 -39 13 -85 16 -102 6
-31 4 -33 -23 -33 -15 0 -49 -13 -75 -30 -33 -21 -47 -25 -47 -15 0 37 34 152
52 179 26 37 60 77 64 73 2 -1 8 -34 13 -72z m-1018 18 c7 -16 15 -31 17 -35
2 -5 -15 -8 -37 -8 -46 0 -54 19 -24 52 22 24 27 23 44 -9z m733 -67 l-7 -86
-48 -25 c-37 -18 -49 -21 -49 -10 0 25 23 65 37 65 17 0 17 27 1 33 -9 2 0 23
25 61 21 32 41 56 43 53 3 -3 2 -44 -2 -91z m2450 57 c3 -21 6 -54 6 -73 0
-34 -1 -34 -26 22 -27 57 -27 88 -1 88 9 0 17 -15 21 -37z m-2018 -93 c7 -51
6 -52 -14 -41 -12 6 -32 12 -45 13 l-23 2 18 66 c9 36 18 70 18 75 2 26 40
-68 46 -115z m3354 79 c0 -4 -15 -36 -32 -70 -30 -58 -33 -61 -36 -36 -3 24
20 113 36 141 5 9 32 -21 32 -35z m-2771 -16 l36 -38 -35 -3 c-19 -2 -39 -10
-43 -18 -4 -8 -15 -14 -22 -14 -11 0 -15 14 -15 55 0 49 2 55 21 55 12 0 37
-17 58 -37z m641 -18 c7 -44 -2 -61 -14 -29 -8 21 -8 89 1 81 3 -4 9 -27 13
-52z m-276 13 c11 -44 9 -48 -26 -36 -48 16 -56 27 -34 44 29 21 53 17 60 -8z
m553 0 c-3 -8 -6 -5 -6 6 -1 11 2 17 5 13 3 -3 4 -12 1 -19z m353 -26 c-36
-69 -42 -72 -37 -18 5 49 19 68 43 59 11 -4 9 -13 -6 -41z m-1750 -37 c0 -77
-13 -100 -24 -44 -12 60 -7 119 9 119 12 0 15 -15 15 -75z m1064 -2 l6 -72
-32 -17 c-18 -9 -45 -28 -60 -42 -24 -22 -28 -23 -34 -9 -10 26 2 44 45 74 44
31 52 52 21 60 -11 3 -20 9 -20 14 0 8 62 70 66 66 1 -1 5 -34 8 -74z m946 20
c53 -134 52 -129 29 -168 -23 -38 -39 -45 -39 -17 -1 9 -7 68 -13 130 -7 61
-10 112 -6 112 3 0 16 -26 29 -57z m-310 33 c0 -7 -3 -34 -6 -60 -8 -59 -24
-41 -24 27 0 35 4 47 15 47 8 0 15 -6 15 -14z m189 -66 c35 -75 53 -180 32
-180 -7 0 -25 13 -41 28 -15 16 -46 34 -69 40 -34 11 -41 17 -41 37 0 28 -15
33 -28 9 -5 -9 -14 -15 -21 -13 -6 3 2 25 22 59 26 42 39 56 61 58 15 2 30 10
33 18 10 26 20 15 52 -56z m-600 3 c18 -93 16 -98 -25 -53 -20 22 -47 43 -60
46 -13 3 -24 10 -24 14 0 7 78 50 91 50 3 0 11 -26 18 -57z m351 23 c0 -18 3
-47 6 -64 6 -30 6 -30 -45 -33 -28 -2 -51 0 -51 4 0 21 67 127 80 127 6 0 10
-15 10 -34z m825 -42 c-23 -17 -32 -10 -15 11 7 8 17 12 23 8 6 -4 3 -11 -8
-19z m883 -10 c2 -15 -5 -25 -27 -34 -16 -6 -35 -9 -40 -5 -19 11 -12 41 12
53 31 15 52 10 55 -14z m-4489 -38 l-1 -41 -13 30 c-19 41 -19 66 0 59 10 -4
15 -19 14 -48z m3221 -65 c0 -6 -4 -13 -10 -16 -5 -3 -10 1 -10 9 0 9 5 16 10
16 6 0 10 -4 10 -9z"/>
<path d="M2971 2921 c-6 -11 -11 -24 -11 -30 0 -5 41 -42 91 -82 76 -61 90
-76 87 -98 -2 -14 -10 -27 -19 -29 -10 -2 -58 32 -110 78 l-93 80 -28 -27
c-28 -26 -28 -27 -9 -47 10 -12 24 -31 30 -43 13 -26 259 -334 275 -345 16
-11 36 -10 36 3 0 5 -23 34 -51 64 -39 41 -46 54 -33 57 13 2 9 12 -24 52 -39
47 -40 49 -22 68 17 19 19 18 76 -34 32 -29 119 -113 194 -185 75 -73 142
-133 150 -133 7 0 50 -35 95 -77 162 -154 280 -259 299 -266 10 -4 45 -26 77
-49 55 -38 61 -40 84 -28 29 16 33 52 11 103 -22 50 -125 172 -181 213 -87 64
-113 94 -120 135 -5 28 -18 47 -48 74 -23 19 -64 55 -92 80 -51 45 -188 145
-228 166 -62 33 -189 123 -178 127 6 2 29 -8 50 -22 38 -27 76 -35 69 -14 -2
6 -53 42 -114 79 -111 68 -233 141 -246 147 -4 2 -11 -6 -17 -17z m-1 -206
c20 -24 6 -28 -15 -5 -10 11 -13 20 -8 20 6 0 16 -7 23 -15z"/>
<path d="M3765 2880 c-11 -19 5 -29 86 -55 85 -27 119 -31 119 -15 0 17 -43
38 -120 59 -88 25 -77 23 -85 11z"/>
<path d="M1835 2691 c-44 -11 -144 -67 -165 -92 -3 -3 -25 -18 -49 -33 -29
-18 -40 -31 -33 -38 12 -12 120 41 156 77 14 14 32 25 41 25 21 0 88 35 104
54 11 14 11 16 -5 15 -11 -1 -32 -4 -49 -8z"/>
<path d="M3160 2507 c0 -16 42 -57 58 -57 20 0 14 25 -11 48 -26 25 -47 29
-47 9z"/>
</g>
</svg>