<?xml version="1.0" standalone="no"?>
<!DOCTYPE svg PUBLIC "-//W3C//DTD SVG 20010904//EN"
 "http://www.w3.org/TR/2001/REC-SVG-20010904/DTD/svg10.dtd">
<svg version="1.0" xmlns="http://www.w3.org/2000/svg"
 width="512.000000pt" height="512.000000pt" viewBox="0 0 512.000000 512.000000"
 preserveAspectRatio="xMidYMid meet">
<metadata>
Created by potrace 1.16, written by Peter Selinger 2001-2019
</metadata>
<g transform="translate(0.000000,512.000000) scale(0.100000,-0.100000)"
fill="#000000" stroke="none">
<path d="M0 4879 l0 -241 31 6 c49 10 99 45 99 69 0 45 43 74 122 83 32 4 61
11 65 17 4 6 7 32 8 59 2 52 25 88 57 88 24 0 23 15 -2 40 -21 21 -26 55 -10
65 6 3 10 17 10 31 l0 24 -190 0 -190 0 0 -241z"/>
<path d="M3410 5110 c0 -6 7 -13 15 -16 8 -3 24 -21 36 -40 11 -19 27 -34 34
-34 7 0 22 -12 33 -27 11 -16 23 -25 27 -21 8 7 -53 64 -65 61 -4 -1 -6 7 -3
17 3 11 1 20 -5 20 -5 0 -20 11 -33 25 -26 26 -39 31 -39 15z"/>
<path d="M4739 5098 c-7 -13 -18 -27 -25 -31 -8 -4 -14 -16 -14 -27 0 -11 -15
-27 -40 -41 -31 -18 -40 -29 -40 -50 0 -14 -7 -32 -15 -39 -8 -7 -15 -19 -15
-26 0 -14 -49 -44 -73 -44 -8 0 -20 -13 -27 -29 -19 -47 -63 -82 -111 -88 -24
-3 -55 -14 -68 -24 -13 -11 -30 -19 -37 -19 -7 0 -27 -8 -44 -18 -28 -18 -29
-20 -13 -34 10 -8 26 -18 36 -21 9 -4 17 -11 17 -17 0 -5 7 -10 15 -10 14 0
75 -53 75 -65 0 -12 37 -48 58 -56 30 -12 30 -66 0 -105 l-23 -29 35 28 c89
71 115 87 139 87 42 0 97 -19 116 -39 11 -13 37 -22 71 -27 44 -5 60 -3 89 15
50 29 97 27 126 -4 34 -36 97 -66 125 -59 l24 6 0 394 0 394 -185 0 c-181 0
-185 0 -196 -22z"/>
<path d="M1612 5075 c0 -16 2 -22 5 -12 2 9 2 23 0 30 -3 6 -5 -1 -5 -18z"/>
<path d="M3575 4960 c3 -5 8 -10 11 -10 2 0 4 5 4 10 0 6 -5 10 -11 10 -5 0
-7 -4 -4 -10z"/>
<path d="M3610 4949 c0 -5 5 -7 10 -4 6 3 10 8 10 11 0 2 -4 4 -10 4 -5 0 -10
-5 -10 -11z"/>
<path d="M1288 4865 c-3 -14 -2 -27 2 -30 10 -6 37 29 32 43 -7 21 -30 13 -34
-13z"/>
<path d="M1090 4715 c-13 -24 -12 -28 20 -58 19 -18 26 -22 16 -9 -12 14 -15
22 -7 22 7 0 9 5 6 10 -6 10 8 14 35 10 8 -1 2 10 -15 24 -37 32 -38 32 -55 1z"/>
<path d="M1208 4703 c6 -2 18 -2 25 0 6 3 1 5 -13 5 -14 0 -19 -2 -12 -5z"/>
<path d="M311 4683 c-19 -3 -44 -11 -55 -19 -11 -8 -29 -14 -40 -14 -11 0 -28
-8 -38 -17 -16 -14 -24 -15 -50 -5 -23 8 -43 8 -79 0 l-49 -11 0 -658 0 -657
32 -11 c27 -10 33 -8 45 8 23 34 173 53 173 23 0 -5 7 -17 15 -28 12 -15 11
-11 -2 23 -9 23 -19 41 -22 39 -11 -7 -10 99 1 134 6 19 13 46 14 59 2 13 8
27 13 30 6 4 13 27 15 51 3 25 13 77 21 115 9 39 17 77 18 85 2 9 6 21 11 28
4 7 9 25 12 40 3 15 12 48 20 74 8 26 16 56 17 68 1 11 7 18 13 16 7 -3 14 10
18 32 3 20 12 49 20 65 11 19 12 27 3 27 -7 0 -4 6 5 14 10 7 15 16 11 19 -3
4 2 16 12 27 10 11 15 20 11 20 -4 0 -1 10 6 23 7 12 11 25 10 30 -1 4 3 7 8
7 5 0 9 3 8 8 -3 11 36 92 44 92 5 0 8 6 8 13 1 6 9 30 20 52 11 22 19 46 20
53 0 6 4 12 9 12 5 0 13 18 19 39 9 37 8 39 -9 28 -13 -8 -29 -8 -58 -1 -35
10 -43 9 -57 -7 -10 -11 -27 -19 -39 -19 -25 0 -55 29 -55 53 0 13 -51 51 -62
45 -2 0 -18 -3 -37 -5z"/>
<path d="M4068 4643 c6 -2 18 -2 25 0 6 3 1 5 -13 5 -14 0 -19 -2 -12 -5z"/>
<path d="M4168 4633 c7 -3 16 -2 19 1 4 3 -2 6 -13 5 -11 0 -14 -3 -6 -6z"/>
<path d="M4385 4300 c-3 -5 -1 -10 4 -10 6 0 11 5 11 10 0 6 -2 10 -4 10 -3 0
-8 -4 -11 -10z"/>
<path d="M5074 4161 c-32 -20 -104 -98 -104 -114 0 -5 -10 -7 -22 -4 -13 3
-41 -1 -63 -8 -21 -8 -41 -12 -43 -10 -5 4 11 34 18 34 3 0 16 4 30 10 25 10
25 10 -6 10 -24 1 -39 -7 -61 -32 -16 -18 -34 -32 -40 -30 -6 2 -18 -3 -26
-12 -9 -9 -19 -16 -22 -15 -3 0 -13 0 -22 0 -17 -1 -17 -2 1 -15 16 -12 20
-12 34 2 9 8 28 20 44 25 17 6 25 15 22 21 -5 8 -2 8 6 0 11 -10 8 -17 -16
-40 -16 -15 -32 -26 -36 -25 -5 1 -7 -1 -7 -6 5 -28 -1 -34 -18 -21 -16 13
-17 12 -5 -3 10 -12 11 -22 3 -37 -6 -11 -11 -43 -11 -71 0 -48 -3 -53 -49
-98 -47 -45 -71 -95 -71 -147 0 -18 -6 -20 -49 -17 -80 6 -141 -42 -141 -111
0 -21 -7 -26 -44 -36 -27 -6 -53 -21 -65 -37 -20 -25 -23 -26 -65 -15 -34 8
-54 8 -93 -4 -53 -16 -103 -54 -103 -80 0 -11 -10 -15 -38 -15 -44 0 -82 -23
-82 -51 0 -12 -7 -19 -20 -19 -33 0 -90 -28 -90 -43 0 -16 -20 -27 -48 -27 -9
-1 -30 -7 -47 -15 -29 -14 -28 -15 30 -10 151 11 285 24 340 34 33 6 121 17
196 25 142 16 224 39 243 68 18 29 -8 42 -97 48 -75 5 -79 7 -42 14 191 39
241 49 314 61 114 20 119 22 126 55 7 30 15 35 80 45 67 11 108 27 127 49 l17
21 -4 -22 c-2 -13 0 -23 6 -23 5 0 9 -13 9 -29 0 -16 5 -31 12 -33 6 -2 12
-23 14 -45 1 -23 5 -47 9 -54 5 -7 4 -10 -2 -6 -9 6 -73 -19 -73 -28 0 -2 14
1 30 7 17 5 37 7 45 4 13 -5 15 50 15 444 0 248 -3 450 -7 450 -5 0 -22 -8
-39 -19z"/>
<path d="M340 3230 c0 -5 5 -10 10 -10 6 0 10 5 10 10 0 6 -4 10 -10 10 -5 0
-10 -4 -10 -10z"/>
<path d="M388 3203 c6 -2 18 -2 25 0 6 3 1 5 -13 5 -14 0 -19 -2 -12 -5z"/>
<path d="M3595 3160 c-68 -25 -23 -26 70 -1 69 19 70 19 25 19 -25 0 -67 -8
-95 -18z"/>
<path d="M351 3154 c0 -11 3 -14 6 -6 3 7 2 16 -1 19 -3 4 -6 -2 -5 -13z"/>
<path d="M432 2630 c0 -14 2 -19 5 -12 2 6 2 18 0 25 -3 6 -5 1 -5 -13z"/>
<path d="M1 2258 c-1 -219 4 -261 24 -228 8 13 82 13 90 1 3 -5 18 -12 34 -16
42 -9 131 -95 131 -128 0 -14 5 -29 11 -32 5 -4 9 -18 7 -32 -2 -20 3 -27 29
-38 27 -11 32 -11 37 1 3 9 1 12 -4 9 -6 -3 -10 1 -10 9 0 9 -5 16 -11 16 -6
0 -8 7 -5 16 5 12 2 15 -10 10 -14 -5 -15 -4 -4 9 10 12 10 15 -4 15 -9 0 -16
7 -16 15 0 8 5 15 10 15 6 0 10 5 10 11 0 6 -7 9 -14 6 -10 -4 -13 -1 -9 9 3
8 -2 25 -11 38 -8 13 -17 36 -20 50 -5 30 -44 96 -56 96 -4 0 -15 16 -24 35
-9 19 -21 37 -25 40 -5 3 -12 18 -16 34 -3 16 -13 32 -22 35 -9 4 -13 9 -10
12 3 4 0 13 -8 21 -8 8 -18 26 -21 41 -4 15 -12 33 -18 41 -6 8 -23 39 -38 70
l-27 56 0 -237z"/>
<path d="M3023 2291 c-12 -12 -27 -21 -32 -21 -6 0 -13 -11 -17 -25 -5 -20
-10 -23 -33 -19 -40 8 -95 -39 -88 -75 7 -33 -9 -61 -33 -61 -24 0 -36 -40
-20 -69 6 -12 8 -26 4 -32 -3 -6 4 -24 16 -41 17 -23 19 -32 9 -44 -10 -13
-14 -13 -29 1 -23 21 -46 19 -69 -6 -16 -17 -23 -19 -40 -10 -14 8 -34 8 -63
2 -53 -12 -74 -39 -69 -86 1 -14 -65 -49 -77 -41 -5 3 -8 29 -6 58 4 59 -13
94 -48 100 -26 4 -78 -17 -78 -32 0 -12 -20 -13 -38 -1 -10 6 -6 15 17 38 27
28 29 34 21 64 -6 19 -10 35 -10 36 0 8 -63 33 -85 33 -22 0 -25 4 -25 35 0
28 -5 38 -24 47 -15 6 -26 21 -28 36 -2 14 -15 34 -31 46 -24 18 -31 19 -60 8
-28 -11 -34 -10 -47 7 -8 10 -29 22 -46 26 -27 5 -36 1 -64 -26 -17 -18 -36
-44 -41 -57 -7 -19 -13 -22 -21 -14 -16 16 -53 15 -67 -2 -7 -8 -13 -34 -15
-58 -3 -58 -11 -69 -46 -61 -19 3 -38 0 -53 -10 -21 -14 -25 -13 -48 4 l-24
19 23 0 c31 0 24 19 -16 46 -35 24 -131 31 -167 12 -22 -12 -51 -49 -47 -61 1
-4 -9 -12 -23 -19 -29 -13 -34 -28 -32 -91 2 -45 0 -49 -33 -70 -34 -21 -76
-33 -153 -42 -21 -3 -47 -11 -58 -19 -30 -21 -5 -33 83 -41 67 -6 78 -9 78
-26 0 -12 9 -21 26 -25 l25 -6 -22 -24 c-16 -17 -33 -24 -60 -24 -20 0 -53 -7
-72 -15 -20 -8 -51 -15 -69 -15 -18 0 -39 -4 -46 -9 -18 -11 127 -20 243 -15
118 5 121 5 182 -2 51 -6 123 16 123 37 0 16 26 9 60 -16 45 -33 64 -32 126
11 60 42 91 41 72 -1 -9 -21 -8 -28 7 -45 10 -11 26 -20 37 -20 12 0 18 -7 18
-24 0 -50 100 -81 165 -50 20 9 39 24 42 31 4 11 17 13 54 8 46 -7 51 -5 79
25 l31 33 32 -18 c18 -9 39 -31 47 -49 26 -55 104 -75 187 -47 37 12 43 12 70
-8 16 -12 51 -24 81 -28 44 -5 58 -2 80 14 24 18 30 18 61 6 31 -13 32 -15 17
-32 -15 -17 -15 -20 1 -40 14 -18 29 -22 70 -23 28 0 66 3 85 7 27 6 31 5 21
-6 -18 -18 -16 -46 3 -53 9 -3 31 -6 50 -6 29 0 34 -3 34 -24 0 -27 24 -56 46
-56 8 0 14 -2 14 -5 0 -9 -52 -55 -61 -55 -4 0 -11 -9 -14 -20 -5 -15 -15 -20
-40 -20 -24 0 -39 -7 -53 -25 -13 -17 -30 -25 -50 -25 -17 0 -32 -5 -34 -11
-3 -9 -9 -9 -25 0 -12 6 -31 11 -42 11 -14 0 -21 6 -21 20 0 11 -7 23 -15 26
-8 4 -15 14 -15 23 0 23 -20 41 -46 41 -12 0 -27 7 -34 15 -19 22 -67 19 -90
-7 -12 -13 -30 -32 -40 -43 -11 -12 -20 -26 -20 -32 0 -6 -16 -14 -35 -17 -19
-4 -35 -12 -35 -18 0 -6 -10 -8 -24 -4 -15 4 -32 -1 -48 -13 -15 -12 -54 -24
-103 -30 -44 -6 -84 -16 -89 -21 -9 -9 30 -12 204 -15 25 -1 56 -7 69 -14 14
-8 41 -11 68 -8 24 2 59 0 77 -5 21 -7 57 -7 107 0 57 7 78 7 89 -3 8 -7 32
-16 53 -19 29 -5 36 -10 28 -19 -23 -28 27 -57 100 -57 40 0 60 6 85 25 27 21
38 24 54 15 14 -7 26 -8 39 0 36 19 90 12 129 -17 20 -15 38 -27 39 -28 1 0
-3 -20 -8 -44 -6 -29 -6 -47 1 -56 8 -10 0 -14 -35 -20 -39 -5 -51 -13 -73
-45 -20 -30 -34 -39 -55 -40 -36 0 -67 -17 -67 -35 0 -10 -16 -16 -50 -21 -72
-9 -51 -24 35 -24 41 0 77 -4 80 -10 4 -6 51 -7 127 -3 105 5 122 4 130 -10
14 -27 84 -41 134 -27 39 11 45 10 74 -11 26 -20 44 -24 98 -24 37 0 81 4 99
8 27 7 32 5 38 -13 4 -12 21 -28 39 -36 25 -13 34 -25 42 -59 7 -30 7 -48 -1
-57 -18 -24 -76 -45 -150 -54 -43 -6 -56 -24 -17 -24 31 0 82 -38 82 -61 0 -5
11 -9 25 -9 16 0 32 -11 47 -30 30 -41 52 -46 96 -19 20 12 55 25 77 28 30 5
40 11 45 29 12 50 58 90 128 112 92 29 131 21 194 -38 26 -24 48 -51 48 -59 0
-8 17 -30 37 -49 29 -28 42 -34 64 -29 47 11 133 -46 166 -109 12 -24 13 -30
1 -37 -7 -5 47 -9 130 -9 l142 0 0 523 c0 287 -4 518 -8 512 -4 -5 -17 -16
-29 -22 -56 -32 -68 -40 -95 -68 -17 -16 -27 -24 -23 -17 3 6 1 12 -4 12 -6 0
-11 -4 -11 -10 0 -5 -15 -1 -32 10 -45 26 -98 34 -143 21 -30 -8 -42 -7 -61 6
-17 11 -38 14 -69 11 -41 -5 -45 -4 -45 16 0 29 -25 63 -60 81 -41 21 -112 19
-141 -4 -22 -17 -24 -17 -36 -2 -7 10 -10 32 -6 57 4 33 1 45 -14 60 -20 18
-29 44 -40 112 -6 38 -41 69 -90 78 -41 8 -73 -6 -122 -54 l-34 -32 -17 28
c-22 37 -81 64 -128 61 -46 -3 -82 18 -82 48 0 13 -9 28 -20 35 -29 18 -25 34
20 78 41 40 47 54 30 65 -5 3 -10 17 -10 31 0 13 -4 32 -9 42 -5 9 -14 29 -22
45 -7 15 -18 27 -24 27 -7 0 -19 10 -27 22 -9 14 -26 22 -49 24 -41 3 -101
-30 -92 -52 7 -18 4 -18 -41 1 -33 14 -41 14 -66 1 -43 -21 -59 2 -66 95 -7
81 -22 109 -61 109 -18 0 -23 4 -19 18 2 9 8 40 11 69 7 52 7 52 -33 80 -24
17 -42 39 -46 55 -3 14 -13 32 -22 40 -9 7 -26 23 -39 36 -12 12 -31 22 -42
22 -10 0 -24 5 -31 12 -6 6 -26 13 -44 14 -18 1 -44 5 -58 9 -18 4 -31 0 -47
-14z"/>
<path d="M690 2206 c0 -2 7 -7 16 -10 8 -3 12 -2 9 4 -6 10 -25 14 -25 6z"/>
<path d="M5061 2124 c-17 -14 -29 -30 -26 -34 3 -5 -1 -11 -7 -13 -10 -4 -9
-6 1 -6 9 -1 5 -9 -12 -25 -14 -13 -23 -27 -20 -30 4 -3 1 -6 -5 -6 -7 0 -12
-7 -12 -15 0 -8 -6 -15 -14 -15 -8 0 -17 -14 -21 -32 -11 -52 -24 -61 -47 -35
-18 20 -19 20 -13 2 4 -11 8 -28 9 -37 1 -10 11 -28 23 -40 11 -13 23 -32 27
-42 6 -19 7 -19 21 0 8 10 15 27 15 36 0 9 15 31 33 49 17 18 31 37 29 43 -10
32 -18 95 -12 91 4 -3 11 12 15 32 4 21 19 48 36 64 38 36 20 47 -20 13z"/>
<path d="M4770 2026 c0 -2 8 -10 18 -17 15 -13 16 -12 3 4 -13 16 -21 21 -21
13z"/>
<path d="M4910 1919 c0 -5 5 -7 10 -4 6 3 10 8 10 11 0 2 -4 4 -10 4 -5 0 -10
-5 -10 -11z"/>
<path d="M370 1771 c0 -6 4 -13 10 -16 6 -3 7 1 4 9 -7 18 -14 21 -14 7z"/>
<path d="M80 1130 c-13 -9 -13 -10 0 -10 8 0 22 5 30 10 13 9 13 10 0 10 -8 0
-22 -5 -30 -10z"/>
<path d="M0 1103 c0 -23 1 -23 25 -7 14 9 25 18 25 19 0 1 -11 5 -25 7 -21 4
-25 1 -25 -19z"/>
<path d="M430 856 c0 -2 8 -10 18 -17 15 -13 16 -12 3 4 -13 16 -21 21 -21 13z"/>
<path d="M0 641 l0 -139 52 19 c80 29 110 25 147 -16 17 -20 34 -46 37 -60 5
-20 11 -24 30 -19 33 8 69 -17 94 -67 21 -40 21 -40 65 -34 77 12 145 -25 149
-79 0 -16 7 -26 16 -26 8 -1 26 -7 39 -14 21 -12 27 -12 40 1 10 10 27 14 52
10 25 -3 42 0 49 8 13 16 94 24 107 10 5 -5 22 -19 37 -30 15 -11 34 -32 42
-47 13 -25 17 -26 45 -16 17 6 34 21 39 34 5 13 14 24 20 24 5 0 10 12 10 28
0 15 7 38 16 50 9 13 13 26 10 29 -3 4 -6 1 -6 -6 0 -7 -4 -9 -10 -6 -5 3 -10
1 -10 -6 0 -8 -5 -7 -17 2 -9 8 -18 13 -20 12 -1 -2 -4 -3 -5 -2 -2 0 -16 3
-33 5 -16 3 -34 9 -40 15 -5 5 -22 9 -38 9 -16 0 -26 4 -22 10 3 6 -3 10 -14
10 -12 0 -21 5 -21 10 0 6 -8 10 -17 10 -14 0 -15 2 -5 9 9 5 0 10 -28 15 -23
3 -38 11 -35 16 3 6 -4 10 -17 10 -13 0 -33 7 -44 15 -12 8 -34 16 -49 19 -15
3 -35 12 -45 21 -9 8 -24 15 -33 15 -9 0 -18 4 -22 9 -3 5 -36 19 -73 31 -37
12 -78 29 -92 38 -14 9 -31 17 -38 18 -8 2 -21 6 -30 10 -9 4 -19 8 -22 9 -28
8 -90 42 -90 48 0 4 -4 6 -8 3 -5 -3 -28 8 -53 25 -24 16 -49 29 -55 29 -5 0
-27 16 -48 35 -21 19 -42 35 -47 35 -5 0 -9 -63 -9 -139z"/>
<path d="M3231 354 c0 -11 3 -14 6 -6 3 7 2 16 -1 19 -3 4 -6 -2 -5 -13z"/>
<path d="M1280 326 c0 -2 8 -10 18 -17 15 -13 16 -12 3 4 -13 16 -21 21 -21
13z"/>
<path d="M3743 251 c-12 -10 -19 -22 -15 -26 4 -5 1 -5 -6 -1 -7 4 -19 2 -27
-4 -8 -6 -19 -9 -25 -5 -5 3 -10 0 -10 -8 0 -9 7 -14 18 -12 68 14 74 16 68
31 -3 8 -2 12 4 9 5 -3 14 4 20 15 13 25 2 25 -27 1z"/>
<path d="M3520 226 c0 -15 33 -33 50 -29 23 6 27 23 5 23 -8 0 -15 -5 -15 -11
0 -6 -7 -3 -16 5 -15 16 -24 20 -24 12z"/>
<path d="M3610 203 c6 -13 18 -23 27 -23 9 0 14 2 12 4 -2 2 -7 4 -11 3 -4 -1
-14 7 -23 18 -16 20 -16 19 -5 -2z"/>
<path d="M2589 106 c-2 -2 -31 -6 -64 -10 -125 -12 -155 -18 -207 -37 -29 -10
-62 -19 -73 -19 -11 0 -38 -9 -60 -19 -40 -19 -36 -19 565 -19 398 0 584 4
545 10 -33 5 -80 15 -105 23 -25 8 -57 16 -72 17 -16 1 -28 5 -28 9 0 6 -69
17 -165 25 -27 2 -61 7 -75 10 -29 7 -255 15 -261 10z"/>
<path d="M0 25 c0 -23 3 -25 53 -25 l52 0 -40 25 c-51 31 -65 31 -65 0z"/>
</g>
</svg>