<?xml version="1.0" standalone="no"?>
<!DOCTYPE svg PUBLIC "-//W3C//DTD SVG 20010904//EN"
 "http://www.w3.org/TR/2001/REC-SVG-20010904/DTD/svg10.dtd">
<svg version="1.0" xmlns="http://www.w3.org/2000/svg"
 width="512.000000pt" height="512.000000pt" viewBox="0 0 512.000000 512.000000"
 preserveAspectRatio="xMidYMid meet">
<metadata>
Created by potrace 1.16, written by Peter Selinger 2001-2019
</metadata>
<g transform="translate(0.000000,512.000000) scale(0.100000,-0.100000)"
fill="#000000" stroke="none">
<path d="M2450 3173 c-14 -9 -28 -21 -32 -27 -4 -6 -14 -4 -26 7 -25 22 -45
21 -67 -3 -14 -16 -26 -19 -48 -14 -30 6 -72 -20 -61 -38 3 -5 -1 -17 -10 -27
-9 -10 -14 -25 -10 -35 9 -22 -9 -20 -31 4 -26 28 -45 25 -45 -7 l-1 -28 -15
28 c-8 15 -19 27 -23 27 -5 0 -19 -20 -31 -45 -18 -37 -20 -48 -10 -60 21 -25
3 -29 -28 -6 -33 23 -62 28 -62 10 0 -6 -7 -9 -15 -5 -23 8 -45 -4 -45 -25 0
-11 7 -22 15 -25 22 -9 18 -42 -5 -49 -11 -3 -20 -13 -20 -21 0 -15 -16 -19
-24 -5 -3 5 -35 8 -72 8 l-66 -1 6 -28 c4 -19 1 -28 -7 -28 -7 0 -22 -7 -33
-15 -19 -14 -19 -15 5 -33 16 -13 20 -22 12 -26 -19 -12 -12 -25 16 -28 28 -3
46 -28 20 -28 -8 0 -25 -8 -37 -18 -20 -16 -21 -21 -10 -42 11 -20 10 -22 -5
-16 -44 17 -63 17 -79 0 -9 -9 -15 -22 -12 -29 5 -14 -79 -45 -120 -45 -19 0
-24 -5 -24 -25 0 -14 -4 -25 -10 -25 -31 0 11 -57 54 -73 15 -6 16 -10 5 -23
-11 -14 -11 -18 4 -29 28 -20 20 -25 -47 -25 -71 0 -89 -11 -49 -29 14 -6 23
-14 20 -17 -5 -6 -57 4 -148 27 -56 14 -62 12 -55 -16 6 -24 5 -25 -39 -18
-36 5 -45 3 -45 -10 0 -8 -7 -17 -15 -21 -8 -3 -15 -15 -15 -26 0 -16 7 -20
30 -20 26 0 87 -10 160 -27 l25 -5 -25 -11 c-23 -10 -19 -12 35 -17 l60 -6
-40 -8 c-63 -12 -88 -21 -92 -33 -8 -22 25 -20 107 8 47 16 87 29 89 29 3 0
-6 -11 -19 -25 -35 -37 -17 -49 51 -36 30 6 64 13 77 17 12 3 22 2 22 -3 0 -6
-25 -18 -55 -28 -32 -10 -55 -23 -55 -31 0 -8 7 -14 15 -14 15 0 110 24 138
35 9 4 23 3 30 -3 6 -6 25 -12 41 -14 29 -3 29 -4 -27 -41 -31 -20 -57 -41
-57 -47 0 -22 24 -20 59 4 20 14 45 26 54 26 18 0 23 -25 7 -35 -5 -3 -10 -10
-10 -16 0 -14 32 -10 54 6 11 8 27 15 37 15 9 0 28 9 42 20 24 19 67 28 67 14
0 -4 -17 -22 -37 -40 -34 -29 -36 -33 -19 -40 15 -6 28 2 58 34 21 23 44 42
52 42 7 0 37 18 66 40 52 39 80 50 80 31 0 -5 -11 -16 -24 -24 -42 -28 -56
-48 -56 -82 0 -30 -6 -38 -44 -60 -45 -27 -67 -55 -41 -55 19 0 63 20 98 43
34 23 130 47 159 39 15 -4 5 -10 -37 -23 -65 -20 -84 -34 -69 -49 7 -7 23 -5
48 5 46 20 98 13 173 -20 41 -18 62 -38 102 -91 56 -77 71 -123 71 -218 0 -64
-1 -67 -47 -119 -43 -48 -54 -55 -106 -65 -35 -7 -74 -23 -99 -41 -23 -17 -54
-31 -69 -31 -15 0 -57 -14 -93 -31 -39 -18 -86 -32 -114 -33 -26 -1 -61 -10
-79 -19 -18 -9 -40 -17 -49 -17 -26 0 -84 -23 -84 -33 0 -4 8 -6 18 -3 49 14
278 22 500 18 80 -2 87 -14 19 -33 -23 -6 -55 -16 -72 -23 -28 -10 -25 -11 45
-16 l75 -6 -55 -26 c-30 -14 -75 -29 -99 -33 -36 -6 -41 -9 -27 -17 10 -6 50
-14 89 -19 39 -5 75 -13 81 -19 22 -22 -33 -134 -84 -172 -20 -14 -31 -16 -60
-8 -85 23 -169 40 -201 40 -19 0 -44 7 -55 15 -22 16 -54 20 -54 5 0 -16 56
-40 107 -46 66 -7 133 -25 133 -35 0 -4 17 -9 38 -11 l37 -3 -48 -28 -48 -29
-44 41 c-64 59 -107 55 -45 -4 38 -37 38 -45 -2 -45 -36 0 -92 38 -70 47 19 8
4 23 -24 23 -14 0 -27 -7 -30 -15 -9 -23 -49 -18 -82 10 -30 25 -72 34 -72 15
0 -5 12 -13 27 -16 l27 -7 -25 -9 -24 -9 28 -24 c15 -13 27 -27 27 -30 0 -8
-48 -6 -54 3 -5 8 -96 14 -96 6 0 -2 12 -10 27 -17 l26 -14 -37 -7 c-46 -9
-124 2 -153 20 -28 18 -76 19 -71 2 3 -7 13 -15 24 -17 10 -2 21 -7 24 -11 3
-4 27 -17 54 -29 58 -25 55 -41 -4 -17 -45 18 -74 21 -65 7 9 -15 -80 -25
-103 -12 -30 16 -142 26 -142 14 0 -6 26 -22 58 -36 51 -23 54 -26 27 -26 -16
-1 -46 3 -65 8 -19 5 -68 12 -107 15 -62 5 -73 4 -73 -10 0 -11 6 -14 21 -9
16 5 19 4 14 -5 -6 -10 7 -11 64 -6 39 4 71 5 71 3 0 -2 -27 -14 -60 -26 -33
-12 -71 -32 -85 -45 -13 -12 -50 -29 -82 -37 -55 -13 -56 -14 -22 -17 39 -3
71 8 109 38 32 25 138 52 192 48 l43 -3 -51 -27 c-57 -30 -86 -57 -63 -59 28
-2 55 3 109 20 70 23 120 33 120 23 0 -4 -20 -13 -45 -20 -77 -21 -56 -36 40
-28 47 4 85 5 85 1 0 -3 -22 -15 -50 -27 -52 -23 -60 -32 -35 -41 10 -5 1 -19
-35 -56 -53 -56 -49 -71 11 -51 30 10 45 11 64 2 14 -7 34 -12 45 -12 10 0 20
-5 22 -11 3 -9 9 -9 25 0 37 19 48 12 23 -14 l-23 -25 34 0 c19 0 41 -5 49
-10 11 -7 6 -10 -21 -10 -36 0 -80 -23 -67 -35 3 -4 37 -8 73 -9 53 -2 73 -7
92 -24 l25 -22 676 2 677 3 -2 21 c-2 16 6 25 27 34 19 8 29 19 28 29 -2 11
12 20 47 32 70 22 74 49 8 49 -26 0 -55 -4 -63 -9 -10 -7 -18 -4 -27 8 -10 15
-22 18 -56 14 -31 -4 -46 -1 -56 11 -11 13 -10 17 5 23 11 3 22 11 26 16 3 6
17 11 30 12 126 12 228 35 228 52 0 11 -17 14 -77 14 -43 -1 -100 1 -126 5
-39 5 -46 9 -36 20 6 8 17 14 24 14 6 0 22 9 35 20 13 11 28 20 35 20 7 0 20
9 31 21 16 17 16 22 4 29 -20 13 -20 12 -70 -5 -56 -20 -71 -19 -63 2 11 28
-48 9 -114 -37 -64 -44 -84 -50 -76 -21 11 41 -59 29 -79 -14 -9 -19 -18 -25
-37 -23 -13 2 -27 9 -29 17 -3 9 0 11 8 6 10 -6 44 28 45 45 0 3 4 11 8 18 5
6 5 17 2 22 -11 18 -35 10 -47 -15 -9 -19 -19 -25 -45 -25 -35 0 -41 8 -21 28
18 18 1 27 -28 13 -47 -21 -36 -5 22 32 37 25 68 37 93 38 58 1 132 15 140 27
3 6 19 15 34 21 39 15 35 34 -5 26 -18 -3 -44 -10 -58 -15 -14 -5 -77 -14
-140 -20 -63 -6 -136 -18 -162 -27 -26 -9 -51 -14 -54 -10 -4 4 -10 27 -14 51
-7 48 -3 49 35 15 18 -16 31 -17 137 -9 65 5 122 12 128 15 22 14 -3 26 -40
20 -21 -4 -47 -2 -57 3 -13 7 -32 7 -61 -1 -34 -9 -47 -8 -77 6 -44 21 -44 34
-2 45 39 10 33 29 -8 23 -74 -10 -70 -14 -70 74 1 68 5 89 30 139 27 54 35 61
80 77 l50 17 -40 1 c-55 2 -76 16 -35 25 18 3 52 6 76 6 23 0 45 4 49 9 7 13
-42 22 -165 31 -24 1 -24 2 5 13 19 8 30 19 30 32 0 18 7 20 60 22 153 6 188
18 148 49 -17 13 -17 13 2 14 11 1 34 4 50 7 17 2 109 5 206 6 133 2 180 5
193 16 12 10 29 12 69 6 28 -4 106 -7 172 -6 66 1 190 -5 275 -14 85 -9 193
-19 240 -22 118 -7 94 12 -40 33 -58 9 -177 34 -265 56 -88 22 -187 47 -221
54 -34 7 -87 27 -119 44 -40 21 -71 30 -105 30 -42 0 -55 6 -110 50 -70 56
-95 66 -143 55 -18 -3 -54 -9 -82 -11 -27 -3 -54 -6 -60 -8 -5 -2 -34 -13 -62
-25 l-53 -21 -26 52 c-43 84 -64 157 -64 219 0 78 11 102 64 139 25 17 46 35
46 40 0 21 -41 8 -77 -22 -20 -18 -35 -28 -32 -23 3 6 15 31 27 58 12 26 26
47 31 47 5 0 37 -19 70 -42 58 -40 62 -41 75 -23 13 18 15 17 52 -13 57 -47
101 -39 57 11 -17 18 -17 19 7 16 14 -2 31 0 38 5 8 5 24 3 39 -5 19 -10 28
-11 44 -1 14 9 25 10 40 2 16 -9 26 -8 44 4 14 9 39 15 56 14 42 -4 48 16 9
32 -17 7 -35 21 -41 31 -7 15 -21 19 -58 19 -35 0 -53 5 -66 20 -10 11 -24 20
-31 20 -26 0 -62 23 -57 36 3 7 -13 35 -36 61 -30 35 -37 50 -29 60 17 21 -17
27 -45 9 -13 -9 -32 -14 -41 -10 -24 9 -19 24 8 24 14 0 32 7 41 16 23 23 40
12 67 -43 21 -41 34 -53 89 -80 35 -18 69 -33 75 -33 17 0 37 28 30 42 -15 28
-32 57 -45 72 -24 28 4 17 34 -14 16 -16 36 -30 44 -30 9 0 31 -13 49 -29 36
-32 94 -51 100 -33 2 7 19 9 46 6 26 -4 46 -2 50 4 8 14 -38 57 -86 83 -25 12
-38 26 -38 39 0 11 -6 20 -14 20 -8 0 -21 14 -30 30 -12 25 -12 30 -1 30 8 0
17 -4 20 -10 8 -13 55 -13 55 0 0 7 24 10 63 8 58 -3 62 -2 60 19 -2 18 4 22
40 28 77 13 117 77 57 90 -16 4 -34 4 -40 0 -15 -9 -160 5 -160 16 0 5 7 9 15
9 17 0 39 36 30 50 -3 6 -15 10 -27 10 -15 0 -18 4 -14 17 8 19 -9 33 -41 33
-15 0 -23 6 -23 18 0 41 -34 47 -73 14 -27 -24 -33 -5 -9 28 12 16 22 34 22
39 0 6 9 15 21 21 11 6 18 17 16 23 -2 6 6 19 17 29 18 15 19 19 6 28 -8 5
-23 10 -32 10 -12 0 -18 8 -18 25 0 30 -9 31 -62 4 -40 -20 -42 -21 -55 -3
-11 16 -17 16 -46 6 -46 -17 -53 -15 -33 7 10 11 15 25 11 31 -4 7 5 16 23 22
19 7 32 21 35 35 5 27 0 33 -28 33 -31 0 -37 11 -19 31 26 28 10 53 -29 46
-17 -3 -40 -8 -49 -12 -13 -5 -20 0 -27 18 -11 27 -72 49 -79 28 -2 -6 -13
-21 -24 -33 -17 -20 -19 -20 -13 -4 3 11 0 23 -7 27 -10 7 -10 11 0 21 6 6 12
22 12 35 0 18 -6 23 -24 23 -18 0 -27 8 -35 31 -10 28 -13 30 -48 23 -21 -3
-48 -15 -60 -27 -24 -21 -53 -17 -53 9 0 13 -7 15 -39 9 -24 -4 -42 -2 -46 4
-10 17 -57 13 -85 -6z m252 -645 c-19 -20 -32 -26 -36 -19 -4 6 7 26 25 44 23
22 34 28 37 18 2 -7 -9 -27 -26 -43z m83 12 c-3 -5 -11 -10 -16 -10 -6 0 -7 5
-4 10 3 6 11 10 16 10 6 0 7 -4 4 -10z m283 -360 c16 -21 18 -30 9 -30 -24 0
-51 26 -44 44 8 21 10 21 35 -14z m-645 -181 c21 -17 37 -39 37 -51 0 -18 -7
-14 -45 24 -25 25 -45 49 -45 52 0 13 17 5 53 -25z m206 -46 c-34 -58 -39 -60
-39 -16 0 41 8 51 43 52 17 1 17 -2 -4 -36z m169 22 c3 -3 1 -9 -4 -14 -5 -6
-23 -2 -44 10 l-35 20 39 -5 c21 -3 41 -8 44 -11z m-421 -73 c28 -35 73 -113
73 -128 0 -3 -18 10 -40 30 -22 20 -46 36 -53 36 -8 0 -29 21 -47 47 l-33 46
26 -7 c16 -4 27 -2 27 4 0 20 17 10 47 -28z m-109 -7 c17 -38 15 -39 -17 -13
-28 23 -31 38 -7 38 7 0 18 -11 24 -25z m-11 -1220 c-15 -14 -33 -25 -40 -25
-6 0 4 11 23 25 43 32 53 32 17 0z m213 -98 c0 -12 -5 -29 -10 -37 -7 -11 -10
-3 -10 28 0 26 4 41 10 37 6 -3 10 -16 10 -28z m-140 -67 c0 -11 -59 -50 -75
-50 -5 0 -2 5 9 11 10 6 27 20 37 30 21 21 29 24 29 9z m422 -122 c-7 -7 -12
-8 -12 -2 0 14 12 26 19 19 2 -3 -1 -11 -7 -17z m-47 -57 c-3 -6 -25 -11 -48
-10 l-42 1 45 12 c49 13 55 13 45 -3z m185 -121 c0 -5 -19 -10 -42 -10 -32 0
-39 3 -28 10 20 13 70 13 70 0z"/>
<path d="M1712 1610 c-52 -32 -153 -71 -197 -75 -22 -1 -69 -9 -104 -15 -95
-19 -236 8 -353 67 -66 32 -142 32 -177 -1 -15 -13 -53 -40 -86 -60 -60 -36
-59 -44 5 -26 36 10 296 13 420 4 41 -3 93 -6 115 -6 51 -2 307 12 315 17 3 1
57 6 120 9 63 4 142 10 175 13 33 4 76 6 95 5 33 -1 31 0 -24 24 -32 14 -65
23 -73 20 -8 -4 -27 3 -42 13 -16 11 -42 19 -62 19 -19 -1 -47 2 -64 6 -22 5
-39 1 -63 -14z"/>
<path d="M2092 1562 c-8 -6 -2 -9 18 -9 20 0 26 3 18 9 -7 4 -15 8 -18 8 -3 0
-11 -4 -18 -8z"/>
<path d="M625 1490 c-13 -6 -15 -9 -5 -9 8 0 22 4 30 9 18 12 2 12 -25 0z"/>
<path d="M4621 1143 c-25 -3 -54 -11 -65 -18 -19 -14 -18 -15 15 -28 28 -11
55 -12 147 -3 l113 11 -65 23 c-36 12 -73 21 -83 20 -10 -1 -38 -3 -62 -5z"/>
<path d="M3783 1093 c9 -2 25 -2 35 0 9 3 1 5 -18 5 -19 0 -27 -2 -17 -5z"/>
<path d="M4330 1084 c41 -7 95 -13 120 -12 35 0 26 3 -40 14 -47 7 -101 13
-120 12 -23 0 -8 -5 40 -14z"/>
<path d="M1675 1060 c-16 -7 -13 -9 17 -9 20 -1 40 4 43 9 7 12 -32 12 -60 0z"/>
<path d="M3855 1050 c28 -12 65 -12 65 0 0 6 -19 10 -42 9 -33 0 -38 -2 -23
-9z"/>
<path d="M3010 1041 c-20 -6 -22 -8 -8 -13 21 -9 127 2 134 13 6 10 -90 10
-126 0z"/>
<path d="M1070 1020 c-11 -7 -7 -10 18 -10 17 0 32 5 32 10 0 13 -30 13 -50 0z"/>
<path d="M808 948 c-13 -3 -52 -7 -88 -8 -53 -2 -58 -4 -30 -9 31 -6 25 -9
-65 -30 -139 -32 -161 -40 -95 -34 30 2 91 13 134 24 44 10 109 19 144 19 67
0 200 32 152 37 -71 7 -132 7 -152 1z"/>
<path d="M2190 839 c-39 -5 -35 -6 28 -7 39 -1 72 0 72 2 0 8 -57 11 -100 5z"/>
<path d="M1599 694 c-13 -7 -33 -14 -44 -14 -11 -1 -33 -7 -50 -15 l-30 -15
40 5 c127 14 145 18 145 30 0 19 -34 24 -61 9z"/>
<path d="M2645 680 c4 -6 11 -8 16 -5 14 9 11 15 -7 15 -8 0 -12 -5 -9 -10z"/>
</g>
</svg>