<?xml version="1.0" standalone="no"?>
<!DOCTYPE svg PUBLIC "-//W3C//DTD SVG 20010904//EN"
 "http://www.w3.org/TR/2001/REC-SVG-20010904/DTD/svg10.dtd">
<svg version="1.0" xmlns="http://www.w3.org/2000/svg"
 width="512.000000pt" height="512.000000pt" viewBox="0 0 512.000000 512.000000"
 preserveAspectRatio="xMidYMid meet">
<metadata>
Created by potrace 1.16, written by Peter Selinger 2001-2019
</metadata>
<g transform="translate(0.000000,512.000000) scale(0.100000,-0.100000)"
fill="#000000" stroke="none">
<path d="M2663 4753 c-13 -102 -38 -187 -53 -178 -5 3 -11 1 -14 -4 -3 -5 -16
-7 -28 -3 -15 4 -19 2 -13 -7 6 -10 2 -11 -15 -6 -17 5 -20 4 -15 -5 6 -10 1
-11 -21 -6 -17 4 -24 3 -16 -2 8 -6 -3 -9 -30 -9 -42 0 -104 -23 -82 -30 7 -2
4 -26 -7 -71 -10 -37 -18 -89 -18 -116 -1 -60 -33 -131 -64 -141 -15 -4 -18
-8 -9 -12 10 -4 6 -14 -15 -37 l-28 -31 27 24 c16 14 30 22 34 19 3 -3 -2 -29
-10 -58 -9 -29 -18 -107 -22 -174 -7 -139 -25 -183 -75 -193 -32 -6 -47 -22
-32 -32 6 -3 11 -37 12 -76 l2 -70 -117 -110 c-65 -60 -121 -110 -126 -110 -4
0 -8 -3 -8 -8 0 -16 -221 -255 -385 -417 l-116 -115 7 50 c12 88 43 198 74
260 16 33 74 128 129 210 166 247 276 393 481 640 l42 50 -42 -45 c-23 -25
-75 -83 -114 -130 -72 -84 -283 -334 -384 -453 -93 -110 -195 -247 -367 -492
-170 -243 -368 -516 -459 -635 -27 -36 -51 -67 -53 -69 -4 -6 -43 31 -43 41 0
5 6 6 13 2 6 -4 3 2 -7 14 -11 12 -23 22 -28 22 -12 0 10 -40 39 -72 36 -38
21 -53 -28 -27 -30 15 -39 24 -34 38 3 10 1 31 -5 46 -21 56 -42 181 -36 218
14 88 62 131 107 96 27 -21 54 -24 64 -9 4 7 -2 9 -18 5 -19 -5 -28 -2 -37 14
-10 19 -7 25 12 22 5 0 8 6 8 16 0 14 -2 14 -17 1 -32 -26 -69 -38 -82 -25
-15 15 -14 44 2 50 8 4 7 6 -3 6 -27 2 -87 -47 -106 -86 -29 -57 -26 -193 4
-253 21 -42 21 -43 2 -21 -11 13 -28 49 -37 80 -31 105 -16 207 40 271 16 19
13 17 -12 -5 -18 -16 -42 -48 -52 -70 -20 -43 -26 -35 -8 12 21 57 117 133
169 133 24 0 70 -38 71 -59 1 -9 4 -3 8 13 4 22 15 32 41 42 34 12 34 12 7 13
-17 1 -27 6 -25 14 1 6 -3 22 -10 34 -10 19 -10 24 7 32 10 6 21 7 25 4 3 -3
6 1 6 10 0 17 -46 54 -56 45 -3 -3 -21 -2 -40 2 -20 5 -33 6 -30 3 11 -11 -16
-43 -36 -43 -21 0 -21 0 2 26 21 21 22 27 10 35 -29 18 -44 6 -44 -36 -1 -39
-2 -39 -45 -47 -29 -5 -56 -18 -75 -37 -26 -25 -34 -28 -51 -18 -19 11 -19 11
4 17 14 3 26 11 29 18 6 19 -26 25 -44 8 -8 -9 -25 -21 -35 -27 -19 -10 -19
-12 -4 -36 16 -24 16 -24 -7 -21 -62 9 -98 -141 -64 -267 21 -79 40 -116 90
-177 l47 -58 -45 0 c-36 0 -46 4 -51 20 -13 42 -111 81 -129 51 -3 -4 6 -6 19
-3 38 7 86 -17 100 -52 12 -28 16 -30 63 -27 40 2 55 -2 71 -18 12 -12 30 -21
40 -21 11 0 23 -4 26 -10 3 -5 25 -7 50 -3 51 6 63 0 107 -61 15 -21 28 -34
28 -29 0 6 -16 32 -37 58 l-36 48 41 -23 c22 -12 43 -30 45 -39 4 -14 118
-155 266 -331 21 -25 74 -66 118 -92 79 -47 117 -78 94 -78 -6 0 -40 11 -77
25 -36 14 -74 25 -83 24 -9 0 40 -20 109 -43 69 -23 132 -46 140 -51 8 -5 42
-15 75 -21 55 -11 57 -12 20 -13 -51 -1 -224 41 -337 81 -85 31 -191 99 -264
170 -21 20 -34 26 -39 18 -19 -31 -85 75 -79 127 4 36 -18 56 -53 47 -13 -4
-23 2 -30 18 -12 23 -12 23 -12 1 -1 -12 -6 -25 -11 -28 -17 -10 -70 18 -70
37 0 36 -30 32 -43 -7 -6 -16 -37 15 -37 36 0 10 8 23 18 29 15 10 15 11 -3 5
-41 -13 -55 -9 -55 19 0 30 -16 42 -35 26 -11 -9 -22 -9 -49 1 -31 11 -38 11
-55 -5 -25 -23 -33 -58 -21 -90 7 -20 6 -26 -4 -26 -17 0 -26 22 -26 61 0 43
-36 40 -48 -4 -10 -34 1 -68 20 -64 6 1 15 -13 20 -31 6 -21 36 -60 79 -103
38 -38 59 -64 47 -58 -13 7 -56 44 -95 82 -40 39 -75 68 -79 65 -3 -3 -1 -21
4 -39 12 -47 80 -96 194 -141 93 -37 134 -40 167 -14 22 17 74 7 98 -20 12
-13 31 -24 42 -24 11 0 24 -7 29 -16 11 -20 32 -10 32 16 0 11 -16 28 -38 41
-85 50 -113 73 -146 123 -34 48 -45 89 -28 99 4 3 7 -7 8 -22 2 -46 57 -114
137 -169 42 -29 82 -52 89 -52 20 0 64 -49 78 -84 6 -16 8 -43 4 -60 -3 -18
-3 -27 2 -23 5 5 10 13 10 18 1 5 2 14 3 19 2 16 27 12 44 -8 22 -24 21 -51 0
-69 -13 -11 -10 -10 9 1 40 23 65 20 81 -10 9 -17 17 -23 21 -16 5 9 17 8 43
-3 19 -8 47 -15 62 -15 15 0 32 -5 38 -11 8 -8 17 -7 34 5 32 22 48 20 75 -9
26 -28 60 -32 90 -11 11 8 36 15 55 14 19 0 56 5 82 12 48 12 50 11 101 -24
78 -54 137 -107 130 -117 -3 -5 0 -8 7 -7 9 2 96 -177 98 -205 1 -4 -12 -1
-29 8 -16 8 -37 15 -47 14 -10 -1 -3 -6 15 -11 17 -6 32 -15 32 -19 0 -15 -47
-21 -68 -10 -14 8 -23 8 -27 1 -4 -6 -15 -8 -26 -5 -12 4 -21 1 -25 -9 -8 -22
-27 -20 -49 4 -10 12 -25 18 -32 16 -7 -3 -19 3 -25 14 -15 23 -36 26 -44 6
-10 -27 -36 -6 -29 23 4 20 0 32 -15 46 -15 14 -20 15 -20 4 -1 -9 -7 -6 -19
9 -23 26 -52 28 -86 6 -26 -17 -28 -14 -25 24 2 26 -10 28 -51 7 -16 -9 -34
-13 -40 -9 -12 7 -53 -11 -84 -37 -11 -9 -29 -19 -40 -21 -12 -2 -21 -13 -23
-28 -4 -28 -19 -50 -34 -50 -6 0 -8 7 -4 15 8 23 -2 18 -47 -20 -22 -19 -48
-35 -56 -35 -13 0 -14 2 -2 9 8 5 11 16 8 25 -6 14 -13 13 -63 -9 -67 -30 -77
-31 -44 -5 36 27 15 38 -28 14 -20 -12 -50 -24 -67 -28 l-30 -7 33 22 c39 25
37 34 -4 19 -16 -6 -68 -22 -116 -34 l-87 -22 81 -40 80 -39 15 22 c19 28 43
29 76 3 25 -20 25 -20 30 0 11 44 106 45 117 1 15 -63 63 -53 155 31 58 52 64
56 37 22 -18 -22 -50 -54 -72 -70 -44 -33 -49 -48 -20 -64 11 -6 20 -20 20
-30 0 -30 60 -26 171 10 135 44 232 109 269 178 12 23 19 30 20 19 1 -58 -76
-128 -224 -203 -85 -44 -98 -48 -117 -36 -11 7 -23 11 -26 8 -3 -2 28 -21 68
-42 l74 -37 115 7 c63 3 142 8 175 11 l60 5 -80 -20 c-51 -13 -100 -19 -135
-16 l-55 4 35 -15 c85 -37 252 -26 490 33 219 54 333 96 425 156 27 18 26 16
-5 -11 -77 -69 -287 -149 -452 -174 -42 -6 -75 -15 -72 -19 3 -4 15 -8 28 -8
12 0 65 -23 118 -50 95 -50 97 -50 142 -38 40 11 51 10 98 -9 76 -31 114 -34
135 -11 16 18 16 18 0 12 -9 -3 -17 -9 -17 -13 0 -9 -87 2 -96 12 -4 3 4 8 17
11 13 3 58 12 99 21 119 25 227 63 340 121 134 68 211 131 261 214 22 36 32
54 22 41 -59 -80 -210 -190 -342 -248 -76 -34 -72 -24 6 17 93 48 189 140 225
215 46 98 31 136 -18 45 -31 -58 -40 -59 -24 -3 16 52 10 107 -12 111 -14 3
-18 -3 -18 -23 0 -14 -14 -60 -31 -101 -53 -126 -156 -220 -340 -308 -81 -40
-221 -83 -269 -84 -8 0 -33 -4 -54 -8 -29 -5 -37 -4 -32 4 5 8 -1 12 -18 12
-48 0 -35 17 18 24 87 10 277 61 356 96 176 77 283 164 314 257 29 85 12 153
-38 153 -35 0 -47 -20 -31 -50 22 -39 17 -59 -6 -27 -37 49 -79 30 -79 -37 0
-84 -64 -165 -194 -243 -33 -21 -67 -38 -76 -39 -8 0 -39 -8 -69 -17 -88 -27
-82 -19 15 22 211 87 304 174 304 283 0 56 -11 73 -36 60 -22 -12 -54 6 -54
30 0 9 -13 21 -30 28 -25 10 -34 10 -53 -3 -22 -14 -26 -14 -45 5 -21 21 -42
17 -42 -8 0 -8 -10 -14 -25 -14 -34 0 -93 -39 -104 -70 -7 -19 -10 -20 -10 -7
-1 13 -20 -1 -68 -50 -99 -99 -274 -185 -465 -228 -107 -23 -119 -14 -17 13
177 48 380 145 477 228 30 25 40 40 33 47 -7 7 -15 6 -25 -2 -11 -9 -20 -10
-35 -1 -21 11 -62 9 -116 -5 -27 -8 -29 -7 -16 8 22 27 112 69 156 72 22 1 48
3 58 4 10 0 17 9 17 21 0 14 7 20 23 20 29 0 47 18 47 47 0 14 6 23 15 23 9 0
18 6 21 14 5 14 70 16 92 2 5 -3 12 1 15 8 4 9 -1 17 -11 19 -10 3 -5 5 11 6
15 0 27 5 27 10 0 11 -173 44 -352 67 -76 10 -136 20 -133 22 12 13 480 -55
522 -76 25 -13 37 -14 55 -5 35 18 141 33 152 22 21 -19 62 -10 74 17 9 19 17
24 32 19 16 -5 20 -2 20 14 0 22 14 28 25 11 3 -5 13 -10 21 -10 8 0 12 5 9
10 -14 23 11 7 36 -22 l27 -33 22 20 c18 16 23 17 30 5 6 -8 10 -21 10 -29 0
-8 7 -11 20 -8 11 3 23 1 26 -4 3 -5 20 -9 38 -7 36 2 56 -7 56 -26 0 -15 32
-20 250 -37 129 -9 178 -17 244 -36 13 -4 16 -1 11 7 -5 8 -1 18 10 27 11 7
13 13 7 13 -7 0 -12 7 -12 15 0 22 27 18 33 -5 3 -11 10 -20 16 -20 6 0 11 9
11 20 0 27 18 25 31 -3 10 -22 12 -22 122 -15 62 4 170 15 240 24 71 8 131 13
133 11 6 -6 -212 -34 -355 -47 -63 -5 -116 -11 -118 -13 -2 -3 13 -15 34 -28
27 -17 53 -23 91 -23 37 0 52 -4 52 -13 0 -22 26 -26 59 -9 16 9 42 16 57 16
15 0 36 8 46 17 16 14 23 15 38 5 26 -16 35 -15 21 2 -10 12 -8 17 9 26 29 16
65 9 64 -12 -1 -10 4 -14 12 -11 7 3 26 -5 41 -17 20 -16 36 -20 58 -16 25 5
36 1 59 -22 20 -22 34 -28 52 -24 18 3 30 -2 41 -18 10 -14 22 -20 34 -17 14
4 24 -3 33 -22 9 -16 34 -36 65 -49 50 -23 51 -23 138 -7 246 46 325 71 352
115 13 23 20 26 35 18 23 -13 53 13 73 65 8 20 19 37 25 37 5 0 6 9 3 20 -4
12 -2 27 5 34 8 11 7 18 -5 30 -22 22 -46 20 -52 -4 -6 -21 -28 -27 -38 -10
-10 15 -25 1 -41 -36 -11 -27 -51 -64 -55 -52 -1 2 -2 20 -3 41 -3 44 -5 46
-42 53 -16 3 -33 9 -38 15 -6 5 -17 9 -25 8 -10 0 -7 -4 7 -9 12 -5 22 -16 22
-25 0 -20 -28 -31 -43 -16 -19 19 -58 13 -64 -9 -4 -13 -14 -20 -29 -20 -22 0
-24 -3 -18 -27 4 -15 17 -36 28 -46 15 -13 17 -20 9 -23 -7 -3 -13 -13 -13
-21 0 -14 -3 -13 -24 1 -15 10 -27 12 -31 6 -11 -17 -37 -11 -61 16 -13 14
-24 29 -24 35 0 20 -25 8 -58 -28 -34 -37 -35 -38 -45 -16 -15 33 -36 36 -61
8 -29 -32 -44 -32 -52 0 -3 14 -20 31 -38 40 -29 15 -32 15 -45 -4 -13 -21
-48 -31 -36 -11 3 6 1 10 -4 10 -6 0 -11 -4 -11 -9 0 -13 -25 -20 -49 -14 -12
3 -18 10 -14 17 3 6 3 8 -2 4 -4 -4 -21 0 -37 8 l-29 15 22 37 c32 54 36 57
56 41 16 -12 17 -12 7 1 -15 20 -24 70 -12 70 4 0 13 11 19 24 9 18 22 25 57
30 28 4 50 2 59 -6 11 -9 17 -8 28 3 12 12 4 14 -57 14 -68 0 -72 -1 -89 -29
l-17 -29 -5 69 c-3 38 -8 81 -12 96 -7 25 -5 28 19 28 28 0 110 30 102 37 -3
3 -27 -2 -54 -11 -35 -12 -75 -16 -138 -13 -61 2 -82 6 -66 11 12 5 22 12 22
16 0 5 10 6 23 3 15 -3 12 1 -10 12 -17 9 -34 23 -36 30 -7 17 117 215 148
238 14 10 37 22 53 27 22 7 23 8 6 9 -28 1 -47 24 -83 101 -42 91 -65 215 -57
304 8 82 40 155 76 173 25 13 25 13 3 19 -16 4 -32 33 -67 117 -55 135 -73
199 -86 297 l-9 75 4 -75 c5 -82 27 -169 70 -270 14 -36 29 -71 32 -79 15 -34
-20 5 -48 55 -18 31 -35 51 -42 47 -6 -4 -8 0 -4 10 3 9 3 17 -2 19 -4 2 -17
32 -29 68 -11 36 -21 56 -21 45 -1 -17 28 -106 55 -170 7 -17 4 -17 -23 5 -17
14 -28 29 -25 34 3 5 0 6 -6 2 -17 -10 -108 88 -121 131 l-10 38 5 -40 c4 -34
17 -52 88 -120 46 -44 91 -92 100 -107 l17 -26 -53 15 c-29 9 -58 20 -65 25
-6 5 -13 5 -15 1 -1 -4 -31 -7 -65 -5 -61 4 -62 4 -77 43 -22 53 -37 169 -34
251 1 38 3 68 5 68 1 0 12 -17 23 -37 12 -21 18 -29 15 -18 -29 87 -28 117 5
155 15 17 36 24 97 31 43 5 92 11 108 14 17 3 25 2 19 -3 -6 -4 -7 -17 -3 -32
l7 -25 1 27 c1 15 9 31 18 36 13 8 11 11 -16 17 -25 5 -37 16 -50 44 -9 20
-23 37 -31 39 -10 3 -9 -2 4 -17 26 -29 15 -36 -17 -11 -29 23 -43 60 -56 145
-8 58 -9 59 -9 15 -1 -25 7 -70 18 -100 10 -30 17 -56 16 -58 -5 -4 -111 23
-130 34 -10 6 -24 33 -31 65 -9 35 -14 44 -14 27 -1 -15 4 -39 9 -54 9 -22 8
-25 -3 -16 -8 7 -17 9 -20 6 -6 -7 -12 12 -26 86 -5 25 -9 37 -10 27 -1 -16
-3 -16 -31 -2 -65 34 -27 53 132 65 175 14 171 14 158 -9 -12 -23 -11 -82 1
-126 5 -19 6 -7 2 36 -6 74 6 109 37 109 11 0 20 5 20 10 0 6 -13 10 -28 10
-15 0 -34 6 -41 13 -10 8 -12 8 -7 0 10 -19 -3 -21 -124 -24 -104 -2 -115 -1
-118 15 -3 15 1 17 30 12 27 -5 29 -4 11 4 -13 5 -23 12 -23 16 0 10 82 -3
122 -20 21 -9 50 -15 65 -15 16 1 21 3 11 6 -9 2 -19 12 -21 21 -4 15 -5 15
-6 0 -1 -17 -5 -16 -53 3 -29 11 -71 21 -93 22 -39 2 -40 3 -43 42 l-2 40 30
-35 c23 -26 28 -29 18 -10 -7 14 -21 35 -31 47 -19 21 -18 21 28 31 43 9 98 4
124 -12 6 -4 12 -26 12 -49 1 -26 3 -33 6 -18 4 19 7 21 15 10 7 -10 8 -9 2 6
-4 11 -13 52 -19 90 l-13 70 -1 -49 -1 -50 -25 34 c-14 19 -25 30 -25 25 0 -5
8 -17 17 -27 17 -19 15 -19 -37 1 -61 22 -119 29 -138 17 -16 -9 -15 -6 5 40
9 22 16 42 15 45 0 3 4 6 11 7 7 1 37 6 67 11 30 5 74 10 98 10 39 1 42 -1 32
-18 -5 -11 -10 -26 -10 -33 0 -7 8 3 18 22 10 19 16 38 13 42 -3 4 -42 3 -86
-1 -121 -12 -131 -4 -138 109 -3 54 -3 54 -5 -12 l-2 -66 -68 -16 c-38 -8 -93
-18 -124 -22 l-55 -6 -15 44 -16 44 45 3 c57 3 150 -16 182 -38 l26 -16 -25
35 c-21 29 -26 49 -28 122 -4 77 -2 88 17 107 12 12 20 21 19 21 -40 7 -107 5
-96 -2 8 -5 -10 -7 -47 -4 -42 2 -50 1 -25 -4 19 -4 28 -8 19 -9 -9 0 -31 -4
-49 -8 -23 -4 -31 -3 -26 5 3 6 2 13 -4 17 -11 7 -14 185 -3 185 4 0 30 -21
58 -47 l50 -48 -52 55 c-57 60 -70 96 -31 81 13 -4 26 -19 29 -32 7 -24 7 -24
8 3 1 22 -5 28 -33 38 -19 6 -37 19 -39 28 -4 13 -5 11 -6 -5 0 -12 -9 -24
-18 -26 -17 -4 -17 -5 0 -6 25 -2 21 -36 -5 -50 -22 -10 -22 -11 -2 -6 20 5
21 3 17 -42 -12 -108 -18 -127 -43 -140 l-25 -13 25 0 c42 0 9 -17 -67 -34
-40 -9 -81 -16 -92 -16 -31 0 -25 18 7 23 26 4 25 4 -3 3 -22 -1 -31 -6 -33
-21 -11 -67 -23 -78 -99 -90 -48 -8 -56 2 -67 77 -6 40 -4 47 11 51 17 4 17 5
0 6 -15 1 -17 7 -11 39 7 42 11 48 39 55 18 4 18 5 -2 6 -13 0 -23 7 -23 15 0
28 19 66 32 62 7 -1 10 -1 6 1 -14 8 -9 23 7 23 8 0 15 5 15 10 0 6 -8 10 -18
10 -44 0 -102 95 -102 166 0 40 2 45 18 40 14 -5 14 -4 -2 9 -17 13 -18 19 -7
55 6 22 16 40 21 40 6 0 10 5 10 11 0 6 -9 9 -20 6 -11 -3 -18 -1 -14 4 3 5
-2 9 -10 9 -20 0 -29 -17 -14 -24 7 -4 -3 -4 -22 -1 -27 4 -31 2 -20 -6 12 -8
9 -9 -13 -4 -20 4 -27 2 -22 -6 5 -8 1 -9 -14 -4 -13 4 -21 2 -21 -5 0 -6 -5
-8 -11 -4 -6 3 -15 1 -19 -7 -7 -10 -12 -10 -26 2 -10 8 -15 9 -11 3 4 -7 1
-14 -6 -17 -9 -3 -12 7 -11 37 1 22 2 65 3 95 1 52 2 54 17 35 15 -18 15 -17
1 7 -9 14 -17 39 -19 55 -2 16 -9 -17 -15 -73z m-13 -160 c-11 -17 -11 -17 -6
0 3 10 6 24 7 30 0 9 2 9 5 0 3 -7 0 -20 -6 -30z m233 -5 c-15 -42 -13 -131 2
-171 7 -16 4 -17 -21 -10 -32 9 -217 11 -249 3 -16 -4 -21 1 -26 30 l-6 35 -2
-41 c-1 -37 -4 -42 -46 -62 -54 -26 -74 -21 -67 16 5 26 5 26 -25 -8 -16 -19
-42 -53 -57 -75 l-28 -40 6 65 c7 86 33 170 51 170 16 0 175 44 300 84 187 59
187 59 168 4z m-15 -204 c32 -9 65 -23 75 -32 16 -14 16 -17 2 -24 -8 -5 -20
-6 -26 -2 -6 3 -14 2 -18 -3 -3 -6 -57 -20 -118 -30 -113 -20 -113 -20 -113 0
0 17 2 18 17 6 15 -13 15 -11 -1 13 -12 18 -14 28 -6 33 13 8 12 8 29 -20 11
-18 11 -18 5 5 -3 14 -13 32 -21 40 -9 8 -13 9 -9 3 4 -8 1 -13 -8 -13 -19 0
-21 26 -3 33 27 12 142 6 195 -9z m-248 -8 c0 -8 -7 -21 -15 -29 -11 -12 -12
-16 -2 -20 9 -3 8 -13 -6 -41 -9 -20 -22 -34 -27 -31 -6 3 -10 2 -10 -3 0 -6
-10 -8 -22 -4 -16 4 -19 2 -13 -8 6 -10 2 -11 -19 -6 -20 5 -26 3 -21 -5 5 -8
-2 -9 -26 -4 -27 5 -31 4 -19 -5 12 -9 6 -10 -25 -6 -25 3 -33 2 -20 -3 16 -7
14 -9 -14 -14 -58 -12 -66 -8 -33 16 16 12 61 45 98 74 55 41 157 103 171 103
2 0 3 -6 3 -14z m-140 -30 c0 -2 -7 -9 -15 -16 -13 -11 -14 -10 -9 4 5 14 24
23 24 12z m163 -78 c-2 -5 -10 -8 -16 -8 -8 0 -7 3 2 9 10 7 10 10 1 13 -9 3
-10 12 -4 28 l8 25 6 -30 c4 -16 5 -33 3 -37z m312 15 c-44 -103 -46 -226 -6
-341 24 -69 26 -82 13 -76 -10 3 -55 16 -101 28 -83 21 -84 22 -98 61 -8 22
-18 58 -23 80 -6 32 -8 35 -9 12 -1 -15 8 -52 18 -82 l19 -54 -89 0 c-49 0
-105 -3 -124 -7 -32 -6 -34 -4 -39 28 -3 18 -8 51 -10 73 -2 22 -2 6 -1 -35
l3 -76 -45 -18 c-38 -16 -46 -17 -54 -5 -5 8 -9 18 -9 23 0 5 -3 7 -6 4 -3 -4
-1 -16 5 -27 10 -18 6 -24 -44 -57 -30 -20 -59 -34 -63 -30 -4 4 -8 62 -10
129 -2 105 1 131 20 186 l23 65 105 28 c58 15 112 27 120 25 8 -1 20 2 27 6
11 7 185 44 213 45 8 1 40 7 70 15 80 21 104 21 95 0z m589 -164 c-9 -16 -5
-179 6 -198 7 -15 0 -15 -87 -1 l-95 14 4 28 c3 15 1 25 -4 22 -4 -3 -8 -18
-8 -35 0 -24 -4 -29 -24 -29 -30 0 -42 16 -26 35 10 12 9 15 -5 15 -14 0 -16
-6 -12 -28 5 -26 2 -29 -69 -61 l-75 -34 -25 24 c-15 13 -30 34 -34 45 -10 26
3 92 22 111 8 7 109 33 224 57 115 25 210 45 212 45 2 1 0 -4 -4 -10z m-204
-9 c0 -5 -5 -10 -11 -10 -5 0 -7 5 -4 10 3 6 8 10 11 10 2 0 4 -4 4 -10z
m-264 -148 c-3 -5 -6 -29 -7 -55 l-3 -47 -37 0 c-35 0 -38 2 -53 47 -9 26 -16
48 -16 50 0 9 48 1 59 -9 10 -11 11 -10 6 5 -6 14 -2 17 25 17 17 0 29 -4 26
-8z m24 -82 c9 -16 8 -20 -5 -20 -8 0 -15 9 -15 20 0 11 2 20 5 20 2 0 9 -9
15 -20z m-235 -7 c16 -9 14 -12 -16 -21 -32 -9 -95 -25 -147 -36 -18 -3 -25 1
-33 20 -20 55 -17 57 84 52 52 -3 102 -10 112 -15z m419 2 c-16 -13 -16 -14
-1 -9 9 3 17 2 17 -4 0 -23 -13 -42 -29 -42 -13 0 -13 -2 -2 -9 15 -10 -57
-28 -139 -36 l-45 -5 45 14 c33 10 38 14 20 15 l-24 1 24 17 c71 50 190 101
134 58z m72 -10 c6 -23 0 -45 -10 -34 -10 12 -15 59 -6 59 5 0 12 -11 16 -25z
m-816 0 c-7 -8 -18 -15 -24 -15 -6 0 -45 -16 -86 -35 -41 -19 -66 -28 -55 -19
22 18 155 84 168 84 5 0 4 -7 -3 -15z m23 -23 c-3 -12 -10 -22 -15 -22 -5 0
-7 3 -5 8 2 4 7 16 11 26 9 25 17 16 9 -12z m-33 -7 c-6 -8 -9 -18 -6 -23 3
-6 -6 -17 -19 -26 -14 -9 -23 -20 -21 -25 3 -4 0 -8 -7 -8 -16 -1 -226 -42
-252 -50 -16 -4 -18 -3 -8 8 7 7 21 13 32 14 32 2 101 37 94 48 -3 6 -1 7 5 3
6 -4 37 5 69 19 69 32 117 53 122 54 2 1 -2 -6 -9 -14z m57 -7 c-3 -8 -6 -5
-6 6 -1 11 2 17 5 13 3 -3 4 -12 1 -19z m361 17 c-6 -7 -167 -35 -188 -34 -24
2 122 37 159 38 19 0 32 -1 29 -4z m379 -17 c-3 -8 -6 -5 -6 6 -1 11 2 17 5
13 3 -3 4 -12 1 -19z m-674 -2 c4 -10 1 -13 -9 -9 -15 6 -19 23 -5 23 5 0 11
-7 14 -14z m447 -11 c-40 -30 -41 -30 -33 -7 6 14 4 15 -9 5 -8 -7 -17 -11
-20 -8 -2 3 -5 -1 -6 -7 0 -7 -12 -41 -27 -76 -77 -184 -70 -426 19 -680 9
-24 11 -40 6 -37 -6 3 -7 -1 -4 -9 3 -9 11 -13 17 -9 6 3 7 1 3 -5 -5 -8 -16
-7 -40 5 -31 14 -36 24 -54 92 -12 42 -24 90 -28 106 -3 17 -8 25 -10 20 -2
-6 7 -52 20 -103 13 -50 21 -92 17 -92 -14 0 -197 63 -208 72 -16 13 -53 125
-68 211 -7 40 -14 59 -14 44 -1 -39 28 -162 50 -215 l19 -44 -22 6 c-13 4 -55
9 -95 13 -53 4 -74 10 -79 22 -3 9 -10 68 -14 131 l-8 115 3 -115 c1 -63 6
-123 10 -132 6 -16 0 -18 -53 -18 -38 0 -64 5 -69 13 -4 6 -9 59 -10 116 -1
57 -5 106 -8 109 -3 3 -5 0 -5 -6 0 -12 -59 -47 -67 -39 -8 9 16 150 37 219
11 37 41 97 65 134 25 37 45 70 45 74 0 4 44 15 98 25 53 9 129 23 167 30 125
25 335 56 343 51 4 -2 14 -1 22 5 33 20 41 7 10 -16z m267 -1 c-3 -3 -12 -4
-19 -1 -8 3 -5 6 6 6 11 1 17 -2 13 -5z m237 -10 c-10 -8 -13 -12 -5 -8 16 8
15 0 -13 -101 -33 -120 -16 -328 34 -412 l19 -32 -49 27 c-49 26 -68 56 -83
127 -4 19 -5 19 -6 -1 0 -12 6 -40 14 -64 11 -31 11 -40 2 -36 -6 3 -31 10
-54 17 -51 14 -57 20 -76 84 -9 28 -16 43 -16 34 -1 -9 6 -35 14 -58 14 -42
14 -42 -8 -35 -12 4 -53 7 -90 7 -66 0 -68 1 -84 31 -9 17 -20 60 -23 96 l-7
65 -2 -51 c0 -28 6 -71 14 -94 19 -53 19 -50 -3 -50 -26 0 -81 60 -92 101 -6
18 -10 63 -10 99 0 36 -4 71 -9 79 -5 8 -7 -11 -4 -50 3 -35 1 -75 -4 -88 -9
-23 -10 -22 -28 20 -19 46 -30 169 -16 169 5 0 12 15 16 33 4 18 9 26 12 18 4
-9 7 -10 12 -2 8 13 439 86 530 90 33 1 34 0 15 -15z m-1047 -9 c0 -8 -2 -13
-5 -10 -2 2 -11 -2 -19 -10 -8 -8 -20 -15 -26 -15 -8 1 40 49 49 50 0 0 1 -7
1 -15z m-277 -30 c0 -8 -4 -15 -10 -15 -5 0 -7 7 -4 15 4 8 8 15 10 15 2 0 4
-7 4 -15z m150 -55 c-8 -5 -11 -10 -6 -10 5 0 2 -8 -6 -17 -8 -10 -28 -40 -43
-68 -16 -27 -40 -63 -54 -79 -18 -21 -21 -27 -9 -23 20 7 18 -2 -35 -112 -19
-40 -33 -79 -31 -85 5 -13 -45 -197 -83 -304 -29 -81 -28 -80 -238 -193 -230
-122 -562 -352 -717 -495 -48 -45 -62 -51 -73 -34 -10 17 -78 11 -141 -11 -32
-11 -71 -22 -85 -23 -26 -2 -113 -48 -124 -66 -3 -6 -11 -10 -16 -10 -5 0 18
33 51 73 60 71 176 234 463 647 83 118 196 274 253 345 183 230 208 253 98 88
-36 -54 -89 -136 -117 -183 -117 -196 -311 -462 -493 -675 -56 -66 -101 -123
-101 -127 1 -3 -9 -19 -23 -34 -23 -26 -21 -25 18 5 23 18 40 36 37 40 -8 13
25 50 58 67 29 14 28 12 -13 -26 -87 -80 -19 -34 128 86 104 86 236 213 447
430 484 497 590 600 723 694 66 47 118 87 116 89 -2 2 -51 -28 -109 -67 -59
-40 -110 -72 -116 -72 -5 0 -9 27 -9 60 0 59 1 60 28 61 15 0 68 9 117 19 109
22 126 24 105 10z m1180 -90 c0 -11 -3 -20 -7 -20 -5 0 -8 -24 -9 -53 0 -50 0
-50 9 -17 17 66 28 78 21 25 -5 -46 -16 -64 -36 -65 -9 0 -10 95 -2 128 8 27
24 29 24 2z m-559 -203 c4 -28 10 -64 14 -79 6 -23 3 -29 -18 -39 -21 -9 -29
-9 -41 4 -18 18 -21 63 -6 72 6 4 10 12 9 18 -3 25 1 38 11 32 6 -4 10 7 10
26 0 47 12 27 21 -34z m99 -81 c0 -5 -15 -6 -32 -2 -24 4 -29 3 -18 -4 13 -8
13 -10 -2 -10 -18 0 -23 11 -34 80 l-7 45 46 -50 c26 -28 46 -54 47 -59z m46
-34 c-4 -12 -19 -22 -38 -26 -40 -8 -33 -15 9 -9 23 4 33 12 37 29 4 13 11 24
16 24 15 0 12 -23 -5 -48 -15 -20 -24 -22 -113 -21 -91 1 -95 1 -69 15 15 8
32 12 37 9 6 -3 10 0 10 8 0 10 21 20 58 29 31 8 59 14 60 12 2 -1 1 -11 -2
-22z m58 -10 c-4 -18 -13 -32 -21 -32 -8 0 -12 4 -9 9 3 4 10 21 16 36 14 36
22 28 14 -13z m63 -9 c-3 -10 -5 -4 -5 12 0 17 2 24 5 18 2 -7 2 -21 0 -30z
m83 28 c0 -4 10 -6 23 -4 12 2 45 -8 72 -22 28 -14 41 -23 30 -20 -19 5 -19 4
-2 -9 9 -7 17 -16 17 -20 0 -10 -60 -7 -81 4 -13 7 -19 7 -19 0 0 -6 -27 -10
-65 -10 -36 0 -65 4 -65 10 0 6 24 9 55 9 64 -2 71 2 55 28 -10 16 -11 16 -6
1 4 -14 0 -17 -22 -16 -34 2 -52 15 -52 39 0 14 7 19 30 19 17 0 30 -4 30 -9z
m-1113 -123 c-5 -83 -53 -326 -91 -463 l-14 -50 -3 85 -2 85 -9 -105 c-12
-150 -12 -281 2 -385 6 -49 10 -136 8 -192 -1 -59 1 -106 7 -112 7 -6 11 27
13 97 1 58 4 107 5 107 2 2 367 -39 447 -49 25 -4 124 -11 220 -16 96 -5 177
-10 180 -10 3 0 -6 -9 -20 -20 -15 -12 -18 -18 -7 -14 22 8 22 5 -8 -53 -14
-26 -29 -70 -34 -98 -10 -52 0 -172 18 -234 l10 -34 -24 23 c-13 12 -42 50
-65 83 -22 33 -40 56 -40 51 0 -5 6 -18 13 -29 56 -82 58 -80 -36 -33 l-87 43
-19 60 c-11 33 -20 53 -20 44 -1 -9 6 -35 14 -58 13 -39 13 -42 -3 -37 -9 3
-47 13 -85 22 l-67 16 -14 52 c-8 28 -17 60 -19 71 -4 19 -5 19 -6 -1 0 -11 6
-43 14 -69 8 -27 13 -50 12 -51 -1 -1 -40 2 -87 8 -47 6 -92 10 -101 10 -13 0
-18 13 -23 62 -4 34 -12 68 -17 76 -8 11 -9 9 -5 -10 3 -14 9 -49 12 -77 l7
-53 -30 0 c-17 0 -57 -3 -89 -6 -56 -6 -61 -5 -72 17 l-11 24 5 -26 c5 -25 3
-26 -48 -32 -95 -12 -99 -11 -87 20 6 15 13 65 16 111 l6 84 41 -6 c22 -4 46
-12 53 -18 8 -6 16 -8 19 -5 8 8 -29 26 -73 35 -37 8 -38 10 -50 66 -13 68
-26 85 -50 70 -9 -6 -18 -17 -20 -25 -3 -8 0 -7 7 4 13 21 36 22 43 2 13 -33
18 -164 8 -228 -5 -37 -20 -90 -33 -117 l-24 -51 -25 19 c-29 23 -85 53 -96
51 -4 -1 -46 -1 -93 0 l-85 2 45 24 c25 13 71 29 103 36 32 6 68 20 81 30 26
20 55 110 57 174 1 22 7 78 15 125 7 47 17 142 22 212 9 127 9 128 66 242 61
125 113 196 127 174 6 -9 9 -7 9 7 0 23 83 335 89 335 2 0 1 -42 -2 -92z m991
45 c-15 -2 -42 -2 -60 0 -18 2 -6 4 27 4 33 0 48 -2 33 -4z m-163 -37 c17 1
149 5 295 9 146 4 277 8 292 9 14 0 24 4 21 8 -12 21 201 -28 219 -49 9 -12 4
-14 -33 -13 -24 1 -63 -2 -86 -6 -40 -6 -42 -5 -57 27 -13 30 -14 30 -10 7 4
-18 2 -28 -6 -28 -6 0 -9 3 -7 8 3 4 -9 7 -26 7 -26 0 -31 4 -29 19 4 25 -15
12 -32 -23 -23 -43 -39 -196 -32 -290 6 -81 45 -220 69 -250 10 -12 9 -13 -10
-2 -13 6 -33 25 -45 41 -11 16 -25 27 -29 24 -8 -5 -138 43 -153 57 -5 5 -20
39 -32 76 -13 37 -24 61 -24 52 0 -9 9 -42 20 -73 18 -55 19 -57 1 -51 -10 3
-50 12 -90 19 -39 8 -78 19 -86 26 -25 21 -75 132 -76 169 -1 20 -3 28 -6 18
-8 -32 6 -82 40 -139 l33 -55 -60 -1 c-34 -1 -77 -4 -96 -7 -34 -6 -36 -5 -38
25 -3 34 37 80 69 80 27 0 24 34 -3 53 -29 18 -66 80 -45 71 12 -4 14 4 10 43
l-4 48 20 -40 c21 -42 29 -43 10 -1 -9 18 -9 33 0 58 10 30 9 31 -4 14 -14
-18 -15 -18 -25 8 -5 15 -10 42 -10 59 1 30 2 30 13 12 8 -14 22 -20 42 -19z
m585 -47 c0 -5 -9 -9 -20 -9 -13 0 -18 5 -14 14 6 15 34 11 34 -5z m60 -33 c0
-2 -10 -25 -21 -51 l-21 -48 -14 32 c-17 41 -18 58 -1 64 14 6 57 9 57 3z
m-1344 -73 c-16 -46 -38 -53 -54 -18 -20 43 -13 51 45 54 21 1 21 -1 9 -36z
m44 12 c0 -15 -8 -29 -22 -36 -19 -10 -20 -9 -13 7 4 11 10 27 12 37 8 25 23
21 23 -8z m21 -11 c-5 -16 -10 -21 -10 -12 -1 18 10 51 15 45 2 -1 -1 -16 -5
-33z m120 19 c1 -17 2 -17 6 0 8 30 30 18 41 -23 8 -33 7 -40 -4 -40 -8 0 -19
10 -24 23 -6 15 -9 17 -9 5 -1 -11 -7 -15 -21 -11 -11 3 -20 8 -20 12 0 3 -3
16 -6 29 -5 18 -2 22 15 22 13 0 21 -7 22 -17z m117 -3 c7 0 17 -10 22 -22 5
-13 9 -17 9 -10 1 6 10 12 20 12 11 0 26 -6 33 -12 7 -7 24 -13 38 -13 16 0
29 -8 36 -23 8 -17 13 -20 17 -10 4 10 8 10 16 -2 14 -19 14 -40 1 -40 -5 0
-10 6 -10 13 0 8 -3 9 -8 1 -14 -20 -55 -24 -69 -6 -12 16 -13 16 -7 -1 5 -15
2 -17 -20 -13 -14 3 -26 0 -26 -5 0 -11 -70 -12 -86 -1 -6 4 -11 23 -12 42 0
19 -3 50 -7 69 -7 32 -6 34 16 28 13 -4 30 -7 37 -7z m-368 -31 c12 -27 11
-33 -3 -41 -19 -10 -23 -53 -6 -64 8 -4 7 -9 -2 -16 -10 -7 -7 -7 8 -3 12 3
35 -1 51 -9 16 -8 32 -13 36 -11 3 3 3 1 -1 -4 -5 -5 -47 -11 -95 -13 -101 -5
-95 -13 -72 100 19 92 19 92 48 92 17 0 27 -9 36 -31z m125 -48 c-5 -17 0 -20
32 -24 36 -3 36 -4 -8 -5 -42 -2 -46 0 -44 21 3 27 3 27 16 27 6 0 8 -8 4 -19z
m45 4 c0 -8 -7 -15 -15 -15 -9 0 -12 6 -9 15 4 8 10 15 15 15 5 0 9 -7 9 -15z
m116 -6 c3 -6 0 -15 -7 -20 -21 -13 -26 -11 -32 11 -4 15 0 20 13 20 11 0 22
-5 26 -11z m-229 -6 c-4 -3 1 -12 11 -19 15 -12 12 -13 -25 -14 -46 0 -63 13
-36 29 20 11 60 15 50 4z m603 -18 c14 -8 36 -14 49 -15 13 0 22 -2 19 -5 -6
-6 -301 -35 -343 -34 -37 2 154 27 215 29 25 1 39 4 33 7 -14 5 -18 33 -5 33
4 -1 18 -7 32 -15z m-353 -11 c-3 -3 -12 -4 -19 -1 -8 3 -5 6 6 6 11 1 17 -2
13 -5z m13 -24 c0 -5 -4 -10 -10 -10 -5 0 -10 5 -10 10 0 6 5 10 10 10 6 0 10
-4 10 -10z m-27 -27 c-18 -2 -48 -2 -65 0 -18 2 -4 4 32 4 36 0 50 -2 33 -4z
m388 -29 c-66 -57 -94 -121 -99 -229 -4 -107 11 -192 61 -323 19 -51 31 -92
28 -92 -14 0 -110 106 -127 140 -9 19 -25 60 -35 90 -10 30 -18 46 -18 35 0
-11 15 -58 34 -105 19 -46 33 -86 31 -87 -2 -2 -27 7 -57 20 -30 13 -76 30
-104 37 -67 18 -72 23 -94 94 -11 33 -20 54 -20 45 -1 -8 6 -37 15 -63 9 -26
15 -48 13 -50 -2 -2 -57 -1 -122 2 -117 4 -119 5 -129 31 -6 14 -14 80 -18
146 l-8 120 3 -125 c2 -69 6 -135 10 -147 7 -22 5 -23 -43 -22 l-51 2 -11 54
c-7 30 -9 65 -6 77 3 12 1 35 -3 51 -16 51 -13 -83 2 -142 l13 -51 -53 -15
-53 -14 0 146 c0 119 5 163 24 241 13 52 29 97 37 101 17 9 208 26 444 40 99
6 212 14 250 18 39 5 83 9 99 10 l30 1 -43 -36z m-1048 -86 c-31 -46 -72 -102
-92 -124 -20 -23 -72 -91 -116 -152 -44 -61 -88 -114 -98 -118 -12 -4 -26 2
-39 16 l-20 22 -51 -58 c-29 -32 -64 -74 -78 -94 -75 -103 -238 -174 -438
-189 -98 -8 -117 -6 -91 9 43 25 48 38 5 14 -72 -39 -86 -50 -77 -59 4 -4 -26
9 -67 30 -50 25 -70 40 -63 47 7 7 16 6 30 -1 34 -18 74 -14 166 18 102 36
114 44 245 158 172 151 405 321 581 423 67 39 251 139 257 140 1 0 -23 -37
-54 -82z m-1245 30 c18 -18 15 -24 -17 -38 -36 -14 -51 -7 -44 20 4 15 11 19
25 14 14 -4 18 -2 14 5 -10 15 7 14 22 -1z m2401 -64 c-14 -38 -4 -41 11 -4
15 37 28 38 36 5 8 -32 8 -32 -39 -38 -21 -3 -45 -13 -53 -23 -9 -11 -12 -13
-8 -5 5 10 3 12 -5 7 -7 -5 -10 -14 -7 -22 7 -19 -3 -44 -19 -44 -12 0 -12 56
1 118 5 26 23 30 25 5 1 -17 2 -17 6 0 2 9 9 17 14 17 5 0 9 -8 10 -17 0 -14
2 -15 6 -3 5 13 22 29 30 30 1 0 -2 -12 -8 -26z m-93 -1 c-2 -10 -8 -42 -11
-71 -7 -50 -9 -53 -33 -50 -24 3 -28 9 -34 53 -8 56 0 72 40 78 15 2 31 5 35
6 5 0 6 -7 3 -16z m282 -22 c3 -24 0 -32 -10 -29 -7 3 -14 19 -16 37 -3 24 0
32 10 29 7 -3 14 -19 16 -37z m64 19 c26 -8 38 -17 40 -33 2 -15 14 -26 38
-33 19 -6 36 -19 38 -28 3 -14 -7 -16 -67 -16 -54 0 -71 3 -71 14 0 7 -7 27
-15 42 -16 31 -20 64 -7 64 4 0 24 -5 44 -10z m120 -38 c16 -16 -7 -29 -39
-20 -46 12 -46 43 -1 34 18 -3 36 -10 40 -14z m-2832 -2 c11 -8 7 -9 -15 -4
-37 8 -45 14 -19 14 10 0 26 -5 34 -10z m3349 -22 c6 -18 7 -28 2 -23 -10 12
-25 55 -18 55 3 0 10 -15 16 -32z m-2058 -4 c22 -27 10 -279 -18 -367 -20 -63
-98 -148 -161 -175 -27 -12 -107 -33 -178 -47 -139 -27 -237 -58 -269 -84 -13
-10 -11 -5 5 13 14 15 54 49 90 74 118 84 152 116 225 212 105 140 225 308
225 316 0 11 50 74 59 74 5 0 15 -7 22 -16z m1583 10 c24 -9 20 -33 -4 -27
-11 3 -20 12 -20 19 0 16 2 16 24 8z m-374 -19 c0 -16 -9 -19 -36 -8 -16 6
-16 7 2 14 29 11 34 10 34 -6z m60 -17 c0 -5 -6 -8 -14 -8 -9 0 -12 7 -9 21 4
16 8 17 14 7 5 -7 9 -16 9 -20z m60 0 c0 -5 -4 -8 -10 -8 -5 0 -10 10 -10 23
0 18 2 19 10 7 5 -8 10 -18 10 -22z m46 7 c19 -14 19 -14 -2 -15 -12 0 -24 7
-28 15 -7 19 5 19 30 0z m-215 -16 c27 -14 16 -27 -21 -21 -29 4 -37 12 -23
25 9 10 21 9 44 -4z m429 -4 c27 -15 20 -19 -17 -9 -13 4 -23 10 -23 15 0 12
11 11 40 -6z m241 -37 l2 -23 4 23 c7 33 27 27 58 -19 l27 -42 -38 8 c-22 4
-45 12 -53 18 -7 6 -22 16 -34 22 -34 17 -33 35 2 35 25 0 31 -4 32 -22z m182
1 c44 -11 92 -27 106 -34 26 -14 26 -14 3 -15 -13 0 -33 5 -44 11 -15 8 -19 8
-13 -1 5 -9 -11 -11 -65 -8 -68 3 -74 5 -98 36 l-25 32 28 0 c14 0 63 -9 108
-21z m-420 4 c-40 -2 -106 -2 -145 0 -40 1 -8 3 72 3 80 0 112 -2 73 -3z
m-3146 -50 c-17 -38 -22 -66 -22 -138 0 -79 4 -97 28 -145 15 -30 20 -46 11
-35 -64 78 -78 209 -32 308 15 31 29 57 32 57 3 0 -5 -21 -17 -47z m2613 11
c0 -29 47 -174 61 -189 5 -5 -2 23 -16 62 -13 39 -27 89 -31 112 l-7 41 39 0
c22 0 129 -5 239 -10 110 -5 228 -10 263 -11 34 -1 62 -3 62 -5 0 -1 -9 -18
-20 -37 -47 -79 -61 -245 -35 -392 19 -103 19 -102 -6 -79 -24 22 -53 76 -81
149 -10 28 -16 37 -13 20 3 -16 20 -61 39 -98 18 -37 28 -66 21 -64 -6 3 -39
13 -73 22 -58 17 -63 20 -74 56 -6 22 -13 37 -16 35 -2 -3 1 -19 7 -36 l10
-31 -32 6 c-17 4 -43 14 -56 22 -13 8 -20 10 -17 4 8 -12 -19 -14 -76 -5 -36
6 -38 9 -38 44 0 21 -6 56 -14 78 -13 37 -13 42 3 56 16 15 20 11 56 -59 44
-87 77 -123 40 -44 -16 34 -25 74 -27 109 l-1 55 -6 -54 -6 -55 -20 55 c-15
40 -21 48 -23 31 -4 -26 -33 -45 -56 -36 -9 3 -16 2 -16 -3 0 -12 -69 -37 -78
-28 -6 5 -12 137 -12 262 0 24 -4 31 -14 27 -8 -3 -17 -1 -21 5 -4 7 4 11 19
11 21 0 26 -5 26 -26z m683 -19 l18 -25 -41 0 c-40 0 -45 5 -34 34 9 23 36 19
57 -9z m72 6 c7 -12 -31 -25 -45 -16 -5 3 -10 10 -10 16 0 12 47 12 55 0z
m-3448 -43 c-3 -8 -6 -5 -6 6 -1 11 2 17 5 13 3 -3 4 -12 1 -19z m3750 -35
c-19 -41 -22 -65 -22 -163 1 -96 5 -127 26 -190 14 -42 24 -81 21 -88 -5 -16
-70 18 -125 65 l-42 37 40 -43 c22 -23 75 -63 119 -89 l78 -47 -62 -3 c-35 -2
-68 2 -73 7 -6 6 -18 11 -27 10 -10 0 -9 -3 5 -9 30 -13 -67 -13 -101 0 -40
15 -24 21 29 11 26 -4 44 -5 41 0 -2 5 -27 11 -55 15 -76 10 -84 28 -84 189 0
136 16 235 44 269 9 11 10 16 4 12 -8 -4 -13 -2 -13 6 0 42 32 54 152 57 l67
1 -22 -47z m-198 20 c-7 -10 -21 -27 -31 -38 -27 -32 -58 -132 -65 -211 -5
-59 -2 -78 17 -120 22 -50 41 -104 36 -104 -14 0 -98 44 -102 53 -2 7 -11 41
-19 77 -15 65 -15 65 -10 12 3 -29 8 -59 11 -67 5 -12 1 -13 -25 -4 -40 14
-46 37 -46 167 1 81 -2 102 -13 102 -10 0 -12 7 -8 23 3 12 9 41 12 65 6 40 8
42 43 43 20 0 54 4 76 8 22 5 62 9 89 10 45 1 47 0 35 -16z m-3562 -80 c-3
-10 -5 -2 -5 17 0 19 2 27 5 18 2 -10 2 -26 0 -35z m148 -108 c4 -13 1 -12 -9
5 -9 14 -15 46 -14 75 l1 50 7 -55 c4 -30 11 -64 15 -75z m1872 35 c-3 -11 -1
-18 4 -14 5 3 9 12 9 20 0 8 10 14 25 14 25 0 25 -1 10 -30 -15 -29 -17 -29
-83 -26 -37 2 -78 4 -91 5 -37 2 -14 18 49 35 75 20 83 20 77 -4z m117 -15
c-4 -17 -10 -23 -16 -17 -6 6 -6 18 2 32 6 12 14 20 16 17 3 -3 2 -17 -2 -32z
m130 -35 c-8 -7 -24 24 -23 45 0 15 4 13 14 -10 7 -16 11 -32 9 -35z m101 45
c33 -9 71 -18 85 -21 50 -10 109 -45 103 -60 -7 -20 -21 -17 -28 6 -4 11 -11
18 -16 15 -5 -4 -24 4 -42 16 l-32 22 35 -38 c19 -21 29 -35 23 -31 -7 4 -36
7 -65 8 -69 0 -94 11 -118 50 -33 54 -32 55 55 33z m-69 -52 c-4 -4 -11 -1
-16 7 -16 25 -11 35 7 17 9 -9 13 -20 9 -24z m-301 1 c41 -5 190 -22 250 -28
28 -3 91 -10 140 -16 50 -5 122 -10 160 -11 39 0 81 -5 95 -10 33 -11 -175 -1
-348 16 -241 25 -417 48 -427 58 -9 8 20 6 130 -9z m-1199 -5 c16 -26 -34 -51
-147 -74 -63 -12 -131 -30 -153 -39 -21 -9 -43 -16 -49 -16 -24 0 42 36 158
87 117 51 177 64 191 42z m1964 1 c-33 -23 -50 -30 -50 -22 0 5 10 14 23 20
28 14 47 15 27 2z m50 6 c0 -2 7 -20 15 -40 15 -35 15 -36 -7 -36 -13 1 -34
10 -47 20 l-23 20 23 20 c22 18 39 25 39 16z m30 -131 c0 -19 -8 -51 -17 -71
l-18 -36 -54 6 c-30 4 -57 8 -59 10 -6 7 25 60 44 77 24 21 75 48 92 49 7 0
12 -13 12 -35z m-2675 -23 c-2 -3 -12 -1 -22 2 -15 6 -15 9 -3 16 13 8 35 -8
25 -18z m2745 -41 c0 -13 -6 -19 -19 -18 -12 1 -17 7 -13 19 6 24 32 23 32 -1z
m37 -23 c-3 -7 -5 -2 -5 12 0 14 2 19 5 13 2 -7 2 -19 0 -25z m83 23 c13 -1
40 -51 40 -74 0 -4 -13 -7 -30 -7 -16 0 -30 5 -30 11 0 6 -7 9 -15 5 -8 -3
-14 -2 -13 2 1 4 -4 20 -10 35 -16 37 -16 36 16 32 15 -2 34 -4 42 -4z m-1445
-51 c-14 -27 -58 -50 -71 -37 -4 4 74 67 83 67 2 0 -3 -13 -12 -30z m1510 14
c-18 -14 -18 -14 10 -9 19 3 45 -2 70 -14 l40 -19 -67 -1 c-38 -1 -68 2 -68 7
0 4 -3 17 -6 30 -5 18 -2 22 17 22 23 -1 24 -1 4 -16z m265 -1 c0 -15 -2 -16
-10 -3 -6 10 -10 11 -10 3 0 -7 -12 -13 -26 -13 -22 0 -25 2 -14 15 18 21 60
20 60 -2z m-2681 -27 c52 -25 67 -36 58 -45 -16 -16 -23 -15 -99 20 -70 33
-81 44 -50 52 9 3 18 5 19 6 1 0 33 -14 72 -33z m161 29 c0 -3 -18 -17 -40
-31 l-39 -26 -63 30 -63 30 103 1 c56 1 102 -1 102 -4z m146 -54 l-59 -59 -55
24 c-31 13 -60 23 -66 21 -5 -2 16 -14 47 -26 58 -24 69 -39 43 -60 -11 -9
-28 -6 -78 14 -34 15 -66 30 -71 34 -4 4 22 27 58 50 58 38 74 44 143 51 42 4
81 8 87 9 5 0 -17 -26 -49 -58z m1892 4 c62 -8 177 -17 255 -21 127 -6 138 -8
107 -19 -19 -6 -29 -14 -22 -16 9 -3 7 -14 -8 -44 -25 -50 -25 -91 0 -150 l20
-46 -21 6 c-12 4 -55 29 -95 55 -69 45 -153 79 -231 95 -25 5 -33 12 -34 28
-2 22 -2 22 -6 0 -6 -29 -31 -30 -42 -1 l-8 22 -5 -22 c-6 -20 -13 -22 -69
-22 l-62 0 6 75 c3 41 8 79 11 84 4 5 22 5 48 -1 23 -5 93 -15 156 -23z
m-2915 -14 c-7 -55 25 -119 90 -177 29 -26 42 -42 29 -35 -35 19 -90 78 -112
121 -24 48 -27 130 -4 130 1 0 0 -18 -3 -39z m2995 32 c-10 -2 -26 -2 -35 0
-10 3 -2 5 17 5 19 0 27 -2 18 -5z m397 -23 c17 -19 17 -20 -1 -20 -23 0 -38
10 -41 28 -4 19 22 14 42 -8z m55 3 c11 3 20 0 20 -6 0 -8 4 -7 9 2 7 11 17
11 60 -4 70 -23 73 -35 7 -35 -38 0 -56 4 -57 13 0 10 -2 10 -6 0 -9 -25 -47
-14 -66 19 -14 24 -15 28 -3 18 9 -7 25 -10 36 -7z m-2780 -58 c69 -35 122
-64 119 -64 -9 -1 -147 64 -209 98 -97 54 -39 32 90 -34z m-86 10 c20 -11 36
-23 36 -28 0 -4 5 -5 12 -1 7 5 8 3 3 -6 -5 -8 -3 -11 6 -8 8 3 37 -7 64 -22
28 -15 84 -46 127 -69 42 -23 79 -48 82 -57 7 -19 -17 -7 -149 76 -54 33 -99
59 -102 57 -2 -3 19 -19 47 -37 49 -31 90 -73 90 -92 0 -5 -6 -6 -12 -3 -7 4
-6 1 3 -7 19 -15 43 -58 36 -64 -2 -3 -40 21 -83 52 -69 49 -75 51 -44 19 19
-20 58 -50 86 -66 59 -33 86 -59 62 -59 -26 0 -119 73 -167 130 -25 30 -38 49
-28 41 21 -16 23 1 2 19 -8 7 -15 9 -15 5 0 -5 -9 0 -20 10 -10 9 -18 20 -17
24 1 3 -13 22 -31 41 -65 68 -60 84 12 45z m621 -30 c-57 -52 -88 -63 -113
-44 -15 13 -16 12 -4 -3 8 -9 11 -26 7 -37 -7 -22 -6 -22 -99 18 -48 21 -48
22 -31 41 22 24 36 25 78 5 29 -14 30 -14 13 0 -11 8 -23 15 -28 15 -4 0 -8 4
-8 9 0 7 43 22 105 35 11 2 45 4 75 4 l55 1 -50 -44z m183 14 c-32 -16 -58
-34 -58 -39 0 -6 -5 -10 -12 -10 -6 0 -40 -11 -75 -25 -42 -17 -69 -23 -79
-17 -13 7 -4 19 48 65 l63 57 85 -1 85 0 -57 -30z m2015 14 c-7 -2 -19 -2 -25
0 -7 3 -2 5 12 5 14 0 19 -2 13 -5z m-3257 -114 c20 -30 30 -48 20 -40 -28 24
-74 96 -81 127 l-6 29 14 -31 c8 -17 32 -55 53 -85z m3187 54 c-9 -69 -8 -90
6 -167 7 -32 9 -61 6 -65 -11 -11 -25 24 -26 69 l-2 45 -6 -50 -6 -50 -22 52
c-43 99 -22 223 38 223 18 0 19 -5 12 -57z m287 26 c0 -8 -20 -10 -67 -6 -38
3 -61 4 -52 1 9 -3 30 -37 46 -77 17 -40 38 -89 47 -109 l16 -38 -35 0 c-31 0
-37 4 -51 38 -9 20 -17 47 -17 59 -1 13 -5 23 -10 23 -4 0 -14 18 -23 40 -9
23 -18 39 -20 37 -2 -2 14 -49 35 -105 21 -56 35 -102 30 -102 -12 0 -20 16
-60 129 -21 58 -38 97 -38 87 -1 -11 -4 -17 -7 -13 -3 3 -3 14 0 25 6 18 17
20 106 21 71 1 100 -1 100 -10z m230 1 c-8 -5 -46 -11 -85 -12 -67 -2 -68 -2
-15 -5 30 -2 59 -8 64 -13 9 -9 -91 -177 -118 -199 -19 -16 -27 -2 -32 57 -6
54 -14 69 -14 24 0 -22 -4 -30 -14 -26 -8 3 -11 15 -9 32 3 18 1 23 -4 14 -7
-8 -15 4 -26 41 -21 66 -21 68 -2 61 8 -4 16 -18 16 -33 l2 -26 4 28 c2 15 8
27 13 27 5 0 11 -12 13 -27 3 -16 3 -7 1 20 l-3 47 112 0 c76 0 107 -3 97 -10z
m-466 -12 c-3 -5 -3 -26 1 -46 6 -32 9 -34 16 -17 5 12 6 3 2 -24 -4 -33 -2
-47 9 -55 12 -9 68 -132 68 -150 0 -16 -29 -4 -35 14 -4 11 -11 17 -17 14 -6
-4 -8 1 -3 15 3 11 3 21 -2 21 -5 0 -9 8 -10 18 -1 9 -10 51 -21 92 -33 123
-33 127 -17 127 8 0 12 -4 9 -9z m-3074 -26 c-22 -18 -23 -21 -10 -53 8 -19
32 -54 54 -79 l40 -45 -38 35 c-38 35 -76 97 -76 124 0 15 40 49 48 41 3 -2
-6 -13 -18 -23z m1120 20 c0 -4 -17 -14 -37 -21 -21 -8 -60 -29 -87 -47 -42
-28 -52 -31 -77 -22 -16 5 -31 13 -33 17 -3 4 27 18 67 30 40 13 81 30 92 37
21 15 75 19 75 6z m562 -77 c-16 -54 -29 -81 -34 -73 -4 7 -5 -2 -2 -19 8 -39
-4 -42 -79 -19 -42 13 -47 12 -63 -5 -27 -30 -65 -31 -180 -5 -101 23 -207 56
-130 41 68 -14 87 -14 41 0 -65 19 -84 19 -127 -3 -35 -18 -37 -18 -97 2 -34
11 -61 24 -61 29 0 5 6 7 13 4 6 -2 23 -7 37 -11 23 -6 23 -6 -3 9 l-29 17 39
27 c21 15 67 40 102 55 52 23 74 27 121 24 66 -5 95 -24 153 -101 49 -66 56
-72 28 -25 -28 47 -22 95 14 104 23 6 223 31 261 33 l21 1 -25 -85z m61 63
c-23 -106 -52 -155 -61 -105 -2 11 3 17 15 17 13 0 14 3 5 8 -12 8 -11 17 10
75 13 33 38 37 31 5z m44 0 c-3 -8 -6 -5 -6 6 -1 11 2 17 5 13 3 -3 4 -12 1
-19z m32 -33 c0 -5 -4 -3 -9 5 -5 8 -9 22 -9 30 0 16 17 -16 18 -35z m107 -2
c-2 -30 -1 -34 2 -13 5 33 6 31 23 -35 17 -66 18 -53 4 43 -6 38 -5 42 14 42
15 0 21 -7 22 -22 1 -17 2 -19 6 -5 9 35 22 15 33 -55 7 -40 16 -83 21 -96 8
-19 6 -23 -8 -20 -19 3 -30 38 -32 102 0 22 -4 37 -7 33 -3 -3 -3 -38 1 -76 7
-66 9 -71 31 -71 15 0 24 -6 24 -15 0 -13 -4 -14 -20 -5 -18 9 -20 8 -20 -15
0 -20 -5 -25 -24 -25 -40 0 -56 11 -56 37 0 33 31 27 41 -7 7 -24 7 -23 7 5 0
17 -4 41 -8 55 -8 24 -8 24 -9 3 -1 -24 -30 -33 -32 -10 0 8 -2 8 -5 1 -3 -7
-14 -10 -24 -7 -17 5 -20 14 -20 73 0 85 9 130 26 130 9 0 12 -13 10 -47z
m1343 -20 c11 -37 19 -68 17 -70 -2 -2 -12 20 -24 49 -11 29 -23 61 -27 71 -4
10 -3 17 3 17 6 0 20 -30 31 -67z m-2754 37 c3 -6 -1 -7 -9 -4 -18 7 -21 14
-7 14 6 0 13 -4 16 -10z m1266 -39 c10 16 12 8 3 -15 -6 -15 -8 -15 -20 1 -12
17 -13 16 -14 -7 0 -14 -5 -32 -11 -40 -10 -15 -9 1 8 83 l6 32 9 -34 c7 -26
12 -31 19 -20z m289 18 c0 -5 -4 -9 -10 -9 -5 0 -10 7 -10 16 0 8 5 12 10 9 6
-3 10 -10 10 -16z m988 -39 c0 -9 -3 -7 -8 5 -5 11 -8 29 -8 40 0 16 2 15 8
-5 4 -14 8 -32 8 -40z m106 -95 c2 -5 8 -23 15 -39 9 -21 9 -32 1 -40 -7 -6
-10 -7 -9 -1 2 6 -12 54 -29 108 -18 53 -32 105 -31 115 0 13 29 -64 53 -143z
m-1054 109 c7 -19 9 -38 6 -41 -3 -4 -6 -1 -6 5 0 6 -7 9 -16 5 -9 -3 -20 0
-25 8 -12 19 -11 29 1 29 6 0 10 -8 10 -17 0 -12 3 -14 11 -6 8 8 8 17 0 32
-7 12 -8 21 -2 21 5 0 15 -16 21 -36z m-1290 11 c-7 -8 -17 -15 -23 -15 -6 0
-2 7 9 15 25 19 30 19 14 0z m1625 -5 c-16 -11 -25 -20 -19 -20 5 0 15 5 21
11 7 7 33 13 59 15 l47 4 -5 -52 c-3 -29 -11 -54 -17 -56 -6 -2 -11 -11 -11
-20 1 -15 2 -15 11 1 14 24 29 21 29 -5 0 -32 -33 -108 -47 -108 -14 0 -53 61
-53 84 0 10 -4 14 -10 11 -5 -3 -10 -5 -10 -3 0 2 -9 28 -20 58 -31 84 -27 95
35 99 16 1 14 -3 -10 -19z m-2855 -37 l45 -47 -52 43 c-29 24 -53 45 -53 47 0
13 21 -2 60 -43z m2215 -47 c-4 -47 -11 -86 -16 -86 -5 0 -9 9 -9 19 0 11 -3
27 -7 37 -4 12 -3 15 5 10 8 -5 12 3 13 26 1 18 1 37 0 42 -1 4 1 17 5 28 12
39 16 8 9 -76z m62 -3 c-2 -21 -4 -6 -4 32 0 39 2 55 4 38 2 -18 2 -50 0 -70z
m303 88 c0 -5 3 -18 6 -28 5 -16 4 -16 -10 1 -18 23 -20 36 -6 36 6 0 10 -4
10 -9z m417 -21 c-4 -16 -2 -32 4 -36 7 -4 9 -21 6 -40 -4 -21 -2 -32 4 -29 5
4 9 -18 9 -51 0 -65 -9 -67 -16 -3 -3 24 -10 49 -16 56 -5 7 -12 39 -15 73 -5
53 -4 60 12 60 14 0 16 -6 12 -30z m37 8 c3 -13 5 -50 5 -83 l-1 -60 -9 60
c-5 33 -11 70 -14 83 -3 12 -1 22 4 22 5 0 11 -10 15 -22z m-475 -33 c0 -5 -4
-3 -9 5 -5 8 -9 22 -9 30 0 16 17 -16 18 -35z m71 21 c0 -4 55 -185 65 -211
l7 -20 -17 20 c-9 11 -23 45 -32 75 -8 30 -26 77 -39 103 -29 59 -29 60 -4 47
11 -6 20 -12 20 -14z m-1321 3 c32 -11 42 -29 17 -29 -27 0 -67 20 -61 30 8
12 5 12 44 -1z m1790 -64 c6 116 19 16 20 -147 1 -134 -1 -158 -14 -158 -8 0
-15 1 -16 3 0 1 -2 88 -3 192 -2 111 0 161 4 120 l6 -70 3 60z m-388 23 c8 -7
20 -29 27 -48 8 -24 10 -27 7 -7 -3 15 -1 27 4 27 19 0 81 -62 87 -86 3 -13
10 -22 16 -21 5 1 16 -8 25 -20 13 -20 13 -22 -8 -33 -19 -11 -24 -9 -44 16
-20 26 -24 27 -41 14 -10 -8 -15 -10 -11 -4 4 7 0 27 -9 45 -15 33 -14 14 2
-26 7 -20 7 -20 -14 -2 -20 18 -20 18 -15 -2 3 -12 8 -19 11 -16 7 6 42 -25
42 -37 0 -5 -7 -5 -16 0 -9 5 -24 7 -33 5 -19 -5 -49 58 -79 169 l-19 67 26
-14 c14 -8 33 -20 42 -27z m-1698 -34 c32 -16 58 -40 77 -71 17 -26 29 -48 27
-49 -4 -4 -118 38 -138 51 -9 6 -31 39 -49 74 l-32 64 34 -22 c18 -12 55 -33
81 -47z m2144 44 c-3 -8 -6 -5 -6 6 -1 11 2 17 5 13 3 -3 4 -12 1 -19z m-980
-20 c-3 -7 -5 -2 -5 12 0 14 2 19 5 13 2 -7 2 -19 0 -25z m309 19 c10 3 14 -2
14 -18 0 -20 -2 -21 -11 -9 -9 12 -10 11 -6 -7 3 -13 1 -23 -4 -23 -5 0 -9 6
-9 13 0 6 -3 23 -5 37 -3 14 -3 20 1 13 3 -7 12 -9 20 -6z m728 -70 c4 -36 3
-48 -7 -45 -6 3 -13 17 -15 31 -2 15 -6 27 -10 27 -4 0 -8 17 -9 37 -2 35 -1
36 16 17 10 -10 21 -41 25 -67z m291 -26 c4 -28 4 -41 -3 -38 -5 4 -12 27 -15
52 -4 25 -9 57 -12 72 -4 21 -2 20 9 -7 7 -20 17 -55 21 -79z m-923 67 c-6 -6
-8 -17 -5 -25 5 -12 7 -12 14 -1 7 10 9 10 10 -2 0 -10 3 -9 8 5 6 16 11 10
24 -30 14 -41 14 -47 2 -31 -8 11 -15 25 -15 32 0 8 -9 11 -25 8 -14 -2 -25 0
-25 6 0 6 -5 8 -10 5 -8 -5 -30 32 -30 49 0 8 36 1 42 -8 5 -7 8 -3 9 9 0 12
3 15 6 7 3 -8 1 -18 -5 -24z m891 -63 c4 -26 4 -33 -2 -20 -5 11 -11 40 -15
65 -7 54 8 16 17 -45z m-1370 69 c18 -6 10 -53 -10 -61 -21 -8 -26 2 -18 36 7
34 7 33 28 25z m33 -72 c-12 -11 -16 6 -9 39 l8 34 3 -33 c2 -19 1 -36 -2 -40z
m-512 4 l61 -53 190 -41 c105 -23 291 -62 415 -87 124 -25 299 -61 390 -80
229 -49 398 -74 581 -85 159 -9 395 0 537 21 41 6 76 9 78 6 7 -7 -136 -26
-281 -37 -255 -20 -570 8 -915 82 -102 21 -329 68 -505 103 -176 36 -354 74
-395 84 -41 11 -75 19 -77 18 -3 -3 115 -100 141 -114 l21 -13 -21 0 c-11 0
-29 10 -40 21 -10 12 -39 35 -64 52 -25 17 -69 52 -98 79 -35 31 -69 52 -98
59 -40 10 -43 13 -27 25 29 22 43 17 107 -40z m546 34 c0 -11 -4 -20 -9 -20
-5 0 -7 9 -4 20 3 11 7 20 9 20 2 0 4 -9 4 -20z m358 1 c3 -8 -1 -12 -9 -9 -7
2 -15 10 -17 17 -3 8 1 12 9 9 7 -2 15 -10 17 -17z m743 -24 c2 -31 2 -31 6
-4 4 23 7 26 19 16 16 -13 19 -85 4 -94 -5 -3 -10 1 -10 10 0 9 -4 14 -9 11
-8 -6 -31 58 -31 88 0 31 20 6 21 -27z m-1905 -13 c49 -20 127 -49 174 -65 47
-15 76 -28 65 -28 -11 -1 -97 25 -190 57 l-170 58 76 -76 c73 -73 120 -134 87
-113 -7 4 -58 55 -113 112 l-100 104 41 -7 c22 -3 81 -22 130 -42z m2394 19
c0 -13 -3 -13 -15 -3 -8 7 -12 16 -9 21 8 13 24 1 24 -18z m-1260 -14 c0 -6
-4 -7 -10 -4 -5 3 -10 11 -10 16 0 6 5 7 10 4 6 -3 10 -11 10 -16z m680 -14
c0 -5 -5 -3 -10 5 -5 8 -10 20 -10 25 0 6 5 3 10 -5 5 -8 10 -19 10 -25z m62
10 c3 -14 1 -25 -3 -25 -5 0 -9 11 -9 25 0 14 2 25 4 25 2 0 6 -11 8 -25z
m-2092 -15 c26 -17 55 -39 65 -50 18 -20 17 -20 -23 -20 -38 0 -42 3 -71 50
-17 28 -28 50 -24 50 3 0 27 -14 53 -30z m810 10 c9 -17 8 -20 -13 -20 -30 0
-40 10 -26 27 16 18 26 16 39 -7z m578 8 c9 -9 12 -9 12 0 0 9 5 10 18 4 9 -5
22 -7 28 -5 6 2 14 -3 17 -12 4 -8 2 -15 -3 -15 -6 0 -10 6 -11 13 0 9 -2 9
-6 -1 -2 -6 -9 -9 -15 -6 -6 4 -20 8 -32 9 -34 4 -36 5 -36 15 0 14 13 13 28
-2z m816 -10 c8 -13 17 -43 21 -68 6 -44 6 -44 -9 -18 -8 15 -17 35 -20 45 -3
10 -3 -2 -1 -27 3 -32 2 -41 -5 -30 -10 15 -14 120 -5 120 2 0 11 -10 19 -22z
m-1593 -10 c46 -7 69 -15 69 -24 0 -17 6 -17 -77 0 -86 18 -104 26 -97 38 3 5
13 7 21 4 8 -4 46 -11 84 -18z m404 -13 c94 -20 192 -40 220 -46 48 -9 85 -29
54 -29 -29 0 -404 70 -426 80 -13 5 -23 14 -23 20 0 12 -23 16 175 -25z m173
3 c3 -22 0 -26 -17 -21 -14 4 -21 14 -21 30 0 35 34 27 38 -9z m1386 -7 c14
-27 14 -29 -3 -34 -18 -4 -41 26 -41 53 0 21 30 8 44 -19z m-1214 4 c0 -8 -4
-15 -9 -15 -5 0 -11 7 -15 15 -3 9 0 15 9 15 8 0 15 -7 15 -15z m40 -6 c0 -5
-7 -9 -15 -9 -8 0 -15 7 -15 15 0 9 6 12 15 9 8 -4 15 -10 15 -15z m456 -66
c9 -23 14 -53 12 -65 -3 -22 -3 -22 -30 6 -24 27 -25 31 -12 50 8 11 14 25 14
31 0 5 -9 -5 -20 -23 -11 -18 -17 -39 -13 -45 3 -7 -3 -3 -15 7 -23 20 -31 46
-9 27 11 -8 14 -5 14 17 0 15 8 41 19 57 l19 29 3 -24 c1 -14 10 -44 18 -67z
m638 71 c9 -22 -3 -32 -14 -14 -12 19 -12 30 -1 30 5 0 12 -7 15 -16z m40 -27
c5 -21 4 -21 -14 3 -23 29 -26 48 -6 31 8 -6 16 -22 20 -34z m-3004 -12 c111
-42 183 -75 177 -82 -9 -8 -130 27 -187 54 -30 15 -59 29 -64 31 -5 3 -6 -1
-2 -7 10 -15 97 -59 163 -82 69 -23 298 -70 393 -79 l75 -7 -83 -2 c-125 -2
-360 52 -472 109 -52 26 -104 70 -84 70 5 0 -2 10 -16 21 -28 23 -35 25 100
-26z m1923 31 c3 3 13 -8 22 -25 19 -38 11 -41 -10 -3 l-16 27 5 -27 c5 -19 2
-26 -9 -24 -19 3 -21 6 -29 39 -6 25 -5 27 12 18 11 -6 22 -8 25 -5z m564 -18
c-3 -7 -5 -2 -5 12 0 14 2 19 5 13 2 -7 2 -19 0 -25z m20 0 c-3 -7 -5 -2 -5
12 0 14 2 19 5 13 2 -7 2 -19 0 -25z m587 -7 c-6 -6 -24 19 -24 34 1 6 7 1 15
-9 8 -11 12 -22 9 -25z m-1294 -2 c0 -18 -35 -5 -38 14 -3 16 -1 17 17 7 12
-6 21 -15 21 -21z m750 5 c0 -8 -4 -12 -10 -9 -5 3 -10 13 -10 21 0 8 5 12 10
9 6 -3 10 -13 10 -21z m30 -7 c0 -5 -4 -5 -10 -2 -5 3 -10 14 -10 23 0 15 2
15 10 2 5 -8 10 -19 10 -23z m170 -5 c0 -7 -4 -10 -10 -7 -5 3 -10 16 -10 28
0 18 2 19 10 7 5 -8 10 -21 10 -28z m34 22 c4 -9 4 -19 2 -21 -8 -8 -26 8 -26
23 0 19 16 18 24 -2z m-803 -26 c8 -15 8 -18 0 -14 -6 4 -16 16 -22 28 -8 15
-8 18 0 14 6 -4 16 -16 22 -28z m738 -1 c0 -21 -1 -21 -9 -2 -12 28 -12 37 0
30 6 -3 10 -16 9 -28z m-879 8 c0 -8 -4 -15 -9 -15 -5 0 -11 7 -15 15 -3 9 0
15 9 15 8 0 15 -7 15 -15z m38 -4 c3 -8 -1 -12 -9 -9 -7 2 -15 10 -17 17 -3 8
1 12 9 9 7 -2 15 -10 17 -17z m962 -17 c0 -27 -15 -32 -24 -9 -3 8 -1 15 4 15
5 0 6 7 3 17 -4 11 -3 14 5 9 7 -4 12 -18 12 -32z m140 26 c0 -5 -8 -10 -17
-10 -15 0 -16 2 -3 10 19 12 20 12 20 0z m-2578 -21 c47 -10 62 -19 93 -55 20
-24 35 -44 33 -44 -2 0 -24 6 -49 14 -64 20 -140 60 -164 86 l-20 23 25 -6
c14 -3 50 -11 82 -18z m2065 -11 c-3 -8 -6 -5 -6 6 -1 11 2 17 5 13 3 -3 4
-12 1 -19z m20 0 c-3 -8 -6 -5 -6 6 -1 11 2 17 5 13 3 -3 4 -12 1 -19z m20
-10 c-3 -7 -5 -2 -5 12 0 14 2 19 5 13 2 -7 2 -19 0 -25z m42 -2 c-1 -19 -2
-19 -6 -2 -4 15 -7 16 -14 5 -7 -11 -9 -9 -9 8 0 16 4 21 15 17 8 -4 14 -16
14 -28z m-399 -12 c0 -19 -16 -18 -24 2 -11 27 -7 37 9 24 8 -7 15 -19 15 -26z
m434 20 c8 -21 8 -24 -3 -24 -5 0 -11 9 -14 20 -6 24 8 27 17 4z m49 -6 c7
-25 3 -33 -12 -23 -13 8 -15 45 -2 45 5 0 11 -10 14 -22z m167 -4 c0 -8 -4
-12 -10 -9 -5 3 -10 13 -10 21 0 8 5 12 10 9 6 -3 10 -13 10 -21z m67 4 c-3
-8 -6 -5 -6 6 -1 11 2 17 5 13 3 -3 4 -12 1 -19z m50 7 c-6 -17 -37 -18 -37
-1 0 9 8 14 20 13 11 -1 19 -6 17 -12z m163 5 c0 5 7 7 15 4 28 -11 15 -22
-22 -20 -77 5 -79 6 -64 15 7 5 27 5 42 1 17 -5 29 -5 29 0z m-2103 -6 c-3 -3
-12 -4 -19 -1 -8 3 -5 6 6 6 11 1 17 -2 13 -5z m874 -6 c0 -10 2 -10 5 -1 6
15 34 5 34 -11 0 -8 -12 -11 -35 -8 -21 3 -35 10 -35 18 0 17 30 19 31 2z
m1139 2 c0 -5 -4 -10 -10 -10 -5 0 -10 5 -10 10 0 6 5 10 10 10 6 0 10 -4 10
-10z m260 -5 c6 -8 10 -20 7 -27 -4 -9 -6 -9 -6 2 -1 11 -15 15 -56 16 -31 0
-61 6 -67 12 -9 9 2 12 49 12 41 0 64 -5 73 -15z m-2655 -64 c28 -17 57 -34
65 -39 11 -7 9 -10 -12 -14 -21 -4 -38 4 -75 34 -26 22 -54 50 -62 61 -15 22
-15 22 9 4 14 -9 48 -30 75 -46z m1325 49 c0 -5 -2 -10 -4 -10 -3 0 -8 5 -11
10 -3 6 -1 10 4 10 6 0 11 -4 11 -10z m33 -20 c3 -11 1 -20 -4 -20 -5 0 -9 4
-9 9 0 5 -3 17 -7 27 -4 11 -3 15 4 11 6 -4 13 -16 16 -27z m277 10 c6 -11 7
-20 2 -20 -5 0 -17 9 -27 20 -16 18 -16 20 -2 20 9 0 21 -9 27 -20z m237 -17
c-3 -10 -5 -4 -5 12 0 17 2 24 5 18 2 -7 2 -21 0 -30z m-477 12 c2 17 3 16 9
-5 4 -14 3 -27 -2 -29 -11 -4 -27 19 -26 39 0 10 3 8 9 -5 l9 -20 1 20z m520
3 c0 19 30 14 30 -5 0 -15 2 -16 10 -3 5 8 12 11 16 7 4 -4 0 -15 -9 -24 -13
-13 -20 -14 -28 -6 -6 6 -18 9 -25 6 -10 -3 -14 2 -14 18 0 19 2 21 10 9 6
-10 10 -11 10 -2z m340 8 c0 -2 -7 -9 -15 -16 -12 -10 -15 -10 -15 4 0 9 7 16
15 16 8 0 15 -2 15 -4z m177 -18 c-3 -8 -6 -5 -6 6 -1 11 2 17 5 13 3 -3 4
-12 1 -19z m-947 -25 c0 -24 -25 -9 -28 17 -3 21 -2 22 12 11 9 -7 16 -20 16
-28z m40 17 c0 -5 3 -15 6 -24 4 -11 1 -16 -10 -16 -9 0 -16 6 -16 14 0 8 -3
22 -6 30 -5 12 -2 15 10 10 9 -3 16 -10 16 -14z m480 -1 c0 -6 -4 -7 -10 -4
-5 3 -10 1 -10 -6 0 -7 -2 -10 -5 -7 -9 8 6 38 16 32 5 -3 9 -10 9 -15z
m-1697 -3 c4 -10 1 -13 -9 -9 -7 3 -14 9 -14 14 0 14 17 10 23 -5z m965 7
c-10 -2 -26 -2 -35 0 -10 3 -2 5 17 5 19 0 27 -2 18 -5z m159 -15 c-3 -8 -6
-5 -6 6 -1 11 2 17 5 13 3 -3 4 -12 1 -19z m143 11 c0 -5 7 -6 15 -3 8 4 26
-1 40 -10 14 -9 25 -12 25 -6 0 7 8 6 23 -2 12 -7 27 -11 34 -10 18 4 22 -12
7 -26 -12 -11 -15 -10 -20 3 -4 9 -13 14 -21 11 -8 -4 -11 -1 -8 5 4 6 1 9 -6
8 -25 -5 -98 12 -108 25 -8 9 -7 13 4 13 8 0 15 -4 15 -8z m470 1 c0 -5 -4
-10 -10 -10 -5 0 -10 5 -10 10 0 6 5 10 10 10 6 0 10 -4 10 -10z m610 -9 c-8
-5 -42 -11 -75 -15 -33 -4 -81 -9 -107 -12 -32 -4 -48 -2 -48 5 0 6 22 11 53
12 28 1 77 4 107 9 83 11 88 11 70 1z m-2260 -9 c0 -5 -7 -9 -15 -9 -8 0 -15
4 -15 9 0 4 7 8 15 8 8 0 15 -4 15 -8z m61 -6 c-16 -19 -4 -42 30 -56 33 -14
33 -26 -1 -15 -32 10 -55 51 -40 70 7 8 15 15 17 15 3 0 0 -6 -6 -14z m1945
-43 c-3 -25 -7 -48 -9 -50 -2 -1 -49 -6 -105 -9 -74 -5 -102 -4 -102 4 0 8 21
12 60 12 53 0 60 2 60 20 0 16 -7 20 -37 21 -21 1 -42 1 -46 0 -5 -1 -6 3 -2
9 4 7 35 8 87 4 60 -5 79 -4 74 4 -4 7 -35 12 -77 12 -44 0 -68 4 -64 10 3 6
43 10 87 10 l81 0 -7 -47z m-761 7 c6 -4 30 -11 55 -15 25 -4 52 -12 60 -17
11 -7 9 -8 -10 -4 -14 2 -51 8 -82 11 -32 4 -55 11 -52 16 3 5 -5 8 -18 6 -14
-1 -23 4 -26 15 -3 15 0 16 30 6 18 -6 38 -14 43 -18z m232 -22 c-2 -13 -4 -5
-4 17 -1 22 1 32 4 23 2 -10 2 -28 0 -40z m-1076 13 c96 -17 194 -33 219 -36
46 -7 66 -15 36 -15 -24 0 -450 71 -455 76 -8 8 28 4 200 -25z m1116 23 c-3
-3 -12 -4 -19 -1 -8 3 -5 6 6 6 11 1 17 -2 13 -5z m63 -3 c0 -5 -11 -8 -25 -8
-14 0 -25 3 -25 8 0 5 11 9 25 9 14 0 25 -4 25 -9z m59 -46 c-1 -29 -1 -29 -9
-5 -4 14 -8 34 -9 45 -1 16 1 17 9 5 5 -8 9 -28 9 -45z m87 28 c0 -10 4 -29 8
-43 6 -18 5 -22 -3 -15 -14 14 -26 75 -14 75 5 0 9 -8 9 -17z m-1585 -16 c-10
-9 -11 -8 -5 6 3 10 9 15 12 12 3 -3 0 -11 -7 -18z m1372 3 c3 -11 1 -20 -4
-20 -5 0 -9 9 -9 20 0 11 2 20 4 20 2 0 6 -9 9 -20z m37 -11 c0 -11 -4 -17
-10 -14 -5 3 -10 13 -10 21 0 8 5 14 10 14 6 0 10 -9 10 -21z m27 -11 c-3 -7
-5 -2 -5 12 0 14 2 19 5 13 2 -7 2 -19 0 -25z m33 12 c9 -16 8 -20 -5 -20 -8
0 -15 9 -15 20 0 11 2 20 5 20 2 0 9 -9 15 -20z m544 4 c11 -30 5 -39 -12 -17
-9 11 -26 23 -37 26 -13 3 -9 5 11 6 21 1 34 -5 38 -15z m28 -26 c-6 -6 -7 0
-4 19 5 21 7 23 10 9 2 -10 0 -22 -6 -28z m-2451 5 c66 -73 59 -84 -16 -27
-35 27 -44 39 -34 45 20 13 23 12 50 -18z m2534 7 c-3 -5 -18 -9 -33 -9 l-27
1 30 8 c17 4 31 8 33 9 2 0 0 -3 -3 -9z m-2461 -52 c30 -51 78 -158 71 -158
-3 0 -27 45 -55 100 -52 103 -60 133 -16 58z m119 35 c-7 -2 -19 -2 -25 0 -7
3 -2 5 12 5 14 0 19 -2 13 -5z m790 -10 c-7 -2 -19 -2 -25 0 -7 3 -2 5 12 5
14 0 19 -2 13 -5z m1540 -30 c-7 -2 -19 -2 -25 0 -7 3 -2 5 12 5 14 0 19 -2
13 -5z m-968 -32 c66 -10 107 -19 90 -19 -43 -1 -255 25 -262 32 -10 10 45 6
172 -13z m198 -28 c-13 -2 -33 -2 -45 0 -13 2 -3 4 22 4 25 0 35 -2 23 -4z
m672 -52 c-6 -5 -37 -18 -70 -31 -68 -25 -157 -29 -181 -9 -15 12 -13 14 17
21 19 4 39 2 46 -4 20 -16 84 -11 133 11 48 22 70 27 55 12z m-2775 -194 c0
-2 -10 -12 -22 -23 l-23 -19 19 23 c18 21 26 27 26 19z m625 -33 c-63 -55
-172 -115 -264 -146 -46 -16 -85 -27 -87 -25 -2 2 29 16 68 31 88 35 178 84
249 136 67 49 88 51 34 4z m-745 -97 c0 -2 -10 -12 -22 -23 l-23 -19 19 23
c18 21 26 27 26 19z m935 -38 c-39 -40 -124 -89 -155 -89 -8 0 9 11 38 25 30
14 74 43 99 65 59 52 68 51 18 -1z m-990 -9 c-3 -5 -12 -10 -18 -10 -7 0 -6 4
3 10 19 12 23 12 15 0z m432 -36 c-3 -3 -12 -4 -19 -1 -8 3 -5 6 6 6 11 1 17
-2 13 -5z m-112 -33 c-11 -5 -36 -11 -55 -14 -35 -6 -34 -6 5 8 43 14 84 19
50 6z m412 -37 c-3 -3 -12 -4 -19 -1 -8 3 -5 6 6 6 11 1 17 -2 13 -5z m-54
-11 c-7 -2 -19 -2 -25 0 -7 3 -2 5 12 5 14 0 19 -2 13 -5z m-50 -10 c-7 -2
-21 -2 -30 0 -10 3 -4 5 12 5 17 0 24 -2 18 -5z m-65 -10 c-10 -2 -26 -2 -35
0 -10 3 -2 5 17 5 19 0 27 -2 18 -5z m582 -9 c0 -7 -66 -34 -82 -33 -7 0 7 8
32 19 25 10 46 18 48 19 1 1 2 -1 2 -5z m-692 -51 c-10 -2 -28 -2 -40 0 -13 2
-5 4 17 4 22 1 32 -1 23 -4z"/>
<path d="M2770 4360 c30 -4 64 -10 75 -14 13 -5 11 -2 -5 8 -15 9 -46 15 -75
14 l-50 -1 55 -7z"/>
<path d="M2548 4323 c6 -2 18 -2 25 0 6 3 1 5 -13 5 -14 0 -19 -2 -12 -5z"/>
<path d="M2741 4164 c0 -11 3 -14 6 -6 3 7 2 16 -1 19 -3 4 -6 -2 -5 -13z"/>
<path d="M2643 4085 c0 -27 2 -38 4 -22 2 15 2 37 0 50 -2 12 -4 0 -4 -28z"/>
<path d="M2731 4114 c0 -11 3 -14 6 -6 3 7 2 16 -1 19 -3 4 -6 -2 -5 -13z"/>
<path d="M2853 4095 c0 -22 2 -30 4 -17 2 12 2 30 0 40 -3 9 -5 -1 -4 -23z"/>
<path d="M2512 4080 c0 -14 2 -19 5 -12 2 6 2 18 0 25 -3 6 -5 1 -5 -13z"/>
<path d="M2331 4014 c0 -11 3 -14 6 -6 3 7 2 16 -1 19 -3 4 -6 -2 -5 -13z"/>
<path d="M2651 4020 c-1 -19 19 -93 24 -88 2 2 -2 26 -10 53 -7 28 -14 43 -14
35z"/>
<path d="M2870 3991 c0 -6 4 -13 10 -16 6 -3 7 1 4 9 -7 18 -14 21 -14 7z"/>
<path d="M2322 3960 c0 -14 2 -19 5 -12 2 6 2 18 0 25 -3 6 -5 1 -5 -13z"/>
<path d="M2382 3930 c0 -14 2 -19 5 -12 2 6 2 18 0 25 -3 6 -5 1 -5 -13z"/>
<path d="M2294 3916 c-3 -8 -4 -23 -2 -33 3 -11 6 -6 9 15 6 34 2 42 -7 18z"/>
<path d="M3172 3935 c0 -16 2 -22 5 -12 2 9 2 23 0 30 -3 6 -5 -1 -5 -18z"/>
<path d="M3040 3910 c6 -11 13 -20 16 -20 2 0 0 9 -6 20 -6 11 -13 20 -16 20
-2 0 0 -9 6 -20z"/>
<path d="M3254 3839 c-3 -6 -20 -17 -38 -25 -31 -13 -31 -13 -5 -14 18 0 32 9
43 25 9 14 14 25 12 25 -3 0 -8 -5 -12 -11z"/>
<path d="M2819 3733 c-13 -16 -12 -17 4 -4 16 13 21 21 13 21 -2 0 -10 -8 -17
-17z"/>
<path d="M2600 3679 c-7 -11 -10 -23 -7 -25 2 -2 9 7 15 21 14 30 7 33 -8 4z"/>
<path d="M2925 3669 c-9 -17 -15 -33 -13 -35 3 -2 12 12 21 31 21 43 13 47 -8
4z"/>
<path d="M2731 3534 c0 -11 3 -14 6 -6 3 7 2 16 -1 19 -3 4 -6 -2 -5 -13z"/>
<path d="M2421 3504 c0 -11 3 -14 6 -6 3 7 2 16 -1 19 -3 4 -6 -2 -5 -13z"/>
<path d="M2872 3495 c0 -16 2 -22 5 -12 2 9 2 23 0 30 -3 6 -5 -1 -5 -18z"/>
<path d="M2722 3475 c0 -16 2 -22 5 -12 2 9 2 23 0 30 -3 6 -5 -1 -5 -18z"/>
<path d="M2411 3464 c0 -11 3 -14 6 -6 3 7 2 16 -1 19 -3 4 -6 -2 -5 -13z"/>
<path d="M2531 3464 c0 -11 3 -14 6 -6 3 7 2 16 -1 19 -3 4 -6 -2 -5 -13z"/>
<path d="M2662 3450 c0 -19 2 -27 5 -17 2 9 2 25 0 35 -3 9 -5 1 -5 -18z"/>
<path d="M2401 3424 c0 -11 3 -14 6 -6 3 7 2 16 -1 19 -3 4 -6 -2 -5 -13z"/>
<path d="M2522 3405 c0 -16 2 -22 5 -12 2 9 2 23 0 30 -3 6 -5 -1 -5 -18z"/>
<path d="M2711 3394 c0 -11 3 -14 6 -6 3 7 2 16 -1 19 -3 4 -6 -2 -5 -13z"/>
<path d="M2392 3370 c0 -14 2 -19 5 -12 2 6 2 18 0 25 -3 6 -5 1 -5 -13z"/>
<path d="M2871 3329 c0 -13 4 -33 9 -44 7 -14 8 -8 3 20 -7 46 -13 59 -12 24z"/>
<path d="M2422 3310 c0 -19 2 -27 5 -17 2 9 2 25 0 35 -3 9 -5 1 -5 -18z"/>
<path d="M2432 3245 c0 -16 2 -22 5 -12 2 9 2 23 0 30 -3 6 -5 -1 -5 -18z"/>
<path d="M2441 3200 c0 -8 4 -22 9 -30 12 -18 12 -2 0 25 -6 13 -9 15 -9 5z"/>
<path d="M3444 3758 l-29 -33 33 29 c30 28 37 36 29 36 -2 0 -16 -15 -33 -32z"/>
<path d="M3395 3689 c-9 -17 -15 -33 -13 -35 3 -2 12 12 21 31 21 43 13 47 -8
4z"/>
<path d="M3371 3624 c0 -11 3 -14 6 -6 3 7 2 16 -1 19 -3 4 -6 -2 -5 -13z"/>
<path d="M3501 3614 c0 -11 3 -14 6 -6 3 7 2 16 -1 19 -3 4 -6 -2 -5 -13z"/>
<path d="M3362 3580 c0 -14 2 -19 5 -12 2 6 2 18 0 25 -3 6 -5 1 -5 -13z"/>
<path d="M3181 3574 c0 -11 3 -14 6 -6 3 7 2 16 -1 19 -3 4 -6 -2 -5 -13z"/>
<path d="M3493 3505 c0 -44 2 -61 4 -37 2 23 2 59 0 80 -2 20 -4 1 -4 -43z"/>
<path d="M3363 3500 c0 -25 2 -35 4 -22 2 12 2 32 0 45 -2 12 -4 2 -4 -23z"/>
<path d="M2309 3573 l-24 -28 28 24 c25 23 32 31 24 31 -2 0 -14 -12 -28 -27z"/>
<path d="M1624 2838 l-19 -23 23 19 c21 18 27 26 19 26 -2 0 -12 -10 -23 -22z"/>
<path d="M3478 3253 c7 -3 16 -2 19 1 4 3 -2 6 -13 5 -11 0 -14 -3 -6 -6z"/>
<path d="M2182 2880 c0 -14 2 -19 5 -12 2 6 2 18 0 25 -3 6 -5 1 -5 -13z"/>
<path d="M2020 2302 c0 -6 9 -12 20 -15 11 -3 20 -3 20 -1 0 2 -9 8 -20 14
-11 6 -20 7 -20 2z"/>
<path d="M2566 2145 c-9 -26 -7 -32 5 -12 6 10 9 21 6 23 -2 3 -7 -2 -11 -11z"/>
<path d="M2750 2129 c-7 -11 -10 -23 -7 -25 2 -2 9 7 15 21 14 30 7 33 -8 4z"/>
<path d="M2351 2114 c0 -11 3 -14 6 -6 3 7 2 16 -1 19 -3 4 -6 -2 -5 -13z"/>
<path d="M2929 2093 c-13 -16 -12 -17 4 -4 16 13 21 21 13 21 -2 0 -10 -8 -17
-17z"/>
<path d="M2551 2084 c0 -11 3 -14 6 -6 3 7 2 16 -1 19 -3 4 -6 -2 -5 -13z"/>
<path d="M2732 2070 c0 -14 2 -19 5 -12 2 6 2 18 0 25 -3 6 -5 1 -5 -13z"/>
<path d="M2905 2059 c-4 -6 -5 -12 -2 -15 2 -3 7 2 10 11 7 17 1 20 -8 4z"/>
<path d="M2161 2034 c0 -11 3 -14 6 -6 3 7 2 16 -1 19 -3 4 -6 -2 -5 -13z"/>
<path d="M2152 1990 c0 -14 2 -19 5 -12 2 6 2 18 0 25 -3 6 -5 1 -5 -13z"/>
<path d="M3439 3173 c-13 -16 -12 -17 4 -4 16 13 21 21 13 21 -2 0 -10 -8 -17
-17z"/>
<path d="M3315 3139 c-4 -6 -5 -12 -2 -15 2 -3 7 2 10 11 7 17 1 20 -8 4z"/>
<path d="M3415 3139 c-4 -6 -5 -12 -2 -15 2 -3 7 2 10 11 7 17 1 20 -8 4z"/>
<path d="M3555 3109 c-4 -6 -5 -12 -2 -15 2 -3 7 2 10 11 7 17 1 20 -8 4z"/>
<path d="M3392 3060 c0 -14 2 -19 5 -12 2 6 2 18 0 25 -3 6 -5 1 -5 -13z"/>
<path d="M3541 3064 c0 -11 3 -14 6 -6 3 7 2 16 -1 19 -3 4 -6 -2 -5 -13z"/>
<path d="M3171 3034 c0 -11 3 -14 6 -6 3 7 2 16 -1 19 -3 4 -6 -2 -5 -13z"/>
<path d="M3283 3005 c0 -22 2 -30 4 -17 2 12 2 30 0 40 -3 9 -5 -1 -4 -23z"/>
<path d="M3533 2955 c0 -44 2 -61 4 -37 2 23 2 59 0 80 -2 20 -4 1 -4 -43z"/>
<path d="M3382 2990 c0 -14 2 -19 5 -12 2 6 2 18 0 25 -3 6 -5 1 -5 -13z"/>
<path d="M3392 2925 c0 -16 2 -22 5 -12 2 9 2 23 0 30 -3 6 -5 -1 -5 -18z"/>
<path d="M3150 2872 c0 -16 30 -75 36 -70 2 3 -5 22 -16 43 -11 22 -20 34 -20
27z"/>
<path d="M3541 2834 c0 -11 3 -14 6 -6 3 7 2 16 -1 19 -3 4 -6 -2 -5 -13z"/>
<path d="M3551 2799 c-1 -8 6 -24 15 -35 15 -19 15 -19 6 1 -5 11 -12 27 -15
35 -5 13 -6 13 -6 -1z"/>
<path d="M2689 2843 c-13 -16 -12 -17 4 -4 9 7 17 15 17 17 0 8 -8 3 -21 -13z"/>
<path d="M2929 2823 l-24 -28 28 24 c25 23 32 31 24 31 -2 0 -14 -12 -28 -27z"/>
<path d="M2660 2800 c-6 -11 -8 -20 -6 -20 3 0 10 9 16 20 6 11 8 20 6 20 -3
0 -10 -9 -16 -20z"/>
<path d="M2865 2739 c-4 -6 -5 -12 -2 -15 2 -3 7 2 10 11 7 17 1 20 -8 4z"/>
<path d="M2391 2694 c0 -11 3 -14 6 -6 3 7 2 16 -1 19 -3 4 -6 -2 -5 -13z"/>
<path d="M2511 2684 c0 -11 3 -14 6 -6 3 7 2 16 -1 19 -3 4 -6 -2 -5 -13z"/>
<path d="M2622 2675 c0 -16 2 -22 5 -12 2 9 2 23 0 30 -3 6 -5 -1 -5 -18z"/>
<path d="M2841 2674 c0 -11 3 -14 6 -6 3 7 2 16 -1 19 -3 4 -6 -2 -5 -13z"/>
<path d="M2502 2630 c0 -14 2 -19 5 -12 2 6 2 18 0 25 -3 6 -5 1 -5 -13z"/>
<path d="M2833 2575 c0 -38 2 -53 4 -32 2 20 2 52 0 70 -2 17 -4 1 -4 -38z"/>
<path d="M2616 2560 c8 -56 14 -64 14 -19 0 19 -5 41 -10 49 -7 10 -8 1 -4
-30z"/>
<path d="M2291 2494 c0 -11 3 -14 6 -6 3 7 2 16 -1 19 -3 4 -6 -2 -5 -13z"/>
<path d="M3171 2734 c0 -11 3 -14 6 -6 3 7 2 16 -1 19 -3 4 -6 -2 -5 -13z"/>
<path d="M3554 2528 l-19 -23 23 19 c12 11 22 21 22 23 0 8 -8 2 -26 -19z"/>
<path d="M3389 2513 c-13 -16 -12 -17 4 -4 9 7 17 15 17 17 0 8 -8 3 -21 -13z"/>
<path d="M3232 2405 c0 -16 2 -22 5 -12 2 9 2 23 0 30 -3 6 -5 -1 -5 -18z"/>
<path d="M3355 2335 c2 -55 8 -111 14 -125 10 -22 10 -21 4 10 -3 19 -10 76
-14 125 l-8 90 4 -100z"/>
<path d="M3481 2384 c0 -11 3 -14 6 -6 3 7 2 16 -1 19 -3 4 -6 -2 -5 -13z"/>
<path d="M3473 2305 c0 -27 2 -38 4 -22 2 15 2 37 0 50 -2 12 -4 0 -4 -28z"/>
<path d="M4034 2458 l-29 -33 33 29 c17 17 32 31 32 33 0 8 -8 1 -36 -29z"/>
<path d="M3973 2275 c0 -27 2 -38 4 -22 2 15 2 37 0 50 -2 12 -4 0 -4 -28z"/>
<path d="M4060 2110 c6 -11 13 -20 16 -20 2 0 0 9 -6 20 -6 11 -13 20 -16 20
-2 0 0 -9 6 -20z"/>
<path d="M4090 2060 c6 -11 13 -20 16 -20 2 0 0 9 -6 20 -6 11 -13 20 -16 20
-2 0 0 -9 6 -20z"/>
<path d="M3721 2344 c0 -11 3 -14 6 -6 3 7 2 16 -1 19 -3 4 -6 -2 -5 -13z"/>
<path d="M3713 2285 c0 -22 2 -30 4 -17 2 12 2 30 0 40 -3 9 -5 -1 -4 -23z"/>
<path d="M3322 2060 c0 -14 2 -19 5 -12 2 6 2 18 0 25 -3 6 -5 1 -5 -13z"/>
<path d="M3505 1940 c-3 -6 1 -7 9 -4 18 7 21 14 7 14 -6 0 -13 -4 -16 -10z"/>
<path d="M3465 1899 c-4 -6 -5 -12 -2 -15 2 -3 7 2 10 11 7 17 1 20 -8 4z"/>
<path d="M3452 1835 c0 -16 2 -22 5 -12 2 9 2 23 0 30 -3 6 -5 -1 -5 -18z"/>
<path d="M850 1945 c29 -31 178 -158 200 -170 8 -4 -3 8 -25 28 -22 19 -67 61
-100 92 -67 63 -118 97 -75 50z"/>
<path d="M900 1866 c0 -2 8 -10 18 -17 15 -13 16 -12 3 4 -13 16 -21 21 -21
13z"/>
<path d="M1788 1833 c7 -3 16 -2 19 1 4 3 -2 6 -13 5 -11 0 -14 -3 -6 -6z"/>
<path d="M2055 1820 c10 -11 20 -20 23 -20 3 0 -3 9 -13 20 -10 11 -20 20 -23
20 -3 0 3 -9 13 -20z"/>
<path d="M1632 1785 c15 -16 29 -27 31 -24 3 2 -10 15 -27 28 l-31 24 27 -28z"/>
<path d="M2080 1786 c0 -2 8 -10 18 -17 15 -13 16 -12 3 4 -13 16 -21 21 -21
13z"/>
<path d="M1898 1723 c6 -2 18 -2 25 0 6 3 1 5 -13 5 -14 0 -19 -2 -12 -5z"/>
<path d="M2040 1710 c6 -11 13 -20 16 -20 2 0 0 9 -6 20 -6 11 -13 20 -16 20
-2 0 0 -9 6 -20z"/>
<path d="M1948 1713 c6 -2 18 -2 25 0 6 3 1 5 -13 5 -14 0 -19 -2 -12 -5z"/>
<path d="M3132 1805 c0 -16 2 -22 5 -12 2 9 2 23 0 30 -3 6 -5 -1 -5 -18z"/>
<path d="M3100 1624 c0 -8 5 -12 10 -9 6 4 8 11 5 16 -9 14 -15 11 -15 -7z"/>
<path d="M2742 1740 c0 -14 2 -19 5 -12 2 6 2 18 0 25 -3 6 -5 1 -5 -13z"/>
<path d="M3187 1553 c-4 -3 -7 -11 -7 -17 0 -6 5 -5 12 2 6 6 9 14 7 17 -3 3
-9 2 -12 -2z"/>
<path d="M2720 4727 c8 -8 26 -18 40 -22 32 -9 25 -2 -20 20 -27 13 -32 14
-20 2z"/>
<path d="M3070 4455 c14 -8 30 -14 35 -14 6 0 -1 6 -15 14 -14 8 -29 14 -35
14 -5 0 1 -6 15 -14z"/>
<path d="M3150 4420 c8 -5 20 -10 25 -10 6 0 3 5 -5 10 -8 5 -19 10 -25 10 -5
0 -3 -5 5 -10z"/>
<path d="M3200 4400 c8 -5 20 -10 25 -10 6 0 3 5 -5 10 -8 5 -19 10 -25 10 -5
0 -3 -5 5 -10z"/>
<path d="M3268 4373 c7 -3 16 -2 19 1 4 3 -2 6 -13 5 -11 0 -14 -3 -6 -6z"/>
<path d="M3210 4275 c-19 -7 -28 -14 -20 -14 8 0 29 6 45 14 39 17 21 18 -25
0z"/>
<path d="M3018 4273 c7 -3 16 -2 19 1 4 3 -2 6 -13 5 -11 0 -14 -3 -6 -6z"/>
<path d="M3078 4263 c7 -3 16 -2 19 1 4 3 -2 6 -13 5 -11 0 -14 -3 -6 -6z"/>
<path d="M3148 4253 c7 -3 16 -2 19 1 4 3 -2 6 -13 5 -11 0 -14 -3 -6 -6z"/>
<path d="M3070 4235 c-19 -7 -28 -13 -20 -13 8 0 31 6 50 13 19 7 28 13 20 13
-8 0 -31 -6 -50 -13z"/>
<path d="M3008 4213 c7 -3 16 -2 19 1 4 3 -2 6 -13 5 -11 0 -14 -3 -6 -6z"/>
<path d="M3490 4185 c19 -19 36 -35 39 -35 3 0 -10 16 -29 35 -19 19 -36 35
-39 35 -3 0 10 -16 29 -35z"/>
<path d="M3018 4113 c17 -2 47 -2 65 0 17 2 3 4 -33 4 -36 0 -50 -2 -32 -4z"/>
<path d="M3184 4098 c9 -5 29 -5 48 0 31 9 31 9 -15 9 -33 0 -44 -3 -33 -9z"/>
<path d="M2209 4063 l-24 -28 28 24 c25 23 32 31 24 31 -2 0 -14 -12 -28 -27z"/>
<path d="M2164 4008 l-19 -23 23 19 c21 18 27 26 19 26 -2 0 -12 -10 -23 -22z"/>
<path d="M4280 3960 c-11 -11 -20 -32 -20 -46 l0 -25 43 35 c24 19 54 40 68
45 21 8 18 10 -23 10 -35 1 -53 -4 -68 -19z"/>
<path d="M5108 3968 c-4 -10 -36 -13 -127 -12 -67 1 -124 4 -128 7 -12 12 -74
7 -104 -8 -39 -21 -69 -71 -69 -117 0 -33 -5 -41 -40 -63 -40 -25 -64 -57 -58
-77 2 -6 10 3 18 21 8 20 27 39 51 52 36 18 39 23 39 60 0 77 59 134 130 127
27 -2 35 -8 40 -28 6 -25 6 -25 12 -2 5 18 13 22 43 22 65 0 105 -31 126 -99
6 -23 7 -23 8 -5 1 12 -10 37 -23 57 -13 19 -22 38 -18 41 9 10 62 7 82 -4 15
-8 20 -6 25 11 7 22 1 38 -7 17z"/>
<path d="M4786 3869 c-19 -22 -26 -41 -25 -67 l2 -37 6 42 c8 45 25 71 56 83
15 7 16 9 3 9 -9 1 -28 -13 -42 -30z"/>
<path d="M3516 3865 c-18 -14 -18 -14 1 -12 11 0 20 7 20 14 0 7 -1 13 -1 13
-1 0 -9 -7 -20 -15z"/>
<path d="M3408 3833 c6 -2 18 -2 25 0 6 3 1 5 -13 5 -14 0 -19 -2 -12 -5z"/>
<path d="M4879 3769 l-24 -20 27 17 c18 10 38 14 55 10 21 -5 24 -4 13 4 -23
15 -46 12 -71 -11z"/>
<path d="M4711 3714 c-12 -15 -21 -34 -20 -43 0 -10 4 -6 10 9 6 13 17 33 26
42 9 10 13 18 10 18 -3 0 -15 -12 -26 -26z"/>
<path d="M54 3720 c68 -11 142 -51 158 -86 6 -13 16 -24 21 -24 5 0 -2 15 -15
33 -36 47 -98 78 -165 82 l-58 4 59 -9z"/>
<path d="M5052 3705 c-17 -37 -15 -49 11 -71 22 -19 22 -19 5 2 -10 11 -18 27
-18 36 0 18 28 44 55 51 14 3 10 5 -11 6 -24 1 -33 -5 -42 -24z"/>
<path d="M4801 3711 c-10 -7 -7 -9 12 -8 14 1 23 5 20 10 -6 9 -15 9 -32 -2z"/>
<path d="M4420 3667 c-25 -13 -51 -37 -61 -57 -21 -38 -25 -100 -9 -130 13
-24 -21 -67 -58 -73 l-27 -4 26 -2 c16 0 35 9 54 29 25 26 28 33 17 50 -19 32
-14 93 11 131 31 47 81 70 137 64 34 -3 39 -2 20 4 -41 15 -65 12 -110 -12z"/>
<path d="M4800 3633 c-39 -20 -50 -52 -25 -73 19 -16 20 -60 0 -60 -7 0 -18 7
-23 15 -7 14 -11 13 -27 -5 -18 -20 -18 -21 1 -41 l21 -20 32 30 c49 46 115
74 156 67 51 -10 53 -26 3 -26 -62 0 -110 -16 -147 -49 -28 -25 -31 -32 -22
-49 16 -30 13 -57 -7 -75 -25 -23 -35 -21 -29 5 11 41 -34 86 -73 73 -24 -8
-27 -50 -4 -63 21 -12 15 -56 -8 -60 -10 -2 -28 8 -40 21 -13 14 -32 26 -43
29 -16 3 -20 11 -18 43 1 31 0 34 -5 15 -5 -14 -26 -35 -52 -50 -26 -15 -54
-43 -66 -64 -12 -20 -31 -44 -43 -52 -51 -36 -8 -114 45 -79 24 15 24 15 24
-14 0 -35 16 -50 25 -22 6 19 45 60 45 47 0 -4 -10 -20 -21 -35 -33 -45 -19
-57 26 -20 22 17 63 42 90 55 130 61 323 -2 441 -145 66 -80 71 -105 6 -35
-26 29 -65 65 -86 80 l-39 29 46 -68 c53 -77 76 -142 84 -242 7 -87 -1 -82
-21 12 -20 98 -58 173 -123 243 -72 78 -146 115 -229 114 -69 -1 -140 -33
-161 -74 -15 -30 -8 -40 11 -15 22 31 123 33 181 4 107 -54 206 -248 191 -376
-4 -33 -2 -60 5 -71 16 -26 3 -120 -22 -161 -18 -29 -24 -32 -62 -29 -34 2
-42 -1 -45 -16 -3 -13 -10 -17 -28 -13 -40 7 -57 -18 -49 -73 5 -35 3 -49 -9
-59 -23 -20 -60 -10 -64 17 -2 13 -10 26 -18 29 -24 9 -63 -6 -75 -30 -11 -19
-10 -20 3 -10 12 11 18 9 33 -7 14 -15 21 -17 32 -9 10 9 17 8 27 -1 24 -19
57 -8 85 29 14 19 21 32 14 28 -13 -8 -28 46 -18 64 4 6 20 9 36 7 21 -3 30 0
35 14 4 13 15 18 42 18 20 0 45 7 54 14 23 17 44 69 53 131 4 28 13 53 19 57
6 4 -2 8 -17 8 -25 0 -28 3 -25 28 2 21 9 28 30 30 14 2 32 10 38 18 15 18 44
18 59 1 6 -8 23 -12 41 -9 l30 4 -1 196 0 196 -36 46 -37 45 37 -34 37 -35 0
46 c0 40 -5 50 -32 74 -18 15 -64 42 -103 61 -38 18 -64 33 -58 33 23 0 118
-47 149 -73 18 -15 35 -27 38 -27 3 0 6 29 6 63 l0 64 -77 36 c-85 40 -70 51
25 18 l52 -18 0 67 c0 58 -3 68 -19 73 -10 2 -25 17 -32 33 -20 40 -80 66
-164 71 -54 3 -78 0 -105 -14z m40 4 c0 -2 -15 -13 -32 -26 l-33 -22 28 25
c26 24 37 31 37 23z"/>
<path d="M2139 3623 c-13 -16 -12 -17 4 -4 9 7 17 15 17 17 0 8 -8 3 -21 -13z"/>
<path d="M4609 3603 c-13 -16 -12 -17 3 -4 10 7 29 11 43 9 13 -3 22 -1 19 3
-9 15 -51 10 -65 -8z"/>
<path d="M5105 3610 c3 -5 8 -10 11 -10 2 0 4 5 4 10 0 6 -5 10 -11 10 -5 0
-7 -4 -4 -10z"/>
<path d="M250 3606 c0 -3 9 -10 20 -16 11 -6 20 -8 20 -6 0 3 -9 10 -20 16
-11 6 -20 8 -20 6z"/>
<path d="M2109 3583 c-13 -16 -12 -17 4 -4 16 13 21 21 13 21 -2 0 -10 -8 -17
-17z"/>
<path d="M4470 3560 c-11 -11 -20 -28 -19 -37 0 -13 3 -11 10 7 18 46 59 53
96 18 13 -12 23 -16 23 -10 0 16 -41 42 -67 42 -13 0 -32 -9 -43 -20z"/>
<path d="M2079 3543 c-13 -16 -12 -17 4 -4 16 13 21 21 13 21 -2 0 -10 -8 -17
-17z"/>
<path d="M2040 3490 c-12 -16 -19 -30 -16 -30 2 0 14 14 26 30 12 17 19 30 16
30 -2 0 -14 -13 -26 -30z"/>
<path d="M796 3479 c9 -10 24 -19 33 -19 14 0 14 2 1 10 -12 7 -8 10 14 10 40
0 30 6 -22 13 -42 5 -43 5 -26 -14z"/>
<path d="M4592 3455 c-12 -14 -18 -25 -13 -25 5 0 16 11 25 25 9 14 15 25 13
25 -2 0 -13 -11 -25 -25z"/>
<path d="M4456 3444 c-5 -14 -4 -15 9 -4 17 14 19 20 6 20 -5 0 -12 -7 -15
-16z"/>
<path d="M1999 3433 c-13 -16 -12 -17 4 -4 9 7 17 15 17 17 0 8 -8 3 -21 -13z"/>
<path d="M4440 3413 c0 -6 8 -17 18 -24 16 -13 16 -13 2 6 -8 11 -16 22 -17
24 -2 2 -3 0 -3 -6z"/>
<path d="M1453 3402 c-8 -5 2 -8 24 -9 25 -1 32 2 22 8 -17 11 -30 11 -46 1z"/>
<path d="M4232 3380 c-12 -12 -22 -26 -22 -32 0 -6 1 -9 3 -7 1 2 13 16 26 32
29 32 24 36 -7 7z"/>
<path d="M768 3360 c-15 -16 -36 -31 -46 -33 -15 -4 -15 -5 1 -6 11 0 32 13
47 29 21 22 37 30 63 30 20 0 39 -5 43 -11 4 -8 9 -8 17 0 17 17 55 13 69 -8
10 -14 18 -17 28 -10 13 7 12 9 -1 9 -9 0 -22 6 -28 14 -7 9 -36 13 -87 14
-72 1 -79 -1 -106 -28z"/>
<path d="M1040 3340 c11 -11 20 -29 20 -40 0 -11 4 -20 10 -20 6 0 6 10 -1 27
-12 32 -28 53 -40 53 -5 0 0 -9 11 -20z"/>
<path d="M940 3326 c0 -2 9 -6 20 -9 11 -3 18 -1 14 4 -5 9 -34 13 -34 5z"/>
<path d="M4200 3319 c0 -6 -13 -22 -30 -36 -16 -13 -30 -29 -30 -35 0 -6 9 1
21 16 11 14 27 26 35 26 8 0 14 9 14 20 0 11 -2 20 -5 20 -3 0 -5 -5 -5 -11z"/>
<path d="M653 3300 c-19 -11 -35 -31 -39 -47 -4 -15 -20 -40 -35 -55 -25 -25
-34 -28 -98 -28 -45 0 -97 8 -148 24 -105 32 -125 36 -216 46 -109 11 -117 8
-117 -47 0 -42 1 -45 23 -38 56 17 188 17 260 0 40 -10 78 -18 85 -18 7 0 10
-7 7 -14 -3 -8 -5 -16 -5 -18 0 -2 -19 3 -42 12 -46 18 -249 25 -301 10 -26
-7 -27 -10 -27 -73 0 -59 2 -65 18 -59 46 19 88 26 121 21 20 -3 42 -7 49 -8
29 -4 2 -78 -29 -78 -12 0 -19 -3 -16 -6 10 -11 -12 -44 -31 -45 -11 0 -12 -2
-4 -6 7 -2 28 9 48 26 19 17 39 31 45 31 6 0 7 5 4 11 -11 16 22 93 50 119 17
16 39 25 68 26 65 3 67 4 66 12 -4 23 5 35 36 48 42 17 115 18 150 2 30 -13
59 -62 49 -81 -5 -9 -4 -9 5 -1 17 15 -2 59 -34 80 -31 20 -31 27 -1 56 13 13
26 35 30 50 4 18 19 34 44 47 20 11 33 20 27 21 -5 0 -25 -9 -42 -20z"/>
<path d="M800 3290 c-8 -5 -10 -10 -5 -10 6 0 17 5 25 10 8 5 11 10 5 10 -5 0
-17 -5 -25 -10z"/>
<path d="M873 3293 c-7 -2 -13 -9 -13 -15 0 -7 4 -7 13 0 6 5 23 12 37 15 l25
4 -25 1 c-14 0 -31 -2 -37 -5z"/>
<path d="M1109 3274 c14 -10 21 -23 18 -35 -5 -17 19 -36 31 -24 3 3 0 5 -6 5
-7 0 -12 9 -12 19 0 22 -25 51 -43 51 -6 0 -1 -7 12 -16z"/>
<path d="M3921 3274 c0 -11 3 -14 6 -6 3 7 2 16 -1 19 -3 4 -6 -2 -5 -13z"/>
<path d="M774 3255 c-3 -8 -4 -20 -2 -27 3 -7 7 -1 10 15 6 29 1 36 -8 12z"/>
<path d="M4342 3254 c-29 -20 -52 -66 -51 -101 1 -20 3 -22 6 -8 2 11 6 31 9
44 3 13 19 37 36 53 34 31 34 36 0 12z"/>
<path d="M4219 3243 c-13 -16 -12 -17 4 -4 16 13 21 21 13 21 -2 0 -10 -8 -17
-17z"/>
<path d="M820 3223 c0 -10 4 -14 8 -8 4 6 11 13 16 18 5 4 2 7 -7 7 -10 0 -17
-8 -17 -17z"/>
<path d="M875 3217 l-20 -20 25 13 c32 16 33 17 23 23 -4 2 -17 -5 -28 -16z"/>
<path d="M4131 3214 c0 -11 3 -14 6 -6 3 7 2 16 -1 19 -3 4 -6 -2 -5 -13z"/>
<path d="M754 3175 c-9 -14 -15 -27 -13 -30 3 -2 12 10 21 26 21 36 15 39 -8
4z"/>
<path d="M812 3170 c-12 -16 -27 -42 -32 -57 -8 -24 -8 -25 3 -9 6 10 22 34
35 53 29 44 24 54 -6 13z"/>
<path d="M4143 3163 c0 -16 -3 -37 -7 -48 -4 -11 0 -7 9 8 10 17 21 25 28 21
7 -4 3 3 -8 17 -11 13 -20 25 -21 27 -1 1 -1 -10 -1 -25z"/>
<path d="M3938 3123 c6 -2 18 -2 25 0 6 3 1 5 -13 5 -14 0 -19 -2 -12 -5z"/>
<path d="M3868 3113 c7 -3 16 -2 19 1 4 3 -2 6 -13 5 -11 0 -14 -3 -6 -6z"/>
<path d="M675 3083 c17 -3 34 -9 40 -14 5 -5 18 -9 30 -9 26 0 45 -18 45 -44
0 -16 3 -17 12 -8 16 16 37 15 72 -3 25 -13 27 -13 16 0 -6 8 -28 18 -48 21
-20 4 -45 18 -55 31 -13 17 -25 21 -42 17 -12 -3 -26 -1 -29 5 -4 6 -22 10
-39 10 l-32 -2 30 -4z"/>
<path d="M4142 3080 c2 -8 16 -17 29 -20 20 -4 24 -11 24 -39 0 -29 7 -39 45
-67 28 -20 57 -33 78 -33 18 -1 41 -10 52 -21 24 -24 82 -27 100 -5 9 11 17
12 32 4 24 -13 78 -2 96 20 42 53 43 57 30 100 -16 50 -35 52 -72 10 -20 -23
-32 -28 -49 -23 -28 8 -47 32 -40 50 3 8 -1 14 -11 14 -26 0 -19 -36 11 -60
21 -16 36 -20 59 -15 20 3 35 1 39 -6 4 -6 20 -9 36 -5 38 7 37 -8 -1 -44 -24
-23 -39 -28 -67 -26 -19 2 -39 9 -44 17 -6 10 -11 6 -18 -14 -9 -22 -17 -27
-45 -27 -22 0 -42 7 -54 20 -10 11 -34 21 -55 22 -34 3 -41 9 -38 30 0 4 -6 5
-14 2 -8 -4 -27 1 -41 11 -21 13 -25 23 -22 53 2 30 -1 37 -17 40 -11 2 -26 9
-34 16 -11 9 -13 8 -9 -4z"/>
<path d="M4220 3075 c0 -8 4 -15 10 -15 5 0 7 7 4 15 -4 8 -8 15 -10 15 -2 0
-4 -7 -4 -15z"/>
<path d="M3944 2970 c0 -52 1 -74 3 -47 2 26 2 68 0 95 -2 26 -3 4 -3 -48z"/>
<path d="M4508 3043 c6 -2 18 -2 25 0 6 3 1 5 -13 5 -14 0 -19 -2 -12 -5z"/>
<path d="M608 3033 c6 -2 18 -2 25 0 6 3 1 5 -13 5 -14 0 -19 -2 -12 -5z"/>
<path d="M662 3019 c10 -5 24 -19 33 -32 8 -12 15 -16 15 -9 0 16 -37 52 -52
52 -8 0 -6 -5 4 -11z"/>
<path d="M407 3003 c-3 -5 12 -8 33 -8 21 0 36 3 33 8 -2 4 -17 7 -33 7 -16 0
-31 -3 -33 -7z"/>
<path d="M3821 2994 c0 -11 3 -14 6 -6 3 7 2 16 -1 19 -3 4 -6 -2 -5 -13z"/>
<path d="M519 2959 l-24 -21 25 16 c37 24 87 20 115 -9 14 -13 25 -20 25 -15
0 5 -12 18 -26 29 -34 27 -85 27 -115 0z"/>
<path d="M818 2950 c12 -11 22 -26 22 -32 0 -6 3 -9 6 -6 9 10 -14 45 -33 52
-14 6 -13 2 5 -14z"/>
<path d="M910 2939 c0 -5 11 -9 23 -9 44 0 69 -48 48 -88 -7 -13 -3 -23 15
-39 13 -12 24 -18 24 -13 0 4 -6 13 -14 19 -9 8 -12 24 -9 49 3 22 -1 44 -9
55 -15 19 -78 41 -78 26z"/>
<path d="M3730 2947 c0 -13 41 -89 80 -147 20 -30 47 -74 59 -97 12 -24 24
-43 27 -43 3 0 -10 29 -29 64 -20 35 -33 67 -30 70 3 3 -2 8 -11 12 -9 3 -13
10 -10 15 3 5 0 9 -6 9 -6 0 -8 5 -4 12 5 7 3 8 -6 3 -9 -6 -10 -1 -5 16 4 17
4 20 -3 10 -8 -11 -16 -3 -36 35 -14 27 -25 45 -26 41z"/>
<path d="M246 2911 c-4 -5 3 -7 14 -4 11 3 28 -1 38 -8 15 -13 16 -12 3 4 -14
18 -46 23 -55 8z"/>
<path d="M689 2893 c-13 -16 -12 -17 4 -4 9 7 17 15 17 17 0 8 -8 3 -21 -13z"/>
<path d="M42 2840 c-41 -40 -52 -60 -32 -60 6 0 10 6 10 14 0 8 13 25 28 38
26 22 48 48 40 48 -2 0 -23 -18 -46 -40z"/>
<path d="M894 2859 c14 -11 26 -28 27 -37 0 -11 2 -13 6 -4 7 18 -24 62 -44
62 -11 0 -8 -6 11 -21z"/>
<path d="M196 2844 c-9 -8 -16 -23 -15 -32 0 -13 3 -11 9 5 5 12 17 26 27 32
10 6 13 11 6 11 -6 0 -19 -7 -27 -16z"/>
<path d="M418 2853 c7 -3 16 -2 19 1 4 3 -2 6 -13 5 -11 0 -14 -3 -6 -6z"/>
<path d="M512 2830 c7 -11 16 -20 21 -20 4 0 3 9 -3 20 -6 11 -15 20 -20 20
-6 0 -5 -9 2 -20z"/>
<path d="M256 2791 c-10 -11 -16 -26 -13 -33 4 -9 6 -7 6 4 1 9 11 24 23 32
12 9 18 16 12 16 -6 0 -19 -9 -28 -19z"/>
<path d="M498 2793 c7 -3 16 -2 19 1 4 3 -2 6 -13 5 -11 0 -14 -3 -6 -6z"/>
<path d="M95 2755 c-14 -13 -25 -30 -25 -37 1 -7 7 -1 16 14 8 16 28 31 47 37
25 7 27 9 9 10 -13 1 -34 -10 -47 -24z"/>
<path d="M903 2749 c18 -14 27 -30 27 -49 0 -19 7 -33 19 -40 27 -14 38 -13
18 3 -24 18 -12 57 19 57 22 0 52 35 41 47 -3 2 -10 -5 -17 -16 -13 -25 -33
-27 -50 -6 -7 8 -16 12 -21 9 -5 -3 -9 0 -9 5 0 6 -12 11 -27 11 l-28 -1 28
-20z m57 -20 c0 -6 -4 -7 -10 -4 -5 3 -10 11 -10 16 0 6 5 7 10 4 6 -3 10 -11
10 -16z"/>
<path d="M796 2715 c4 -8 8 -15 10 -15 2 0 4 7 4 15 0 8 -4 15 -10 15 -5 0 -7
-7 -4 -15z"/>
<path d="M187 2702 c-42 -46 -70 -206 -50 -276 7 -22 9 -2 10 70 0 87 4 106
28 157 20 43 33 57 48 57 l21 0 -20 -15 c-25 -17 -48 -68 -41 -87 3 -8 6 -6 6
5 2 30 30 75 51 82 11 4 18 11 15 16 -10 15 -51 10 -68 -9z"/>
<path d="M4622 2664 l-37 -36 43 32 c23 17 42 34 42 36 0 10 -13 1 -48 -32z"/>
<path d="M250 2644 c-12 -31 -13 -71 -1 -78 4 -3 14 13 20 35 7 23 15 47 18
55 3 8 -1 14 -11 14 -9 0 -21 -12 -26 -26z"/>
<path d="M94 2615 c-9 -13 -14 -28 -12 -33 1 -5 10 6 19 24 19 40 16 44 -7 9z"/>
<path d="M976 2624 c-4 -9 -4 -19 -1 -22 2 -3 7 3 11 12 4 9 4 19 1 22 -2 3
-7 -3 -11 -12z"/>
<path d="M5011 2617 c19 -12 40 -36 48 -52 12 -25 12 -30 -5 -42 -10 -7 -13
-13 -7 -13 7 0 15 5 19 11 3 6 18 8 33 5 24 -5 25 -5 4 5 -12 6 -24 21 -27 34
-5 20 -71 75 -91 75 -4 0 7 -10 26 -23z"/>
<path d="M789 2608 c7 -10 11 -24 8 -32 -4 -9 0 -12 12 -9 13 3 17 11 13 31
-3 15 -7 21 -10 14 -3 -10 -7 -10 -20 0 -15 12 -16 11 -3 -4z"/>
<path d="M925 2610 c-3 -6 1 -13 10 -16 21 -9 26 -2 10 13 -9 8 -16 9 -20 3z"/>
<path d="M870 2593 c38 -15 32 -48 -7 -38 -16 4 -22 2 -18 -5 8 -12 35 -13 54
-1 21 13 4 51 -22 50 -15 0 -17 -2 -7 -6z"/>
<path d="M4698 2553 c7 -3 16 -2 19 1 4 3 -2 6 -13 5 -11 0 -14 -3 -6 -6z"/>
<path d="M173 2485 c0 -38 2 -53 4 -32 2 20 2 52 0 70 -2 17 -4 1 -4 -38z"/>
<path d="M4645 2530 c-26 -28 -15 -31 12 -3 12 13 19 23 14 23 -4 0 -16 -9
-26 -20z"/>
<path d="M4742 2530 c14 -22 24 -19 15 5 -4 8 -11 15 -17 15 -6 0 -6 -7 2 -20z"/>
<path d="M4575 2519 c-4 -6 -5 -12 -2 -15 2 -3 7 2 10 11 7 17 1 20 -8 4z"/>
<path d="M227 2483 c-8 -13 2 -71 14 -79 11 -6 11 43 0 70 -5 12 -10 15 -14 9z"/>
<path d="M4555 2470 c-3 -5 -1 -10 4 -10 6 0 11 5 11 10 0 6 -2 10 -4 10 -3 0
-8 -4 -11 -10z"/>
<path d="M4472 2454 c-31 -21 -52 -67 -51 -106 l2 -33 4 30 c7 52 25 87 57
106 17 10 26 19 21 19 -6 0 -21 -7 -33 -16z"/>
<path d="M4995 2433 c-16 -8 -40 -25 -52 -36 -24 -21 -31 -57 -12 -57 6 0 9 6
6 13 -8 23 14 49 59 69 42 18 47 18 70 4 13 -9 24 -21 24 -26 0 -6 5 -10 12
-10 6 0 -1 14 -17 30 -32 34 -47 36 -90 13z"/>
<path d="M250 2383 c5 -2 8 -9 4 -14 -3 -5 0 -9 6 -9 15 0 7 23 -8 26 -7 1 -8
0 -2 -3z"/>
<path d="M4532 2354 c-12 -8 -22 -23 -21 -32 0 -13 3 -11 9 5 5 13 23 26 42
32 21 6 26 10 13 10 -11 1 -31 -6 -43 -15z"/>
<path d="M260 2346 c0 -11 30 -66 36 -66 2 0 -3 15 -12 33 -19 36 -24 44 -24
33z"/>
<path d="M4757 2339 c7 -7 15 -10 18 -7 3 3 -2 9 -12 12 -14 6 -15 5 -6 -5z"/>
<path d="M4799 2333 c-13 -16 -12 -17 4 -4 16 13 21 21 13 21 -2 0 -10 -8 -17
-17z"/>
<path d="M4222 2314 c-15 -10 -32 -13 -51 -9 -17 3 -32 2 -36 -4 -11 -19 63
-12 97 9 18 11 28 20 23 20 -6 0 -21 -7 -33 -16z"/>
<path d="M4872 2318 c-7 -7 -12 -17 -12 -23 0 -5 -10 -15 -22 -20 -16 -7 -24
-20 -26 -45 -2 -19 -8 -41 -14 -48 -8 -9 -7 -11 5 -6 10 4 17 21 19 47 2 35 7
43 26 45 14 2 22 10 22 23 0 11 7 22 16 26 21 8 36 -17 22 -34 -8 -10 -7 -12
6 -7 19 7 19 9 6 35 -12 22 -30 25 -48 7z"/>
<path d="M4415 2277 c-9 -18 -15 -42 -12 -52 3 -15 5 -13 6 7 0 15 10 36 22
47 11 10 16 21 11 25 -5 3 -17 -9 -27 -27z"/>
<path d="M4489 2283 c-13 -16 -12 -17 4 -4 16 13 21 21 13 21 -2 0 -10 -8 -17
-17z"/>
<path d="M59 2241 c-13 -10 -29 -16 -36 -14 -6 2 -14 -1 -18 -6 -3 -7 0 -8 10
-5 13 5 15 0 9 -34 -3 -22 -2 -48 4 -58 8 -15 10 -10 6 21 -6 49 12 86 49 99
21 8 35 5 67 -13 49 -28 53 -21 4 8 -43 26 -64 26 -95 2z"/>
<path d="M4578 2226 c-20 -15 -23 -26 -8 -26 5 0 14 9 20 20 12 23 11 24 -12
6z"/>
<path d="M4280 2186 c0 -14 4 -27 8 -30 5 -3 6 8 4 25 -5 35 -12 38 -12 5z"/>
<path d="M5055 2203 c11 -3 28 -12 38 -21 9 -8 17 -12 17 -7 0 14 -34 34 -55
34 l-20 -1 20 -5z"/>
<path d="M4413 2185 c0 -8 4 -12 9 -9 5 3 6 10 3 15 -9 13 -12 11 -12 -6z"/>
<path d="M4925 2189 c-4 -6 -4 -13 -1 -16 3 -4 6 -1 6 6 0 9 11 12 34 9 19 -2
32 0 30 4 -8 12 -62 10 -69 -3z"/>
<path d="M4541 2179 c-1 -9 -8 -22 -16 -29 -8 -7 -15 -17 -15 -23 0 -5 9 2 21
17 11 14 18 32 16 39 -4 7 -6 6 -6 -4z"/>
<path d="M4560 2150 c-9 -6 -10 -10 -3 -10 6 0 15 5 18 10 8 12 4 12 -15 0z"/>
<path d="M4780 2154 c0 -13 28 -39 54 -48 16 -5 17 -4 6 9 -7 8 -18 15 -26 15
-7 0 -18 8 -23 18 -6 9 -11 12 -11 6z"/>
<path d="M4910 2148 c0 -10 10 -27 22 -38 19 -18 20 -22 8 -30 -21 -13 -44
-12 -58 2 -16 16 -15 23 4 42 8 9 11 16 4 16 -6 0 -16 -11 -22 -25 -9 -20 -8
-28 4 -42 13 -15 14 -30 6 -88 -24 -175 -24 -174 -96 -245 -43 -42 -96 -81
-147 -107 -44 -24 -75 -42 -70 -43 6 0 47 4 93 10 73 8 91 14 145 51 97 65
185 156 218 224 36 74 36 80 2 111 -24 22 -25 27 -13 49 22 42 55 33 84 -22
14 -27 25 -44 26 -40 0 4 -9 26 -21 49 -11 22 -18 50 -15 61 4 15 2 17 -7 8
-20 -20 -28 -12 -22 23 6 30 4 35 -16 41 -18 6 -28 2 -45 -20 -25 -32 -53 -30
-71 5 -9 18 -13 20 -13 8z m126 -65 c-10 -10 -19 5 -10 18 6 11 8 11 12 0 2
-7 1 -15 -2 -18z m-112 -111 c-1 -58 -18 -127 -34 -137 -4 -3 -1 18 7 46 8 28
13 76 11 109 -2 39 0 56 7 49 6 -6 10 -36 9 -67z"/>
<path d="M214 2135 c-4 -8 -17 -15 -31 -15 -34 0 -63 -17 -63 -38 0 -13 3 -12
16 6 9 14 26 22 43 22 16 0 34 7 41 15 17 20 47 19 59 -2 6 -10 11 -13 11 -7
1 31 -65 48 -76 19z"/>
<path d="M4594 2141 c5 -7 0 -21 -11 -33 -18 -21 -18 -21 5 -7 24 15 29 34 10
45 -7 5 -8 3 -4 -5z"/>
<path d="M4380 2111 c0 -6 4 -13 10 -16 6 -3 7 1 4 9 -7 18 -14 21 -14 7z"/>
<path d="M4475 2110 c-3 -5 1 -10 9 -10 9 0 16 5 16 10 0 6 -4 10 -9 10 -6 0
-13 -4 -16 -10z"/>
<path d="M4533 2105 c0 -8 4 -15 9 -15 4 0 8 4 8 9 0 6 -4 12 -8 15 -5 3 -9
-1 -9 -9z"/>
<path d="M4434 2066 c-3 -8 -4 -25 -2 -38 3 -17 5 -13 9 15 5 38 2 47 -7 23z"/>
<path d="M4663 2023 c9 -2 23 -2 30 0 6 3 -1 5 -18 5 -16 0 -22 -2 -12 -5z"/>
<path d="M4715 2020 c-3 -6 1 -7 9 -4 18 7 21 14 7 14 -6 0 -13 -4 -16 -10z"/>
<path d="M4359 2003 c-13 -16 -12 -17 4 -4 9 7 17 15 17 17 0 8 -8 3 -21 -13z"/>
<path d="M4614 1995 c-9 -14 -15 -27 -13 -30 3 -2 12 10 21 26 21 36 15 39 -8
4z"/>
<path d="M4514 1978 l-19 -21 26 17 c15 9 35 14 45 10 16 -5 16 -4 4 5 -22 16
-35 13 -56 -11z"/>
<path d="M520 1975 c0 -9 6 -12 15 -9 8 4 12 10 9 15 -8 14 -24 10 -24 -6z"/>
<path d="M4730 1935 c-7 -8 -10 -22 -6 -31 10 -25 -21 -75 -42 -67 -15 6 -15
5 -4 -10 17 -21 8 -54 -26 -89 -14 -16 -21 -28 -14 -28 6 0 14 4 17 10 3 5 16
15 28 20 15 8 13 3 -8 -14 -16 -14 -34 -24 -40 -23 -5 2 -31 -9 -57 -24 -56
-33 -163 -72 -240 -88 -32 -7 -60 -17 -63 -22 -4 -5 -18 -9 -33 -9 -24 -1 -25
-2 -9 -11 64 -37 431 98 538 198 51 47 78 106 65 139 -6 16 -8 16 -16 4 -6 -8
-10 -19 -10 -25 0 -5 5 -3 10 5 8 12 10 11 10 -5 0 -27 -29 -67 -42 -59 -6 4
-8 3 -5 -3 3 -5 -7 -25 -23 -44 l-30 -34 26 52 c30 58 44 143 25 143 -7 0 -21
-5 -32 -10 -22 -12 -27 8 -7 28 7 7 9 12 6 12 -3 0 -11 -7 -18 -15z"/>
<path d="M4601 1919 c-1 -9 7 -23 17 -30 15 -12 16 -12 6 1 -6 8 -14 22 -17
30 -5 13 -6 12 -6 -1z"/>
<path d="M4274 1874 c-18 -14 -18 -15 4 -4 12 6 22 13 22 15 0 8 -5 6 -26 -11z"/>
<path d="M4529 1858 c-17 -24 -18 -29 -6 -19 18 14 42 51 33 51 -3 0 -15 -15
-27 -32z"/>
<path d="M30 1842 c0 -29 15 -59 49 -96 22 -24 23 -27 5 -18 -11 6 -26 18 -33
26 -8 9 -17 14 -21 11 -5 -3 -12 0 -16 6 -5 8 -3 9 7 4 11 -7 11 -5 -1 11 -8
10 -15 20 -16 22 0 1 -1 -16 -2 -38 -2 -37 2 -43 33 -61 19 -12 35 -23 35 -26
0 -3 -16 4 -35 16 l-35 20 0 -74 c0 -83 -10 -73 94 -95 49 -11 86 -6 86 11 0
5 9 9 19 9 11 0 23 5 26 10 4 6 18 10 33 10 56 0 103 13 113 31 7 15 6 19 -6
19 -8 0 -57 20 -108 45 -76 38 -87 41 -62 19 17 -14 57 -39 90 -54 33 -16 53
-29 44 -30 -25 0 -127 56 -179 98 -62 51 -90 82 -106 117 -12 27 -13 28 -14 7z"/>
<path d="M748 1802 c29 -40 81 -87 88 -79 9 9 -45 70 -79 90 l-28 17 19 -28z"/>
<path d="M4501 1804 c-1 -16 -21 -30 -90 -62 -49 -22 -128 -53 -174 -67 -47
-14 -91 -33 -98 -41 -11 -13 -9 -15 12 -10 13 3 67 15 119 27 139 31 247 99
237 151 -4 21 -4 21 -6 2z"/>
<path d="M4575 1776 c-22 -12 -60 -35 -85 -52 -25 -17 -74 -47 -110 -65 -116
-62 -82 -72 71 -23 124 40 203 103 186 148 -8 19 -12 19 -62 -8z"/>
<path d="M5106 1743 c-6 -14 -5 -15 5 -6 7 7 10 15 7 18 -3 3 -9 -2 -12 -12z"/>
<path d="M5056 1723 c-16 -31 -66 -80 -108 -106 -41 -26 -43 -21 -8 23 18 23
30 43 28 45 -2 3 -19 -16 -36 -40 -33 -47 -147 -128 -169 -121 -6 3 -62 -13
-125 -35 -62 -21 -122 -39 -133 -38 -14 0 -11 3 10 11 74 24 135 51 135 59 0
13 -81 1 -200 -29 -70 -18 -96 -28 -77 -30 15 -2 27 -8 27 -14 0 -6 17 -8 43
-4 23 3 33 3 22 0 -34 -10 -44 -28 -11 -20 15 4 42 9 60 12 23 3 19 0 -14 -11
-25 -8 -55 -14 -67 -12 -36 6 -28 -28 12 -52 19 -11 19 -12 -4 -5 -16 4 -21 3
-17 -5 11 -18 37 -13 72 14 29 22 37 24 56 14 13 -7 29 -20 36 -31 7 -10 21
-18 30 -17 12 0 10 3 -7 10 -20 8 -21 12 -10 25 22 26 47 36 68 24 13 -7 22
-7 26 0 3 5 1 10 -6 10 -8 0 -10 12 -6 36 6 35 6 35 -26 30 -30 -6 -31 -5 -7
5 14 6 30 12 35 13 6 1 21 9 34 18 14 10 34 15 46 12 29 -7 170 65 229 118 40
34 97 118 81 118 -2 0 -11 -12 -19 -27z m-541 -243 c-27 -10 -63 -18 -80 -19
-20 0 -9 6 35 18 85 24 108 24 45 1z"/>
<path d="M4028 1693 c7 -3 16 -2 19 1 4 3 -2 6 -13 5 -11 0 -14 -3 -6 -6z"/>
<path d="M4155 1684 c10 -10 21 -10 56 1 l44 13 -56 -1 c-45 -1 -54 -4 -44
-13z"/>
<path d="M5096 1665 c-24 -44 -152 -155 -180 -155 -5 0 12 14 37 31 43 28 137
127 137 143 0 4 -14 -9 -31 -29 -17 -19 -35 -33 -39 -30 -5 3 -32 -15 -62 -41
-29 -25 -66 -48 -82 -51 -23 -5 -25 -8 -12 -15 9 -5 23 -23 32 -40 14 -28 14
-32 0 -47 -13 -13 -20 -13 -36 -3 -12 7 -20 8 -20 2 0 -10 29 -18 72 -18 19 0
25 4 21 14 -7 18 28 19 45 2 10 -10 17 -10 32 0 11 6 29 12 40 12 12 0 32 12
45 28 20 22 24 38 25 87 l0 59 -42 -39 -43 -40 43 46 c37 40 43 51 40 83 l-3
37 -19 -36z"/>
<path d="M728 1553 c7 -3 16 -2 19 1 4 3 -2 6 -13 5 -11 0 -14 -3 -6 -6z"/>
<path d="M5 1540 c-4 -6 12 -10 42 -9 36 0 43 3 28 9 -28 12 -63 12 -70 0z"/>
<path d="M562 1528 c-7 -7 -12 -17 -12 -22 0 -6 5 -3 11 7 5 9 18 17 28 17 10
0 25 -8 34 -17 14 -16 14 -21 -3 -58 -25 -51 -25 -67 0 -118 15 -31 16 -37 4
-22 -21 26 -54 96 -54 117 0 11 -17 22 -51 33 -47 16 -51 16 -70 -1 -23 -21
-24 -32 -4 -54 14 -15 14 -19 -1 -30 -19 -17 -51 -1 -46 22 1 9 -4 20 -11 26
-19 16 -57 3 -57 -19 0 -12 -7 -19 -20 -19 -11 0 -20 7 -20 15 0 13 -4 14 -21
4 -18 -9 -27 -7 -51 11 -19 14 -40 20 -61 18 -28 -3 -32 -6 -30 -31 2 -25 -1
-27 -20 -21 -12 4 -41 8 -65 8 -39 1 -42 -1 -42 -26 0 -34 12 -41 71 -44 39
-2 52 2 70 22 19 20 29 23 54 18 16 -3 38 -13 47 -21 9 -8 22 -12 28 -8 6 4
16 3 23 -3 7 -5 34 -8 60 -7 38 2 50 -2 58 -17 5 -10 18 -18 29 -18 10 0 28
-14 40 -30 12 -17 35 -37 51 -46 66 -34 270 -56 354 -39 45 9 95 42 95 62 0 7
6 13 14 13 8 0 16 6 19 13 3 7 -16 20 -49 33 -29 12 -51 17 -48 13 3 -5 -2 -9
-12 -9 -9 0 -32 16 -50 36 -27 28 -34 32 -34 17 0 -20 39 -61 75 -81 26 -15 0
-15 -28 -1 -12 6 -32 21 -45 33 -13 11 -26 19 -29 16 -4 -3 -13 10 -22 27 -18
37 -32 44 -24 12 5 -19 4 -20 -16 -10 -46 25 -7 -40 43 -70 17 -10 25 -19 17
-19 -7 0 -34 20 -58 44 -39 39 -44 49 -41 83 2 21 8 37 14 36 6 -1 11 5 11 13
0 10 -12 14 -40 14 -36 0 -39 2 -34 22 4 15 -1 30 -15 45 -24 25 -48 29 -66
11z m394 -243 c10 -8 14 -15 8 -15 -5 0 -19 7 -30 15 -10 8 -14 15 -8 15 5 0
19 -7 30 -15z"/>
<path d="M4206 1502 c-2 -4 4 -9 15 -9 11 -1 17 2 14 8 -7 11 -22 12 -29 1z"/>
<path d="M5 1481 c3 -6 22 -11 42 -11 44 0 41 5 -10 14 -27 5 -37 4 -32 -3z"/>
<path d="M989 1388 c44 -48 112 -76 144 -59 21 11 21 11 -5 8 -16 -3 -28 0
-28 5 0 5 -8 8 -17 7 -22 -4 -58 15 -98 50 -26 22 -25 21 4 -11z"/>
<path d="M4335 1413 c11 -3 29 -12 40 -22 20 -16 20 -16 1 7 -11 12 -29 21
-40 21 -20 -1 -20 -2 -1 -6z"/>
<path d="M875 1350 c9 -16 18 -30 21 -30 2 0 -2 14 -11 30 -9 17 -18 30 -21
30 -2 0 2 -13 11 -30z"/>
<path d="M1250 1346 c0 -2 8 -10 18 -17 15 -13 16 -12 3 4 -13 16 -21 21 -21
13z"/>
<path d="M2955 1290 c3 -5 10 -10 16 -10 5 0 9 5 9 10 0 6 -7 10 -16 10 -8 0
-12 -4 -9 -10z"/>
<path d="M4191 1280 c14 -31 19 -36 19 -24 0 6 -7 19 -16 30 -14 18 -14 18 -3
-6z"/>
<path d="M1145 1280 c-12 -4 -27 -16 -35 -26 -14 -18 -14 -18 5 -2 11 9 36 21
55 26 19 6 26 10 15 10 -11 1 -29 -3 -40 -8z"/>
<path d="M1225 1272 c31 -14 83 -24 65 -13 -8 5 -31 11 -50 15 -24 4 -28 3
-15 -2z"/>
<path d="M1405 1270 c-3 -5 -1 -10 6 -10 7 0 21 -8 33 -17 20 -18 20 -18 0 9
-21 30 -29 34 -39 18z"/>
<path d="M1614 1254 c-18 -14 -18 -14 6 -3 31 14 36 19 24 19 -6 0 -19 -7 -30
-16z"/>
<path d="M3004 1256 c-11 -28 6 -39 52 -32 35 4 44 3 44 -9 0 -12 5 -13 25 -3
19 9 34 9 58 0 18 -6 58 -14 90 -18 31 -3 60 -11 64 -17 6 -10 -31 -7 -140 10
l-38 6 3 -34 c3 -29 6 -34 27 -31 13 1 32 -5 43 -14 40 -37 59 -40 105 -19 50
24 53 33 13 42 -16 3 -30 10 -30 15 0 5 8 7 19 3 10 -3 52 -7 93 -9 44 -3 89
-11 108 -21 25 -13 62 -18 147 -19 112 -2 113 -2 85 16 -15 9 -61 22 -102 28
-115 17 -157 28 -224 59 -54 26 -79 30 -221 41 -88 6 -172 13 -188 16 -19 4
-29 1 -33 -10z"/>
<path d="M97 1253 c-30 -29 24 -92 114 -133 24 -11 37 -20 29 -20 -33 0 -100
40 -151 90 -44 43 -55 49 -58 34 -2 -11 11 -31 33 -51 45 -41 32 -43 -19 -3
-21 17 -39 30 -41 30 -2 0 -4 -46 -4 -102 l0 -103 222 3 c166 2 236 7 273 18
58 18 207 85 201 91 -2 2 -58 -10 -124 -27 -67 -16 -142 -30 -169 -29 -46 1
-45 2 37 21 103 23 133 35 125 48 -3 6 -20 10 -36 10 -17 0 -40 5 -52 12 -21
10 -21 10 -7 -7 14 -17 14 -17 -7 -7 -12 7 -25 17 -28 22 -4 6 -10 8 -15 5
-14 -9 -50 13 -50 30 0 19 -46 49 -60 40 -7 -4 -9 -17 -6 -29 5 -20 5 -20 -9
-2 -8 11 -15 24 -15 29 0 4 -8 6 -19 2 -10 -3 -24 1 -31 10 -16 20 -37 19 -48
-2 -10 -17 -22 -14 -58 12 -11 8 -24 12 -27 8z m190 -159 c-3 -3 -12 -4 -19
-1 -8 3 -5 6 6 6 11 1 17 -2 13 -5z"/>
<path d="M1474 1224 c-18 -14 -18 -14 6 -3 31 14 36 19 24 19 -6 0 -19 -7 -30
-16z"/>
<path d="M1574 1229 c-3 -6 -17 -8 -32 -4 -22 5 -24 4 -13 -9 10 -11 18 -13
31 -6 19 10 36 30 26 30 -3 0 -8 -5 -12 -11z"/>
<path d="M1090 1209 c0 -5 5 -7 10 -4 6 3 10 8 10 11 0 2 -4 4 -10 4 -5 0 -10
-5 -10 -11z"/>
<path d="M4050 1200 c-9 -6 -10 -10 -3 -10 6 0 15 5 18 10 8 12 4 12 -15 0z"/>
<path d="M1020 1149 c0 -5 5 -7 10 -4 6 3 10 8 10 11 0 2 -4 4 -10 4 -5 0 -10
-5 -10 -11z"/>
<path d="M1647 1099 c7 -7 15 -10 18 -7 3 3 -2 9 -12 12 -14 6 -15 5 -6 -5z"/>
<path d="M4193 1095 c5 -11 0 -13 -22 -9 -59 12 -92 -36 -54 -78 13 -14 13
-18 2 -18 -22 1 -93 35 -108 53 -14 18 -41 23 -41 9 0 -5 14 -28 30 -50 17
-23 28 -42 26 -42 -2 0 -43 11 -90 25 -109 32 -139 32 -63 1 78 -32 83 -40 20
-33 -29 3 -67 2 -85 -4 -18 -5 -103 -12 -188 -15 -168 -7 -166 -7 -195 49 -5
11 -16 22 -23 23 -7 1 -8 0 -2 -3 6 -3 15 -16 20 -29 10 -26 114 -106 175
-135 22 -10 76 -32 120 -49 l79 -31 70 22 c38 13 64 25 56 27 -7 3 1 11 20 18
18 8 31 16 29 18 -2 2 -75 -1 -161 -7 -154 -11 -158 -10 -205 12 -26 12 -59
31 -73 42 l-25 21 163 -7 c214 -8 383 7 626 56 198 39 235 49 182 49 -15 0
-40 7 -56 15 -16 8 -33 14 -37 13 -16 -5 -99 26 -130 49 -36 26 -68 31 -60 8z
m-350 -302 c-7 -2 -21 -2 -30 0 -10 3 -4 5 12 5 17 0 24 -2 18 -5z"/>
<path d="M4930 1045 c-8 -10 -30 -15 -61 -15 -27 0 -49 -4 -49 -10 0 -5 -12
-10 -26 -10 -14 0 -43 -13 -64 -30 -44 -35 -55 -38 -40 -11 5 11 10 23 10 26
0 13 -47 -10 -115 -55 -70 -47 -147 -90 -162 -90 -4 0 19 16 52 34 33 19 78
51 100 71 67 60 26 45 -228 -89 -124 -65 -180 -77 -65 -13 178 97 163 121 -18
27 -111 -58 -220 -101 -253 -99 -9 0 13 10 49 23 76 27 172 75 150 76 -27 0
-212 -61 -261 -86 -25 -14 -66 -28 -90 -32 l-44 -8 53 -12 c75 -17 287 -15
406 4 126 20 308 74 405 121 48 23 90 53 122 86 45 47 51 50 70 39 24 -16 42
-5 65 40 16 31 13 36 -6 13z"/>
<path d="M170 964 c-52 -13 -113 -27 -135 -31 l-40 -7 41 -4 c23 -2 78 8 130
23 132 39 189 42 243 13 26 -14 52 -38 62 -58 11 -19 19 -27 19 -19 0 25 -38
68 -81 89 -49 26 -115 24 -239 -6z"/>
<path d="M2887 943 c-95 -114 -184 -190 -283 -240 -109 -56 -280 -114 -316
-107 -22 4 -22 4 1 -6 14 -6 32 -16 40 -23 14 -10 14 -10 3 4 -11 15 -6 18 50
24 198 20 288 49 525 167 107 53 149 69 167 64 20 -5 24 -3 20 8 -3 9 1 30 10
47 9 18 16 38 16 46 0 17 -41 17 -66 -2 -27 -21 -35 -18 -28 9 9 35 -12 41
-47 12 -38 -32 -48 -33 -42 -2 8 41 -16 40 -50 -1z"/>
<path d="M5088 948 c-8 -13 -18 -35 -22 -51 -3 -15 -20 -42 -37 -60 l-31 -32
26 36 c29 40 43 93 27 103 -5 4 -21 4 -35 0 -22 -5 -24 -9 -15 -26 14 -25 4
-52 -17 -44 -23 9 -64 -4 -64 -20 0 -8 -6 -14 -13 -14 -7 0 -31 -15 -53 -33
-71 -61 -224 -157 -250 -157 -4 0 18 18 49 41 32 22 57 45 57 50 0 6 -3 9 -7
7 -5 -2 -87 -42 -183 -90 -182 -90 -309 -139 -420 -162 l-65 -13 75 -7 c46 -5
142 -1 250 8 96 9 263 16 371 16 188 0 253 6 347 31 l42 12 0 69 c0 76 2 73
-55 53 -13 -4 -6 6 18 28 26 24 37 42 37 63 l0 28 -32 -30 c-18 -17 -46 -40
-62 -52 -16 -12 -25 -22 -21 -22 16 0 -31 -43 -67 -61 -54 -27 -47 -18 13 20
28 17 50 34 47 36 -2 3 -57 -18 -121 -46 -65 -28 -123 -49 -130 -46 -6 2 6 10
28 17 108 35 250 126 317 204 24 27 27 40 28 99 0 70 -8 82 -32 45z m-178
-184 c-8 -8 -34 -29 -58 -46 -54 -38 -48 -46 14 -19 26 12 49 19 52 16 13 -13
-266 -115 -316 -115 -37 0 -33 18 6 24 73 13 168 57 237 110 68 52 92 63 65
30z"/>
<path d="M3265 930 c-3 -6 1 -7 9 -4 18 7 21 14 7 14 -6 0 -13 -4 -16 -10z"/>
<path d="M3311 924 c6 -7 17 -10 25 -7 20 7 18 10 -11 15 -20 4 -23 2 -14 -8z"/>
<path d="M3188 923 c7 -3 16 -2 19 1 4 3 -2 6 -13 5 -11 0 -14 -3 -6 -6z"/>
<path d="M30 865 c-6 -8 -10 -20 -7 -27 4 -9 6 -8 6 3 1 9 11 21 24 27 16 8
17 11 6 11 -9 1 -22 -6 -29 -14z"/>
<path d="M541 876 c2 -2 15 -9 29 -15 24 -11 24 -11 6 3 -16 13 -49 24 -35 12z"/>
<path d="M3678 873 c18 -2 45 -2 60 0 15 2 0 4 -33 4 -33 0 -45 -2 -27 -4z"/>
<path d="M432 850 c14 -22 24 -19 15 5 -4 8 -11 15 -17 15 -6 0 -6 -7 2 -20z"/>
<path d="M221 829 c-67 -30 -76 -40 -49 -53 13 -6 24 -20 26 -30 3 -16 1 -16
-26 4 -38 28 -56 20 -36 -18 17 -33 4 -41 -31 -18 -32 21 -68 20 -88 -2 -14
-15 -17 -40 -17 -119 0 -88 3 -104 22 -129 l22 -29 -22 19 -22 19 0 -40 c0
-45 18 -60 49 -41 15 9 28 4 77 -29 32 -22 88 -55 124 -73 62 -31 192 -80 214
-80 5 0 -54 45 -132 100 -78 56 -168 126 -199 156 l-58 55 80 -63 c134 -107
273 -186 336 -194 14 -2 82 -14 150 -28 68 -13 142 -27 164 -30 38 -5 37 -4
-24 25 -128 59 -253 144 -285 194 -11 17 3 10 48 -24 117 -89 246 -140 281
-111 13 11 4 20 -59 62 -41 27 -99 73 -129 102 -53 51 -97 116 -78 116 5 0 12
-9 16 -19 19 -60 239 -219 437 -316 174 -86 236 -97 355 -66 117 30 134 28
182 -18 35 -34 54 -42 131 -60 241 -57 456 -72 1231 -87 305 -6 386 -1 629 35
36 6 153 9 260 9 151 -2 215 2 284 16 123 24 273 75 424 145 146 68 262 110
415 152 108 29 174 56 164 66 -8 8 -239 -35 -299 -56 -29 -10 -134 -59 -234
-108 -169 -84 -380 -170 -390 -160 -2 2 53 30 123 61 71 32 185 89 254 127 85
46 155 77 215 93 91 24 92 26 8 40 -17 3 -41 2 -53 -1 -17 -4 -19 -8 -10 -19
15 -19 4 -30 -15 -15 -19 16 -94 4 -128 -20 -39 -28 -52 -24 -44 11 5 25 2 30
-15 30 -11 0 -18 -4 -15 -9 11 -16 -108 -116 -155 -130 -24 -8 -85 -31 -136
-52 -146 -61 -293 -107 -430 -135 -117 -24 -142 -26 -283 -20 -172 6 -326 30
-530 81 -305 76 -572 199 -557 256 3 10 -1 23 -9 30 -11 9 -14 7 -14 -9 0 -11
5 -33 10 -48 6 -15 8 -29 6 -31 -3 -3 -27 16 -54 42 -32 29 -53 42 -57 35 -4
-7 -19 -9 -36 -5 -46 10 -39 -29 16 -82 25 -24 43 -43 40 -43 -4 0 -31 23 -61
51 -30 29 -54 47 -54 41 0 -11 45 -69 70 -90 31 -25 159 -83 270 -122 143 -49
121 -52 -35 -5 -134 41 -224 80 -289 125 -25 17 -46 26 -46 20 0 -12 117 -100
133 -100 6 0 8 -3 4 -6 -7 -7 -88 28 -154 69 -39 23 -53 37 -53 54 0 30 -86
96 -108 84 -12 -7 -26 0 -54 25 -55 49 -101 45 -117 -12 l-8 -29 -15 35 c-8
19 -24 43 -36 53 -27 25 -81 25 -99 2 -26 -36 11 -95 60 -95 24 0 127 -54 127
-67 0 -2 -27 11 -60 28 -70 36 -103 33 -98 -9 2 -20 9 -27 25 -27 12 0 25 -4
29 -8 4 -4 2 -7 -4 -7 -7 0 -12 -9 -12 -19 0 -14 16 -27 53 -44 108 -51 372
-127 597 -172 93 -19 106 -23 69 -24 -148 -3 -678 136 -783 205 -13 9 -25 10
-42 2 -31 -14 -51 -5 -70 34 -9 18 -32 43 -51 56 -33 21 -37 22 -54 6 -17 -15
-20 -15 -44 0 -14 10 -25 26 -25 39 0 12 -7 33 -16 46 -14 19 -23 22 -50 18
-20 -4 -35 -1 -38 6 -2 7 -5 2 -5 -10 -1 -27 -8 -29 -33 -6 -12 11 -18 12 -18
4 0 -27 72 -79 213 -155 81 -43 145 -81 143 -83 -2 -3 -39 16 -83 40 -43 24
-115 63 -160 86 -50 25 -93 54 -110 76 -15 19 -31 35 -35 35 -12 0 -9 -35 4
-48 9 -9 8 -12 -7 -12 -38 1 -100 37 -143 84 -40 43 -43 50 -41 96 2 27 0 53
-4 57 -4 3 -7 -6 -7 -21 0 -35 -22 -42 -59 -20 -27 16 -31 24 -31 61 0 37 -6
48 -42 83 -47 44 -69 49 -95 21 -33 -36 -38 -46 -35 -68 2 -13 -1 -23 -7 -23
-6 0 -11 8 -11 18 0 11 -8 26 -18 35 -20 19 -62 23 -62 7 0 -16 -43 -29 -63
-18 -12 6 -15 16 -11 32 8 35 -19 53 -60 38 -43 -16 -66 -15 -86 3 -15 14 -20
13 -44 -6 -14 -11 -33 -34 -41 -49 -17 -33 -20 -106 -5 -145 6 -15 6 -24 1
-20 -5 3 -14 28 -20 56 -15 67 -1 118 45 168 39 44 42 56 15 71 -30 15 -71 12
-120 -11z m262 -242 c14 -32 21 -55 16 -51 -13 8 -48 83 -49 103 0 20 3 14 33
-52z m512 -205 c90 -62 109 -78 82 -68 -20 7 -187 126 -187 133 0 6 14 -3 105
-65z m-79 -34 c9 -14 -59 31 -96 63 -26 23 -19 20 28 -12 35 -23 65 -46 68
-51z m30 -26 c-2 -4 27 -20 65 -36 81 -33 87 -47 8 -16 -63 24 -137 64 -100
54 17 -4 21 -3 16 6 -5 9 -4 11 4 6 6 -4 9 -11 7 -14z m309 -50 c-5 -6 -114
49 -121 60 -3 5 24 -6 60 -24 36 -17 63 -34 61 -36z m1190 -32 c128 -45 130
-54 2 -11 -75 26 -132 50 -117 51 3 0 55 -18 115 -40z m-1325 0 c8 -5 11 -10
5 -10 -5 0 -17 5 -25 10 -8 5 -10 10 -5 10 6 0 17 -5 25 -10z m480 -50 c8 -5
11 -10 5 -10 -5 0 -17 5 -25 10 -8 5 -10 10 -5 10 6 0 17 -5 25 -10z m1005 0
c13 -5 14 -9 5 -9 -8 0 -24 4 -35 9 -13 5 -14 9 -5 9 8 0 24 -4 35 -9z m52
-16 c-3 -3 -12 -4 -19 -1 -8 3 -5 6 6 6 11 1 17 -2 13 -5z m-950 -20 c-3 -3
-12 -4 -19 -1 -8 3 -5 6 6 6 11 1 17 -2 13 -5z m46 -11 c-7 -2 -19 -2 -25 0
-7 3 -2 5 12 5 14 0 19 -2 13 -5z m50 -10 c-7 -2 -19 -2 -25 0 -7 3 -2 5 12 5
14 0 19 -2 13 -5z m864 -9 c-3 -3 -12 -4 -19 -1 -8 3 -5 6 6 6 11 1 17 -2 13
-5z m-39 -53 c114 -17 223 -32 242 -35 19 -2 -10 -2 -65 1 -99 5 -466 60 -412
62 16 1 121 -12 235 -28z m205 2 c-7 -2 -21 -2 -30 0 -10 3 -4 5 12 5 17 0 24
-2 18 -5z m482 -24 c89 -6 63 -6 -100 -3 -121 3 -247 9 -280 13 -72 9 204 2
380 -10z"/>
<path d="M3447 844 c-3 -3 -2 -17 4 -31 12 -33 12 -34 -17 -23 -33 13 -34 13
-34 -7 -1 -14 -6 -11 -25 12 -15 17 -25 24 -25 16 0 -11 -4 -9 -14 5 -14 18
-15 18 -21 1 -4 -9 -5 -27 -2 -40 l6 -22 -19 23 c-22 27 -28 27 -57 3 -33 -28
-28 -47 18 -81 143 -103 468 -142 738 -87 l64 12 -141 13 c-276 24 -369 57
-429 154 -39 63 -37 61 -46 52z"/>
<path d="M511 836 c3 -3 22 -17 44 -31 l40 -26 -33 31 c-18 16 -37 30 -44 30
-6 0 -9 -2 -7 -4z"/>
<path d="M21 799 c-1 -19 26 -45 36 -35 3 3 1 6 -6 6 -6 0 -16 10 -21 23 -6
15 -9 17 -9 6z"/>
<path d="M741 801 c-10 -6 0 -8 27 -4 50 7 95 -10 124 -46 14 -17 19 -19 15
-8 -4 10 -7 20 -7 23 0 2 -18 13 -40 24 -41 21 -95 26 -119 11z"/>
<path d="M3025 792 c-11 -4 -40 -19 -65 -34 -53 -32 -354 -168 -371 -168 -7 0
-10 -3 -7 -6 18 -17 459 132 493 167 20 20 20 20 1 35 -21 15 -21 15 -51 6z"/>
<path d="M3580 797 c0 -3 5 -18 11 -34 l10 -28 -24 23 c-24 23 -40 21 -30 -4
7 -19 66 -51 126 -68 99 -28 300 -44 357 -29 18 5 2 10 -62 19 -48 7 -127 27
-175 44 -48 17 -97 33 -108 37 l-20 6 20 -23 c23 -27 11 -21 -57 28 -27 19
-48 31 -48 29z"/>
<path d="M2983 684 c-72 -30 -216 -78 -320 -109 -191 -56 -190 -61 7 -30 182
28 360 65 415 86 49 18 56 24 51 43 -3 11 -6 31 -6 44 0 12 -3 21 -7 21 -5 -1
-67 -26 -140 -55z"/>
<path d="M3178 733 c-25 -6 -22 -45 4 -62 l22 -13 -26 -14 c-41 -22 -281 -104
-286 -99 -3 3 -1 5 4 5 6 0 19 6 30 14 15 11 -1 10 -74 -5 -51 -10 -134 -24
-185 -29 -51 -6 -129 -18 -175 -26 -46 -9 -90 -13 -98 -10 -29 11 -2 -14 43
-41 43 -25 53 -26 147 -24 122 3 203 20 343 73 57 21 109 38 115 36 21 -7
-148 -76 -242 -99 l-95 -23 73 -15 c108 -20 80 -25 -43 -6 -66 10 -112 12
-117 7 -15 -15 99 -32 301 -44 206 -13 540 0 691 27 197 35 225 42 222 53 -1
7 10 12 27 12 17 0 33 5 36 10 3 6 1 10 -4 10 -6 0 -11 9 -11 20 0 25 8 25 36
-1 25 -24 98 -37 108 -20 5 7 -5 11 -31 11 -60 0 -73 17 -14 18 69 2 162 25
279 68 102 38 293 131 327 159 19 15 18 15 -12 0 -18 -8 -37 -15 -44 -15 -6 0
-33 -11 -61 -25 -58 -29 -70 -31 -61 -9 4 11 -14 6 -63 -19 -111 -55 -357
-127 -438 -127 -49 0 -176 -23 -176 -31 0 -5 19 -10 43 -10 26 -1 33 -3 17 -6
-14 -2 -47 -11 -74 -19 -27 -8 -66 -14 -85 -13 l-36 1 45 16 c33 12 39 17 24
20 -11 1 -73 -16 -138 -38 -65 -23 -120 -40 -122 -37 -2 2 44 22 102 43 63 23
98 40 86 42 -25 4 -279 -61 -326 -83 -19 -9 -45 -15 -58 -13 -36 5 129 62 256
88 60 12 120 20 133 17 13 -2 43 1 66 8 38 11 18 13 -185 20 -202 6 -233 5
-283 -10 -58 -19 -84 -13 -51 10 37 27 112 34 300 28 138 -5 186 -3 186 5 0 7
-13 12 -29 12 -40 0 -154 25 -222 48 -76 27 -118 49 -154 81 -16 15 -38 26
-47 24z m-301 -199 c-3 -3 -12 -4 -19 -1 -8 3 -5 6 6 6 11 1 17 -2 13 -5z
m-40 -10 c-3 -3 -12 -4 -19 -1 -8 3 -5 6 6 6 11 1 17 -2 13 -5z m-54 -11 c-7
-2 -19 -2 -25 0 -7 3 -2 5 12 5 14 0 19 -2 13 -5z m-65 -10 c-10 -2 -28 -2
-40 0 -13 2 -5 4 17 4 22 1 32 -1 23 -4z m557 -3 c4 -6 -20 -10 -65 -10 -40 0
-99 -7 -132 -16 -33 -8 -62 -13 -65 -11 -5 6 119 35 167 40 70 7 89 7 95 -3z
m-285 -85 c-14 -8 -29 -14 -35 -14 -5 0 1 6 15 14 14 8 30 14 35 14 6 0 -1 -6
-15 -14z"/>
<path d="M940 710 c-11 -7 -7 -9 15 -5 33 6 46 0 63 -30 10 -17 11 -17 12 -3
0 19 -36 48 -60 48 -8 0 -22 -5 -30 -10z"/>
<path d="M1130 693 c0 -12 -4 -25 -10 -28 -13 -8 -13 -45 0 -65 7 -11 8 -5 4
18 -5 24 -2 38 11 53 14 15 16 22 7 31 -9 9 -12 7 -12 -9z"/>
<path d="M4233 645 c-114 -37 -217 -60 -361 -80 l-97 -13 71 -1 c132 -2 363
51 472 108 51 27 34 24 -85 -14z"/>
<path d="M1226 646 c24 -18 13 -31 -15 -16 -20 10 -61 0 -61 -16 0 -2 9 0 20
6 15 8 27 7 50 -5 28 -15 30 -14 30 3 0 20 -18 42 -34 42 -5 0 -1 -6 10 -14z"/>
<path d="M1022 630 c0 -14 2 -19 5 -12 2 6 2 18 0 25 -3 6 -5 1 -5 -13z"/>
<path d="M1140 576 c0 -2 9 -6 20 -9 11 -3 18 -1 14 4 -5 9 -34 13 -34 5z"/>
<path d="M1026 551 c-12 -18 30 -97 64 -121 l33 -24 -6 23 c-4 15 1 29 14 42
24 24 24 29 -1 29 -28 0 -77 26 -88 46 -6 11 -11 13 -16 5z"/>
<path d="M2478 543 c7 -3 16 -2 19 1 4 3 -2 6 -13 5 -11 0 -14 -3 -6 -6z"/>
<path d="M2408 533 c6 -2 18 -2 25 0 6 3 1 5 -13 5 -14 0 -19 -2 -12 -5z"/>
<path d="M1290 519 c-24 -10 -40 -26 -40 -41 0 -5 9 1 20 12 21 21 77 27 98
10 8 -6 7 -5 0 4 -19 20 -49 26 -78 15z"/>
<path d="M2358 523 c6 -2 18 -2 25 0 6 3 1 5 -13 5 -14 0 -19 -2 -12 -5z"/>
<path d="M1772 500 c7 -10 14 -18 15 -16 6 6 -9 36 -18 36 -5 0 -4 -9 3 -20z"/>
<path d="M1495 390 c-10 -16 15 -40 41 -40 28 0 31 12 8 34 -18 18 -40 21 -49
6z"/>
<path d="M4048 352 c-42 -37 -81 -47 -98 -27 -11 13 -14 13 -26 -2 -12 -17
-13 -16 -8 3 5 19 -1 18 -72 -18 -43 -21 -83 -43 -89 -47 -17 -14 -64 -19 -69
-7 -2 6 -5 4 -5 -5 -1 -11 -12 -18 -33 -21 -18 -3 -42 -8 -53 -13 -11 -4 -6 2
10 12 33 22 62 53 49 53 -21 0 -162 -45 -193 -61 -23 -12 -54 -19 -86 -18
l-50 1 50 9 c74 12 95 18 95 29 0 8 -44 9 -310 9 -63 0 -155 5 -204 11 -49 6
-90 9 -93 7 -8 -8 281 -99 425 -133 260 -63 445 -56 666 23 106 38 256 118
299 159 42 41 49 64 13 40 -14 -9 -32 -13 -41 -10 -10 4 -35 -12 -73 -49 -32
-30 -81 -66 -110 -81 -66 -33 -81 -34 -22 0 53 30 100 73 100 91 0 23 -24 13
-90 -38 -127 -97 -236 -130 -450 -134 l-135 -3 130 8 c257 16 393 70 480 191
19 27 33 49 30 49 -2 0 -19 -13 -37 -28z"/>
<path d="M2500 360 c8 -5 20 -10 25 -10 6 0 3 5 -5 10 -8 5 -19 10 -25 10 -5
0 -3 -5 5 -10z"/>
<path d="M3810 351 c0 -6 5 -13 10 -16 6 -3 10 1 10 9 0 9 -4 16 -10 16 -5 0
-10 -4 -10 -9z"/>
<path d="M4354 337 c-41 -46 -46 -61 -9 -25 22 21 37 40 34 43 -3 3 -14 -5
-25 -18z"/>
<path d="M2653 334 c14 -17 15 -23 5 -27 -9 -4 -9 -6 -1 -6 22 -2 23 16 0 35
l-22 19 18 -21z"/>
<path d="M2721 346 c4 -4 58 -18 120 -32 126 -27 404 -44 449 -27 17 7 -27 12
-160 16 -158 5 -285 19 -390 44 -14 3 -22 3 -19 -1z"/>
<path d="M33 316 c6 -20 185 -107 321 -157 72 -27 126 -48 119 -49 -27 0 -228
76 -342 131 -68 32 -125 59 -128 59 -2 0 -3 -10 -1 -22 6 -45 216 -139 433
-193 162 -41 441 -85 532 -84 66 1 63 2 -123 43 -286 64 -540 147 -712 232
-56 28 -101 46 -99 40z m484 -212 c-3 -3 -12 -4 -19 -1 -8 3 -5 6 6 6 11 1 17
-2 13 -5z"/>
<path d="M5028 288 c-54 -39 -59 -41 -84 -28 -23 13 -27 12 -42 -7 -34 -42
-88 -56 -94 -24 -3 17 -11 14 -78 -25 -72 -43 -257 -121 -265 -112 -2 2 35 30
83 61 48 32 101 69 117 83 30 25 30 25 4 15 -15 -5 -85 -39 -155 -75 -150 -75
-239 -107 -384 -135 -58 -11 -125 -25 -150 -30 -32 -6 36 -9 235 -10 265 -1
285 0 375 23 244 63 407 146 480 248 52 71 40 75 -42 16z"/>
<path d="M3440 289 l-85 -18 90 4 c50 2 115 11 145 18 l55 15 -60 0 c-33 0
-98 -9 -145 -19z"/>
<path d="M5062 195 c-68 -54 -228 -130 -345 -166 l-92 -28 161 0 161 -1 74 41
c101 55 101 54 97 131 l-3 65 -53 -42z"/>
<path d="M515 214 c27 -21 111 -59 213 -95 120 -42 125 -35 7 10 -55 21 -131
52 -170 70 -38 17 -61 24 -50 15z"/>
<path d="M788 161 c25 -22 108 -55 162 -65 19 -3 -3 8 -49 24 -46 16 -96 37
-110 45 l-26 16 23 -20z"/>
<path d="M15 141 c11 -5 36 -11 55 -15 l35 -6 -35 14 c-19 8 -44 15 -55 15
l-20 0 20 -8z"/>
<path d="M1560 89 c51 -23 246 -79 269 -78 9 0 -42 17 -114 38 -71 21 -143 43
-158 50 -47 19 -45 11 3 -10z"/>
<path d="M1078 93 c7 -3 16 -2 19 1 4 3 -2 6 -13 5 -11 0 -14 -3 -6 -6z"/>
<path d="M1035 80 c-3 -6 1 -7 9 -4 18 7 21 14 7 14 -6 0 -13 -4 -16 -10z"/>
<path d="M0 36 l0 -36 267 0 c146 0 264 2 262 4 -7 7 -204 34 -329 46 -63 6
-134 13 -157 16 l-43 5 0 -35z"/>
<path d="M5065 19 l-40 -18 48 -1 c40 0 47 3 47 20 0 24 -3 24 -55 -1z"/>
</g>
</svg>