<?xml version="1.0" standalone="no"?>
<!DOCTYPE svg PUBLIC "-//W3C//DTD SVG 20010904//EN"
 "http://www.w3.org/TR/2001/REC-SVG-20010904/DTD/svg10.dtd">
<svg version="1.0" xmlns="http://www.w3.org/2000/svg"
 width="512.000000pt" height="512.000000pt" viewBox="0 0 512.000000 512.000000"
 preserveAspectRatio="xMidYMid meet">
<metadata>
Created by potrace 1.16, written by Peter Selinger 2001-2019
</metadata>
<g transform="translate(0.000000,512.000000) scale(0.100000,-0.100000)"
fill="#000000" stroke="none">
<path d="M36 5081 c-21 -22 -37 -44 -35 -50 2 -6 23 12 47 39 51 59 43 67 -12
11z"/>
<path d="M205 5088 c4 -18 13 -50 20 -70 16 -48 9 -54 -80 -62 -103 -10 -145
-17 -145 -25 0 -4 51 -2 112 5 62 6 114 11 116 9 4 -3 27 -103 36 -155 6 -34
4 -37 -129 -159 -74 -68 -135 -130 -135 -139 0 -8 59 41 130 109 72 68 162
152 199 187 l69 62 31 -54 31 -55 -61 -103 c-33 -57 -70 -116 -82 -133 -11
-16 -24 -50 -28 -76 -7 -42 -86 -261 -109 -301 -6 -11 -6 -44 2 -95 8 -55 8
-97 2 -140 -8 -50 -7 -79 8 -154 10 -50 17 -94 14 -96 -2 -2 -49 19 -105 46
-56 28 -101 47 -101 41 0 -5 50 -35 111 -65 96 -49 109 -58 98 -71 -10 -13
-32 -15 -111 -12 -54 1 -98 0 -98 -3 0 -9 67 -19 131 -19 l56 0 -21 -45 -21
-44 -27 31 c-30 35 -38 27 -12 -11 9 -12 22 -44 29 -71 12 -45 11 -50 -8 -67
-11 -10 -31 -43 -44 -73 -14 -30 -38 -71 -54 -91 -26 -33 -29 -44 -28 -100 l1
-64 15 63 c8 34 19 62 23 62 5 0 21 20 36 45 14 25 30 45 36 45 5 0 7 9 3 20
-7 23 18 75 41 84 9 4 18 5 19 4 67 -88 91 -158 63 -186 -7 -7 -9 -12 -5 -12
12 0 -22 -90 -88 -234 -38 -80 -71 -146 -75 -146 -3 0 -19 26 -35 58 -18 36
-30 51 -32 40 -2 -9 7 -39 21 -66 l25 -50 -24 -6 c-14 -4 -25 -13 -25 -21 0
-11 5 -12 25 -5 21 8 32 3 82 -40 32 -28 63 -50 69 -50 6 0 19 -9 28 -19 16
-18 16 -20 -15 -42 -17 -12 -65 -37 -106 -54 -79 -35 -95 -45 -71 -45 8 0 56
20 107 45 51 25 96 45 100 45 4 0 15 -17 23 -37 62 -152 98 -244 98 -252 0 -9
-142 -81 -158 -81 -15 0 -182 -84 -182 -92 0 -5 22 3 48 16 26 13 86 40 132
59 47 19 111 46 143 61 31 14 57 24 57 22 0 -3 -4 -16 -10 -30 -7 -21 -25 -30
-97 -52 -48 -16 -118 -45 -154 -65 -37 -21 -78 -41 -93 -45 -14 -3 -26 -13
-26 -20 0 -10 7 -13 25 -8 22 5 24 3 18 -12 -3 -11 -15 -32 -26 -47 -26 -38
-17 -53 42 -67 28 -7 53 -15 55 -19 2 -3 -22 -22 -55 -41 -32 -19 -59 -41 -59
-48 0 -8 5 -10 12 -5 123 76 114 73 233 73 104 0 175 -11 250 -40 l29 -11 -89
-48 c-60 -32 -95 -58 -106 -77 -109 -196 -183 -325 -190 -330 -18 -11 -71 8
-105 38 -22 20 -34 25 -34 16 0 -20 28 -43 77 -65 l42 -18 -59 -79 c-33 -44
-60 -90 -60 -103 0 -12 22 -55 49 -95 69 -104 72 -111 65 -162 -6 -40 -11 -47
-33 -52 -52 -11 -75 -20 -78 -31 -3 -7 15 -6 49 4 43 13 61 14 96 4 24 -6 91
-14 150 -17 78 -4 127 -12 180 -31 39 -14 72 -27 72 -30 0 -52 -342 -433 -389
-433 -6 0 -11 -6 -11 -13 0 -7 -34 -35 -75 -62 -41 -28 -75 -56 -75 -63 0 -6
32 9 70 34 39 26 72 45 75 42 5 -5 -28 -147 -49 -205 -8 -24 -11 -43 -6 -43 9
0 50 119 65 190 l8 35 13 -40 c7 -22 22 -73 34 -113 12 -41 24 -71 27 -68 3 3
-11 66 -32 140 l-38 135 29 23 c16 13 52 43 81 68 99 87 179 139 189 125 5 -7
50 -61 101 -118 l92 -106 -37 -32 c-20 -17 -56 -49 -79 -70 l-42 -39 28 -53
c16 -30 31 -60 33 -68 3 -8 8 -11 12 -8 4 4 -6 34 -23 66 l-30 60 74 66 c40
37 78 67 83 67 5 0 30 -16 56 -36 26 -20 49 -34 52 -31 3 2 -18 21 -45 42 -28
21 -48 42 -45 47 3 5 52 44 108 88 57 43 108 86 115 94 11 13 21 6 74 -51 34
-36 64 -73 66 -82 2 -9 20 -69 41 -133 37 -116 37 -117 19 -145 -20 -30 -24
-53 -11 -53 5 0 14 10 21 22 l12 23 -5 -22 c-3 -15 1 -23 10 -23 8 0 14 10 15
23 l0 22 11 -23 c18 -35 30 -25 14 12 -14 33 -13 37 39 137 l53 103 80 16 81
17 61 -94 61 -93 -19 -28 c-11 -15 -32 -38 -46 -51 -29 -28 -33 -41 -11 -41 8
0 32 19 53 42 l39 41 23 -41 c13 -23 30 -42 38 -42 9 0 4 16 -17 53 -18 31
-27 57 -22 63 5 5 16 34 25 65 18 64 64 169 74 169 4 0 20 -27 36 -60 28 -59
29 -64 24 -175 -3 -63 -2 -115 2 -115 4 0 11 52 15 116 l7 115 -32 60 c-18 33
-30 62 -28 63 1 2 29 15 62 30 40 18 75 26 113 26 65 0 86 10 215 104 99 71
158 107 169 101 3 -2 23 -42 43 -90 l39 -85 -48 -123 c-27 -67 -66 -164 -87
-216 -22 -51 -37 -95 -34 -98 7 -7 31 43 81 173 60 156 97 245 100 242 2 -2
20 -40 40 -85 l37 -82 -32 -43 c-19 -24 -70 -80 -114 -125 -50 -52 -74 -83
-64 -83 15 0 133 124 198 208 l25 32 90 -35 90 -34 -2 -38 c-2 -21 -5 -59 -8
-85 -3 -28 -2 -48 4 -48 5 0 12 35 15 78 9 116 22 177 76 353 28 89 50 165 50
170 0 4 5 20 11 35 10 27 15 21 130 -174 l120 -202 -85 -127 c-47 -70 -83
-129 -81 -132 7 -6 5 -9 93 122 78 115 80 117 86 86 16 -81 9 -101 -55 -153
-63 -52 -75 -79 -13 -30 78 62 74 61 74 15 0 -22 4 -41 10 -41 5 0 7 50 4 130
l-5 131 38 -19 c21 -11 61 -27 88 -38 29 -10 85 -48 132 -87 l82 -69 -19 -21
c-31 -32 -13 -34 22 -1 l32 29 -17 -27 c-21 -33 -12 -36 19 -7 18 17 26 19 43
9 12 -6 19 -15 16 -21 -13 -21 34 -7 48 14 8 13 33 30 56 39 l41 16 31 -39
c17 -21 35 -39 41 -39 5 0 -4 18 -21 39 -17 21 -31 42 -31 46 0 3 57 34 128
67 142 67 266 137 258 145 -2 3 -39 -14 -81 -37 -85 -47 -387 -191 -392 -187
-5 6 39 112 67 162 16 30 30 73 34 107 6 52 10 61 56 104 35 33 51 57 56 83 4
20 19 50 33 67 14 17 41 52 58 77 18 26 37 47 42 47 6 0 15 -18 21 -40 6 -22
20 -56 32 -75 12 -21 18 -44 15 -57 -7 -26 5 -51 49 -101 23 -25 34 -47 34
-67 0 -17 7 -47 15 -66 14 -34 13 -37 -9 -67 -13 -18 -45 -69 -70 -115 -46
-81 -46 -83 -29 -107 10 -13 24 -25 31 -25 9 0 7 8 -7 26 -24 30 -30 11 52
150 21 34 43 66 50 72 10 9 34 -10 105 -81 l92 -92 -25 -38 c-30 -43 -17 -51
15 -10 l22 28 20 -28 c25 -34 46 -36 23 -1 -16 25 -16 26 27 72 47 51 101 127
164 234 21 37 41 68 44 68 3 0 27 -46 54 -101 46 -96 48 -104 42 -159 -9 -74
2 -140 22 -140 12 0 14 10 9 53 -3 28 -2 72 3 97 8 42 6 51 -44 150 -56 110
-122 293 -112 309 4 5 36 31 72 56 71 51 229 115 302 123 41 4 43 3 38 -19
-44 -194 -56 -249 -56 -254 0 -10 -118 -61 -200 -86 -41 -13 -68 -25 -59 -26
15 -4 204 59 248 82 25 13 26 17 73 243 l13 63 35 -6 c20 -3 47 -2 60 4 21 8
16 10 -32 10 l-58 1 11 27 c5 14 8 32 5 40 -3 7 -2 12 2 11 9 -2 92 76 92 87
0 4 -12 -1 -27 -10 l-26 -17 26 47 c15 26 27 51 27 55 0 3 -19 27 -41 51 -70
75 -189 217 -189 225 0 14 83 169 92 173 25 9 138 114 138 127 0 10 -24 -6
-62 -40 -34 -31 -63 -54 -66 -51 -3 2 25 78 62 168 36 91 66 175 66 188 l-1
24 -13 -25 c-8 -14 -48 -109 -89 -212 -125 -308 -156 -359 -232 -379 -54 -15
-269 -118 -369 -178 -58 -34 -96 -50 -133 -54 -54 -6 -111 -31 -178 -77 -22
-16 -64 -33 -94 -39 -49 -10 -57 -10 -74 7 -18 18 -17 20 28 53 99 73 105 79
105 112 0 18 -7 44 -15 60 -11 21 -11 34 -3 57 l10 30 37 -21 36 -21 -30 27
-29 28 102 96 c91 85 103 100 102 129 0 38 -15 24 209 207 84 69 168 132 186
139 69 29 67 30 109 -40 21 -35 41 -62 44 -60 2 3 -11 32 -30 64 l-36 59 82
12 c44 6 99 11 121 11 35 1 48 8 98 56 35 33 57 61 55 71 -2 13 -18 4 -70 -40
-60 -51 -71 -56 -111 -55 -25 0 -49 -2 -53 -5 -5 -3 -31 8 -59 23 -53 30 -67
63 -30 68 12 2 44 21 73 42 45 34 60 40 102 40 43 0 55 5 97 41 26 23 50 49
52 57 2 8 -21 -6 -52 -31 -42 -36 -62 -47 -88 -47 l-34 0 25 20 c14 11 53 34
87 52 57 30 77 48 55 48 -10 0 -130 -75 -237 -148 -71 -48 -115 -65 -115 -44
0 5 -7 17 -15 28 -14 18 -14 17 -5 -9 5 -16 10 -30 10 -31 0 -2 -13 -6 -28 -9
-15 -3 -45 -22 -66 -41 -34 -32 -43 -36 -94 -36 -76 -1 -201 -24 -241 -45 -20
-10 -37 -13 -44 -8 -94 70 -197 158 -197 168 0 7 72 78 160 159 135 124 169
150 217 167 81 27 93 25 131 -27 19 -25 36 -43 39 -40 3 2 -10 23 -28 45 -18
23 -30 43 -28 46 3 2 61 10 130 16 68 6 140 14 159 18 33 7 35 9 33 47 l-2 39
114 45 c63 25 115 48 115 52 0 8 -46 -7 -152 -52 -58 -24 -82 -30 -101 -24
-23 8 -24 11 -13 43 9 30 21 38 81 63 39 17 95 37 125 47 53 16 55 19 58 54 3
36 2 37 -22 31 -19 -4 -47 7 -117 46 -51 29 -127 66 -168 84 -61 26 -281 168
-281 182 0 2 22 38 50 80 27 42 50 81 50 86 0 5 19 17 43 28 23 10 54 27 69
37 27 17 28 17 45 -7 28 -40 95 -111 101 -106 2 3 -19 31 -47 63 -28 31 -51
61 -51 66 0 5 16 27 35 49 19 22 52 75 74 118 l40 77 53 -8 c77 -11 128 -10
128 1 0 6 -17 10 -39 10 -21 0 -59 3 -83 6 l-46 6 29 43 c18 27 50 55 84 74
30 17 55 36 55 41 0 5 -28 -6 -62 -24 -44 -25 -69 -47 -90 -82 l-30 -47 -211
7 c-117 4 -232 9 -256 13 -42 5 -43 6 -21 18 16 9 19 14 10 20 -7 4 -15 2 -19
-4 -4 -6 -7 8 -6 31 1 24 12 59 24 78 11 19 21 44 21 56 0 11 12 31 26 45 14
13 34 38 45 56 12 18 24 33 29 33 4 0 65 -77 135 -171 70 -94 129 -168 132
-165 3 3 -51 82 -121 175 -69 94 -126 175 -126 181 0 16 112 172 184 256 57
68 67 74 161 113 91 38 188 101 175 114 -3 3 -28 -11 -55 -32 -28 -20 -90 -52
-139 -71 -85 -34 -91 -38 -160 -120 -39 -47 -109 -138 -155 -202 -85 -119
-133 -174 -116 -133 4 11 11 38 15 60 4 22 12 53 19 68 17 44 13 88 -10 113
-19 21 -20 27 -9 53 13 31 0 88 -27 122 -10 12 -7 32 22 112 19 54 35 104 35
113 0 8 -16 37 -35 65 -19 28 -35 56 -35 62 0 6 17 38 39 71 21 34 51 86 67
116 l29 55 185 6 c182 6 330 29 330 51 0 5 -8 7 -17 4 -67 -21 -179 -36 -262
-36 l-98 0 -7 38 c-9 55 -7 100 4 107 17 11 11 35 -9 35 -13 0 -21 -9 -26 -28
-7 -32 -44 -97 -51 -90 -2 3 5 26 16 52 23 55 25 66 8 66 -7 0 -30 -36 -50
-80 l-37 -80 -109 80 c-60 44 -115 80 -122 80 -8 0 6 -14 31 -32 24 -18 77
-56 116 -86 l73 -53 -36 -71 c-20 -39 -51 -95 -71 -124 -33 -49 -35 -57 -31
-120 l3 -67 -55 -19 c-167 -58 -582 -168 -634 -168 -10 0 -9 15 5 73 22 84 24
172 5 206 -12 21 -10 29 11 68 14 24 22 50 19 58 -3 8 0 17 5 21 6 3 18 19 28
35 11 18 51 46 112 78 86 45 96 54 124 104 17 30 36 62 44 71 22 26 5 31 -52
17 -58 -15 -86 -37 -159 -129 -43 -53 -108 -106 -108 -86 0 7 86 121 118 156
14 15 22 31 19 35 -8 7 -10 6 -94 -105 l-62 -82 -10 53 c-6 28 -13 78 -17 110
-3 31 -10 57 -15 57 -5 0 -7 -17 -3 -38 3 -22 -1 -61 -11 -97 -9 -33 -20 -91
-25 -129 l-8 -69 -103 -103 c-57 -56 -115 -123 -129 -148 -15 -25 -43 -62 -63
-81 -20 -20 -37 -45 -37 -55 0 -31 -34 -41 -130 -39 l-90 1 0 45 c0 29 7 53
21 72 21 29 22 46 5 136 -4 20 11 84 46 198 l51 167 74 0 75 0 -29 -37 c-63
-81 -214 -305 -209 -310 5 -5 43 45 176 237 91 130 180 243 188 236 2 -3 -36
-72 -86 -154 -97 -160 -166 -291 -158 -299 2 -3 19 24 37 58 17 35 77 138 131
229 55 91 102 168 104 171 2 3 -9 6 -24 6 -21 1 -38 -12 -76 -58 l-49 -59 -73
0 -72 0 14 53 c17 62 17 67 4 67 -5 0 -20 -34 -32 -76 -13 -41 -28 -75 -33
-75 -6 1 -51 28 -102 61 -65 43 -91 65 -87 75 17 42 -24 3 -100 -97 -47 -62
-103 -133 -125 -158 l-39 -45 14 70 c25 127 41 245 34 245 -5 0 -13 -33 -20
-72 -25 -152 -51 -262 -66 -279 -9 -10 -45 -37 -80 -59 l-63 -42 -120 87 -121
86 0 141 c0 219 -14 152 -20 -92 l-5 -219 -129 155 c-129 154 -274 312 -260
284 4 -8 47 -60 94 -115 109 -125 203 -235 256 -300 23 -27 85 -134 138 -236
l96 -186 -23 -21 -24 -22 -57 116 c-31 64 -59 114 -62 111 -4 -3 20 -58 51
-122 32 -63 56 -118 53 -121 -6 -5 -20 17 -163 261 -155 265 -356 599 -375
625 -10 14 -21 23 -23 20 -3 -3 28 -57 69 -121 89 -142 388 -650 437 -743 l36
-68 -24 -46 c-25 -50 -215 -235 -279 -273 l-36 -21 -66 67 c-36 37 -71 82 -78
100 -12 27 -38 45 -164 114 l-151 82 -21 57 c-21 57 -48 173 -70 312 -7 41
-17 81 -23 88 -5 7 -14 74 -18 148 l-8 136 74 81 c41 44 72 83 69 86 -3 3 -37
-27 -75 -67 -38 -41 -69 -72 -69 -69 0 3 13 35 30 71 26 59 27 66 11 66 -12 0
-27 -22 -51 -76 -43 -99 -95 -162 -145 -180 -59 -20 -65 -18 -65 20 0 19 -4
46 -10 61 -8 22 -4 37 30 97 22 39 38 73 35 76 -6 7 -3 11 -49 -68 -33 -57
-37 -69 -32 -110 6 -43 5 -41 -33 40 -36 79 -38 87 -25 113 16 29 1 39 -15 10
-9 -17 -10 -17 -16 0 -4 9 -13 17 -21 17 -12 0 -11 -8 5 -38 l19 -37 -30 -45
c-16 -25 -36 -51 -42 -58 -10 -10 -5 -40 24 -145 20 -73 40 -138 44 -145 5 -8
-8 -19 -39 -32 -44 -19 -46 -22 -40 -50 6 -25 2 -34 -18 -50 -29 -23 -107
-197 -141 -313 -38 -132 -69 -330 -63 -403 5 -62 4 -64 -17 -58 -70 21 -79 33
-127 174 -44 131 -53 151 -108 234 -25 38 -26 44 -23 161 4 120 3 124 -38 251
-28 87 -40 138 -36 157 6 31 62 164 120 290 20 42 46 83 58 91 22 16 22 16 -9
16 -22 0 -33 -6 -37 -18 -6 -19 -239 -142 -268 -142 -9 0 -39 5 -67 11 l-50
10 -18 70 c-17 68 -41 99 -28 37z m3833 -49 c-18 -35 -35 -50 -81 -72 -32 -16
-60 -27 -62 -25 -8 8 121 137 140 141 11 2 21 3 23 2 1 -1 -8 -22 -20 -46z
m-928 -25 c117 -77 112 -52 53 -239 -43 -136 -62 -172 -164 -325 -64 -96 -80
-126 -75 -146 4 -13 1 -44 -5 -68 -10 -42 -13 -45 -72 -66 -34 -12 -75 -30
-92 -40 -16 -10 -45 -21 -62 -25 -33 -7 -33 -6 -69 72 -30 67 -34 81 -23 98
93 147 102 167 100 222 -2 57 24 214 40 246 6 10 52 69 102 130 51 62 108 133
126 160 19 26 36 47 37 47 2 0 49 -30 104 -66z m-2513 23 c-10 -7 -57 -43
-104 -80 -48 -37 -89 -64 -93 -60 -16 17 -21 53 -8 53 7 0 56 23 108 50 87 45
141 66 97 37z m623 -138 c20 -52 20 -59 7 -85 -8 -16 -20 -56 -27 -89 -23
-107 -28 -102 -78 82 l-29 112 36 50 36 49 17 -31 c9 -18 26 -57 38 -88z
m3499 64 c1 -21 -4 -23 -50 -23 -36 0 -49 4 -47 13 3 6 14 13 26 15 12 2 30
14 40 27 15 20 18 21 24 7 4 -10 7 -27 7 -39z m-4184 -84 c-31 -68 -58 -125
-60 -127 -3 -4 -65 102 -65 111 0 8 173 147 177 143 2 -2 -22 -59 -52 -127z
m3227 -7 c1 -7 -11 -24 -27 -37 l-31 -24 3 37 c2 20 9 64 15 96 l12 60 12 -60
c7 -32 14 -65 16 -72z m-3452 77 c45 -10 54 -15 66 -45 l15 -35 -53 -48 -53
-49 -16 66 c-8 37 -18 79 -22 95 -8 31 -7 31 63 16z m1169 -103 l1 -39 -32 25
c-43 33 -44 40 -11 79 l28 33 6 -30 c4 -16 7 -46 8 -68z m2335 12 c-13 -24
-37 -48 -47 -48 -6 0 2 14 18 30 31 32 41 38 29 18z m-2368 -54 c28 -22 34
-33 34 -63 0 -20 7 -49 16 -66 8 -16 28 -100 43 -185 16 -85 36 -172 45 -194
l16 -38 -85 -98 c-47 -54 -104 -115 -127 -135 l-41 -38 -29 74 c-36 94 -126
369 -138 426 -8 34 -7 48 5 66 8 12 19 47 25 77 7 30 20 84 31 120 l19 65 62
21 c53 17 65 18 76 7 8 -7 29 -25 48 -39z m1070 -105 l51 -37 13 -120 13 -119
-32 -68 c-38 -80 -26 -91 -136 115 -42 80 -79 161 -81 180 -2 19 -5 68 -8 108
l-5 73 67 -47 c37 -26 90 -65 118 -85z m1264 81 c0 -6 -8 -25 -17 -43 l-17
-32 -6 25 c-4 16 -1 31 9 42 18 19 31 23 31 8z m-1081 -135 c-10 -49 -19 -99
-19 -110 0 -11 -16 -38 -34 -60 l-34 -40 -7 35 c-3 19 -9 68 -14 107 l-7 73
65 44 c36 24 67 43 67 42 1 0 -7 -41 -17 -91z m960 -26 c-17 -56 -54 -158 -81
-227 -26 -68 -53 -145 -58 -171 -11 -52 -69 -181 -82 -181 -12 0 -10 23 8 71
8 24 22 86 30 138 20 132 132 407 192 474 27 30 25 4 -9 -104z m-3127 -119
c21 -59 22 -76 17 -185 l-5 -120 32 -49 33 -49 -64 -30 c-36 -17 -65 -34 -65
-38 0 -4 30 6 67 23 64 29 67 29 80 11 8 -10 12 -26 9 -35 -2 -10 1 -18 8 -18
7 0 27 -47 46 -104 28 -87 31 -107 21 -120 -16 -19 -343 -216 -359 -216 -6 0
-36 12 -66 27 l-54 26 -22 103 c-18 85 -20 114 -12 166 6 39 6 91 0 136 l-9
74 61 159 c33 87 60 167 60 179 0 11 35 78 77 149 l77 128 22 -76 c13 -42 33
-105 46 -141z m3215 76 c-3 -19 -5 -18 -15 7 -7 16 -14 47 -17 70 l-6 42 21
-49 c12 -27 19 -59 17 -70z m-156 42 c-49 -87 -120 -280 -126 -344 -7 -67 -54
-234 -66 -234 -13 0 -163 49 -177 58 -9 6 4 27 49 78 40 45 76 101 106 164 25
52 55 109 68 125 12 17 30 45 40 64 14 28 120 141 132 141 2 0 -10 -24 -26
-52z m99 3 c-14 -27 -13 -36 3 -23 10 9 16 4 24 -18 12 -31 3 -39 -24 -22 -20
12 -22 82 -3 82 7 0 7 -6 0 -19z m-2510 -11 c0 -6 -7 -26 -14 -45 -13 -31 -13
-42 0 -92 20 -78 56 -190 116 -356 28 -76 46 -142 42 -147 -5 -4 -40 -19 -79
-34 -65 -25 -191 -95 -171 -96 5 0 37 16 71 35 34 19 92 45 128 58 l66 24 27
-71 c47 -124 53 -138 85 -175 17 -20 59 -79 93 -132 l63 -96 -88 -5 c-85 -5
-92 -4 -216 41 -120 44 -128 49 -133 76 -5 28 -12 32 -150 81 l-145 51 -3 94
c-2 69 4 128 23 225 30 159 53 229 115 360 35 75 53 102 70 107 19 5 21 10 15
44 -6 39 -6 39 32 50 52 14 53 14 53 3z m1892 -118 c-27 -37 -68 -95 -90 -130
-22 -34 -42 -57 -44 -50 -3 7 23 53 57 103 34 49 75 114 91 143 26 47 29 50
32 27 2 -18 -11 -45 -46 -93z m1426 21 l-16 -48 -1 65 c-1 60 0 63 16 47 15
-15 16 -20 1 -64z m-794 32 c27 -11 36 -21 32 -33 -15 -56 -36 -169 -46 -247
-6 -49 -16 -118 -22 -152 l-10 -63 -93 0 -94 0 28 63 c16 34 32 80 36 102 4
22 30 101 59 175 29 74 56 143 59 153 8 21 6 21 51 2z m-557 -42 c-3 -10 -5
-2 -5 17 0 19 2 27 5 18 2 -10 2 -26 0 -35z m1306 -29 c5 -58 3 -82 -9 -105
-14 -28 -14 -32 6 -65 26 -41 33 -29 -113 -190 -55 -59 -113 -129 -131 -155
-17 -25 -55 -65 -84 -88 -46 -37 -293 -185 -297 -178 -1 1 -21 61 -45 132 -23
72 -53 147 -66 167 -13 21 -24 46 -24 55 0 10 12 84 27 165 l27 147 70 16
c211 46 346 81 476 125 80 26 148 48 151 49 3 1 9 -33 12 -75z m-1342 -23 c-6
-38 -11 -87 -11 -109 0 -42 -13 -58 -68 -86 -26 -13 -37 -15 -47 -6 -34 28
-27 49 52 164 43 63 79 113 81 111 2 -2 -1 -35 -7 -74z m-437 -23 c-10 -24
-38 -71 -62 -106 -40 -60 -42 -64 -28 -91 29 -54 56 -135 48 -143 -4 -4 -21
-10 -38 -14 -27 -5 -32 -2 -44 25 -20 50 -9 176 22 236 63 122 151 202 102 93z
m676 -93 c0 -2 -8 -18 -19 -35 -13 -22 -20 -27 -24 -17 -6 16 18 57 34 57 5 0
9 -2 9 -5z m-62 -50 c1 -38 -4 -50 -36 -88 l-38 -44 -40 81 c-21 44 -40 84
-42 88 -2 4 32 8 75 8 l79 0 2 -45z m-135 -37 c30 -52 49 -116 36 -124 -5 -3
-9 -19 -9 -35 0 -54 -15 -70 -59 -63 -41 7 -138 -20 -214 -58 l-39 -19 6 20
c3 12 9 31 13 44 4 12 11 51 17 86 l11 64 94 52 c52 28 96 56 99 63 7 21 20
13 45 -30z m-179 -20 c-3 -4 -14 -13 -25 -18 -18 -10 -19 -9 -13 17 10 42 15
46 29 26 7 -10 11 -21 9 -25z m-456 -58 c-2 -49 -4 -90 -6 -90 -5 0 -62 94
-62 102 0 8 59 78 66 78 2 0 3 -40 2 -90z m-885 3 c23 -51 132 -333 143 -373
3 -11 -24 -24 -108 -52 -109 -36 -115 -37 -168 -25 -63 14 -65 17 -115 160
l-31 87 86 89 c48 48 101 109 120 134 18 26 36 45 39 42 4 -2 19 -30 34 -62z
m2842 23 c-6 -37 -4 -47 14 -65 25 -25 26 -37 5 -86 -8 -21 -20 -63 -26 -94
-5 -31 -13 -74 -17 -96 -4 -22 -20 -61 -35 -87 -21 -37 -25 -51 -17 -66 11
-20 7 -27 -58 -114 -19 -27 -38 -48 -42 -48 -7 0 -6 -7 -48 185 -17 77 -36
150 -43 163 -10 19 -7 29 23 71 31 45 239 281 247 281 2 0 0 -20 -3 -44z
m-2632 -116 c58 -31 81 -50 91 -74 8 -17 43 -61 78 -97 l63 -67 -55 -61 c-46
-51 -64 -64 -107 -75 l-52 -14 -34 57 c-34 55 -80 164 -140 331 -16 47 -35 92
-41 100 -6 7 18 -2 54 -22 36 -19 100 -55 143 -78z m657 -22 c0 -3 -15 -12
-34 -18 -19 -6 -54 -25 -78 -42 -23 -18 -72 -42 -108 -54 l-65 -23 96 92 c55
52 102 106 109 125 l12 32 34 -52 c18 -29 34 -56 34 -60z m390 56 c0 -66 -52
-207 -152 -413 -90 -187 -100 -204 -114 -189 -15 14 -12 27 25 142 23 70 41
133 41 141 0 7 -20 44 -45 81 l-45 67 25 23 c14 13 34 44 45 69 11 25 26 45
34 45 8 0 47 16 87 35 41 19 79 35 86 35 8 0 13 -13 13 -36z m490 -81 c28 -3
50 -7 50 -9 0 -2 -30 -54 -66 -116 -36 -62 -70 -134 -75 -160 -6 -26 -15 -50
-20 -54 -23 -14 -52 145 -53 286 l-1 106 58 -24 c32 -13 80 -26 107 -29z
m-732 -3 c-10 -31 -73 -90 -95 -90 -9 0 -13 16 -13 50 0 48 1 50 28 51 15 0
36 4 47 9 38 16 45 12 33 -20z m-124 -56 c1 -41 4 -49 23 -54 16 -3 35 -30 66
-95 l44 -90 -25 -80 c-13 -44 -27 -84 -31 -88 -5 -4 -45 19 -89 52 -45 34 -82
57 -82 52 0 -4 36 -35 80 -67 71 -52 80 -62 75 -84 -11 -49 -198 -412 -205
-398 -5 7 -13 39 -20 72 -11 55 -92 237 -104 236 -26 -2 -71 40 -106 99 -62
107 -47 117 20 14 55 -85 80 -115 80 -97 0 4 -10 21 -23 38 -36 48 -137 212
-137 222 0 14 158 155 209 188 25 16 64 44 86 62 40 32 126 77 133 69 2 -2 5
-25 6 -51z m1136 51 c0 -3 -56 -121 -124 -263 -68 -141 -133 -278 -145 -305
-24 -53 -37 -53 -84 3 -52 61 -59 157 -18 239 10 20 21 50 24 66 5 28 107 214
137 249 10 13 34 16 111 16 55 0 99 -2 99 -5z m-527 -20 c53 -22 54 -43 7
-117 -22 -35 -43 -79 -46 -98 -4 -22 -26 -56 -58 -91 -77 -85 -155 -176 -209
-243 -27 -34 -61 -68 -75 -78 -15 -9 -47 -40 -72 -68 l-45 -50 7 102 c8 123
10 129 132 379 l96 197 82 32 c46 17 92 36 103 40 29 12 38 12 78 -5z m570
-18 c16 -24 111 -306 105 -311 -12 -11 -171 -107 -204 -124 l-41 -21 -22 72
-22 72 75 157 c42 86 76 161 76 167 0 18 17 12 33 -12z m-1037 -169 c9 -17 11
-35 6 -48 -7 -19 -13 -10 -45 57 -20 43 -37 83 -37 87 0 12 59 -62 76 -96z
m-416 74 c-13 -9 -81 -68 -150 -131 -158 -145 -270 -219 -270 -181 0 6 9 29
20 50 14 27 29 42 48 46 70 15 91 28 140 83 36 41 76 73 134 105 82 45 126 61
78 28z m909 -52 c-45 -66 -50 -55 -8 15 19 31 35 51 37 45 2 -6 -11 -33 -29
-60z m1041 28 c5 -13 25 -95 45 -183 l35 -160 -26 -20 c-14 -11 -42 -35 -62
-54 -36 -33 -37 -34 -115 -28 -43 3 -81 8 -84 11 -4 3 2 24 12 46 l18 40 -36
58 c-64 104 -64 102 6 160 34 28 89 74 122 101 33 28 63 50 68 51 4 0 12 -10
17 -22z m-984 -75 c4 -31 3 -109 -2 -172 -5 -64 -8 -152 -7 -196 l3 -80 -111
-48 c-84 -36 -115 -45 -125 -36 -26 21 -53 95 -59 159 -6 65 -6 65 27 89 59
44 145 149 162 197 16 46 81 144 96 144 5 0 12 -26 16 -57z m-2424 -49 c28
-14 119 -50 202 -79 142 -50 151 -54 158 -83 7 -27 17 -33 91 -60 45 -17 108
-40 140 -52 l58 -22 -37 -66 c-42 -78 -254 -410 -294 -462 -83 -108 -200 -294
-216 -343 -16 -52 -20 -56 -70 -77 -30 -12 -70 -33 -90 -46 -20 -14 -50 -28
-68 -31 -17 -3 -57 -19 -89 -35 l-58 -29 7 38 c4 21 15 62 25 91 27 78 17 172
-23 230 -17 24 -30 53 -30 65 0 12 12 65 27 117 15 52 29 122 32 155 2 33 9
70 15 82 9 18 7 37 -7 83 -16 52 -16 65 -5 99 10 32 10 43 -3 66 -14 27 -12
33 28 114 23 47 57 120 75 161 32 75 55 110 72 110 5 0 32 -12 60 -26z m1027
-11 c24 -37 24 -38 7 -83 -10 -25 -21 -63 -24 -85 -7 -39 -9 -41 -72 -62 -36
-12 -75 -22 -87 -22 -20 -1 -50 39 -142 191 l-22 37 48 -5 c39 -5 66 1 143 30
52 19 102 35 110 35 8 1 26 -16 39 -36z m2146 7 c-3 -5 -16 -15 -28 -21 -21
-10 -21 -9 2 10 25 23 36 27 26 11z m-3336 -112 c-27 -61 -61 -133 -76 -160
-23 -42 -25 -52 -14 -74 7 -17 9 -47 5 -85 -5 -43 -2 -69 10 -98 18 -46 13
-69 -18 -76 -58 -13 -269 -45 -273 -42 -2 2 2 36 8 74 l11 69 -46 72 c-25 40
-50 72 -55 72 -6 0 -13 15 -16 34 -7 36 16 101 55 156 l21 30 50 -25 c27 -14
49 -31 49 -39 0 -7 -23 -44 -51 -82 -57 -77 -73 -104 -66 -110 5 -5 102 124
132 175 15 25 60 59 170 127 83 50 151 92 152 93 0 1 -21 -49 -48 -111z m3221
-7 c-56 -84 -61 -89 -122 -114 -94 -37 -134 -43 -146 -21 -9 15 8 29 125 101
75 46 148 92 162 103 14 11 29 20 33 20 4 0 -19 -40 -52 -89z m-784 52 c-8
-16 -45 -57 -82 -93 l-67 -65 44 55 c44 56 111 130 116 130 2 0 -3 -12 -11
-27z m-974 -11 c10 -17 13 -33 8 -43 -13 -23 66 -153 113 -184 51 -35 102
-140 141 -291 l32 -122 -141 48 c-156 54 -249 92 -259 109 -4 5 0 35 9 65 l16
55 -35 74 c-31 63 -36 85 -36 143 l0 69 58 52 c31 29 62 52 67 53 6 0 18 -12
27 -28z m1157 -56 c-1 -93 6 -113 59 -168 32 -34 34 -38 16 -44 -10 -4 -34
-13 -53 -21 -19 -7 -37 -11 -40 -7 -14 13 1 324 15 324 2 0 4 -38 3 -84z m751
-90 c0 -9 -7 -31 -16 -50 -22 -44 -35 -40 -130 43 l-36 32 47 71 47 70 44 -76
c24 -41 44 -82 44 -90z m-471 72 c11 -34 20 -62 18 -64 -1 -1 -30 -16 -64 -33
l-63 -31 11 27 c14 38 71 163 75 163 1 0 12 -28 23 -62z m1172 3 c3 -3 18 -53
34 -110 20 -75 25 -108 18 -120 -5 -9 -37 -29 -70 -46 -45 -23 -64 -39 -76
-65 -9 -19 -35 -61 -57 -92 l-41 -57 -47 28 c-136 81 -153 94 -207 168 -30 42
-55 79 -55 84 0 24 26 58 55 72 18 8 61 47 95 86 l64 70 140 -6 c78 -3 144 -8
147 -12z m219 -9 c0 -14 -90 -166 -112 -189 -27 -28 -28 -26 -57 82 -12 44
-24 88 -27 98 -5 15 4 17 95 17 56 0 101 -3 101 -8z m-2961 -209 c33 -67 36
-89 17 -141 l-12 -34 -50 45 c-28 25 -76 57 -107 71 -32 14 -60 32 -63 40 -3
8 5 31 19 53 13 21 34 59 46 84 17 34 34 51 65 66 l41 20 6 -71 c4 -51 15 -88
38 -133z m1918 96 l63 -51 110 -11 c95 -9 109 -13 105 -27 -3 -9 -19 -76 -35
-149 -16 -72 -47 -173 -69 -224 -21 -51 -45 -112 -52 -135 l-13 -44 -248 -124
c-136 -68 -250 -124 -252 -124 -2 0 10 37 27 83 32 85 117 223 195 315 24 29
42 56 39 59 -8 7 -47 -38 -120 -141 -33 -44 -61 -83 -63 -85 -3 -3 2 14 10 36
8 23 21 88 30 145 11 72 32 148 67 244 50 135 61 192 46 225 -6 13 3 21 40 37
26 11 50 21 53 21 3 1 33 -22 67 -50z m-1251 -38 c-3 -24 -6 -74 -6 -111 l0
-68 -53 -30 c-60 -34 -89 -65 -131 -143 l-29 -54 -12 35 c-9 28 -9 37 1 45 12
10 157 293 189 370 16 39 17 39 31 20 11 -14 14 -33 10 -64z m934 65 c0 -2 3
-11 6 -20 4 -10 1 -16 -9 -16 -8 0 -35 -8 -59 -18 -24 -11 -56 -22 -72 -26
-27 -7 -28 -6 -16 9 24 29 150 88 150 71z m-1806 -38 c-30 -60 -66 -99 -123
-136 -31 -19 -93 -70 -138 -111 -45 -42 -98 -89 -119 -105 -20 -17 -54 -53
-75 -80 -21 -28 -60 -75 -87 -105 -45 -50 -50 -53 -71 -41 -21 11 -26 9 -45
-12 -11 -13 -17 -17 -11 -8 5 8 17 24 28 35 22 24 161 239 273 425 l81 135
114 6 c63 4 128 11 144 17 45 16 47 15 29 -20z m1136 3 c0 -24 -6 -31 -31 -40
-18 -6 -34 -11 -36 -11 -3 0 10 18 27 40 17 22 34 40 36 40 2 0 4 -13 4 -29z
m815 -12 c9 -28 -1 -77 -37 -177 l-31 -86 -13 50 c-7 27 -16 74 -19 104 -3 30
-8 67 -11 81 -5 24 -1 28 33 37 58 15 71 14 78 -9z m-123 -41 c6 -54 -4 -67
-258 -353 -102 -115 -205 -234 -227 -262 -23 -29 -44 -53 -47 -53 -3 0 -23 17
-43 38 l-37 38 44 71 c25 39 56 94 70 122 16 32 41 60 64 75 51 33 78 65 209
254 30 42 42 50 120 79 49 17 91 32 94 32 4 1 9 -18 11 -41z m-678 -51 c9 -30
25 -66 37 -81 12 -15 19 -29 17 -31 -2 -2 -31 -11 -63 -20 -33 -8 -78 -28
-100 -44 -76 -54 -218 -120 -277 -129 -32 -5 -58 -8 -58 -7 0 9 46 94 59 109
9 10 41 31 72 47 35 17 73 48 99 79 52 63 143 124 192 129 4 1 14 -23 22 -52z
m446 17 c0 -3 -21 -35 -47 -71 l-48 -65 -7 39 c-3 21 -8 44 -10 51 -2 8 15 21
42 32 48 19 70 24 70 14z m889 -82 c19 -24 32 -44 30 -46 -2 -2 -25 6 -50 18
-45 21 -46 22 -37 55 5 18 13 30 17 25 4 -5 22 -28 40 -52z m-2504 38 c4 -6
35 -24 71 -40 38 -17 88 -52 122 -83 70 -67 118 -91 300 -151 81 -27 142 -53
142 -60 0 -7 -11 -46 -25 -87 -14 -41 -32 -103 -41 -139 -8 -35 -23 -74 -33
-85 -35 -37 -70 -120 -77 -180 -3 -33 -9 -65 -13 -71 -12 -23 -196 62 -325
149 -66 46 -133 88 -147 94 -41 17 -159 133 -159 155 0 10 9 36 20 57 l19 39
-23 69 c-13 37 -33 88 -46 112 -27 54 -20 73 42 125 42 36 146 104 160 105 4
1 10 -4 13 -9z m1881 -170 c-25 -169 -50 -287 -86 -396 -63 -190 -65 -193
-154 -233 l-76 -34 -48 44 c-26 24 -81 71 -124 104 l-76 60 16 26 c8 15 98
121 199 235 101 115 214 245 251 289 l67 80 18 -70 c10 -38 16 -86 13 -105z
m-386 129 c16 -58 6 -86 -51 -143 l-50 -50 -67 67 c-36 36 -64 68 -62 71 6 6
203 94 212 95 4 1 12 -18 18 -40z m992 -45 c24 -10 97 -50 163 -90 l121 -73
-14 -93 c-8 -51 -16 -103 -18 -114 -6 -35 -180 -91 -319 -104 -171 -16 -158
-22 -126 58 74 182 93 232 111 297 11 38 20 82 20 96 0 23 7 39 16 39 2 0 23
-7 46 -16z m-1184 -83 c59 -56 62 -60 52 -87 -22 -56 -69 -130 -97 -150 -66
-49 -67 -49 -156 -3 -85 43 -207 125 -207 137 0 4 33 25 73 47 39 21 86 49
102 61 31 23 114 52 150 53 11 0 48 -26 83 -58z m-1531 -58 c11 -21 30 -67 41
-103 21 -64 21 -66 3 -117 l-18 -53 -64 56 c-60 52 -96 111 -85 139 7 17 87
115 95 115 4 0 17 -17 28 -37z m-963 -9 c4 -15 4 -41 1 -58 -6 -29 -51 -194
-61 -225 -3 -8 -23 14 -52 55 -26 38 -71 100 -100 139 l-53 70 68 13 c37 7 93
16 123 21 30 5 58 9 61 10 4 0 10 -11 13 -25z m847 -1 c-12 -23 -61 -69 -61
-58 0 8 60 75 67 75 2 0 -1 -8 -6 -17z m-973 -235 c29 -42 52 -81 52 -87 0
-12 -89 -46 -209 -78 l-94 -25 -41 41 -40 40 31 68 c17 37 53 115 79 173 l49
105 61 -80 c33 -44 84 -115 112 -157z m4237 127 c50 -34 119 -74 155 -89 36
-15 106 -50 157 -78 69 -38 90 -54 85 -65 -7 -12 -57 -37 -179 -89 -26 -11
-35 -23 -45 -58 -11 -41 -15 -45 -53 -55 -23 -6 -48 -17 -54 -25 -11 -13 -18
-11 -52 14 -22 15 -81 44 -132 64 -50 20 -97 40 -104 44 -9 6 -6 27 13 87 13
44 29 89 34 100 5 11 14 58 20 105 17 129 18 132 44 118 11 -6 62 -39 111 -73z
m-1987 22 c31 -24 71 -52 89 -62 33 -20 58 -72 87 -183 13 -53 13 -54 -11 -63
-13 -5 -47 -9 -75 -9 -73 0 -108 -25 -153 -113 -21 -39 -39 -73 -40 -75 -2 -2
-221 -47 -321 -65 l-31 -6 8 37 c11 52 21 85 29 97 4 6 13 28 20 50 7 22 21
51 31 65 10 14 23 48 29 75 6 28 24 91 41 140 35 106 52 122 141 136 35 6 64
12 67 15 12 11 37 0 89 -39z m-1294 -38 c20 -49 17 -52 -76 -93 l-58 -25 0 27
c0 18 16 42 52 79 29 29 55 53 59 53 4 0 14 -19 23 -41z m1513 -121 c-33 -26
-43 -22 -61 22 -9 22 -16 42 -16 44 0 2 22 -8 50 -23 l50 -26 -23 -17z m-1355
-42 c62 -57 126 -118 142 -135 28 -30 55 -43 40 -20 -10 17 45 -15 131 -76
108 -77 107 -75 42 -75 l-57 0 -21 43 c-22 45 -67 97 -82 97 -5 0 5 -16 23
-36 31 -36 67 -101 59 -107 -2 -2 -43 -34 -90 -70 l-87 -67 -7 -132 c-5 -105
-35 -286 -50 -306 -8 -10 -37 16 -64 58 -17 26 -57 71 -88 100 l-56 51 7 57
c19 156 19 149 -3 181 -24 34 -41 119 -34 168 8 48 -3 79 -43 123 -36 40 -54
88 -53 145 0 28 6 33 77 67 42 20 82 37 89 37 6 1 63 -46 125 -103z m1431 47
c-20 -32 -49 -75 -64 -96 l-28 -38 -11 41 c-6 23 -10 44 -8 46 5 5 142 103
145 103 2 1 -14 -25 -34 -56z m-1819 8 c6 -9 -70 -81 -84 -81 -3 0 -6 9 -6 19
0 11 3 18 7 15 4 -2 18 9 31 25 23 31 42 38 52 22z m87 -119 c7 -37 22 -65 49
-97 38 -44 38 -45 37 -123 0 -68 4 -88 28 -137 25 -53 27 -63 21 -131 -4 -41
-9 -81 -12 -88 -4 -9 -37 18 -100 78 -96 95 -186 224 -199 289 -4 18 -16 53
-27 78 l-20 47 104 103 103 104 3 -35 c1 -19 7 -59 13 -88z m3207 19 l-20 -69
-74 36 -73 36 87 33 c48 17 90 32 93 32 4 1 -2 -30 -13 -68z m-1399 -45 c-8
-9 -89 66 -83 76 4 6 24 -8 47 -31 23 -22 39 -42 36 -45z m926 67 c-18 -45
-45 -144 -56 -203 -6 -36 -19 -96 -28 -135 l-16 -70 -95 -47 c-139 -70 -136
-70 -278 1 -67 34 -122 64 -122 67 0 4 24 41 52 83 l53 76 240 121 c132 67
244 122 249 123 4 0 5 -7 1 -16z m-2919 -25 c4 -6 -9 -26 -33 -47 -24 -22 -47
-55 -57 -83 -10 -26 -26 -58 -37 -70 -38 -46 18 90 63 152 45 62 52 68 64 48z
m2099 -147 c127 -99 144 -117 124 -135 -355 -327 -520 -476 -571 -517 l-37
-30 -26 40 -27 40 100 193 c76 147 108 219 131 303 45 162 54 187 79 227 l23
38 52 -41 c29 -22 97 -75 152 -118z m1955 144 c-7 -8 -20 -15 -28 -15 -13 0
-12 3 4 15 25 19 40 19 24 0z m-777 -31 c39 -19 75 -38 79 -42 4 -4 1 -29 -7
-56 -9 -30 -15 -91 -15 -157 l0 -107 -87 -78 c-49 -43 -130 -121 -182 -173
-76 -77 -101 -110 -131 -174 l-37 -78 -26 39 c-24 33 -27 48 -27 114 l0 76 57
32 c31 18 95 47 142 66 47 18 78 33 69 34 -27 0 -142 -46 -213 -85 -48 -27
-66 -33 -70 -23 -2 7 -14 38 -25 69 l-21 57 41 75 c31 56 47 105 65 189 30
145 53 226 68 235 11 7 117 18 210 21 25 1 61 -10 110 -34z m-3804 -17 c37
-55 43 -135 16 -217 -10 -30 -19 -56 -20 -58 -8 -10 -102 45 -162 96 -39 33
-92 74 -118 92 -25 17 -45 34 -42 36 2 2 37 13 78 23 41 11 103 30 139 44 36
14 68 26 72 26 4 1 20 -19 37 -42z m2326 -73 c-8 -27 -24 -87 -35 -134 -14
-60 -42 -129 -97 -237 -43 -84 -81 -153 -84 -153 -11 0 -20 67 -29 210 -5 74
-11 144 -14 155 -8 26 60 152 95 178 17 12 52 21 100 26 41 4 75 6 77 6 1 -1
-5 -24 -13 -51z m1693 -45 c56 -23 117 -55 134 -71 l31 -29 -25 -25 c-18 -19
-42 -27 -92 -35 -36 -5 -93 -18 -126 -29 -33 -11 -62 -20 -66 -20 -8 0 3 200
13 238 3 13 11 21 17 18 6 -3 57 -24 114 -47z m-3512 -32 l21 -62 -39 -47
c-21 -26 -65 -70 -98 -98 l-59 -51 -46 27 c-41 24 -65 55 -65 85 0 6 42 30 93
53 102 48 118 61 142 124 10 24 20 40 24 37 3 -4 15 -34 27 -68z m-691 -43
c44 -37 99 -75 122 -85 40 -17 42 -20 36 -51 -3 -18 -6 -33 -7 -33 -1 -1 -21
-14 -46 -30 -65 -43 -80 -48 -87 -27 -4 9 -32 79 -63 155 -32 75 -52 137 -46
137 6 0 47 -30 91 -66z m3103 19 c-8 -10 -35 -47 -59 -83 -93 -135 -94 -138
-146 -382 -3 -18 -28 -46 -72 -81 -111 -89 -119 -94 -168 -102 -51 -7 -144
-51 -297 -139 -53 -31 -103 -56 -112 -56 -13 0 -59 29 -98 61 -7 6 109 239
119 239 2 0 13 -17 25 -37 l22 -37 -28 -21 c-48 -34 -80 -64 -68 -65 18 0 212
166 448 384 280 258 275 254 365 298 90 43 88 43 69 21z m1403 -10 c33 -20 40
-59 12 -67 -10 -2 -54 -8 -98 -11 l-80 -7 44 45 c24 26 54 48 65 50 12 2 23 5
24 6 2 0 17 -7 33 -16z m-2989 -81 c10 -20 55 -98 100 -172 l84 -135 -43 -70
c-23 -38 -53 -81 -67 -95 -34 -35 -150 -239 -176 -310 -24 -65 -27 -66 -100
-49 -25 6 -64 11 -88 10 l-42 -1 36 50 c24 34 34 56 29 69 -3 11 0 31 7 43 8
14 13 58 13 113 1 50 8 122 18 160 9 39 17 109 17 156 0 137 2 141 93 209 44
33 85 60 91 60 6 0 19 -17 28 -38z m199 12 c35 -14 79 -32 97 -40 l33 -13 -27
-53 c-33 -65 -105 -188 -110 -188 -7 0 -109 161 -154 243 l-42 77 69 0 c52 0
86 -7 134 -26z m523 -5 c3 -17 6 -55 6 -83 0 -28 5 -91 11 -139 6 -49 8 -91 6
-94 -3 -2 -38 18 -79 45 -40 27 -126 84 -190 126 -77 50 -118 83 -118 94 0 15
18 21 103 35 56 10 127 24 157 31 88 22 97 20 104 -15z m-1474 -47 c22 -38 95
-120 221 -248 112 -112 189 -198 189 -210 0 -10 12 -50 25 -89 39 -111 36
-131 -38 -211 -87 -97 -187 -211 -226 -261 -23 -28 -56 -52 -107 -77 -41 -20
-96 -56 -123 -81 -45 -42 -49 -44 -63 -27 -27 32 -48 71 -48 90 0 10 -13 36
-30 58 -18 25 -30 51 -30 72 0 41 -45 109 -186 284 -131 162 -146 191 -138
261 4 34 2 69 -6 93 l-13 38 56 51 c30 27 62 64 71 80 8 17 33 50 54 74 l38
43 57 -32 57 -32 97 95 c54 53 101 93 104 91 4 -2 22 -30 39 -62z m-380 -30
c0 -10 -21 -45 -47 -79 l-46 -61 -48 29 c-77 48 -78 54 -17 86 66 34 84 41
126 42 24 1 32 -3 32 -17z m2758 -50 l113 -58 -101 -28 -102 -28 -41 41 -42
41 25 45 c14 25 27 45 30 44 3 0 56 -26 118 -57z m-1074 -87 c112 -73 207
-139 210 -144 13 -20 -227 -462 -320 -589 -1 -2 -89 8 -196 21 -106 14 -222
29 -258 33 -107 11 -108 14 -42 128 l57 98 5 -68 5 -69 8 49 c4 27 7 67 7 90
0 34 20 75 126 256 69 118 140 241 158 272 17 32 32 58 33 58 2 0 95 -61 207
-135z m1417 64 c-27 -44 -26 -82 3 -155 31 -79 39 -114 25 -114 -6 0 -45 -14
-87 -30 -61 -25 -113 -35 -276 -55 -273 -33 -276 -34 -276 -29 0 9 35 61 116
171 92 124 87 121 264 158 40 8 112 33 159 54 47 22 87 38 89 36 2 -1 -6 -18
-17 -36z m-3317 -8 c3 -5 31 -23 61 -40 59 -34 65 -43 37 -63 -10 -7 -37 -29
-60 -49 l-42 -36 15 -36 c10 -24 14 -62 13 -109 -2 -40 1 -82 6 -92 8 -17 7
-18 -15 -12 -109 35 -163 45 -250 45 -70 1 -110 6 -145 20 -27 11 -57 22 -66
25 -16 5 -16 8 -4 33 8 15 19 40 24 54 8 19 25 32 59 45 26 10 53 23 58 30 6
7 46 22 90 35 94 26 100 30 126 81 33 64 76 96 93 69z m2840 -60 l39 -40 -68
-93 c-38 -51 -72 -97 -76 -101 -3 -5 4 35 17 88 12 52 26 116 30 140 3 25 9
45 13 45 4 0 24 -18 45 -39z m882 -324 c34 -25 65 -43 69 -39 5 4 5 1 1 -6
-10 -17 -63 -42 -192 -91 -122 -45 -201 -55 -191 -23 15 49 101 230 123 259
l26 34 51 -44 c29 -24 80 -64 113 -90z m-375 64 c-5 -23 -5 -57 -1 -78 5 -20
6 -75 3 -122 -7 -105 -33 -157 -102 -203 -25 -17 -71 -54 -101 -83 -56 -53
-99 -73 -405 -194 -55 -22 -137 -55 -182 -75 l-83 -35 -6 27 c-4 15 -13 38
-21 51 -25 40 -2 106 132 381 l124 255 68 7 c277 29 410 52 492 82 47 18 87
32 89 31 1 -1 -1 -21 -7 -44z m-647 -8 c-8 -25 -16 -49 -19 -51 -2 -3 -28 -7
-57 -10 l-53 -5 70 56 c39 31 71 56 72 57 0 0 -5 -21 -13 -47z m1551 -4 c10
-18 29 -35 48 -41 27 -10 29 -12 11 -19 -43 -17 -69 -10 -98 27 -28 35 -28 38
-11 50 27 20 33 18 50 -17z m-51 -47 l27 -29 -45 -17 c-25 -10 -74 -41 -109
-69 -35 -29 -113 -92 -173 -140 -116 -93 -144 -126 -144 -168 0 -20 -19 -43
-82 -99 l-81 -72 -19 23 c-11 13 -30 41 -44 62 -14 21 -41 44 -63 54 -27 12
-45 29 -62 62 -13 25 -34 57 -46 72 -20 23 -21 28 -8 39 7 6 19 27 25 46 11
33 14 34 60 34 72 0 352 110 380 150 24 34 72 46 217 56 54 4 105 10 113 15
22 12 24 12 54 -19z m-3136 -8 c23 -16 29 -59 13 -98 -8 -20 -8 -20 -14 0 -3
10 -12 40 -21 67 -16 51 -13 56 22 31z m2348 -107 c-23 -55 -23 -54 -28 49
l-4 72 27 -36 26 -35 -21 -50z m-2066 9 c-28 -47 -54 -86 -57 -86 -3 0 1 10 9
23 8 12 32 52 53 89 21 37 40 66 42 64 2 -2 -19 -42 -47 -90z m1330 78 c0 -4
-53 -115 -117 -248 -74 -154 -122 -266 -132 -310 -15 -61 -21 -73 -62 -108
-46 -39 -47 -39 -93 -27 -37 9 -60 26 -118 86 -70 71 -138 164 -138 189 0 6
43 39 95 74 86 57 127 90 111 90 -3 0 -54 -33 -112 -72 l-107 -72 -33 38 c-19
22 -34 42 -34 45 0 7 251 155 394 233 102 56 142 67 334 87 6 0 12 -2 12 -5z
m-2557 -139 c34 -43 69 -105 92 -160 40 -99 126 -257 157 -292 l20 -21 -76
-17 c-86 -19 -150 -16 -218 11 l-47 18 -72 -30 -73 -30 -78 47 c-43 26 -100
55 -126 64 l-49 18 37 61 c20 34 65 114 100 179 l63 117 101 54 c56 30 104 54
108 53 3 -1 31 -34 61 -72z m1912 -49 c17 -13 28 -26 25 -29 -18 -16 -140 -77
-154 -77 -14 0 -11 10 15 63 50 98 48 98 114 43z m-1735 -173 c32 -45 50 -82
50 -100 0 -16 14 -51 30 -77 35 -55 36 -84 1 -40 -51 66 -117 192 -162 314
l-9 25 20 -25 c11 -14 42 -57 70 -97z m820 55 l29 -31 -68 -48 c-86 -60 -293
-157 -276 -128 4 5 47 58 97 117 86 103 92 107 137 113 25 3 47 7 49 7 2 1 16
-12 32 -30z m82 3 c14 -5 -4 -42 -103 -220 -66 -117 -141 -241 -166 -275 -26
-33 -47 -62 -47 -63 -1 -1 -30 4 -66 12 -36 7 -90 16 -120 19 -63 8 -61 6
-119 69 l-45 47 23 24 c13 14 60 44 105 67 44 23 95 52 111 64 17 12 41 26 55
30 56 17 211 95 247 124 21 16 55 37 76 46 l37 15 -32 30 -33 30 30 -6 c17 -4
38 -10 47 -13z m2174 -54 c31 -62 71 -107 95 -107 9 0 28 -16 41 -37 12 -20
30 -46 38 -59 13 -20 12 -25 -3 -42 -9 -10 -17 -24 -17 -30 0 -7 -9 -12 -20
-12 -19 0 -19 -2 6 -57 23 -54 26 -103 6 -103 -5 0 -31 -20 -60 -44 -48 -41
-54 -43 -99 -38 -26 2 -60 11 -75 18 -75 38 -212 136 -251 180 l-44 49 106
123 c58 67 129 138 156 156 28 18 56 41 64 50 18 21 27 14 57 -47z m-1996 7
c63 -9 116 -17 118 -18 2 -3 -139 -108 -214 -160 -29 -20 -74 -99 -79 -136 -2
-17 -10 -44 -19 -61 -10 -21 -11 -29 -3 -26 7 2 18 23 26 48 23 75 63 150 90
167 14 9 71 50 126 92 l100 76 101 -13 c167 -21 166 2 11 -233 -74 -113 -178
-281 -232 -375 -53 -93 -126 -214 -163 -268 l-66 -97 -6 -88 c-4 -60 -12 -99
-27 -127 -11 -22 -31 -73 -44 -113 l-23 -72 -65 98 c-37 54 -79 117 -94 139
l-28 41 45 90 c25 50 66 125 91 168 l46 78 -16 90 c-9 50 -28 138 -41 194
l-25 104 23 36 c13 21 69 117 124 215 73 130 103 176 114 172 8 -4 66 -13 130
-21z m577 -16 c22 -24 53 -68 69 -98 16 -30 60 -87 98 -127 38 -40 65 -73 60
-73 -5 0 -63 7 -129 15 -65 8 -148 15 -183 15 -48 0 -79 7 -122 26 l-57 25 67
103 c65 98 118 156 144 156 6 0 30 -19 53 -42z m1076 -175 c-28 -32 -59 -59
-70 -61 -11 -2 -42 -25 -68 -52 -27 -28 -55 -50 -62 -50 -18 0 -33 -34 -33
-77 0 -35 -7 -44 -87 -118 -117 -108 -140 -117 -275 -113 -93 3 -108 5 -108
20 0 9 -11 48 -25 86 l-25 69 31 56 31 57 64 0 c40 0 82 7 111 19 27 11 163
66 303 123 140 58 257 103 259 101 2 -1 -18 -29 -46 -60z m-3230 -76 c105 -55
212 -161 302 -296 l69 -104 -55 -48 c-29 -27 -60 -49 -66 -49 -7 0 -75 24
-150 54 -76 29 -168 61 -205 71 -60 16 -68 21 -68 42 0 14 -27 67 -61 118 -37
58 -58 99 -53 107 4 7 34 50 66 95 l59 82 41 -15 c23 -8 77 -33 121 -57z
m4687 -98 l113 -131 -29 -60 c-30 -63 -75 -110 -152 -159 -65 -41 -78 -39 -90
19 -20 87 -23 154 -16 298 6 131 8 143 28 152 12 6 24 11 27 11 3 1 57 -58
119 -130z m-2644 64 c50 -5 55 -8 50 -27 -16 -68 -66 -340 -71 -388 -6 -50
-11 -62 -42 -87 -30 -25 -33 -32 -24 -49 14 -27 14 -52 -1 -52 -6 0 -134 -58
-283 -130 -149 -71 -274 -130 -279 -130 -13 0 3 129 21 164 8 17 37 60 63 96
26 36 89 139 140 230 51 91 131 224 178 296 l85 132 53 -25 c30 -13 79 -27
110 -30z m-1733 11 c68 -28 112 -27 235 3 34 9 64 14 65 12 1 -2 17 -26 36
-52 l33 -48 -59 -67 c-33 -37 -99 -101 -148 -143 l-88 -76 -71 106 c-39 58
-99 135 -132 169 l-62 64 62 28 c33 16 62 29 64 29 1 1 30 -11 65 -25z m4180
-180 c-3 -229 2 -213 -87 -316 -55 -63 -152 -131 -164 -115 -19 24 -44 81
-102 233 -33 87 -65 163 -71 170 -12 14 30 46 155 114 85 46 244 120 261 120
6 0 9 -74 8 -206z m-1838 155 c4 -17 5 -32 3 -34 -3 -3 -76 -8 -93 -6 -10 2
65 71 77 71 3 0 9 -14 13 -31z m488 17 c-4 -7 -35 -42 -67 -77 -53 -57 -59
-61 -52 -34 4 17 13 32 19 34 6 2 32 24 57 47 48 47 55 52 43 30z m-867 -20
c93 -13 244 -50 244 -60 0 -2 -12 -25 -27 -52 -36 -64 -66 -90 -208 -175 -66
-40 -146 -90 -177 -111 -31 -21 -60 -38 -64 -38 -11 0 3 107 36 272 17 84 33
159 35 166 6 15 27 15 161 -2z m1115 -160 c67 -41 117 -66 135 -66 16 0 36 -5
44 -10 12 -7 11 -13 -9 -34 -16 -17 -22 -32 -18 -46 4 -15 -7 -42 -34 -83 -21
-34 -39 -71 -39 -82 0 -34 -63 -218 -87 -254 -13 -19 -23 -39 -23 -45 0 -41
-230 244 -328 406 l-52 85 20 58 c22 64 43 95 128 186 l56 61 51 -54 c29 -32
94 -83 156 -122z m-2592 16 c1 -14 -43 -87 -59 -97 -6 -3 -26 3 -46 15 -25 16
-33 27 -29 40 5 15 2 17 -17 12 -18 -4 -13 5 27 51 l48 56 38 -32 c20 -18 38
-38 38 -45z m420 -135 c17 -81 31 -159 31 -174 0 -14 -15 -51 -34 -82 -18 -31
-53 -93 -77 -138 -24 -46 -46 -83 -49 -83 -14 1 -63 134 -80 217 -24 113 -25
141 -6 162 8 9 36 54 61 101 60 108 108 172 117 156 4 -6 20 -78 37 -159z
m-227 87 l87 -16 -26 -51 c-14 -29 -47 -81 -73 -117 -26 -36 -61 -86 -78 -111
l-31 -46 -117 25 c-65 13 -146 34 -180 46 -35 13 -66 21 -69 18 -8 -9 -6 -85
4 -120 l10 -33 -42 24 c-23 13 -72 42 -109 63 -38 21 -68 41 -68 45 0 4 51 48
113 97 61 50 130 109 152 131 21 23 45 41 52 41 7 0 35 -16 62 -35 26 -19 53
-35 59 -35 5 0 25 23 43 51 l32 51 46 -7 c25 -3 85 -13 133 -21z m1507 -77
c11 -37 18 -73 15 -80 -7 -18 -510 -226 -519 -215 -1 2 -7 13 -14 25 -10 19
-7 25 27 51 55 43 144 101 261 171 57 34 124 78 149 97 25 19 49 31 53 27 4
-5 16 -38 28 -76z m476 46 c-9 -21 -26 -47 -37 -58 -16 -15 -18 -15 -8 -2 23
31 3 30 -31 -2 -17 -17 -37 -31 -43 -31 -10 1 120 130 130 130 2 0 -3 -17 -11
-37z m1098 0 c9 -21 41 -101 71 -178 29 -77 70 -176 89 -220 20 -44 41 -100
48 -125 l12 -45 -58 -95 c-77 -128 -139 -214 -170 -237 l-26 -19 -99 101
c-100 103 -130 146 -130 189 0 37 -17 75 -50 113 -21 24 -30 44 -30 69 0 20
-11 54 -24 77 -24 41 -76 203 -76 236 0 16 57 44 117 56 17 3 49 19 71 35 77
56 115 69 223 79 10 0 22 -14 32 -36z m-440 -94 c-9 -9 -16 -9 -29 2 -15 12
-16 10 -10 -31 4 -25 12 -60 18 -78 9 -31 8 -37 -25 -70 -19 -21 -47 -56 -61
-79 -14 -24 -33 -43 -41 -43 -14 0 -19 -19 -16 -60 0 -8 -18 -35 -40 -60 -23
-25 -34 -33 -26 -19 15 26 97 261 97 280 0 5 18 38 40 71 26 40 38 69 34 81
-3 11 2 27 12 38 18 20 18 20 38 -1 15 -15 17 -23 9 -31z m-3733 -21 c40 -11
180 -60 180 -63 0 -9 -242 23 -252 33 -4 4 -5 18 -1 30 4 16 10 21 22 16 9 -3
32 -10 51 -16z m3136 -70 c80 -127 175 -251 252 -330 l65 -66 -37 -75 c-21
-41 -71 -116 -112 -168 -41 -51 -74 -97 -74 -101 0 -15 -37 11 -98 67 -46 42
-81 64 -157 94 -54 22 -100 42 -102 45 -9 8 38 257 71 376 19 69 38 143 41
165 13 67 21 76 81 84 6 0 38 -40 70 -91z m-156 60 c0 -19 -35 -160 -64 -259
-13 -48 -32 -138 -42 -200 -9 -63 -20 -117 -23 -121 -4 -4 -40 50 -81 120 -40
70 -95 160 -121 199 -43 67 -46 76 -38 110 5 21 9 57 9 79 0 51 13 55 128 44
63 -6 86 -5 127 10 45 17 74 25 98 29 4 0 7 -5 7 -11z m1644 -64 c7 -30 5 -32
-41 -47 -26 -9 -49 -14 -52 -12 -2 3 10 20 27 39 17 19 33 45 37 57 9 26 19
13 29 -37z m186 38 c0 -15 -24 -32 -44 -32 -20 1 -20 1 3 20 24 21 41 26 41
12z m-2220 -32 c-8 -6 -26 -9 -40 -9 -22 0 -21 2 10 13 37 14 54 11 30 -4z
m-1491 -147 c11 -58 33 -128 51 -162 37 -74 38 -92 4 -60 -36 34 -43 48 -69
157 -13 54 -28 110 -34 125 -8 20 -8 33 1 47 17 27 22 15 47 -107z m1491 45
c-10 -46 -43 -165 -74 -266 -30 -100 -58 -198 -62 -217 -3 -19 -7 -35 -9 -35
-8 0 -116 41 -146 55 -31 15 -42 32 -94 143 -32 70 -71 152 -85 182 l-26 56
75 28 c42 16 128 50 191 77 63 26 135 50 160 52 25 2 55 4 67 5 l21 2 -18 -82z
m-1783 -8 l42 -11 -36 -67 c-55 -103 -53 -101 -117 -57 -58 40 -69 60 -81 147
l-7 46 78 -24 c44 -13 98 -28 121 -34z m-323 -22 c105 -60 232 -143 241 -159
4 -6 -4 -22 -16 -36 -29 -30 -217 -183 -234 -189 -10 -4 -122 116 -193 207
-10 13 -7 27 15 75 29 65 82 154 90 154 3 0 47 -23 97 -52z m575 -39 c33 -119
29 -124 -34 -34 l-39 57 19 34 c10 19 22 31 26 27 4 -5 16 -42 28 -84z m-96
22 c4 -4 -28 -27 -72 -50 -45 -23 -81 -39 -81 -36 0 3 12 29 26 57 l26 50 46
-6 c25 -3 50 -10 55 -15z m89 -118 c39 -54 82 -110 95 -124 l23 -26 -59 -51
c-33 -29 -64 -52 -70 -52 -6 0 -53 21 -103 46 -95 46 -140 82 -170 132 -17 28
-17 29 11 56 21 21 165 104 199 115 1 1 34 -43 74 -96z m-789 16 c-10 -18 -38
-48 -63 -68 -42 -33 -44 -34 -20 -6 36 44 93 105 98 105 2 0 -4 -14 -15 -31z
m1677 -3 c0 -3 -41 -32 -91 -65 -75 -51 -97 -61 -132 -61 -40 1 -37 3 88 65
149 73 135 66 135 61z m1515 -213 c-4 -27 -22 -79 -40 -118 -18 -38 -40 -90
-49 -115 -9 -25 -23 -53 -30 -63 -13 -17 -16 -18 -39 -2 -14 9 -28 22 -31 30
-3 8 19 43 49 79 62 77 120 169 130 209 11 43 17 31 10 -20z m-2247 5 l24 -26
-72 -16 c-40 -9 -75 -15 -77 -12 -2 2 19 22 49 44 29 23 53 40 53 39 0 -1 10
-14 23 -29z m-190 -73 c1 -1 -15 -39 -36 -84 l-38 -82 -23 73 c-13 40 -30 94
-36 120 l-13 47 72 -36 c39 -19 72 -36 74 -38z m-4 -96 c-26 -49 -48 -88 -51
-86 -5 6 54 145 69 165 6 6 14 12 19 12 5 0 -12 -41 -37 -91z"/>
<path d="M4286 5086 c-21 -28 -53 -125 -60 -182 -1 -10 208 -174 221 -174 17
0 -54 57 -205 166 -9 6 39 159 56 178 26 29 35 46 24 46 -5 0 -21 -15 -36 -34z"/>
<path d="M5035 4524 c-44 -41 -126 -111 -182 -156 -89 -71 -116 -98 -99 -98
24 0 370 303 364 319 -2 5 -39 -24 -83 -65z"/>
<path d="M5113 2935 c0 -27 2 -38 4 -22 2 15 2 37 0 50 -2 12 -4 0 -4 -28z"/>
<path d="M4650 2233 c1 -15 80 -148 80 -135 0 8 -16 43 -36 78 -33 60 -45 74
-44 57z"/>
<path d="M5045 214 c-85 -67 -103 -84 -88 -84 14 0 163 119 163 131 0 13 1 14
-75 -47z"/>
<path d="M3894 113 c-65 -89 -74 -102 -74 -109 0 -14 34 23 72 79 44 65 46 90
2 30z"/>
</g>
</svg>