<?xml version="1.0" standalone="no"?>
<!DOCTYPE svg PUBLIC "-//W3C//DTD SVG 20010904//EN"
 "http://www.w3.org/TR/2001/REC-SVG-20010904/DTD/svg10.dtd">
<svg version="1.0" xmlns="http://www.w3.org/2000/svg"
 width="512.000000pt" height="512.000000pt" viewBox="0 0 512.000000 512.000000"
 preserveAspectRatio="xMidYMid meet">
<metadata>
Created by potrace 1.16, written by Peter Selinger 2001-2019
</metadata>
<g transform="translate(0.000000,512.000000) scale(0.100000,-0.100000)"
fill="#000000" stroke="none">
<path d="M2805 4478 c-182 -108 -251 -246 -194 -384 l22 -52 -39 -71 c-40 -75
-60 -92 -24 -20 26 50 24 121 -5 165 l-18 28 -20 -40 c-26 -49 -28 -135 -4
-185 18 -35 18 -36 -22 -133 l-39 -98 -22 48 c-11 27 -28 70 -36 96 -15 44
-15 49 6 95 28 61 35 160 18 242 l-14 64 -33 -62 c-42 -80 -50 -154 -26 -237
10 -32 19 -72 20 -89 3 -28 2 -29 -12 -10 -8 11 -35 60 -60 109 -70 134 -157
190 -298 189 -89 0 -124 -11 -212 -70 l-58 -38 80 -7 c44 -3 125 -16 180 -27
54 -11 101 -18 103 -16 2 2 -18 15 -45 30 -26 14 -37 23 -23 19 44 -11 234
-112 270 -143 l35 -30 -70 34 c-66 32 -293 95 -339 95 -11 -1 40 -16 114 -35
163 -43 250 -83 311 -146 84 -86 103 -161 83 -313 l-7 -47 -136 140 c-162 166
-194 186 -301 185 -62 0 -86 -5 -135 -29 l-60 -29 130 -22 c161 -27 204 -38
277 -75 57 -29 88 -56 52 -46 -74 22 -204 11 -204 -17 0 -9 28 -12 108 -12
100 1 110 -1 155 -27 56 -33 63 -54 10 -32 -45 19 -135 21 -178 5 -54 -20
-104 -62 -141 -117 -20 -30 -34 -56 -32 -57 37 -30 179 -92 263 -116 145 -42
209 -76 274 -144 29 -32 51 -59 49 -62 -3 -2 -27 8 -54 23 -44 25 -59 28 -144
28 -86 0 -100 -3 -148 -29 -87 -48 -123 -112 -137 -239 l-7 -69 89 70 c85 67
107 92 167 189 37 60 55 68 121 48 70 -20 169 -109 213 -193 48 -90 103 -265
109 -346 4 -60 -1 -95 -35 -231 -46 -181 -65 -327 -60 -460 l3 -90 -37 -3 -36
-3 -7 56 c-8 59 0 184 16 270 5 27 14 97 19 155 5 58 12 116 15 130 5 21 4 22
-4 5 -8 -18 -9 -17 -16 10 -25 109 -36 150 -42 154 -3 4 -3 -5 0 -19 34 -131
33 -279 -3 -430 -11 -47 -23 -135 -27 -196 l-6 -111 -63 -6 c-35 -4 -92 -17
-126 -31 -53 -21 -74 -24 -128 -19 -61 5 -68 4 -99 -23 -19 -16 -47 -46 -62
-67 -19 -26 -49 -49 -90 -68 -57 -27 -219 -145 -235 -171 -8 -13 -9 -13 111
66 133 88 275 144 475 186 113 23 190 25 325 5 55 -8 120 -15 144 -15 56 0
196 -47 313 -106 97 -48 298 -163 298 -170 0 -2 -73 34 -162 80 -182 94 -312
148 -408 170 l-65 15 35 -29 35 -30 -62 25 c-34 13 -80 27 -102 31 l-40 6 8
-30 c17 -58 151 -217 236 -281 40 -30 11 -15 -45 23 -25 17 -49 29 -55 28 -5
-2 -7 0 -3 4 5 4 -15 31 -42 60 -28 30 -57 68 -65 86 -12 30 -13 18 -10 -117
l4 -150 -10 110 c-5 61 -13 137 -17 170 l-7 60 -28 -58 c-15 -32 -33 -80 -39
-105 -19 -74 -27 -71 -12 5 8 37 28 95 44 127 17 32 30 63 30 68 0 16 -59 -2
-124 -37 -34 -18 -83 -38 -111 -45 -138 -34 -267 -83 -437 -167 -103 -50 -218
-103 -256 -117 -89 -32 -218 -56 -291 -55 -54 1 -53 1 34 15 163 25 260 59
470 164 203 101 311 143 445 175 75 17 160 57 160 75 0 12 7 12 -87 -1 -242
-33 -450 -112 -721 -276 -125 -76 -251 -122 -383 -139 -27 -4 -49 -9 -49 -13
0 -3 -73 -5 -162 -4 -115 1 -153 -1 -128 -8 21 -5 314 -7 720 -3 425 3 679 2
670 -4 -8 -5 -51 -12 -95 -16 -85 -8 -136 -17 -223 -42 -73 -21 -60 -28 19
-10 130 29 356 32 347 4 -2 -5 -48 -24 -103 -43 -129 -42 -228 -85 -340 -146
-119 -66 -164 -102 -55 -45 120 63 294 128 439 165 68 17 128 31 134 31 6 0
-47 -55 -116 -122 -70 -67 -148 -146 -174 -177 l-46 -56 69 66 c38 36 96 88
129 115 33 27 84 70 114 97 88 79 101 75 21 -7 -41 -42 -71 -76 -66 -76 5 0
34 19 65 42 30 24 63 49 73 56 10 8 -10 -31 -46 -85 -55 -85 -116 -206 -116
-230 0 -4 15 19 33 52 48 90 162 245 180 245 4 0 7 -48 8 -107 0 -60 4 -130 8
-158 l7 -50 7 70 c4 39 7 106 7 150 l1 80 23 -60 c26 -68 76 -169 80 -163 2 1
-16 62 -40 133 -23 72 -43 136 -43 144 -1 8 13 -6 30 -30 41 -56 167 -180 250
-243 58 -45 53 -39 -56 75 -66 68 -131 140 -145 159 l-25 35 29 -18 c15 -11
53 -32 85 -49 l56 -30 -40 36 c-22 19 -43 35 -47 36 -4 0 -13 10 -19 22 -9 17
-2 14 37 -15 112 -85 354 -238 354 -224 0 2 -30 24 -67 49 -76 50 -261 195
-282 221 -7 9 -9 17 -4 17 22 0 179 -51 317 -104 82 -31 152 -56 155 -56 11 1
-113 62 -248 122 -75 33 -139 65 -143 72 -12 18 28 24 182 26 156 2 146 12
-27 26 -59 4 -90 10 -86 17 4 7 188 8 567 4 309 -3 595 -2 636 2 64 7 50 8
-95 10 -202 2 -300 19 -455 80 -103 40 -198 90 -172 91 7 0 35 -12 63 -26 28
-14 53 -24 55 -22 7 8 -231 185 -288 214 -18 9 -68 41 -110 70 -42 30 -108 69
-145 87 -37 19 -84 42 -103 53 -27 14 -55 19 -120 19 l-85 0 -6 60 c-16 154
33 402 175 895 l44 155 109 106 c110 107 146 129 193 114 17 -5 20 -15 20 -65
0 -79 25 -149 85 -242 l52 -79 23 83 c12 46 22 106 22 133 0 98 -59 185 -124
185 -30 0 -30 -1 -15 -18 10 -10 17 -22 17 -27 0 -4 -9 4 -20 18 -11 14 -20
28 -20 32 0 4 29 5 65 3 36 -2 59 0 52 4 -6 5 -66 6 -132 3 l-120 -7 41 42
c22 22 57 47 77 54 67 23 94 11 180 -78 70 -73 76 -78 62 -44 -23 57 -18 58
13 3 24 -44 37 -54 125 -100 54 -27 116 -65 138 -83 21 -18 39 -30 39 -27 0
21 -45 134 -68 167 -33 51 -170 163 -237 194 -63 30 -140 31 -226 4 -35 -10
-64 -18 -65 -17 -2 1 10 31 26 67 21 47 30 81 30 122 0 53 -15 108 -30 108
-11 0 -61 -108 -62 -137 -1 -15 2 -58 7 -95 9 -80 8 -82 -81 -134 -36 -21 -82
-53 -103 -71 l-38 -32 -5 82 c-3 46 -18 142 -33 214 -15 72 -25 142 -21 156 8
32 84 83 154 103 49 15 87 14 140 -2 9 -3 6 2 -8 10 -14 8 -36 16 -50 16 -24
1 -24 1 -5 13 25 15 290 14 355 -2 39 -9 31 -10 -55 -6 -91 5 -98 4 -74 -10
42 -23 139 -34 215 -25 91 12 118 11 79 -2 -16 -5 -75 -10 -130 -11 -82 -1
-109 3 -153 21 -62 26 -62 26 -62 8 0 -17 67 -64 111 -76 76 -22 170 -8 248
37 32 19 40 27 30 34 -11 7 -10 9 3 9 20 0 68 21 68 29 0 3 -41 20 -91 36
-109 36 -188 38 -269 10 -41 -15 -82 -20 -162 -20 -60 0 -108 1 -108 2 0 1 14
10 30 18 35 18 143 28 133 12 -10 -16 67 2 125 30 39 18 62 38 82 70 26 41 47
100 38 108 -8 7 -146 -18 -196 -37 -41 -15 -73 -39 -127 -93 -40 -39 -88 -84
-108 -99 -34 -26 -197 -99 -204 -92 -7 7 31 91 59 131 40 57 88 92 201 148 69
33 97 51 89 59 -15 15 -100 -6 -170 -41 -72 -37 -131 -88 -171 -148 -17 -25
-31 -44 -31 -41 0 21 50 150 89 233 60 124 68 151 75 246 3 42 9 84 12 94 5
11 -10 5 -44 -20 -96 -69 -133 -129 -131 -217 1 -61 21 -124 38 -120 9 2 9 -3
1 -18 -6 -11 -9 -20 -6 -20 2 0 -11 -45 -30 -101 -19 -55 -37 -131 -40 -169
-4 -37 -9 -73 -13 -78 -3 -5 -38 -25 -77 -45 -39 -20 -91 -56 -117 -80 -55
-54 -57 -51 -57 72 0 154 18 191 148 299 85 71 97 102 97 264 l1 137 -26 -47
c-14 -26 -45 -75 -68 -109 -48 -70 -56 -90 -82 -188 -10 -38 -36 -108 -57
-155 l-38 -85 -2 -165 c-1 -91 -2 -201 -3 -245 l-1 -80 -33 65 c-56 109 -70
184 -70 360 0 142 2 162 27 237 23 69 35 90 75 126 153 143 179 169 196 198
l19 33 -64 -35 c-61 -34 -90 -64 -172 -179 -9 -14 0 11 22 56 44 91 107 246
121 302 9 33 9 30 5 -20 -3 -32 -2 -58 2 -58 4 0 18 10 32 23 14 12 7 1 -16
-24 -23 -26 -49 -61 -58 -79 l-16 -32 60 41 c98 67 124 118 135 266 3 50 13
114 20 143 8 28 13 52 13 52 -1 0 -33 -19 -72 -42z m-88 -210 c-3 -8 -6 -5 -6
6 -1 11 2 17 5 13 3 -3 4 -12 1 -19z m-350 -300 c-2 -18 -4 -4 -4 32 0 36 2
50 4 33 2 -18 2 -48 0 -65z m620 -30 c-3 -8 -6 -5 -6 6 -1 11 2 17 5 13 3 -3
4 -12 1 -19z m-10 -40 c-3 -8 -6 -5 -6 6 -1 11 2 17 5 13 3 -3 4 -12 1 -19z
m453 -181 c0 -8 -141 -58 -152 -55 -7 3 21 16 62 31 77 26 90 30 90 24z
m-1314 -37 c23 -7 55 -23 70 -36 l29 -23 -60 24 c-33 13 -91 31 -130 39 l-70
16 60 -4 c33 -2 79 -9 101 -16z m278 -282 c8 -13 22 -50 31 -83 9 -33 30 -91
46 -129 16 -38 28 -71 26 -73 -2 -1 -28 10 -58 27 -30 17 -106 46 -169 66 -63
20 -142 50 -175 67 l-60 30 95 19 c89 18 177 55 201 85 17 20 47 16 63 -9z
m494 -85 c29 -140 30 -310 3 -441 -23 -109 -61 -242 -70 -242 -4 0 -30 46 -59
103 -29 56 -71 136 -93 177 -94 176 -67 353 68 450 42 31 99 59 118 60 6 0 21
-48 33 -107z m596 -173 c52 -19 22 -19 -34 1 -31 11 -42 17 -25 15 17 -3 43
-9 59 -16z m-344 -70 c-10 -19 -141 -130 -154 -130 -20 0 3 26 76 84 45 36 84
66 85 66 2 0 -1 -9 -7 -20z m-880 -53 c0 -1 -21 -20 -47 -41 l-48 -38 42 41
c37 36 53 48 53 38z m455 -1363 c-31 -8 -93 -13 -160 -12 -78 1 -126 -4 -164
-15 -73 -23 -84 -21 -36 6 35 19 56 22 178 23 76 1 141 5 144 8 4 3 25 6 47 5
l41 -1 -50 -14z m-455 -42 c0 -5 -42 -26 -94 -49 l-94 -40 21 29 c32 43 77 68
125 68 23 0 42 -4 42 -8z m747 -21 c45 -15 97 -38 115 -51 18 -12 24 -18 13
-14 -94 36 -215 74 -240 75 -16 0 -41 5 -55 9 -19 6 -12 8 30 9 37 0 83 -9
137 -28z m-438 -136 c-8 -8 -48 -28 -89 -44 -66 -27 -85 -41 -163 -123 -49
-51 -85 -86 -81 -78 15 30 117 150 143 170 24 18 21 18 -44 -4 -79 -26 -154
-63 -268 -130 -75 -44 -163 -86 -142 -68 17 15 186 118 255 155 77 42 175 76
234 82 24 2 70 18 102 34 60 30 79 32 53 6z m386 -84 c116 -28 166 -48 395
-160 130 -64 94 -56 -55 11 -233 106 -370 151 -272 88 65 -41 59 -46 -7 -7
-30 18 -52 36 -48 41 3 5 1 6 -5 3 -10 -6 -161 48 -177 64 -5 5 4 4 20 -1 16
-6 83 -23 149 -39z m-416 -18 c-13 -41 -57 -111 -83 -132 -9 -7 3 19 26 58 22
39 38 74 35 77 -2 3 -47 -15 -98 -41 -52 -25 -85 -38 -74 -30 11 9 49 32 85
50 36 18 76 42 90 53 30 25 36 15 19 -35z m211 -28 c13 -14 21 -25 18 -25 -2
0 -15 11 -28 25 -13 14 -21 25 -18 25 2 0 15 -11 28 -25z"/>
<path d="M3295 4171 c-77 -19 -153 -89 -200 -183 -15 -29 -45 -77 -68 -107
-28 -38 -34 -52 -21 -46 10 4 62 20 114 35 123 35 294 117 388 186 l74 54 -56
25 c-95 42 -163 52 -231 36z m63 -112 c17 0 5 -6 -30 -15 -48 -11 -138 -48
-138 -57 0 -1 30 -1 67 0 l68 2 -66 -14 c-36 -7 -95 -27 -130 -44 l-64 -32 60
57 c73 68 138 108 165 101 13 -3 18 -1 13 6 -4 7 0 8 11 4 10 -4 30 -7 44 -8z"/>
<path d="M1863 3983 c9 -2 23 -2 30 0 6 3 -1 5 -18 5 -16 0 -22 -2 -12 -5z"/>
<path d="M1870 3633 c-110 -18 -217 -81 -270 -158 -30 -44 -94 -185 -87 -192
2 -2 15 5 28 16 45 34 123 68 255 110 109 34 139 48 178 82 26 23 45 43 42 46
-2 2 -32 -10 -67 -28 -77 -38 -190 -82 -196 -75 -6 6 235 127 302 151 28 10
54 22 58 25 21 18 -169 36 -243 23z m27 -39 c-3 -3 -12 -4 -19 -1 -8 3 -5 6 6
6 11 1 17 -2 13 -5z"/>
<path d="M3315 3580 c3 -5 12 -7 20 -3 21 7 19 13 -6 13 -11 0 -18 -4 -14 -10z"/>
<path d="M3368 3412 c-14 -9 -36 -29 -47 -44 l-21 -26 28 -18 c39 -27 131 -24
207 7 33 13 59 29 59 34 -1 6 -25 22 -54 38 -62 32 -131 36 -172 9z m49 -58
c-3 -3 -12 -4 -19 -1 -8 3 -5 6 6 6 11 1 17 -2 13 -5z m-40 -10 c-3 -3 -12 -4
-19 -1 -8 3 -5 6 6 6 11 1 17 -2 13 -5z"/>
<path d="M2161 3140 c-101 -21 -183 -101 -220 -215 -18 -55 -32 -125 -25 -125
11 0 147 103 202 153 37 34 90 77 119 95 29 19 59 47 67 63 14 28 13 29 -7 29
-12 0 -38 2 -57 4 -19 3 -55 1 -79 -4z"/>
<path d="M2651 2334 c0 -11 3 -14 6 -6 3 7 2 16 -1 19 -3 4 -6 -2 -5 -13z"/>
<path d="M2262 884 c-46 -45 -49 -51 -17 -26 45 34 92 82 81 82 -4 0 -33 -25
-64 -56z"/>
</g>
</svg>