<?xml version="1.0" standalone="no"?>
<!DOCTYPE svg PUBLIC "-//W3C//DTD SVG 20010904//EN"
 "http://www.w3.org/TR/2001/REC-SVG-20010904/DTD/svg10.dtd">
<svg version="1.0" xmlns="http://www.w3.org/2000/svg"
 width="512.000000pt" height="512.000000pt" viewBox="0 0 512.000000 512.000000"
 preserveAspectRatio="xMidYMid meet">
<metadata>
Created by potrace 1.16, written by Peter Selinger 2001-2019
</metadata>
<g transform="translate(0.000000,512.000000) scale(0.100000,-0.100000)"
fill="#000000" stroke="none">
<path d="M351 5011 c27 -61 49 -114 49 -118 0 -5 -24 -27 -52 -50 -29 -23 -88
-77 -131 -120 l-77 -79 -63 7 c-71 7 -77 5 -77 -22 0 -16 5 -18 25 -13 14 3
36 3 50 0 l26 -7 -26 -32 c-13 -19 -36 -39 -50 -47 -14 -7 -25 -17 -25 -22 0
-20 25 -4 74 47 l52 55 87 -44 87 -45 45 16 c41 14 52 14 118 -2 39 -9 81 -18
92 -20 11 -2 51 -36 89 -74 l69 -70 -16 -52 c-9 -28 -17 -59 -17 -69 0 -10
-29 -43 -65 -74 -41 -36 -85 -89 -121 -146 -47 -75 -62 -91 -91 -99 -44 -12
-88 -46 -184 -138 l-76 -73 -59 38 c-85 55 -84 54 -84 42 0 -6 27 -28 60 -48
l60 -38 -23 -22 c-13 -12 -28 -22 -33 -22 -6 0 -23 21 -37 48 -31 55 -36 40
-7 -19 l21 -40 -22 -17 c-13 -11 -20 -26 -17 -40 3 -21 5 -20 67 19 59 38 66
39 95 28 29 -11 128 -59 134 -64 1 -1 -5 -18 -13 -38 -8 -21 -26 -79 -38 -130
l-24 -92 -111 -65 c-98 -58 -111 -68 -112 -93 l0 -27 90 45 90 45 16 -32 c9
-17 16 -52 16 -77 -1 -29 5 -52 15 -63 14 -15 16 -42 15 -166 -2 -164 -4 -195
-18 -198 -5 -2 -57 -12 -117 -25 -73 -15 -107 -26 -107 -35 0 -18 7 -18 98 5
89 23 244 53 248 48 2 -2 -10 -43 -25 -91 l-29 -89 -104 -64 -104 -63 -38 15
c-49 21 -60 11 -13 -11 35 -17 35 -18 22 -44 -41 -79 -66 -170 -47 -170 14 0
29 -41 77 -207 l45 -156 -27 -29 c-15 -16 -33 -26 -41 -23 -61 23 -87 10 -32
-16 l31 -14 -30 -35 c-60 -69 -29 -63 35 8 l66 72 28 -20 c16 -12 60 -33 97
-49 37 -15 86 -37 107 -48 39 -20 39 -21 15 -28 -13 -4 -84 -35 -158 -68
l-134 -60 -43 49 c-52 59 -59 45 -9 -17 l35 -44 -36 -31 c-31 -26 -35 -35 -32
-68 l3 -38 75 59 c57 45 97 67 163 90 l88 31 140 -110 c76 -60 139 -113 139
-117 0 -11 -455 -451 -496 -479 -17 -11 -41 -23 -55 -25 -37 -6 -59 -18 -59
-32 0 -10 17 -11 68 -8 62 5 70 8 109 46 l42 40 10 -25 c5 -14 12 -47 16 -74
4 -27 22 -76 40 -109 37 -69 48 -105 36 -123 -5 -9 -20 15 -44 68 -20 44 -40
80 -44 80 -13 0 -218 -73 -227 -82 -20 -17 26 -7 102 21 129 49 119 50 146
-11 33 -74 121 -221 157 -262 16 -19 29 -40 29 -48 0 -19 89 -103 119 -113 22
-7 18 -12 -55 -86 -72 -72 -76 -79 -52 -79 14 0 28 3 30 8 2 4 38 40 81 79
l79 73 25 -47 c23 -45 24 -49 9 -80 -12 -26 -13 -33 -2 -33 7 0 43 63 80 140
l66 140 88 -1 c71 0 103 -6 176 -32 49 -18 91 -37 93 -43 2 -5 -16 -30 -39
-55 -106 -113 -130 -141 -124 -146 4 -4 12 0 20 8 194 210 183 203 281 172 79
-25 79 -26 39 -105 -19 -39 -33 -72 -31 -75 3 -2 22 26 43 63 l38 68 29 -64
c32 -71 35 -76 42 -68 3 3 -6 29 -19 59 -14 29 -24 55 -22 56 2 2 43 -17 91
-42 49 -25 95 -45 103 -45 8 0 12 -6 9 -14 -5 -12 24 -13 176 -11 100 2 199 8
219 13 20 5 38 8 40 7 2 -2 23 -6 48 -10 25 -3 53 -8 63 -11 10 -3 24 -1 30 5
7 5 52 28 99 50 l87 39 -15 -40 c-16 -47 -17 -58 -5 -58 5 0 25 48 44 108 19
59 43 124 52 145 15 35 18 38 35 25 10 -7 37 -26 59 -41 21 -16 78 -43 126
-61 64 -24 83 -35 73 -43 -7 -5 -58 -36 -113 -69 l-100 -59 41 -3 c34 -2 53 4
107 38 60 38 87 44 87 20 0 -5 5 -21 10 -36 16 -41 23 -21 9 25 -10 35 -10 44
2 55 15 15 181 108 184 104 1 -2 17 -30 36 -63 34 -62 104 -145 121 -145 6 0
-10 22 -34 49 -24 27 -59 76 -76 109 l-33 61 65 36 c64 35 240 115 255 115 4
0 15 -28 25 -62 9 -35 30 -82 46 -105 29 -40 30 -42 15 -83 -17 -48 -20 -120
-5 -120 6 0 10 17 10 38 0 62 18 112 41 112 40 0 85 -28 142 -89 31 -34 62
-59 67 -56 6 4 26 38 45 76 28 55 43 73 76 90 23 11 46 18 53 16 6 -3 25 -46
41 -96 26 -81 31 -91 52 -91 14 0 22 3 20 8 -9 15 -79 243 -76 247 11 9 148
75 158 75 6 0 11 4 11 9 0 14 -44 -1 -118 -38 l-62 -31 -10 22 c-29 70 -60
153 -60 162 0 5 12 -1 28 -15 49 -45 142 -110 136 -95 -3 8 -31 32 -62 54 -65
46 -126 103 -143 133 -8 16 16 6 103 -40 89 -47 133 -64 205 -78 57 -12 90
-23 84 -29 -9 -10 -121 -354 -121 -373 0 -6 4 -11 9 -11 8 0 35 61 55 127 l7
23 42 -22 c23 -12 69 -31 102 -42 55 -19 60 -24 63 -53 5 -50 32 -43 32 7 0
59 32 240 42 240 5 0 30 -11 56 -23 26 -13 74 -34 107 -47 33 -13 65 -29 71
-37 11 -13 30 -134 25 -160 -1 -7 6 -13 15 -13 9 0 14 6 11 13 -5 12 -19 130
-19 151 1 10 114 56 138 56 7 0 27 -21 45 -46 30 -44 31 -48 19 -84 -13 -39
-7 -90 10 -90 12 0 13 20 1 39 -6 10 -5 22 5 35 22 31 17 57 -21 113 -34 50
-34 52 -14 58 12 4 57 32 101 62 45 30 105 63 134 74 30 11 54 25 54 30 0 13
-3 12 -68 -14 -32 -13 -80 -40 -107 -59 -54 -38 -147 -88 -165 -88 -23 0 -2
33 118 179 75 92 130 151 141 151 28 0 81 21 81 32 0 6 -8 7 -17 3 -54 -22
-57 -17 -19 23 52 55 41 63 -16 12 -26 -22 -51 -40 -57 -40 -7 0 -47 35 -90
77 -73 72 -80 83 -92 138 -7 33 -13 82 -13 109 -1 76 13 79 131 24 131 -62
173 -78 173 -70 0 4 -53 32 -117 62 -65 29 -122 57 -126 61 -5 4 13 24 40 45
28 22 84 66 126 99 72 55 77 62 77 97 0 21 -3 38 -6 38 -3 0 -50 -38 -105 -85
l-101 -86 -51 30 c-29 16 -122 66 -207 111 -85 44 -156 82 -157 84 -2 1 7 31
18 65 24 70 2 52 264 212 135 83 162 96 180 87 11 -6 53 -32 92 -59 40 -26 73
-42 73 -35 0 6 -36 34 -80 61 -44 28 -80 53 -80 56 0 4 36 30 80 59 77 51 80
54 80 91 0 22 -2 39 -5 39 -3 0 -39 -22 -80 -50 l-74 -50 -69 83 c-127 153
-136 167 -121 181 8 7 54 48 102 91 85 74 90 77 115 65 110 -51 132 -59 132
-46 0 7 -32 27 -72 45 l-72 32 72 72 c40 40 72 76 72 81 0 4 -40 -29 -89 -74
-70 -64 -93 -80 -106 -73 -13 8 3 27 89 110 58 55 106 105 106 112 0 7 -50
-35 -111 -93 l-111 -106 -42 26 c-22 14 -75 45 -117 69 -83 49 -118 81 -103
94 8 7 132 45 421 128 46 13 63 23 63 36 0 22 4 22 -96 -9 -46 -14 -88 -23
-93 -20 -10 6 -111 259 -111 277 0 5 15 22 33 38 24 22 247 204 265 217 2 1 2
14 0 29 l-3 28 -43 -37 c-24 -20 -45 -36 -47 -36 -2 0 0 14 5 31 6 20 6 39 0
50 -6 10 -10 31 -10 47 0 18 -14 49 -35 78 -46 63 -64 104 -72 159 l-6 45 34
-7 c19 -3 65 -17 103 -30 80 -26 76 -26 76 -14 0 16 -124 54 -202 62 -59 6
-112 22 -225 67 -81 32 -156 62 -166 66 -17 6 -17 8 4 46 45 80 65 91 201 111
68 10 148 19 178 19 34 0 64 6 78 16 22 15 22 15 16 -24 -4 -29 0 -52 15 -87
12 -26 21 -58 21 -71 0 -13 5 -24 10 -24 14 0 13 13 -11 83 -34 101 -16 180
46 191 19 4 35 11 35 16 0 12 -7 12 -47 1 -32 -9 -33 -8 -42 27 -22 81 -42
174 -60 286 l-20 118 28 42 c15 22 47 74 71 114 28 47 48 71 56 68 9 -3 14 2
14 12 0 15 -16 20 -108 30 -59 7 -125 12 -145 12 -47 0 -48 17 -4 79 31 44 59
111 105 253 24 72 28 108 12 108 -5 0 -12 -11 -16 -24 -3 -15 -18 -29 -37 -37
-18 -7 -87 -46 -155 -86 -68 -40 -127 -73 -131 -73 -4 0 -38 39 -75 86 -65 83
-67 86 -51 110 13 21 13 24 1 24 -8 0 -18 -4 -21 -10 -4 -6 -13 -5 -25 2 -27
17 -36 3 -16 -27 l17 -25 -73 -69 c-140 -132 -252 -220 -265 -208 -6 7 22 243
36 293 4 18 16 31 32 35 18 5 12 7 -22 8 l-47 1 -11 -77 c-6 -43 -16 -117 -21
-165 -9 -82 -14 -93 -62 -165 -28 -43 -54 -81 -58 -86 -6 -8 -129 93 -143 118
-5 9 4 45 23 92 l32 78 -23 103 c-13 56 -26 102 -31 102 -12 0 -10 -13 13
-103 23 -92 22 -106 -18 -195 l-28 -63 -73 74 -73 73 41 97 c22 53 40 102 40
108 0 26 -20 -7 -55 -91 l-38 -91 -64 63 c-35 35 -74 78 -86 95 -15 23 -30 33
-48 33 -22 0 -35 -13 -77 -79 -53 -81 -82 -113 -82 -92 0 21 -61 171 -70 171
-4 0 5 -33 21 -72 15 -40 28 -78 29 -84 0 -6 -46 3 -112 22 -62 17 -139 35
-171 39 l-58 7 2 39 c2 21 0 41 -4 45 -4 4 -7 -4 -7 -19 0 -58 -6 -59 -91 -15
-73 38 -82 40 -131 33 -139 -19 -243 -22 -283 -9 -55 19 -91 17 -47 -2 17 -8
32 -17 32 -20 0 -16 -154 -223 -195 -264 l-45 -44 0 72 c0 53 -6 85 -23 124
-13 29 -32 74 -41 101 -10 27 -24 47 -33 47 -18 0 -14 -15 33 -125 30 -71 34
-91 34 -168 0 -48 -4 -87 -9 -87 -6 0 -40 -22 -76 -50 -49 -37 -82 -53 -131
-65 -36 -8 -73 -15 -82 -15 -14 1 -106 118 -121 154 -6 14 -41 55 -108 127
-35 36 -63 73 -63 81 0 9 25 44 56 78 30 34 52 65 49 68 -3 4 -34 -25 -68 -62
l-63 -69 -69 5 c-58 4 -93 15 -205 66 -74 34 -147 62 -161 62 -22 0 -33 -15
-89 -120 -54 -101 -66 -118 -78 -107 -13 10 -14 9 -3 -8 10 -17 7 -33 -21 -97
-18 -43 -37 -79 -43 -80 -5 -2 -24 26 -43 62 -18 36 -59 112 -92 170 -73 131
-74 134 -55 150 20 17 19 30 -2 30 -10 0 -25 -15 -33 -33 -16 -34 -188 -192
-199 -182 -3 4 -26 52 -51 107 -25 56 -50 103 -57 105 -6 2 11 -45 38 -106z
m789 57 c0 -5 -8 -48 -17 -95 l-18 -84 29 -54 c15 -30 26 -61 23 -68 -3 -8
-40 -32 -84 -55 -43 -23 -72 -42 -64 -42 7 0 44 16 82 36 l69 36 37 -28 c55
-40 194 -186 190 -198 -2 -6 -48 -38 -102 -72 l-97 -61 -182 59 c-99 32 -184
60 -188 61 -11 4 59 165 148 342 124 244 132 257 155 245 10 -6 19 -16 19 -22z
m1649 -2 l53 -28 -7 -41 c-4 -23 -10 -69 -14 -102 -6 -48 -18 -79 -64 -157
-48 -80 -57 -104 -57 -143 0 -35 -9 -63 -35 -110 -20 -35 -51 -109 -70 -165
-18 -57 -38 -107 -44 -113 -19 -19 -82 54 -308 353 -46 61 -82 134 -83 166 0
11 24 47 53 79 l53 58 47 -49 c57 -60 62 -53 7 11 -22 26 -37 52 -34 58 4 7
29 43 56 80 27 37 54 79 60 92 11 24 15 25 102 26 50 0 109 4 131 8 61 12 95
7 154 -23z m-1503 -45 c59 -24 127 -44 163 -47 84 -9 92 -25 46 -95 -20 -29
-56 -70 -80 -91 -27 -24 -50 -56 -61 -86 -9 -26 -21 -51 -25 -56 -9 -10 -139
92 -139 109 0 7 -13 37 -30 68 -16 31 -30 70 -30 87 0 50 31 162 44 156 6 -2
57 -23 112 -45z m2225 -12 c28 -28 48 -54 45 -57 -7 -6 -179 -33 -183 -28 -6
5 72 136 80 136 5 0 31 -23 58 -51z m-2829 -51 c31 -51 76 -134 102 -184 l46
-90 -26 -65 c-14 -35 -29 -67 -33 -71 -4 -4 -46 -2 -93 5 l-87 12 -33 62 c-18
34 -55 105 -83 157 l-49 95 29 23 c17 13 61 51 100 85 38 34 71 62 71 62 1 1
26 -41 56 -91z m4256 36 c-10 -66 -48 -163 -85 -219 -15 -22 -32 -50 -38 -62
-11 -21 -14 -18 -75 52 -101 119 -98 110 -48 141 68 43 242 144 249 144 3 0 2
-25 -3 -56z m-360 -58 c24 -32 40 -61 35 -65 -5 -3 -62 -43 -126 -89 l-116
-83 -76 51 c-42 29 -75 53 -73 55 2 1 61 55 132 119 l130 116 24 -23 c13 -12
45 -48 70 -81z m-1592 54 c115 -16 113 -15 68 -62 l-39 -41 49 36 c27 21 53
37 57 37 9 0 162 -59 167 -65 3 -3 -36 -116 -82 -238 -15 -38 -42 -128 -61
-200 -19 -73 -48 -175 -64 -227 l-29 -95 -113 3 c-120 4 -184 16 -173 34 4 6
3 8 -3 5 -5 -3 -29 3 -52 15 -23 11 -61 23 -84 25 l-43 5 37 108 c21 59 51
132 68 162 22 38 31 68 31 99 0 36 10 63 54 137 49 83 55 100 65 181 15 120
17 126 45 107 12 -8 58 -19 102 -26z m-1288 -240 c41 -58 85 -115 96 -128 12
-13 16 -26 10 -31 -25 -24 -293 -161 -314 -161 -5 0 -19 17 -31 38 -12 20 -44
62 -69 92 l-47 55 23 58 c15 38 43 80 81 120 32 35 67 79 78 100 l19 37 39
-38 c21 -20 73 -84 115 -142z m1911 150 l22 -31 -47 -58 -47 -59 -50 54 c-74
81 -70 56 5 -28 35 -40 76 -90 91 -110 21 -28 40 -41 72 -49 53 -13 57 -18 79
-86 10 -28 35 -72 58 -98 l41 -46 -16 -34 c-14 -30 -82 -85 -104 -85 -4 0 -29
21 -55 47 -47 46 -48 46 -109 44 l-61 -2 -129 128 -128 128 55 137 c32 79 62
139 72 143 15 6 167 30 213 34 8 0 25 -13 38 -29z m-3175 -82 c13 -29 38 -78
56 -108 47 -78 72 -131 66 -138 -3 -3 -42 4 -86 16 -75 20 -82 20 -122 5 -41
-15 -46 -15 -91 6 -26 12 -45 26 -42 30 3 5 -3 7 -14 4 -36 -9 -34 18 5 59 37
38 195 178 202 178 2 0 14 -24 26 -52z m3402 -157 c48 -54 74 -92 74 -107 0
-28 -56 -144 -69 -144 -19 0 -70 71 -91 127 -25 66 -45 93 -71 93 -34 0 -67
22 -99 66 -34 48 -35 47 24 117 l40 48 59 -58 c33 -32 92 -96 133 -142z m855
129 c77 -91 109 -135 109 -148 0 -6 -21 -27 -47 -47 -80 -61 -90 -108 -37
-170 l26 -30 -21 36 c-34 59 -28 86 31 141 l53 48 20 -42 c12 -24 38 -66 58
-94 20 -28 37 -56 37 -61 0 -6 -25 -13 -55 -17 -31 -3 -105 -28 -171 -56 -141
-60 -195 -66 -218 -22 -18 35 -21 59 -12 102 5 29 -2 55 -39 144 -25 60 -43
111 -41 113 16 16 242 172 247 170 3 -1 30 -31 60 -67z m-387 -67 c25 -18 46
-36 45 -40 -1 -14 -98 -83 -116 -83 -10 0 -69 -18 -132 -40 -63 -22 -119 -40
-123 -40 -14 0 114 180 145 204 15 11 40 31 55 43 30 24 28 25 126 -44z
m-2026 -243 c58 -74 132 -167 164 -207 32 -39 58 -75 58 -79 0 -4 -16 -28 -36
-55 -33 -43 -42 -48 -88 -54 -28 -4 -76 -13 -107 -21 -31 -8 -59 -14 -62 -14
-3 0 -9 15 -12 33 -4 17 -32 78 -62 134 -36 67 -66 144 -88 220 -54 193 -56
173 17 226 l63 45 24 -46 c13 -26 71 -107 129 -182z m2128 95 c30 -70 39 -104
40 -155 1 -36 5 -78 9 -93 l8 -28 -54 6 c-30 4 -76 11 -102 16 -42 8 -57 6
-110 -17 -34 -14 -69 -28 -78 -31 -12 -3 -30 20 -69 94 -29 54 -60 109 -69
123 -8 14 -11 22 -7 18 5 -4 56 10 115 31 58 21 123 41 143 45 23 4 57 23 84
47 26 22 48 39 49 37 2 -2 20 -43 41 -93z m559 74 c50 -6 93 -14 97 -18 9 -8
-102 -193 -117 -197 -20 -5 -125 177 -125 217 0 12 36 11 145 -2z m-2981 -61
c6 -28 3 -36 -21 -55 -15 -13 -80 -63 -143 -113 -63 -50 -129 -107 -147 -127
-31 -36 -32 -37 -79 -27 -47 9 -48 10 -74 74 l-26 65 130 65 c72 37 151 79
175 94 34 22 116 48 172 55 4 1 10 -14 13 -31z m1363 -114 c65 -61 129 -116
142 -123 15 -9 40 -11 70 -7 43 6 47 4 88 -36 24 -23 43 -45 43 -49 0 -4 -42
-37 -92 -73 -86 -61 -103 -79 -184 -193 -16 -24 -122 -2 -177 36 -23 16 -68
45 -99 65 -32 20 -58 42 -58 50 0 8 16 65 35 126 19 61 44 147 55 191 23 89
40 131 51 127 5 -2 61 -53 126 -114z m-1332 -1 c36 -127 49 -162 97 -248 28
-49 56 -112 64 -140 13 -48 13 -51 -8 -67 -13 -9 -48 -29 -79 -43 l-57 -28
-68 46 c-71 47 -269 218 -288 249 -9 15 -4 24 24 52 43 43 282 236 292 236 4
0 15 -26 23 -57z m-1325 36 c35 -5 66 -11 67 -13 2 -1 -5 -26 -15 -56 l-18
-53 -62 58 c-86 79 -85 83 28 64z m786 -134 l46 -90 -26 -3 c-24 -3 -158 39
-248 77 l-41 17 99 61 c115 72 101 77 170 -62z m-472 25 c3 -3 -2 -29 -10 -58
-12 -39 -21 -53 -37 -57 -12 -2 -60 -11 -107 -20 -47 -9 -95 -18 -106 -20
l-22 -5 23 73 c12 39 30 91 39 113 l17 41 99 -31 c54 -17 101 -34 104 -36z
m3009 -49 c32 -60 57 -113 57 -118 0 -8 -167 -87 -313 -148 l-37 -15 47 87
c42 80 72 131 152 261 14 23 29 42 32 42 3 0 31 -49 62 -109z m-2922 22 c27
-10 49 -20 49 -24 0 -8 -45 -28 -97 -44 -48 -15 -49 -13 -32 48 11 42 14 43
80 20z m3753 -40 c-14 -32 -51 -107 -83 -168 -32 -60 -83 -155 -112 -210 -43
-81 -105 -174 -160 -239 -4 -4 -39 -3 -78 4 l-70 12 -17 46 c-42 114 -110 275
-155 364 -27 54 -49 100 -49 103 0 2 28 19 63 36 61 32 63 32 132 20 39 -6
116 -14 171 -17 93 -6 105 -5 136 14 41 26 206 91 230 92 16 0 15 -6 -8 -57z
m105 -20 c6 -43 26 -142 43 -219 17 -78 28 -149 25 -157 -13 -35 -59 -52 -162
-59 -55 -4 -131 -11 -170 -17 -38 -5 -70 -9 -71 -8 -1 1 37 72 83 157 47 85
109 206 139 268 46 96 57 112 78 112 21 0 24 -6 35 -77z m-3706 7 c41 -13 65
-26 61 -32 -4 -7 -2 -8 5 -4 6 4 20 4 31 1 19 -6 18 -10 -21 -85 -39 -75 -44
-80 -92 -98 -79 -30 -116 -35 -133 -21 -12 10 -13 9 -9 -3 5 -11 -24 -19 -147
-40 -104 -18 -174 -36 -219 -56 -114 -51 -220 -85 -232 -73 -15 15 91 168 158
229 29 26 58 57 64 70 6 12 20 22 31 22 10 0 64 9 120 20 56 11 106 20 111 20
6 0 7 -16 4 -37 -5 -28 -4 -34 4 -23 6 8 11 27 11 41 0 23 6 27 55 38 31 7 68
23 83 36 14 12 31 21 37 20 5 -2 40 -13 78 -25z m2491 -127 c-26 -49 -57 -104
-69 -123 -12 -19 -34 -58 -48 -86 l-26 -51 -80 16 c-44 9 -82 18 -85 21 -3 3
17 35 43 71 33 45 75 85 132 125 73 52 169 113 177 114 2 0 -18 -39 -44 -87z
m-2302 58 c3 -3 -17 -57 -45 -119 l-50 -112 -25 42 -25 42 44 82 c40 76 46 83
69 77 14 -3 28 -8 32 -12z m109 -21 c9 0 48 -36 85 -80 44 -51 80 -84 99 -89
79 -24 135 -49 171 -77 21 -17 48 -36 59 -42 49 -28 49 -27 18 -73 -38 -55
-73 -124 -73 -142 0 -8 -14 -32 -31 -53 -18 -22 -45 -67 -60 -101 -16 -34 -49
-85 -73 -112 -25 -28 -50 -60 -56 -71 -32 -59 -133 21 -170 135 -12 39 -33 96
-46 127 -17 41 -24 77 -24 125 0 63 -4 74 -45 143 -25 41 -45 79 -45 84 0 5
23 60 52 123 l52 115 35 -6 c20 -3 43 -6 52 -6z m121 -37 c71 -58 168 -146
165 -149 -2 -2 -32 8 -68 22 -53 21 -73 36 -117 90 -44 53 -50 64 -33 64 11 0
34 -12 53 -27z m2474 -75 c27 -51 52 -102 55 -113 4 -11 14 -36 22 -54 l15
-35 -137 -149 c-75 -82 -151 -169 -169 -194 -21 -28 -50 -52 -79 -65 l-45 -20
-141 62 c-78 34 -148 67 -154 73 -10 10 0 39 48 137 76 158 150 290 161 290
10 0 187 77 298 129 36 16 68 30 71 31 4 0 29 -42 55 -92z m-1423 42 c15 -7
27 -18 27 -23 0 -14 -52 -107 -60 -107 -9 0 -120 134 -120 144 0 4 10 10 23
15 22 8 74 -3 130 -29z m-97 -85 c41 -49 58 -77 56 -92 -3 -22 -6 -21 -102 27
-54 27 -101 54 -105 60 -3 5 11 31 31 56 30 36 40 43 49 32 7 -7 39 -44 71
-83z m335 39 l107 -6 -5 -56 c-2 -32 0 -86 5 -122 5 -36 8 -67 7 -68 -2 -2
-45 10 -97 26 -51 16 -135 38 -186 48 l-94 19 5 33 c3 18 20 57 37 87 31 54
31 54 73 50 23 -3 90 -7 148 -11z m-1652 -60 l25 -46 -31 -55 c-16 -30 -34
-54 -39 -52 -10 3 -124 140 -124 149 0 4 110 42 140 49 3 1 16 -20 29 -45z
m1872 -7 c46 -28 85 -59 87 -68 1 -8 -21 -46 -49 -85 -29 -38 -53 -70 -54 -72
-2 -2 -20 4 -41 13 l-39 15 -3 125 c-2 73 0 125 6 125 5 0 47 -24 93 -53z
m-619 -44 c110 -53 118 -60 113 -81 -3 -13 -36 -103 -74 -200 -37 -98 -76
-198 -85 -224 -10 -27 -21 -48 -25 -48 -13 0 -57 53 -104 125 -25 39 -59 78
-76 88 l-30 18 -3 172 c-2 95 -2 173 -1 175 1 2 37 10 80 17 43 7 80 13 82 14
3 1 58 -25 123 -56z m-1386 -25 c92 -113 87 -97 58 -169 -14 -35 -57 -125 -94
-199 -37 -74 -73 -156 -79 -183 -6 -26 -20 -72 -32 -102 l-20 -54 -56 24 c-30
14 -81 40 -112 59 -31 19 -130 73 -221 121 -91 47 -168 90 -173 94 -4 4 0 39
9 77 11 49 15 94 11 156 l-6 88 37 -1 c35 -1 116 25 258 85 47 20 276 69 350
75 7 1 38 -31 70 -71z m1090 7 c8 -46 1 -261 -9 -272 -10 -9 -62 48 -130 141
l-47 66 32 14 c18 7 55 30 83 50 27 20 53 36 57 36 4 0 10 -16 14 -35z m-867
-88 c29 -50 32 -66 30 -120 -1 -45 3 -74 18 -107 11 -25 24 -56 28 -70 35
-115 67 -177 110 -213 l45 -38 -34 -62 c-19 -34 -42 -88 -52 -121 -10 -32 -24
-60 -31 -63 -19 -7 -453 144 -475 166 -4 3 4 39 17 80 14 40 25 81 25 90 0 10
24 64 54 122 30 57 77 156 104 219 28 63 63 137 77 163 31 55 26 57 84 -46z
m2008 49 c4 -3 -120 -158 -144 -178 -18 -17 -21 -16 -53 10 l-33 29 49 67 c27
37 53 73 58 80 6 9 23 10 65 4 30 -5 56 -10 58 -12z m-424 -79 l99 -32 45 -64
c25 -36 47 -71 50 -78 3 -7 -20 -47 -50 -90 -30 -43 -62 -93 -71 -111 -10 -18
-33 -51 -53 -73 -28 -31 -38 -53 -47 -102 l-11 -62 -74 -9 c-55 -7 -76 -6 -79
2 -2 7 -8 12 -13 12 -6 0 -7 -5 -3 -12 5 -8 -2 -9 -26 -5 -18 4 -41 7 -52 7
-10 0 -17 3 -15 8 3 4 -22 8 -54 8 -33 1 -65 7 -73 13 -7 6 -21 38 -30 71
l-17 60 35 103 c19 56 60 170 91 252 31 83 58 155 60 161 5 15 157 -16 288
-59z m535 53 l60 -12 -52 -112 c-29 -61 -66 -138 -82 -170 l-28 -59 -77 83
c-74 81 -76 85 -61 105 98 122 157 185 167 181 7 -2 40 -10 73 -16z m-1428
-92 c54 -77 59 -94 33 -102 -22 -6 -182 -36 -194 -36 -14 0 -10 38 8 73 26 52
85 137 94 137 5 0 31 -32 59 -72z m2176 6 c-4 -10 -2 -12 6 -8 8 5 9 2 5 -9
-3 -10 -3 -17 1 -17 4 0 16 -24 26 -52 10 -29 29 -71 43 -92 l25 -39 -32 -86
c-18 -47 -53 -132 -77 -188 -42 -96 -47 -103 -73 -103 -24 0 -42 17 -112 100
-46 55 -96 125 -111 155 -34 66 -46 46 141 252 137 152 137 152 150 127 7 -14
11 -32 8 -40z m-3824 -41 c5 -88 -8 -192 -26 -210 -6 -6 -224 85 -231 98 -10
15 217 209 245 209 4 0 10 -44 12 -97z m2749 -22 c40 -35 41 -36 22 -53 -19
-17 -21 -16 -60 41 -47 68 -30 73 38 12z m137 -135 c40 -44 72 -84 72 -90 0
-6 -28 -59 -62 -118 -54 -96 -64 -108 -89 -108 -23 0 -118 -18 -253 -47 l-28
-6 7 54 c5 40 13 59 31 72 13 11 36 40 51 65 35 61 141 222 161 245 9 10 21
16 27 15 6 -2 44 -39 83 -82z m-1149 60 c6 -7 9 -22 5 -32 -5 -15 -4 -16 4 -5
12 17 33 6 101 -57 31 -30 42 -46 37 -59 -4 -9 -4 -14 0 -10 4 4 20 -14 35
-41 15 -26 41 -60 58 -76 17 -17 31 -38 31 -48 0 -9 9 -41 20 -69 l21 -52 -41
-71 c-34 -59 -63 -90 -165 -178 l-124 -107 -73 24 c-40 13 -163 52 -273 86
-110 34 -202 63 -204 65 -2 2 10 20 26 41 45 57 45 58 50 156 5 100 9 109 79
192 23 28 56 80 73 116 17 37 39 73 48 80 14 13 207 56 259 58 12 1 27 -5 33
-13z m2251 5 c19 -6 50 -12 68 -15 19 -2 35 -6 37 -8 2 -2 -18 -28 -44 -58
l-47 -54 -37 66 c-20 37 -37 69 -37 72 0 8 20 7 60 -3z m282 -95 c74 -30 145
-56 157 -58 20 -2 27 -14 41 -66 10 -36 35 -87 59 -122 25 -36 44 -74 45 -94
2 -18 6 -38 10 -45 11 -18 -14 -112 -32 -118 -18 -7 -230 16 -253 28 -9 5 -45
57 -79 116 -34 59 -91 149 -125 198 -34 50 -65 95 -68 101 -9 16 72 114 94
114 10 0 78 -24 151 -54z m-1070 -62 l146 -66 -73 -102 c-79 -108 -123 -146
-172 -146 -37 0 -203 59 -209 74 -2 6 19 54 48 107 29 52 64 119 77 147 14 29
27 52 30 52 3 0 72 -30 153 -66z m780 11 c10 -22 6 -33 -38 -97 -74 -110 -84
-128 -75 -128 4 0 37 43 72 95 35 52 67 94 70 95 7 0 176 -257 218 -332 38
-68 35 -68 -85 4 -74 44 -87 48 -135 46 -30 -1 -89 -2 -131 0 l-77 2 33 68
c18 37 52 113 76 170 24 56 47 102 52 102 5 0 14 -11 20 -25z m-3875 -79 c109
-55 182 -96 173 -99 -92 -33 -343 -72 -404 -63 l-48 8 5 42 c10 71 57 206 72
206 7 0 98 -42 202 -94z m3404 12 c14 -33 113 -163 176 -229 l33 -35 -61 -120
c-60 -115 -76 -137 -90 -129 -3 3 -55 73 -114 157 -60 84 -110 155 -112 157
-2 2 -6 2 -9 -2 -4 -3 42 -74 101 -158 93 -131 105 -153 91 -161 -10 -5 -32
-23 -50 -39 -19 -16 -36 -29 -39 -29 -3 0 -41 42 -85 93 -45 50 -112 118 -151
151 -70 57 -84 76 -58 76 26 0 89 64 152 154 60 87 68 94 127 118 35 14 66 27
69 27 4 1 13 -14 20 -31z m-3293 -197 l-73 -60 -18 22 c-37 45 -40 57 -15 57
13 1 52 9 88 20 36 10 71 19 78 19 7 1 -20 -26 -60 -58z m206 8 c56 -28 102
-53 104 -54 1 -1 -15 -33 -37 -70 -34 -57 -92 -184 -115 -248 -3 -10 -11 -15
-17 -11 -19 11 -159 205 -184 254 l-24 47 82 67 c45 36 84 66 86 66 2 0 50
-23 105 -51z m802 -46 c-5 -77 -9 -89 -42 -134 -30 -41 -40 -48 -58 -43 -11 4
-22 8 -24 9 -2 2 5 33 16 69 24 78 89 199 103 190 7 -4 8 -39 5 -91z m-1105
-23 c24 -39 75 -118 113 -176 l69 -105 -12 -55 c-7 -29 -15 -54 -19 -54 -4 0
-8 -12 -9 -26 0 -14 -5 -30 -10 -35 -8 -8 -392 -79 -424 -79 -3 0 -5 76 -3
170 3 152 1 172 -16 192 -12 15 -16 33 -13 54 3 19 -2 48 -15 76 l-20 46 41
22 c30 17 55 23 96 22 31 -1 74 3 96 7 77 16 78 16 126 -59z m2709 62 c0 -27
-97 -316 -119 -355 l-28 -48 -97 105 c-84 91 -96 108 -87 125 6 11 11 32 11
48 0 75 -2 73 158 108 113 25 162 30 162 17z m151 -47 c52 -19 101 -35 111
-35 18 0 244 -219 297 -287 l32 -42 -113 -90 c-62 -50 -118 -91 -123 -91 -6 0
-29 39 -52 88 -27 55 -65 113 -105 159 -35 39 -78 89 -96 110 -35 40 -33 28 3
-22 39 -53 39 -54 0 -44 -20 6 -44 9 -53 6 -9 -2 10 -10 43 -17 51 -12 67 -21
105 -63 48 -53 57 -67 106 -168 l32 -66 -57 -44 c-31 -24 -89 -73 -130 -108
-73 -63 -74 -64 -90 -43 -85 108 -100 133 -116 187 -9 32 -27 79 -39 104 l-23
44 38 81 c20 45 56 142 78 216 48 156 49 160 54 160 2 0 47 -16 98 -35z m-810
-27 c4 -6 9 -31 12 -58 3 -26 21 -76 41 -111 27 -51 35 -77 38 -130 3 -75 5
-72 -133 -216 l-78 -81 -118 85 c-138 99 -153 112 -153 130 0 7 55 70 123 140
82 85 136 151 161 196 37 66 39 68 70 61 17 -3 34 -11 37 -16z m-1565 -5 l42
-17 27 -103 c31 -118 30 -134 -25 -312 -45 -147 -36 -142 -171 -88 -63 25
-133 51 -156 58 -24 7 -43 15 -43 18 0 3 22 28 48 56 35 35 56 69 72 115 22
64 98 222 127 267 18 28 26 28 79 6z m1699 -1 c66 -7 69 -8 111 -58 l43 -50
-54 -75 c-30 -40 -69 -94 -87 -119 l-33 -45 -3 55 c-1 40 -13 77 -42 135 -21
44 -42 102 -45 128 -6 47 -6 48 18 42 13 -4 54 -9 92 -13z m195 -25 c0 -18 -7
-42 -15 -53 -14 -18 -16 -18 -49 21 -20 22 -35 43 -36 47 0 7 31 15 73 17 24
1 27 -2 27 -32z m1651 -18 c49 -28 89 -53 89 -54 0 -2 -53 -45 -117 -97 -65
-51 -164 -133 -221 -181 l-102 -88 -52 3 -52 3 -18 50 c-10 28 -27 79 -37 114
l-20 63 58 111 c32 61 67 114 77 118 11 4 84 8 163 8 l143 1 89 -51z m-3074
-116 c46 -15 83 -32 83 -39 0 -19 -60 -104 -149 -209 -46 -54 -115 -141 -155
-194 l-72 -97 -67 36 c-95 51 -95 51 -69 107 20 44 80 243 96 319 4 19 1 57
-9 93 -9 34 -13 66 -10 71 6 9 216 -43 352 -87z m3237 -31 l44 -88 -91 -80
c-51 -45 -127 -111 -169 -148 l-76 -67 -91 46 c-50 25 -98 45 -108 45 -11 0 4
19 42 53 54 48 397 327 402 327 2 0 23 -40 47 -88z m107 71 l100 -16 -23 -25
c-13 -13 -44 -42 -70 -64 l-47 -39 -41 80 c-22 45 -35 81 -30 81 6 0 56 -7
111 -17z m-1761 -253 c-39 -75 -31 -73 -165 -40 -66 16 -139 35 -163 43 l-43
13 22 20 c12 10 37 44 56 74 20 30 51 75 71 98 l35 44 102 -109 103 -108 -18
-35z m-1310 125 c91 -30 170 -57 177 -59 13 -5 -72 -178 -159 -324 -27 -46
-48 -86 -45 -88 7 -8 55 71 143 239 48 89 87 163 89 165 4 4 119 -38 129 -48
12 -12 -348 -375 -363 -366 -5 3 -18 -10 -30 -29 -11 -19 -27 -35 -36 -35 -8
0 -15 -4 -15 -9 0 -5 -22 -23 -49 -41 l-50 -31 -145 70 c-79 39 -148 71 -153
71 -4 0 -16 7 -26 15 -18 13 -16 17 24 72 39 52 131 167 247 306 24 29 55 73
70 99 15 27 27 48 27 48 1 0 75 -25 165 -55z m2270 -32 c0 -10 12 -49 25 -88
14 -38 25 -73 25 -77 0 -10 -176 1 -217 14 -36 10 -38 16 -22 50 12 26 102
100 133 110 38 11 56 9 56 -9z m-3260 -44 c0 -12 -62 -81 -67 -75 -3 2 3 29
13 60 17 53 19 55 36 39 10 -9 18 -20 18 -24z m4020 -2 c0 -7 23 -71 51 -141
28 -70 49 -130 47 -132 -14 -14 -345 -104 -356 -97 -7 4 -27 31 -43 60 l-30
52 128 108 c70 59 141 120 158 135 34 31 45 34 45 15z m-1898 -101 l128 -32
-91 -149 c-50 -83 -97 -160 -106 -173 l-14 -24 -44 57 c-47 60 -61 115 -54
208 2 25 1 43 -3 40 -5 -2 -8 25 -8 61 l0 65 33 -10 c17 -6 89 -25 159 -43z
m912 20 c-3 -9 -10 -16 -15 -16 -4 0 -6 -6 -3 -13 5 -13 -85 -245 -128 -332
-24 -48 -156 -225 -168 -225 -8 0 -102 144 -130 199 -17 33 -1 60 79 126 82
68 365 283 369 280 1 -1 0 -10 -4 -19z m-1670 -45 l17 -44 -80 -81 c-45 -45
-81 -86 -81 -91 0 -5 38 28 84 74 l85 84 35 -78 c20 -42 36 -79 36 -81 0 -2
13 -32 30 -67 l30 -63 -19 -48 c-20 -55 -176 -238 -223 -262 -35 -18 -31 -20
-176 89 -76 58 -100 82 -132 138 -22 37 -40 70 -40 74 0 11 405 410 411 405 3
-3 14 -25 23 -49z m555 -96 c5 -71 8 -132 6 -133 -11 -11 -215 64 -215 78 0
16 195 213 197 199 2 -8 7 -72 12 -144z m482 -8 c12 -39 36 -81 74 -128 43
-53 54 -73 46 -83 -10 -12 -51 -32 -276 -135 l-110 -50 -17 22 c-9 12 -24 38
-33 58 l-17 36 115 184 c63 101 122 200 132 219 l18 34 25 -49 c14 -28 33 -76
43 -108z m718 98 c59 -13 85 -25 130 -59 94 -73 211 -176 211 -186 0 -12 -124
-85 -180 -105 -33 -13 -63 -15 -115 -11 -82 8 -245 44 -245 55 0 9 31 89 60
156 9 22 28 68 41 103 13 34 24 62 24 62 0 0 33 -7 74 -15z m-1660 -18 c6 -8
8 -17 4 -21 -4 -4 0 -4 10 0 16 6 68 -25 211 -128 l38 -27 -47 -28 c-26 -15
-65 -43 -86 -61 l-38 -33 -20 39 c-30 58 -101 240 -101 257 0 19 14 19 29 2z
m1885 -8 c5 -5 5 -20 0 -38 l-9 -30 -52 35 c-29 19 -55 39 -58 45 -8 11 106 1
119 -12z m-3496 -24 c-18 -26 -46 -45 -123 -81 -55 -26 -121 -60 -147 -75 -48
-28 -48 -28 -48 -6 0 12 13 51 28 87 l27 64 120 22 c66 12 130 22 143 23 l22
1 -22 -35z m175 3 c86 -29 222 -88 204 -88 -4 0 -3 -9 3 -20 8 -15 8 -41 1
-93 -6 -40 -15 -115 -19 -167 -7 -75 -16 -110 -43 -168 l-34 -74 -26 21 c-40
31 -86 109 -133 223 -23 57 -60 133 -83 171 -57 93 -61 127 -26 183 17 26 36
44 46 44 11 0 60 -14 110 -32z m3445 3 c63 -22 172 -78 172 -90 0 -3 -25 -31
-55 -61 -64 -63 -64 -63 -165 27 -66 58 -67 61 -54 121 6 28 27 28 102 3z
m-3639 -113 c7 -24 29 -69 48 -101 30 -50 33 -61 24 -87 -20 -58 -193 -310
-213 -310 -5 0 -44 26 -86 58 -42 32 -126 92 -185 132 l-108 74 52 31 c28 16
101 61 163 99 92 57 265 145 287 146 3 0 11 -19 18 -42z m3875 -33 c38 -58 44
-75 24 -75 -7 0 -37 -11 -66 -25 l-54 -25 -34 27 -35 26 63 64 c34 34 63 63
64 63 1 0 18 -25 38 -55z m-3134 -144 c58 -26 124 -59 148 -74 38 -24 42 -31
41 -65 0 -20 -6 -62 -12 -92 -11 -50 -14 -55 -37 -52 -91 11 -258 -53 -299
-113 -25 -37 -31 -40 -156 -72 -72 -18 -134 -33 -138 -33 -11 0 -5 16 56 180
39 104 61 145 92 180 65 72 73 89 17 35 l-52 -49 5 49 c10 89 26 209 31 233 5
23 6 22 102 -28 53 -28 144 -73 202 -99z m1257 105 c38 -13 82 -30 96 -37 29
-16 76 -81 136 -191 42 -77 42 -77 25 -110 -54 -106 -128 -228 -139 -228 -7 0
-52 14 -100 32 -64 23 -92 39 -110 62 -43 58 -185 312 -185 332 0 31 49 81
120 124 36 22 70 39 76 40 6 0 42 -11 81 -24z m1763 -152 c0 -45 -29 -124 -46
-124 -8 0 -48 -27 -90 -60 -100 -80 -152 -109 -206 -116 -43 -6 -51 -3 -127
46 -47 31 -78 57 -74 64 19 31 112 130 144 151 19 14 62 34 96 45 33 12 91 40
129 64 l69 42 53 -40 c43 -34 52 -46 52 -72z m230 71 c13 -14 74 -55 137 -91
62 -37 116 -71 119 -76 3 -4 -28 -48 -69 -96 l-74 -89 -44 14 c-24 7 -87 24
-139 38 -81 21 -100 30 -134 64 -37 37 -38 41 -27 69 7 16 15 51 19 78 l7 48
80 32 c44 18 85 33 91 34 6 0 21 -11 34 -25z m-1196 -126 c55 -88 67 -115 59
-128 -5 -9 -71 -57 -146 -107 l-135 -91 -31 19 c-18 12 -28 25 -24 31 3 7 3 9
-2 5 -4 -4 -29 10 -54 32 -25 22 -54 47 -64 56 -18 15 -18 17 14 50 43 44 29
57 -16 14 l-34 -33 -20 24 c-11 13 -20 30 -21 37 0 7 48 36 108 63 59 27 148
69 197 94 50 24 92 44 95 44 3 1 36 -49 74 -110z m433 76 c69 -14 126 -25 127
-25 2 0 -35 -39 -82 -86 -84 -85 -87 -87 -156 -101 -65 -14 -75 -13 -126 3
-30 10 -58 21 -63 24 -4 3 27 51 68 105 41 55 75 104 75 108 0 5 7 6 17 3 9
-4 72 -18 140 -31z m-3108 -83 c1 -20 59 -133 87 -170 14 -17 22 -37 18 -44
-4 -6 -3 -8 3 -5 6 4 16 0 23 -8 11 -13 5 -34 -34 -121 -25 -57 -46 -111 -46
-119 0 -25 -13 -17 -67 38 -28 30 -92 87 -142 127 l-91 74 24 25 c33 35 173
246 182 274 6 20 9 19 25 -18 10 -22 18 -46 18 -53z m1010 7 c35 -57 63 -86
143 -147 l99 -76 -63 -23 c-106 -39 -130 -39 -262 1 -66 20 -120 37 -121 39
-1 1 5 47 15 101 l16 99 55 38 c30 21 59 38 64 38 6 0 30 -32 54 -70z m-1560
-36 c117 -80 271 -194 271 -199 0 -2 -71 -64 -157 -138 l-157 -135 -46 164
c-26 90 -54 174 -63 188 -15 23 -15 29 2 83 19 62 38 104 47 104 4 0 50 -30
103 -67z m2227 -95 c9 -18 39 -68 66 -110 39 -61 48 -82 42 -100 -12 -35 -5
-67 28 -140 l31 -68 -94 -97 c-96 -100 -186 -179 -195 -171 -2 3 -12 75 -21
161 l-17 156 27 203 c15 112 30 229 33 261 l7 58 38 -60 c21 -34 46 -76 55
-93z m-156 -74 c-11 -87 -23 -160 -25 -162 -6 -6 -48 19 -117 71 l-67 51 27
16 c16 10 66 58 113 108 46 50 85 87 87 82 2 -4 -6 -79 -18 -166z m2660 138
c0 -7 -61 -68 -122 -121 -49 -42 -30 -8 33 62 54 59 89 83 89 59z m-516 -61
c40 -35 67 -50 95 -54 22 -2 82 -18 134 -33 l94 -28 -70 -96 c-39 -52 -105
-138 -147 -190 l-77 -95 -110 -25 -110 -26 18 31 c20 32 26 70 9 60 -6 -4 -8
-10 -5 -15 3 -5 -6 -27 -20 -48 -21 -33 -34 -41 -78 -51 -29 -6 -62 -14 -73
-17 -18 -5 -28 6 -67 73 -25 44 -61 100 -80 125 l-35 45 44 64 c25 35 50 80
56 101 8 29 16 38 33 38 44 0 113 32 185 87 78 58 141 103 146 103 1 0 28 -22
58 -49z m-1445 -86 c47 -77 74 -105 160 -165 53 -37 13 -65 -149 -104 l-102
-25 -89 -86 c-48 -47 -95 -85 -104 -85 -8 0 -15 2 -15 4 0 2 -11 29 -25 60
l-25 56 48 53 c26 28 58 69 70 90 13 20 28 37 33 37 5 0 9 5 9 10 0 14 123
239 131 240 3 0 29 -38 58 -85z m636 56 c46 -16 51 -21 61 -62 18 -70 42 -119
84 -174 22 -29 40 -58 40 -66 -1 -12 -108 -77 -292 -178 l-47 -26 -33 31 c-18
17 -48 40 -66 50 -23 13 -36 30 -43 58 -12 46 -52 132 -74 162 -15 20 -12 23
79 84 53 34 119 80 148 101 57 43 71 45 143 20z m205 -18 c0 -11 -62 -103 -70
-103 -12 0 -40 47 -43 72 -1 17 4 24 28 29 41 9 85 10 85 2z m113 -44 c34 -23
63 -43 65 -44 12 -9 -91 -185 -107 -185 -4 0 -34 32 -68 70 l-62 70 39 62 c22
34 40 65 40 71 0 13 22 3 93 -44z m-2532 -104 c-69 -68 -160 -150 -201 -181
-41 -32 -93 -74 -116 -94 -41 -37 -48 -40 -166 -56 l-48 -6 0 41 c0 26 5 41
13 41 9 0 8 3 -2 9 -11 7 -10 20 9 77 13 38 23 70 24 71 2 3 291 76 303 76 7
0 10 4 7 8 -3 5 2 21 10 37 11 21 34 37 88 60 85 36 98 39 159 41 l46 1 -126
-125z m303 56 c54 -17 105 -31 114 -31 8 0 57 14 109 30 51 17 97 30 101 30 4
0 50 -31 101 -70 51 -38 100 -72 109 -74 15 -5 17 -18 14 -83 -1 -43 3 -142
10 -221 10 -108 11 -152 2 -181 -6 -21 -14 -67 -18 -102 -6 -52 -17 -89 -31
-107 -5 -6 -309 41 -485 74 -102 20 -239 44 -305 55 -66 11 -127 22 -136 25
-23 7 -222 271 -214 284 4 6 55 48 113 93 59 45 158 135 221 200 114 116 114
117 155 113 23 -2 85 -18 140 -35z m-1126 -43 c107 -87 201 -178 219 -211 8
-16 13 -30 11 -31 -2 -1 -61 -37 -131 -80 -150 -91 -146 -90 -278 -22 -46 24
-102 49 -124 56 -22 7 -55 24 -73 37 -28 21 -31 27 -20 40 15 18 310 273 316
273 2 0 38 -28 80 -62z m4369 -204 c-7 -6 -77 -51 -157 -99 -80 -49 -170 -106
-201 -126 l-56 -38 -31 71 -32 71 93 116 c51 64 116 148 146 187 l53 72 98
-122 c74 -91 96 -124 87 -132z m-2291 171 c38 -14 75 -28 82 -30 18 -6 -4 -41
-70 -114 l-47 -52 -24 48 c-39 77 -49 117 -38 147 6 14 15 26 20 26 5 0 40
-11 77 -25z m551 -138 c14 -20 24 -56 28 -100 6 -50 14 -76 30 -96 13 -15 30
-54 39 -86 l16 -60 -36 -30 c-202 -166 -238 -192 -328 -237 -76 -38 -101 -47
-107 -37 -4 8 -18 45 -30 84 -12 38 -44 129 -71 201 l-49 130 91 90 c50 49 99
92 108 96 9 4 62 17 117 29 55 12 111 27 125 35 36 19 43 17 67 -19z m720 -55
c24 -31 58 -87 77 -123 l35 -65 -95 -23 c-52 -13 -98 -21 -101 -17 -6 6 -27
119 -37 208 l-7 57 33 10 c51 14 50 14 95 -47z m-122 -121 c9 -62 14 -115 12
-118 -11 -11 -333 -80 -340 -73 -5 4 -13 37 -20 74 -13 77 -13 78 73 124 30
16 98 55 150 85 81 48 96 53 102 39 3 -9 14 -68 23 -131z m-1177 49 c10 -28 4
-43 -38 -93 -4 -5 -43 -19 -86 -33 l-78 -24 89 90 c49 50 93 90 96 90 4 0 12
-13 17 -30z m-1832 -32 c-4 -13 -11 -44 -16 -71 -8 -39 -23 -80 -35 -95 -1 -1
-35 13 -74 32 l-72 35 88 60 c97 66 119 74 109 39z m1874 -50 c0 -4 -9 -8 -19
-8 -11 0 -27 -3 -37 -7 -15 -6 -14 -1 6 27 22 31 24 32 37 14 7 -10 13 -21 13
-26z m-1669 -75 c-21 -54 -40 -97 -44 -96 -4 1 -40 9 -81 19 l-73 17 13 55 c7
30 17 59 21 63 8 8 145 36 184 38 14 1 10 -16 -20 -96z m141 -15 c104 -138
103 -136 75 -132 -12 2 -69 11 -127 19 -57 9 -106 17 -107 19 -5 5 66 206 72
206 1 0 40 -51 87 -112z m3330 52 c39 -81 38 -84 -28 -75 -88 11 -162 33 -202
60 -20 14 -32 25 -27 26 6 0 51 11 100 24 50 13 99 23 110 22 13 -1 29 -20 47
-57z m-1767 -57 c31 -76 125 -349 125 -362 0 -4 -10 -12 -22 -18 -17 -7 -61
-3 -158 13 -74 12 -185 30 -247 39 l-111 17 4 57 c16 195 10 175 68 220 39 30
79 49 152 70 54 16 113 30 130 30 30 1 33 -3 59 -66z m1433 14 c-131 -106
-237 -182 -285 -204 -34 -16 -90 -60 -158 -125 -61 -58 -110 -97 -115 -92 -19
20 -149 257 -145 264 15 24 120 53 645 178 117 28 118 28 58 -21z m-3585 13
c51 -8 169 -59 181 -78 6 -10 -76 -152 -88 -152 -9 0 -110 79 -209 164 l-59
50 44 17 c23 10 50 16 60 13 9 -3 41 -9 71 -14z m3727 -24 c19 -8 78 -22 130
-31 52 -10 97 -19 99 -21 1 -1 -7 -32 -18 -67 -33 -98 -60 -268 -50 -314 4
-21 19 -90 33 -153 14 -63 26 -119 26 -124 0 -4 -28 -5 -63 -2 -78 9 -167 -17
-372 -109 -184 -82 -304 -127 -316 -120 -6 4 -7 59 -3 148 l6 142 -50 70 c-28
39 -60 82 -71 96 -11 15 -23 34 -26 42 -9 23 187 202 260 237 33 16 120 77
193 135 73 58 137 103 142 100 6 -4 10 -1 10 6 0 8 6 7 18 -4 10 -9 33 -23 52
-31z m-946 -82 c11 -28 7 -43 -14 -54 -55 -30 -183 -79 -170 -66 25 25 164
135 171 136 4 0 10 -7 13 -16z m-2408 -20 l110 -27 21 -61 c28 -80 85 -199
124 -258 l30 -47 -21 -41 c-11 -22 -25 -38 -30 -35 -5 3 -58 12 -117 20 l-107
14 -92 92 c-51 51 -90 97 -87 103 3 6 2 8 -2 3 -9 -7 -65 40 -65 55 0 4 17 34
38 66 21 32 44 77 51 100 8 23 19 42 25 42 6 0 61 -12 122 -26z m354 -66 c58
-11 107 -21 109 -23 6 -7 -41 -65 -49 -60 -4 3 -7 -3 -6 -13 0 -9 -5 -16 -12
-14 -8 1 -11 -2 -7 -8 3 -5 -15 -51 -41 -101 l-48 -92 -23 29 c-42 53 -143
268 -143 305 0 13 68 6 220 -23z m2224 -166 c56 -87 106 -162 110 -169 4 -7
-21 -33 -64 -68 -39 -31 -73 -55 -75 -53 -2 1 -25 64 -52 138 -47 128 -49 140
-47 225 1 50 2 91 3 93 4 11 34 -28 125 -166z m-141 102 c2 -25 0 -58 -5 -72
-8 -22 0 -53 45 -177 31 -82 54 -151 52 -153 -1 -1 -41 12 -88 30 l-86 32 -72
143 c-40 79 -70 145 -68 147 8 8 194 94 205 95 6 1 14 -20 17 -45z m-1706 -7
c100 -18 185 -35 188 -39 8 -7 -93 -90 -152 -125 -57 -33 -441 -213 -455 -213
-17 0 -3 47 54 180 63 148 120 230 158 230 14 0 107 -15 207 -33z m3251 -188
c-9 -23 -344 -269 -366 -269 -6 0 -15 33 -22 73 -6 39 -18 98 -26 130 -8 32
-14 78 -14 101 0 39 15 144 25 173 2 7 80 -29 205 -95 110 -59 199 -110 198
-113z m-4161 -138 c-27 -75 -53 -148 -59 -163 -14 -40 -51 -36 -135 11 -60 34
-79 40 -158 46 -147 12 -149 0 43 185 94 89 183 171 197 180 l26 17 68 -70 68
-69 -50 -137z m2414 187 c15 -35 25 -66 21 -69 -4 -4 -62 -10 -128 -14 -118
-6 -122 -6 -143 16 -11 13 -21 27 -21 31 0 14 224 116 234 107 5 -4 22 -36 37
-71z m-1108 27 c32 -5 36 -9 27 -20 -10 -12 -5 -25 20 -67 35 -56 58 -155 47
-199 -4 -14 -29 -54 -57 -88 -31 -40 -52 -77 -55 -99 -4 -21 -13 -67 -22 -105
-14 -62 -20 -71 -78 -125 -47 -43 -72 -77 -105 -142 -35 -71 -146 -275 -157
-289 -6 -8 -139 50 -193 84 -30 19 -67 43 -83 53 -15 9 -30 25 -33 35 -3 9 -9
17 -14 17 -5 0 -7 -7 -4 -15 10 -24 -87 -8 -214 36 -94 32 -127 39 -192 39
l-78 0 77 138 c53 93 107 173 165 242 48 56 93 111 99 121 7 11 17 19 22 19
16 0 307 -193 329 -218 11 -12 23 -22 28 -22 6 0 21 -9 35 -20 14 -11 30 -20
36 -20 6 0 -18 21 -53 46 -36 26 -70 51 -75 58 -6 6 -17 16 -26 21 -185 119
-267 178 -263 190 8 20 36 36 144 84 52 24 150 70 218 103 67 34 125 59 128
56 2 -3 -22 -60 -55 -127 l-60 -122 -24 38 c-13 21 -34 54 -45 73 -12 19 -22
29 -22 23 0 -7 18 -42 40 -78 22 -36 40 -70 40 -75 0 -6 -14 -38 -31 -71 -17
-34 -28 -63 -25 -66 3 -3 52 90 110 208 100 205 106 216 157 253 59 44 103 56
164 45 22 -4 57 -10 78 -14z m480 -39 c120 -19 220 -36 223 -38 7 -7 -45 -160
-66 -193 -10 -16 -29 -38 -40 -48 -20 -17 -21 -20 -6 -36 9 -10 16 -28 16 -40
0 -21 -137 -408 -159 -449 -7 -12 -78 -40 -238 -91 -125 -40 -294 -95 -376
-121 l-147 -48 76 146 c95 181 86 168 161 231 67 55 74 71 104 216 10 48 21
69 54 105 24 25 48 55 54 67 15 30 14 147 -3 210 -13 48 -13 53 5 69 35 32 94
63 109 59 8 -3 113 -20 233 -39z m528 -85 l144 4 26 -48 c34 -63 41 -68 124
-100 39 -15 76 -31 83 -36 10 -6 -2 -34 -50 -117 -35 -60 -80 -146 -100 -191
-43 -96 -147 -232 -198 -259 -19 -10 -37 -20 -40 -21 -3 -2 -16 15 -30 38 -15
24 -53 61 -95 90 -38 27 -104 75 -146 106 -41 32 -88 67 -104 78 l-28 21 26
79 c15 44 27 92 27 106 0 23 6 28 45 39 24 7 42 16 39 21 -2 4 -16 4 -31 -2
-33 -12 -38 -7 -22 23 7 12 25 61 40 107 23 73 31 87 60 102 l34 18 26 -31 25
-30 145 3z m-2028 -215 c54 -81 54 -77 -38 -180 l-53 -60 -78 57 c-44 31 -98
74 -122 94 l-42 38 45 125 c73 200 53 189 154 85 48 -50 108 -121 134 -159z
m2647 94 c33 -48 38 -63 31 -86 -4 -16 -6 -56 -4 -89 2 -33 0 -72 -5 -88 -7
-27 -10 -25 -110 90 -56 64 -102 120 -102 124 0 12 134 117 143 112 4 -2 25
-30 47 -63z m-2573 19 c71 -14 77 -39 27 -114 -21 -31 -41 -52 -44 -48 -4 4
-37 47 -74 95 l-65 87 52 -5 c29 -3 75 -10 104 -15z m3719 -90 c9 -46 22 -96
30 -110 7 -14 47 -58 89 -97 l76 -71 -72 -93 c-40 -51 -97 -122 -126 -157 -29
-36 -53 -71 -53 -78 0 -7 -26 -25 -57 -38 l-57 -26 -112 41 c-62 23 -120 47
-129 54 -15 11 -14 22 13 141 17 72 33 149 37 172 4 23 22 71 42 108 33 63 41
70 166 154 73 49 133 87 135 86 1 -1 10 -40 18 -86z m-4401 -25 c59 -6 113
-28 168 -66 21 -15 36 -18 68 -13 35 6 45 3 67 -18 20 -18 184 -144 199 -152
2 -1 -19 -42 -46 -92 -48 -92 -120 -192 -195 -271 -54 -57 -70 -66 -98 -51
-42 22 -108 81 -108 96 0 8 -15 32 -33 54 -58 67 -91 137 -88 189 1 35 -6 60
-32 110 -19 36 -39 94 -46 131 -18 104 -18 102 37 95 26 -3 74 -8 107 -12z
m3151 -96 c54 -62 105 -120 112 -130 11 -14 2 -21 -80 -63 -79 -40 -301 -142
-416 -192 -33 -14 -33 -13 -20 5 7 11 30 38 52 62 29 33 40 39 47 29 5 -8 9
-18 9 -23 0 -5 2 -7 5 -4 3 3 1 16 -5 29 -9 20 -6 37 20 99 31 74 159 300 170
300 3 0 51 -51 106 -112z m893 56 l31 -6 -40 -77 c-29 -55 -70 -108 -147 -190
l-108 -114 -98 17 c-80 13 -119 27 -212 74 -63 31 -115 59 -115 62 0 4 26 17
58 30 31 13 122 52 202 88 240 107 338 134 429 116z m-33 -231 c-15 -83 -60
-253 -68 -253 -8 0 -128 58 -137 66 -4 3 198 220 208 223 2 1 0 -16 -3 -36z
m-1730 -12 c32 -21 88 -61 123 -90 35 -28 81 -61 102 -73 42 -23 106 -105 93
-117 -5 -5 -54 -34 -109 -66 l-100 -57 -50 17 c-79 28 -167 73 -204 105 -30
26 -34 33 -25 54 5 14 29 79 54 145 25 67 48 121 51 121 3 0 32 -17 65 -39z
m1067 -128 c61 -144 88 -215 85 -218 -2 -1 -21 -12 -43 -23 -52 -26 -69 -45
-100 -116 l-26 -58 -68 65 c-47 46 -80 69 -109 76 -57 16 -96 66 -117 153 -10
38 -16 70 -14 71 2 2 49 22 104 46 55 23 129 57 165 76 36 19 68 34 72 35 3 0
26 -48 51 -107z m522 -99 c72 -33 77 -37 72 -62 -3 -15 -11 -63 -18 -107 -7
-44 -13 -81 -14 -82 -7 -12 -205 67 -205 82 0 29 73 205 85 205 1 0 37 -16 80
-36z m-1815 -47 c0 -2 -13 -39 -28 -83 l-28 -79 -106 -52 c-139 -70 -158 -67
-179 20 -7 34 -14 66 -14 70 0 5 77 34 170 66 176 60 185 63 185 58z m-1713
-112 l-45 -98 -21 41 c-12 23 -21 45 -21 50 0 11 122 113 128 108 2 -2 -17
-48 -41 -101z m1356 -68 c9 -30 17 -57 17 -60 0 -4 -21 -7 -48 -7 -26 0 -62
-4 -80 -9 l-33 -10 7 52 c4 29 9 54 11 57 6 7 74 28 94 29 10 1 21 -17 32 -52z
m-143 -6 c0 -10 -3 -33 -6 -50 l-6 -31 -87 3 c-47 1 -103 -2 -123 -6 -30 -6
-38 -5 -38 7 0 9 39 28 118 54 137 47 142 48 142 23z"/>
<path d="M2410 4830 c0 -5 5 -10 10 -10 6 0 10 5 10 10 0 6 -4 10 -10 10 -5 0
-10 -4 -10 -10z"/>
<path d="M2570 4694 c0 -8 5 -12 10 -9 6 4 8 11 5 16 -9 14 -15 11 -15 -7z"/>
<path d="M2480 4550 c0 -5 5 -10 10 -10 6 0 10 5 10 10 0 6 -4 10 -10 10 -5 0
-10 -4 -10 -10z"/>
<path d="M2980 4459 c0 -5 5 -7 10 -4 6 3 10 8 10 11 0 2 -4 4 -10 4 -5 0 -10
-5 -10 -11z"/>
<path d="M3000 4340 c0 -5 5 -10 11 -10 5 0 7 5 4 10 -3 6 -8 10 -11 10 -2 0
-4 -4 -4 -10z"/>
<path d="M2890 4329 c0 -5 5 -7 10 -4 6 3 10 8 10 11 0 2 -4 4 -10 4 -5 0 -10
-5 -10 -11z"/>
<path d="M4570 4730 c0 -5 5 -10 10 -10 6 0 10 5 10 10 0 6 -4 10 -10 10 -5 0
-10 -4 -10 -10z"/>
<path d="M4505 4570 c-3 -5 -1 -10 4 -10 6 0 11 5 11 10 0 6 -2 10 -4 10 -3 0
-8 -4 -11 -10z"/>
<path d="M2021 4354 c0 -11 3 -14 6 -6 3 7 2 16 -1 19 -3 4 -6 -2 -5 -13z"/>
<path d="M4560 4080 c0 -5 5 -10 11 -10 5 0 7 5 4 10 -3 6 -8 10 -11 10 -2 0
-4 -4 -4 -10z"/>
<path d="M1045 4110 c3 -5 8 -10 11 -10 2 0 4 5 4 10 0 6 -5 10 -11 10 -5 0
-7 -4 -4 -10z"/>
<path d="M1700 3810 c0 -5 5 -10 10 -10 6 0 10 5 10 10 0 6 -4 10 -10 10 -5 0
-10 -4 -10 -10z"/>
<path d="M4095 4090 c-3 -5 -1 -10 4 -10 6 0 11 5 11 10 0 6 -2 10 -4 10 -3 0
-8 -4 -11 -10z"/>
<path d="M1925 3410 c-3 -5 -1 -10 4 -10 6 0 11 5 11 10 0 6 -2 10 -4 10 -3 0
-8 -4 -11 -10z"/>
<path d="M3745 3330 c3 -5 8 -10 11 -10 2 0 4 5 4 10 0 6 -5 10 -11 10 -5 0
-7 -4 -4 -10z"/>
<path d="M3685 2930 c-3 -5 -1 -10 4 -10 6 0 11 5 11 10 0 6 -2 10 -4 10 -3 0
-8 -4 -11 -10z"/>
<path d="M860 2940 c0 -5 5 -10 11 -10 5 0 7 5 4 10 -3 6 -8 10 -11 10 -2 0
-4 -4 -4 -10z"/>
<path d="M825 2840 c-3 -5 -1 -10 4 -10 6 0 11 5 11 10 0 6 -2 10 -4 10 -3 0
-8 -4 -11 -10z"/>
<path d="M4345 3050 c-3 -5 -1 -10 4 -10 6 0 11 5 11 10 0 6 -2 10 -4 10 -3 0
-8 -4 -11 -10z"/>
<path d="M4260 2959 c0 -5 5 -7 10 -4 6 3 10 8 10 11 0 2 -4 4 -10 4 -5 0 -10
-5 -10 -11z"/>
<path d="M980 2410 c0 -5 5 -10 10 -10 6 0 10 5 10 10 0 6 -4 10 -10 10 -5 0
-10 -4 -10 -10z"/>
<path d="M410 2419 c0 -5 5 -7 10 -4 6 3 10 8 10 11 0 2 -4 4 -10 4 -5 0 -10
-5 -10 -11z"/>
<path d="M2490 2359 c0 -5 5 -7 10 -4 6 3 10 8 10 11 0 2 -4 4 -10 4 -5 0 -10
-5 -10 -11z"/>
<path d="M3421 2274 c0 -11 3 -14 6 -6 3 7 2 16 -1 19 -3 4 -6 -2 -5 -13z"/>
<path d="M3090 2230 c-8 -5 -10 -10 -5 -10 6 0 17 5 25 10 8 5 11 10 5 10 -5
0 -17 -5 -25 -10z"/>
<path d="M4020 1870 c0 -5 5 -10 10 -10 6 0 10 5 10 10 0 6 -4 10 -10 10 -5 0
-10 -4 -10 -10z"/>
<path d="M4365 1820 c-3 -5 -1 -10 4 -10 6 0 11 5 11 10 0 6 -2 10 -4 10 -3 0
-8 -4 -11 -10z"/>
<path d="M2000 1790 c0 -5 5 -10 11 -10 5 0 7 5 4 10 -3 6 -8 10 -11 10 -2 0
-4 -4 -4 -10z"/>
<path d="M2023 1695 c0 -27 2 -38 4 -22 2 15 2 37 0 50 -2 12 -4 0 -4 -28z"/>
<path d="M4220 1160 c0 -5 5 -10 11 -10 5 0 7 5 4 10 -3 6 -8 10 -11 10 -2 0
-4 -4 -4 -10z"/>
<path d="M3860 1089 c0 -5 5 -7 10 -4 6 3 10 8 10 11 0 2 -4 4 -10 4 -5 0 -10
-5 -10 -11z"/>
<path d="M4040 1040 c0 -5 5 -10 10 -10 6 0 10 5 10 10 0 6 -4 10 -10 10 -5 0
-10 -4 -10 -10z"/>
<path d="M4119 981 c-35 -33 -59 -60 -54 -60 13 0 130 108 123 114 -3 3 -34
-22 -69 -54z"/>
<path d="M1962 1123 c-58 -46 -82 -75 -44 -54 27 15 125 101 115 101 -5 0 -37
-21 -71 -47z"/>
<path d="M1850 630 c0 -5 5 -10 11 -10 5 0 7 5 4 10 -3 6 -8 10 -11 10 -2 0
-4 -4 -4 -10z"/>
<path d="M1370 519 c0 -5 5 -7 10 -4 6 3 10 8 10 11 0 2 -4 4 -10 4 -5 0 -10
-5 -10 -11z"/>
<path d="M1015 400 c-3 -5 -1 -10 4 -10 6 0 11 5 11 10 0 6 -2 10 -4 10 -3 0
-8 -4 -11 -10z"/>
<path d="M1323 345 c-6 -19 -8 -35 -5 -35 4 0 12 16 18 35 6 19 8 35 4 35 -4
0 -11 -16 -17 -35z"/>
<path d="M2410 830 c0 -5 5 -10 10 -10 6 0 10 5 10 10 0 6 -4 10 -10 10 -5 0
-10 -4 -10 -10z"/>
<path d="M2285 650 c3 -5 8 -10 11 -10 2 0 4 5 4 10 0 6 -5 10 -11 10 -5 0 -7
-4 -4 -10z"/>
<path d="M2065 610 c3 -5 8 -10 11 -10 2 0 4 5 4 10 0 6 -5 10 -11 10 -5 0 -7
-4 -4 -10z"/>
<path d="M3290 810 c0 -5 5 -10 11 -10 5 0 7 5 4 10 -3 6 -8 10 -11 10 -2 0
-4 -4 -4 -10z"/>
<path d="M3020 399 c0 -5 5 -7 10 -4 6 3 10 8 10 11 0 2 -4 4 -10 4 -5 0 -10
-5 -10 -11z"/>
<path d="M610 599 c0 -5 5 -7 10 -4 6 3 10 8 10 11 0 2 -4 4 -10 4 -5 0 -10
-5 -10 -11z"/>
<path d="M1812 5038 c10 -46 31 -103 46 -127 64 -104 72 -122 56 -128 -7 -3
-14 -9 -14 -14 0 -4 19 1 43 11 23 11 53 20 68 20 14 0 30 5 37 12 21 21 13
27 -15 13 -16 -7 -45 -16 -65 -19 -32 -6 -37 -4 -43 16 -4 13 -22 46 -40 73
-30 44 -45 86 -69 198 -4 15 -10 27 -15 27 -5 0 0 -37 11 -82z"/>
<path d="M100 4949 c0 -5 5 -7 10 -4 6 3 10 8 10 11 0 2 -4 4 -10 4 -5 0 -10
-5 -10 -11z"/>
<path d="M420 4334 c0 -8 5 -12 10 -9 6 4 8 11 5 16 -9 14 -15 11 -15 -7z"/>
<path d="M220 4250 c0 -5 5 -10 10 -10 6 0 10 5 10 10 0 6 -4 10 -10 10 -5 0
-10 -4 -10 -10z"/>
<path d="M5035 4090 c-3 -5 -1 -10 4 -10 6 0 11 5 11 10 0 6 -2 10 -4 10 -3 0
-8 -4 -11 -10z"/>
<path d="M10 3994 c0 -8 5 -12 10 -9 6 4 8 11 5 16 -9 14 -15 11 -15 -7z"/>
<path d="M5105 2840 c-3 -5 -1 -10 4 -10 6 0 11 5 11 10 0 6 -2 10 -4 10 -3 0
-8 -4 -11 -10z"/>
<path d="M4950 2719 c0 -5 5 -7 10 -4 6 3 10 8 10 11 0 2 -4 4 -10 4 -5 0 -10
-5 -10 -11z"/>
<path d="M4865 2440 c4 -6 11 -8 16 -5 14 9 11 15 -7 15 -8 0 -12 -5 -9 -10z"/>
<path d="M255 1332 c-54 -52 -123 -106 -173 -135 -45 -27 -82 -53 -82 -59 0
-6 12 -3 26 7 15 9 54 33 88 53 59 35 246 205 236 215 -3 3 -46 -34 -95 -81z"/>
<path d="M185 1000 c-3 -5 -1 -10 4 -10 6 0 11 5 11 10 0 6 -2 10 -4 10 -3 0
-8 -4 -11 -10z"/>
<path d="M6 75 c4 -27 11 -57 16 -65 6 -10 6 1 2 30 -10 66 -25 96 -18 35z"/>
<path d="M5108 25 c-3 -14 -1 -25 3 -25 5 0 9 11 9 25 0 32 -6 32 -12 0z"/>
</g>
</svg>