<?xml version="1.0" standalone="no"?>
<!DOCTYPE svg PUBLIC "-//W3C//DTD SVG 20010904//EN"
 "http://www.w3.org/TR/2001/REC-SVG-20010904/DTD/svg10.dtd">
<svg version="1.0" xmlns="http://www.w3.org/2000/svg"
 width="512.000000pt" height="512.000000pt" viewBox="0 0 512.000000 512.000000"
 preserveAspectRatio="xMidYMid meet">
<metadata>
Created by potrace 1.16, written by Peter Selinger 2001-2019
</metadata>
<g transform="translate(0.000000,512.000000) scale(0.100000,-0.100000)"
fill="#000000" stroke="none">
<path d="M11 5102 c-6 -12 -11 -27 -11 -34 1 -7 8 0 16 15 9 16 13 31 11 34
-3 2 -10 -4 -16 -15z"/>
<path d="M187 5097 c3 -13 -5 -52 -17 -86 -13 -38 -25 -113 -31 -185 -8 -91
-14 -124 -27 -133 -21 -17 -52 -16 -76 2 -26 20 -36 19 -36 -2 1 -12 52 -52
141 -112 77 -52 142 -98 145 -102 6 -10 -173 -169 -237 -210 -52 -35 -68 -59
-21 -35 38 20 177 134 232 190 24 25 49 46 54 46 5 0 59 -31 120 -68 135 -84
136 -84 136 -78 0 3 -52 37 -115 77 -63 40 -115 76 -115 81 0 11 37 10 44 -1
3 -5 43 -31 89 -57 45 -26 92 -56 105 -67 23 -22 31 -53 10 -41 -9 5 -10 4 -2
-5 7 -8 -2 -47 -32 -135 -41 -122 -69 -181 -99 -206 -13 -10 -15 -9 -15 9 0
32 27 79 47 83 13 2 14 6 6 11 -19 12 -52 -28 -66 -80 -10 -41 -22 -55 -92
-110 -65 -52 -127 -89 -216 -131 -4 -2 -8 44 -11 101 -3 95 -6 107 -35 153
-18 27 -41 69 -53 94 -20 44 -20 44 -15 10 3 -19 23 -64 46 -101 l40 -66 -3
-109 -3 -109 -42 -3 c-35 -3 -43 -7 -43 -23 0 -12 7 -19 20 -19 25 0 25 -17 0
-55 -11 -16 -20 -41 -19 -55 0 -19 10 -6 37 47 l37 73 33 -20 c18 -11 38 -20
45 -20 15 0 287 -271 287 -286 0 -6 -38 -37 -85 -67 -62 -40 -102 -59 -142
-67 -92 -16 -109 -14 -134 21 -22 31 -22 32 -4 78 9 25 32 96 50 156 19 61 36
119 40 130 6 16 5 17 -4 5 -6 -8 -25 -60 -42 -115 -17 -55 -42 -127 -55 -159
-22 -55 -23 -61 -9 -83 19 -29 14 -40 -25 -48 -17 -4 -30 -11 -30 -17 0 -6 13
-7 33 -2 66 14 115 7 174 -27 47 -27 130 -84 153 -106 3 -2 -27 -34 -66 -71
-54 -51 -97 -80 -182 -122 -101 -50 -111 -58 -112 -82 l0 -27 67 38 66 39 86
-53 c47 -29 118 -68 156 -88 126 -63 117 -40 118 -285 l2 -213 -45 47 c-39 42
-157 120 -166 111 -2 -2 15 -14 39 -27 56 -31 144 -116 169 -165 l21 -40 -28
-20 c-16 -11 -78 -61 -139 -110 -145 -118 -245 -195 -255 -195 -11 0 -26 56
-58 215 -15 77 -29 130 -31 118 -3 -20 33 -239 45 -269 3 -8 1 -14 -4 -14 -5
0 -18 -7 -29 -15 -18 -14 -17 -15 8 -6 24 9 27 7 37 -20 9 -27 8 -31 -24 -52
-23 -14 -35 -30 -35 -45 0 -20 9 -16 94 43 l94 65 22 -34 c11 -19 34 -73 50
-120 31 -94 33 -90 -38 -125 -41 -21 -47 -21 -100 -8 -52 13 -59 12 -89 -6
-18 -10 -33 -26 -33 -34 0 -13 2 -13 17 -2 15 12 16 12 10 -4 -4 -10 -7 -23
-7 -28 0 -6 -5 -7 -10 -4 -6 3 -10 0 -10 -8 0 -9 32 -28 83 -47 45 -18 86 -37
91 -41 5 -4 -1 -28 -13 -52 -28 -58 -38 -126 -30 -207 4 -36 5 -67 4 -69 -3
-2 -72 18 -122 37 -23 8 -14 -17 57 -148 38 -71 70 -133 70 -138 0 -4 -32 -16
-70 -26 -39 -10 -70 -22 -70 -27 0 -14 20 -11 106 15 59 18 82 21 90 12 6 -6
36 -53 68 -104 45 -71 57 -98 52 -117 -4 -14 -10 -25 -15 -25 -8 0 -116 110
-172 177 l-35 42 -48 -105 c-27 -57 -47 -107 -44 -109 3 -3 26 38 51 90 l46
95 67 -73 c36 -39 80 -84 96 -100 l29 -27 -30 -70 c-16 -39 -27 -70 -25 -70 2
0 22 38 44 85 22 47 44 85 48 85 4 0 16 -15 26 -34 10 -19 51 -74 92 -123 l73
-88 -42 -3 c-23 -1 -94 3 -157 11 l-114 13 -38 119 c-21 65 -41 121 -44 124
-9 9 6 -47 41 -151 l32 -97 -23 10 c-45 16 -79 38 -124 78 -56 50 -59 42 -30
-90 23 -103 22 -129 -5 -129 -10 0 -15 -9 -15 -26 0 -21 3 -25 18 -19 9 4 40
15 69 23 52 15 52 15 95 -14 23 -16 60 -53 82 -81 29 -37 48 -53 64 -53 23 0
23 0 5 32 -10 18 -40 56 -68 84 l-50 52 24 25 25 25 80 -61 c86 -65 232 -157
250 -157 6 0 -27 22 -72 50 -159 94 -290 205 -269 227 3 2 67 -2 143 -8 l139
-12 45 -51 c59 -68 141 -145 161 -151 11 -4 15 -13 11 -30 -8 -44 15 -27 24
18 7 32 14 42 29 42 17 0 20 -6 17 -43 -2 -25 1 -42 7 -42 6 0 11 11 11 24 0
21 14 32 92 73 51 26 114 69 141 94 l48 46 76 -81 c72 -77 73 -78 29 -20 -26
34 -58 72 -71 84 -35 33 -31 46 18 54 23 4 51 9 63 12 14 4 48 -16 118 -67
l99 -72 78 -5 c44 -3 79 -6 79 -8 0 -3 -11 -32 -25 -66 -28 -70 -28 -68 -16
-68 5 0 20 28 34 63 14 34 28 62 32 62 4 0 16 -25 27 -55 20 -55 38 -84 38
-63 0 6 -7 27 -15 46 -22 54 -20 56 38 36 28 -10 68 -20 89 -24 29 -4 38 -11
47 -37 6 -17 13 -29 16 -26 3 3 1 17 -4 32 -10 25 -9 26 28 26 33 0 40 -4 51
-30 15 -36 34 -41 20 -4 -13 34 -14 32 23 43 l32 10 -40 -2 c-36 -2 -40 1 -43
23 -2 13 -12 46 -23 72 l-19 48 43 58 c23 32 51 77 61 100 10 23 24 42 30 42
6 0 32 -7 57 -16 l46 -17 32 -136 c17 -75 37 -163 45 -196 8 -35 14 -49 15
-34 1 22 14 34 72 69 61 36 73 40 80 27 19 -33 90 -117 100 -117 5 0 -13 29
-40 64 -31 42 -51 79 -56 105 -4 22 -15 68 -25 102 l-19 61 24 -6 c13 -3 81
-30 152 -60 70 -30 145 -61 165 -69 l37 -16 -29 -87 c-35 -103 -34 -94 -16
-94 8 0 17 11 20 25 4 14 16 50 27 80 l20 55 59 -74 c58 -73 77 -92 85 -84 3
2 -20 33 -50 69 -30 35 -55 67 -55 70 0 10 45 26 155 55 55 15 108 29 117 31
14 4 8 -17 -27 -106 -49 -120 -49 -121 -37 -121 5 0 30 54 56 120 28 69 56
125 66 130 16 8 20 3 34 -37 10 -28 16 -80 16 -130 0 -76 2 -83 20 -83 18 0
20 7 21 58 l1 57 20 -57 c11 -32 24 -58 30 -58 6 0 8 6 5 14 -32 83 -46 162
-48 271 l-3 119 120 113 c65 62 122 113 126 113 4 0 19 -18 35 -41 15 -22 36
-50 46 -62 l18 -22 -10 21 c-6 12 -26 42 -45 67 l-35 46 92 79 c74 64 102 95
141 163 70 120 91 150 213 307 l18 23 62 -21 62 -21 10 -52 c5 -29 15 -90 21
-137 5 -47 21 -125 35 -174 13 -49 22 -92 20 -97 -12 -18 -216 -129 -227 -123
-6 4 -8 3 -5 -4 4 -5 -72 -85 -170 -178 -221 -209 -393 -381 -393 -394 0 -24
29 -6 64 40 21 28 40 50 41 50 2 0 16 -22 32 -50 15 -27 33 -50 40 -50 6 0 -1
23 -18 53 -16 28 -29 57 -29 63 0 6 29 37 65 68 l65 57 57 -44 c32 -25 71 -59
87 -76 32 -33 32 -33 -23 -94 -35 -39 -4 -36 34 3 l29 30 19 -30 c10 -16 26
-30 34 -30 11 0 9 7 -7 31 -12 16 -19 33 -16 36 5 6 65 24 162 49 17 5 27 -4
53 -45 18 -28 30 -55 26 -61 -3 -5 0 -10 7 -10 8 0 34 34 58 76 l45 76 72 -79
c40 -43 73 -73 73 -68 0 6 -29 40 -65 75 -36 35 -65 72 -65 80 0 16 79 138
125 192 l23 28 45 -63 c24 -34 66 -86 92 -115 l47 -53 -46 -69 c-25 -38 -46
-72 -46 -75 0 -18 22 4 59 61 41 62 44 64 62 48 10 -9 33 -38 51 -65 18 -27
37 -49 41 -49 10 0 -3 22 -57 95 l-44 60 53 60 54 60 23 -21 c13 -12 64 -49
115 -83 125 -85 123 -83 69 -123 -77 -56 -55 -68 26 -14 l51 35 45 -35 c25
-19 52 -34 60 -34 18 0 15 3 -41 44 -27 20 -35 32 -28 39 7 7 27 -4 66 -38 31
-26 58 -46 60 -43 2 2 -21 24 -50 48 -30 25 -55 47 -54 50 2 13 71 62 95 66
39 7 44 12 44 39 0 22 -3 24 -30 18 l-31 -6 7 44 c4 24 13 67 19 94 l12 50 10
-35 11 -35 1 35 c1 30 -6 43 -40 75 -88 85 -201 217 -192 226 13 13 140 42
156 36 18 -7 34 -76 43 -186 4 -45 11 -84 15 -87 12 -7 11 25 -6 141 -18 127
-19 122 5 128 31 8 24 29 -8 26 -22 -3 -43 9 -98 56 -38 33 -86 73 -107 89
-35 27 -38 33 -32 64 4 19 21 53 38 76 18 23 32 42 33 44 1 1 13 -2 27 -9 21
-9 38 -8 96 10 39 12 71 26 71 31 0 13 4 13 -58 -10 -84 -32 -99 -28 -171 44
l-64 64 50 79 c27 43 66 108 87 144 31 58 41 68 71 73 18 4 45 4 59 0 24 -6
26 -3 26 24 l0 29 -82 -22 c-46 -12 -93 -25 -106 -29 -20 -7 -26 1 -69 91 -26
54 -50 106 -54 115 -7 14 10 26 86 67 98 52 225 139 225 153 0 5 -33 -14 -73
-40 -109 -75 -235 -144 -247 -137 -5 3 -10 16 -10 28 0 12 -16 78 -35 146 -19
69 -33 126 -32 127 4 4 112 44 119 44 4 0 10 -10 14 -22 14 -47 104 -231 110
-226 3 3 -8 32 -24 64 -16 33 -42 88 -56 123 l-27 63 63 64 c92 94 96 96 152
79 61 -18 60 -5 -1 17 -27 10 -90 49 -141 87 l-93 70 43 29 c24 16 87 53 141
82 92 51 97 55 97 86 0 25 -4 32 -15 28 -8 -3 -36 7 -62 23 -27 15 -69 39 -95
52 -90 48 -88 43 -94 171 l-6 115 103 56 c57 31 114 60 126 63 24 7 49 33 40
42 -3 3 -19 -2 -36 -11 -40 -20 -39 -11 5 78 49 98 30 76 -26 -30 -45 -84 -46
-85 -128 -130 l-82 -44 1 118 c1 65 4 143 8 173 7 51 8 53 18 30 30 -68 83
-173 83 -163 0 6 -20 55 -45 109 -50 107 -51 117 -30 188 8 26 18 77 21 112 7
64 7 64 46 76 l39 11 64 -63 c76 -76 86 -69 15 10 l-50 55 50 9 c40 7 50 13
50 28 0 18 -5 19 -67 12 -121 -14 -107 -23 -167 111 -29 66 -71 156 -94 200
l-40 81 121 87 122 86 62 -127 c34 -70 62 -119 62 -108 1 10 -12 44 -27 75
-16 31 -40 81 -55 111 l-26 54 54 36 c30 19 55 41 55 49 0 12 -3 11 -17 -1
-10 -9 -32 -23 -49 -31 l-31 -16 13 92 c7 51 20 125 28 165 9 40 16 75 16 78
0 2 9 4 20 4 13 0 20 7 20 18 0 14 -6 17 -33 14 -26 -3 -62 12 -170 68 -75 39
-139 75 -141 79 -3 4 67 47 155 97 197 110 192 107 188 127 -3 15 -12 12 -61
-18 l-57 -36 -58 30 c-88 45 -89 47 -74 65 12 14 10 16 -7 16 -13 0 -38 -24
-72 -70 -50 -67 -54 -70 -74 -57 -11 8 -38 40 -59 71 -21 32 -41 56 -43 53 -7
-7 73 -124 96 -140 19 -13 18 -16 -39 -98 -33 -47 -71 -90 -85 -97 -24 -11
-28 -8 -111 100 -108 141 -134 191 -116 221 l13 22 -22 -21 -22 -21 22 -44
c13 -24 61 -95 109 -158 l86 -114 -61 -56 c-34 -31 -112 -103 -174 -160 -97
-89 -114 -101 -122 -87 -7 12 -4 33 11 69 12 29 30 95 41 147 28 134 49 209
72 255 12 27 14 33 3 21 -24 -31 -51 -111 -79 -240 -15 -65 -36 -143 -48 -173
l-20 -55 -125 123 c-68 68 -128 131 -133 140 -7 12 9 38 62 105 38 49 73 90
78 92 11 4 27 -19 49 -76 12 -30 33 -70 47 -90 30 -42 29 -40 -13 48 -38 79
-48 110 -35 110 17 0 246 174 234 178 -6 2 -62 -35 -124 -82 -62 -47 -118 -86
-125 -86 -33 0 -22 31 55 148 12 18 12 22 1 22 -8 0 -34 -32 -58 -72 -43 -70
-186 -264 -201 -273 -9 -5 -100 108 -100 125 0 6 25 58 56 116 34 64 50 104
42 104 -7 0 -39 -51 -70 -113 -57 -113 -73 -130 -189 -214 -15 -11 -18 -4 -29
84 -13 105 -4 162 32 216 16 22 17 27 5 27 -8 0 -24 -14 -34 -30 l-19 -30 -22
30 c-13 16 -30 30 -38 30 -15 0 -15 -2 0 -25 9 -14 13 -25 9 -25 -5 0 -2 -4 6
-9 17 -11 55 -281 41 -295 -9 -9 -133 -37 -223 -50 -44 -7 -48 -6 -43 11 24
78 35 393 14 393 -10 0 -13 -36 -15 -142 -1 -78 -5 -158 -8 -178 l-7 -35 -15
50 c-32 113 -46 154 -80 228 -20 42 -42 77 -50 77 -10 0 -7 -13 11 -47 13 -27
36 -76 50 -111 l27 -63 -39 -47 c-21 -26 -44 -56 -49 -66 -10 -19 -12 -18 -39
11 -16 16 -51 59 -78 94 -44 57 -50 71 -60 140 -6 43 -15 81 -19 86 -8 7 0
-106 8 -134 3 -7 3 -13 1 -13 -3 0 -104 34 -134 45 -9 3 -6 15 11 42 39 63 39
63 24 63 -8 0 -33 -29 -56 -65 -22 -36 -59 -94 -82 -130 -44 -68 -132 -165
-152 -165 -10 0 -141 167 -170 216 -19 32 5 64 77 104 39 22 63 40 54 40 -10
0 -40 -13 -66 -30 -27 -16 -52 -30 -55 -30 -3 0 -8 14 -12 30 -12 53 -20 32
-19 -48 l2 -78 76 -107 c75 -105 86 -127 66 -127 -6 0 -47 -56 -91 -125 -45
-69 -85 -125 -89 -125 -5 0 -56 28 -113 63 l-104 62 108 40 c90 32 259 114
238 115 -3 0 -44 -18 -90 -39 -46 -22 -128 -54 -182 -73 l-99 -33 -22 28 c-13
16 -46 61 -74 102 l-51 73 37 26 c20 14 93 83 162 153 131 133 109 117 -47
-34 -91 -89 -162 -138 -170 -117 -17 49 -190 274 -210 274 -11 0 -8 -9 8 -32
27 -38 82 -111 89 -118 3 -3 23 -30 45 -60 25 -35 31 -48 16 -35 -13 11 -36
39 -52 62 -16 23 -39 45 -50 48 -31 10 -66 44 -97 92 -24 38 -42 54 -42 37 0
-9 40 -65 67 -95 22 -24 24 -30 14 -65 -6 -22 -11 -83 -11 -136 0 -54 -3 -98
-7 -98 -5 0 -41 7 -80 17 l-73 17 0 93 c0 74 5 108 26 168 14 41 24 82 22 90
-5 25 -57 -152 -64 -218 -4 -47 -8 -56 -19 -47 -8 6 -62 72 -121 146 -59 74
-111 134 -116 134 -5 0 6 -19 25 -42 166 -208 227 -289 227 -302 0 -9 -3 -16
-6 -16 -22 0 -224 56 -289 80 -44 16 -99 34 -122 40 l-42 10 13 43 c24 78 40
99 106 143 35 24 60 44 55 44 -6 0 -34 -16 -62 -35 -29 -19 -58 -35 -64 -35
-7 0 -10 -3 -6 -6 3 -4 -4 -27 -17 -53 -13 -25 -26 -59 -30 -74 -4 -15 -13
-30 -20 -33 -20 -8 -195 75 -207 98 -6 11 -7 44 -3 78 5 42 3 60 -5 60 -6 0
-11 -17 -11 -39 0 -56 -15 -59 -30 -6 -7 25 -19 45 -26 45 -10 0 -7 -17 12
-67 35 -94 38 -103 27 -103 -10 0 -139 128 -132 133 2 1 17 9 33 15 38 17 28
25 -12 10 -26 -10 -37 -10 -52 0 -11 6 -27 12 -36 12 -10 0 8 -23 47 -61 l64
-60 -69 6 c-60 5 -83 14 -169 61 -54 31 -100 54 -102 52 -2 -2 40 -29 93 -60
85 -50 107 -58 176 -67 83 -10 121 -32 131 -76 2 -11 20 -66 40 -122 l36 -101
-44 -69 c-25 -37 -70 -116 -100 -175 l-56 -107 -27 32 c-24 28 -26 37 -21 88
5 55 2 63 -64 195 -65 129 -68 139 -52 156 10 11 11 18 5 18 -7 0 -12 -4 -12
-10 0 -23 -18 -7 -39 37 -23 47 -102 155 -109 148 -2 -2 14 -28 37 -57 38 -50
134 -238 126 -246 -2 -2 -43 15 -91 37 l-87 41 6 170 c5 158 4 170 -12 170
-15 0 -19 -12 -24 -67 -4 -38 -7 -118 -7 -180 l0 -111 -32 -7 c-18 -4 -50 -16
-71 -27 l-38 -19 6 68 c11 117 25 203 40 240 16 39 20 103 6 103 -4 0 -6 -10
-4 -23z m4787 -98 c-5 -8 -273 -165 -298 -175 -13 -5 -3 17 34 72 29 43 54 80
55 82 1 1 13 -7 28 -18 37 -30 45 -24 13 9 l-29 30 31 39 32 39 69 -36 c38
-19 68 -38 65 -42z m-2064 -32 c48 -19 63 -32 118 -107 68 -91 90 -109 137
-110 17 0 47 -11 67 -23 l37 -23 -18 -39 c-12 -26 -31 -47 -54 -59 -35 -18
-36 -18 -144 8 -59 14 -152 35 -205 45 -91 19 -207 60 -236 84 -10 8 -1 23 44
68 l57 58 28 -43 c15 -24 33 -47 41 -52 12 -8 1 13 -39 71 -19 29 -17 40 22
101 40 63 39 63 145 21z m-1087 -72 c22 -33 67 -95 100 -139 l60 -78 -64 7
c-35 4 -88 14 -117 21 -30 8 -58 12 -63 9 -15 -10 -22 44 -17 134 6 100 21
140 45 120 8 -7 33 -40 56 -74z m-859 -42 c34 -20 113 -71 176 -112 63 -41
127 -79 141 -85 19 -7 33 -25 49 -63 12 -30 24 -52 26 -50 3 2 -5 25 -16 51
-11 26 -20 51 -20 56 0 5 35 27 78 50 l77 42 105 -21 c138 -28 260 -48 339
-57 56 -6 70 -12 105 -44 23 -20 60 -49 82 -63 40 -25 42 -28 49 -94 8 -81 41
-216 61 -255 13 -25 13 -32 -3 -62 -10 -19 -40 -52 -68 -75 -27 -22 -86 -72
-130 -110 -44 -39 -112 -95 -150 -125 l-70 -55 -255 -39 c-290 -44 -266 -48
-294 53 -10 33 -42 102 -72 153 -30 51 -54 96 -54 100 1 4 15 16 32 27 17 11
49 45 71 75 l39 55 -57 -63 c-83 -90 -88 -92 -121 -35 -16 27 -49 80 -74 118
-77 114 -86 139 -96 255 -10 124 -16 153 -63 287 l-48 140 50 -8 c30 -5 76
-24 111 -46z m2306 -111 c0 -10 -5 -9 -22 2 -13 8 -40 18 -60 21 -21 4 -38 10
-38 14 0 3 19 28 42 55 l42 49 18 -64 c10 -35 18 -70 18 -77z m544 81 c25 -32
42 -61 38 -64 -9 -9 -188 -65 -233 -74 l-36 -7 6 36 c5 30 19 47 86 101 44 35
83 64 87 65 3 0 27 -26 52 -57z m-2614 15 l65 -21 -40 -12 c-39 -11 -38 -11
50 -17 50 -4 110 -13 134 -20 l45 -14 -72 -37 c-57 -30 -76 -36 -91 -28 -17
10 -149 106 -217 159 l-29 23 45 -6 c25 -3 74 -15 110 -27z m3700 -99 c85 -44
157 -82 159 -84 2 -3 -4 -44 -14 -92 -10 -49 -21 -121 -25 -161 -5 -47 -14
-79 -25 -92 -10 -11 -73 -58 -140 -104 -66 -47 -140 -108 -164 -136 -23 -28
-46 -48 -50 -45 -5 2 -14 41 -21 86 -10 62 -10 83 -1 88 11 7 6 13 -52 54 -16
11 -15 19 18 142 20 72 45 189 57 261 20 129 21 132 52 147 17 9 36 16 41 16
6 1 80 -35 165 -80z m-260 19 c0 -36 -40 -252 -58 -313 -12 -38 -28 -98 -36
-133 l-14 -62 27 -15 c26 -13 29 -22 46 -129 l18 -114 -53 -61 -53 -61 -33 56
c-19 31 -67 97 -108 148 -85 106 -83 101 -131 230 l-37 100 43 40 c24 22 100
94 169 160 136 132 220 190 220 154z m-4092 -162 c40 -76 43 -86 36 -133 l-6
-52 -82 44 c-60 33 -82 50 -84 67 -2 13 -15 49 -28 81 -14 32 -33 80 -44 106
l-18 48 91 -39 92 -39 43 -83z m2162 87 c36 -14 117 -35 180 -48 156 -32 250
-56 250 -64 0 -4 -21 -22 -47 -41 -271 -192 -395 -270 -430 -270 -25 0 -185
106 -250 165 l-44 40 71 110 c39 61 86 122 103 137 31 25 33 26 67 11 19 -9
64 -27 100 -40z m854 20 c-3 -21 -13 -49 -22 -63 -25 -39 -114 -130 -127 -130
-7 0 -18 13 -24 28 -6 15 -29 55 -51 87 -28 42 -36 61 -27 66 6 4 57 14 112
23 55 10 102 19 104 22 2 2 13 4 23 4 16 0 18 -5 12 -37z m471 -119 l148 -155
-26 -27 c-32 -35 -90 -131 -155 -257 -48 -93 -58 -106 -134 -166 -46 -37 -129
-109 -186 -162 l-102 -96 -91 59 c-50 33 -95 60 -100 60 -16 0 -10 29 9 42 21
15 46 57 39 65 -3 2 -11 -8 -19 -23 -7 -15 -18 -29 -25 -31 -14 -5 -12 17 18
182 20 106 25 195 19 323 -2 38 1 67 8 74 9 9 12 2 12 -30 0 -23 10 -62 22
-86 l22 -45 -27 -138 c-15 -76 -27 -156 -26 -178 1 -24 9 8 20 80 10 66 26
144 34 173 15 52 15 54 -10 111 -36 79 -31 132 15 192 l35 43 6 -34 6 -35 2
40 c3 88 12 81 185 -147 l58 -77 -14 -37 c-11 -28 -12 -49 -5 -91 11 -66 1
-81 -88 -125 -33 -17 -79 -48 -101 -70 -23 -22 -45 -39 -48 -39 -4 1 -18 -7
-33 -19 -14 -11 -23 -20 -19 -20 11 0 57 31 106 71 25 20 72 50 105 67 89 44
96 56 94 143 -1 41 1 86 6 101 6 23 -6 44 -105 174 -61 81 -107 150 -103 154
4 4 49 17 98 30 50 13 113 31 140 41 28 10 53 18 56 18 3 1 72 -69 154 -155z
m-3710 46 c26 -55 46 -102 44 -103 -37 -21 -51 -27 -61 -27 -7 0 -51 26 -97
57 -91 62 -90 59 -25 99 11 7 16 14 13 18 -3 3 -22 -6 -43 -20 -34 -23 -66
-27 -66 -7 0 14 134 82 161 83 23 0 31 -11 74 -100z m3041 -83 l25 -48 -28 7
c-100 22 -102 23 -109 59 -4 23 0 47 12 74 l18 41 28 -43 c16 -23 40 -63 54
-90z m-2493 70 c-2 -4 0 -13 5 -20 5 -7 12 -44 16 -84 l6 -71 -103 -25 c-56
-14 -88 -26 -72 -26 17 -1 55 6 85 14 83 22 88 21 100 -27 7 -24 22 -61 35
-84 l24 -41 -64 -48 c-35 -27 -63 -51 -60 -53 2 -2 32 17 66 44 l62 47 19 -23
c24 -30 88 -138 88 -149 0 -5 -35 -12 -78 -16 l-77 -7 -112 114 c-61 62 -121
125 -132 139 l-21 27 46 88 c49 95 69 130 117 207 30 48 30 49 43 26 7 -13 10
-27 7 -32z m2357 -56 c0 -17 -40 -108 -97 -220 l-96 -191 -32 6 c-23 4 -37 0
-55 -15 l-25 -21 31 17 c23 12 37 14 53 8 l21 -10 -25 -54 -25 -53 -81 76
c-44 42 -84 76 -89 76 -4 0 0 23 11 50 10 28 19 61 19 74 0 19 17 35 78 76 42
29 116 81 164 117 52 38 92 62 99 57 7 -4 9 -3 5 4 -6 10 18 31 37 32 4 0 7
-13 7 -29z m-989 -87 c33 -20 75 -48 91 -63 l30 -26 -59 -87 c-32 -48 -61 -87
-64 -88 -10 0 -26 46 -49 137 -18 74 -27 163 -16 163 3 0 33 -16 67 -36z
m1109 12 l66 -11 -8 -35 c-4 -20 -3 -62 3 -95 8 -46 7 -83 -5 -160 -8 -55 -23
-153 -32 -217 l-17 -116 -146 72 c-80 39 -161 78 -178 86 l-33 15 116 230 c64
127 121 236 127 243 5 7 17 10 26 6 9 -3 45 -11 81 -18z m854 -123 c7 -16 26
-65 41 -109 23 -69 42 -100 121 -200 52 -66 101 -134 110 -153 22 -46 29 -139
15 -198 l-12 -50 -137 -12 c-75 -7 -175 -22 -222 -33 -75 -18 -103 -20 -234
-13 -82 3 -155 9 -162 12 -8 3 -14 14 -14 25 0 31 32 148 40 148 15 0 95 72
138 124 23 28 71 110 107 181 92 186 164 305 186 305 5 0 15 -12 23 -27z
m-1638 -114 c11 -9 -38 -225 -55 -242 -9 -9 -104 91 -168 177 -49 66 -50 49
15 148 l24 36 86 -55 c48 -31 92 -59 98 -64z m249 1 c-9 -27 -20 -52 -23 -54
-4 -2 -27 6 -52 19 l-44 23 64 41 c36 22 66 36 68 31 2 -6 -4 -32 -13 -60z
m-2075 -77 c134 -128 141 -139 109 -164 -37 -28 -255 -139 -273 -139 -9 0 -16
8 -16 19 0 33 59 270 75 301 8 16 15 37 14 47 -1 37 -42 -77 -75 -211 -19 -76
-39 -146 -43 -155 -6 -11 -50 -26 -128 -45 -65 -15 -127 -30 -138 -33 -11 -3
30 33 92 80 122 95 167 143 184 197 28 93 72 210 80 210 4 0 58 -48 119 -107z
m1689 -115 c72 -76 114 -144 170 -271 1 -5 -21 -7 -51 -5 -39 2 -65 -3 -89
-15 l-34 -19 -95 51 c-69 37 -90 52 -77 57 9 3 17 11 17 17 0 5 -9 2 -19 -7
-18 -16 -22 -16 -70 8 -58 30 -59 11 11 171 25 55 57 119 72 143 l27 44 30
-45 c16 -24 64 -82 108 -129z m276 122 c38 -19 94 -61 153 -117 l94 -88 -28
-50 c-15 -27 -56 -80 -92 -117 -36 -37 -63 -70 -60 -73 3 -4 16 8 28 24 22 32
70 66 55 39 -30 -52 -121 -168 -132 -168 -17 0 -29 21 -122 203 l-75 145 28
113 c15 63 29 120 31 126 5 15 25 8 120 -37z m-564 -192 c-37 -82 -40 -85 -77
-91 -22 -4 -55 -7 -74 -7 l-35 0 35 28 c19 15 68 57 109 94 41 37 77 66 78 64
2 -2 -14 -41 -36 -88z m2647 15 c36 -70 130 -283 135 -306 2 -7 -109 -56 -128
-56 -3 -1 -18 -7 -33 -14 -15 -8 -58 -25 -95 -38 l-68 -24 -30 35 c-45 52 -51
75 -39 138 12 68 12 96 0 67 -12 -28 -12 -2 0 30 10 27 198 245 211 245 4 0
25 -35 47 -77z m-3688 29 c0 -5 23 -47 51 -93 28 -46 55 -94 60 -107 l9 -24
-29 24 c-15 13 -50 41 -77 62 -65 53 -144 128 -144 138 0 4 29 8 65 8 36 0 65
-4 65 -8z m-146 -51 c43 -44 45 -41 -54 -60 -181 -35 -222 -42 -225 -39 -4 3
222 135 235 137 3 1 23 -17 44 -38z m2969 -3 c-30 -53 -145 -169 -172 -174
-18 -4 -27 -13 -28 -27 -1 -12 -9 -53 -18 -91 l-18 -68 -46 47 -46 47 85 80
c108 102 243 218 253 218 5 0 0 -14 -10 -32z m-744 -94 c90 -40 166 -75 169
-78 5 -5 -14 -225 -20 -231 -2 -2 -30 3 -63 11 -33 7 -100 14 -150 14 -49 0
-146 7 -215 14 -68 8 -129 12 -133 9 -5 -3 18 34 51 83 32 49 81 129 107 177
41 77 50 87 69 81 11 -4 95 -40 185 -80z m-1974 -146 c53 -67 55 -72 41 -93
-14 -21 -11 -39 34 -215 l48 -191 -26 -11 c-15 -7 -56 -13 -92 -14 -36 -1
-110 -14 -165 -29 -55 -14 -140 -29 -188 -32 -82 -5 -89 -4 -109 16 l-20 23
35 146 c45 184 70 312 64 319 -3 2 -15 -40 -27 -94 -27 -120 -79 -333 -85
-351 -5 -13 -143 99 -275 224 l-65 61 98 33 c54 18 147 60 205 93 59 33 121
66 139 73 17 8 34 18 37 23 4 5 -1 41 -9 81 -19 92 -20 90 13 91 15 0 54 8 87
18 l60 16 72 -58 c40 -32 98 -90 128 -129z m-378 87 c23 -92 22 -96 -59 -137
-40 -20 -92 -49 -115 -63 l-43 -26 -1 38 c0 21 -6 73 -13 116 -15 91 -23 82
98 108 114 24 117 23 133 -36z m1221 12 l-35 -42 14 -90 c7 -50 22 -111 33
-137 25 -58 25 -64 0 -71 -17 -4 -20 0 -22 31 l-1 37 -6 -41 c-5 -36 -17 -50
-116 -137 -92 -80 -111 -93 -118 -79 -5 9 -32 38 -60 64 l-51 46 37 94 c20 51
48 126 62 167 28 83 38 97 110 149 39 30 61 38 110 43 33 3 64 7 69 7 4 1 -7
-17 -26 -41z m194 -15 c70 -34 158 -85 205 -121 45 -34 106 -70 135 -80 l52
-18 -27 -17 c-30 -20 -140 -67 -145 -61 -2 1 4 20 12 40 24 57 18 67 -6 12
-13 -29 -26 -46 -33 -43 -79 30 -92 30 -167 -3 -56 -25 -84 -32 -121 -29 l-49
3 -19 55 c-17 45 -49 193 -49 223 0 7 79 97 86 97 1 0 58 -26 126 -58z m-1664
-59 c6 -43 13 -99 15 -126 l5 -47 -122 -39 -121 -38 -85 82 c-47 45 -101 90
-119 100 l-35 18 22 17 c12 10 48 21 79 25 32 4 119 24 193 45 74 21 140 39
146 39 7 1 16 -31 22 -76z m2891 4 c60 -36 182 -136 188 -154 6 -18 -219 -164
-234 -151 -7 5 -24 30 -39 55 -25 43 -26 50 -20 142 4 53 9 109 12 124 7 33
12 32 93 -16z m-820 -68 c23 -39 41 -73 41 -76 0 -7 -77 7 -117 21 -18 6 -57
29 -87 51 l-55 39 27 18 c18 12 46 18 89 18 l61 0 41 -71z m-869 14 c-71 -185
-100 -266 -100 -279 0 -16 -13 -6 -238 171 l-101 80 72 12 c147 24 372 61 379
62 3 1 -2 -20 -12 -46z m-379 -139 c63 -47 113 -90 111 -96 -1 -5 2 -7 8 -3 5
3 44 -19 86 -50 l76 -57 -56 -57 c-37 -37 -80 -68 -119 -86 -34 -15 -72 -32
-84 -38 -18 -8 -27 -6 -42 7 -27 24 -35 48 -86 250 -42 168 -44 181 -28 198 9
10 17 18 18 18 1 0 53 -39 116 -86z m3489 15 c0 -22 -7 -72 -16 -112 -19 -83
-19 -83 -79 42 l-34 70 57 20 c75 26 72 27 72 -20z m-504 -92 c-5 -26 -32 -57
-122 -142 l-115 -108 -29 28 c-16 16 -27 33 -23 38 3 6 1 7 -5 3 -6 -3 -23 10
-38 29 -15 20 -37 41 -48 47 -12 5 14 -25 57 -69 72 -73 77 -81 77 -122 0 -41
-4 -46 -77 -114 -43 -39 -99 -94 -125 -121 -29 -30 -51 -46 -56 -41 -5 6 -37
51 -71 101 -51 76 -77 103 -149 156 -68 50 -102 85 -154 156 l-68 92 122 80
c118 78 123 80 167 74 89 -12 94 -17 67 -77 -17 -37 -43 -68 -71 -86 -19 -11
-19 -12 2 -6 20 5 24 0 38 -52 9 -32 21 -70 27 -85 9 -24 6 -35 -22 -78 -18
-28 -31 -53 -28 -55 2 -2 19 20 37 51 l32 54 -26 91 -26 90 23 29 c13 16 25
29 28 29 4 1 31 -29 62 -66 31 -38 71 -81 89 -98 l33 -30 -30 36 c-16 20 -55
67 -87 105 -48 57 -57 74 -55 102 l2 35 101 -5 c72 -4 122 0 180 12 l80 17 74
-71 75 -71 -62 69 c-34 38 -60 71 -58 74 3 2 40 7 83 11 l78 6 9 -43 c4 -23 5
-57 2 -75z m160 80 l34 -36 -67 -58 c-37 -32 -92 -81 -122 -108 -84 -76 -229
-195 -236 -195 -4 0 -4 12 0 28 6 28 93 122 177 193 42 36 50 39 70 28 21 -11
22 -11 9 4 -8 11 -14 47 -15 103 l-1 86 58 -4 c52 -4 63 -9 93 -41z m-1816 17
c0 -3 -24 -42 -52 -86 -29 -45 -73 -120 -98 -167 l-45 -85 -55 -12 c-31 -7
-59 -20 -65 -30 -34 -58 -163 -247 -199 -290 -59 -73 -166 -169 -166 -151 0 8
-43 101 -95 207 l-95 191 50 57 c27 31 50 62 50 70 0 8 -17 -8 -38 -35 -53
-67 -67 -77 -80 -60 -6 7 -15 25 -21 39 -9 25 -6 31 47 80 162 149 164 150
260 158 60 5 105 16 146 34 32 14 65 26 74 26 22 0 92 -22 92 -29 0 -3 -28
-35 -61 -71 -53 -57 -60 -62 -56 -37 2 15 0 27 -5 27 -5 0 -8 -17 -7 -38 3
-46 -25 -90 -77 -122 -53 -33 -51 -18 3 29 26 22 45 41 41 41 -10 0 -163 -131
-164 -141 -1 -5 -2 -14 -3 -21 0 -6 -36 -45 -78 -87 -43 -42 -67 -67 -53 -56
55 43 104 93 141 142 25 33 50 55 67 59 40 9 99 52 121 88 11 17 46 62 78 99
51 60 70 74 168 122 94 46 175 69 175 49z m360 -13 c158 -10 240 -27 240 -50
0 -9 -9 -30 -20 -48 -35 -59 -283 -578 -320 -672 -38 -98 -36 -96 -78 -61 -93
78 -283 202 -344 225 -10 4 -18 10 -18 14 0 12 97 70 168 100 62 26 312 184
312 197 0 7 -4 4 -140 -84 -63 -41 -150 -89 -192 -107 -43 -18 -100 -50 -128
-70 l-51 -37 -61 12 c-33 6 -75 19 -93 27 l-33 16 49 81 c59 95 66 102 123
110 43 7 45 9 81 79 21 40 69 121 108 181 l71 109 96 -7 c52 -4 156 -11 230
-15z m1679 -48 c12 -27 21 -52 21 -57 -1 -5 3 -12 8 -15 5 -3 17 -20 26 -38
13 -26 16 -66 16 -223 0 -145 -3 -190 -12 -190 -21 1 -71 49 -153 145 -57 68
-75 95 -71 111 21 80 24 158 10 195 -24 58 -17 70 56 95 36 12 68 23 71 23 3
1 16 -20 28 -46z m-1281 -205 c55 -74 90 -111 140 -146 37 -26 83 -64 103 -84
52 -52 141 -190 130 -201 -12 -12 -30 -1 -95 61 -51 49 -76 95 -76 141 0 8 -3
12 -6 8 -3 -3 -1 -29 6 -56 10 -44 22 -60 77 -109 l65 -59 -99 -61 c-55 -34
-120 -66 -145 -71 -25 -6 -52 -13 -60 -16 -10 -4 -18 0 -22 12 -15 50 -38 246
-45 396 -9 161 -10 170 -37 208 -15 22 -45 55 -67 73 l-39 33 17 32 17 33 31
-47 c18 -26 65 -92 105 -147z m1121 57 c0 -27 -6 -70 -12 -95 l-12 -45 61 -75
c34 -41 86 -98 116 -126 l54 -51 -72 -47 -72 -47 -49 34 c-26 18 -92 53 -147
78 -91 41 -101 48 -141 104 -75 106 -75 95 7 173 40 38 111 103 158 144 l84
76 13 -37 c7 -20 12 -58 12 -86z m-1201 -34 c29 -38 32 -50 32 -109 1 -108 10
-217 31 -371 11 -79 18 -145 17 -146 -6 -6 -271 -105 -274 -103 -4 5 -62 192
-89 288 l-26 95 106 218 106 219 32 -25 c18 -13 47 -43 65 -66z m-2812 -112
c68 -61 124 -114 124 -119 0 -10 -292 -130 -317 -130 -7 0 -2 74 12 165 14 92
41 195 51 195 3 0 61 -50 130 -111z m1137 74 c8 -10 27 -43 40 -73 14 -30 47
-93 73 -140 40 -74 43 -82 19 -60 -15 14 -49 68 -75 121 -27 53 -60 109 -74
126 -14 17 -23 33 -19 37 10 10 19 7 36 -11z m-36 -22 c12 -16 45 -73 73 -127
28 -54 59 -107 69 -119 30 -34 32 -43 16 -74 -13 -25 -29 -34 -98 -56 -132
-42 -476 -125 -492 -119 -12 5 -3 29 44 118 32 61 67 132 76 159 22 57 63 96
154 141 40 21 78 49 95 70 15 20 30 36 34 35 4 0 17 -13 29 -28z m-1281 -8
c-3 -16 -8 -50 -12 -78 -7 -57 -29 -115 -42 -115 -5 0 -27 13 -48 28 -21 16
-61 41 -87 57 -51 29 -49 44 3 45 14 0 36 6 50 13 25 13 26 13 54 -61 15 -40
30 -71 32 -69 3 3 -6 33 -20 68 -15 34 -26 68 -26 75 0 11 75 63 93 64 5 0 6
-12 3 -27z m938 -92 c24 -25 27 -34 21 -63 -9 -41 -135 -308 -146 -308 -21 0
-353 196 -367 218 -9 13 -31 40 -48 60 l-32 37 62 0 c59 0 118 11 241 43 33 9
85 15 116 14 34 -2 67 3 85 13 38 19 36 20 68 -14z m2916 -38 l22 -28 -42 -3
c-52 -4 -57 1 -36 33 21 32 29 31 56 -2z m-2852 -7 c-7 -8 -15 -12 -17 -11 -5
6 10 25 20 25 5 0 4 -6 -3 -14z m2744 -59 c-14 -32 -27 -46 -47 -51 -15 -4
-30 -5 -32 -2 -3 3 16 28 43 56 26 27 49 48 51 46 3 -2 -4 -24 -15 -49z m169
-8 c10 -13 19 -27 19 -31 0 -4 -21 -19 -47 -34 -27 -15 -69 -40 -95 -56 -62
-39 -201 -81 -239 -73 -28 6 -28 7 -12 31 25 39 122 104 155 104 22 0 35 9 58
43 30 41 32 42 86 41 47 0 59 -4 75 -25z m-3551 -35 c25 -25 69 -60 98 -76 29
-17 50 -34 45 -38 -4 -4 -46 -38 -93 -77 -47 -39 -105 -92 -130 -117 -24 -25
-52 -46 -61 -46 -9 0 -42 -9 -75 -20 l-59 -19 -90 46 c-113 57 -255 143 -255
154 0 18 134 80 275 128 83 27 182 63 220 80 39 16 72 30 75 30 3 1 26 -20 50
-45z m-405 -25 c0 -32 -11 -42 -60 -53 -30 -7 -30 -7 15 38 25 25 45 45 45 46
0 0 0 -14 0 -31z m2100 -39 c40 -7 94 -25 125 -42 30 -17 74 -41 98 -53 49
-27 149 -99 206 -147 l38 -34 -21 -72 c-12 -40 -25 -72 -29 -72 -5 0 -24 11
-43 25 -19 14 -41 24 -50 22 -12 -3 -21 12 -37 62 -22 66 -69 151 -85 151 -4
0 3 -15 17 -32 13 -18 33 -58 44 -88 37 -102 38 -96 -15 -109 -83 -21 -145
-31 -261 -41 l-113 -10 -107 45 c-139 60 -130 54 -159 103 l-25 42 98 103 c55
56 113 123 131 149 l32 47 43 -19 c24 -10 75 -24 113 -30z m1998 7 c37 -16 67
-33 67 -38 0 -23 -160 -89 -219 -89 -18 0 -22 4 -16 18 4 9 16 42 26 72 11 30
21 61 24 68 6 16 23 11 118 -31z m-158 -43 c-14 -37 -25 -74 -25 -83 0 -9 -23
-39 -50 -66 l-51 -50 -52 28 c-29 16 -69 43 -90 61 l-39 32 78 23 c44 13 113
44 158 72 45 27 84 49 88 49 4 0 -3 -30 -17 -66z m-2399 24 c4 -13 38 -87 76
-165 l70 -142 -38 -48 c-71 -88 -147 -174 -151 -169 -2 2 -6 35 -9 72 -2 38
-8 141 -14 228 -5 88 -7 162 -2 165 4 3 15 23 24 44 20 42 34 47 44 15z m2923
-94 c2 -85 0 -105 -11 -98 -31 18 -139 107 -134 111 5 5 138 93 141 93 1 0 3
-48 4 -106z m-1699 -64 c23 -80 47 -154 52 -164 9 -16 7 -22 -7 -31 -9 -5 -58
-36 -109 -68 l-91 -58 -27 33 c-15 18 -28 40 -28 50 0 44 148 404 162 390 3
-4 25 -72 48 -152z m1519 69 c44 -33 83 -64 86 -69 16 -27 44 -218 39 -266
l-6 -52 -46 -6 c-24 -3 -57 -6 -72 -6 -26 0 -28 -4 -40 -64 l-12 -63 -100 -7
c-55 -3 -104 -4 -109 -1 -5 4 -9 16 -9 28 0 27 -58 236 -71 257 -5 8 -17 31
-26 51 -11 23 -29 40 -51 50 l-34 14 49 53 c33 35 56 52 73 52 40 0 142 35
185 63 22 14 45 26 52 26 6 1 48 -26 92 -60z m-3556 -34 c78 -46 148 -88 155
-93 10 -7 -1 -41 -51 -153 -35 -79 -70 -159 -77 -178 l-13 -34 -23 74 c-12 41
-52 157 -88 258 -68 191 -74 211 -55 211 6 0 74 -38 152 -85z m-64 -265 c65
-187 70 -205 54 -214 -49 -27 -501 -223 -536 -231 -21 -6 -26 -2 -36 26 -12
35 -15 264 -5 395 l7 82 39 12 c22 6 46 14 53 16 8 4 28 -17 50 -51 34 -54
245 -277 245 -259 0 4 -49 58 -109 118 -60 61 -118 129 -129 152 l-21 41 57
55 c31 30 93 85 137 122 l79 67 22 -63 c13 -35 54 -155 93 -268z m789 213 c7
-65 15 -173 18 -241 l7 -123 -40 -42 c-22 -23 -48 -55 -58 -72 -10 -16 -36
-52 -59 -79 l-40 -49 -29 34 c-46 55 -167 257 -167 280 0 11 -4 18 -9 14 -9
-5 -57 53 -103 125 -15 23 -14 28 4 63 10 21 18 43 16 49 -2 6 -13 -8 -23 -30
-19 -39 -20 -40 -32 -19 -14 26 -17 64 -5 71 5 3 105 30 223 60 118 31 228 60
244 65 17 5 33 10 36 10 3 1 11 -52 17 -116z m2062 72 c0 -31 -243 -465 -260
-465 -3 0 -26 68 -51 150 -51 165 -53 152 25 166 21 4 53 19 70 35 73 63 216
139 216 114z m145 -45 c28 -21 74 -50 103 -64 l52 -26 -17 -28 -17 -27 26 23
c18 16 33 22 47 17 21 -6 61 -63 61 -86 -1 -8 -27 -43 -59 -78 l-58 -65 -34
14 c-19 8 -66 34 -106 58 -63 39 -71 47 -62 63 13 25 -10 68 -57 107 l-36 30
18 33 c35 68 45 80 68 73 11 -3 44 -23 71 -44z m770 -52 c29 -19 36 -32 46
-78 7 -30 12 -88 13 -129 l1 -75 -99 -77 c-88 -68 -102 -76 -120 -65 -12 6
-22 11 -23 11 -1 0 4 25 10 55 l12 55 95 8 c52 5 102 13 110 18 11 7 5 9 -20
5 l-36 -6 -1 87 c-1 49 -8 116 -15 151 -8 34 -13 62 -11 62 2 0 19 -10 38 -22z
m-884 -67 c40 -39 46 -55 30 -80 -7 -11 -20 -8 -69 14 l-59 27 21 39 c11 21
25 39 30 39 4 0 26 -17 47 -39z m1142 -104 c-2 -4 -40 -26 -84 -47 -56 -29
-81 -37 -84 -28 -7 23 -25 144 -25 170 0 26 1 26 99 -30 55 -31 97 -60 94 -65z
m-3557 -239 c61 -97 87 -148 78 -148 -9 0 -46 28 -84 62 -66 58 -255 193 -231
164 7 -8 44 -36 83 -62 38 -26 103 -78 143 -116 51 -47 78 -66 90 -62 16 7 65
-30 65 -49 0 -5 -14 -53 -31 -108 -19 -62 -35 -97 -41 -93 -6 4 -8 3 -5 -3 5
-8 -34 -113 -92 -245 l-20 -48 -96 0 -95 0 -15 36 c-17 42 -46 178 -71 334 -9
58 -25 134 -36 170 -31 98 -25 124 77 370 15 36 34 80 41 99 l14 34 67 -94
c36 -52 108 -160 159 -241z m2027 300 c2 -13 23 -81 46 -152 22 -71 39 -131
37 -133 -2 -3 -40 19 -84 49 -69 45 -85 63 -125 128 -24 41 -43 76 -42 78 7 8
151 59 156 56 4 -2 9 -14 12 -26z m361 -157 l-46 -88 -97 -33 c-53 -18 -102
-35 -109 -38 -10 -4 72 139 164 286 l14 22 60 -30 59 -30 -45 -89z m-494 40
c33 -55 58 -83 102 -112 32 -22 58 -44 58 -48 0 -5 -18 -32 -40 -60 -22 -28
-37 -51 -33 -51 5 0 26 25 48 54 30 41 43 51 53 43 7 -5 10 -17 7 -25 -11 -30
-211 -302 -221 -302 -10 0 -177 196 -256 299 l-26 34 28 46 c15 25 37 71 49
101 22 54 23 55 89 77 37 11 74 20 82 19 8 -1 35 -34 60 -75z m946 -53 c25
-83 34 -132 34 -183 l0 -70 -55 60 c-54 58 -135 167 -135 180 0 11 112 136
117 131 2 -2 20 -55 39 -118z m-2189 90 c19 -15 43 -105 43 -160 0 -26 4 -48
8 -48 10 0 -4 138 -18 175 -6 15 -9 29 -8 30 2 2 39 -11 83 -29 44 -18 88 -35
97 -39 15 -5 12 -19 -26 -133 l-42 -128 -88 -80 -88 -81 -46 55 c-26 30 -81
91 -124 136 -43 44 -78 86 -78 94 0 7 48 62 107 122 100 101 110 108 138 102
16 -3 36 -11 42 -16z m647 -6 c15 -24 -344 -75 -386 -55 -20 10 -13 12 45 12
68 1 227 23 282 40 39 12 53 13 59 3z m327 -97 c-23 -47 -46 -85 -50 -85 -10
0 -71 73 -71 84 0 13 155 107 158 97 2 -6 -15 -49 -37 -96z m924 50 c51 -30
98 -55 104 -55 14 0 64 -78 57 -89 -3 -4 -48 -36 -101 -71 l-96 -63 -52 36
c-29 20 -67 51 -84 69 l-32 33 50 98 c27 53 53 97 56 97 4 0 48 -25 98 -55z
m-1172 0 c55 -24 137 -88 137 -107 0 -5 -5 -6 -12 -2 -7 4 -8 3 -4 -5 4 -6 11
-9 16 -6 4 3 59 -59 121 -137 62 -79 135 -169 163 -201 l49 -57 -59 -78 c-67
-87 -95 -104 -175 -108 -69 -4 -169 -46 -225 -96 -59 -51 -95 -78 -108 -78 -6
0 -39 35 -73 78 -34 42 -71 86 -83 97 -35 32 -73 115 -72 158 1 20 13 60 27
87 14 28 23 50 20 50 -2 0 -16 -23 -30 -51 l-26 -50 -41 53 c-23 29 -66 78
-96 109 l-54 57 48 15 c27 9 94 27 148 42 122 31 396 132 416 153 13 13 13 14
-5 7 -198 -78 -327 -123 -450 -157 -201 -54 -199 -54 -193 -37 2 8 20 65 39
127 l34 112 90 1 c53 0 138 10 205 23 63 13 120 24 126 25 6 0 37 -10 67 -24z
m1080 -254 l49 -33 -31 -19 c-17 -10 -53 -26 -81 -35 -28 -9 -53 -20 -55 -25
-3 -4 20 1 52 12 32 11 120 61 196 111 l138 91 67 -73 c37 -40 71 -81 76 -91
12 -25 -15 -93 -81 -203 -29 -49 -53 -92 -53 -95 0 -12 -266 0 -355 15 -49 9
-121 20 -160 25 -63 8 -189 34 -287 60 l-37 9 73 98 c40 53 87 118 104 144 39
57 30 52 149 93 l98 33 45 -42 c25 -23 67 -57 93 -75z m971 39 c41 -30 76 -58
76 -61 0 -4 -35 -39 -77 -80 l-77 -73 -54 113 -53 113 38 33 c31 28 41 31 54
22 9 -7 51 -37 93 -67z m-3024 -23 l53 -58 -31 -67 c-37 -82 -49 -127 -63
-234 -13 -105 -46 -241 -72 -293 -30 -62 -91 -165 -97 -165 -7 0 -154 188
-169 217 -13 25 -13 25 106 303 62 142 95 205 144 272 35 48 67 86 70 85 4 -1
30 -28 59 -60z m-822 -57 c-6 -58 -8 -211 -6 -341 l5 -235 -41 7 c-23 4 -86
22 -141 39 -55 17 -149 45 -210 61 -60 17 -113 33 -117 37 -4 4 1 30 11 57 21
62 20 178 -1 203 -32 37 -30 41 28 67 31 14 59 23 62 20 3 -3 -12 -50 -33
-105 -21 -56 -35 -103 -33 -106 3 -2 25 48 49 112 34 89 49 118 67 125 24 9
235 105 317 143 28 13 51 23 51 22 1 0 -3 -48 -8 -106z m3512 77 c0 -34 -25
-60 -164 -172 l-49 -40 8 30 c5 17 8 67 6 112 l-3 82 44 5 c24 3 63 8 88 9 25
2 51 4 58 5 7 1 12 -10 12 -31z m44 24 c3 -4 -3 -16 -14 -26 -19 -17 -20 -17
-20 2 0 29 22 45 34 24z m146 -129 c55 -116 58 -106 -40 -141 l-47 -16 28
-100 c15 -55 30 -110 34 -122 l5 -22 -33 19 c-21 13 -68 23 -132 30 -67 8
-111 18 -135 32 -19 11 -55 32 -80 46 -25 13 -46 26 -48 27 -10 9 22 47 91
105 l81 69 53 -49 c29 -27 68 -59 86 -71 17 -12 -4 11 -47 52 l-79 74 60 53
c34 28 63 52 66 52 3 0 8 -10 10 -22 3 -19 5 -17 6 6 1 30 47 89 63 84 5 -2
31 -49 58 -106z m-3619 -232 c11 -74 25 -153 30 -174 10 -38 10 -40 -35 -85
-25 -25 -48 -42 -52 -39 -14 14 -26 309 -19 443 l8 140 24 -75 c13 -41 33
-136 44 -210z m1220 213 c27 -25 73 -77 101 -116 40 -54 49 -73 41 -85 -5 -9
-50 -30 -99 -47 -49 -18 -102 -37 -118 -44 l-29 -12 6 48 c3 27 9 102 13 168
4 66 8 123 11 128 9 15 25 6 74 -40z m-329 -61 c24 -30 72 -89 107 -131 l63
-75 -48 -13 c-27 -7 -98 -22 -159 -33 -60 -10 -119 -22 -131 -25 -20 -6 -21
-3 -16 52 6 88 29 180 64 256 l31 67 23 -21 c13 -12 42 -46 66 -77z m223 -80
l-7 -144 -34 33 c-19 18 -32 39 -29 47 2 7 1 11 -4 7 -9 -5 -81 71 -81 86 0 4
35 39 78 78 57 52 78 66 81 54 2 -10 0 -82 -4 -161z m-1700 -72 c-3 -30 -11
-81 -17 -113 l-11 -59 -36 4 c-57 7 -255 51 -264 58 -8 7 204 193 246 217 19
10 26 8 55 -20 31 -30 33 -34 27 -87z m2980 -3 c212 -46 442 -77 547 -74 53 1
99 -1 103 -4 5 -6 -97 -181 -175 -301 -24 -35 -103 -79 -140 -77 -8 0 -51 41
-95 90 -44 49 -144 151 -223 226 -136 130 -183 183 -150 171 8 -3 68 -17 133
-31z m-105 -251 c57 -230 88 -383 79 -388 -2 -2 -43 -22 -91 -45 l-88 -43 0
101 c0 91 -2 103 -25 133 -36 47 -55 99 -55 152 0 29 -10 69 -26 105 l-26 58
77 91 c47 56 81 88 87 82 5 -5 36 -116 68 -246z m-902 192 c19 -43 31 -59 146
-197 l58 -71 -26 -40 c-32 -49 -33 -79 -2 -155 28 -68 30 -66 -60 -85 -61 -12
-62 -12 -122 21 -69 38 -73 45 -157 264 -25 66 -55 142 -66 169 -20 48 -21 50
-3 63 16 12 186 71 206 73 4 0 16 -19 26 -42z m1086 -172 c183 -181 207 -208
204 -233 -3 -25 -17 -34 -142 -96 -76 -37 -142 -64 -146 -60 -4 4 -15 49 -24
98 -10 50 -40 179 -67 287 -27 109 -49 200 -49 203 0 18 37 -16 224 -199z
m726 185 l24 -19 -48 -64 c-26 -34 -35 -49 -19 -33 15 17 39 45 54 63 l25 33
46 -26 c34 -19 72 -29 140 -36 107 -12 138 -22 168 -54 21 -22 22 -27 10 -94
-10 -60 -17 -76 -53 -114 -23 -24 -88 -75 -145 -112 -56 -37 -138 -99 -182
-136 -44 -38 -83 -69 -88 -69 -11 0 -214 225 -225 249 -6 13 13 51 73 147 44
71 84 130 88 131 23 8 115 -251 94 -267 -99 -79 -152 -123 -152 -127 0 -6 18
7 98 70 33 26 66 47 72 47 7 0 9 7 6 16 -3 8 -15 51 -26 95 -23 89 -36 122
-63 161 l-18 28 38 65 c21 35 43 65 48 65 6 0 21 -9 35 -19z m-2110 -36 c17
-20 -7 -54 -148 -213 -110 -124 -109 -124 -206 -345 -14 -32 -30 -57 -35 -55
-5 1 -42 44 -84 93 l-75 90 25 45 c13 25 35 63 49 85 20 33 49 115 80 227 5
19 16 22 166 48 62 11 127 24 143 29 45 14 71 13 85 -4z m53 -82 c9 -21 41
-102 72 -181 30 -78 70 -172 89 -210 48 -96 83 -181 91 -223 6 -33 4 -37 -34
-63 -53 -37 -154 -54 -337 -58 l-142 -3 -84 94 -84 94 28 56 c15 31 48 101 74
156 40 85 61 114 137 195 49 52 106 116 125 142 20 26 38 45 42 43 4 -2 14
-21 23 -42z m-1978 17 c42 -10 55 -18 85 -58 19 -26 52 -82 73 -125 31 -63 38
-85 33 -113 -6 -31 -10 -34 -42 -34 -19 0 -45 -5 -56 -11 -19 -10 -27 -5 -74
43 -46 47 -56 66 -79 144 -15 49 -38 106 -51 126 -13 21 -24 41 -24 44 0 8 61
0 135 -16z m2869 -2 c-4 -7 -58 -76 -119 -153 -61 -77 -146 -187 -189 -245
-43 -58 -81 -106 -85 -108 -8 -3 -41 62 -41 81 0 6 -12 42 -26 79 l-27 67 32
50 c18 28 41 53 51 56 10 3 48 30 84 60 81 66 163 105 225 106 25 0 55 4 66 9
29 12 37 12 29 -2z m-2683 -39 l35 -9 -12 -87 c-7 -49 -13 -90 -13 -93 -1 -3
-13 19 -27 49 -13 30 -39 75 -57 100 -56 78 -64 74 74 40z m224 -55 c66 -18
133 -37 149 -44 l29 -11 -86 -63 c-84 -62 -167 -97 -266 -114 -34 -5 -34 -5
-28 29 3 19 11 82 18 141 l12 108 26 -7 c14 -3 80 -21 146 -39z m2519 -97 c12
-80 33 -134 64 -170 11 -13 16 -43 17 -121 l1 -103 -92 -42 -92 -43 -80 47
-81 47 -3 126 -3 127 65 80 c36 44 85 106 110 138 l43 58 20 -31 c10 -17 25
-67 31 -113z m-2025 36 c1 -9 -17 -13 -56 -13 l-57 0 44 45 45 46 12 -33 c6
-18 12 -39 12 -45z m352 -104 l38 -45 -31 -82 c-17 -45 -34 -82 -38 -82 -3 0
-22 43 -43 95 -39 100 -46 163 -25 210 l11 25 25 -38 c14 -20 42 -58 63 -83z
m3256 -105 c-23 -12 -52 -25 -64 -28 -21 -7 -23 -4 -23 30 0 20 8 77 17 125
l17 88 48 -97 47 -97 -42 -21z m-3832 179 c17 -3 33 -11 37 -17 5 -8 8 -7 8 2
0 13 206 17 319 5 75 -7 86 -23 45 -63 l-29 -28 -153 23 c-84 13 -160 29 -169
37 -14 11 -16 11 -10 -4 4 -12 -2 -19 -23 -27 -36 -12 -229 -35 -236 -28 -3 3
27 30 67 62 53 41 78 55 93 50 12 -3 35 -8 51 -12z m3725 -119 c-6 -32 -10
-84 -11 -114 -2 -118 -17 -103 -18 19 -1 103 2 128 16 143 9 10 18 17 19 15 2
-2 -1 -30 -6 -63z m-4392 -5 l41 -46 -34 -16 -34 -16 4 32 5 32 -13 -35 c-11
-27 -24 -39 -60 -54 -26 -11 -49 -17 -52 -15 -2 3 -16 31 -30 62 l-25 57 23 0
c12 0 45 13 72 29 28 15 53 25 56 22 3 -3 24 -27 47 -52z m901 31 c68 -11 125
-21 127 -23 5 -5 -259 -246 -292 -266 -68 -42 -67 -38 -8 -221 35 -108 50
-168 44 -174 -6 -6 -10 -17 -10 -26 0 -17 81 -127 213 -288 57 -69 77 -102 77
-123 0 -39 -18 -45 -165 -52 -99 -5 -140 -2 -234 16 -110 22 -115 24 -124 52
-9 25 -7 31 17 50 16 13 26 31 26 47 0 17 21 52 59 101 54 68 77 90 127 125
11 7 6 6 -11 -2 -59 -28 -185 -179 -185 -221 0 -12 -11 -32 -24 -44 l-23 -22
-57 100 c-64 112 -178 269 -279 379 -37 41 -86 106 -108 143 l-40 68 24 38
c13 21 45 81 71 133 27 52 51 102 55 110 6 11 171 69 202 70 3 0 10 -46 16
-103 7 -67 23 -138 46 -207 l35 -105 -41 -44 -42 -44 52 42 51 43 -20 44 c-34
79 -68 232 -68 310 0 79 -1 77 55 74 48 -2 204 20 238 34 18 7 41 11 52 9 11
-2 76 -12 144 -23z m275 -160 c55 -141 66 -197 47 -243 -5 -14 -22 14 -68 110
-34 70 -72 156 -84 191 l-22 63 29 30 c26 27 29 28 35 12 4 -10 32 -83 63
-163z m3175 20 l-2 -130 -26 -6 c-79 -17 -171 -49 -205 -71 -43 -28 -52 -26
-115 26 l-35 29 63 58 c49 46 302 224 318 224 2 0 2 -59 2 -130z m-4539 58
c15 -35 27 -64 25 -66 -6 -6 -147 52 -151 63 -3 6 0 24 5 38 9 23 16 27 51 27
41 0 42 -1 70 -62z m3715 42 c3 -5 1 -10 -4 -10 -6 0 -11 5 -11 10 0 6 2 10 4
10 3 0 8 -4 11 -10z m-2096 -162 l73 -88 -45 -106 -45 -107 -32 63 c-24 48
-32 77 -33 125 -2 75 -17 76 -17 1 0 -40 9 -70 40 -134 81 -168 103 -226 102
-267 -1 -22 7 -65 17 -95 19 -52 19 -55 2 -80 -10 -14 -30 -48 -45 -76 -31
-57 -47 -64 -150 -64 -40 0 -61 -8 -113 -41 -36 -22 -66 -39 -68 -37 -2 2 5
37 16 78 26 102 86 495 89 590 1 28 137 -258 202 -425 15 -39 18 -43 14 -17
-8 44 -84 235 -140 352 -33 68 -46 106 -46 137 0 24 4 42 9 39 8 -5 -22 105
-34 124 -5 7 27 101 55 161 l12 27 32 -37 c18 -20 65 -75 105 -123z m-312 -62
l20 -40 -29 -48 c-16 -26 -34 -48 -39 -48 -5 0 -8 -3 -7 -7 1 -5 -15 -34 -36
-66 -44 -64 -46 -64 -98 8 -16 22 -58 70 -94 106 l-65 66 132 123 132 123 32
-89 c17 -49 41 -107 52 -128z m2599 163 l51 -51 -21 -77 c-11 -42 -28 -87 -38
-100 -16 -23 -16 -23 -70 -6 l-55 18 -32 99 c-18 55 -31 101 -29 104 5 4 131
63 138 64 2 0 28 -23 56 -51z m-1077 -70 c1 -31 -2 -70 -5 -87 l-6 -31 -59 30
c-67 33 -68 26 6 121 57 74 62 71 64 -33z m1969 63 c-13 -22 -54 -91 -93 -155
l-70 -116 -35 5 c-74 12 -73 9 -40 75 17 32 33 79 36 103 l6 44 102 40 c55 22
105 41 109 41 5 1 -2 -16 -15 -37z m-4468 -13 c0 -30 -13 -64 -57 -140 -31
-55 -60 -98 -65 -97 -14 5 -118 182 -110 190 15 15 188 88 210 88 19 0 22 -5
22 -41z m3395 -101 l29 -86 -47 -69 c-25 -37 -65 -94 -89 -125 -24 -31 -68
-98 -98 -148 -47 -78 -70 -103 -158 -177 -56 -46 -152 -132 -213 -190 -60 -58
-111 -104 -114 -102 -2 3 -8 23 -13 45 -7 30 -6 45 4 59 8 10 14 24 14 29 0 6
-7 2 -15 -8 -11 -15 -15 -16 -19 -5 -3 8 -22 67 -42 131 l-38 118 49 151 50
151 95 48 c52 26 112 55 133 64 l38 16 30 -68 c72 -161 97 -190 32 -36 -24 58
-41 109 -38 113 13 13 360 179 370 177 6 -1 23 -41 40 -88z m-1202 30 c73 17
87 13 101 -33 5 -17 -7 -29 -68 -69 -41 -27 -77 -47 -81 -45 -3 2 -11 -4 -16
-13 -16 -28 -27 -21 -40 25 -6 23 -24 71 -40 106 -16 35 -29 65 -29 67 0 3 24
-9 53 -25 l52 -30 68 17z m1527 -54 c41 -42 112 -105 157 -141 90 -70 93 -78
37 -122 l-27 -21 -22 42 c-12 22 -51 77 -86 121 l-64 79 -56 -5 -56 -5 16 64
c8 35 17 64 21 64 3 0 39 -34 80 -76z m-3949 9 c173 -274 169 -266 169 -314 0
-47 -21 -122 -44 -151 -14 -20 -213 -55 -228 -40 -11 11 -138 246 -134 249 4
5 100 -29 114 -40 21 -17 43 -67 52 -116 l8 -46 1 38 c1 23 -9 58 -26 90 -23
47 -26 63 -27 162 0 100 2 115 28 168 15 31 33 57 39 57 7 0 28 -26 48 -57z
m2684 -77 c56 -29 120 -65 143 -80 l41 -26 -13 -44 c-8 -25 -33 -99 -56 -165
l-42 -119 -47 -17 c-25 -10 -88 -37 -139 -61 l-92 -43 -29 -64 c-22 -49 -36
-67 -60 -77 -48 -19 -47 -31 0 -12 37 14 46 24 70 78 27 60 31 63 105 99 92
45 90 46 124 -74 l22 -79 -55 -69 c-30 -37 -85 -114 -122 -171 -36 -56 -70
-102 -73 -102 -4 0 -90 35 -191 78 l-185 77 -39 110 c-21 61 -39 120 -39 133
0 12 12 51 26 87 24 61 25 68 11 95 -8 16 -15 34 -15 39 0 14 145 201 177 227
l25 21 77 -81 c42 -44 103 -108 135 -141 l59 -60 -57 65 c-31 36 -88 100 -127
144 l-71 78 157 104 c86 57 161 104 167 104 6 0 57 -24 113 -54z m1718 -24
c-15 -46 -18 -49 -79 -70 -77 -27 -85 -27 -118 -1 -32 25 -25 38 40 69 36 17
130 45 166 49 3 1 -1 -21 -9 -47z m-3512 -3 c39 -33 48 -46 44 -63 -5 -15 -4
-17 3 -7 8 10 21 -1 60 -50 27 -35 50 -67 51 -72 2 -11 -159 -118 -169 -112
-5 3 -21 45 -36 93 -15 48 -35 113 -44 144 l-18 57 25 26 c14 14 28 25 30 25
3 0 27 -19 54 -41z m807 -66 l92 -101 -45 -61 c-25 -34 -42 -61 -37 -61 4 1
24 25 45 55 21 30 41 55 45 55 10 -1 166 -188 170 -204 4 -16 -274 -256 -297
-256 -11 0 -30 43 -62 145 -41 128 -40 135 19 135 59 1 180 24 193 37 6 6 -12
5 -41 -3 -29 -7 -84 -16 -123 -20 l-72 -6 -38 90 -39 89 30 69 c34 81 65 145
67 141 1 -1 43 -48 93 -104z m2282 55 c24 -28 64 -81 88 -116 41 -63 42 -66
25 -83 -20 -19 -231 -104 -239 -96 -3 3 -10 38 -16 79 -5 40 -16 104 -24 142
-20 99 -5 118 96 124 19 2 36 -11 70 -50z m-2695 -158 c-3 -47 -15 -146 -26
-220 -11 -74 -22 -151 -24 -170 -9 -60 -53 -222 -64 -233 -19 -19 -13 38 14
133 14 49 30 100 35 112 9 19 0 50 -50 178 -34 85 -64 162 -66 170 -3 9 13 42
36 75 23 33 54 79 68 102 l26 42 29 -52 c27 -49 28 -56 22 -137z m3348 14
c-35 -47 -68 -46 -77 1 -4 19 -12 37 -17 41 -7 4 -9 0 -6 -12 4 -11 9 -32 13
-48 l7 -29 -54 5 c-30 3 -66 10 -81 16 l-27 11 19 43 c11 24 20 53 20 66 0 25
15 27 74 11 34 -9 41 -8 49 6 8 15 15 11 57 -30 l49 -48 -26 -33z m-223 77 c0
-18 -30 -80 -47 -96 -16 -17 -19 -16 -50 21 l-32 39 57 22 c65 25 72 26 72 14z
m-2313 -158 c-51 -65 -98 -118 -104 -118 -6 0 -50 46 -97 103 l-86 102 123 0
c94 1 224 15 255 29 1 0 -40 -52 -91 -116z m2160 81 c18 -14 33 -29 33 -33 0
-16 -220 -151 -245 -151 -3 0 2 14 10 31 15 28 152 179 163 179 3 0 20 -11 39
-26z m288 -58 c49 5 58 4 48 -7 -7 -7 -13 -23 -13 -36 0 -16 -17 -35 -56 -64
-30 -22 -57 -39 -59 -37 -2 1 -28 34 -58 72 -49 61 -54 71 -40 82 13 9 28 8
67 -3 33 -9 72 -11 111 -7z m-4235 -127 c0 -5 -12 -9 -27 -9 -16 0 -54 -6 -85
-14 -32 -7 -58 -11 -58 -9 0 2 7 17 15 33 8 16 20 53 26 82 l12 53 58 -64 c33
-35 59 -68 59 -72z m803 74 c15 -32 44 -103 65 -159 l39 -101 -35 -105 -35
-106 -51 62 c-29 33 -94 116 -146 184 l-93 122 24 26 c28 30 179 133 195 134
6 0 22 -26 37 -57z m3242 0 c29 -36 44 -62 40 -72 -19 -49 -27 -125 -22 -201
l7 -86 -43 -41 c-23 -22 -58 -52 -77 -66 l-36 -26 -32 19 c-36 22 -38 27 -17
57 17 24 37 73 30 73 -3 0 -14 -18 -25 -39 -11 -22 -24 -43 -30 -46 -13 -8
-120 77 -112 89 3 5 0 6 -5 3 -6 -4 -16 -1 -22 6 -8 10 -7 19 4 33 8 10 14 26
15 34 0 8 -10 0 -22 -18 l-21 -34 -30 31 -30 30 49 76 c47 73 53 78 137 121
49 25 110 60 135 79 26 19 50 35 54 35 4 0 28 -25 53 -57z m-372 -97 c-43 -63
-80 -113 -84 -110 -8 4 -43 144 -38 148 7 4 184 74 191 75 4 1 -27 -50 -69
-113z m732 -50 c42 -38 55 -56 45 -59 -70 -21 -163 -38 -170 -31 -60 65 -108
129 -104 136 3 5 24 22 46 38 l40 30 42 -30 c22 -17 68 -54 101 -84z m-177
-64 l52 -60 -72 -66 c-40 -36 -68 -66 -62 -66 5 0 39 27 76 61 l68 60 28 -33
c16 -18 41 -46 55 -63 l25 -30 -19 -47 c-21 -54 -67 -137 -105 -188 -20 -27
-17 -24 14 9 22 24 57 81 79 127 21 46 40 83 43 84 3 0 28 -22 54 -49 l48 -49
-17 -99 c-19 -104 -22 -110 -112 -180 -32 -24 -32 -24 -60 -6 -15 11 -74 50
-130 87 -57 37 -105 72 -108 77 -4 5 8 29 25 54 17 25 27 45 22 45 -5 0 -21
-18 -36 -41 -15 -22 -31 -39 -35 -37 -14 5 -135 118 -130 121 42 29 120 92
138 111 22 23 22 27 12 93 -10 64 -3 165 15 213 6 16 5 16 132 -128z m-4144
34 c36 -47 66 -90 66 -96 0 -6 -18 -43 -40 -81 -31 -52 -46 -69 -63 -69 -12 0
-67 -9 -122 -19 -54 -11 -103 -17 -107 -15 -4 3 -20 26 -35 52 -14 26 -53 89
-85 141 -32 52 -58 97 -58 101 0 4 28 11 63 15 34 3 109 17 167 30 58 13 115
24 127 24 15 1 39 -22 87 -83z m1633 -19 c-3 -12 -15 -49 -28 -82 l-22 -60 36
-95 c51 -134 54 -150 29 -150 -18 0 -261 85 -270 95 -2 2 9 46 24 97 l29 93
90 81 c85 76 91 80 104 62 7 -11 11 -29 8 -41z m733 11 c0 -13 -7 -61 -17
-107 l-16 -83 -28 83 c-15 46 -28 88 -28 92 -1 9 56 36 77 37 6 0 12 -10 12
-22z m40 -84 c14 -42 10 -56 -27 -82 l-29 -20 15 73 c8 41 18 72 22 69 4 -2
13 -20 19 -40z m1104 -19 c9 -13 16 -28 16 -33 0 -11 -268 -358 -342 -443
l-51 -60 -31 29 c-17 16 -57 50 -88 75 l-57 45 52 48 c29 27 101 94 160 151
100 93 143 124 287 200 33 17 35 17 54 -12z m-2307 -79 c-17 -31 -29 -42 -50
-44 -27 -3 -28 -3 -14 20 8 13 27 45 42 73 l29 50 7 -30 c6 -22 3 -39 -14 -69z
m-1069 -14 c71 -123 73 -130 55 -191 -16 -56 -47 -83 -132 -117 -43 -17 -45
-17 -55 0 -31 52 -43 61 -68 49 l-25 -11 9 51 c12 65 44 140 70 164 11 9 35
46 55 80 19 35 36 63 38 63 1 0 25 -39 53 -88z m1251 -2 c-11 -35 -21 -66 -23
-68 -2 -2 -10 13 -16 34 -12 35 -11 38 21 69 19 18 35 32 36 31 1 -1 -7 -31
-18 -66z m2203 -32 c-2 -29 -8 -98 -14 -153 -10 -94 -13 -104 -58 -170 -25
-38 -57 -89 -70 -112 -13 -24 -26 -43 -30 -43 -3 0 -13 12 -23 28 -9 15 -25
37 -35 50 l-18 23 -60 -19 c-80 -27 -124 -35 -124 -24 0 5 29 41 64 81 35 40
124 153 197 251 132 177 134 179 153 160 16 -15 19 -31 18 -72z m-2332 37 c0
-13 -47 -41 -55 -34 -2 3 3 21 13 41 15 33 18 35 30 20 6 -8 12 -21 12 -27z
m1188 6 c7 -21 12 -52 12 -68 0 -16 7 -52 15 -79 28 -92 -2 -151 -84 -169 -32
-7 -34 -6 -27 16 3 13 16 59 27 101 l20 78 -33 46 -32 45 39 34 c22 19 43 34
46 35 3 0 11 -17 17 -39z m1227 -35 l49 -44 -29 -45 c-46 -68 -98 -137 -102
-133 -6 5 21 266 27 266 3 -1 27 -20 55 -44z m-2329 -58 l15 -47 -42 -72 c-37
-64 -121 -159 -140 -159 -15 0 -17 -32 -4 -70 14 -39 14 -40 -9 -40 -35 0
-142 39 -159 58 -15 16 -12 24 29 92 52 88 273 317 286 297 4 -7 15 -33 24
-59z m1026 3 l26 -39 -25 -88 c-28 -100 -39 -124 -56 -124 -7 0 -54 -12 -105
-26 -64 -18 -97 -23 -104 -16 -16 16 204 333 231 332 3 -1 18 -18 33 -39z
m-2419 -3 c-9 -18 -26 -69 -38 -112 l-21 -79 -73 88 c-39 48 -70 89 -68 92 5
4 181 41 205 42 9 1 8 -8 -5 -31z m1261 14 c3 -5 -28 -41 -69 -82 l-74 -73 -6
34 c-4 19 -5 53 -3 74 3 35 7 41 33 46 45 10 113 10 119 1z m-162 -74 c0 -40
1 -79 1 -86 -1 -6 -20 -45 -43 -86 -38 -67 -46 -74 -79 -79 -49 -7 -129 7
-148 26 -15 15 -13 20 19 59 42 51 68 100 67 125 0 10 -7 1 -14 -20 -8 -21
-23 -49 -33 -62 l-20 -25 -5 28 c-3 15 -13 36 -21 47 -13 17 -13 13 1 -23 16
-41 16 -46 -1 -77 l-19 -34 -61 46 c-33 26 -64 51 -67 55 -3 5 -26 4 -50 -1
-24 -6 -55 -11 -68 -11 -22 0 -23 1 -9 23 14 20 26 23 124 28 119 7 157 20
284 98 43 26 77 40 103 40 l37 1 2 -72z m2736 30 c26 -17 77 -58 114 -91 75
-66 75 -57 6 -137 -38 -43 -38 -43 -59 -24 -23 21 -129 157 -146 189 -9 15 -7
27 10 57 12 21 23 38 25 38 2 0 24 -14 50 -32z m-4279 -147 c79 -41 79 -74 -1
-90 -106 -22 -98 -26 -118 64 -9 44 -21 93 -25 109 -8 28 -7 28 49 -18 31 -25
74 -55 95 -65z m851 67 c69 -12 126 -23 128 -24 2 -1 -8 -24 -22 -52 -31 -61
-80 -104 -188 -165 -68 -39 -84 -44 -91 -32 -4 8 -17 15 -28 15 -16 0 -18 5
-13 28 11 49 78 252 84 252 3 0 61 -10 130 -22z m1235 -10 c33 -11 65 -22 71
-23 6 -2 19 -34 28 -72 9 -37 19 -76 22 -85 4 -13 -11 -28 -58 -58 -35 -22
-68 -40 -73 -40 -6 0 -26 62 -44 138 -19 75 -36 146 -39 156 -4 16 -2 18 14
11 10 -4 46 -16 79 -27z m-1609 -95 l31 -37 43 14 c24 8 59 25 78 37 l33 23
-6 -22 c-4 -13 -13 -38 -21 -56 -7 -18 -16 -56 -20 -83 -4 -27 -10 -51 -14
-54 -13 -8 -87 54 -145 122 -53 62 -56 68 -39 80 25 18 25 18 60 -24z m1273
-98 c30 -79 28 -87 -16 -83 -33 3 -38 7 -51 46 -13 41 -13 45 9 68 12 13 26
24 30 24 4 0 17 -25 28 -55z"/>
<path d="M1488 4618 c-45 -68 -110 -136 -170 -178 -27 -18 -48 -35 -48 -38 0
-5 43 21 87 54 l31 24 32 -40 c17 -22 36 -40 40 -40 5 0 -2 12 -16 28 -45 48
-47 58 -16 94 39 46 108 148 99 148 -2 0 -20 -24 -39 -52z"/>
<path d="M1950 4572 c-60 -73 -103 -132 -97 -132 7 0 150 181 146 184 -2 2
-24 -21 -49 -52z"/>
<path d="M1649 4565 c5 -11 17 -29 26 -40 l16 -20 -10 20 c-5 11 -17 29 -26
40 l-16 20 10 -20z"/>
<path d="M1720 4440 c6 -11 13 -20 16 -20 2 0 0 9 -6 20 -6 11 -13 20 -16 20
-2 0 0 -9 6 -20z"/>
<path d="M1504 4383 c41 -22 96 -44 96 -39 0 5 -109 56 -119 56 -3 -1 7 -8 23
-17z"/>
<path d="M1189 4363 c-13 -17 -13 -17 6 -3 11 8 22 16 24 17 2 2 0 3 -6 3 -6
0 -17 -8 -24 -17z"/>
<path d="M2080 4370 c0 -5 5 -10 10 -10 6 0 10 5 10 10 0 6 -4 10 -10 10 -5 0
-10 -4 -10 -10z"/>
<path d="M1749 4345 c15 -30 51 -71 51 -60 -1 6 -14 26 -31 45 -17 19 -26 26
-20 15z"/>
<path d="M1149 4333 c-13 -16 -12 -17 4 -4 9 7 17 15 17 17 0 8 -8 3 -21 -13z"/>
<path d="M1316 4305 c-9 -14 -23 -37 -32 -52 l-16 -28 20 24 c24 29 55 81 49
81 -3 0 -12 -11 -21 -25z"/>
<path d="M1640 4195 c0 -4 12 -24 28 -44 15 -19 60 -85 99 -146 40 -60 73
-106 73 -102 0 4 -35 60 -77 124 -122 182 -123 184 -123 168z"/>
<path d="M1077 4173 c-13 -12 -7 -23 13 -23 11 0 20 7 20 15 0 15 -21 21 -33
8z"/>
<path d="M4885 4520 c3 -5 8 -10 11 -10 2 0 4 5 4 10 0 6 -5 10 -11 10 -5 0
-7 -4 -4 -10z"/>
<path d="M4680 4444 c-11 -12 -10 -18 3 -32 16 -15 18 -15 33 0 19 18 12 48
-9 48 -8 0 -20 -7 -27 -16z"/>
<path d="M4710 4200 c0 -5 5 -10 11 -10 5 0 7 5 4 10 -3 6 -8 10 -11 10 -2 0
-4 -4 -4 -10z"/>
<path d="M4464 4455 c-10 -8 -14 -15 -8 -15 6 0 17 7 24 15 16 19 9 19 -16 0z"/>
<path d="M4407 4449 c7 -7 15 -10 18 -7 3 3 -2 9 -12 12 -14 6 -15 5 -6 -5z"/>
<path d="M3640 4370 c0 -5 5 -10 10 -10 6 0 10 5 10 10 0 6 -4 10 -10 10 -5 0
-10 -4 -10 -10z"/>
<path d="M3301 4194 c0 -11 3 -14 6 -6 3 7 2 16 -1 19 -3 4 -6 -2 -5 -13z"/>
<path d="M3277 4098 c-10 -39 -16 -73 -13 -75 2 -2 11 28 21 67 10 39 15 73
13 75 -2 3 -12 -27 -21 -67z"/>
<path d="M3076 4033 c-6 -14 -5 -15 5 -6 7 7 10 15 7 18 -3 3 -9 -2 -12 -12z"/>
<path d="M4135 4011 c-3 -5 -1 -12 5 -16 5 -3 10 1 10 9 0 18 -6 21 -15 7z"/>
<path d="M4115 3930 c-3 -5 -1 -10 4 -10 6 0 11 5 11 10 0 6 -2 10 -4 10 -3 0
-8 -4 -11 -10z"/>
<path d="M4240 3790 c0 -5 5 -10 10 -10 6 0 10 5 10 10 0 6 -4 10 -10 10 -5 0
-10 -4 -10 -10z"/>
<path d="M2440 4244 c-17 -31 -29 -58 -27 -60 5 -5 49 68 60 99 12 32 -1 17
-33 -39z"/>
<path d="M2850 3920 c0 -5 4 -10 9 -10 6 0 13 5 16 10 3 6 -1 10 -9 10 -9 0
-16 -4 -16 -10z"/>
<path d="M876 3628 c29 -47 67 -99 77 -105 7 -4 3 6 -7 22 -11 17 -29 45 -40
62 -19 30 -47 49 -30 21z"/>
<path d="M1045 3630 c-3 -5 -1 -10 4 -10 6 0 11 5 11 10 0 6 -2 10 -4 10 -3 0
-8 -4 -11 -10z"/>
<path d="M1130 3473 c-40 -49 -59 -74 -41 -58 32 29 126 145 118 145 -2 0 -37
-39 -77 -87z"/>
<path d="M1200 3450 c0 -5 5 -10 10 -10 6 0 10 5 10 10 0 6 -4 10 -10 10 -5 0
-10 -4 -10 -10z"/>
<path d="M972 3274 c10 -10 20 -16 22 -13 3 3 -5 11 -17 18 -21 13 -21 12 -5
-5z"/>
<path d="M2390 3629 c0 -5 5 -7 10 -4 6 3 10 8 10 11 0 2 -4 4 -10 4 -5 0 -10
-5 -10 -11z"/>
<path d="M3455 3684 l-60 -13 65 5 c35 3 71 10 80 14 22 13 -10 11 -85 -6z"/>
<path d="M3607 3359 c-37 -28 -66 -54 -63 -56 3 -3 26 13 53 35 26 22 62 47
78 55 17 9 23 16 15 17 -8 0 -46 -23 -83 -51z"/>
<path d="M4180 3375 c7 -9 15 -13 17 -11 7 7 -7 26 -19 26 -6 0 -6 -6 2 -15z"/>
<path d="M2230 3390 c0 -5 5 -10 10 -10 6 0 10 5 10 10 0 6 -4 10 -10 10 -5 0
-10 -4 -10 -10z"/>
<path d="M2346 3315 c8 -37 14 -45 14 -19 0 10 -5 26 -10 34 -8 11 -9 7 -4
-15z"/>
<path d="M2341 3224 c0 -11 3 -14 6 -6 3 7 2 16 -1 19 -3 4 -6 -2 -5 -13z"/>
<path d="M2074 3184 c-18 -14 -18 -15 4 -4 12 6 22 13 22 15 0 8 -5 6 -26 -11z"/>
<path d="M2257 3163 c-4 -3 -7 -11 -7 -17 0 -6 5 -5 12 2 6 6 9 14 7 17 -3 3
-9 2 -12 -2z"/>
<path d="M1950 3105 c-18 -19 -31 -37 -29 -40 3 -2 21 11 39 30 18 19 31 37
29 40 -3 2 -21 -11 -39 -30z"/>
<path d="M3150 3379 c-98 -70 -125 -94 -60 -54 72 45 163 115 148 115 -2 0
-41 -27 -88 -61z"/>
<path d="M2943 2903 c-62 -77 -72 -92 -42 -65 27 23 94 112 86 112 -3 0 -23
-21 -44 -47z"/>
<path d="M4795 3179 c-9 -17 -15 -33 -13 -35 3 -2 12 12 21 31 21 43 13 47 -8
4z"/>
<path d="M4477 3293 c-4 -3 -7 -11 -7 -17 0 -6 5 -5 12 2 6 6 9 14 7 17 -3 3
-9 2 -12 -2z"/>
<path d="M1211 3074 c-31 -34 -50 -64 -50 -77 2 -22 2 -22 6 0 2 13 27 48 55
78 27 30 48 55 45 55 -3 0 -28 -25 -56 -56z"/>
<path d="M2441 2805 c0 -5 11 -53 25 -105 15 -57 22 -77 19 -50 -4 42 -43 177
-44 155z"/>
<path d="M1980 2655 c0 -8 5 -15 10 -15 6 0 10 7 10 15 0 8 -4 15 -10 15 -5 0
-10 -7 -10 -15z"/>
<path d="M4400 2819 c-19 -17 -53 -43 -74 -60 -21 -16 -34 -29 -28 -29 12 0
98 67 126 99 27 30 17 26 -24 -10z"/>
<path d="M4460 2819 c0 -5 5 -7 10 -4 6 3 10 8 10 11 0 2 -4 4 -10 4 -5 0 -10
-5 -10 -11z"/>
<path d="M4352 2677 c-8 -10 -6 -13 7 -13 11 0 17 6 14 13 -3 7 -6 13 -8 13
-1 0 -7 -6 -13 -13z"/>
<path d="M4385 2520 c-3 -5 -1 -10 4 -10 6 0 11 5 11 10 0 6 -2 10 -4 10 -3 0
-8 -4 -11 -10z"/>
<path d="M4570 2490 c0 -5 5 -10 11 -10 5 0 7 5 4 10 -3 6 -8 10 -11 10 -2 0
-4 -4 -4 -10z"/>
<path d="M1019 2843 c-13 -16 -12 -17 4 -4 9 7 17 15 17 17 0 8 -8 3 -21 -13z"/>
<path d="M1707 2782 c-32 -33 -36 -54 -6 -26 20 18 44 54 36 54 -2 0 -15 -13
-30 -28z"/>
<path d="M1565 2569 c-10 -15 3 -25 16 -12 7 7 7 13 1 17 -6 3 -14 1 -17 -5z"/>
<path d="M1566 2365 c-11 -8 -17 -17 -14 -20 2 -3 13 4 23 15 21 23 18 25 -9
5z"/>
<path d="M3669 2603 c12 -24 31 -39 31 -25 0 5 -10 17 -21 28 -22 19 -22 19
-10 -3z"/>
<path d="M1141 2294 c0 -11 3 -14 6 -6 3 7 2 16 -1 19 -3 4 -6 -2 -5 -13z"/>
<path d="M1340 2066 c0 -2 8 -10 18 -17 15 -13 16 -12 3 4 -13 16 -21 21 -21
13z"/>
<path d="M1440 1995 c0 -10 83 -45 105 -44 11 0 2 6 -20 13 -22 7 -50 18 -62
25 -13 6 -23 9 -23 6z"/>
<path d="M2091 2534 c-14 -49 -7 -56 9 -9 7 20 10 39 7 42 -3 3 -10 -12 -16
-33z"/>
<path d="M2075 2424 c-9 -14 -14 -28 -12 -31 3 -3 13 9 22 26 19 38 14 41 -10
5z"/>
<path d="M2262 2308 c5 -29 12 -55 15 -58 3 -3 3 10 -1 29 -3 18 -6 44 -6 57
0 13 -4 24 -9 24 -4 0 -4 -24 1 -52z"/>
<path d="M1980 2330 c0 -5 5 -10 10 -10 6 0 10 5 10 10 0 6 -4 10 -10 10 -5 0
-10 -4 -10 -10z"/>
<path d="M2934 2392 c-22 -20 -90 -77 -150 -126 -135 -111 -153 -128 -89 -86
28 18 83 62 124 97 40 35 87 74 102 86 24 17 67 68 57 67 -2 0 -21 -17 -44
-38z"/>
<path d="M2485 2170 c3 -5 8 -10 11 -10 2 0 4 5 4 10 0 6 -5 10 -11 10 -5 0
-7 -4 -4 -10z"/>
<path d="M3180 2116 c-38 -8 -85 -31 -155 -77 -55 -36 -109 -71 -120 -77 -11
-6 -16 -12 -12 -12 14 0 69 31 145 82 83 56 130 78 166 78 14 0 28 5 31 10 3
6 5 10 3 9 -2 0 -28 -6 -58 -13z"/>
<path d="M2720 1929 c0 -5 5 -7 10 -4 6 3 10 8 10 11 0 2 -4 4 -10 4 -5 0 -10
-5 -10 -11z"/>
<path d="M2706 1843 c-21 -24 -37 -45 -34 -48 2 -2 21 16 42 41 49 58 43 64
-8 7z"/>
<path d="M3630 2100 c0 -5 5 -10 11 -10 5 0 7 5 4 10 -3 6 -8 10 -11 10 -2 0
-4 -4 -4 -10z"/>
<path d="M1736 1962 c-2 -4 4 -8 14 -8 10 0 16 4 14 8 -3 4 -9 8 -14 8 -5 0
-11 -4 -14 -8z"/>
<path d="M1697 1895 c-14 -25 -22 -45 -17 -45 4 0 16 17 25 38 10 20 20 40 22
45 2 4 2 7 -1 7 -2 0 -16 -20 -29 -45z"/>
<path d="M1612 1750 c-28 -21 -53 -44 -57 -50 -4 -7 20 10 54 36 54 42 62 45
78 33 16 -13 17 -12 4 4 -19 23 -22 22 -79 -23z"/>
<path d="M1747 1610 c-3 -11 -1 -20 4 -20 5 0 9 9 9 20 0 11 -2 20 -4 20 -2 0
-6 -9 -9 -20z"/>
<path d="M1013 2149 c-46 -88 -150 -272 -197 -347 -4 -7 -5 -12 -2 -12 3 0 31
42 62 92 61 99 209 378 200 378 -3 0 -31 -50 -63 -111z"/>
<path d="M4670 2131 c0 -17 4 -32 8 -35 4 -2 6 11 4 30 -5 42 -12 45 -12 5z"/>
<path d="M2005 2010 c3 -5 10 -10 16 -10 5 0 9 5 9 10 0 6 -7 10 -16 10 -8 0
-12 -4 -9 -10z"/>
<path d="M3540 1939 c0 -5 5 -7 10 -4 6 3 10 8 10 11 0 2 -4 4 -10 4 -5 0 -10
-5 -10 -11z"/>
<path d="M3690 1776 c0 -9 7 -16 16 -16 17 0 14 22 -4 28 -7 2 -12 -3 -12 -12z"/>
<path d="M3830 1655 c-6 -8 -9 -19 -6 -24 9 -14 36 -2 36 14 0 21 -16 26 -30
10z"/>
<path d="M3700 1593 c-54 -70 -66 -88 -54 -80 15 9 98 117 93 121 -2 2 -20
-17 -39 -41z"/>
<path d="M3805 1500 c3 -5 8 -10 11 -10 2 0 4 5 4 10 0 6 -5 10 -11 10 -5 0
-7 -4 -4 -10z"/>
<path d="M2016 1603 c-26 -32 -91 -93 -143 -136 -52 -43 -92 -81 -89 -84 9 -9
219 181 254 230 19 26 32 47 30 47 -2 0 -25 -26 -52 -57z"/>
<path d="M2188 1365 c-49 -24 -148 -92 -148 -102 0 -3 15 6 34 21 19 14 42 26
52 26 10 0 14 3 10 8 -4 4 23 21 61 39 37 18 61 32 53 32 -8 0 -36 -11 -62
-24z"/>
<path d="M2380 1300 c0 -5 5 -10 10 -10 6 0 10 5 10 10 0 6 -4 10 -10 10 -5 0
-10 -4 -10 -10z"/>
<path d="M970 1375 c13 -14 26 -25 28 -25 3 0 -5 11 -18 25 -13 14 -26 25 -28
25 -3 0 5 -11 18 -25z"/>
<path d="M606 1085 c-48 -44 -66 -55 -100 -57 l-41 -4 39 -8 c38 -9 39 -8 104
58 81 80 79 87 -2 11z"/>
<path d="M775 840 c3 -5 8 -10 11 -10 2 0 4 5 4 10 0 6 -5 10 -11 10 -5 0 -7
-4 -4 -10z"/>
<path d="M1665 649 c-9 -17 -15 -33 -13 -35 3 -2 12 12 21 31 21 43 13 47 -8
4z"/>
<path d="M1632 575 c-7 -14 -12 -31 -12 -38 1 -7 7 3 16 22 17 39 13 54 -4 16z"/>
<path d="M3988 1394 c-16 -8 -28 -17 -28 -19 0 -6 52 16 65 27 15 13 -7 9 -37
-8z"/>
<path d="M3690 1244 c0 -8 5 -12 10 -9 6 4 8 11 5 16 -9 14 -15 11 -15 -7z"/>
<path d="M3336 1041 c-4 -5 -2 -12 3 -15 5 -4 12 -2 15 3 4 5 2 12 -3 15 -5 4
-12 2 -15 -3z"/>
<path d="M3500 924 c0 -8 5 -12 10 -9 6 4 8 11 5 16 -9 14 -15 11 -15 -7z"/>
<path d="M2925 1120 c3 -5 8 -10 11 -10 2 0 4 5 4 10 0 6 -5 10 -11 10 -5 0
-7 -4 -4 -10z"/>
<path d="M2885 850 c-3 -5 1 -10 9 -10 9 0 16 5 16 10 0 6 -4 10 -9 10 -6 0
-13 -4 -16 -10z"/>
<path d="M2565 710 c3 -5 8 -10 11 -10 2 0 4 5 4 10 0 6 -5 10 -11 10 -5 0 -7
-4 -4 -10z"/>
<path d="M2395 620 c-3 -5 -1 -10 4 -10 6 0 11 5 11 10 0 6 -2 10 -4 10 -3 0
-8 -4 -11 -10z"/>
<path d="M410 729 c0 -5 5 -7 10 -4 6 3 10 8 10 11 0 2 -4 4 -10 4 -5 0 -10
-5 -10 -11z"/>
<path d="M2111 637 c2 -2 18 -11 34 -21 l30 -17 -24 20 c-13 12 -28 21 -34 21
-6 0 -8 -1 -6 -3z"/>
<path d="M3936 461 c-9 -14 4 -41 21 -41 9 0 13 8 11 22 -3 23 -23 35 -32 19z"/>
<path d="M833 170 c-32 -13 -29 -15 20 -15 23 0 58 -4 77 -8 l35 -7 -35 14
c-59 22 -74 25 -97 16z"/>
<path d="M1898 5080 c2 -22 6 -40 8 -40 2 0 4 18 4 40 0 22 -3 40 -8 40 -4 0
-6 -18 -4 -40z"/>
<path d="M2700 5113 c1 -11 39 -80 40 -72 0 11 -30 79 -35 79 -3 0 -5 -3 -5
-7z"/>
<path d="M5059 5102 c6 -12 16 -24 22 -28 8 -4 8 -1 0 14 -6 12 -16 24 -22 28
-8 4 -8 1 0 -14z"/>
<path d="M2750 5050 c0 -5 5 -10 11 -10 5 0 7 5 4 10 -3 6 -8 10 -11 10 -2 0
-4 -4 -4 -10z"/>
<path d="M1242 5010 c0 -14 2 -19 5 -12 2 6 2 18 0 25 -3 6 -5 1 -5 -13z"/>
<path d="M4 4957 c1 -57 3 -65 14 -50 8 11 10 29 6 48 -15 67 -22 68 -20 2z"/>
<path d="M3240 5010 c-9 -6 -10 -10 -3 -10 6 0 15 5 18 10 8 12 4 12 -15 0z"/>
<path d="M1465 4980 c4 -6 11 -8 16 -5 14 9 11 15 -7 15 -8 0 -12 -5 -9 -10z"/>
<path d="M2495 4970 c-3 -5 -1 -10 4 -10 6 0 11 5 11 10 0 6 -2 10 -4 10 -3 0
-8 -4 -11 -10z"/>
<path d="M5005 4950 c-3 -5 -1 -10 4 -10 6 0 11 5 11 10 0 6 -2 10 -4 10 -3 0
-8 -4 -11 -10z"/>
<path d="M2270 4845 c0 -8 102 -57 107 -51 3 3 -6 10 -21 15 -14 6 -40 18 -56
26 -17 9 -30 13 -30 10z"/>
<path d="M4945 4811 c-6 -11 9 -23 19 -14 9 9 7 23 -3 23 -6 0 -12 -4 -16 -9z"/>
<path d="M155 4460 c-3 -5 -1 -10 4 -10 6 0 11 5 11 10 0 6 -2 10 -4 10 -3 0
-8 -4 -11 -10z"/>
<path d="M170 4215 c-1 -37 -8 -78 -25 -145 -4 -16 -1 -13 10 9 20 45 35 142
24 161 -6 10 -9 3 -9 -25z"/>
<path d="M131 4028 c0 -9 -4 -25 -7 -35 -5 -17 -5 -17 6 0 6 10 9 25 7 35 -4
15 -5 15 -6 0z"/>
<path d="M215 3000 c-3 -5 -1 -10 4 -10 6 0 11 5 11 10 0 6 -2 10 -4 10 -3 0
-8 -4 -11 -10z"/>
<path d="M5050 3000 c0 -5 5 -10 11 -10 5 0 7 5 4 10 -3 6 -8 10 -11 10 -2 0
-4 -4 -4 -10z"/>
<path d="M5 2860 c3 -5 8 -10 11 -10 2 0 4 5 4 10 0 6 -5 10 -11 10 -5 0 -7
-4 -4 -10z"/>
<path d="M70 2781 c17 -13 165 -61 183 -60 11 0 -134 54 -178 66 -16 4 -17 3
-5 -6z"/>
<path d="M3 2660 c3 -8 23 -55 45 -104 34 -77 38 -94 31 -130 -12 -62 -11
-184 2 -192 8 -4 9 1 4 16 -4 12 -4 65 0 116 l7 93 48 31 c27 17 54 38 61 46
6 8 -12 -1 -41 -21 -28 -19 -55 -35 -59 -35 -4 0 -20 31 -36 69 -23 58 -78
157 -62 111z"/>
<path d="M5090 2290 c0 -5 5 -10 11 -10 5 0 7 5 4 10 -3 6 -8 10 -11 10 -2 0
-4 -4 -4 -10z"/>
<path d="M5092 2073 c-44 -65 -99 -173 -87 -173 2 0 19 28 38 63 18 34 44 79
56 100 27 43 22 50 -7 10z"/>
<path d="M5010 1529 c0 -5 5 -7 10 -4 6 3 10 8 10 11 0 2 -4 4 -10 4 -5 0 -10
-5 -10 -11z"/>
<path d="M15 1250 c-3 -5 -1 -10 4 -10 6 0 11 5 11 10 0 6 -2 10 -4 10 -3 0
-8 -4 -11 -10z"/>
<path d="M4920 1189 c0 -5 5 -7 10 -4 6 3 10 8 10 11 0 2 -4 4 -10 4 -5 0 -10
-5 -10 -11z"/>
<path d="M4030 920 c0 -5 5 -10 11 -10 5 0 7 5 4 10 -3 6 -8 10 -11 10 -2 0
-4 -4 -4 -10z"/>
<path d="M4005 760 c3 -5 8 -10 11 -10 2 0 4 5 4 10 0 6 -5 10 -11 10 -5 0 -7
-4 -4 -10z"/>
<path d="M3460 489 c0 -5 5 -7 10 -4 6 3 10 8 10 11 0 2 -4 4 -10 4 -5 0 -10
-5 -10 -11z"/>
<path d="M1975 260 c-3 -5 -1 -10 4 -10 6 0 11 5 11 10 0 6 -2 10 -4 10 -3 0
-8 -4 -11 -10z"/>
<path d="M1080 153 c0 -20 39 -117 56 -139 14 -18 15 -18 4 4 -6 13 -22 51
-35 85 -13 34 -24 57 -25 50z"/>
<path d="M1402 73 c-18 -36 -31 -68 -28 -70 3 -3 19 25 36 63 16 37 29 69 27
70 -2 2 -18 -26 -35 -63z"/>
<path d="M2470 129 c0 -5 5 -7 10 -4 6 3 10 8 10 11 0 2 -4 4 -10 4 -5 0 -10
-5 -10 -11z"/>
<path d="M591 113 c67 -80 84 -99 98 -107 8 -5 -11 21 -44 57 -32 37 -61 67
-63 67 -3 0 1 -8 9 -17z"/>
<path d="M188 93 c-18 -19 -52 -93 -43 -93 2 0 15 21 28 47 l24 47 7 -47 c4
-26 12 -47 17 -47 6 0 7 5 4 11 -4 5 -10 31 -13 56 -7 43 -8 44 -24 26z"/>
<path d="M31 53 c23 -39 45 -67 37 -48 -14 37 -43 85 -51 85 -5 0 1 -17 14
-37z"/>
<path d="M2510 49 c0 -5 5 -7 10 -4 6 3 10 8 10 11 0 2 -4 4 -10 4 -5 0 -10
-5 -10 -11z"/>
<path d="M1748 3 c7 -3 16 -2 19 1 4 3 -2 6 -13 5 -11 0 -14 -3 -6 -6z"/>
</g>
</svg>