<?xml version="1.0" standalone="no"?>
<!DOCTYPE svg PUBLIC "-//W3C//DTD SVG 20010904//EN"
 "http://www.w3.org/TR/2001/REC-SVG-20010904/DTD/svg10.dtd">
<svg version="1.0" xmlns="http://www.w3.org/2000/svg"
 width="512.000000pt" height="512.000000pt" viewBox="0 0 512.000000 512.000000"
 preserveAspectRatio="xMidYMid meet">
<metadata>
Created by potrace 1.16, written by Peter Selinger 2001-2019
</metadata>
<g transform="translate(0.000000,512.000000) scale(0.100000,-0.100000)"
fill="#000000" stroke="none">
<path d="M4217 1173 c-4 -3 -7 -14 -7 -24 0 -9 -7 -19 -14 -22 -22 -9 -40 -85
-27 -114 6 -13 11 -45 11 -72 l0 -47 -82 -33 c-204 -81 -329 -115 -389 -107
-23 3 -46 3 -52 -1 -5 -3 -26 -7 -45 -9 -18 -2 -41 -9 -50 -16 -13 -11 -14
-11 -7 1 9 15 6 15 -170 -9 -38 -5 -112 -9 -162 -10 l-92 0 -16 -30 c-15 -29
-40 -34 -29 -6 3 8 1 16 -4 20 -5 3 -8 -5 -7 -17 3 -32 -8 -46 -15 -19 l-5 22
-13 -21 c-8 -12 -9 -18 -4 -15 6 3 13 -2 16 -11 6 -14 8 -14 22 3 15 18 15 18
11 -2 -3 -13 1 -21 9 -21 7 0 11 4 8 9 -4 5 2 5 12 0 19 -10 225 -31 319 -33
72 -1 20 -17 -61 -18 -74 -1 -230 -32 -311 -61 -98 -36 -115 -40 -213 -50 -52
-5 -178 -26 -280 -45 -102 -19 -202 -37 -223 -40 -61 -10 -34 -22 64 -29 51
-4 100 -11 109 -16 10 -5 103 -9 206 -8 115 1 220 -3 269 -11 108 -18 382 -19
470 -2 54 10 131 12 330 6 350 -9 433 -9 690 1 121 5 276 6 345 1 69 -4 162
-5 208 -1 l82 6 0 257 0 258 -152 11 c-84 6 -209 14 -277 18 -124 5 -162 15
-204 52 -19 17 -94 21 -164 9 -43 -7 -43 -7 -43 24 0 20 4 28 12 23 21 -13 1
126 -22 151 -11 12 -20 29 -20 38 0 17 -21 23 -33 10z m-1083 -521 c3 -5 -1
-9 -9 -9 -8 0 -12 4 -9 9 3 4 7 8 9 8 2 0 6 -4 9 -8z"/>
<path d="M1610 942 c0 -7 -6 -20 -14 -27 -10 -10 -11 -26 -5 -62 4 -26 8 -69
8 -95 1 -67 -24 -83 -142 -84 -72 -2 -87 1 -83 12 5 12 2 12 -16 3 -18 -9 -20
-9 -15 4 3 9 -1 18 -9 21 -9 3 -12 1 -9 -4 3 -6 2 -10 -3 -10 -13 0 -24 29
-15 42 3 7 1 8 -5 4 -7 -4 -12 -14 -12 -22 0 -8 -5 -14 -11 -14 -14 0 -39 26
-39 40 0 7 -6 5 -16 -4 -20 -20 -30 -21 -14 -1 7 8 9 15 4 15 -4 0 0 6 10 13
16 12 16 14 2 14 -9 0 -16 -4 -16 -9 0 -4 -5 -8 -11 -8 -5 0 -7 5 -3 11 3 6
-6 3 -22 -7 -16 -10 -26 -14 -21 -9 13 15 -46 32 -117 34 -38 1 -73 4 -79 8
-6 3 -56 7 -111 8 -56 1 -137 10 -180 20 -72 16 -93 17 -220 5 -107 -9 -160
-10 -219 -1 -43 6 -112 11 -153 11 l-74 0 0 -425 0 -425 1146 0 c636 0 1143 4
1140 9 -3 4 -45 10 -93 13 -75 4 -98 10 -152 38 -60 31 -73 34 -200 41 -75 4
-154 13 -176 18 -22 6 -125 11 -230 11 -291 0 -437 25 -484 80 -22 27 -174 77
-289 96 -51 8 -105 20 -120 26 l-27 11 25 6 c14 4 25 12 25 18 0 6 3 14 6 17
7 7 292 56 327 56 13 0 32 5 43 11 20 10 20 11 3 24 -17 12 -17 13 2 18 10 3
160 9 332 12 227 6 312 4 312 -4 0 -6 8 -11 18 -11 14 0 15 2 2 10 -10 6 -6 9
17 8 18 -1 43 6 57 15 18 12 70 20 193 28 92 7 175 16 183 20 12 7 10 8 -7 9
-16 0 -21 4 -17 15 5 11 2 14 -12 9 -16 -6 -17 -5 -6 7 6 7 12 18 12 24 0 5
-5 3 -10 -5 -7 -12 -10 -12 -10 -1 0 7 -6 11 -14 8 -10 -4 -13 -1 -9 9 6 17
-8 19 -24 3 -9 -9 -10 -7 -6 10 6 22 -11 29 -23 9 -4 -7 -3 -8 4 -4 8 5 10 1
5 -10 -4 -11 -8 -13 -11 -6 -2 7 -10 12 -18 12 -8 0 -11 6 -8 15 4 11 2 13 -9
9 -10 -3 -20 2 -27 15 -15 29 -34 27 -20 -1 11 -22 11 -23 -5 -3 -9 12 -29 20
-48 21 -18 1 -45 6 -60 13 -16 6 -40 8 -54 5 -22 -6 -25 -4 -20 9 3 9 3 16 -1
16 -28 -4 -31 3 -26 71 4 51 1 77 -10 97 -8 16 -15 22 -16 15z"/>
<path d="M3015 680 c3 -5 8 -10 11 -10 2 0 4 5 4 10 0 6 -5 10 -11 10 -5 0 -7
-4 -4 -10z"/>
<path d="M2051 604 c0 -11 3 -14 6 -6 3 7 2 16 -1 19 -3 4 -6 -2 -5 -13z"/>
<path d="M2090 585 c0 -8 2 -15 4 -15 2 0 6 7 10 15 3 8 1 15 -4 15 -6 0 -10
-7 -10 -15z"/>
<path d="M2370 576 c-41 -11 -43 -13 -20 -19 40 -11 142 -8 135 3 -4 7 2 7 18
1 14 -6 27 -7 30 -4 3 3 27 6 52 8 26 2 52 8 58 14 15 15 -214 13 -273 -3z"/>
<path d="M2123 573 c9 -2 23 -2 30 0 6 3 -1 5 -18 5 -16 0 -22 -2 -12 -5z"/>
<path d="M1610 440 c-13 -8 -12 -10 3 -10 9 0 17 5 17 10 0 12 -1 12 -20 0z"/>
</g>
</svg>