<?xml version="1.0" standalone="no"?>
<!DOCTYPE svg PUBLIC "-//W3C//DTD SVG 20010904//EN"
 "http://www.w3.org/TR/2001/REC-SVG-20010904/DTD/svg10.dtd">
<svg version="1.0" xmlns="http://www.w3.org/2000/svg"
 width="512.000000pt" height="512.000000pt" viewBox="0 0 512.000000 512.000000"
 preserveAspectRatio="xMidYMid meet">
<metadata>
Created by potrace 1.16, written by Peter Selinger 2001-2019
</metadata>
<g transform="translate(0.000000,512.000000) scale(0.100000,-0.100000)"
fill="#000000" stroke="none">
<path d="M2757 4842 c-9 -10 -22 -41 -28 -69 -8 -36 -16 -50 -28 -49 -26 2
-15 -61 19 -115 29 -45 38 -79 22 -79 -14 0 -42 35 -42 53 0 16 -45 57 -63 57
-6 0 -7 -17 -4 -45 4 -25 2 -47 -3 -50 -17 -11 -11 -60 13 -93 19 -29 22 -43
19 -113 -2 -43 -7 -79 -11 -79 -4 0 -13 18 -20 40 -6 22 -28 71 -47 108 -20
37 -43 89 -51 116 -27 89 -64 122 -82 74 -12 -34 5 -90 37 -118 15 -14 38 -39
50 -57 29 -41 56 -116 40 -111 -6 2 -16 19 -22 38 -8 27 -19 38 -45 46 -50 16
-93 71 -87 110 5 38 -17 74 -46 74 -19 0 -20 2 -6 18 9 9 19 27 23 40 9 30
-12 127 -32 143 -13 11 -20 8 -44 -19 -16 -18 -29 -39 -29 -47 0 -22 -8 -19
-45 21 -51 53 -70 44 -70 -33 0 -48 5 -68 23 -92 23 -31 16 -45 -8 -16 -7 8
-21 15 -32 15 -17 0 -19 -6 -16 -42 2 -37 0 -43 -17 -43 -33 0 -31 -47 4 -87
44 -51 123 -182 111 -186 -13 -5 -13 -27 0 -50 5 -9 19 -64 31 -122 34 -164
37 -179 31 -185 -8 -8 -58 131 -93 260 -18 66 -40 123 -56 143 -14 19 -34 56
-44 84 -20 55 -45 88 -66 88 -19 0 -17 -80 3 -109 16 -22 16 -23 -4 -12 -11 6
-28 8 -36 5 -18 -7 -29 16 -46 98 -12 63 -42 108 -70 108 -30 0 -43 -26 -37
-73 4 -32 14 -50 45 -77 21 -19 47 -48 57 -63 17 -26 17 -29 2 -44 -15 -15
-18 -15 -37 2 -11 10 -20 24 -20 30 0 7 -18 33 -40 58 -22 25 -40 51 -40 59 0
29 -60 108 -95 125 -50 24 -64 8 -42 -48 15 -38 15 -40 -1 -34 -29 12 -146 17
-161 7 -21 -15 -6 -39 43 -69 l46 -28 -28 -22 c-26 -22 -26 -23 -8 -38 29 -23
118 -38 150 -25 41 15 139 -15 188 -58 17 -14 17 -16 1 -27 -15 -11 -15 -15
-4 -29 7 -9 23 -16 35 -16 28 0 219 -198 265 -274 42 -70 77 -165 102 -276 33
-146 33 -147 18 -133 -7 7 -14 25 -15 41 -2 34 -56 144 -96 194 -17 22 -24 39
-18 43 5 3 10 22 10 41 0 29 -3 34 -24 34 -17 0 -27 9 -36 30 -14 34 -37 50
-71 50 -20 0 -21 -3 -16 -45 4 -27 3 -45 -3 -45 -6 0 -10 -22 -10 -50 0 -27
-4 -50 -9 -50 -6 0 -22 16 -37 35 -31 41 -55 132 -47 180 8 51 -3 84 -32 91
-19 5 -25 13 -25 34 0 62 -80 129 -88 74 -2 -18 -9 -22 -35 -20 -31 1 -32 0
-30 -38 2 -22 9 -49 18 -62 14 -22 14 -23 -18 -26 -29 -3 -33 0 -47 37 -12 32
-25 45 -62 62 -25 13 -56 37 -69 55 -57 83 -108 117 -95 61 l7 -26 -37 33
c-35 31 -91 60 -114 60 -16 0 -12 -43 7 -70 33 -50 69 -82 116 -102 49 -21 61
-38 27 -38 -26 0 -42 -32 -32 -62 5 -14 4 -32 -3 -46 -11 -21 -12 -21 -28 -4
-13 14 -16 30 -11 63 4 34 0 51 -15 77 -21 32 -53 43 -66 21 -5 -7 -15 -3 -29
10 -31 29 -74 37 -82 16 -18 -46 45 -148 115 -185 20 -11 54 -36 76 -55 l40
-36 -55 7 c-30 3 -71 15 -92 26 -44 23 -70 13 -61 -25 5 -20 2 -19 -28 10 -42
39 -77 53 -135 53 -51 0 -56 -12 -18 -51 l27 -28 -29 -6 c-16 -4 -35 -9 -42
-11 -25 -8 -7 -36 43 -65 76 -44 97 -51 132 -46 31 5 93 -11 93 -24 0 -3 -22
-9 -49 -13 -55 -7 -76 -25 -66 -56 5 -15 0 -29 -15 -45 -35 -37 -23 -59 32
-63 47 -3 91 14 148 57 25 19 120 37 120 23 0 -4 -16 -16 -35 -26 -40 -22 -89
-81 -80 -96 12 -20 34 -9 66 31 50 63 149 102 149 59 0 -21 19 -31 155 -82 83
-31 285 -136 285 -149 0 -4 -19 -2 -42 3 -24 5 -85 13 -137 16 l-94 7 -20 58
c-10 32 -25 61 -33 64 -24 9 -44 -17 -44 -59 0 -33 -3 -39 -16 -34 -32 12 -94
18 -120 12 -22 -6 -25 -11 -20 -31 4 -14 3 -25 -1 -25 -5 0 -23 -9 -41 -20
-46 -28 -29 -46 51 -54 68 -8 108 2 143 35 16 15 32 19 65 17 42 -3 46 -6 101
-83 32 -44 58 -83 58 -86 0 -3 -12 -4 -27 -2 -16 2 -35 -1 -43 -6 -21 -15 -4
-39 53 -76 25 -16 46 -32 46 -35 1 -3 -12 -13 -28 -22 -29 -16 -30 -16 -45 8
-32 47 -106 68 -106 29 0 -21 -9 -19 -84 21 -62 32 -96 38 -96 16 0 -13 172
-101 216 -110 43 -9 55 -27 23 -35 -31 -8 -163 16 -227 42 -140 56 -192 102
-206 181 -7 39 -56 100 -80 100 -19 0 -23 -65 -6 -75 16 -10 90 -105 90 -116
0 -20 -40 13 -85 69 -83 104 -82 103 -117 100 -21 -1 -45 6 -63 20 -46 32 -85
33 -85 2 0 -17 -7 -20 -42 -20 -67 0 -90 -9 -86 -34 3 -20 56 -54 110 -70 22
-7 22 -8 -9 -23 -33 -17 -44 -47 -20 -56 6 -2 38 -2 69 1 61 5 77 -7 37 -28
-26 -15 -59 -69 -59 -99 0 -22 2 -23 55 -19 49 4 61 10 98 46 51 50 116 76
172 67 61 -9 79 -25 29 -25 -56 0 -134 -35 -134 -60 0 -22 31 -45 73 -55 45
-12 94 4 133 41 l38 35 48 -18 c26 -9 48 -20 48 -23 0 -3 -24 -12 -52 -19
-120 -29 -268 -83 -268 -98 0 -9 6 -12 18 -9 201 58 285 77 295 66 9 -9 8 -15
-7 -24 -42 -26 -66 -48 -66 -62 0 -18 21 -18 67 1 47 20 53 19 50 -7 -2 -20 3
-23 33 -26 43 -3 105 34 140 84 32 47 44 52 118 46 l64 -5 -36 -29 c-22 -18
-38 -41 -42 -62 -7 -38 9 -76 31 -76 24 0 83 59 97 96 6 19 17 34 23 34 5 0
33 -35 61 -78 59 -88 139 -242 125 -242 -4 0 -28 9 -52 19 -57 26 -174 57
-274 75 -48 8 -107 27 -145 46 -82 42 -207 79 -290 86 -55 5 -75 3 -114 -15
-27 -11 -54 -21 -60 -21 -6 0 -24 16 -39 35 -44 55 -78 68 -159 60 -56 -6 -71
-11 -75 -26 -3 -10 -18 -21 -36 -25 -18 -4 -43 -14 -57 -22 -70 -43 -57 -72
34 -72 33 0 71 -3 83 -6 19 -5 20 -9 10 -26 -10 -16 -9 -22 7 -34 11 -8 27
-14 37 -14 32 0 101 30 140 61 38 30 43 31 91 23 28 -5 53 -14 55 -20 2 -6
-16 -19 -41 -28 -51 -20 -102 -67 -151 -139 -47 -69 -46 -81 5 -74 66 9 112
38 138 88 21 41 25 44 71 49 l48 5 -24 -44 c-27 -52 -28 -64 -8 -81 13 -10 23
-9 56 5 43 20 76 59 88 103 9 32 44 40 191 41 l95 1 -33 -26 c-40 -32 -60 -69
-64 -120 -3 -34 0 -39 20 -42 49 -7 112 70 112 137 0 16 5 33 10 36 11 7 203
-40 230 -55 8 -5 13 -10 10 -10 -3 -1 -12 -3 -21 -5 -48 -9 -58 -18 -73 -65
-9 -27 -16 -56 -16 -64 0 -22 47 -21 85 3 20 12 42 16 63 13 20 -2 41 2 57 12
13 9 27 16 30 16 9 0 58 -80 52 -86 -3 -3 -15 0 -27 6 -46 25 -120 11 -120
-22 0 -28 56 -78 89 -78 15 0 36 -7 47 -15 10 -8 27 -15 36 -15 10 0 21 -8 26
-17 22 -42 133 -393 130 -409 -2 -13 -30 11 -98 86 -123 135 -160 173 -189
193 -41 27 -20 27 57 0 53 -19 76 -23 84 -15 17 17 -9 42 -42 42 -43 0 -60 10
-60 35 0 50 -86 114 -153 115 -37 0 -43 -22 -18 -66 18 -30 19 -35 6 -30 -9 3
-28 6 -41 6 -14 0 -23 4 -20 9 10 15 -84 54 -141 59 -42 4 -53 1 -53 -11 0 -8
7 -20 15 -27 20 -17 19 -27 -5 -33 -33 -9 -23 -34 27 -67 37 -25 54 -31 80
-27 23 4 39 0 58 -15 23 -18 35 -20 108 -13 l82 6 47 -44 c46 -45 84 -94 77
-101 -5 -5 -192 30 -238 45 -20 6 -55 31 -78 56 -38 40 -46 44 -70 37 -16 -4
-41 -8 -57 -8 -25 -1 -31 4 -38 31 -13 50 -101 113 -158 113 -16 0 -20 -7 -20
-30 l0 -29 -62 5 c-111 9 -115 -26 -8 -74 51 -22 53 -25 35 -38 -10 -8 -22
-14 -27 -14 -4 0 -8 -9 -8 -20 0 -28 70 -46 130 -32 39 9 52 7 105 -14 33 -14
80 -32 105 -41 25 -8 52 -17 60 -20 11 -4 9 -7 -9 -14 -35 -14 -86 -1 -127 32
-20 16 -42 29 -49 29 -25 0 -85 -31 -85 -44 0 -7 -15 -17 -32 -22 -71 -21 -33
-64 55 -64 49 0 78 -13 53 -23 -18 -7 -21 -33 -5 -42 18 -12 98 25 119 55 14
20 34 32 68 39 26 6 81 20 122 32 168 46 296 -15 377 -180 l28 -56 -2 -205
c-4 -386 -31 -756 -61 -815 -24 -50 -41 -63 -147 -116 -101 -50 -104 -50 -229
-59 -121 -9 -131 -11 -231 -57 -62 -28 -105 -53 -105 -62 0 -15 35 -14 248 9
113 12 151 8 131 -16 -27 -33 68 -30 187 7 89 27 114 23 128 -21 10 -31 15
-35 49 -38 21 -2 66 6 100 17 80 28 100 27 182 -9 39 -16 81 -30 94 -30 20 0
22 4 17 23 -13 41 -11 51 14 64 33 17 86 16 144 -1 41 -12 82 -13 262 -3 228
12 253 19 170 51 -25 10 -65 33 -90 52 -74 56 -110 67 -246 76 -401 25 -358
19 -390 55 -16 18 -34 50 -39 71 -15 54 -31 254 -31 386 0 98 3 114 24 151 29
49 94 95 135 95 16 0 34 7 41 15 7 8 25 15 40 15 15 0 38 8 51 19 l23 18 -22
12 c-19 10 -20 14 -10 31 10 15 10 22 1 31 -9 9 -20 6 -46 -10 -41 -25 -47
-26 -47 -7 0 49 -54 14 -72 -47 -9 -29 -25 -49 -64 -78 -29 -21 -56 -39 -59
-39 -12 0 -4 133 9 159 17 32 83 94 123 114 62 32 134 40 229 26 98 -15 264
-18 334 -6 44 7 45 7 59 -24 15 -34 87 -74 115 -63 23 9 21 69 -4 94 -20 20
-20 20 14 34 47 20 54 35 25 59 -19 15 -33 18 -71 13 -30 -4 -48 -3 -48 3 0
22 -39 32 -81 21 -50 -14 -58 -34 -29 -65 l23 -24 -24 -9 c-44 -17 -109 -24
-159 -17 -28 4 -50 10 -50 13 0 4 64 40 143 80 134 68 145 72 192 66 40 -4 57
-1 83 16 21 13 32 26 28 35 -3 9 11 26 39 45 38 26 65 56 65 73 0 14 -36 14
-86 1 -40 -10 -61 -11 -68 -4 -19 19 -65 11 -97 -18 -23 -21 -34 -41 -38 -71
l-6 -43 -155 -79 -155 -79 -93 7 -93 6 28 23 c15 12 44 25 63 28 31 6 90 30
130 55 8 5 42 17 75 26 94 26 128 46 147 85 23 45 25 148 3 156 -23 9 -83 -35
-111 -81 -22 -37 -25 -38 -30 -17 -5 16 -14 22 -33 22 -32 0 -64 -30 -86 -83
-21 -51 -42 -49 -41 6 1 38 -1 42 -24 42 -19 0 -32 -12 -55 -47 -16 -25 -39
-48 -50 -50 -26 -4 -32 -50 -9 -72 16 -16 15 -20 -20 -55 -31 -32 -212 -141
-233 -141 -10 0 5 173 19 214 7 24 42 72 88 121 41 45 86 98 100 118 29 42 79
70 130 71 28 1 36 -3 38 -20 2 -12 14 -26 28 -33 22 -9 28 -8 49 14 14 13 25
29 25 35 0 21 19 9 39 -25 23 -39 47 -53 63 -37 14 14 13 69 -3 88 -18 22 -4
27 30 10 36 -19 120 -21 145 -3 16 12 16 14 -3 39 -11 14 -37 33 -58 43 l-37
18 27 21 c15 12 27 25 27 28 0 12 -73 28 -126 28 -51 0 -84 -19 -84 -49 0 -15
-52 -11 -57 4 -2 6 11 16 28 22 25 10 30 17 27 37 -2 18 8 36 36 65 21 21 35
44 32 50 -9 14 -49 14 -98 -1 -34 -10 -40 -9 -53 8 -13 18 -16 18 -42 4 -16
-9 -32 -29 -38 -48 -5 -17 -13 -32 -19 -32 -5 0 -17 -6 -25 -14 -17 -14 -152
-58 -159 -51 -10 10 80 155 133 213 71 78 102 92 197 92 125 0 348 -58 348
-90 0 -33 29 -87 60 -114 36 -30 43 -31 60 -11 17 21 -4 76 -38 97 -33 21 -25
22 62 3 78 -16 80 -17 116 -119 26 -72 45 -94 74 -83 11 4 16 19 16 47 0 22 2
40 5 40 2 0 23 -20 46 -45 45 -48 79 -59 79 -25 0 26 -26 78 -53 108 l-20 22
37 0 c68 0 122 44 94 77 -37 44 -108 54 -172 24 -51 -24 -74 -29 -78 -16 -1 6
21 20 51 31 62 25 86 46 78 68 -8 19 -41 9 -90 -28 -70 -52 -117 -69 -175 -62
-88 10 -94 22 -16 31 66 7 144 38 144 58 0 6 -17 7 -40 3 -38 -6 -40 -5 -31
13 8 14 7 22 -3 30 -21 18 -76 -9 -113 -54 -29 -35 -34 -37 -70 -31 -49 9
-159 43 -181 56 -18 10 -10 11 74 14 61 2 85 55 42 96 -12 11 -20 21 -17 23 2
2 41 14 87 27 82 23 84 23 176 7 50 -10 121 -17 157 -17 59 0 68 -3 94 -30 32
-34 74 -40 100 -14 27 27 46 10 39 -34 -8 -48 15 -101 59 -138 27 -23 31 -24
46 -9 10 10 16 33 16 65 0 28 1 50 3 50 2 0 23 -5 47 -11 55 -14 95 -5 95 20
0 21 -80 115 -114 134 -11 6 -50 12 -86 12 -58 0 -65 2 -65 20 0 14 12 23 47
34 44 13 49 13 69 -5 30 -27 169 -35 169 -9 0 28 -18 52 -56 74 -20 12 -34 25
-30 28 9 9 -14 33 -32 33 -8 0 -29 -15 -46 -33 -30 -32 -49 -41 -234 -108 -71
-25 -81 -24 -150 11 -33 17 -67 30 -76 30 -37 0 -11 17 52 33 82 21 79 21 85
-2 2 -10 17 -27 31 -37 22 -14 35 -15 64 -8 32 8 37 13 40 42 3 30 6 32 40 32
60 0 82 10 82 36 0 12 -4 26 -10 29 -19 12 -10 25 17 25 15 0 52 -7 83 -16 45
-12 65 -13 96 -5 54 15 118 53 122 73 4 21 -92 59 -163 65 -43 4 -54 1 -77
-21 -27 -26 -77 -51 -85 -42 -2 2 10 14 27 27 102 78 140 123 140 168 0 28
-10 31 -53 16 -55 -19 -85 -51 -102 -109 -17 -55 -58 -106 -88 -106 -17 0 -17
2 6 29 27 32 44 108 27 125 -14 14 -24 0 -39 -51 -12 -45 -57 -97 -90 -106
-25 -6 -27 10 -6 37 22 30 18 46 -11 46 -19 0 -44 -18 -90 -65 -49 -50 -73
-67 -106 -75 -58 -13 -55 -14 -61 19 -7 31 -33 46 -61 35 -14 -5 -16 -14 -11
-40 5 -32 4 -34 -42 -57 -26 -13 -81 -29 -121 -35 -52 -7 -87 -19 -120 -41
-25 -16 -47 -29 -49 -28 -4 4 46 135 67 177 25 48 36 56 56 36 12 -12 20 -13
35 -6 16 9 21 7 28 -12 5 -13 18 -31 29 -41 39 -36 79 12 52 62 -8 16 -5 18
38 14 54 -4 76 6 66 31 -9 23 -76 56 -113 56 -20 0 -34 7 -41 19 -5 11 -24 22
-41 26 -17 4 -27 11 -22 16 4 4 57 20 116 35 l109 27 21 -26 c23 -27 64 -50
110 -61 23 -5 29 -3 36 16 11 29 -2 55 -34 70 -41 19 -17 28 60 25 48 -3 83
-10 100 -21 34 -23 68 -17 75 12 3 13 8 23 13 23 63 -5 86 19 48 51 -23 18
-23 18 35 18 68 0 144 31 144 60 0 25 -54 68 -95 76 -35 6 -44 17 -25 29 18
11 11 45 -8 45 -32 0 -135 -39 -157 -60 -31 -30 -101 -57 -203 -79 -51 -11
-113 -29 -139 -41 -25 -11 -48 -19 -50 -17 -3 4 36 116 44 126 1 2 11 -3 21
-12 28 -26 42 -20 42 15 0 17 3 29 6 25 10 -10 64 14 74 33 8 14 6 22 -9 32
-10 7 -20 22 -22 33 -3 16 -14 21 -51 23 -36 2 -48 8 -53 23 -8 25 -45 25 -78
-2 -20 -15 -38 -19 -69 -17 l-43 3 50 37 c66 50 187 100 253 106 47 4 56 2 80
-21 34 -32 72 -47 123 -47 50 0 79 15 79 40 0 18 -29 32 -120 58 l-35 10 43 1
c23 1 73 -7 110 -17 65 -18 102 -19 102 -2 0 16 -27 28 -102 46 l-78 18 35 12
c19 6 46 19 59 27 30 20 79 117 74 149 -3 20 -8 23 -45 21 -57 -2 -118 -36
-135 -73 -12 -29 -108 -101 -108 -82 0 5 15 26 34 48 39 46 51 93 42 159 -5
33 -12 45 -24 45 -39 -1 -94 -71 -112 -142 -10 -38 -9 -51 5 -78 l17 -32 -37
-38 c-43 -44 -115 -87 -115 -69 0 6 21 34 46 61 61 65 57 110 -8 83 -13 -5
-18 -2 -18 9 0 47 -95 -21 -135 -96 -27 -52 -60 -86 -72 -74 -3 3 9 26 26 52
17 26 31 56 31 66 0 36 -30 17 -55 -34 -40 -85 -62 -116 -95 -133 l-31 -16 7
36 c5 26 2 41 -10 54 -16 17 -15 20 10 50 24 28 27 61 6 61 -10 0 -101 -119
-132 -173 -13 -21 -24 -36 -27 -34 -9 9 26 185 46 228 19 42 46 67 59 55 2 -3
-5 -21 -17 -41 -25 -43 -28 -77 -6 -68 25 9 65 98 65 143 0 45 15 52 42 21 13
-15 25 -19 52 -14 23 4 42 0 57 -11 49 -34 122 -10 89 29 -15 18 -15 18 25 31
39 12 40 44 2 62 l-27 13 47 43 c35 32 45 47 40 60 -7 19 -36 18 -107 -1 -22
-6 -23 -5 -12 10 19 23 11 61 -13 65 -24 3 -85 -35 -100 -63 -6 -11 -30 -40
-54 -64 -36 -37 -49 -44 -84 -45 -36 -1 -44 -6 -63 -36 -33 -51 -128 -169
-137 -170 -13 0 76 150 126 213 16 21 66 66 111 100 44 33 101 82 126 108 25
26 61 52 81 58 41 13 84 54 74 70 -3 6 -24 11 -45 11 l-39 0 35 51 c60 89 38
127 -42 73 -34 -23 -39 -24 -50 -10 -31 43 -91 -19 -103 -108 -4 -31 -15 -64
-23 -73 -9 -10 -25 -39 -36 -64 -11 -26 -35 -70 -54 -98 l-35 -51 -6 77 c-4
60 -3 81 9 94 8 8 14 33 13 55 0 21 4 55 10 74 6 19 11 50 11 67 0 46 -24 43
-56 -8 -25 -41 -45 -49 -25 -11 16 29 14 63 -2 56 -9 -3 -18 9 -26 35 -6 22
-15 42 -20 45 -16 11 -49 -25 -56 -61 -7 -38 -7 -38 -22 -15 -31 46 -82 8 -62
-46 7 -18 2 -32 -22 -65 -17 -23 -36 -42 -42 -42 -18 0 -44 82 -32 99 47 64
50 71 49 131 -1 70 -22 138 -45 143 -8 1 -23 -6 -32 -16z m156 -363 c-6 -23
22 -69 42 -69 23 0 17 -29 -20 -100 -37 -72 -39 -70 -54 29 -6 36 -15 69 -21
75 -16 16 -12 37 16 74 27 35 47 30 37 -9z m-693 1 c0 -5 14 -16 30 -25 28
-14 30 -20 29 -68 0 -28 -4 -61 -8 -72 -7 -16 -14 -10 -48 44 -37 58 -39 66
-30 97 10 31 27 47 27 24z m124 -29 c3 -5 -3 -20 -14 -32 l-19 -24 -1 26 c0
35 20 53 34 30z m132 -106 c6 -26 -5 -51 -13 -27 -14 39 -83 -25 -83 -78 0
-12 -5 -40 -12 -62 l-11 -38 -29 52 c-41 73 -34 128 25 203 l42 53 37 -38 c21
-21 40 -50 44 -65z m261 27 l22 -17 -26 -42 c-31 -54 -48 -56 -39 -5 3 20 6
47 6 60 0 26 8 27 37 4z m-897 -7 c17 -20 11 -25 -18 -14 -13 5 -20 13 -17 19
9 14 21 12 35 -5z m1228 -78 l3 -86 -70 -133 -71 -133 -1 115 c-2 147 -2 144
31 211 34 67 78 121 94 116 7 -2 12 -37 14 -90z m152 19 l-32 -31 28 55 c24
47 29 52 32 31 3 -17 -6 -33 -28 -55z m-1071 -68 c10 -24 21 -58 25 -77 l6
-34 -40 44 c-24 27 -39 54 -40 70 0 15 -3 42 -6 60 l-7 34 22 -27 c12 -15 30
-46 40 -70z m717 -2 c30 -112 26 -271 -10 -416 -16 -63 -30 -117 -32 -119 -2
-2 -10 1 -17 7 -8 7 -36 13 -63 14 l-49 3 1 -42 1 -43 -39 6 c-21 4 -38 3 -38
0 0 -18 25 -54 58 -82 l36 -31 -32 -67 c-32 -66 -52 -84 -52 -47 0 30 -11 51
-26 51 -15 0 -18 -60 -5 -115 5 -22 1 -43 -16 -77 -36 -75 -46 -72 -39 13 12
132 28 211 73 369 25 85 46 157 48 159 2 2 11 -4 20 -13 28 -28 74 -20 111 20
52 55 43 74 -37 74 -66 0 -43 53 29 66 51 9 62 20 62 63 0 67 -51 83 -100 31
-24 -26 -32 -29 -54 -21 -24 10 -25 13 -19 63 6 56 26 102 75 179 29 45 31 46
62 37 30 -10 34 -16 52 -82z m-272 2 c22 -44 30 -76 34 -135 l5 -78 -21 19
c-43 38 -56 7 -65 -144 l-2 -45 -39 70 -39 69 28 83 c23 67 33 85 52 89 17 5
23 13 23 35 0 28 -30 69 -50 69 -5 0 -7 7 -3 16 12 32 47 10 77 -48z m-482
-90 c124 -147 117 -172 -12 -43 -92 93 -94 95 -64 95 26 0 40 -10 76 -52z
m217 -38 c0 -14 -4 -33 -8 -44 -5 -14 -10 -5 -19 34 -18 76 -16 90 8 60 11
-14 19 -36 19 -50z m136 40 c8 7 17 11 20 8 7 -6 -37 -118 -46 -118 -4 0 -20
15 -34 34 -22 29 -24 37 -14 59 10 22 14 24 35 15 17 -8 27 -8 39 2z m825 -9
c0 -14 -60 -54 -68 -46 -4 4 6 18 21 31 29 25 47 31 47 15z m-860 -160 c0 -3
-5 -35 -10 -70 -11 -81 -2 -133 51 -268 l42 -107 -13 -145 c-6 -80 -15 -152
-19 -159 -10 -19 -93 308 -121 477 -14 86 -19 303 -7 345 l8 29 35 -48 c19
-27 34 -51 34 -54z m-623 -77 c13 -4 29 -4 37 -1 8 3 17 -1 20 -9 9 -25 7
-124 -3 -124 -9 0 -115 117 -144 160 -9 13 -17 33 -17 44 0 16 8 12 42 -22 23
-24 52 -45 65 -48z m809 40 c11 -9 11 -25 -3 -97 -26 -135 -44 -112 -35 48 4
72 7 93 15 79 5 -11 16 -24 23 -30z m-700 9 c16 -21 19 -83 4 -83 -13 0 -30
43 -30 76 0 28 8 31 26 7z m-387 -42 c35 -51 36 -54 10 -41 -27 14 -79 60 -79
70 0 17 52 -5 69 -29z m997 -94 c20 -44 27 -80 27 -125 1 -96 -15 -98 -58 -6
-29 60 -38 96 -42 151 -3 40 -3 80 1 89 6 15 10 13 26 -14 11 -18 32 -60 46
-95z m-811 32 c38 -37 67 -71 64 -74 -3 -3 -44 13 -91 34 -68 31 -90 47 -107
76 -11 20 -21 39 -21 41 0 3 19 3 43 -1 34 -6 54 -19 112 -76z m1320 25 c-35
-51 -62 -148 -75 -271 -10 -94 -18 -122 -63 -213 -17 -35 -18 -34 -13 78 4 69
2 112 -4 112 -28 0 12 158 57 227 38 58 115 132 120 116 2 -6 -8 -28 -22 -49z
m779 -7 c-9 -25 -154 -85 -154 -64 0 10 143 86 152 81 4 -3 5 -10 2 -17z
m-2312 -23 c14 -8 75 -34 135 -60 113 -48 213 -102 213 -117 0 -4 -19 3 -42
17 -24 13 -72 30 -108 36 -105 18 -207 48 -270 80 -63 32 -79 48 -60 60 17 10
99 0 132 -16z m1553 -91 c-5 -66 -14 -111 -28 -140 -12 -24 -24 -43 -27 -43
-13 0 11 168 31 223 12 31 24 57 26 57 3 0 2 -44 -2 -97z m-1065 0 c35 -40 67
-73 71 -73 4 0 26 -37 49 -82 22 -46 65 -112 96 -148 78 -91 87 -112 92 -210
2 -47 2 -83 -1 -80 -3 3 -34 46 -69 95 -112 159 -142 214 -158 295 -12 59 -19
76 -34 78 -17 4 -18 -1 -13 -37 3 -23 4 -41 3 -41 -2 0 -28 37 -59 83 -40 59
-57 95 -62 129 -6 47 -1 72 15 66 4 -2 36 -36 70 -75z m-717 42 c18 -11 27
-12 47 -2 21 11 32 8 85 -19 33 -18 88 -41 122 -52 75 -25 103 -39 103 -54 0
-19 -119 -1 -190 28 -65 26 -210 102 -210 110 0 9 22 3 43 -11z m2107 -73 c0
-4 -39 -46 -86 -92 -94 -92 -172 -192 -224 -283 -18 -32 -35 -56 -38 -53 -6 6
55 131 130 266 52 92 55 96 123 132 69 37 95 45 95 30z m-1971 -48 c2 -2 -7
-4 -20 -4 -13 1 -37 12 -54 26 l-30 25 50 -22 c28 -12 52 -23 54 -25z m808 19
c29 -40 55 -93 51 -105 -4 -11 -88 104 -88 121 0 19 16 12 37 -16z m933 -1 c0
-22 -34 -56 -50 -50 -11 3 29 68 43 68 4 0 7 -8 7 -18z m-986 -36 c59 -73 172
-228 186 -256 21 -42 88 -330 97 -415 7 -74 0 -69 -60 45 -43 82 -45 89 -50
192 -7 122 -14 142 -93 234 -59 70 -118 178 -110 200 7 18 16 18 30 0z m-478
-61 c8 -8 23 -19 32 -24 9 -5 14 -12 11 -16 -8 -7 -137 43 -146 58 -10 16 86
0 103 -18z m1456 -7 c-97 -162 -144 -261 -148 -311 -2 -35 -33 -113 -113 -292
-15 -33 -40 -97 -56 -142 -45 -132 -55 -109 -31 72 19 145 49 241 125 406 78
169 117 229 173 270 56 40 76 39 50 -3z m-1209 -12 c46 -46 81 -96 67 -96 -21
0 -157 105 -152 118 7 23 51 12 85 -22z m1487 -4 c0 -4 -15 -16 -33 -25 -19
-10 -45 -29 -60 -43 -25 -23 -134 -70 -143 -62 -7 8 78 99 111 119 30 19 125
27 125 11z m-1554 -52 c66 -46 53 -54 -27 -15 -87 42 -91 45 -50 45 20 0 50
-12 77 -30z m1600 -2 c24 -11 26 -16 20 -56 -13 -93 -108 -237 -173 -263 -53
-21 -223 -66 -223 -60 0 4 19 20 41 37 23 16 53 41 68 55 14 15 36 30 49 34
23 7 31 34 10 36 -18 2 -21 1 -39 -6 -12 -5 -18 2 -22 24 -6 26 -11 31 -37 31
-62 0 -18 35 102 80 48 17 57 18 93 6 40 -14 51 -12 89 17 15 11 17 17 7 35
-6 12 -19 22 -27 22 -8 0 -12 5 -9 10 8 13 18 13 51 -2z m-723 -133 c-3 -39 0
-124 6 -187 12 -112 6 -243 -9 -233 -15 9 -53 150 -53 195 0 25 5 63 11 85 15
54 6 105 -19 105 -18 0 -18 3 7 53 51 101 65 96 57 -18z m97 53 c-1 -52 -19
-180 -31 -217 -18 -53 -29 -19 -29 90 0 131 6 159 36 159 20 0 24 -5 24 -32z
m-777 -40 c20 -28 35 -53 32 -56 -5 -5 -107 85 -113 100 -2 5 7 8 20 8 16 0
34 -15 61 -52z m1787 -7 c0 -4 -21 -14 -46 -21 -40 -12 -45 -16 -40 -36 5 -20
2 -25 -21 -29 -58 -12 -200 -48 -241 -61 -69 -22 -80 -19 -48 15 37 39 101 66
243 102 64 16 119 31 121 34 9 8 32 6 32 -4z m-1985 -41 c138 -20 237 -63 304
-134 44 -46 33 -57 -25 -26 -34 19 -48 22 -61 14 -13 -8 -26 -7 -51 3 -46 19
-95 9 -87 -18 5 -16 1 -19 -22 -19 -21 0 -33 8 -47 31 -10 17 -40 60 -67 95
-54 71 -56 70 56 54z m736 -184 c-17 -16 -33 -28 -35 -25 -3 3 9 34 26 70 l32
64 4 -39 c3 -33 -2 -44 -27 -70z m482 63 c12 -7 24 -13 26 -15 2 -2 -27 -38
-64 -79 -37 -42 -70 -74 -72 -71 -6 6 75 176 83 176 3 0 15 -5 27 -11z m-429
-145 c4 -37 1 -65 -13 -105 -19 -58 -88 -199 -96 -199 -3 0 -5 62 -5 138 l0
137 47 52 c52 59 57 57 67 -23z m-362 -39 c81 -113 134 -225 154 -323 9 -46
14 -86 11 -89 -9 -8 -137 103 -190 165 -61 70 -72 96 -87 196 -7 44 -16 90
-20 102 -11 29 -3 36 40 32 31 -3 41 -12 92 -83z m-252 65 c0 -5 -4 -10 -9
-10 -6 0 -13 5 -16 10 -3 6 1 10 9 10 9 0 16 -4 16 -10z m1126 -14 c-10 -6
-64 -45 -120 -86 -131 -98 -131 -98 -116 -70 19 36 89 108 127 131 38 24 115
50 123 42 3 -3 -3 -10 -14 -17z m-1028 -51 c7 -22 12 -59 10 -82 l-3 -43 -47
64 c-62 83 -65 93 -36 99 49 10 63 3 76 -38z m1104 -32 c-17 -21 -42 -69 -56
-108 -42 -111 -65 -158 -94 -191 -47 -55 -294 -257 -302 -248 -17 18 40 235
86 326 30 59 38 64 70 39 29 -23 65 -27 95 -11 28 15 23 45 -12 73 l-30 24 53
40 c95 73 130 89 196 92 23 1 23 1 -6 -36z m-1161 -71 c-15 -5 -62 18 -68 34
-12 32 19 32 47 0 16 -17 25 -32 21 -34z m624 -78 c21 -157 19 -344 -4 -441
-20 -84 -77 -239 -91 -248 -26 -16 -58 386 -40 499 6 39 29 109 54 165 24 53
47 106 51 119 4 13 9 22 11 19 3 -2 11 -53 19 -113z m-1010 45 c-22 -10 -48
-19 -58 -19 -32 0 -12 25 24 31 64 12 75 8 34 -12z m447 -55 c20 -14 47 -42
61 -62 13 -20 68 -83 121 -140 109 -117 131 -153 146 -243 15 -94 25 -416 12
-404 -5 6 -25 46 -43 90 -26 64 -32 96 -34 157 -2 83 -19 118 -56 118 -20 0
-45 44 -94 160 -48 115 -106 223 -156 293 -27 37 -49 69 -49 72 0 9 55 -16 92
-41z m1556 25 c-10 -30 -248 -89 -248 -62 0 14 43 32 125 53 81 22 128 25 123
9z m-328 -73 c0 -7 -200 -116 -213 -116 -14 0 31 39 82 72 47 30 131 59 131
44z m276 -67 c38 -11 73 -25 79 -30 12 -12 -38 -12 -109 2 -76 14 -109 27
-101 39 10 16 57 12 131 -11z m-2126 -16 c80 -23 180 -64 180 -74 0 -5 -17 -9
-37 -9 -21 0 -62 -3 -91 -7 -49 -5 -54 -4 -52 13 4 36 0 43 -30 59 -19 10 -57
15 -107 15 -47 0 -73 4 -67 9 24 24 108 21 204 -6z m1935 -2 c-12 -10 -135
-41 -165 -41 -37 0 -20 17 33 33 56 17 147 23 132 8z m-248 -136 l22 -44 -31
-6 c-17 -4 -65 -4 -107 0 l-76 7 30 23 c24 20 117 63 135 64 3 0 15 -20 27
-44z m-324 -429 c3 -7 -5 -29 -18 -47 -12 -19 -52 -80 -89 -136 -58 -89 -154
-193 -179 -193 -10 0 -1 73 20 155 21 85 59 161 93 185 61 44 162 65 173 36z
m88 -56 c33 0 21 -17 -24 -34 -24 -9 -53 -25 -65 -36 -46 -43 -43 -17 4 39 23
26 42 40 51 37 8 -3 23 -6 34 -6z m49 -70 c0 -5 -6 -10 -12 -10 -7 0 -31 -3
-53 -6 -38 -5 -39 -4 -21 10 22 18 86 22 86 6z m-1210 -55 c32 -17 42 -42 13
-30 -10 4 -30 12 -45 17 -16 5 -25 14 -22 19 7 13 21 11 54 -6z m211 -60 c16
-4 27 -11 23 -16 -7 -12 -66 -11 -120 2 -86 22 4 34 97 14z"/>
</g>
</svg>