<?xml version="1.0" standalone="no"?>
<!DOCTYPE svg PUBLIC "-//W3C//DTD SVG 20010904//EN"
 "http://www.w3.org/TR/2001/REC-SVG-20010904/DTD/svg10.dtd">
<svg version="1.0" xmlns="http://www.w3.org/2000/svg"
 width="512.000000pt" height="512.000000pt" viewBox="0 0 512.000000 512.000000"
 preserveAspectRatio="xMidYMid meet">
<metadata>
Created by potrace 1.16, written by Peter Selinger 2001-2019
</metadata>
<g transform="translate(0.000000,512.000000) scale(0.100000,-0.100000)"
fill="#000000" stroke="none">
<path d="M1203 5050 c0 -36 2 -50 4 -32 2 17 2 47 0 65 -2 17 -4 3 -4 -33z"/>
<path d="M2903 4420 l-2 -695 -34 -22 c-54 -34 -121 -107 -142 -154 -11 -24
-22 -46 -26 -49 -3 -3 -12 -23 -19 -45 l-13 -40 -10 29 c-7 20 -6 50 3 96 12
64 12 70 -11 115 -13 26 -38 60 -56 76 -34 29 -79 47 -90 35 -4 -3 -2 -42 4
-86 11 -85 40 -152 79 -183 32 -25 54 -79 54 -131 -1 -49 -53 -229 -68 -234
-8 -2 -12 50 -15 175 l-2 178 -3 -177 c-2 -174 -2 -177 -24 -181 -14 -3 -9 -5
15 -6 46 -1 49 -21 3 -21 -32 0 -36 3 -54 53 -11 28 -23 68 -27 87 -4 19 -16
53 -28 75 -58 115 -119 155 -303 201 -76 19 -139 36 -141 38 -2 2 19 22 46 45
72 61 128 131 135 171 5 32 4 31 -10 -9 -11 -30 -42 -69 -97 -122 -84 -84 -97
-89 -166 -69 -44 12 -51 6 -14 -14 18 -9 42 -38 61 -75 98 -183 215 -272 402
-302 44 -8 76 -19 86 -30 17 -18 14 -19 -60 -19 -55 0 -75 -3 -70 -11 4 -8 32
-10 80 -7 55 4 77 1 85 -9 9 -11 -3 -13 -68 -13 -67 0 -85 4 -108 22 l-28 21
-580 -2 c-536 -2 -579 -1 -573 14 3 9 6 21 6 26 0 5 13 9 29 9 21 0 32 6 36
20 3 11 18 22 33 25 15 4 44 11 64 17 21 6 66 8 105 5 87 -7 136 7 168 49 14
18 30 38 37 46 51 55 61 68 48 63 -8 -4 -38 -35 -67 -69 -63 -76 -96 -88 -198
-77 -52 6 -77 5 -97 -5 -15 -8 -38 -14 -51 -14 -13 0 -34 -11 -47 -25 -13 -14
-35 -25 -49 -26 -14 0 -35 -5 -46 -10 -19 -9 -18 -9 3 -5 23 4 26 -1 16 -28
-5 -14 -46 -16 -357 -16 l-350 0 24 28 24 27 -31 -27 -30 -28 -192 0 c-128 0
-192 -4 -192 -11 0 -11 2100 -5 2157 7 69 14 145 -25 207 -104 11 -15 -3 -6
-33 20 -64 57 -108 73 -182 63 -30 -4 -526 -10 -1104 -14 -853 -5 -943 -7
-477 -9 540 -2 573 -3 570 -19 -2 -10 -10 -17 -17 -15 -15 3 -2 -22 45 -88 37
-52 32 -73 -16 -63 -15 3 -38 -1 -51 -8 -62 -32 -166 -129 -240 -222 -45 -56
-105 -127 -133 -157 -35 -38 -39 -44 -12 -20 21 19 85 92 142 161 99 122 177
194 196 183 5 -3 7 0 6 8 -2 7 14 21 34 31 46 23 98 16 98 -13 0 -35 89 -190
126 -221 9 -7 -4 16 -28 51 -72 105 -91 149 -85 195 5 35 2 46 -28 84 -37 46
-39 52 -29 89 6 22 7 22 219 22 161 0 215 -3 218 -12 4 -10 6 -10 6 0 1 16
421 18 421 2 0 -6 12 -15 27 -21 15 -5 52 -25 83 -44 31 -19 102 -47 159 -64
120 -34 151 -58 201 -153 27 -51 34 -76 41 -162 4 -55 8 -123 9 -150 l0 -50
-32 31 c-43 41 -87 62 -153 74 -66 12 -85 4 -52 -21 14 -11 30 -40 37 -67 30
-109 99 -205 189 -264 30 -19 39 -77 40 -266 1 -116 -1 -132 -15 -126 -9 3
-29 -4 -47 -17 -24 -18 -42 -23 -83 -21 -46 2 -55 -1 -69 -22 -19 -30 -52 -37
-205 -43 -139 -6 -512 18 -517 33 -2 6 -10 19 -18 29 -14 18 -16 18 -39 -8
-23 -26 -32 -28 -161 -39 l-136 -13 -31 32 c-27 26 -30 34 -21 54 14 31 -3 68
-32 68 -12 0 -34 -9 -49 -21 -18 -14 -37 -20 -55 -17 -23 3 -32 -1 -46 -24 -9
-15 -34 -37 -55 -47 -48 -23 -175 -38 -185 -22 -3 6 11 48 33 94 67 142 75
169 67 246 -7 76 -2 93 46 149 16 18 29 39 29 47 0 8 38 34 88 60 71 36 94 54
126 97 l38 53 -50 -55 c-38 -42 -70 -65 -131 -94 -45 -21 -81 -44 -81 -51 0
-7 -3 -15 -7 -17 -5 -1 -21 -20 -36 -41 -35 -47 -60 -129 -52 -169 5 -19 1
-44 -8 -67 -9 -20 -18 -48 -21 -62 -3 -14 -18 -42 -34 -61 -15 -20 -39 -56
-52 -81 -20 -37 -30 -46 -60 -52 -19 -3 -182 -8 -362 -12 -181 -3 -328 -9
-328 -14 0 -5 127 -10 282 -12 l283 -2 -282 -3 -283 -2 0 -36 0 -36 298 3
c163 1 305 0 314 -2 10 -3 30 -17 45 -31 26 -23 158 -66 170 -54 2 2 -24 14
-59 25 -35 12 -81 35 -102 51 l-40 30 51 0 c43 0 54 4 70 25 18 24 20 24 241
31 l222 7 -2 -24 -3 -24 105 1 c58 1 269 4 469 7 200 3 373 2 385 -2 20 -8 20
-8 -4 -21 -14 -7 -35 -21 -46 -32 -12 -10 -34 -23 -50 -28 l-29 -8 31 -1 c30
-1 107 40 133 72 11 14 33 17 135 17 l121 0 -77 -73 c-60 -56 -78 -79 -78
-100 0 -41 -35 -124 -69 -162 -17 -20 -31 -40 -31 -45 0 -6 -8 -10 -17 -10
-15 0 -14 -2 3 -15 12 -8 24 -29 27 -48 9 -55 84 -238 127 -310 22 -36 40 -70
40 -74 0 -4 -38 -32 -85 -61 -47 -29 -87 -58 -90 -63 -6 -9 23 7 128 69 56 33
59 33 73 16 14 -18 15 -18 9 2 -5 19 10 30 111 88 65 36 119 64 122 62 2 -3 4
-51 3 -108 0 -95 1 -106 26 -140 24 -35 44 -54 27 -26 -5 7 -7 26 -7 43 1 28
1 29 -6 5 l-7 -25 -9 25 c-5 14 -9 68 -9 120 l-1 95 53 -54 c28 -29 52 -59 52
-65 0 -6 9 -30 21 -51 11 -22 27 -68 34 -101 7 -34 23 -80 34 -103 29 -55 28
-105 -1 -118 -42 -20 -108 -85 -123 -120 -21 -51 -18 -54 8 -8 23 41 102 108
120 102 13 -4 10 1 91 -167 36 -74 65 -132 66 -129 0 3 -23 66 -51 140 -31 81
-53 158 -56 194 -4 33 -14 79 -25 103 -17 40 -26 152 -12 152 3 0 18 -8 32
-18 77 -53 68 -38 -13 23 -54 41 -65 54 -65 79 0 33 -28 84 -77 139 -26 29
-32 44 -27 60 3 12 8 24 10 26 8 9 92 -22 164 -60 41 -22 64 -31 50 -19 -21
17 -73 44 -210 109 -8 4 -22 21 -30 37 -8 16 -30 53 -49 83 -29 48 -33 61 -28
104 6 70 15 75 87 44 33 -15 60 -24 60 -22 0 3 -31 20 -69 39 l-68 35 7 41 c4
22 10 43 12 46 3 2 26 -4 52 -15 60 -26 59 -18 -2 13 -27 13 -54 31 -60 39
-20 23 -24 70 -10 90 13 18 19 15 106 -45 50 -35 117 -85 149 -111 53 -44 163
-113 163 -103 0 2 -23 18 -51 36 -28 17 -83 59 -123 93 -39 34 -101 81 -138
105 -66 43 -102 92 -81 113 6 6 139 6 356 2 303 -7 350 -6 363 7 13 13 126 15
874 18 l860 2 0 25 c0 28 -7 29 -97 16 -36 -5 -53 -4 -53 3 0 6 -4 5 -9 -3
-11 -17 -83 -8 -114 14 -12 8 -31 15 -43 15 -12 0 -33 9 -47 20 -31 25 -40 25
-119 0 l-63 -20 -18 23 c-31 39 -97 176 -91 191 3 8 -2 38 -10 67 -21 70 -21
69 19 129 19 29 35 63 35 76 0 16 17 43 46 74 36 38 45 55 41 72 -3 13 -9 34
-12 48 -5 18 0 34 14 52 22 28 86 43 381 88 124 19 169 30 126 30 -10 0 -126
-18 -258 -40 -158 -27 -245 -37 -251 -31 -6 6 -3 28 11 63 12 29 26 72 32 96
6 23 20 57 30 75 11 19 22 56 25 83 l5 49 -13 -56 c-7 -30 -22 -68 -34 -82
-12 -15 -24 -47 -28 -70 -4 -23 -14 -58 -22 -77 -9 -19 -18 -51 -22 -70 -6
-31 -13 -38 -61 -58 -50 -21 -40 -24 18 -7 19 6 22 4 22 -18 0 -14 5 -37 11
-51 11 -23 7 -30 -34 -76 -25 -28 -49 -65 -52 -83 -4 -17 -20 -59 -36 -92 -29
-62 -32 -102 -10 -143 7 -13 9 -36 6 -55 -5 -27 -1 -40 18 -63 13 -16 34 -48
45 -71 12 -23 26 -44 32 -48 5 -3 10 -13 10 -21 0 -25 -65 -17 -100 13 l-32
27 -27 -31 c-21 -25 -36 -33 -76 -37 -27 -4 -71 -9 -97 -12 -38 -5 -49 -3 -54
10 -5 13 -23 16 -95 16 -61 0 -89 4 -89 12 0 7 -7 5 -17 -4 -21 -18 -205 -31
-463 -32 -98 -1 -170 -6 -195 -14 -29 -10 -91 -13 -222 -10 -172 3 -183 4
-205 26 -14 12 -30 22 -38 22 -7 0 -26 14 -40 32 -25 30 -30 31 -54 20 -21 -9
-32 -9 -61 5 -41 20 -40 14 -60 206 -20 192 -20 313 1 352 24 47 74 108 112
138 34 26 38 27 172 27 147 0 193 -10 262 -55 39 -26 68 -32 68 -15 0 24 -45
96 -88 142 -66 71 -120 99 -197 106 -85 6 -160 -27 -193 -87 -12 -21 -22 -44
-22 -51 0 -7 -29 -44 -65 -81 -36 -38 -65 -75 -65 -82 0 -8 -4 -7 -10 3 -5 8
-10 54 -10 101 0 149 54 271 155 354 43 35 50 38 118 40 94 2 161 32 247 110
99 88 101 89 357 93 l221 4 5 -24 c4 -23 4 -23 6 0 l1 22 521 0 521 0 -7 -27
c-22 -85 -31 -132 -25 -128 4 3 11 22 15 42 3 21 11 55 17 75 l11 38 186 3
c102 1 -229 3 -736 5 -507 1 -924 6 -927 11 -7 10 206 22 326 18 48 -2 93 0
100 5 7 5 -95 8 -227 7 -203 -1 -248 1 -292 16 -37 12 -75 16 -126 13 -62 -3
-82 -8 -126 -36 -52 -32 -53 -32 -182 -32 -108 0 -129 2 -129 15 0 13 23 15
145 15 l145 0 0 128 0 129 50 32 c99 64 146 138 217 341 58 163 61 180 36 180
-21 0 -189 -81 -260 -125 l-43 -26 0 285 0 285 23 12 c12 7 55 42 95 78 40 36
82 69 95 73 15 4 16 6 5 7 -9 1 -19 11 -21 24 -4 20 -4 20 -6 -4 -1 -18 -20
-43 -68 -85 -36 -32 -78 -67 -92 -76 l-26 -18 -5 378 c-5 314 -6 261 -7 -318z
m-304 -734 c17 -21 31 -42 31 -45 0 -3 -7 2 -14 11 -7 10 -16 15 -19 11 -4 -3
-9 2 -13 11 -3 9 -12 16 -19 16 -7 0 -16 7 -19 16 -18 47 7 38 53 -20z m411
11 c0 -2 -10 -12 -22 -23 l-23 -19 19 23 c18 21 26 27 26 19z m-103 -239 c-3
-7 -5 -2 -5 12 0 14 2 19 5 13 2 -7 2 -19 0 -25z m-517 -118 c6 -11 7 -20 2
-20 -9 0 -52 46 -52 55 0 12 40 -17 50 -35z m510 -90 l0 -120 -135 0 c-122 0
-135 2 -135 18 0 22 17 83 42 154 l20 56 72 -5 c39 -3 82 0 96 5 14 6 28 11
33 11 4 1 7 -53 7 -119z m-530 35 c13 -14 21 -25 18 -25 -2 0 -15 11 -28 25
-13 14 -21 25 -18 25 2 0 15 -11 28 -25z m755 -165 c-11 -5 -40 -9 -65 -9 -87
-2 -196 -72 -259 -167 -16 -25 -49 -60 -73 -78 -52 -41 -102 -101 -129 -159
l-20 -42 5 125 c2 69 10 162 17 208 l12 83 143 -2 c96 -1 148 2 157 10 29 23
94 40 162 40 48 0 64 -3 50 -9z m-555 -52 c0 -13 -3 -41 -7 -63 l-6 -40 -18
50 c-24 68 -23 75 6 75 19 0 25 -5 25 -22z m-372 5 c-16 -2 -40 -2 -55 0 -16
2 -3 4 27 4 30 0 43 -2 28 -4z m298 -30 c25 -59 46 -184 39 -232 l-7 -44 -18
39 c-10 21 -30 54 -44 73 -14 19 -26 41 -26 48 0 20 -35 86 -65 122 l-27 31
67 0 66 0 15 -37z m-396 17 c0 -5 -2 -10 -4 -10 -3 0 -8 5 -11 10 -3 6 -1 10
4 10 6 0 11 -4 11 -10z m67 -6 c-3 -3 -12 -4 -19 -1 -8 3 -5 6 6 6 11 1 17 -2
13 -5z m743 -37 c0 -2 -12 -14 -27 -28 l-28 -24 24 28 c23 25 31 32 31 24z
m-642 -14 c-15 -2 -42 -2 -60 0 -18 2 -6 4 27 4 33 0 48 -2 33 -4z m863 -440
c13 -16 12 -17 -3 -4 -17 13 -22 21 -14 21 2 0 10 -8 17 -17z m-91 -18 c-14
-17 -25 -20 -15 -6 3 5 -9 12 -27 14 -28 3 -26 4 11 5 38 2 42 0 31 -13z m-86
-1 c34 -13 13 -24 -44 -22 -33 1 -60 3 -60 5 0 3 60 21 77 22 6 1 18 -2 27 -5z
m-475 -107 c8 -10 7 -14 -2 -14 -8 0 -14 6 -14 14 0 7 1 13 2 13 2 0 8 -6 14
-13z m36 -884 c4 -31 16 -90 26 -131 23 -87 16 -127 -35 -177 -17 -17 -46 -51
-65 -74 -30 -38 -31 -42 -10 -30 13 7 27 12 32 11 4 -1 7 4 7 11 0 7 16 28 35
47 28 27 37 31 49 21 20 -17 48 -114 40 -138 -6 -15 -4 -16 7 -5 20 19 27 15
49 -28 27 -53 26 -63 -14 -94 -68 -51 -239 -167 -242 -163 -9 8 -123 257 -142
307 -11 31 -23 76 -27 100 -6 42 -4 47 29 79 36 35 76 121 76 164 0 30 149
180 166 166 6 -5 15 -35 19 -66z"/>
<path d="M1416 5015 c4 -8 8 -15 10 -15 2 0 4 7 4 15 0 8 -4 15 -10 15 -5 0
-7 -7 -4 -15z"/>
<path d="M870 5005 c0 -2 10 -10 23 -16 20 -11 21 -11 8 4 -13 16 -31 23 -31
12z"/>
<path d="M984 4988 l-19 -23 23 19 c21 18 27 26 19 26 -2 0 -12 -10 -23 -22z"/>
<path d="M2642 4980 c0 -14 2 -19 5 -12 2 6 2 18 0 25 -3 6 -5 1 -5 -13z"/>
<path d="M4900 4975 c-14 -8 -20 -14 -14 -15 5 0 19 7 30 15 24 18 16 19 -16
0z"/>
<path d="M3160 4965 c-14 -8 -20 -14 -15 -14 6 0 21 6 35 14 14 8 21 14 15 14
-5 0 -21 -6 -35 -14z"/>
<path d="M1193 4910 c0 -30 2 -43 4 -27 2 15 2 39 0 55 -2 15 -4 2 -4 -28z"/>
<path d="M4795 4923 c-38 -20 -110 -53 -158 -74 -48 -21 -110 -51 -136 -68
-49 -29 -188 -75 -215 -69 -17 4 -164 -110 -207 -161 -17 -20 -77 -83 -133
-141 -55 -58 -110 -116 -120 -130 -17 -23 16 11 231 233 84 87 155 148 178
151 9 1 20 7 23 12 4 5 43 18 87 29 57 14 142 50 295 128 186 95 248 128 230
127 -3 -1 -36 -17 -75 -37z"/>
<path d="M3094 4927 c-3 -8 -3 -54 -2 -103 l3 -89 5 103 c5 101 4 114 -6 89z"/>
<path d="M4075 4878 l-50 -53 53 50 c48 46 57 55 49 55 -1 0 -25 -24 -52 -52z"/>
<path d="M879 4883 c-13 -16 -12 -17 4 -4 9 7 17 15 17 17 0 8 -8 3 -21 -13z"/>
<path d="M1681 4874 c0 -11 3 -14 6 -6 3 7 2 16 -1 19 -3 4 -6 -2 -5 -13z"/>
<path d="M2603 4855 c0 -22 2 -30 4 -17 2 12 2 30 0 40 -3 9 -5 -1 -4 -23z"/>
<path d="M3770 4875 c-6 -8 -10 -19 -8 -26 2 -6 9 0 16 15 13 29 10 33 -8 11z"/>
<path d="M5050 4815 c-24 -25 -42 -45 -39 -45 3 0 25 20 49 45 24 25 42 45 39
45 -3 0 -25 -20 -49 -45z"/>
<path d="M839 4833 c-13 -16 -12 -17 4 -4 9 7 17 15 17 17 0 8 -8 3 -21 -13z"/>
<path d="M1239 4813 c-13 -16 -12 -17 4 -4 16 13 21 21 13 21 -2 0 -10 -8 -17
-17z"/>
<path d="M804 4778 c-9 -17 -39 -57 -67 -87 l-51 -56 50 48 c45 43 105 127 90
127 -3 0 -13 -14 -22 -32z"/>
<path d="M1182 4746 c-2 -51 0 -47 -110 -193 -13 -18 -22 -33 -19 -33 3 0 35
40 72 89 63 86 66 92 62 138 l-3 48 -2 -49z"/>
<path d="M2592 4729 c-1 -27 -8 -52 -17 -59 -8 -7 -15 -20 -15 -30 0 -16 -60
-98 -142 -194 -23 -27 -56 -68 -71 -90 -16 -23 -40 -51 -54 -64 -23 -23 -24
-27 -17 -108 8 -96 -4 -152 -47 -230 -16 -28 -29 -57 -29 -64 0 -21 66 114 80
163 9 32 11 75 6 131 -5 76 -4 85 15 102 11 10 37 41 57 69 20 27 54 71 76 96
74 83 136 168 136 185 0 10 7 25 16 35 10 12 14 31 11 60 l-4 44 -1 -46z"/>
<path d="M2519 4693 c-13 -16 -12 -17 4 -4 9 7 17 15 17 17 0 8 -8 3 -21 -13z"/>
<path d="M2479 4643 l-24 -28 28 24 c25 23 32 31 24 31 -2 0 -14 -12 -28 -27z"/>
<path d="M4165 4578 l-70 -73 73 70 c67 64 77 75 69 75 -1 0 -34 -33 -72 -72z"/>
<path d="M664 4608 l-19 -23 23 19 c12 11 22 21 22 23 0 8 -8 2 -26 -19z"/>
<path d="M4340 4555 c-41 -41 -72 -75 -69 -75 2 0 38 34 79 75 41 41 72 75 69
75 -2 0 -38 -34 -79 -75z"/>
<path d="M2395 4543 c-33 -38 -49 -59 -36 -48 26 22 105 115 99 115 -3 0 -31
-30 -63 -67z"/>
<path d="M3371 4580 c-13 -11 -19 -20 -14 -20 6 0 18 9 28 20 23 25 17 25 -14
0z"/>
<path d="M3318 4553 c7 -3 16 -2 19 1 4 3 -2 6 -13 5 -11 0 -14 -3 -6 -6z"/>
<path d="M3260 4540 c-18 -12 -2 -12 25 0 13 6 15 9 5 9 -8 0 -22 -4 -30 -9z"/>
<path d="M3604 4508 l-19 -23 23 19 c21 18 27 26 19 26 -2 0 -12 -10 -23 -22z"/>
<path d="M431 4515 c0 -5 6 -21 14 -35 8 -14 14 -20 14 -15 0 6 -6 21 -14 35
-8 14 -14 21 -14 15z"/>
<path d="M1030 4495 c-7 -9 -11 -17 -9 -20 3 -2 10 5 17 15 14 24 10 26 -8 5z"/>
<path d="M2304 4438 l-29 -33 33 29 c30 28 37 36 29 36 -2 0 -16 -15 -33 -32z"/>
<path d="M1012 4435 c0 -16 2 -22 5 -12 2 9 2 23 0 30 -3 6 -5 -1 -5 -18z"/>
<path d="M446 4424 c-18 -25 -18 -25 3 -12 12 7 21 18 21 25 0 18 -2 16 -24
-13z"/>
<path d="M2589 4433 c-13 -16 -12 -17 4 -4 9 7 17 15 17 17 0 8 -8 3 -21 -13z"/>
<path d="M3754 4418 l-19 -23 23 19 c12 11 22 21 22 23 0 8 -8 2 -26 -19z"/>
<path d="M4399 4423 c-13 -16 -12 -17 4 -4 16 13 21 21 13 21 -2 0 -10 -8 -17
-17z"/>
<path d="M2540 4370 c-17 -22 -29 -40 -27 -40 3 0 20 18 37 40 17 22 29 40 27
40 -3 0 -20 -18 -37 -40z"/>
<path d="M996 4383 c-6 -14 -5 -15 5 -6 7 7 10 15 7 18 -3 3 -9 -2 -12 -12z"/>
<path d="M4329 4343 l-34 -38 38 34 c20 19 37 36 37 38 0 8 -8 0 -41 -34z"/>
<path d="M431 4344 c0 -11 3 -14 6 -6 3 7 2 16 -1 19 -3 4 -6 -2 -5 -13z"/>
<path d="M981 4336 c0 -16 -9 -39 -18 -50 -17 -21 -17 -21 6 0 16 15 21 29 18
50 l-4 29 -2 -29z"/>
<path d="M4644 4338 l-19 -23 23 19 c12 11 22 21 22 23 0 8 -8 2 -26 -19z"/>
<path d="M467 4265 c9 -19 18 -33 21 -31 4 5 -26 66 -33 66 -3 0 3 -16 12 -35z"/>
<path d="M4220 4223 c-139 -144 -184 -193 -179 -193 3 0 63 61 133 135 70 74
126 135 124 135 -2 0 -37 -35 -78 -77z"/>
<path d="M1450 4248 c-12 -22 -12 -22 6 -6 10 10 15 20 12 24 -4 3 -12 -5 -18
-18z"/>
<path d="M2725 4259 c-11 -17 1 -21 15 -4 8 9 8 15 2 15 -6 0 -14 -5 -17 -11z"/>
<path d="M3484 4238 l-29 -33 33 29 c17 17 32 31 32 33 0 8 -8 1 -36 -29z"/>
<path d="M900 4215 c-24 -25 -42 -45 -39 -45 3 0 25 20 49 45 24 25 42 45 39
45 -3 0 -25 -20 -49 -45z"/>
<path d="M3779 4218 c-17 -24 -18 -29 -6 -19 18 14 42 51 33 51 -3 0 -15 -15
-27 -32z"/>
<path d="M3140 4153 l-65 -68 68 65 c62 60 72 70 64 70 -1 0 -32 -30 -67 -67z"/>
<path d="M3714 4149 c-10 -11 -32 -26 -49 -33 -17 -7 -51 -31 -76 -53 -26 -22
-74 -50 -108 -63 -34 -12 -60 -25 -57 -27 10 -10 132 50 168 83 22 20 54 42
72 49 27 12 88 65 74 65 -3 0 -13 -9 -24 -21z"/>
<path d="M511 4155 c0 -5 6 -21 14 -35 8 -14 14 -20 14 -15 0 6 -6 21 -14 35
-8 14 -14 21 -14 15z"/>
<path d="M40 4094 c-38 -47 -46 -64 -33 -64 11 1 75 89 71 99 -2 5 -19 -11
-38 -35z"/>
<path d="M3819 4103 c-13 -16 -12 -17 4 -4 16 13 21 21 13 21 -2 0 -10 -8 -17
-17z"/>
<path d="M2679 4083 c-13 -16 -12 -17 4 -4 9 7 17 15 17 17 0 8 -8 3 -21 -13z"/>
<path d="M763 4049 c-40 -28 -55 -60 -34 -73 4 -3 6 5 4 17 -4 18 4 29 36 50
23 15 41 29 41 32 0 7 -2 7 -47 -26z"/>
<path d="M1833 4045 c0 -22 2 -30 4 -17 2 12 2 30 0 40 -3 9 -5 -1 -4 -23z"/>
<path d="M4420 3993 l-85 -88 88 85 c48 46 87 86 87 87 0 8 -11 -3 -90 -84z"/>
<path d="M551 4040 c0 -8 4 -22 9 -30 12 -18 12 -2 0 25 -6 13 -9 15 -9 5z"/>
<path d="M390 4005 c19 -19 36 -35 39 -35 3 0 -10 16 -29 35 -19 19 -36 35
-39 35 -3 0 10 -16 29 -35z"/>
<path d="M1971 3994 c0 -11 3 -14 6 -6 3 7 2 16 -1 19 -3 4 -6 -2 -5 -13z"/>
<path d="M4789 3973 l-34 -38 38 34 c20 19 37 36 37 38 0 8 -8 0 -41 -34z"/>
<path d="M440 3946 c0 -2 8 -10 18 -17 15 -13 16 -12 3 4 -13 16 -21 21 -21
13z"/>
<path d="M1973 3928 c-15 -20 -25 -38 -20 -38 3 0 12 11 21 25 17 26 16 35 -1
13z"/>
<path d="M591 3914 c0 -11 3 -14 6 -6 3 7 2 16 -1 19 -3 4 -6 -2 -5 -13z"/>
<path d="M3762 3887 c-1 -21 -9 -51 -17 -67 -9 -17 -13 -30 -11 -30 15 0 37
66 33 98 l-4 37 -1 -38z"/>
<path d="M4689 3883 l-24 -28 28 24 c15 14 27 26 27 28 0 8 -8 1 -31 -24z"/>
<path d="M3879 3873 l-24 -28 28 24 c25 23 32 31 24 31 -2 0 -14 -12 -28 -27z"/>
<path d="M4095 3684 l-210 -206 213 202 c189 181 219 211 210 210 -2 0 -97
-93 -213 -206z"/>
<path d="M786 3863 c-6 -14 -5 -15 5 -6 7 7 10 15 7 18 -3 3 -9 -2 -12 -12z"/>
<path d="M2191 3854 c0 -11 3 -14 6 -6 3 7 2 16 -1 19 -3 4 -6 -2 -5 -13z"/>
<path d="M4605 3808 l-40 -43 43 40 c39 36 47 45 39 45 -2 0 -21 -19 -42 -42z"/>
<path d="M749 3813 l-24 -28 28 24 c25 23 32 31 24 31 -2 0 -14 -12 -28 -27z"/>
<path d="M1932 3815 c0 -16 2 -22 5 -12 2 9 2 23 0 30 -3 6 -5 -1 -5 -18z"/>
<path d="M3829 3813 c-13 -16 -12 -17 4 -4 16 13 21 21 13 21 -2 0 -10 -8 -17
-17z"/>
<path d="M1269 3783 c-13 -16 -12 -17 4 -4 16 13 21 21 13 21 -2 0 -10 -8 -17
-17z"/>
<path d="M3710 3760 c-6 -11 -8 -20 -6 -20 3 0 10 9 16 20 6 11 8 20 6 20 -3
0 -10 -9 -16 -20z"/>
<path d="M4495 3710 l-59 -60 13 -72 c15 -85 19 -204 8 -233 -5 -11 -1 -8 7 7
18 31 16 104 -5 226 l-13 72 59 60 c33 33 57 60 54 60 -2 0 -31 -27 -64 -60z"/>
<path d="M3499 3743 c-13 -16 -12 -17 4 -4 16 13 21 21 13 21 -2 0 -10 -8 -17
-17z"/>
<path d="M3999 3733 c-13 -16 -12 -17 4 -4 9 7 17 15 17 17 0 8 -8 3 -21 -13z"/>
<path d="M240 3721 c0 -5 5 -13 10 -16 6 -3 10 -2 10 4 0 5 -4 13 -10 16 -5 3
-10 2 -10 -4z"/>
<path d="M640 3715 c0 -5 5 -17 10 -25 5 -8 10 -10 10 -5 0 6 -5 17 -10 25 -5
8 -10 11 -10 5z"/>
<path d="M3712 3700 c0 -14 2 -19 5 -12 2 6 2 18 0 25 -3 6 -5 1 -5 -13z"/>
<path d="M1891 3674 c0 -11 3 -14 6 -6 3 7 2 16 -1 19 -3 4 -6 -2 -5 -13z"/>
<path d="M665 3650 c9 -30 44 -100 50 -100 4 0 -44 111 -53 120 -2 3 -1 -6 3
-20z"/>
<path d="M1445 3650 c-10 -11 -13 -20 -8 -20 13 0 38 29 31 35 -3 3 -13 -4
-23 -15z"/>
<path d="M300 3655 c0 -6 56 -35 67 -35 4 0 -5 9 -22 20 -29 19 -45 25 -45 15z"/>
<path d="M3701 3634 c0 -11 3 -14 6 -6 3 7 2 16 -1 19 -3 4 -6 -2 -5 -13z"/>
<path d="M3743 3595 c0 -27 2 -38 4 -22 2 15 2 37 0 50 -2 12 -4 0 -4 -28z"/>
<path d="M3752 3505 c0 -16 2 -22 5 -12 2 9 2 23 0 30 -3 6 -5 -1 -5 -18z"/>
<path d="M321 3475 c-17 -20 -31 -39 -31 -42 0 -10 50 39 61 60 15 27 4 20
-30 -18z"/>
<path d="M5054 3477 c-30 -32 -49 -57 -41 -57 2 0 23 20 46 45 23 25 38 45 34
44 -4 0 -22 -15 -39 -32z"/>
<path d="M1820 3468 c-30 -16 -44 -26 -30 -22 34 9 77 32 85 44 3 5 5 9 3 9
-2 -1 -28 -15 -58 -31z"/>
<path d="M4731 3459 c-13 -17 -21 -33 -18 -35 3 -3 15 9 27 26 29 41 20 49 -9
9z"/>
<path d="M796 3464 c-24 -13 -30 -14 -37 -2 -7 10 -9 10 -9 -2 0 -9 -13 -21
-29 -27 -17 -6 -37 -25 -46 -44 -10 -19 -32 -46 -51 -62 -45 -38 -144 -88
-157 -80 -6 4 -7 1 -3 -6 5 -7 0 -21 -11 -33 -10 -12 7 -3 37 19 30 22 66 44
79 48 27 8 111 84 111 101 0 14 43 54 59 54 6 0 29 9 51 20 44 22 63 19 78
-14 9 -19 54 -78 107 -138 8 -10 21 -18 28 -17 6 0 3 5 -8 10 -11 5 -28 22
-37 37 -19 29 -77 105 -103 135 -18 21 -22 21 -59 1z"/>
<path d="M3719 3436 c-19 -23 -27 -46 -32 -91 -3 -37 -2 -50 3 -35 4 14 8 41
9 59 1 23 10 44 28 63 14 15 25 29 22 31 -2 2 -16 -10 -30 -27z"/>
<path d="M1738 3433 c7 -3 16 -2 19 1 4 3 -2 6 -13 5 -11 0 -14 -3 -6 -6z"/>
<path d="M1685 3420 c-13 -6 -15 -9 -5 -9 8 0 22 4 30 9 18 12 2 12 -25 0z"/>
<path d="M137 3383 c-5 -4 -39 -11 -75 -14 l-67 -7 75 4 c41 2 84 4 95 5 11 1
52 -4 90 -11 39 -7 83 -14 99 -15 21 -1 42 -15 70 -46 43 -48 40 -36 -7 24
-21 27 -35 37 -49 34 -10 -3 -33 -1 -51 4 -18 6 -45 12 -62 13 -16 2 -48 6
-70 10 -22 4 -44 4 -48 -1z"/>
<path d="M4856 3363 c-6 -14 -5 -15 5 -6 7 7 10 15 7 18 -3 3 -9 -2 -12 -12z"/>
<path d="M5007 3295 c-48 -42 -87 -78 -87 -82 0 -3 33 23 73 58 93 81 113 99
107 99 -3 0 -45 -34 -93 -75z"/>
<path d="M3600 3316 c0 -2 8 -10 18 -17 15 -13 16 -12 3 4 -13 16 -21 21 -21
13z"/>
<path d="M4451 3300 c0 -8 4 -24 9 -35 5 -13 9 -14 9 -5 0 8 -4 24 -9 35 -5
13 -9 14 -9 5z"/>
<path d="M743 3259 c-39 -36 -49 -49 -40 -49 2 0 23 20 47 45 55 56 50 59 -7
4z"/>
<path d="M3640 3286 c0 -2 8 -10 18 -17 15 -13 16 -12 3 4 -13 16 -21 21 -21
13z"/>
<path d="M1056 3240 c21 -22 40 -37 43 -35 3 3 -5 12 -17 21 -12 8 -22 21 -22
28 0 12 -20 26 -37 26 -2 0 12 -18 33 -40z"/>
<path d="M3681 3259 c-1 -9 13 -28 29 -42 17 -15 30 -23 30 -17 0 5 -9 14 -21
20 -11 6 -24 21 -29 33 -6 15 -9 17 -9 6z"/>
<path d="M4779 3243 c-13 -16 -12 -17 4 -4 9 7 17 15 17 17 0 8 -8 3 -21 -13z"/>
<path d="M3144 3218 l-19 -23 23 19 c12 11 22 21 22 23 0 8 -8 2 -26 -19z"/>
<path d="M4471 3223 c-1 -16 -9 -23 -28 -26 -26 -4 -26 -4 5 -6 18 0 32 -6 32
-13 0 -9 3 -10 8 -2 4 6 14 14 22 17 10 4 8 6 -7 6 -14 1 -23 9 -26 24 -4 22
-4 22 -6 0z"/>
<path d="M3319 3203 c-13 -16 -12 -17 4 -4 16 13 21 21 13 21 -2 0 -10 -8 -17
-17z"/>
<path d="M4628 3193 c7 -3 16 -2 19 1 4 3 -2 6 -13 5 -11 0 -14 -3 -6 -6z"/>
<path d="M4558 3183 c12 -2 30 -2 40 0 9 3 -1 5 -23 4 -22 0 -30 -2 -17 -4z"/>
<path d="M1689 3163 c-13 -16 -12 -17 4 -4 16 13 21 21 13 21 -2 0 -10 -8 -17
-17z"/>
<path d="M3739 3152 c-3 -18 -3 -34 0 -36 3 -1 315 -3 694 -5 494 -2 687 0
687 8 0 8 -194 11 -684 11 l-685 0 -3 28 c-3 26 -4 26 -9 -6z"/>
<path d="M4700 3161 c0 -6 4 -13 10 -16 6 -3 7 1 4 9 -7 18 -14 21 -14 7z"/>
<path d="M3310 3056 c0 -3 9 -10 20 -16 11 -6 20 -8 20 -6 0 3 -9 10 -20 16
-11 6 -20 8 -20 6z"/>
<path d="M1596 3020 c2 -19 9 -55 14 -80 9 -42 9 -41 4 14 -3 33 -10 69 -15
80 -6 16 -7 12 -3 -14z"/>
<path d="M566 3017 c3 -10 9 -15 12 -12 3 3 0 11 -7 18 -10 9 -11 8 -5 -6z"/>
<path d="M3375 3011 c11 -13 32 -32 46 -42 23 -16 29 -16 45 -5 17 13 17 14
-7 9 -20 -4 -36 4 -65 28 -22 19 -30 23 -19 10z"/>
<path d="M3682 3000 c0 -14 2 -19 5 -12 2 6 2 18 0 25 -3 6 -5 1 -5 -13z"/>
<path d="M750 3000 c-8 -5 -10 -10 -5 -10 6 0 17 5 25 10 8 5 11 10 5 10 -5 0
-17 -5 -25 -10z"/>
<path d="M680 2970 c-19 -11 -30 -19 -25 -19 6 0 26 8 45 19 19 11 31 19 25
19 -5 0 -26 -8 -45 -19z"/>
<path d="M3656 2935 c-10 -18 -33 -41 -50 -49 -17 -9 -25 -16 -18 -16 24 0 50
19 72 55 12 20 20 38 18 40 -2 2 -12 -11 -22 -30z"/>
<path d="M564 2914 c-18 -14 -18 -15 4 -4 12 6 22 13 22 15 0 8 -5 6 -26 -11z"/>
<path d="M3720 2905 c-7 -9 -10 -18 -7 -21 3 -3 10 4 17 15 13 25 8 27 -10 6z"/>
<path d="M3501 2895 c9 -11 18 -25 20 -31 2 -6 14 -7 29 -3 19 5 21 7 6 8 -11
1 -31 11 -45 24 -21 17 -23 18 -10 2z"/>
<path d="M4701 2894 c0 -11 3 -14 6 -6 3 7 2 16 -1 19 -3 4 -6 -2 -5 -13z"/>
<path d="M4031 2884 c0 -11 3 -14 6 -6 3 7 2 16 -1 19 -3 4 -6 -2 -5 -13z"/>
<path d="M3130 2865 c-7 -9 -11 -17 -9 -20 3 -2 10 5 17 15 14 24 10 26 -8 5z"/>
<path d="M5088 2858 c12 -12 25 -18 29 -14 4 4 -1 14 -11 22 -31 22 -43 17
-18 -8z"/>
<path d="M1612 2820 c0 -14 2 -19 5 -12 2 6 2 18 0 25 -3 6 -5 1 -5 -13z"/>
<path d="M3449 2809 l-24 -20 28 17 c15 9 27 18 27 20 0 8 -8 4 -31 -17z"/>
<path d="M4100 2648 c-85 -90 -137 -147 -116 -128 47 44 280 290 274 290 -3 0
-74 -73 -158 -162z"/>
<path d="M1601 2774 c0 -11 3 -14 6 -6 3 7 2 16 -1 19 -3 4 -6 -2 -5 -13z"/>
<path d="M4079 2753 l-34 -38 38 34 c20 19 37 36 37 38 0 8 -8 0 -41 -34z"/>
<path d="M4762 2760 c0 -14 2 -19 5 -12 2 6 2 18 0 25 -3 6 -5 1 -5 -13z"/>
<path d="M1591 2734 c0 -11 3 -14 6 -6 3 7 2 16 -1 19 -3 4 -6 -2 -5 -13z"/>
<path d="M4019 2703 c-13 -16 -12 -17 4 -4 9 7 17 15 17 17 0 8 -8 3 -21 -13z"/>
<path d="M1581 2694 c0 -11 3 -14 6 -6 3 7 2 16 -1 19 -3 4 -6 -2 -5 -13z"/>
<path d="M4420 2660 c-6 -11 -8 -20 -6 -20 3 0 10 9 16 20 6 11 8 20 6 20 -3
0 -10 -9 -16 -20z"/>
<path d="M4719 2653 c-13 -16 -12 -17 4 -4 16 13 21 21 13 21 -2 0 -10 -8 -17
-17z"/>
<path d="M1154 2629 c-21 -23 -23 -29 -9 -21 25 13 62 52 48 52 -5 0 -22 -14
-39 -31z"/>
<path d="M1556 2614 c-4 -14 -5 -28 -3 -31 3 -2 8 8 11 23 4 14 5 28 3 31 -3
2 -8 -8 -11 -23z"/>
<path d="M1364 2608 c42 -35 26 -68 -60 -126 -11 -7 -5 -6 13 3 34 16 95 84
90 100 -2 5 -19 18 -38 29 l-34 18 29 -24z"/>
<path d="M4679 2603 l-24 -28 28 24 c15 14 27 26 27 28 0 8 -8 1 -31 -24z"/>
<path d="M4370 2580 c-6 -11 -8 -20 -6 -20 3 0 10 9 16 20 6 11 8 20 6 20 -3
0 -10 -9 -16 -20z"/>
<path d="M1900 2545 c-23 -19 -38 -35 -33 -35 9 1 90 70 81 70 -4 0 -25 -16
-48 -35z"/>
<path d="M4634 2548 l-19 -23 23 19 c21 18 27 26 19 26 -2 0 -12 -10 -23 -22z"/>
<path d="M1821 2544 c0 -11 3 -14 6 -6 3 7 2 16 -1 19 -3 4 -6 -2 -5 -13z"/>
<path d="M4161 2517 c-13 -21 -12 -21 5 -5 10 10 16 20 13 22 -3 3 -11 -5 -18
-17z"/>
<path d="M1506 2473 c-13 -28 -14 -38 -5 -47 9 -8 10 -8 5 1 -4 7 0 26 9 44 9
17 15 33 13 35 -3 2 -12 -13 -22 -33z"/>
<path d="M882 2455 c0 -16 2 -22 5 -12 2 9 2 23 0 30 -3 6 -5 -1 -5 -18z"/>
<path d="M4279 2443 c-13 -16 -12 -17 4 -4 9 7 17 15 17 17 0 8 -8 3 -21 -13z"/>
<path d="M4874 2428 l-19 -23 23 19 c12 11 22 21 22 23 0 8 -8 2 -26 -19z"/>
<path d="M1785 2378 l-60 -60 63 53 c34 29 62 57 62 61 0 11 2 12 -65 -54z"/>
<path d="M4415 2430 c-13 -5 -14 -9 -5 -9 8 0 24 4 35 9 13 5 14 9 5 9 -8 0
-24 -4 -35 -9z"/>
<path d="M4261 2400 c-1 -13 -16 -40 -33 -59 l-33 -34 32 22 c33 22 50 58 40
83 -3 7 -6 2 -6 -12z"/>
<path d="M4359 2403 c-13 -17 -13 -17 6 -3 11 8 22 16 24 17 2 2 0 3 -6 3 -6
0 -17 -8 -24 -17z"/>
<path d="M871 2383 c0 -17 4 -35 10 -39 6 -3 19 -20 30 -38 10 -17 19 -26 19
-19 0 6 -11 24 -24 40 -13 16 -26 42 -29 58 l-4 30 -2 -32z"/>
<path d="M1517 2389 c4 -13 8 -18 11 -10 2 7 -1 18 -6 23 -8 8 -9 4 -5 -13z"/>
<path d="M1981 2374 c-12 -15 -21 -34 -21 -44 0 -9 -17 -36 -37 -61 l-37 -44
37 35 c21 19 41 49 47 68 5 19 17 43 26 53 9 11 14 19 11 19 -3 0 -15 -12 -26
-26z"/>
<path d="M4839 2383 c-13 -16 -12 -17 4 -4 16 13 21 21 13 21 -2 0 -10 -8 -17
-17z"/>
<path d="M4075 2354 l-30 -26 33 22 c17 12 32 23 32 26 0 7 -4 5 -35 -22z"/>
<path d="M99 2303 l-34 -38 38 34 c34 33 42 41 34 41 -2 0 -19 -17 -38 -37z"/>
<path d="M3758 2303 c-28 -30 -48 -73 -47 -101 0 -9 6 3 14 27 7 24 26 56 41
72 15 16 25 29 23 29 -3 0 -17 -12 -31 -27z"/>
<path d="M4148 2294 c-39 -21 -35 -28 5 -8 37 19 44 24 31 24 -5 -1 -21 -8
-36 -16z"/>
<path d="M3960 2290 c-8 -5 -10 -10 -5 -10 6 0 17 5 25 10 8 5 11 10 5 10 -5
0 -17 -5 -25 -10z"/>
<path d="M1587 2279 c7 -7 15 -10 18 -7 3 3 -2 9 -12 12 -14 6 -15 5 -6 -5z"/>
<path d="M2024 2258 l-19 -23 23 19 c12 11 22 21 22 23 0 8 -8 2 -26 -19z"/>
<path d="M4050 2222 c-46 -45 -50 -52 -49 -93 l2 -44 6 49 c6 43 14 55 56 93
27 24 46 43 42 43 -4 0 -30 -22 -57 -48z"/>
<path d="M5105 2253 c-5 -10 -9 -67 -10 -128 -1 -60 -5 -120 -9 -133 -4 -12
-25 -34 -46 -47 -40 -25 -70 -65 -50 -65 5 0 10 7 10 15 0 8 17 25 38 39 63
39 67 49 65 148 -1 49 2 110 7 136 9 51 7 64 -5 35z"/>
<path d="M439 2223 c-13 -16 -12 -17 4 -4 9 7 17 15 17 17 0 8 -8 3 -21 -13z"/>
<path d="M1621 2215 c1 -19 18 -51 18 -35 0 8 -4 22 -9 30 -5 8 -9 11 -9 5z"/>
<path d="M1869 2203 c-13 -16 -12 -17 4 -4 9 7 17 15 17 17 0 8 -8 3 -21 -13z"/>
<path d="M1921 2204 c0 -11 3 -14 6 -6 3 7 2 16 -1 19 -3 4 -6 -2 -5 -13z"/>
<path d="M2744 2178 l-29 -33 33 29 c30 28 37 36 29 36 -2 0 -16 -15 -33 -32z"/>
<path d="M3564 2188 l-19 -23 23 19 c21 18 27 26 19 26 -2 0 -12 -10 -23 -22z"/>
<path d="M504 2158 l-29 -33 33 29 c17 17 32 31 32 33 0 8 -8 1 -36 -29z"/>
<path d="M3690 2156 c-8 -13 -34 -51 -58 -85 -23 -34 -41 -61 -39 -61 6 0 107
140 114 156 8 22 0 16 -17 -10z"/>
<path d="M1009 2153 c-13 -16 -12 -17 4 -4 9 7 17 15 17 17 0 8 -8 3 -21 -13z"/>
<path d="M1645 2138 c4 -13 11 -27 16 -33 5 -5 4 5 -2 23 -12 36 -24 44 -14
10z"/>
<path d="M1020 2101 c-63 -22 -111 -40 -106 -40 5 -1 59 15 120 35 105 34 117
36 216 32 92 -4 114 -9 172 -36 45 -21 83 -32 113 -32 70 0 113 -24 183 -100
35 -39 71 -70 80 -69 13 0 12 2 -4 9 -11 4 -48 39 -82 77 -65 74 -102 93 -178
93 -23 0 -73 15 -119 35 -74 32 -87 35 -180 35 -89 -1 -112 -5 -215 -39z"/>
<path d="M4920 2110 c-6 -11 -8 -20 -6 -20 3 0 10 9 16 20 6 11 8 20 6 20 -3
0 -10 -9 -16 -20z"/>
<path d="M2039 2103 c-13 -16 -12 -17 4 -4 9 7 17 15 17 17 0 8 -8 3 -21 -13z"/>
<path d="M4319 2083 c-38 -61 -42 -69 -19 -43 22 27 53 80 46 80 -2 0 -15 -17
-27 -37z"/>
<path d="M1688 2083 c12 -2 30 -2 40 0 9 3 -1 5 -23 4 -22 0 -30 -2 -17 -4z"/>
<path d="M4012 2055 c0 -16 2 -22 5 -12 2 9 2 23 0 30 -3 6 -5 -1 -5 -18z"/>
<path d="M4559 2013 l-24 -28 28 24 c25 23 32 31 24 31 -2 0 -14 -12 -28 -27z"/>
<path d="M1200 2005 c-7 -9 -11 -18 -8 -20 3 -3 11 1 18 10 7 9 11 18 8 20 -3
3 -11 -1 -18 -10z"/>
<path d="M4022 2005 c0 -11 4 -31 8 -45 6 -20 8 -21 8 -5 0 11 -4 31 -8 45 -6
20 -8 21 -8 5z"/>
<path d="M3558 1963 c-54 -82 -60 -93 -55 -93 4 0 18 20 71 103 10 15 16 27
13 27 -2 0 -15 -17 -29 -37z"/>
<path d="M4519 1963 c-13 -16 -12 -17 4 -4 9 7 17 15 17 17 0 8 -8 3 -21 -13z"/>
<path d="M4974 1955 c-9 -13 -14 -28 -12 -33 1 -5 10 6 19 24 19 40 16 44 -7
9z"/>
<path d="M2713 1950 c-34 -20 -47 -38 -15 -21 23 13 58 40 52 41 -3 0 -20 -9
-37 -20z"/>
<path d="M4031 1921 c-1 -8 -9 -24 -18 -35 -16 -20 -16 -20 6 0 13 12 21 28
18 35 -4 11 -6 11 -6 0z"/>
<path d="M4952 1880 c0 -14 2 -19 5 -12 2 6 2 18 0 25 -3 6 -5 1 -5 -13z"/>
<path d="M994 1868 c-43 -50 -58 -71 -47 -65 6 4 26 25 43 47 34 43 37 55 4
18z"/>
<path d="M1851 1877 c2 -1 13 -9 24 -17 19 -14 19 -14 6 3 -7 9 -18 17 -24 17
-6 0 -8 -1 -6 -3z"/>
<path d="M4937 1813 c-23 -46 -18 -51 10 -8 13 19 19 36 15 38 -4 3 -15 -11
-25 -30z"/>
<path d="M4004 1768 l-19 -23 23 19 c21 18 27 26 19 26 -2 0 -12 -10 -23 -22z"/>
<path d="M699 1743 c-13 -16 -12 -17 4 -4 9 7 17 15 17 17 0 8 -8 3 -21 -13z"/>
<path d="M3525 1620 c148 -10 265 -36 296 -66 17 -16 49 -29 96 -39 39 -8 79
-17 89 -21 18 -5 18 -5 0 7 -11 6 -46 20 -79 30 -36 11 -73 31 -92 49 -28 27
-42 32 -116 40 -46 5 -131 9 -189 8 l-105 -1 100 -7z"/>
<path d="M4419 1590 l-12 -40 -36 23 c-33 20 -49 22 -221 24 -149 1 -174 0
-130 -8 30 -6 124 -24 207 -40 84 -16 163 -29 175 -29 15 0 36 15 59 41 31 37
41 42 90 47 48 5 50 7 24 13 -16 4 -56 7 -87 8 l-57 1 -12 -40z"/>
<path d="M5030 1608 c-30 -12 -82 -42 -115 -68 -34 -25 -75 -52 -93 -59 -17
-7 -29 -17 -27 -22 7 -11 93 29 194 90 46 28 95 51 108 51 14 0 23 6 23 15 0
20 -24 18 -90 -7z"/>
<path d="M3185 1606 c90 -13 161 -38 214 -75 32 -23 231 -131 231 -126 0 14
-175 152 -215 171 -55 25 -175 45 -263 43 -54 -1 -52 -2 33 -13z"/>
<path d="M3862 1608 c-7 -7 -12 -16 -12 -22 0 -5 6 -2 13 7 6 9 30 18 52 20
l40 4 -40 1 c-23 1 -46 -3 -53 -10z"/>
<path d="M1880 1589 c-19 -12 -60 -41 -90 -65 -30 -24 -107 -68 -170 -99 -127
-61 -115 -64 27 -5 73 30 244 135 298 182 20 17 -32 7 -65 -13z"/>
<path d="M2966 1592 c5 -5 32 -26 59 -46 l50 -38 -50 46 c-27 25 -54 46 -59
46 -6 0 -6 -3 0 -8z"/>
<path d="M4121 1533 c7 -12 15 -20 18 -17 3 2 -3 12 -13 22 -17 16 -18 16 -5
-5z"/>
<path d="M1184 1476 c-8 -32 2 -59 19 -53 16 5 16 69 0 74 -7 3 -15 -7 -19
-21z"/>
<path d="M4785 1401 c-8 -16 -24 -52 -35 -81 -18 -46 -19 -53 -5 -80 17 -33
20 -106 5 -115 -5 -3 -10 -14 -10 -23 0 -11 6 -6 15 12 20 37 19 100 -1 131
-15 23 -14 29 19 105 35 80 41 106 12 51z"/>
<path d="M1390 1349 c-30 -16 -71 -44 -90 -61 -36 -31 -33 -30 65 29 28 17 60
34 73 38 12 3 22 11 22 16 0 14 -11 11 -70 -22z"/>
<path d="M873 1304 c-26 -25 -39 -41 -28 -35 21 10 93 81 83 81 -3 0 -28 -20
-55 -46z"/>
<path d="M340 1209 c-19 -17 -26 -26 -15 -21 18 9 64 52 54 52 -2 0 -20 -14
-39 -31z"/>
<path d="M1323 1203 c-14 -5 -18 -53 -5 -53 9 0 33 25 46 48 7 12 -16 16 -41
5z"/>
<path d="M1955 1200 c3 -5 8 -10 11 -10 2 0 4 5 4 10 0 6 -5 10 -11 10 -5 0
-7 -4 -4 -10z"/>
<path d="M4732 1060 c0 -14 2 -19 5 -12 2 6 2 18 0 25 -3 6 -5 1 -5 -13z"/>
<path d="M610 1053 c0 -13 29 -38 35 -31 3 3 -4 13 -15 23 -11 10 -20 13 -20
8z"/>
<path d="M4206 1025 c-13 -10 -16 -20 -11 -32 8 -17 8 -17 13 2 2 11 9 26 14
33 13 16 8 15 -16 -3z"/>
<path d="M4742 1004 c10 -10 20 -16 22 -13 3 3 -5 11 -17 18 -21 13 -21 12 -5
-5z"/>
<path d="M4730 866 c0 -2 7 -9 15 -16 13 -11 14 -10 9 4 -5 14 -24 23 -24 12z"/>
<path d="M4644 799 c-109 -97 -108 -96 -93 -104 7 -5 10 -4 5 3 -3 6 2 17 12
24 28 19 156 138 149 138 -3 0 -36 -28 -73 -61z"/>
<path d="M1740 840 c-13 -8 -12 -10 3 -10 9 0 17 5 17 10 0 12 -1 12 -20 0z"/>
<path d="M2000 740 c0 -5 5 -10 10 -10 6 0 10 5 10 10 0 6 -4 10 -10 10 -5 0
-10 -4 -10 -10z"/>
<path d="M2430 710 c6 -11 13 -20 16 -20 2 0 0 9 -6 20 -6 11 -13 20 -16 20
-2 0 0 -9 6 -20z"/>
<path d="M2210 640 c-9 -6 -10 -10 -3 -10 6 0 15 5 18 10 8 12 4 12 -15 0z"/>
<path d="M3624 568 c-60 -20 -104 -37 -99 -37 14 -1 143 34 178 48 16 6 84 11
152 11 68 0 126 3 128 8 3 4 -52 7 -123 7 -120 0 -133 -2 -236 -37z"/>
<path d="M4404 538 c-59 -85 -67 -98 -60 -98 5 0 89 119 106 150 21 39 3 19
-46 -52z"/>
<path d="M1165 560 c3 -5 8 -10 11 -10 2 0 4 5 4 10 0 6 -5 10 -11 10 -5 0 -7
-4 -4 -10z"/>
<path d="M2538 485 c-4 -49 -12 -121 -17 -160 -6 -38 -10 -117 -9 -175 l1
-105 7 135 c4 74 13 169 19 210 7 41 11 100 9 130 -3 49 -4 45 -10 -35z"/>
<path d="M434 461 c3 -4 60 -32 128 -61 68 -29 134 -61 148 -70 30 -21 98 -55
89 -46 -28 30 -379 201 -365 177z"/>
<path d="M3330 410 c0 -5 5 -10 10 -10 6 0 10 5 10 10 0 6 -4 10 -10 10 -5 0
-10 -4 -10 -10z"/>
<path d="M2259 393 c-13 -15 -12 -15 9 -4 23 12 28 21 13 21 -5 0 -15 -7 -22
-17z"/>
<path d="M2545 320 c-3 -5 -1 -10 4 -10 6 0 11 5 11 10 0 6 -2 10 -4 10 -3 0
-8 -4 -11 -10z"/>
<path d="M4860 280 c0 -5 9 -14 20 -20 11 -6 20 -9 20 -8 0 2 -9 11 -20 21
-11 9 -20 13 -20 7z"/>
<path d="M4716 267 c3 -10 9 -15 12 -12 3 3 0 11 -7 18 -10 9 -11 8 -5 -6z"/>
<path d="M4390 164 c-12 -35 -6 -62 6 -30 3 9 12 16 20 16 8 0 14 10 14 25 0
38 -27 31 -40 -11z"/>
<path d="M1340 181 c0 -5 5 -13 10 -16 6 -3 10 -2 10 4 0 5 -4 13 -10 16 -5 3
-10 2 -10 -4z"/>
<path d="M3465 147 c-4 -25 -5 -52 -3 -59 3 -7 8 11 13 40 4 29 5 56 2 59 -3
2 -9 -16 -12 -40z"/>
</g>
</svg>