<?xml version="1.0" standalone="no"?>
<!DOCTYPE svg PUBLIC "-//W3C//DTD SVG 20010904//EN"
 "http://www.w3.org/TR/2001/REC-SVG-20010904/DTD/svg10.dtd">
<svg version="1.0" xmlns="http://www.w3.org/2000/svg"
 width="512.000000pt" height="512.000000pt" viewBox="0 0 512.000000 512.000000"
 preserveAspectRatio="xMidYMid meet">
<metadata>
Created by potrace 1.16, written by Peter Selinger 2001-2019
</metadata>
<g transform="translate(0.000000,512.000000) scale(0.100000,-0.100000)"
fill="#000000" stroke="none">
<path d="M4368 5023 c-53 -54 -112 -112 -132 -129 -25 -22 -36 -39 -36 -59 0
-20 -12 -39 -45 -68 -25 -22 -45 -48 -45 -57 0 -9 -38 -51 -84 -92 -66 -59
-100 -82 -158 -104 -40 -15 -78 -31 -84 -36 -6 -5 -33 -45 -59 -89 -51 -89
-51 -92 -2 -176 20 -34 31 -40 42 -23 11 18 21 3 23 -36 4 -50 28 -94 52 -94
14 0 22 11 30 43 9 33 29 58 91 117 43 41 96 103 118 137 30 47 53 69 101 97
33 20 66 36 73 36 27 1 334 185 432 259 33 25 105 76 160 114 155 105 275 207
275 234 l0 23 -329 0 -328 0 -95 -97z"/>
<path d="M3419 4313 c-8 -10 -20 -29 -26 -43 -52 -117 -83 -180 -90 -180 -5 0
-17 14 -27 31 -23 39 -60 57 -80 39 -14 -10 -13 -17 5 -53 34 -65 55 -152 50
-204 -1 -6 -21 -35 -46 -64 -51 -60 -61 -112 -27 -142 30 -28 49 -20 121 46
37 34 90 78 117 97 34 25 63 58 94 112 25 42 64 96 87 121 62 67 73 97 37 97
-7 0 -27 -12 -46 -27 -36 -30 -36 -32 23 54 15 21 30 48 34 61 10 33 -20 40
-51 11 l-26 -24 13 28 c14 31 3 52 -23 42 -9 -4 -38 -36 -64 -72 -48 -66 -65
-70 -45 -11 25 72 6 124 -30 81z"/>
<path d="M2262 4116 c-21 -23 -51 -64 -67 -90 -32 -54 -39 -55 -23 -3 6 20 9
40 5 43 -15 16 -38 -10 -72 -80 -37 -76 -55 -100 -55 -72 0 19 -24 21 -38 4
-5 -7 -36 -63 -67 -125 l-58 -112 -8 -138 c-7 -143 -33 -272 -63 -314 -25 -37
-20 -88 14 -133 17 -22 30 -47 30 -55 0 -30 60 -121 79 -121 32 0 44 26 42 96
-1 47 4 76 18 102 28 56 51 133 50 172 -2 152 21 221 93 275 22 17 48 44 59
62 11 18 51 55 90 83 45 33 69 57 69 70 0 29 -28 25 -83 -10 -38 -24 -47 -26
-47 -13 0 18 43 91 94 158 39 51 44 65 21 65 -20 0 -19 9 5 45 22 34 26 65 8
65 -7 0 -28 -15 -47 -32 l-34 -33 26 49 c31 55 33 72 13 79 -9 4 -30 -11 -54
-37z"/>
<path d="M1275 4071 c-7 -12 12 -55 47 -108 15 -23 28 -51 28 -63 0 -11 11
-42 24 -68 21 -42 56 -147 56 -168 0 -4 -18 10 -40 31 -30 29 -43 36 -51 28
-9 -9 -2 -24 25 -61 19 -27 43 -56 52 -63 9 -8 25 -34 36 -59 10 -25 43 -70
72 -100 29 -30 65 -76 80 -102 28 -50 58 -73 82 -64 19 7 18 38 -6 121 -11 38
-20 89 -20 113 0 53 -35 161 -94 287 -34 71 -56 105 -92 137 -26 24 -74 67
-106 96 -56 50 -81 62 -93 43z"/>
<path d="M2855 4039 c-28 -17 -67 -47 -88 -65 -49 -45 -60 -43 -34 6 17 29 19
42 10 51 -18 18 -38 0 -114 -106 -81 -114 -92 -133 -110 -194 -9 -32 -26 -54
-64 -85 -28 -22 -63 -59 -78 -81 -15 -22 -38 -55 -52 -74 -55 -75 -5 -99 74
-36 24 19 59 37 78 41 20 4 63 29 100 59 37 29 84 58 105 64 22 7 73 30 114
52 41 21 82 39 90 39 25 0 74 29 74 44 0 20 -30 25 -95 14 -32 -5 -60 -7 -62
-4 -11 10 40 71 86 102 47 32 67 64 39 64 -7 0 3 13 21 28 39 32 40 69 2 65
-18 -3 -22 1 -19 19 5 34 -21 33 -77 -3z"/>
<path d="M933 3635 c4 -24 3 -24 -13 -10 -19 17 -46 20 -55 5 -3 -5 1 -23 10
-39 8 -17 15 -39 15 -49 0 -10 18 -46 40 -80 21 -34 46 -76 55 -94 14 -29 11
-28 -26 15 -22 26 -47 47 -55 47 -27 0 -13 -39 41 -114 30 -42 60 -87 67 -99
6 -12 36 -48 66 -79 50 -52 54 -60 48 -91 -6 -31 -2 -38 28 -65 19 -16 55 -61
81 -98 87 -129 96 -139 118 -139 21 0 22 3 19 105 -3 90 -7 110 -26 140 -13
19 -31 72 -41 117 -16 81 -16 85 4 172 12 49 21 94 21 100 0 21 -40 11 -57
-15 l-17 -26 -18 78 c-29 124 -68 141 -68 31 -1 -70 -1 -70 -60 35 -38 68
-141 178 -166 178 -12 0 -15 -7 -11 -25z"/>
<path d="M3522 3564 c-12 -8 -29 -39 -38 -69 -16 -49 -34 -73 -34 -45 0 6 -7
10 -16 10 -13 0 -15 -6 -9 -27 4 -16 8 -46 10 -68 2 -22 11 -60 20 -85 11 -27
17 -68 16 -102 -2 -46 1 -58 13 -58 9 0 20 20 31 58 8 31 22 72 31 91 8 19 18
57 21 85 4 28 15 65 25 83 21 35 16 62 -8 42 -12 -10 -14 -3 -14 39 0 56 -15
70 -48 46z"/>
<path d="M3041 3455 c-38 -28 -72 -45 -89 -45 -15 0 -52 -12 -81 -27 -53 -26
-54 -26 -100 -9 -56 20 -125 22 -119 4 3 -7 19 -18 37 -24 17 -5 43 -22 58
-36 l25 -26 -55 -40 c-30 -23 -63 -56 -73 -74 -48 -90 -94 -184 -94 -190 0
-24 36 0 92 60 34 38 74 75 88 82 14 7 48 31 77 52 55 40 86 47 118 25 18 -12
32 -15 83 -19 6 -1 12 -5 12 -9 0 -16 -169 -158 -235 -196 -38 -23 -83 -54
-99 -69 -25 -24 -27 -28 -11 -37 13 -7 28 -2 63 23 49 35 140 70 180 70 16 0
49 23 97 66 70 62 76 65 119 62 44 -3 67 14 26 20 -11 2 -20 8 -20 13 0 21 31
66 75 108 25 25 45 51 45 58 0 19 -30 16 -68 -7 -18 -11 -42 -20 -53 -20 -25
0 -58 -17 -82 -41 -23 -25 -25 -24 -71 15 l-40 34 28 33 c16 19 44 42 62 52
20 10 34 25 34 36 0 10 14 30 30 44 32 29 40 57 16 57 -8 0 -41 -20 -75 -45z"/>
<path d="M2509 3342 c-24 -16 -50 -36 -58 -45 -7 -9 -21 -17 -31 -17 -10 0
-25 -11 -34 -25 -10 -14 -28 -30 -42 -35 -19 -7 -24 -15 -19 -29 5 -18 -40
-67 -110 -117 -17 -12 -26 -25 -21 -32 5 -8 34 2 99 36 51 26 100 46 110 44
10 -1 28 3 39 9 21 11 21 12 3 25 -17 13 -16 16 26 62 41 46 99 131 99 146 0
12 -16 6 -61 -22z"/>
<path d="M3744 3340 c-6 -28 -24 -43 -24 -20 0 6 -4 10 -10 10 -5 0 -10 -13
-10 -30 0 -22 -4 -28 -15 -24 -19 8 -19 5 1 -81 8 -39 16 -99 17 -134 1 -35 7
-66 12 -68 11 -3 53 81 75 149 6 21 16 40 21 43 5 4 9 19 9 34 0 15 9 36 20
46 19 17 27 45 13 45 -3 0 -15 -7 -25 -17 -17 -15 -18 -15 -18 11 0 65 -55 94
-66 36z"/>
<path d="M4225 3201 c-3 -5 -21 -7 -40 -4 -31 5 -39 1 -74 -37 l-39 -43 -28
20 c-41 29 -111 63 -129 63 -23 0 -18 -18 18 -61 19 -21 39 -57 46 -79 17 -56
-4 -91 -85 -142 -42 -26 -64 -47 -64 -59 0 -28 28 -24 104 16 90 47 110 46
124 -4 7 -21 12 -57 12 -80 0 -84 48 -34 84 88 9 30 16 67 16 82 0 17 18 49
53 91 85 104 98 158 38 158 -16 0 -32 -4 -36 -9z"/>
<path d="M3310 3001 c0 -10 7 -35 15 -55 17 -41 4 -49 -21 -11 -17 26 -54 34
-54 12 0 -13 44 -82 67 -105 18 -18 6 -37 -13 -21 -23 19 -42 -5 -22 -28 8
-10 31 -48 51 -85 37 -66 37 -67 31 -155 -4 -48 -17 -119 -29 -158 l-23 -69
-42 3 c-23 1 -68 15 -101 31 -33 15 -85 31 -117 35 -98 12 -123 45 -86 116 13
25 14 42 5 97 -8 55 -16 72 -41 95 -43 38 -98 37 -142 -2 -28 -25 -33 -36 -33
-75 0 -25 -3 -46 -7 -46 -15 0 -8 -39 13 -79 31 -60 23 -80 -51 -128 -129 -84
-140 -98 -155 -198 -4 -27 -13 -58 -21 -69 -8 -11 -14 -31 -14 -43 0 -12 -11
-46 -24 -75 -34 -75 -43 -114 -61 -271 -18 -156 -12 -198 34 -249 25 -29 28
-29 44 -14 14 14 16 28 11 74 -6 53 -5 56 10 37 15 -20 15 -20 16 5 0 14 -7
38 -15 54 -22 42 -19 59 24 151 22 46 42 99 46 117 4 18 21 64 38 101 l31 68
12 -46 c15 -59 16 -163 2 -188 -7 -13 -10 -96 -10 -221 0 -167 4 -217 22 -295
20 -90 20 -97 5 -172 -17 -83 -14 -118 16 -208 10 -29 23 -91 29 -137 10 -78
9 -89 -15 -159 -30 -91 -31 -120 -5 -163 40 -66 93 -10 104 110 4 40 14 83 22
96 11 16 16 63 19 170 2 81 9 179 15 217 26 169 31 223 26 276 -8 64 3 174 15
162 12 -12 32 -168 30 -234 0 -31 5 -72 13 -90 7 -19 17 -56 21 -84 13 -89 47
-131 79 -96 21 23 20 80 0 131 -16 39 -15 43 6 93 18 41 24 78 28 172 8 167 7
265 -1 370 -17 198 -9 342 18 365 9 8 32 8 79 0 56 -9 77 -7 150 11 96 24 95
23 120 149 15 77 14 137 -2 400 -8 127 -31 275 -48 301 -3 5 -12 9 -21 9 -13
0 -14 -8 -9 -40 3 -22 4 -40 1 -40 -2 0 -16 23 -30 50 -25 50 -55 67 -55 31z"/>
<path d="M1504 2889 c-10 -16 11 -32 106 -80 47 -24 93 -50 103 -59 10 -8 31
-25 45 -38 26 -22 53 -33 96 -37 11 -1 23 -3 26 -4 2 0 -16 -21 -40 -46 -34
-35 -55 -47 -97 -56 -30 -7 -53 -18 -53 -25 0 -18 20 -22 55 -12 54 15 61 10
30 -22 -23 -24 -26 -33 -16 -43 10 -10 24 0 70 50 44 46 69 64 102 73 24 7 57
16 73 21 26 8 34 4 90 -49 72 -67 223 -172 249 -172 33 0 16 28 -50 82 -47 37
-79 73 -105 118 -21 36 -38 70 -38 76 0 6 26 31 57 55 51 40 62 44 117 45 106
3 106 3 105 22 0 16 -112 77 -176 97 -30 8 -178 -37 -226 -69 -34 -24 -37 -24
-84 -10 -26 8 -81 19 -121 25 -40 6 -120 23 -177 40 -116 32 -131 34 -141 18z"/>
<path d="M3667 2793 c-8 -16 -17 -41 -21 -58 -15 -61 -35 -199 -30 -207 9 -13
24 -9 24 7 0 8 4 15 9 15 9 0 18 -28 27 -80 12 -68 59 -210 68 -207 7 2 11 35
11 78 0 41 6 87 13 102 7 16 12 47 12 69 0 23 7 49 15 58 8 8 21 32 30 53 13
32 13 37 1 37 -8 0 -22 -10 -30 -22 -9 -12 -18 -19 -22 -16 -3 4 -14 46 -25
94 -10 48 -25 91 -31 96 -23 14 -37 9 -51 -19z"/>
<path d="M4369 2810 c-9 -5 -22 -22 -28 -37 -7 -16 -26 -35 -43 -43 -45 -21
-62 -49 -114 -185 -47 -124 -64 -156 -64 -117 0 34 -22 72 -41 72 -19 0 -19
-1 -39 -188 -5 -56 -10 -127 -10 -156 0 -51 -2 -56 -62 -123 -58 -65 -98 -141
-98 -186 0 -46 62 -13 179 95 35 33 93 81 130 108 36 27 78 64 93 84 15 19 63
62 107 96 44 34 82 68 85 77 16 41 -29 40 -95 -4 -22 -14 -42 -23 -46 -19 -8
8 28 74 77 141 50 68 78 125 86 173 8 53 -9 62 -47 26 -16 -15 -29 -25 -29
-21 0 3 12 43 26 87 27 87 26 115 -5 107 -12 -3 -22 1 -25 9 -6 16 -15 17 -37
4z"/>
<path d="M1080 2650 c-11 -7 -1 -23 43 -69 32 -33 64 -76 72 -95 8 -18 27 -43
42 -54 15 -11 26 -23 23 -25 -3 -3 -34 1 -70 8 -82 18 -90 18 -90 1 0 -12 58
-45 175 -96 74 -33 95 -56 95 -103 0 -47 40 -107 71 -107 10 0 19 1 19 3 41
207 42 258 5 332 -26 50 -27 59 -17 89 16 43 15 46 -7 46 -18 0 -40 -21 -67
-66 -11 -18 -14 -17 -45 13 -46 42 -231 134 -249 123z"/>
<path d="M1829 2363 c-20 -21 -47 -54 -60 -73 -13 -19 -32 -41 -42 -49 -23
-16 -48 -74 -76 -171 -20 -71 -23 -76 -111 -158 -99 -92 -114 -113 -105 -142
5 -15 15 -20 40 -20 26 0 56 17 141 83 60 45 133 93 161 106 29 13 68 41 86
62 23 25 49 41 78 49 67 16 89 28 89 46 0 14 -9 16 -60 12 -33 -2 -60 -1 -60
3 0 4 27 22 61 40 64 34 81 55 58 70 -19 11 -96 0 -148 -22 -24 -11 -46 -18
-48 -16 -2 3 12 42 32 88 19 46 35 94 35 106 0 35 -31 29 -71 -14z"/>
<path d="M900 2345 c-7 -9 -15 -38 -18 -65 -4 -48 -5 -49 -25 -35 -45 32 -50
4 -11 -62 14 -25 24 -47 21 -49 -3 -3 -29 8 -58 24 -53 29 -79 32 -79 8 0 -7
30 -34 66 -60 67 -50 72 -57 119 -179 l26 -69 -26 -65 c-26 -63 -27 -93 -5
-93 13 0 60 49 60 61 0 40 72 -57 90 -120 12 -46 47 -81 81 -81 57 0 60 35 14
180 -12 41 -28 116 -33 166 -10 92 -48 206 -114 344 -49 101 -80 129 -108 95z"/>
<path d="M3570 2060 c-11 -11 -23 -34 -26 -49 -5 -22 -13 -30 -36 -35 -17 -3
-54 -28 -84 -55 -29 -27 -83 -65 -118 -85 -72 -40 -84 -52 -67 -69 8 -8 19 -7
40 6 45 26 121 57 121 49 0 -5 -29 -38 -64 -75 -37 -39 -69 -83 -77 -104 -6
-21 -23 -60 -36 -87 -15 -29 -21 -52 -15 -58 13 -13 55 24 77 69 46 89 108
144 70 61 -14 -29 -25 -61 -25 -70 0 -10 -12 -47 -26 -83 -27 -68 -26 -87 4
-69 22 14 81 123 82 151 0 12 16 41 35 65 19 24 63 80 97 125 35 45 66 82 71
83 7 0 18 -23 31 -62 3 -12 11 -15 22 -11 13 5 15 15 11 56 -4 27 -14 69 -22
92 -16 41 -16 43 9 80 31 45 32 49 6 75 -26 26 -55 25 -80 0z"/>
<path d="M2120 1839 c-30 -4 -62 -6 -72 -3 -9 3 -19 0 -22 -5 -13 -20 -229
-121 -260 -121 -34 0 -64 -15 -54 -26 4 -4 35 -7 68 -6 72 0 84 -14 51 -58
-48 -66 -10 -68 51 -2 43 46 157 111 221 126 28 7 29 26 1 26 -33 0 -2 18 41
23 58 8 118 34 110 47 -7 11 -55 11 -135 -1z"/>
<path d="M3930 1638 c-11 -18 -20 -36 -20 -40 0 -4 -18 -13 -41 -19 -41 -13
-41 -13 -81 29 -68 72 -78 48 -23 -54 l35 -65 -25 -43 c-14 -23 -25 -50 -25
-60 0 -20 32 -35 38 -18 2 7 29 29 60 48 l56 36 25 -30 c45 -52 82 -52 55 0
-9 17 -13 32 -11 35 3 2 31 10 64 18 70 16 167 65 171 86 2 13 -15 18 -80 27
-46 7 -100 12 -121 12 -37 0 -38 1 -35 32 4 43 -17 47 -42 6z"/>
<path d="M2117 1614 c-66 -44 -85 -120 -51 -204 13 -31 14 -46 5 -71 -14 -41
-14 -116 0 -125 14 -8 29 14 29 44 0 37 14 26 56 -45 43 -71 61 -151 43 -185
-12 -23 22 -133 42 -133 10 0 14 16 15 65 1 36 9 91 18 122 l17 58 37 -16 c70
-30 90 -35 123 -32 53 5 44 24 -33 67 -110 61 -126 78 -159 161 -16 41 -29 80
-29 86 0 6 13 28 30 50 16 21 30 47 30 57 0 25 -29 21 -52 -8 -11 -14 -25 -25
-33 -25 -19 0 -43 70 -38 111 6 48 -6 53 -50 23z"/>
<path d="M1520 1552 c-69 -71 -90 -112 -90 -174 0 -32 -11 -35 -46 -11 -20 13
-33 14 -61 7 -45 -11 -51 -26 -19 -44 14 -7 45 -39 70 -71 56 -72 84 -87 189
-100 45 -5 98 -16 118 -24 39 -15 82 -10 76 9 -1 6 -22 20 -45 31 -68 34 -69
36 -10 97 29 31 63 61 76 67 12 7 22 21 22 33 0 19 -3 20 -67 13 -38 -4 -83
-13 -102 -21 -18 -8 -35 -14 -37 -14 -9 0 -3 177 8 212 9 30 9 41 -1 51 -9 9
-27 -5 -81 -61z"/>
<path d="M3414 1329 c-60 -27 -153 -127 -146 -159 2 -8 -11 -26 -29 -41 -22
-18 -30 -31 -26 -43 6 -15 12 -14 58 11 28 16 67 36 85 46 19 9 34 21 34 27 0
5 25 8 55 7 30 -1 54 1 55 6 0 4 -1 6 -2 5 -2 -1 -13 4 -25 11 -30 16 -29 35
4 57 37 24 63 56 60 74 -3 22 -73 21 -123 -1z"/>
</g>
</svg>