<?xml version="1.0" standalone="no"?>
<!DOCTYPE svg PUBLIC "-//W3C//DTD SVG 20010904//EN"
 "http://www.w3.org/TR/2001/REC-SVG-20010904/DTD/svg10.dtd">
<svg version="1.0" xmlns="http://www.w3.org/2000/svg"
 width="512.000000pt" height="512.000000pt" viewBox="0 0 512.000000 512.000000"
 preserveAspectRatio="xMidYMid meet">
<metadata>
Created by potrace 1.16, written by Peter Selinger 2001-2019
</metadata>
<g transform="translate(0.000000,512.000000) scale(0.100000,-0.100000)"
fill="#000000" stroke="none">
<path d="M2480 4640 c-14 -4 -37 -11 -51 -14 -24 -5 -121 -88 -130 -111 -2 -6
-19 -21 -36 -34 -27 -18 -31 -26 -23 -41 7 -12 7 -28 0 -44 -7 -20 -3 -46 16
-112 29 -102 45 -136 77 -161 13 -10 29 -35 36 -56 7 -20 30 -52 52 -70 41
-36 62 -84 74 -169 12 -91 56 -89 90 5 28 78 39 83 31 13 -10 -90 -24 -104
-96 -97 -63 6 -65 9 -75 112 l-6 67 -49 20 -49 20 6 56 c3 31 3 56 -1 56 -4 0
-25 -9 -46 -20 -61 -31 -73 -56 -64 -139 l6 -70 -34 -14 c-19 -8 -54 -27 -79
-42 -24 -16 -74 -43 -110 -61 -72 -36 -76 -41 -124 -169 -14 -38 -39 -87 -55
-107 -18 -22 -30 -49 -30 -66 0 -32 -91 -230 -128 -276 -12 -16 -22 -37 -22
-46 0 -10 -6 -23 -14 -30 -35 -28 -158 -471 -173 -622 -4 -40 -2 -47 16 -53
26 -8 26 -11 -4 -91 -35 -92 -34 -155 4 -203 29 -36 29 -36 16 -103 -7 -37
-10 -78 -8 -92 3 -13 -18 -140 -46 -282 -77 -395 -162 -866 -158 -870 2 -3 11
28 19 68 9 40 52 246 96 458 44 212 90 436 102 498 15 75 28 120 40 132 11 11
22 36 26 57 3 21 12 43 20 49 26 21 64 123 64 172 0 48 12 72 37 72 8 0 13
-13 13 -35 0 -37 31 -80 53 -72 13 4 22 116 13 152 -3 11 -19 42 -37 68 -31
48 -31 48 -16 90 9 23 25 81 36 128 11 47 39 128 62 180 23 52 56 136 74 188
28 78 115 231 132 231 5 0 -4 -74 -18 -145 -24 -117 -58 -585 -59 -786 0 -83
1 -86 26 -98 14 -6 52 -14 84 -18 l57 -6 6 -151 c6 -172 27 -500 33 -533 2
-12 15 -35 29 -51 16 -20 25 -42 25 -65 0 -20 18 -84 39 -144 51 -139 53 -148
43 -209 -11 -64 -3 -86 41 -112 l35 -20 -2 -89 c-4 -121 -10 -138 -59 -161
-55 -26 -79 -54 -86 -100 l-6 -37 -245 -62 c-308 -79 -1129 -295 -1335 -351
l-60 -17 40 -3 c26 -2 174 33 435 103 363 97 900 232 1649 415 162 40 326 83
364 96 l69 24 252 -54 c450 -97 397 -80 483 -158 67 -59 83 -69 127 -74 45 -7
58 -15 165 -114 64 -60 153 -138 198 -175 69 -55 87 -66 114 -63 30 3 23 11
-181 187 -209 181 -213 184 -278 198 -49 10 -76 23 -109 51 -24 20 -58 49 -76
64 -27 22 -70 35 -262 76 -126 28 -258 56 -292 62 -57 11 -69 18 -128 76 -69
67 -72 75 -67 167 2 29 7 39 25 46 38 15 50 37 44 82 -3 25 4 85 19 156 21 98
24 135 21 260 -2 79 1 161 6 182 8 28 5 69 -12 172 -40 245 -80 390 -154 554
-33 74 -42 106 -48 183 -8 87 -7 96 13 123 20 27 21 33 9 96 -13 80 -20 408
-8 440 7 20 15 15 82 -67 41 -49 77 -100 81 -114 3 -14 12 -30 20 -37 8 -6 14
-18 14 -25 0 -8 22 -74 49 -146 27 -73 59 -175 71 -226 25 -101 26 -95 -29
-183 -18 -28 -31 -67 -35 -103 l-8 -57 33 3 c32 3 36 7 59 63 l13 30 7 -25
c11 -39 -1 -82 -33 -119 l-30 -35 28 -23 c29 -26 36 -25 116 9 32 13 55 32 74
61 30 45 32 75 16 190 -6 43 -4 60 6 68 7 6 13 22 13 35 0 32 -78 502 -96 577
-1 4 -2 11 -3 17 0 5 -13 20 -27 33 -14 13 -32 35 -39 48 -29 52 -93 188 -110
234 -10 28 -28 61 -41 75 -12 14 -32 50 -43 80 -12 30 -38 85 -59 123 -37 65
-41 68 -138 118 -54 28 -111 62 -126 74 l-27 23 19 25 c11 14 20 29 20 34 0
18 -70 91 -112 118 l-43 27 2 125 c1 76 8 144 17 172 8 25 17 66 21 91 5 40 4
43 -8 26 -8 -11 -19 -16 -26 -12 -7 5 -20 1 -29 -7 -9 -7 -26 -17 -37 -21 -17
-6 -16 -4 5 19 37 40 34 92 -10 138 -32 34 -39 37 -90 36 -30 0 -66 -4 -80 -9z
m153 -42 c25 -34 42 -83 26 -72 -5 3 -9 11 -9 18 0 7 -10 26 -21 41 -24 29
-26 29 -134 0 -33 -9 -69 -25 -80 -35 -11 -9 -35 -26 -53 -36 -43 -25 -38 -47
13 -56 30 -5 25 -6 -22 -3 -34 1 -64 0 -67 -3 -4 -3 9 -18 26 -33 24 -21 28
-28 16 -29 -9 0 -21 -7 -26 -16 -6 -10 -12 -13 -16 -6 -3 6 1 17 9 26 14 14
13 17 -15 31 -37 19 -38 31 -5 39 14 4 33 19 43 34 9 15 37 46 63 69 47 44 95
59 186 62 36 1 45 -3 66 -31z m-29 -60 c9 -12 15 -36 15 -53 l-2 -30 -4 30
c-7 43 -20 55 -64 55 -31 0 -47 -7 -77 -35 l-37 -34 65 -1 c37 0 76 -7 90 -15
14 -8 37 -14 52 -15 31 0 34 -4 46 -56 l9 -40 -33 4 -34 4 4 -42 c4 -40 16
-69 16 -38 0 21 37 30 44 11 8 -19 6 -132 -2 -203 l-7 -55 -59 -7 c-47 -6 -74
-3 -127 12 -84 25 -119 52 -119 91 0 22 -5 29 -20 29 -45 0 -80 76 -48 108 15
15 48 -3 48 -26 -1 -16 -2 -16 -14 1 -7 9 -18 17 -25 17 -16 0 -13 -55 4 -70
13 -10 15 -9 15 8 0 12 -4 24 -10 27 -5 3 -10 11 -10 17 0 6 8 4 18 -5 10 -10
22 -14 25 -10 4 3 7 -2 7 -13 0 -10 4 -25 9 -33 6 -9 9 9 8 50 -2 45 4 75 17
102 13 27 17 48 12 76 -4 28 -2 42 9 51 8 7 12 16 9 21 -3 6 12 28 34 49 33
34 46 40 80 40 31 0 45 -5 56 -22z m209 -556 c15 -14 27 -30 27 -35 0 -5 -15
-30 -33 -56 -18 -25 -50 -76 -71 -113 -21 -38 -40 -68 -42 -68 -3 0 16 40 41
88 25 49 45 95 45 103 0 8 -17 32 -38 52 -33 32 -37 42 -34 72 l4 36 37 -27
c20 -15 48 -39 64 -52z m-454 -47 c59 -18 72 -27 51 -40 -15 -9 -12 -101 5
-143 15 -37 15 -37 -35 18 -101 110 -117 134 -123 177 l-5 43 23 -18 c13 -10
50 -27 84 -37z m375 -44 c-3 -9 -11 -31 -16 -49 -5 -19 -11 -32 -12 -30 -2 1
-6 29 -9 60 l-5 57 24 -11 c17 -8 23 -17 18 -27z m121 -71 c4 -6 -2 -7 -16 -1
-13 4 -25 14 -27 20 -3 10 0 10 16 2 12 -6 24 -16 27 -21z m-569 -46 c29 -20
77 -45 106 -55 61 -20 62 -22 73 -163 l7 -97 -79 5 -78 5 79 -11 79 -11 -6
-137 c-5 -143 -66 -720 -76 -731 -10 -11 -111 -20 -111 -11 0 5 15 13 33 18
l32 10 3 103 3 103 -68 -55 c-37 -31 -69 -54 -71 -53 -1 2 14 38 34 82 20 43
54 127 75 187 21 59 49 127 60 150 17 31 18 39 6 28 -36 -29 -78 -109 -113
-213 -20 -60 -38 -108 -40 -106 -1 2 8 46 21 98 14 52 25 97 25 98 0 2 -18
-11 -40 -28 l-40 -32 -1 49 c-1 26 -6 77 -13 113 l-11 65 47 100 c54 113 60
137 21 82 -14 -20 -28 -35 -30 -33 -2 2 3 44 13 92 13 68 15 119 11 214 -4 69
-9 135 -13 148 -9 30 1 28 62 -14z m-84 -15 c2 -22 2 -42 -1 -45 -2 -2 -19 -4
-38 -4 -30 0 -33 3 -33 30 0 22 7 33 28 44 38 21 39 21 44 -25z m728 0 c0 -11
-4 -17 -10 -14 -5 3 -10 15 -10 26 0 11 5 17 10 14 6 -3 10 -15 10 -26z m-21
-86 c12 -60 24 -116 26 -125 3 -16 -6 -18 -63 -19 -37 -1 -94 -5 -127 -9 -44
-5 -21 -7 87 -6 81 0 148 2 148 4 0 2 -7 10 -15 18 -11 12 -15 41 -15 124 l0
109 50 -26 c36 -19 50 -32 50 -47 0 -22 0 -25 -54 -336 -30 -168 -36 -232 -37
-355 l-1 -150 -15 55 c-8 30 -14 98 -14 150 0 104 -12 149 -22 80 -3 -23 -8
-44 -11 -47 -3 -3 -20 4 -38 15 -18 11 -43 23 -56 27 l-22 6 19 -33 c25 -41
82 -190 76 -196 -2 -2 -12 12 -22 32 -14 31 -18 34 -24 19 -8 -22 -3 -32 84
-166 69 -107 70 -109 54 -135 -15 -26 -19 -27 -99 -26 -81 2 -82 2 -39 -10 50
-13 68 -36 24 -29 -24 3 -25 2 -8 -6 11 -6 37 -17 58 -25 20 -8 37 -20 37 -27
0 -6 -7 -8 -15 -5 -9 3 -52 15 -97 26 -45 11 -82 21 -83 23 -3 2 -24 212 -50
486 -8 85 -19 240 -24 344 -8 159 -7 195 5 218 11 23 184 148 205 149 4 0 16
-48 28 -107z m-219 87 c0 -12 -23 -63 -31 -70 -28 -22 -9 -415 42 -878 22
-201 22 -227 -1 -212 -28 18 -97 841 -88 1065 3 73 5 80 28 92 30 15 50 17 50
3z m-574 -56 c8 -46 -1 -241 -13 -273 -11 -28 -7 -34 -50 84 -14 39 -36 91
-49 117 l-24 47 53 29 c28 17 57 30 64 31 7 0 15 -15 19 -35z m411 16 c19 0
23 -3 15 -12 -6 -8 -12 -172 -16 -413 -6 -380 -24 -717 -39 -741 -4 -7 -23
-14 -42 -16 l-35 -4 5 51 c8 70 33 295 51 455 18 151 23 468 11 604 -7 80 -7
88 8 82 9 -3 28 -6 42 -6z m634 -200 c16 -35 37 -72 47 -83 15 -17 13 -17 -37
3 -84 33 -84 17 -1 -24 41 -20 71 -36 67 -36 -4 0 15 -44 41 -97 27 -54 55
-114 62 -132 8 -19 26 -46 41 -60 23 -23 30 -48 63 -221 20 -107 39 -206 42
-219 5 -23 3 -23 -36 -17 -27 4 -39 3 -35 -4 3 -5 19 -10 35 -10 32 0 39 -8
50 -56 8 -33 7 -34 -19 -26 -14 4 -49 7 -78 7 -40 0 -49 3 -41 13 6 6 25 12
42 13 26 0 28 2 11 9 -11 5 -32 9 -47 9 -32 1 -30 13 14 79 34 50 27 54 -18
11 l-33 -32 15 47 c7 25 21 67 29 94 16 52 17 58 10 50 -3 -3 -18 -42 -34 -87
l-29 -82 -7 48 c-7 48 -58 255 -69 283 -5 11 8 24 44 45 27 17 50 33 50 37 0
8 -67 -10 -103 -29 -16 -8 -31 -12 -34 -10 -6 6 41 39 95 66 38 20 41 23 27
37 -8 9 -15 19 -15 24 0 17 -103 199 -116 204 -7 3 4 -24 26 -59 22 -35 53
-91 69 -124 34 -66 31 -71 -38 -71 -26 0 -44 7 -58 23 -26 28 -93 152 -127
234 l-26 62 17 125 18 124 28 -52 c16 -28 42 -80 58 -116z m-941 146 c0 -8
-14 -15 -35 -18 -34 -4 -50 14 -22 25 25 11 57 7 57 -7z m-210 -111 c16 -49
30 -99 30 -112 0 -29 -55 -142 -123 -250 -50 -81 -53 -83 -91 -83 l-39 0 42
-31 c24 -17 40 -33 37 -36 -3 -3 -28 4 -55 16 -27 11 -60 21 -73 21 -23 -1
-23 -1 5 -25 15 -14 34 -25 41 -25 7 0 22 -18 35 -40 l22 -40 -55 -140 c-31
-77 -56 -148 -56 -158 0 -23 -27 -153 -33 -159 -3 -2 -15 1 -27 7 -18 10 -21
18 -16 43 3 18 14 39 25 48 15 12 18 28 18 85 l-1 69 -9 -55 c-5 -30 -17 -73
-28 -96 -10 -23 -19 -48 -19 -57 0 -21 -17 -30 -71 -37 l-46 -6 9 51 c31 179
100 411 139 466 10 15 19 36 19 48 0 11 13 35 29 53 15 18 32 44 36 58 4 13
27 64 51 114 24 49 44 95 44 102 0 7 9 15 20 19 33 10 144 89 132 93 -7 2 -37
-8 -68 -22 -31 -14 -58 -26 -61 -26 -2 0 5 12 16 28 10 15 31 62 46 105 16 43
32 74 36 70 5 -5 22 -49 39 -98z m201 68 c4 -49 -4 -137 -18 -215 -14 -80 -17
-88 -37 -88 -32 0 -34 5 -24 58 5 26 13 92 19 146 5 55 12 103 15 108 10 15
44 8 45 -9z m-46 -324 c4 -6 5 -13 2 -15 -7 -8 -57 7 -57 17 0 13 47 11 55 -2z
m-26 -78 c7 -5 9 -11 4 -14 -13 -8 -53 3 -53 14 0 11 31 11 49 0z m-29 -109
c0 -15 -5 -34 -10 -42 -7 -11 -10 -2 -10 33 0 30 4 46 10 42 6 -3 10 -18 10
-33z m-13 -164 c-2 -18 -4 -4 -4 32 0 36 2 50 4 33 2 -18 2 -48 0 -65z m-7
-62 c0 -2 -11 -6 -25 -8 -13 -3 -22 -1 -19 3 5 9 44 13 44 5z m12 -148 c-2
-35 -7 -85 -11 -113 -7 -46 -8 -41 -15 57 -6 87 -11 108 -24 111 -10 3 -1 5
19 6 l35 1 -4 -62z m-84 -155 c-4 -104 -12 -231 -17 -283 -7 -73 -8 -47 -3
110 3 113 5 231 3 263 -2 58 5 97 17 97 4 0 4 -84 0 -187z m382 -32 c0 -15
-11 -22 -50 -30 -64 -14 -62 -14 -58 6 2 11 20 21 53 29 28 6 51 12 53 13 1 0
2 -8 2 -18z m1113 -51 c10 -10 5 -11 -22 -6 -18 3 -53 6 -77 6 -26 0 -44 5
-44 11 0 16 128 5 143 -11z m-1842 -20 c10 -6 19 -17 19 -24 0 -11 -8 -12 -38
-4 -25 6 -57 6 -93 0 -60 -11 -68 -9 -50 12 21 24 126 35 162 16z m1800 -31
c12 -6 19 -21 19 -37 0 -15 6 -60 14 -100 12 -62 12 -71 0 -61 -18 15 -37 0
-54 -41 -20 -47 -30 -35 -15 17 8 26 13 49 10 51 -5 6 -35 -55 -35 -72 0 -18
-60 -76 -79 -76 -9 0 -4 9 12 24 14 13 29 40 32 60 8 43 -2 143 -16 151 -5 4
-9 0 -9 -7 0 -7 -9 -19 -20 -26 -11 -7 -20 -20 -20 -30 0 -24 -28 -62 -46 -62
-11 0 -12 4 -4 19 5 11 10 30 10 43 0 26 47 111 80 147 19 19 29 22 63 17 22
-4 48 -11 58 -17z m-584 3 c17 -6 -6 -20 -113 -71 -74 -35 -136 -62 -138 -60
-2 2 -7 29 -10 61 l-7 56 63 10 c73 11 173 13 205 4z m-273 -49 c12 -73 8 -93
-20 -103 -50 -19 -54 -15 -54 59 0 58 3 70 18 74 42 11 49 7 56 -30z m361 -30
c51 -109 86 -205 120 -336 28 -109 65 -289 65 -320 0 -4 -19 2 -42 14 l-43 21
48 -49 48 -50 -11 -114 c-7 -63 -13 -115 -15 -117 -2 -2 -6 25 -10 60 -9 76
-18 102 -52 147 l-26 34 -27 -59 c-25 -52 -80 -137 -80 -122 0 3 7 25 16 49 8
24 21 75 29 113 l13 68 -32 -31 c-18 -17 -35 -31 -38 -31 -3 0 -9 24 -13 53
-7 48 -39 149 -55 172 -4 6 -24 41 -45 79 l-38 69 74 -52 c41 -28 98 -73 128
-99 l54 -47 -60 80 c-33 44 -89 123 -126 176 l-66 96 60 29 c33 15 62 31 65
35 2 4 -29 0 -69 -7 -146 -28 -148 -28 -73 10 72 36 108 63 71 53 -11 -3 -38
-8 -60 -12 -22 -3 -49 -8 -60 -11 -11 -3 12 11 50 31 87 43 52 36 -80 -17 -55
-23 -152 -60 -216 -83 -106 -40 -222 -93 -174 -81 226 58 219 58 210 9 -8 -49
-105 -346 -111 -341 -2 2 8 57 21 121 14 64 25 125 24 135 -2 30 -38 -95 -65
-227 -27 -131 -80 -302 -119 -384 l-22 -48 28 -39 c16 -22 29 -48 29 -59 0
-11 5 -21 11 -23 7 -2 7 -11 -1 -29 -11 -24 6 -98 77 -342 5 -15 1 -18 -17
-15 -20 3 -25 13 -41 93 -10 50 -35 141 -55 202 -29 86 -35 116 -26 125 8 8
15 8 29 -3 17 -13 17 -13 4 6 -8 11 -32 38 -53 61 l-38 40 24 75 c23 72 52
226 43 235 -2 2 -14 -41 -26 -97 -13 -55 -24 -99 -26 -97 -12 12 -45 404 -46
548 -2 157 1 184 21 252 26 88 41 98 111 72 41 -14 49 -14 131 7 48 13 89 21
92 18 2 -2 7 -34 10 -70 l7 -66 -115 -23 c-64 -12 -116 -25 -116 -28 0 -3 51
-2 113 1 121 6 138 11 282 85 191 97 221 111 236 112 11 0 27 -22 44 -57z
m-1280 -4 c45 -54 65 -104 65 -164 0 -30 -4 -55 -10 -55 -9 0 -12 8 -24 70 -2
14 -11 43 -19 64 -13 36 -15 38 -22 17 -8 -26 -35 -61 -47 -61 -5 0 -8 10 -9
23 -1 27 -24 -55 -48 -176 -10 -48 -21 -90 -24 -94 -16 -15 -18 11 -8 92 6 47
7 107 4 133 l-7 47 -7 -45 c-4 -25 -8 -72 -8 -105 -1 -73 -21 -57 -21 17 0 26
-4 57 -9 70 -11 29 24 148 48 163 65 42 113 43 146 4z m1791 -166 c-8 -15 -15
-25 -16 -21 0 12 23 58 27 54 3 -2 -2 -17 -11 -33z m-1999 -35 c-3 -7 -5 -2
-5 12 0 14 2 19 5 13 2 -7 2 -19 0 -25z m500 10 c-3 -8 -6 -5 -6 6 -1 11 2 17
5 13 3 -3 4 -12 1 -19z m-370 -55 c-3 -10 -5 -2 -5 17 0 19 2 27 5 18 2 -10 2
-26 0 -35z m-10 -45 c-3 -8 -6 -5 -6 6 -1 11 2 17 5 13 3 -3 4 -12 1 -19z
m1062 -128 c13 -36 45 -109 72 -163 38 -77 49 -109 49 -147 0 -33 6 -55 21
-74 11 -14 17 -31 13 -38 -4 -6 -8 -32 -10 -57 -1 -25 -5 -89 -9 -141 -6 -80
-4 -108 14 -176 20 -79 20 -84 4 -128 -17 -45 -17 -46 6 -70 l24 -25 -21 -48
c-16 -38 -18 -52 -9 -68 6 -11 15 -58 18 -105 4 -47 9 -94 11 -104 3 -17 -11
-23 -107 -47 -191 -46 -179 -45 -171 -18 4 13 8 81 9 150 2 94 6 130 17 144
13 15 12 22 -7 57 -12 21 -20 45 -17 53 3 7 0 24 -7 36 -10 19 -16 128 -18
344 0 16 -6 42 -12 58 -9 22 -9 34 1 55 7 15 14 79 16 142 2 63 10 142 18 175
50 228 62 273 67 267 3 -4 16 -36 28 -72z m-1129 -22 c0 -9 -4 -19 -8 -22 -4
-2 -8 11 -8 30 0 20 3 29 8 21 4 -6 8 -20 8 -29z m1616 -597 c4 -13 -5 -83
-19 -155 -14 -72 -24 -143 -21 -157 5 -22 2 -27 -21 -33 -15 -4 -29 -6 -30 -4
-2 2 7 78 19 171 l22 167 -23 22 c-28 26 -28 35 -6 60 17 19 18 19 45 -14 15
-18 31 -44 34 -57z m-106 -432 c0 -20 -4 -21 -55 -16 -99 10 -86 31 23 36 26
1 32 -3 32 -20z m0 -49 c0 -15 -45 -30 -86 -30 -39 0 -44 12 -11 28 28 14 97
15 97 2z m4 -65 c4 -11 -2 -15 -27 -15 -18 0 -43 -9 -57 -20 -14 -11 -28 -20
-33 -20 -11 0 21 57 35 63 28 12 76 7 82 -8z m-506 -27 c-3 -7 -15 -14 -29
-16 -23 -2 -23 -2 -5 13 24 18 39 20 34 3z m517 -27 c-34 -14 -89 -33 -110
-38 -16 -4 -15 0 8 21 22 21 38 26 75 25 34 0 41 -3 27 -8z m-525 -61 c0 -56
1 -55 -35 -38 -29 13 -33 28 -8 28 13 0 14 3 5 12 -18 18 -14 27 11 22 16 -3
14 -1 -8 10 l-30 15 33 1 c32 0 32 0 32 -50z m585 26 c19 -8 35 -20 35 -25 0
-12 -129 -15 -169 -4 -23 6 -23 6 10 24 42 22 79 24 124 5z m-599 -102 c18
-14 18 -15 -6 -8 -14 3 -32 10 -40 15 -12 7 -11 8 6 9 11 0 29 -7 40 -16z
m-143 -31 c-7 -2 -19 -2 -25 0 -7 3 -2 5 12 5 14 0 19 -2 13 -5z m-13 -34 c-8
-5 -36 -21 -62 -35 -27 -13 -48 -29 -48 -35 0 -5 -4 -8 -10 -4 -12 8 6 54 28
71 9 8 37 13 62 14 34 0 41 -3 30 -11z"/>
<path d="M2475 4334 c-17 -26 -17 -27 1 -19 11 4 30 9 44 12 25 4 25 4 -2 -12
-37 -21 -35 -25 8 -25 22 0 33 4 29 11 -4 6 2 13 14 16 26 7 28 33 2 33 -10 0
-32 3 -48 6 -25 5 -33 1 -48 -22z"/>
<path d="M2657 4223 c-5 -7 -21 -13 -38 -13 -16 0 -29 -5 -29 -11 0 -5 5 -7
11 -4 5 4 18 0 28 -9 16 -15 20 -15 30 -2 7 8 11 23 9 33 -2 13 -6 15 -11 6z"/>
<path d="M2558 4123 c6 -2 18 -2 25 0 6 3 1 5 -13 5 -14 0 -19 -2 -12 -5z"/>
<path d="M2648 4123 c7 -3 16 -2 19 1 4 3 -2 6 -13 5 -11 0 -14 -3 -6 -6z"/>
<path d="M2263 3473 c9 -2 23 -2 30 0 6 3 -1 5 -18 5 -16 0 -22 -2 -12 -5z"/>
<path d="M2795 3485 c-93 -16 -43 -17 65 0 50 7 68 13 45 13 -22 0 -71 -6
-110 -13z"/>
<path d="M2688 3463 c6 -2 18 -2 25 0 6 3 1 5 -13 5 -14 0 -19 -2 -12 -5z"/>
<path d="M2766 3288 c4 -46 11 -92 16 -103 5 -13 7 6 3 50 -3 39 -5 85 -5 103
0 17 -5 32 -10 32 -7 0 -8 -29 -4 -82z"/>
<path d="M2828 2763 c40 -57 124 -115 121 -85 0 4 -32 32 -72 62 -63 48 -69
51 -49 23z"/>
<path d="M1775 3170 c-16 -7 -17 -9 -3 -9 9 -1 20 4 23 9 7 11 7 11 -20 0z"/>
<path d="M3843 1528 c-173 -208 -209 -257 -351 -470 -164 -247 -204 -309 -199
-314 2 -2 68 94 148 213 147 222 260 379 334 468 73 88 196 245 191 245 -3 0
-58 -64 -123 -142z"/>
<path d="M1337 743 c-61 -287 -77 -369 -75 -382 2 -9 23 78 46 193 24 114 41
210 39 212 -2 3 -7 -8 -10 -23z"/>
<path d="M1282 690 c0 -14 2 -19 5 -12 2 6 2 18 0 25 -3 6 -5 1 -5 -13z"/>
<path d="M3005 540 c-33 -16 -166 -81 -295 -143 -129 -62 -342 -170 -472 -241
l-238 -127 -35 27 c-19 14 -35 28 -35 31 0 9 677 331 770 366 8 3 10 6 3 6
-19 1 -215 -77 -503 -201 -146 -63 -357 -146 -470 -184 l-205 -69 464 -3 464
-2 91 54 c50 29 176 102 281 161 104 59 200 114 212 122 13 9 23 13 23 11 0
-11 -231 -154 -440 -273 -47 -27 -94 -55 -105 -62 -16 -11 138 -13 929 -13
818 0 947 2 936 15 -6 7 -17 12 -23 9 -7 -2 -23 6 -37 18 -14 13 -19 19 -10
13 39 -25 -36 46 -149 143 -123 104 -125 105 -155 93 -17 -7 -42 -15 -56 -18
-14 -3 -91 -50 -172 -105 -82 -54 -148 -97 -148 -95 0 6 241 192 266 205 12 6
23 10 26 9 18 -8 -122 118 -142 128 -34 17 -207 59 -435 105 -275 55 -269 55
-340 20z m523 -76 c63 -13 121 -28 129 -32 11 -7 -9 -23 -79 -64 -94 -56 -328
-179 -328 -173 0 2 28 20 63 41 108 65 267 174 267 183 0 7 -45 16 -263 48
-40 6 -39 18 3 26 32 5 69 0 208 -29z m-168 -78 c0 -2 -97 -57 -216 -121 -120
-65 -232 -126 -250 -137 -19 -11 -34 -18 -34 -15 0 9 214 130 445 251 52 27
55 28 55 22z m-435 -14 c-43 -38 -290 -198 -280 -182 7 11 274 190 283 190 3
0 2 -4 -3 -8z m1241 -198 c63 -48 117 -91 120 -95 13 -22 -19 -3 -120 71
l-109 79 -41 -33 c-48 -39 -196 -139 -196 -132 0 5 220 196 227 196 2 0 56
-39 119 -86z"/>
<path d="M1252 320 c0 -14 2 -19 5 -12 2 6 2 18 0 25 -3 6 -5 1 -5 -13z"/>
<path d="M1413 87 c-62 -28 -111 -52 -109 -54 4 -4 130 48 191 80 81 42 39 29
-82 -26z"/>
<path d="M1062 43 c-24 -8 -41 -17 -39 -19 4 -5 97 26 97 32 0 6 -11 4 -58
-13z"/>
</g>
</svg>