<?xml version="1.0" standalone="no"?>
<!DOCTYPE svg PUBLIC "-//W3C//DTD SVG 20010904//EN"
 "http://www.w3.org/TR/2001/REC-SVG-20010904/DTD/svg10.dtd">
<svg version="1.0" xmlns="http://www.w3.org/2000/svg"
 width="512.000000pt" height="512.000000pt" viewBox="0 0 512.000000 512.000000"
 preserveAspectRatio="xMidYMid meet">
<metadata>
Created by potrace 1.16, written by Peter Selinger 2001-2019
</metadata>
<g transform="translate(0.000000,512.000000) scale(0.100000,-0.100000)"
fill="#000000" stroke="none">
<path d="M0 4240 c0 -968 -5 -895 59 -891 14 1 58 4 96 6 39 3 138 7 220 9 83
2 179 8 215 12 36 4 70 6 75 4 6 -1 21 -2 35 -1 94 4 127 4 138 -3 7 -4 12 -2
12 4 0 7 6 10 13 7 6 -2 22 0 35 4 13 5 21 6 19 1 -5 -8 64 -8 79 0 13 7 67 4
82 -5 7 -5 12 -3 12 4 0 9 3 9 14 0 8 -7 17 -8 20 -3 3 5 32 8 63 5 119 -8
293 -8 293 0 0 5 10 5 21 2 37 -12 84 -12 91 -1 5 8 14 7 28 -2 15 -9 25 -10
34 -3 7 6 17 6 26 1 8 -5 22 -5 32 1 10 6 23 7 29 3 18 -11 198 -13 205 -3 3
6 19 7 35 4 19 -4 29 -3 29 5 0 9 4 9 13 3 17 -14 110 -16 102 -3 -3 5 1 10
10 10 9 0 14 -4 11 -8 -3 -5 1 -9 9 -9 8 0 15 3 15 6 0 3 89 6 197 6 123 0
215 5 245 12 33 9 56 10 74 3 14 -6 30 -7 36 -4 6 4 34 7 64 7 30 0 54 3 54 8
0 4 9 7 20 6 11 -1 20 -4 20 -8 0 -4 8 -6 18 -4 44 8 149 19 172 19 14 0 28 4
32 10 6 8 8 8 8 0 0 -16 357 -12 387 4 36 20 40 13 5 -8 -24 -15 -50 -20 -101
-20 -43 0 -90 -7 -123 -19 -63 -22 -194 -43 -261 -41 -26 0 -85 -8 -130 -20
-115 -30 -340 -101 -352 -111 -10 -10 57 8 178 48 126 41 186 54 287 63 139
14 262 34 290 50 13 7 59 14 101 15 55 1 88 8 122 24 28 14 67 23 104 24 32 1
60 5 63 8 3 3 17 9 33 13 22 5 27 3 27 -12 0 -18 8 -19 102 -16 56 2 106 0
112 -4 16 -9 79 -10 92 0 7 5 33 4 59 -2 25 -6 52 -7 58 -3 7 4 102 8 212 9
110 1 220 5 244 9 70 12 231 14 231 3 0 -7 5 -6 13 0 8 7 32 9 56 6 32 -4 41
-2 35 7 -5 8 -3 9 5 4 21 -13 135 -12 149 1 8 9 12 51 12 139 0 115 -2 127
-17 121 -9 -4 -55 -16 -102 -28 -47 -12 -90 -26 -94 -32 -6 -7 -7 -6 -5 3 4
13 30 22 176 60 l42 12 0 159 c0 88 -3 160 -6 160 -4 0 -81 -36 -173 -81 -325
-158 -466 -218 -572 -245 -57 -15 -107 -32 -111 -38 -4 -6 -10 -7 -15 -3 -12
13 14 24 106 47 47 11 109 29 136 40 55 20 376 170 534 250 l101 50 0 325 0
325 -108 -108 c-103 -103 -264 -239 -327 -277 -28 -16 -28 -15 5 14 19 17 40
31 45 31 6 0 3 4 -5 10 -8 5 -11 13 -6 17 5 4 11 2 13 -4 7 -20 114 67 256
208 l127 126 -1 177 -1 176 -37 0 c-36 0 -45 -7 -170 -146 -82 -91 -130 -151
-127 -160 3 -8 9 -20 12 -28 8 -21 -73 -76 -112 -76 -19 0 -44 -10 -61 -23
-15 -13 -44 -33 -63 -44 -19 -12 -47 -35 -63 -51 l-27 -29 35 -19 c19 -10 35
-22 35 -26 0 -8 -42 -38 -360 -255 -221 -151 -620 -412 -665 -435 -53 -28 16
21 200 140 313 201 797 532 802 549 2 5 -10 16 -27 23 -44 18 -35 37 40 92 36
26 77 57 92 68 14 11 39 20 56 20 16 0 44 10 63 23 29 20 34 29 31 58 -2 27 5
42 35 74 122 133 213 234 213 239 0 3 -182 6 -404 6 l-404 0 -80 -77 c-44 -43
-115 -105 -157 -138 -105 -82 -251 -233 -248 -257 2 -11 -1 -16 -7 -13 -5 3
-25 -9 -43 -27 -79 -79 -314 -281 -387 -332 -38 -27 30 40 72 71 27 19 45 40
41 45 -3 6 -1 8 5 5 14 -9 302 243 302 264 0 5 77 89 153 167 6 7 46 39 87 71
41 32 113 95 159 140 l84 81 -114 0 -114 0 -83 -108 c-45 -59 -94 -122 -108
-139 -22 -27 -24 -36 -14 -48 11 -13 9 -15 -7 -13 -13 2 -39 -18 -80 -63 -33
-37 -63 -73 -65 -80 -3 -8 -8 -11 -12 -8 -4 4 21 38 54 75 34 38 69 80 78 94
9 14 53 70 97 125 44 55 91 115 103 133 l23 32 -209 0 -210 0 -16 -41 c-9 -23
-19 -39 -22 -36 -3 3 2 19 10 36 9 16 16 32 16 36 0 3 -40 5 -90 5 -53 0 -90
-4 -90 -10 0 -5 -5 -10 -11 -10 -5 0 -7 5 -4 10 3 6 -5 10 -19 10 -13 0 -27
-6 -29 -12 -4 -10 -6 -10 -6 0 -1 9 -47 12 -197 12 l-195 0 -17 -42 c-27 -68
-164 -339 -169 -335 -2 3 23 56 56 118 50 94 111 235 111 254 0 3 -643 5
-1430 5 l-1430 0 0 -880z m592 855 c0 -5 -5 -11 -11 -13 -6 -2 -11 4 -11 13 0
9 5 15 11 13 6 -2 11 -8 11 -13z m128 5 c0 -5 -7 -7 -15 -4 -8 4 -15 8 -15 10
0 2 7 4 15 4 8 0 15 -4 15 -10z m-212 -11 c-2 -6 -8 -10 -13 -10 -5 0 -11 4
-13 10 -2 6 4 11 13 11 9 0 15 -5 13 -11z m858 0 c10 -17 -13 -36 -27 -22 -12
12 -4 33 11 33 5 0 12 -5 16 -11z m84 1 c0 -5 -4 -10 -10 -10 -5 0 -10 5 -10
10 0 6 5 10 10 10 6 0 10 -4 10 -10z m1270 -5 c0 -8 -4 -15 -10 -15 -5 0 -10
7 -10 15 0 8 5 15 10 15 6 0 10 -7 10 -15z m735 -15 c3 -5 1 -10 -4 -10 -6 0
-11 5 -11 10 0 6 2 10 4 10 3 0 8 -4 11 -10z m325 0 c0 -5 -4 -10 -10 -10 -5
0 -10 5 -10 10 0 6 5 10 10 10 6 0 10 -4 10 -10z m-3080 -10 c0 -5 -4 -10 -10
-10 -5 0 -10 5 -10 10 0 6 5 10 10 10 6 0 10 -4 10 -10z m1330 0 c0 -5 -2 -10
-4 -10 -3 0 -8 5 -11 10 -3 6 -1 10 4 10 6 0 11 -4 11 -10z m230 0 c0 -5 -4
-10 -10 -10 -5 0 -10 5 -10 10 0 6 5 10 10 10 6 0 10 -4 10 -10z m410 -10 c0
-5 -2 -10 -4 -10 -3 0 -8 5 -11 10 -3 6 -1 10 4 10 6 0 11 -4 11 -10z m405
-11 c0 -7 -8 -15 -17 -17 -18 -3 -25 18 -11 32 10 10 28 1 28 -15z m1315 11
c0 -5 -5 -10 -11 -10 -5 0 -7 5 -4 10 3 6 8 10 11 10 2 0 4 -4 4 -10z m-3655
-20 c3 -5 1 -10 -4 -10 -6 0 -11 5 -11 10 0 6 2 10 4 10 3 0 8 -4 11 -10z
m285 0 c0 -5 -4 -10 -10 -10 -5 0 -10 5 -10 10 0 6 5 10 10 10 6 0 10 -4 10
-10z m2690 0 c0 -5 -4 -10 -10 -10 -5 0 -10 5 -10 10 0 6 5 10 10 10 6 0 10
-4 10 -10z m1015 0 c3 -5 -1 -10 -9 -10 -9 0 -16 5 -16 10 0 6 4 10 9 10 6 0
13 -4 16 -10z m-1230 -9 c3 -5 1 -12 -5 -16 -5 -3 -10 1 -10 9 0 18 6 21 15 7z
m-1975 -11 c0 -5 -4 -10 -10 -10 -5 0 -10 5 -10 10 0 6 5 10 10 10 6 0 10 -4
10 -10z m195 0 c3 -5 1 -10 -4 -10 -6 0 -11 5 -11 10 0 6 2 10 4 10 3 0 8 -4
11 -10z m375 -6 c0 -8 -5 -12 -10 -9 -6 4 -8 11 -5 16 9 14 15 11 15 -7z m130
12 c0 -3 -4 -8 -10 -11 -5 -3 -10 -1 -10 4 0 6 5 11 10 11 6 0 10 -2 10 -4z
m1184 -27 c-3 -5 -10 -7 -15 -3 -5 3 -7 10 -3 15 3 5 10 7 15 3 5 -3 7 -10 3
-15z m1444 0 c-2 -6 -8 -10 -13 -10 -5 0 -11 4 -13 10 -2 6 4 11 13 11 9 0 15
-5 13 -11z m-1425 -121 c-60 -107 -167 -241 -270 -338 l-58 -55 62 65 c117
123 202 235 260 342 32 60 59 104 61 99 1 -4 -23 -55 -55 -113z m-813 86 c0
-8 -4 -12 -10 -9 -5 3 -10 13 -10 21 0 8 5 12 10 9 6 -3 10 -13 10 -21z m-30
7 c0 -5 3 -18 7 -28 6 -16 5 -16 -10 -4 -19 15 -23 41 -7 41 6 0 10 -4 10 -9z
m-2034 -28 c-10 -10 -19 5 -10 18 6 11 8 11 12 0 2 -7 1 -15 -2 -18z m944 9
c0 -13 -12 -22 -22 -16 -10 6 -1 24 13 24 5 0 9 -4 9 -8z m1480 -12 c0 -11 -6
-20 -14 -20 -18 0 -29 16 -21 30 11 18 35 11 35 -10z m1550 -6 c0 -8 -7 -14
-15 -14 -15 0 -21 21 -9 33 10 9 24 -2 24 -19z m400 22 c0 -3 -4 -8 -10 -11
-5 -3 -10 -1 -10 4 0 6 5 11 10 11 6 0 10 -2 10 -4z m-4542 -18 c-6 -18 -28
-21 -28 -4 0 9 7 16 16 16 9 0 14 -5 12 -12z m1762 2 c0 -5 -4 -10 -10 -10 -5
0 -10 5 -10 10 0 6 5 10 10 10 6 0 10 -4 10 -10z m1528 -1 c-2 -6 -8 -10 -13
-10 -5 0 -11 4 -13 10 -2 6 4 11 13 11 9 0 15 -5 13 -11z m-2638 -19 c0 -5 -2
-10 -4 -10 -3 0 -8 5 -11 10 -3 6 -1 10 4 10 6 0 11 -4 11 -10z m3160 0 c0 -5
-2 -10 -4 -10 -3 0 -8 5 -11 10 -3 6 -1 10 4 10 6 0 11 -4 11 -10z m602 -5 c0
-5 -5 -11 -11 -13 -6 -2 -11 4 -11 13 0 9 5 15 11 13 6 -2 11 -8 11 -13z
m-1452 -9 c0 -8 -4 -17 -8 -20 -13 -8 -35 11 -28 23 10 16 36 14 36 -3z
m-2440 -6 c0 -5 -4 -10 -10 -10 -5 0 -10 5 -10 10 0 6 5 10 10 10 6 0 10 -4
10 -10z m350 0 c0 -5 -4 -10 -10 -10 -5 0 -10 5 -10 10 0 6 5 10 10 10 6 0 10
-4 10 -10z m-460 -10 c0 -5 -2 -10 -4 -10 -3 0 -8 5 -11 10 -3 6 -1 10 4 10 6
0 11 -4 11 -10z m720 -15 c0 -8 -7 -15 -15 -15 -8 0 -15 7 -15 15 0 8 7 15 15
15 8 0 15 -7 15 -15z m160 11 c0 -3 -4 -8 -10 -11 -5 -3 -10 -1 -10 4 0 6 5
11 10 11 6 0 10 -2 10 -4z m1040 -6 c0 -5 -2 -10 -4 -10 -3 0 -8 5 -11 10 -3
6 -1 10 4 10 6 0 11 -4 11 -10z m-950 -10 c0 -5 -4 -10 -10 -10 -5 0 -10 5
-10 10 0 6 5 10 10 10 6 0 10 -4 10 -10z m-333 -26 c-9 -9 -28 6 -21 18 4 6
10 6 17 -1 6 -6 8 -13 4 -17z m3563 16 c0 -5 -4 -10 -10 -10 -5 0 -10 5 -10
10 0 6 5 10 10 10 6 0 10 -4 10 -10z m-2450 -15 c0 -8 -4 -15 -9 -15 -13 0
-22 16 -14 24 11 11 23 6 23 -9z m315 6 c3 -5 1 -12 -5 -16 -5 -3 -10 1 -10 9
0 18 6 21 15 7z m-225 -17 c0 -17 -22 -14 -28 4 -2 7 3 12 12 12 9 0 16 -7 16
-16z m1000 6 c0 -5 -4 -10 -10 -10 -5 0 -10 5 -10 10 0 6 5 10 10 10 6 0 10
-4 10 -10z m-510 -14 c0 -20 -19 -31 -32 -18 -6 6 -7 15 -4 21 10 16 36 13 36
-3z m-1220 -9 c0 -8 -3 -17 -7 -20 -9 -9 -34 13 -27 24 8 14 34 11 34 -4z
m238 -5 c2 -7 -3 -12 -12 -12 -9 0 -16 7 -16 16 0 17 22 14 28 -4z m1462 -16
c0 -11 -19 -15 -25 -6 -3 5 1 10 9 10 9 0 16 -2 16 -4z m-3420 -26 c22 -40
-26 -80 -58 -48 -25 25 -6 68 30 68 9 0 22 -9 28 -20z m2140 -1 c0 -5 -7 -9
-15 -9 -15 0 -20 12 -9 23 8 8 24 -1 24 -14z m2350 7 c0 -3 -4 -8 -10 -11 -5
-3 -10 -1 -10 4 0 6 5 11 10 11 6 0 10 -2 10 -4z m-4270 -16 c0 -5 -4 -10 -10
-10 -5 0 -10 5 -10 10 0 6 5 10 10 10 6 0 10 -4 10 -10z m4080 -15 c0 -8 -4
-15 -9 -15 -13 0 -22 16 -14 24 11 11 23 6 23 -9z m-3870 -26 c0 -5 -4 -9 -10
-9 -5 0 -10 7 -10 16 0 8 5 12 10 9 6 -3 10 -10 10 -16z m2072 -22 c-8 -28 -7
-37 4 -41 8 -3 13 -18 13 -33 -1 -21 -3 -23 -6 -8 -3 11 -11 27 -19 35 -11 13
-11 23 -2 53 14 47 23 41 10 -6z m488 23 c0 -5 -4 -10 -10 -10 -5 0 -10 5 -10
10 0 6 5 10 10 10 6 0 10 -4 10 -10z m-1735 -10 c3 -5 1 -10 -4 -10 -6 0 -11
5 -11 10 0 6 2 10 4 10 3 0 8 -4 11 -10z m2071 -17 c-10 -10 -19 5 -10 18 6
11 8 11 12 0 2 -7 1 -15 -2 -18z m-2312 -4 c-3 -5 -10 -7 -15 -3 -5 3 -7 10
-3 15 3 5 10 7 15 3 5 -3 7 -10 3 -15z m116 1 c0 -5 -4 -10 -10 -10 -5 0 -10
5 -10 10 0 6 5 10 10 10 6 0 10 -4 10 -10z m320 0 c0 -5 -4 -10 -10 -10 -5 0
-10 5 -10 10 0 6 5 10 10 10 6 0 10 -4 10 -10z m-1050 -10 c0 -5 -4 -10 -10
-10 -5 0 -10 5 -10 10 0 6 5 10 10 10 6 0 10 -4 10 -10z m1980 -6 c0 -8 -5
-12 -10 -9 -6 4 -8 11 -5 16 9 14 15 11 15 -7z m1544 -5 c-3 -5 -10 -7 -15 -3
-5 3 -7 10 -3 15 3 5 10 7 15 3 5 -3 7 -10 3 -15z m-2254 1 c0 -5 -2 -10 -4
-10 -3 0 -8 5 -11 10 -3 6 -1 10 4 10 6 0 11 -4 11 -10z m-1040 -10 c0 -5 -4
-10 -10 -10 -5 0 -10 5 -10 10 0 6 5 10 10 10 6 0 10 -4 10 -10z m2360 -10 c0
-5 -2 -10 -4 -10 -3 0 -8 5 -11 10 -3 6 -1 10 4 10 6 0 11 -4 11 -10z m442 -4
c0 -8 -192 -226 -199 -226 -8 0 61 83 125 152 38 40 61 72 56 79 -4 7 -2 10 5
8 7 -3 13 -8 13 -13z m-2891 -9 c-1 -12 -15 -9 -19 4 -3 6 1 10 8 8 6 -3 11
-8 11 -12z m1059 -2 c0 -8 -4 -15 -10 -15 -5 0 -10 7 -10 15 0 8 5 15 10 15 6
0 10 -7 10 -15z m224 -6 c-3 -5 -10 -7 -15 -3 -5 3 -7 10 -3 15 3 5 10 7 15 3
5 -3 7 -10 3 -15z m876 11 c0 -5 -4 -10 -10 -10 -5 0 -10 5 -10 10 0 6 5 10
10 10 6 0 10 -4 10 -10z m1470 0 c0 -5 -5 -10 -11 -10 -5 0 -7 5 -4 10 3 6 8
10 11 10 2 0 4 -4 4 -10z m-1270 -10 c0 -5 -4 -10 -10 -10 -5 0 -10 5 -10 10
0 6 5 10 10 10 6 0 10 -4 10 -10z m930 -16 c0 -16 -16 -19 -25 -4 -8 13 4 32
16 25 5 -4 9 -13 9 -21z m-3671 2 c26 -31 -25 -79 -53 -50 -19 19 -20 36 -4
52 16 16 43 15 57 -2z m4481 -31 c0 -8 -7 -15 -15 -15 -8 0 -15 7 -15 15 0 8
7 15 15 15 8 0 15 -7 15 -15z m-2139 -27 c-5 -14 -15 -63 -22 -109 -7 -46 -18
-97 -26 -114 -11 -24 -13 -25 -8 -5 4 14 15 70 25 125 10 55 21 108 25 118 11
27 17 13 6 -15z m1409 22 c0 -5 -4 -10 -10 -10 -5 0 -10 5 -10 10 0 6 5 10 10
10 6 0 10 -4 10 -10z m-795 -20 c3 -5 1 -10 -4 -10 -6 0 -11 5 -11 10 0 6 2
10 4 10 3 0 8 -4 11 -10z m-2655 -10 c0 -5 -4 -10 -10 -10 -5 0 -10 5 -10 10
0 6 5 10 10 10 6 0 10 -4 10 -10z m896 -1 c8 -14 -21 -43 -35 -35 -6 4 -11 16
-11 27 0 21 34 27 46 8z m1454 1 c0 -5 -4 -10 -10 -10 -5 0 -10 5 -10 10 0 6
5 10 10 10 6 0 10 -4 10 -10z m-1920 -10 c0 -5 -5 -10 -11 -10 -5 0 -7 5 -4
10 3 6 8 10 11 10 2 0 4 -4 4 -10z m1300 0 c0 -5 -4 -10 -10 -10 -5 0 -10 5
-10 10 0 6 5 10 10 10 6 0 10 -4 10 -10z m-1459 -23 c-13 -13 -26 -3 -16 12 3
6 11 8 17 5 6 -4 6 -10 -1 -17z m984 4 c7 -12 -12 -24 -25 -16 -11 7 -4 25 10
25 5 0 11 -4 15 -9z m1875 -6 c0 -8 -4 -15 -10 -15 -5 0 -10 7 -10 15 0 8 5
15 10 15 6 0 10 -7 10 -15z m-2969 -18 c-13 -13 -26 -3 -16 12 3 6 11 8 17 5
6 -4 6 -10 -1 -17z m1809 19 c0 -11 -19 -15 -25 -6 -3 5 1 10 9 10 9 0 16 -2
16 -4z m-2060 -46 c0 -5 -5 -10 -11 -10 -5 0 -7 5 -4 10 3 6 8 10 11 10 2 0 4
-4 4 -10z m980 -5 c0 -8 -7 -15 -15 -15 -8 0 -15 7 -15 15 0 8 7 15 15 15 8 0
15 -7 15 -15z m1270 -46 c0 -5 -7 -9 -15 -9 -15 0 -20 12 -9 23 8 8 24 -1 24
-14z m740 11 c0 -5 -2 -10 -4 -10 -3 0 -8 5 -11 10 -3 6 -1 10 4 10 6 0 11 -4
11 -10z m-3070 -10 c0 -5 -5 -10 -11 -10 -5 0 -7 5 -4 10 3 6 8 10 11 10 2 0
4 -4 4 -10z m1760 0 c0 -5 -5 -10 -11 -10 -5 0 -7 5 -4 10 3 6 8 10 11 10 2 0
4 -4 4 -10z m816 -62 c-35 -40 -76 -86 -91 -103 -19 -21 -22 -23 -11 -6 18 28
155 181 162 181 3 0 -24 -33 -60 -72z m-2676 52 c0 -5 -2 -10 -4 -10 -3 0 -8
5 -11 10 -3 6 -1 10 4 10 6 0 11 -4 11 -10z m4660 0 c0 -5 -4 -10 -10 -10 -5
0 -10 5 -10 10 0 6 5 10 10 10 6 0 10 -4 10 -10z m-1340 -25 c0 -8 -7 -15 -15
-15 -8 0 -15 7 -15 15 0 8 7 15 15 15 8 0 15 -7 15 -15z m-1395 -109 c-25 -59
-45 -115 -45 -125 0 -37 -194 -420 -207 -408 -2 2 26 57 63 121 36 65 77 145
91 179 14 34 29 66 34 72 5 5 9 19 9 31 0 22 90 247 96 241 2 -2 -16 -52 -41
-111z m-1600 94 c3 -5 -1 -10 -9 -10 -9 0 -16 5 -16 10 0 6 4 10 9 10 6 0 13
-4 16 -10z m2130 0 c3 -5 1 -10 -4 -10 -6 0 -11 5 -11 10 0 6 2 10 4 10 3 0 8
-4 11 -10z m1733 -9 c3 -8 -1 -12 -9 -9 -7 2 -15 10 -17 17 -3 8 1 12 9 9 7
-2 15 -10 17 -17z m497 9 c3 -5 1 -10 -4 -10 -6 0 -11 5 -11 10 0 6 2 10 4 10
3 0 8 -4 11 -10z m-4975 -20 c0 -5 -5 -10 -11 -10 -5 0 -7 5 -4 10 3 6 8 10
11 10 2 0 4 -4 4 -10z m4010 -25 c0 -8 -7 -15 -15 -15 -8 0 -15 7 -15 15 0 8
7 15 15 15 8 0 15 -7 15 -15z m-239 -8 c-1 -12 -15 -9 -19 4 -3 6 1 10 8 8 6
-3 11 -8 11 -12z m-1345 -33 c-5 -13 -10 -14 -18 -6 -6 6 -8 18 -4 28 5 13 10
14 18 6 6 -6 8 -18 4 -28z m1389 26 c3 -5 -1 -10 -10 -10 -9 0 -13 5 -10 10 3
6 8 10 10 10 2 0 7 -4 10 -10z m-2035 -10 c0 -5 -4 -10 -10 -10 -5 0 -10 5
-10 10 0 6 5 10 10 10 6 0 10 -4 10 -10z m757 -22 c-3 -8 -6 -5 -6 6 -1 11 2
17 5 13 3 -3 4 -12 1 -19z m1930 -24 c-9 -9 -28 6 -21 18 4 6 10 6 17 -1 6 -6
8 -13 4 -17z m-2002 -154 c-72 -167 -95 -214 -100 -208 -2 2 8 28 23 59 15 30
52 112 82 181 30 70 56 126 58 124 2 -2 -26 -72 -63 -156z m-2255 140 c0 -5
-4 -10 -10 -10 -5 0 -10 5 -10 10 0 6 5 10 10 10 6 0 10 -4 10 -10z m610 0 c0
-5 -4 -10 -10 -10 -5 0 -10 5 -10 10 0 6 5 10 10 10 6 0 10 -4 10 -10z m4040
-5 c0 -8 -4 -15 -9 -15 -13 0 -22 16 -14 24 11 11 23 6 23 -9z m-2188 -20 c0
-5 -5 -11 -11 -13 -6 -2 -11 4 -11 13 0 9 5 15 11 13 6 -2 11 -8 11 -13z
m-1242 -20 c0 -8 -4 -15 -10 -15 -5 0 -10 7 -10 15 0 8 5 15 10 15 6 0 10 -7
10 -15z m3556 4 c3 -6 1 -16 -5 -22 -9 -9 -14 -8 -21 3 -9 15 -4 30 10 30 5 0
12 -5 16 -11z m-4046 -9 c0 -5 -2 -10 -4 -10 -3 0 -8 5 -11 10 -3 6 -1 10 4
10 6 0 11 -4 11 -10z m751 -15 c-1 -15 -24 -12 -29 3 -3 9 2 13 12 10 10 -1
17 -7 17 -13z m1589 5 c0 -5 -4 -10 -10 -10 -5 0 -10 5 -10 10 0 6 5 10 10 10
6 0 10 -4 10 -10z m-2725 -20 c3 -5 -1 -10 -10 -10 -9 0 -13 5 -10 10 3 6 8
10 10 10 2 0 7 -4 10 -10z m675 1 c0 -5 3 -16 6 -25 4 -10 1 -16 -9 -16 -20 0
-30 17 -23 35 6 16 26 21 26 6z m2310 -11 c0 -5 -4 -10 -10 -10 -5 0 -10 5
-10 10 0 6 5 10 10 10 6 0 10 -4 10 -10z m-590 -10 c0 -5 -2 -10 -4 -10 -3 0
-8 5 -11 10 -3 6 -1 10 4 10 6 0 11 -4 11 -10z m-2200 -10 c0 -5 -4 -10 -10
-10 -5 0 -10 5 -10 10 0 6 5 10 10 10 6 0 10 -4 10 -10z m2270 6 c0 -2 -8 -10
-17 -17 -16 -13 -17 -12 -4 4 13 16 21 21 21 13z m1535 -6 c3 -5 1 -10 -4 -10
-6 0 -11 5 -11 10 0 6 2 10 4 10 3 0 8 -4 11 -10z m-4265 -24 c0 -8 -4 -17 -9
-21 -12 -7 -24 12 -16 25 9 15 25 12 25 -4z m700 4 c0 -5 -4 -10 -9 -10 -6 0
-13 5 -16 10 -3 6 1 10 9 10 9 0 16 -4 16 -10z m3160 0 c0 -5 -4 -10 -10 -10
-5 0 -10 5 -10 10 0 6 5 10 10 10 6 0 10 -4 10 -10z m-1210 -41 c-47 -43 -116
-93 -90 -66 22 23 124 107 130 106 3 0 -15 -18 -40 -40z m280 31 c0 -5 -7 -10
-15 -10 -8 0 -15 5 -15 10 0 6 7 10 15 10 8 0 15 -4 15 -10z m950 -30 c0 -5
-4 -10 -10 -10 -5 0 -10 5 -10 10 0 6 5 10 10 10 6 0 10 -4 10 -10z m-2230
-10 c0 -5 -5 -10 -11 -10 -5 0 -7 5 -4 10 3 6 8 10 11 10 2 0 4 -4 4 -10z
m1460 0 c0 -5 -5 -10 -11 -10 -5 0 -7 5 -4 10 3 6 8 10 11 10 2 0 4 -4 4 -10z
m1020 0 c0 -5 -4 -10 -10 -10 -5 0 -10 5 -10 10 0 6 5 10 10 10 6 0 10 -4 10
-10z m-1050 -86 c0 -8 -5 -12 -10 -9 -6 4 -8 11 -5 16 9 14 15 11 15 -7z
m-3315 -3 c7 -12 -12 -24 -25 -16 -11 7 -4 25 10 25 5 0 11 -4 15 -9z m2255
-11 c0 -5 -4 -10 -9 -10 -6 0 -13 5 -16 10 -3 6 1 10 9 10 9 0 16 -4 16 -10z
m1131 -23 c-13 -13 -26 -3 -16 12 3 6 11 8 17 5 6 -4 6 -10 -1 -17z m269 -38
c0 -5 -4 -9 -10 -9 -5 0 -10 7 -10 16 0 8 5 12 10 9 6 -3 10 -10 10 -16z m192
6 c0 -5 -5 -11 -11 -13 -6 -2 -11 4 -11 13 0 9 5 15 11 13 6 -2 11 -8 11 -13z
m-2592 -25 c0 -5 -4 -10 -10 -10 -5 0 -10 5 -10 10 0 6 5 10 10 10 6 0 10 -4
10 -10z m3040 0 c0 -5 -4 -10 -10 -10 -5 0 -10 5 -10 10 0 6 5 10 10 10 6 0
10 -4 10 -10z m-1580 -30 c0 -5 -5 -10 -11 -10 -5 0 -7 5 -4 10 3 6 8 10 11
10 2 0 4 -4 4 -10z m-1770 -4 c0 -3 -4 -8 -10 -11 -5 -3 -10 -1 -10 4 0 6 5
11 10 11 6 0 10 -2 10 -4z m1560 -6 c0 -5 -4 -10 -10 -10 -5 0 -10 5 -10 10 0
6 5 10 10 10 6 0 10 -4 10 -10z m-1040 -13 c-17 -8 -25 -21 -25 -37 0 -21 5
-25 30 -25 27 0 30 3 30 32 0 17 3 29 7 26 5 -2 8 -18 8 -34 0 -41 -41 -61
-70 -34 -36 33 -18 84 30 85 8 0 4 -6 -10 -13z m2980 -38 c0 -5 -7 -9 -15 -9
-15 0 -20 12 -9 23 8 8 24 -1 24 -14z m-1120 -13 c0 -7 -112 -77 -116 -73 -3
3 21 21 53 41 60 37 63 38 63 32z m-3070 -21 c0 -8 -7 -15 -15 -15 -8 0 -15 7
-15 15 0 8 7 15 15 15 8 0 15 -7 15 -15z m348 -53 c3 -16 -2 -22 -16 -22 -24
0 -35 23 -19 39 16 16 31 8 35 -17z m1854 -27 c0 -5 -5 -11 -11 -13 -6 -2 -11
4 -11 13 0 9 5 15 11 13 6 -2 11 -8 11 -13z m-1715 -61 c-9 -9 -28 6 -21 18 4
6 10 6 17 -1 6 -6 8 -13 4 -17z m3996 19 c-7 -2 -19 -2 -25 0 -7 3 -2 5 12 5
14 0 19 -2 13 -5z m-1791 -18 c0 -5 -5 -11 -11 -13 -6 -2 -11 4 -11 13 0 9 5
15 11 13 6 -2 11 -8 11 -13z m1123 5 c-11 -5 -36 -8 -55 -8 l-35 1 40 7 c57
10 74 10 50 0z m624 6 c-5 -5 -302 -66 -320 -66 -36 0 14 14 142 39 141 28
186 35 178 27z m-1019 -16 c0 -5 -4 -10 -10 -10 -5 0 -10 5 -10 10 0 6 5 10
10 10 6 0 10 -4 10 -10z m-2075 -19 c3 -5 1 -12 -5 -16 -5 -3 -10 1 -10 9 0
18 6 21 15 7z m2392 3 c-3 -3 -12 -4 -19 -1 -8 3 -5 6 6 6 11 1 17 -2 13 -5z
m-2027 -40 c0 -8 -7 -14 -15 -14 -15 0 -21 21 -9 33 10 9 24 -2 24 -19z
m-1090 -20 c0 -9 -5 -14 -12 -12 -18 6 -21 28 -4 28 9 0 16 -7 16 -16z m2827
-20 c-3 -3 -12 -4 -19 -1 -8 3 -5 6 6 6 11 1 17 -2 13 -5z m-3410 -41 c-1 -20
4 -31 21 -38 27 -12 29 -25 2 -25 -29 0 -54 43 -40 69 15 28 19 26 17 -6z
m3226 20 c-7 -2 -21 -2 -30 0 -10 3 -4 5 12 5 17 0 24 -2 18 -5z m-1245 -26
c2 -10 -3 -17 -12 -17 -10 0 -16 9 -16 21 0 24 23 21 28 -4z m1159 17 c-3 -3
-12 -4 -19 -1 -8 3 -5 6 6 6 11 1 17 -2 13 -5z m-3027 -24 c0 -5 -4 -10 -10
-10 -5 0 -10 5 -10 10 0 6 5 10 10 10 6 0 10 -4 10 -10z"/>
<path d="M5044 3395 c-33 -6 -69 -15 -80 -20 -10 -4 -48 -11 -84 -16 -36 -5
-108 -16 -160 -24 -52 -9 -126 -21 -165 -27 -83 -13 -100 -21 -100 -44 0 -23
-103 -51 -225 -59 -52 -4 -116 -13 -141 -21 -25 -8 -90 -17 -145 -19 -54 -3
-115 -10 -134 -15 -29 -8 -24 -8 25 -4 33 3 96 8 141 9 44 2 98 10 120 19 21
8 84 17 139 20 131 8 229 35 233 64 4 24 54 38 200 53 51 5 105 14 120 20 15
6 56 14 92 19 89 11 223 40 235 51 11 11 10 11 -71 -6z"/>
<path d="M5050 3160 c0 -5 -6 -10 -14 -10 -26 0 -57 -35 -66 -73 -7 -32 -5
-42 11 -58 19 -19 19 -19 -9 -19 -16 0 -32 -3 -36 -7 -3 -4 -16 -8 -28 -10
-12 -2 -27 -8 -34 -14 -10 -8 -19 -6 -36 5 -27 19 -51 20 -81 4 -41 -24 -57
-41 -52 -58 4 -11 -5 -21 -30 -33 -33 -16 -36 -16 -55 0 -11 10 -20 23 -20 30
0 8 -11 18 -25 23 -32 12 -65 -6 -66 -37 -3 -44 -4 -48 -21 -51 -12 -2 -15 2
-11 17 9 34 -25 39 -52 7 -12 -14 -28 -26 -34 -26 -6 0 -14 -7 -17 -15 -4 -10
-11 -12 -21 -6 -23 13 -63 1 -63 -19 0 -11 -10 -20 -26 -23 l-26 -5 6 69 c6
59 5 69 -8 69 -9 0 -15 5 -13 11 1 6 -3 13 -9 16 -16 5 -24 -47 -17 -106 l6
-51 -34 -2 c-42 -2 -48 -1 -79 7 -50 13 -90 0 -90 -30 0 -7 -9 -15 -21 -18
-13 -4 -19 -10 -14 -19 3 -7 1 -6 -7 3 -7 9 -24 22 -37 29 -22 11 -27 10 -49
-15 -23 -27 -25 -28 -51 -12 -26 15 -71 13 -71 -3 0 -4 -9 -10 -21 -13 -11 -3
-23 -15 -26 -26 -4 -17 -10 -20 -32 -14 -14 3 -30 12 -34 20 -19 32 -87 3 -73
-32 8 -23 -23 -19 -43 6 -14 17 -20 19 -45 10 -15 -6 -30 -21 -33 -32 -4 -14
-11 -19 -25 -16 -12 3 -28 -3 -40 -15 -19 -19 -22 -19 -30 -4 -17 30 -84 8
-94 -31 -7 -26 -10 -27 -70 -12 -43 11 -47 10 -73 -15 -15 -14 -52 -33 -82
-40 -30 -8 -71 -22 -91 -30 l-37 -16 3 -82 c2 -46 6 -91 11 -100 4 -11 3 -18
-4 -18 -6 0 -11 7 -11 15 0 10 -10 15 -29 15 -30 0 -57 -22 -47 -39 6 -9 -54
-20 -131 -24 -23 -1 -45 -5 -49 -9 -4 -5 -20 -8 -35 -8 -15 0 -57 -7 -94 -15
-49 -12 -70 -13 -86 -4 -11 6 -23 8 -27 5 -3 -3 0 -6 6 -6 7 0 12 -4 12 -10 0
-5 -10 -10 -22 -10 -49 0 -98 -20 -98 -40 0 -15 -7 -20 -27 -21 -24 -2 -25 -2
-5 -6 26 -5 29 -20 4 -26 -16 -4 -16 -5 1 -6 13 -1 17 -10 17 -36 l0 -35 -362
1 c-204 0 -354 4 -343 9 11 4 34 13 51 20 23 8 37 25 54 60 13 27 28 51 34 53
6 2 46 0 89 -4 59 -6 89 -4 119 7 22 8 47 10 56 6 10 -4 56 -7 103 -6 81 1 90
3 133 34 42 31 49 32 103 27 37 -4 51 -3 38 3 -44 19 -103 11 -149 -21 -40
-28 -51 -31 -127 -33 -46 -1 -92 2 -102 7 -10 5 -35 2 -62 -8 -54 -18 -66 -19
-63 -4 2 6 -4 14 -12 16 -13 4 -13 3 0 -6 11 -8 0 -10 -45 -9 -39 1 -48 3 -25
5 19 3 40 9 45 14 11 11 -24 6 -85 -13 -28 -8 -40 -20 -60 -62 -22 -44 -32
-54 -75 -71 -48 -19 -79 -20 -830 -25 l-780 -5 1148 -3 1147 -2 0 -22 c0 -13
3 -108 7 -213 5 -173 4 -197 -15 -266 -12 -42 -26 -116 -32 -165 -13 -107 -17
-121 -43 -158 -18 -25 -21 -26 -29 -11 -6 9 -7 19 -4 22 3 4 6 0 7 -8 1 -30
38 114 45 178 4 37 18 99 32 138 20 57 26 94 30 197 l4 127 -46 -3 c-30 -1
-54 -10 -68 -23 -19 -17 -36 -21 -98 -21 -136 0 -211 -12 -269 -45 -30 -17
-72 -34 -95 -38 -23 -3 -61 -11 -86 -17 -148 -36 -519 -64 -581 -43 -46 15
-66 15 -204 1 -100 -9 -137 -18 -218 -51 -54 -22 -108 -46 -120 -53 -39 -25
-66 -28 -83 -12 -9 9 -21 13 -27 9 -6 -4 -28 -8 -49 -9 -20 -1 -42 -5 -47 -9
-6 -3 -11 -2 -11 4 0 5 -8 10 -17 9 -10 0 -47 2 -83 5 -47 4 -54 4 -25 -2 l40
-8 -45 -2 c-26 0 -50 2 -55 7 -6 4 -32 5 -60 2 l-50 -6 45 -6 c269 -38 360
-41 425 -16 22 9 85 36 140 62 62 28 126 49 170 56 100 15 242 17 300 3 36 -9
78 -9 155 -2 99 10 112 9 220 -17 63 -15 122 -33 130 -39 8 -7 28 -15 44 -19
23 -6 27 -9 15 -17 -23 -15 -161 -57 -208 -63 -25 -4 -57 -17 -73 -31 l-29
-25 38 -16 c21 -9 56 -25 78 -35 22 -10 54 -23 70 -29 29 -11 29 -12 11 -26
-21 -15 -61 -20 -53 -6 3 4 -9 6 -26 6 -18 -1 -42 3 -55 7 -13 5 -37 11 -55
15 -18 3 -36 9 -42 15 -5 5 -26 9 -47 9 -21 0 -38 4 -38 8 0 4 -12 9 -26 10
-14 1 -30 5 -36 8 -6 4 -31 8 -57 9 -59 3 -132 14 -145 22 -13 8 -45 13 -121
17 -33 2 -60 5 -60 6 0 1 -9 3 -20 5 -11 2 -33 6 -50 10 -59 13 -82 15 -265
20 -102 2 -201 8 -220 11 -19 4 -57 8 -85 10 -27 1 -67 6 -87 12 l-38 10 0
-750 0 -750 58 5 c31 2 77 11 102 20 228 82 331 108 462 117 73 5 158 9 188 9
54 0 55 0 28 -15 -40 -21 -35 -27 7 -7 19 9 32 20 29 25 -4 5 11 7 33 3 29 -5
35 -4 23 5 -12 9 -8 10 20 6 19 -3 29 -3 22 0 -18 8 143 99 248 141 67 27 112
37 212 47 126 14 129 14 215 66 49 28 106 71 128 96 38 42 45 45 150 69 61 14
126 25 145 25 45 0 250 51 244 61 -2 4 12 21 31 38 20 17 33 31 29 31 -4 0
-26 -18 -50 -40 -58 -53 -72 -51 -34 5 42 62 63 73 150 80 95 8 179 31 205 56
27 24 61 35 168 54 66 11 97 22 119 40 16 14 37 25 47 25 9 0 22 5 27 10 6 6
35 13 65 17 30 3 79 18 109 33 30 15 80 31 110 35 42 5 60 13 76 32 15 18 37
28 70 34 177 30 205 37 239 63 44 34 122 69 135 61 6 -3 10 -2 10 3 0 5 12 12
28 15 15 3 36 9 46 13 17 6 18 4 12 -22 -11 -43 -22 -52 -83 -65 -31 -7 -52
-14 -46 -16 6 -2 29 0 52 6 26 6 39 5 35 -1 -9 -14 -91 -48 -139 -58 -36 -7
-37 -8 -10 -9 l30 -2 -40 -21 c-75 -40 -160 -69 -220 -75 -33 -3 -100 -22
-150 -40 -49 -19 -103 -38 -120 -43 l-30 -8 33 -1 c47 -1 39 -17 -26 -50 -38
-19 -67 -43 -84 -68 -22 -33 -40 -44 -138 -83 -104 -42 -115 -49 -152 -96 -34
-46 -51 -57 -136 -94 -53 -23 -113 -56 -132 -74 -21 -21 -61 -42 -102 -55 -54
-18 -73 -30 -103 -67 -64 -78 -194 -124 -349 -124 -101 0 -202 -25 -326 -80
-69 -30 -126 -49 -165 -53 -54 -6 -252 -76 -215 -77 9 0 48 14 89 31 40 17 99
33 130 36 35 4 98 24 169 55 135 58 171 67 327 77 133 9 185 21 260 58 l50 25
-83 -80 c-80 -77 -83 -82 -77 -115 6 -30 3 -37 -27 -60 -18 -15 -27 -27 -19
-27 8 0 29 11 47 25 29 22 32 28 27 64 -5 38 -3 42 78 124 46 46 98 100 114
120 20 23 45 39 75 47 50 13 110 46 124 68 4 8 56 37 115 65 58 27 114 57 123
65 16 13 20 13 43 -2 35 -23 31 -34 -17 -46 -82 -21 -269 -90 -245 -90 9 0 59
15 110 34 50 19 112 41 137 48 54 16 62 38 21 64 l-29 19 24 28 c14 17 67 47
136 76 62 27 142 62 178 79 36 16 92 35 125 42 92 19 213 59 222 74 25 42 88
80 161 97 100 24 110 24 89 1 -9 -10 -22 -32 -29 -49 -14 -33 -108 -113 -133
-113 -8 0 -27 -14 -42 -31 -16 -18 -43 -38 -62 -46 -19 -8 -49 -26 -66 -39
-18 -13 -47 -29 -66 -35 -35 -12 -138 -76 -151 -94 -4 -5 -8 -23 -8 -38 0 -16
-9 -40 -20 -54 -11 -14 -20 -37 -21 -52 0 -14 -17 -50 -37 -79 -30 -44 -48
-58 -92 -76 -30 -12 -79 -39 -109 -59 -31 -22 -65 -37 -82 -37 -19 0 -47 -14
-81 -41 -28 -22 -64 -47 -80 -55 -25 -13 -28 -19 -26 -59 2 -34 7 -45 19 -45
14 0 16 6 8 37 -5 27 -4 40 4 44 7 4 44 30 82 58 49 36 76 50 91 47 14 -4 41
9 84 39 35 25 68 45 73 45 5 0 35 13 66 28 66 34 130 56 138 48 3 -3 -41 -27
-98 -55 -64 -31 -117 -64 -139 -86 -21 -23 -27 -33 -15 -27 11 5 29 20 40 33
11 12 61 41 110 64 94 44 128 71 107 84 -9 5 -7 14 5 31 10 14 18 41 19 61 1
20 9 50 18 67 9 17 16 37 16 45 0 19 30 44 67 57 26 9 39 7 82 -14 29 -13 65
-28 81 -31 20 -4 30 -13 30 -25 0 -14 11 -19 53 -24 29 -4 91 -26 143 -52 50
-24 100 -44 112 -44 11 0 33 -5 47 -12 l26 -12 -98 -98 c-54 -54 -106 -98
-115 -98 -10 0 -44 -9 -75 -19 -32 -11 -78 -23 -103 -26 -25 -4 -68 -20 -96
-36 -28 -15 -77 -35 -110 -42 -60 -14 -158 -58 -169 -77 -10 -16 2 -12 58 20
29 16 77 34 107 41 30 6 83 26 117 45 34 19 75 34 92 34 17 0 52 7 78 16 115
39 115 40 10 -62 -54 -53 -96 -98 -93 -101 11 -11 134 108 514 498 383 391
401 411 501 560 57 84 105 156 108 158 8 10 113 -55 113 -70 0 -9 -11 -47 -25
-83 -14 -37 -25 -79 -25 -94 0 -18 -11 -39 -30 -57 -17 -16 -35 -47 -41 -70
-7 -25 -27 -55 -54 -81 -25 -25 -46 -55 -50 -75 -4 -19 -28 -54 -55 -84 -27
-27 -52 -63 -55 -78 -4 -16 -21 -38 -37 -50 -49 -36 -165 -181 -178 -223 -7
-21 -19 -49 -26 -61 -18 -29 -73 -58 -86 -45 -5 5 -20 7 -34 4 -24 -4 -32 -17
-15 -24 6 -1 -14 -18 -42 -37 -29 -18 -49 -30 -45 -26 4 4 3 16 -2 25 -8 14
-19 17 -62 13 -29 -2 -59 -5 -65 -5 -7 -1 -13 -6 -14 -12 0 -6 -4 -2 -9 9 -5
11 -9 14 -9 7 -1 -7 -5 -10 -11 -7 -5 3 -10 1 -10 -5 0 -7 -7 -10 -15 -6 -8 3
-15 2 -15 -2 0 -5 -17 -7 -37 -6 -40 1 -83 -13 -83 -28 0 -4 -6 -8 -14 -8 -8
0 -24 -9 -37 -19 -24 -19 -23 -19 135 -20 139 -2 161 0 180 16 19 16 19 16 7
1 -13 -17 17 -18 598 -18 l611 0 0 796 c0 694 -2 797 -15 810 -17 17 -20 54
-6 54 5 0 12 -10 14 -22 2 -13 5 77 6 200 0 122 -2 222 -7 222 -4 0 -20 -29
-35 -64 -16 -35 -58 -99 -94 -142 -72 -88 -127 -181 -138 -234 -4 -19 -24 -53
-44 -75 -35 -37 -46 -61 -106 -228 -9 -26 -27 -60 -39 -75 -13 -15 -53 -71
-89 -126 -65 -96 -67 -98 -67 -63 0 69 23 143 78 248 43 84 56 119 60 165 3
45 13 73 40 116 36 60 42 89 43 198 l1 65 11 -64 c7 -47 7 -73 -1 -95 l-11
-31 20 24 c17 20 19 32 12 65 -4 23 -7 57 -8 77 0 35 5 39 184 175 102 76 187
145 189 153 3 8 -10 2 -29 -13 -97 -79 -309 -235 -309 -229 0 5 22 41 49 80
36 53 50 85 55 124 11 80 50 144 147 242 l89 89 0 134 c0 74 -2 134 -5 134 -3
0 -28 -21 -55 -46 -32 -30 -50 -55 -50 -70 0 -44 -18 -74 -44 -74 -32 0 -39
13 -31 57 6 36 79 118 155 176 19 14 30 26 25 27 -18 0 -127 -93 -162 -138
-26 -34 -33 -53 -33 -88 0 -44 0 -44 -35 -44 -29 0 -37 5 -45 26 -15 40 -12
65 13 88 20 21 74 81 106 119 7 9 9 17 3 17 -5 0 -41 -38 -80 -84 -70 -83 -71
-85 -61 -121 12 -43 3 -58 -17 -30 -45 61 -27 102 92 211 52 48 94 90 94 95 0
5 -12 9 -27 9 -43 0 -18 12 54 26 85 17 110 16 58 -1 -22 -8 -32 -14 -23 -14
9 -1 28 3 43 9 l26 10 -2 150 -1 150 -34 0 c-19 0 -34 -4 -34 -10z m-30 -180
c0 -5 -4 -10 -10 -10 -5 0 -10 5 -10 10 0 6 5 10 10 10 6 0 10 -4 10 -10z
m-113 -144 c4 -3 -7 -6 -23 -6 -40 0 -106 -19 -125 -36 -8 -8 -31 -16 -50 -20
-19 -3 -54 -16 -79 -28 -25 -13 -67 -29 -95 -36 -27 -7 -72 -22 -98 -33 l-48
-20 7 -43 c10 -67 -2 -114 -29 -114 -20 0 -22 5 -21 57 1 55 1 55 -3 8 -2 -27
-8 -54 -14 -59 -14 -15 -11 125 4 150 20 35 120 121 161 138 61 25 63 19 7
-25 -29 -23 -50 -43 -48 -46 11 -10 89 18 123 45 22 16 59 37 84 45 49 17 35
23 -18 8 -19 -6 -32 -6 -32 0 0 5 12 11 28 15 15 3 32 7 37 8 19 5 226 -2 232
-8z m-518 -92 c-13 -14 -50 -39 -81 -55 -32 -16 -58 -32 -58 -34 0 -3 18 4 40
15 50 25 58 25 34 -1 -14 -15 -20 -40 -22 -95 -4 -73 -5 -74 -32 -74 -26 0
-27 2 -33 65 -4 36 -2 76 3 90 6 15 39 41 87 69 43 25 80 46 82 46 3 0 -6 -12
-20 -26z m147 -60 c-3 -9 -7 -41 -8 -72 -1 -46 -2 -49 -5 -17 -7 71 -12 73
-45 17 -36 -63 -50 -116 -35 -131 8 -8 6 -11 -6 -11 -27 0 -36 30 -26 84 6 32
5 55 -2 68 -14 26 -6 33 61 57 69 24 74 25 66 5z m-317 -103 c2 -73 0 -81 -25
-108 -19 -21 -24 -23 -18 -8 4 11 9 45 12 75 2 30 8 59 13 65 15 15 10 28 -6
15 -10 -8 -15 -30 -15 -63 0 -72 -18 -117 -47 -117 -27 0 -27 0 -6 44 14 30
15 41 4 76 -6 22 -9 45 -6 50 6 10 74 49 86 50 4 0 7 -36 8 -79z m-134 29
c-11 -5 -33 -8 -50 -8 -29 0 -29 0 -5 8 14 4 36 8 50 8 23 1 23 0 5 -8z m-115
-20 c-34 -11 -60 -11 -35 0 11 5 29 8 40 8 16 0 15 -2 -5 -8z m-180 -10 c-8
-6 -26 -10 -38 -10 -13 0 -37 -8 -54 -17 -27 -17 -29 -21 -23 -58 3 -22 9 -71
13 -108 8 -65 7 -68 -13 -65 -18 3 -21 13 -27 87 -4 46 -10 86 -13 89 -3 4 -3
-35 1 -86 l7 -92 -26 0 c-20 0 -28 6 -33 24 -5 19 12 115 31 183 6 18 107 60
150 61 28 1 35 -2 25 -8z m334 -48 c1 -38 -25 -92 -44 -92 -5 0 -2 16 6 35 7
19 14 53 14 77 0 55 22 37 24 -20z m-485 28 c-33 -17 -37 -25 -49 -82 -6 -35
-13 -85 -15 -113 -3 -52 -15 -62 -27 -23 -7 21 -7 21 -4 -4 2 -18 -1 -25 -10
-21 -19 7 -24 42 -17 135 8 110 18 124 99 126 l59 2 -36 -20z m-186 3 c-7 -2
-21 -2 -30 0 -10 3 -4 5 12 5 17 0 24 -2 18 -5z m-83 -13 c-8 -5 -28 -9 -45
-9 l-30 1 30 8 c17 4 37 8 45 9 13 1 13 0 0 -9z m-88 -15 c10 -4 12 -27 10
-93 -3 -103 -8 -132 -23 -132 -13 0 -7 171 6 205 7 17 6 18 -6 7 -10 -9 -15
-44 -17 -117 -4 -105 -4 -105 -29 -105 -25 0 -26 1 -19 53 3 28 6 80 6 114 0
56 2 62 23 66 12 2 25 5 29 6 3 0 12 -1 20 -4z m-82 -69 c0 -121 -23 -236 -28
-138 -1 20 -4 68 -8 106 -4 52 -3 71 8 77 24 16 28 9 28 -45z m-137 13 c-9
-17 -17 -62 -19 -101 -4 -84 -15 -106 -28 -58 -20 77 -9 175 22 183 38 10 41
8 25 -24z m1233 -1 c11 -18 -19 -38 -58 -38 l-39 0 16 28 c14 23 23 27 46 24
16 -2 32 -8 35 -14z m564 13 c0 -5 -3 -17 -6 -26 -6 -14 -8 -14 -25 1 -26 23
-24 34 6 34 14 0 25 -4 25 -9z m110 -4 c0 -8 -3 -17 -7 -20 -9 -9 -34 13 -27
24 8 14 34 11 34 -4z m-1970 -27 c0 -16 -4 -30 -8 -30 -8 0 -4 -34 15 -122 4
-23 2 -28 -15 -28 -16 0 -21 9 -27 46 -6 42 1 138 12 157 10 17 23 5 23 -23z
m1394 21 c7 -10 -17 -21 -45 -21 -19 0 -25 11 -12 23 9 10 51 8 57 -2z m526 3
c0 -3 -7 -13 -16 -21 -10 -10 -13 -25 -9 -41 3 -13 8 -38 11 -56 4 -28 2 -26
-21 17 -33 60 -28 107 11 107 13 0 24 -3 24 -6z m-1965 -104 c0 -74 -3 -100
-12 -100 -7 0 -13 7 -13 15 0 8 -3 15 -7 15 -5 0 -7 33 -5 72 2 53 8 76 20 86
8 6 16 12 17 12 0 0 0 -45 0 -100z m152 48 c-2 -13 -4 -5 -4 17 -1 22 1 32 4
23 2 -10 2 -28 0 -40z m1581 -39 c0 -50 -4 -103 -9 -118 -5 -17 -7 -5 -4 39 4
56 3 59 -5 25 -5 -22 -7 -74 -6 -115 3 -60 2 -66 -4 -30 -5 27 -6 1 -3 -65 3
-60 3 -108 0 -105 -3 3 -14 41 -26 85 l-20 79 26 131 c22 116 37 165 47 165 2
0 4 -41 4 -91z m188 -22 l45 -89 -18 -44 c-10 -24 -22 -43 -27 -41 -13 4 -74
164 -82 214 -3 24 -3 50 0 59 10 27 33 0 82 -99z m-406 21 l-4 -73 -7 65 c-6
61 -6 59 -6 -30 0 -106 -10 -168 -30 -188 -9 -9 -13 -41 -13 -98 0 -81 -1 -84
-22 -84 -41 0 -48 13 -58 116 -12 121 -13 354 -2 354 4 0 17 -51 27 -112 11
-62 21 -105 23 -95 2 9 -4 51 -12 93 -25 121 -26 119 69 123 l40 1 -5 -72z
m-323 -108 c3 -25 -2 -67 -10 -93 -15 -45 -14 -51 9 -107 35 -88 30 -115 -13
-67 -40 43 -45 65 -38 150 5 61 3 98 -9 143 -19 74 -20 111 -4 116 18 6 60
-88 65 -142z m23 133 c0 -10 10 -38 21 -63 17 -37 20 -69 23 -192 2 -132 1
-148 -14 -148 -11 0 -25 22 -42 65 -25 61 -25 67 -12 111 19 64 18 104 -6 166
-24 64 -24 65 -2 71 30 8 32 7 32 -10z m40 -24 c0 -16 -4 -29 -10 -29 -5 0
-10 6 -10 13 0 6 -3 22 -6 35 -5 18 -3 21 10 16 10 -4 16 -18 16 -35z m68 -56
c3 168 19 106 25 -105 4 -112 9 -214 12 -227 4 -23 4 -23 -15 -6 -16 15 -20
32 -21 89 -1 39 -4 82 -8 96 -4 14 -5 -22 -3 -80 4 -86 2 -108 -11 -118 -13
-11 -16 -3 -21 60 -4 40 -9 142 -11 225 -3 149 -3 152 18 155 21 3 22 -2 28
-92 l5 -95 2 98z m-1181 10 c-3 -10 -5 -2 -5 17 0 19 2 27 5 18 2 -10 2 -26 0
-35z m563 -45 c0 -7 -13 -20 -29 -30 -23 -13 -34 -31 -50 -83 -12 -37 -21 -78
-21 -92 0 -13 -5 -33 -10 -44 -8 -14 -7 -27 5 -48 16 -32 2 -56 -17 -30 -7 10
-8 9 -3 -6 4 -11 9 -27 11 -35 3 -8 -9 -46 -25 -85 -17 -38 -31 -65 -31 -58 0
7 10 36 23 65 18 40 22 60 15 83 -4 17 -6 35 -3 42 2 7 -2 36 -9 65 -19 73
-27 176 -18 218 6 28 13 36 35 38 31 4 32 0 12 -83 -8 -33 -14 -85 -13 -115 1
-51 2 -52 5 -10 1 25 10 82 19 127 14 69 20 83 38 86 43 9 66 7 66 -5z m-426
-206 c-10 -16 -19 -53 -21 -96 -2 -39 -8 -80 -13 -91 -29 -72 -55 -169 -70
-270 -6 -44 -18 -99 -26 -123 -8 -23 -14 -68 -14 -98 0 -40 -6 -63 -19 -80
-19 -24 -19 -22 -17 144 1 98 -1 149 -5 122 -4 -25 -8 -84 -8 -131 -1 -47 -4
-146 -7 -220 -7 -134 -7 -135 -32 -137 -22 -2 -24 1 -18 31 3 17 8 88 10 157
5 124 5 124 -3 25 -9 -115 -31 -249 -38 -241 -3 3 -14 1 -25 -5 -21 -11 -20
-3 2 104 11 50 -1 38 -17 -16 -11 -41 -12 -40 -6 23 3 36 14 92 25 125 11 33
20 80 20 105 0 64 17 162 32 180 7 8 34 61 60 117 49 106 51 114 75 363 5 55
9 68 14 50 18 -63 -3 -334 -32 -412 -15 -41 -21 -78 -19 -125 l1 -68 7 80 c4
44 17 107 29 140 16 43 24 90 27 165 2 58 5 116 5 130 1 14 -2 70 -6 126 -7
92 -6 101 10 108 10 3 19 5 20 4 2 -2 8 -57 13 -123 l10 -120 -5 123 c-3 84
-1 122 6 122 6 0 12 -22 13 -52 l2 -53 3 50 c3 27 10 53 16 57 9 5 13 -15 15
-78 2 -68 -1 -92 -14 -112z m466 166 c-66 -37 -67 -39 -75 -101 -7 -46 -55
-168 -55 -139 0 7 -5 10 -11 6 -8 -4 -8 -1 -1 12 5 11 12 40 15 65 6 41 33
138 43 148 6 6 108 40 124 40 8 1 -10 -13 -40 -31z m-666 -85 c-7 -111 -18
-144 -29 -94 -6 31 2 167 12 184 2 4 9 7 14 7 7 0 8 -35 3 -97z m-99 45 c-5
-24 -10 -158 -12 -298 -4 -318 -19 -445 -24 -210 -2 85 -4 241 -4 347 0 199 0
197 39 202 5 0 5 -18 1 -41z m63 -50 c-1 -51 -1 -154 0 -228 1 -105 -2 -146
-16 -185 l-17 -50 -6 95 c-9 128 -10 390 -3 429 5 21 12 31 25 31 16 0 18 -9
17 -92z m-142 -38 c0 -61 -3 -110 -6 -110 -7 0 -20 123 -20 187 0 20 5 33 13
33 9 0 12 -29 13 -110z m-102 81 c-51 -23 -54 -33 -54 -187 l0 -121 -45 -57
c-37 -48 -45 -66 -45 -100 0 -22 -5 -48 -11 -56 -8 -11 -9 2 -6 49 5 55 10 68
40 100 54 56 57 68 57 219 l0 140 33 16 c17 8 41 16 52 16 12 0 5 -7 -21 -19z
m85 -209 c1 -2 6 0 11 3 13 8 3 -67 -16 -113 -7 -18 -10 -40 -7 -49 5 -11 3
-14 -6 -8 -10 6 -11 2 -6 -15 5 -14 3 -20 -3 -16 -6 3 -8 -2 -5 -13 3 -10 -1
-30 -9 -42 -9 -18 -14 -92 -18 -279 l-5 -255 -37 -68 c-32 -57 -40 -83 -49
-165 -6 -53 -13 -99 -16 -102 -5 -5 2 122 17 290 6 58 12 182 15 275 4 153 7
176 30 232 14 35 25 82 25 107 0 25 5 48 10 51 19 12 10 -80 -15 -139 -31 -75
-26 -85 6 -14 18 40 24 73 25 133 2 78 15 152 35 189 7 12 7 16 0 12 -10 -6
-21 201 -11 211 3 3 10 -46 16 -109 7 -62 12 -114 13 -116z m-177 196 c-28
-14 -34 -36 -38 -141 -6 -157 -13 -216 -27 -239 -9 -15 -17 -65 -21 -141 -3
-65 -15 -158 -26 -207 -11 -49 -24 -139 -30 -200 -7 -86 -15 -123 -35 -163
-14 -29 -37 -104 -50 -167 -13 -63 -23 -101 -24 -85 0 17 6 59 14 95 8 36 14
104 15 152 0 48 4 97 9 110 5 13 23 70 40 128 36 124 48 245 50 491 1 97 6
198 11 225 6 27 13 67 15 89 5 38 4 38 -10 -10 -19 -63 -38 -277 -33 -377 2
-42 -1 -74 -6 -71 -5 3 -6 -26 -2 -68 7 -83 -12 -222 -39 -279 -11 -24 -14
-27 -10 -10 11 49 28 186 28 225 0 22 4 114 9 205 6 91 10 225 10 298 0 72 3
132 6 132 4 1 24 3 46 6 l38 6 -5 -39 c-16 -108 -27 -206 -23 -210 2 -3 7 22
11 54 3 32 12 87 19 123 10 55 15 65 36 71 38 11 48 9 22 -3z m-259 -165 c-2
-75 -6 -139 -10 -142 -3 -3 -4 39 -1 94 3 57 2 87 -3 70 -5 -20 -6 -6 -4 40 3
50 2 60 -4 35 -4 -19 -7 -84 -6 -145 2 -93 2 -99 -4 -40 l-7 70 -2 -72 c-2
-64 -4 -73 -21 -73 -25 0 -29 12 -36 117 -4 58 -3 83 3 74 7 -9 8 0 5 31 -6
56 6 67 83 77 8 1 10 -40 7 -136z m2458 81 c-9 -38 -9 -38 -10 -7 -1 33 10 74
16 57 2 -6 -1 -28 -6 -50z m-430 -122 c-8 -12 -10 6 -11 69 0 47 3 89 8 93 11
12 14 -142 3 -162z m-1494 26 c-2 -24 -4 -7 -4 37 0 44 2 63 4 43 2 -21 2 -57
0 -80z m-444 -10 l-10 -53 -1 85 c0 73 2 80 10 53 8 -23 8 -49 1 -85z m559
-40 c-2 -68 -8 -127 -13 -133 -5 -5 -10 5 -11 25 -1 29 -2 27 -8 -15 -4 -30
-6 -3 -3 64 3 97 20 181 36 181 2 0 2 -55 -1 -122z m359 71 c-5 -13 -10 -19
-10 -12 -1 15 10 45 15 40 3 -2 0 -15 -5 -28z m505 -16 c-8 -15 -15 -25 -16
-21 0 12 23 58 27 54 3 -2 -2 -17 -11 -33z m187 -30 c0 -26 -10 -114 -33 -278
-5 -38 -9 -94 -9 -123 -1 -29 -8 -66 -16 -83 -9 -16 -20 -52 -25 -80 -6 -31
-26 -75 -50 -111 -22 -33 -40 -58 -40 -55 0 30 54 215 73 254 25 49 54 204 41
224 -3 5 4 29 15 54 15 35 18 52 11 71 -13 33 -13 61 1 124 12 55 32 57 32 3z
m-711 -20 c-6 -15 -13 -55 -16 -88 -4 -54 -9 -64 -43 -95 -37 -34 -88 -100
-77 -100 3 0 14 10 25 23 l18 22 1 -43 c0 -36 -4 -45 -20 -49 -26 -7 -53 -60
-75 -142 -24 -92 -13 -84 15 10 22 77 51 131 65 118 3 -4 -1 -24 -9 -45 -8
-22 -21 -58 -30 -81 -9 -23 -20 -86 -24 -140 -8 -85 -19 -141 -50 -263 -5 -21
-7 -17 -10 18 -2 23 4 69 12 103 18 69 22 214 6 189 -6 -8 -7 -38 -4 -66 5
-44 1 -65 -29 -140 -19 -49 -38 -106 -42 -126 -4 -26 -11 -38 -22 -38 -14 0
-15 11 -9 87 5 70 12 97 36 140 17 30 30 67 30 87 0 49 94 350 119 382 12 16
40 43 61 62 37 31 40 37 40 87 0 32 7 68 18 89 20 40 29 39 14 -1z m1694 -72
c-17 -81 -21 -182 -9 -195 23 -22 1 -196 -24 -196 -4 0 -8 -41 -8 -91 l0 -91
-60 -23 c-98 -37 -179 -75 -202 -97 l-22 -21 -46 27 -46 27 20 28 c11 15 23
40 27 57 18 74 68 182 100 215 22 23 39 53 45 80 14 59 60 137 132 223 33 39
69 90 81 114 27 57 31 39 12 -57z m-1189 67 c-3 -8 -6 -5 -6 6 -1 11 2 17 5
13 3 -3 4 -12 1 -19z m223 -75 c-6 -48 -10 -108 -8 -133 4 -39 5 -36 7 20 2
64 27 213 30 176 1 -18 2 -18 20 2 10 12 23 22 30 22 10 0 16 -58 15 -152 -1
-43 -22 -77 -35 -56 -6 9 -9 8 -9 -6 0 -24 -57 -89 -64 -73 -2 7 -5 2 -5 -9
-1 -12 -8 -37 -16 -55 -16 -34 -16 -34 -10 31 3 36 9 92 15 125 5 33 14 93 21
133 16 103 23 82 9 -25z m182 16 c-6 -102 -33 -112 -35 -12 -2 61 7 87 26 80
8 -2 11 -25 9 -68z m188 51 c-14 -14 -20 -33 -20 -67 0 -27 -7 -75 -15 -108
-17 -72 -19 -165 -4 -219 16 -58 4 -97 -57 -182 -35 -49 -58 -93 -65 -123 -18
-91 -21 -101 -29 -101 -4 0 -19 -32 -34 -71 -14 -38 -39 -87 -55 -107 -16 -20
-49 -74 -72 -120 -44 -88 -55 -93 -68 -30 -6 25 -2 42 15 73 12 22 25 58 29
80 4 22 28 80 54 130 41 76 51 109 71 215 12 69 32 161 43 205 11 44 23 116
28 160 11 120 18 138 74 183 28 22 63 54 79 71 17 17 33 31 38 31 4 0 -1 -9
-12 -20z m-82 0 l33 0 -20 -27 c-23 -28 -80 -73 -93 -73 -10 0 -10 36 -2 80 6
26 10 31 28 26 12 -3 36 -6 54 -6z m-1774 -44 c-3 -21 -8 -35 -11 -32 -2 2 -1
20 3 40 3 21 8 35 11 32 2 -2 1 -20 -3 -40z m1593 22 c-3 -8 -6 -5 -6 6 -1 11
2 17 5 13 3 -3 4 -12 1 -19z m-340 -10 c-3 -8 -6 -5 -6 6 -1 11 2 17 5 13 3
-3 4 -12 1 -19z m372 -84 c1 -21 -5 -34 -15 -38 -15 -6 -16 0 -11 46 4 29 7
64 8 78 2 33 18 -42 18 -86z m-379 59 c-1 -5 -12 -21 -26 -38 -26 -30 -23 -21
6 23 16 23 20 27 20 15z m610 -148 c-4 -66 -7 -133 -6 -149 0 -16 -4 -31 -11
-33 -22 -8 -27 84 -9 182 9 50 16 107 17 126 0 28 2 30 9 14 4 -12 4 -75 0
-140z m-2047 93 c-38 -42 -53 -85 -53 -150 0 -57 -12 -137 -39 -258 -6 -25
-14 -65 -19 -90 -8 -39 -9 -35 -4 25 2 39 9 78 14 88 5 11 11 33 13 50 2 18 9
77 15 132 15 132 26 172 57 201 33 30 43 31 16 2z m399 -67 c-6 -36 -13 -129
-16 -206 -3 -93 -2 -123 4 -90 4 28 9 91 11 140 l2 90 8 -95 c8 -95 2 -220
-10 -202 -3 6 -6 -31 -6 -82 -1 -81 -4 -99 -32 -159 -18 -38 -35 -93 -39 -127
-8 -72 -24 -70 -24 4 0 35 9 74 27 117 l27 64 -2 231 c-2 225 -2 232 23 298
14 36 25 76 26 89 0 13 3 17 6 8 3 -8 1 -44 -5 -80z m-513 70 c10 -6 14 -30
14 -82 l-1 -74 21 83 c14 56 25 82 35 82 10 0 12 -4 5 -12 -17 -21 -34 -84
-38 -140 -8 -108 -17 -174 -30 -223 -7 -27 -16 -84 -20 -125 -4 -41 -11 -79
-15 -85 -4 -5 -11 -21 -15 -35 -4 -14 -19 -54 -35 -90 -15 -36 -35 -105 -44
-154 -15 -79 -45 -162 -46 -128 0 18 -18 15 -53 -10 l-32 -23 23 35 c40 65 51
95 57 163 6 56 12 75 40 111 49 64 52 73 64 175 7 52 21 131 32 174 17 66 20
103 17 223 -1 79 -1 144 2 144 3 0 11 -4 19 -9z m33 -26 c-2 -14 -6 -25 -8
-25 -2 0 -4 11 -4 25 0 14 4 25 9 25 4 0 6 -11 3 -25z m1465 -42 c-3 -10 -5
-2 -5 17 0 19 2 27 5 18 2 -10 2 -26 0 -35z m483 13 c-5 -15 -10 -51 -10 -80
0 -28 -7 -79 -16 -111 -8 -33 -26 -114 -40 -180 -14 -66 -26 -127 -28 -135 -2
-8 -6 -32 -10 -53 -4 -20 -29 -80 -56 -133 -28 -52 -50 -106 -50 -118 0 -13
-12 -45 -26 -72 -20 -38 -25 -57 -20 -87 6 -34 3 -42 -23 -66 -17 -15 -33 -41
-37 -57 -7 -31 -84 -182 -84 -166 0 5 11 34 25 63 13 30 31 85 40 122 9 37 40
124 70 194 31 69 54 135 53 147 -2 11 8 53 20 91 17 50 34 79 59 103 43 38 28
44 -16 6 -20 -17 -36 -44 -46 -77 -8 -29 -40 -97 -70 -152 -31 -55 -65 -131
-76 -170 -11 -38 -32 -88 -47 -110 -15 -22 -35 -61 -45 -86 -10 -25 -28 -55
-41 -66 -13 -11 -31 -43 -41 -71 l-18 -51 -41 21 c-23 11 -42 22 -44 23 -9 8
22 90 53 141 19 32 35 65 35 73 0 9 28 39 61 66 93 76 119 110 119 153 1 72
30 202 66 294 20 51 43 113 51 138 l13 45 -5 -59 c-3 -33 -10 -64 -14 -70 -5
-6 -18 -37 -28 -68 -18 -52 -18 -56 -2 -48 9 5 20 22 24 37 3 16 15 38 26 49
28 30 78 201 89 304 14 129 36 184 90 220 24 16 46 28 47 26 2 -2 -1 -15 -7
-30z m-1246 2 c-12 -40 -75 -172 -89 -188 -17 -19 -35 -117 -35 -192 0 -36 -6
-68 -15 -82 -14 -21 -38 -172 -48 -296 -2 -25 -4 32 -5 125 -2 134 1 176 13
199 8 15 15 40 15 55 0 14 9 46 20 70 11 24 20 52 20 63 0 11 27 76 61 144 58
118 79 151 63 102z m-785 -65 c-1 -48 -3 -59 -8 -38 -7 35 0 34 -196 21 -66
-4 -129 -7 -140 -6 -49 4 -72 3 -105 -4 l-35 -7 42 25 c35 22 57 27 145 31 56
3 108 6 113 7 6 1 22 -2 36 -5 20 -5 31 -1 49 18 17 18 34 25 62 25 l38 0 -1
-67z m172 -23 l-8 -65 -2 52 c-1 47 7 89 15 80 2 -1 -1 -32 -5 -67z m726 48
c-3 -8 -6 -5 -6 6 -1 11 2 17 5 13 3 -3 4 -12 1 -19z m1022 -20 c-7 -13 -21
-34 -31 -48 -16 -20 -18 -34 -13 -82 7 -57 -7 -145 -27 -178 -9 -15 -9 -12 7
83 3 20 2 37 -2 37 -10 -1 -60 -111 -74 -165 -12 -43 -70 -145 -94 -165 -9 -7
-23 -28 -31 -47 -9 -18 -18 -32 -20 -30 -8 8 9 96 17 91 5 -3 12 3 16 13 3 10
23 43 44 73 22 32 40 74 44 100 4 25 16 61 26 80 11 19 19 42 19 52 0 32 40
109 82 158 48 56 54 60 37 28z m-702 -10 c-3 -8 -6 -5 -6 6 -1 11 2 17 5 13 3
-3 4 -12 1 -19z m-330 -10 c-3 -8 -6 -5 -6 6 -1 11 2 17 5 13 3 -3 4 -12 1
-19z m650 -50 c-2 -13 -4 -3 -4 22 0 25 2 35 4 23 2 -13 2 -33 0 -45z m-310
-5 c-3 -10 -5 -2 -5 17 0 19 2 27 5 18 2 -10 2 -26 0 -35z m-350 15 c-3 -8 -6
-5 -6 6 -1 11 2 17 5 13 3 -3 4 -12 1 -19z m-736 -128 c-14 -26 -29 -83 -41
-159 -10 -66 -23 -129 -29 -140 -15 -28 -66 -175 -103 -299 -21 -67 -36 -101
-44 -98 -6 2 -17 -1 -23 -7 -7 -7 -3 9 8 34 11 25 26 79 32 120 6 41 24 103
39 139 16 36 31 76 35 90 4 14 16 37 26 51 10 14 23 57 30 95 11 66 76 230 87
219 3 -3 -5 -23 -17 -45z m1335 -30 c-20 -22 -36 -36 -36 -32 0 5 14 21 30 37
17 16 30 36 31 44 0 11 2 12 6 3 3 -7 -11 -30 -31 -52z m-1141 13 c-18 -42
-44 -172 -45 -218 0 -62 -29 -172 -64 -245 -14 -30 -26 -62 -25 -70 0 -8 11 8
24 35 13 28 47 75 75 105 43 47 48 50 31 20 -11 -19 -27 -62 -36 -95 -10 -33
-28 -71 -40 -85 -13 -14 -25 -34 -28 -45 -4 -18 -5 -17 -6 3 0 13 -5 21 -10
17 -5 -3 -11 0 -14 7 -2 7 -3 4 -1 -8 2 -13 -2 -21 -11 -21 -9 0 -13 7 -11 16
3 9 7 35 10 57 3 23 17 66 31 95 21 40 29 76 36 151 12 145 17 167 52 235 30
59 48 85 32 46z m-2252 -50 c-13 -2 -33 -2 -45 0 -13 2 -3 4 22 4 25 0 35 -2
23 -4z m2254 -25 c-3 -7 -5 -2 -5 12 0 14 2 19 5 13 2 -7 2 -19 0 -25z m-10
-40 c-3 -8 -6 -5 -6 6 -1 11 2 17 5 13 3 -3 4 -12 1 -19z m-169 -30 c-13 -18
-28 -42 -31 -52 -4 -10 -10 -16 -13 -13 -8 8 48 97 60 97 4 0 -3 -15 -16 -32z
m-51 -100 c-3 -8 -6 -5 -6 6 -1 11 2 17 5 13 3 -3 4 -12 1 -19z m-213 -70
c-30 -60 -288 -322 -309 -314 -7 2 -18 -1 -25 -7 -7 -7 8 14 33 46 26 33 47
63 47 68 0 5 20 18 44 29 48 20 76 53 80 95 2 14 10 34 20 43 20 21 118 90
129 91 4 1 -5 -23 -19 -51z m-521 19 c-26 -29 -173 -137 -186 -137 -17 0 39
44 101 81 33 19 52 37 51 47 -2 26 -1 27 27 28 25 2 25 2 7 -19z m1394 -74
c-2 -16 -4 -5 -4 22 0 28 2 40 4 28 2 -13 2 -35 0 -50z m939 30 c-18 -46 -46
-189 -46 -231 0 -17 -3 -37 -6 -45 -8 -23 -145 -141 -138 -120 18 56 30 82 56
118 16 23 37 76 49 125 23 93 30 109 67 158 32 41 35 40 18 -5z m-1651 -52
c-22 -44 -27 -38 -7 9 9 21 18 35 20 30 2 -5 -4 -22 -13 -39z m803 -52 c-19
-12 -21 -5 -6 43 l13 43 3 -39 c2 -24 -2 -42 -10 -47z m-1115 15 c-15 -29 -30
-41 -61 -52 -23 -7 -47 -23 -54 -35 -6 -12 -29 -42 -50 -66 -21 -24 -41 -55
-44 -68 -4 -12 -10 -20 -15 -18 -10 7 6 47 35 90 17 25 18 28 2 16 -9 -8 -26
-32 -37 -53 -11 -21 -25 -38 -32 -38 -6 0 -24 -7 -39 -14 l-28 -15 15 29 c8
16 24 53 35 83 15 41 28 58 53 70 53 26 120 55 147 62 14 4 38 19 54 32 37 31
43 23 19 -23z m1799 -6 c-32 -63 -33 -64 -89 -73 -125 -19 -214 -62 -235 -115
-3 -10 -17 -20 -30 -23 -94 -21 -261 -69 -301 -86 l-48 -21 19 28 c11 15 45
41 76 57 42 22 56 36 56 52 0 18 10 25 58 40 31 10 58 20 60 23 1 3 19 5 40 3
33 -2 34 -1 12 7 -21 8 -19 9 13 5 64 -7 316 92 300 118 -3 6 -1 7 4 4 6 -4
28 2 49 13 22 10 40 19 41 20 1 0 -10 -24 -25 -52z m-1710 -25 c-11 -21 -25
-55 -31 -76 -15 -43 -35 -57 -73 -50 -18 3 -40 -2 -62 -15 -23 -14 2 17 72 88
59 59 108 104 110 100 2 -5 -5 -26 -16 -47z m233 28 c-8 -16 -19 -31 -25 -33
-10 -3 -39 -124 -40 -163 0 -14 -7 -21 -19 -21 -18 0 -18 3 -5 46 8 25 19 64
25 88 7 23 19 48 29 55 9 7 22 22 29 35 6 12 14 22 17 22 2 0 -2 -13 -11 -29z
m1551 -9 c-8 -16 -18 -47 -22 -68 -5 -34 -12 -42 -54 -63 -43 -21 -49 -28 -65
-80 -15 -52 -20 -57 -41 -53 -13 2 -21 9 -17 15 3 6 1 7 -6 3 -6 -4 -9 -11 -6
-16 3 -5 -5 -12 -17 -15 -13 -4 -65 -50 -116 -102 -83 -85 -95 -94 -119 -88
l-27 6 32 25 c18 14 32 30 32 35 0 5 -12 -2 -27 -16 -15 -14 -32 -25 -36 -25
-5 0 -37 -13 -71 -29 -47 -23 -61 -35 -63 -53 -3 -49 -38 -128 -55 -128 -24 0
-23 28 2 65 11 17 20 42 20 57 0 23 11 35 62 68 34 22 69 40 78 40 10 0 35 13
58 30 22 16 58 36 79 45 21 9 47 27 58 41 11 13 34 32 51 42 65 35 125 87 131
112 3 14 29 50 58 80 28 30 60 68 70 83 23 36 31 28 11 -11z m-1175 -53 l-9
-54 -1 47 c0 25 2 54 6 64 11 30 14 1 4 -57z m176 19 c-3 -7 -5 -2 -5 12 0 14
2 19 5 13 2 -7 2 -19 0 -25z m-767 -42 c-9 -43 -38 -101 -46 -93 -5 5 22 100
35 126 19 34 23 20 11 -33z m1936 -12 c-13 -33 -38 -90 -54 -129 -16 -38 -41
-113 -56 -165 -15 -52 -36 -108 -47 -126 -10 -18 -26 -49 -33 -70 -8 -22 -15
-33 -15 -26 -1 7 -5 11 -10 7 -21 -12 49 200 83 252 13 21 34 70 45 108 20 68
98 221 107 212 3 -3 -6 -31 -20 -63z m-1482 -29 c-4 -8 -11 -15 -17 -15 -6 0
-19 -7 -29 -17 -10 -9 -18 -11 -18 -5 0 7 47 43 67 51 1 1 0 -6 -3 -14z m153
-32 c-3 -10 -5 -2 -5 17 0 19 2 27 5 18 2 -10 2 -26 0 -35z m-20 15 c-3 -8 -6
-5 -6 6 -1 11 2 17 5 13 3 -3 4 -12 1 -19z m-587 -21 c0 -2 -12 -14 -27 -28
l-28 -24 24 28 c23 25 31 32 31 24z m-360 -77 c0 -5 -4 -10 -10 -10 -5 0 -10
5 -10 10 0 6 5 10 10 10 6 0 10 -4 10 -10z m523 -45 c-3 -9 -8 -14 -10 -11 -3
3 -2 9 2 15 9 16 15 13 8 -4z m1422 -31 c-14 -76 -21 -86 -59 -78 -33 6 -37 3
-78 -50 -34 -44 -49 -56 -70 -56 -16 0 -28 5 -28 10 0 20 143 165 184 187 55
30 59 29 51 -13z m93 -289 c-6 -14 -13 -23 -16 -21 -7 7 9 46 18 46 5 0 4 -11
-2 -25z m-578 -75 c0 -26 -26 -60 -53 -70 -40 -14 -40 -14 -22 19 21 41 75 78
75 51z"/>
<path d="M4262 2610 c0 -19 2 -27 5 -17 2 9 2 25 0 35 -3 9 -5 1 -5 -18z"/>
<path d="M4272 2550 c0 -14 2 -19 5 -12 2 6 2 18 0 25 -3 6 -5 1 -5 -13z"/>
<path d="M3578 2553 c-9 -10 -20 -45 -26 -78 -6 -33 -14 -71 -17 -85 -3 -14 3
-2 14 25 11 28 20 64 20 80 1 17 8 41 17 53 18 26 13 29 -8 5z"/>
<path d="M3183 2450 c0 -36 2 -50 4 -32 2 17 2 47 0 65 -2 17 -4 3 -4 -33z"/>
<path d="M2826 1964 c-4 -14 -5 -29 -2 -31 3 -3 8 7 12 21 3 15 4 29 1 32 -2
3 -8 -7 -11 -22z"/>
<path d="M2721 1613 c-1 -6 3 -23 9 -37 5 -15 6 -66 2 -128 -4 -56 -5 -120 -2
-142 4 -26 8 12 12 103 5 108 3 152 -7 180 -8 20 -14 31 -14 24z"/>
<path d="M2562 1920 c0 -14 2 -19 5 -12 2 6 2 18 0 25 -3 6 -5 1 -5 -13z"/>
<path d="M2322 2015 c0 -16 2 -22 5 -12 2 9 2 23 0 30 -3 6 -5 -1 -5 -18z"/>
<path d="M2332 1950 c0 -14 2 -19 5 -12 2 6 2 18 0 25 -3 6 -5 1 -5 -13z"/>
<path d="M4167 1876 c-4 -44 -5 -81 -3 -83 6 -7 19 121 14 143 -2 10 -7 -17
-11 -60z"/>
<path d="M2332 1665 c0 -16 2 -22 5 -12 2 9 2 23 0 30 -3 6 -5 -1 -5 -18z"/>
<path d="M1879 1044 c-7 -9 -22 -19 -33 -23 -16 -6 -16 -9 -4 -14 10 -3 23 5
37 24 23 31 23 40 0 13z"/>
<path d="M3105 2849 c-60 -5 -171 -11 -245 -14 -74 -2 -221 -15 -325 -29 -105
-13 -209 -22 -230 -20 -46 6 -218 -9 -355 -30 l-95 -15 84 5 c46 3 95 10 109
15 13 5 102 12 196 14 94 3 205 9 246 14 41 5 116 15 165 21 50 6 144 13 210
15 66 1 198 8 293 15 104 7 187 9 210 4 20 -5 73 -6 117 -3 l80 5 -65 2 c-36
1 -114 4 -175 6 -60 2 -159 0 -220 -5z"/>
<path d="M989 2846 c-2 -2 -48 -7 -102 -10 -68 -3 -120 -13 -174 -31 -62 -22
-87 -26 -130 -20 -33 4 -65 2 -87 -6 -30 -11 -40 -10 -74 5 -33 15 -58 17
-148 13 -60 -3 -147 -13 -194 -21 l-85 -15 72 4 c39 3 84 10 98 15 44 17 221
13 257 -6 22 -11 41 -14 67 -8 20 4 72 8 116 9 56 0 90 6 115 19 24 12 89 24
210 36 99 10 151 18 119 19 -31 0 -58 -1 -60 -3z"/>
<path d="M1267 2626 c-26 -7 -51 -17 -55 -21 -4 -5 2 -5 13 -1 50 18 122 28
169 23 34 -4 43 -3 26 3 -37 12 -99 10 -153 -4z"/>
<path d="M1451 2616 c8 -8 79 -35 79 -30 0 3 -16 12 -35 20 -33 14 -53 18 -44
10z"/>
<path d="M1147 2567 c-75 -53 -147 -158 -146 -212 0 -11 6 -2 13 20 24 75 85
152 166 207 14 9 22 17 19 17 -3 1 -26 -14 -52 -32z"/>
<path d="M1587 2536 c35 -31 64 -70 87 -118 20 -39 36 -65 36 -59 0 43 -105
188 -154 213 -12 5 2 -11 31 -36z"/>
<path d="M1712 2320 c0 -14 2 -19 5 -12 2 6 2 18 0 25 -3 6 -5 1 -5 -13z"/>
<path d="M993 2265 c0 -38 2 -53 4 -32 2 20 2 52 0 70 -2 17 -4 1 -4 -38z"/>
<path d="M1723 2255 c0 -22 2 -30 4 -17 2 12 2 30 0 40 -3 9 -5 -1 -4 -23z"/>
<path d="M20 2269 c14 -6 46 -24 72 -40 37 -24 54 -29 78 -24 24 5 37 1 61
-19 17 -14 40 -26 51 -26 11 0 31 -9 46 -20 15 -12 40 -20 61 -20 46 0 128
-14 165 -29 16 -6 94 -13 177 -14 88 -2 153 -8 161 -14 7 -7 42 -14 78 -17
l65 -5 -65 12 c-36 7 -72 16 -80 22 -8 5 -81 11 -161 12 -82 1 -159 8 -175 14
-38 15 -120 30 -162 29 -19 0 -45 8 -59 20 -14 11 -34 20 -45 20 -11 0 -35 12
-53 26 -27 20 -41 24 -64 19 -25 -5 -42 1 -88 29 -32 20 -65 36 -73 35 -8 0
-4 -5 10 -10z"/>
<path d="M1711 2184 c0 -11 3 -14 6 -6 3 7 2 16 -1 19 -3 4 -6 -2 -5 -13z"/>
<path d="M1000 2174 c0 -12 13 -47 29 -77 19 -37 25 -57 18 -60 -7 -2 0 -6 15
-9 l27 -5 -25 32 c-14 18 -33 57 -44 86 -11 30 -19 44 -20 33z"/>
<path d="M2150 2093 c-8 -3 -23 -12 -32 -21 -10 -8 -24 -12 -32 -9 -9 4 -18 2
-21 -3 -4 -6 -15 -10 -25 -10 -10 0 -21 -4 -24 -9 -9 -14 88 10 107 27 11 10
34 16 59 15 22 -1 39 -1 37 1 -9 8 -55 13 -69 9z"/>
<path d="M1966 2031 c-4 -5 3 -7 14 -4 23 6 26 13 6 13 -8 0 -17 -4 -20 -9z"/>
<path d="M3743 1179 c-11 -12 -45 -27 -74 -34 -30 -7 -44 -14 -33 -14 26 -1
126 30 119 37 -3 3 0 11 6 19 18 20 6 15 -18 -8z"/>
<path d="M3530 1099 c-14 -6 -56 -14 -94 -19 -38 -5 -72 -13 -75 -19 -4 -6
-27 -17 -51 -26 -25 -9 -70 -29 -100 -44 -32 -17 -80 -32 -115 -36 -71 -8
-122 -22 -131 -37 -4 -5 4 -4 17 2 12 7 56 16 96 21 69 8 141 35 285 110 20
10 55 19 77 19 22 0 52 5 68 11 15 6 62 15 103 19 l75 7 -65 1 c-36 0 -76 -4
-90 -9z"/>
<path d="M2990 905 c-25 -13 -41 -24 -37 -25 11 0 87 39 87 45 0 7 0 7 -50
-20z"/>
<path d="M3148 913 c6 -2 18 -2 25 0 6 3 1 5 -13 5 -14 0 -19 -2 -12 -5z"/>
<path d="M2930 900 c-9 -6 -10 -10 -3 -10 6 0 15 5 18 10 8 12 4 12 -15 0z"/>
<path d="M2865 879 c-35 -5 -36 -6 -10 -8 l30 -3 -35 -13 c-19 -7 -31 -14 -27
-14 15 -2 117 30 117 36 0 3 -6 3 -14 0 -8 -3 -16 -3 -18 1 -2 4 -21 4 -43 1z"/>
<path d="M4410 851 c0 -5 -33 -49 -74 -98 -40 -48 -94 -120 -119 -159 -33 -52
-61 -82 -102 -109 -31 -21 -53 -40 -51 -43 3 -3 30 11 60 31 39 26 70 59 107
114 29 43 83 115 121 161 59 72 81 112 63 112 -3 0 -5 -4 -5 -9z"/>
<path d="M2698 833 c7 -3 16 -2 19 1 4 3 -2 6 -13 5 -11 0 -14 -3 -6 -6z"/>
<path d="M2755 822 c-16 -10 -69 -34 -118 -52 -55 -21 -103 -47 -131 -71 -49
-43 -158 -83 -266 -99 l-65 -9 65 4 c103 6 222 48 278 99 29 25 70 49 103 59
65 21 200 86 179 87 -8 0 -28 -8 -45 -18z"/>
<path d="M2630 805 c-14 -15 -36 -26 -54 -26 l-31 -2 29 -4 c20 -3 36 2 55 20
14 13 33 27 41 30 13 5 13 6 -1 6 -8 1 -26 -10 -39 -24z"/>
<path d="M2459 762 c-8 -4 -35 -23 -60 -43 -24 -20 -51 -39 -59 -42 -13 -5
-12 -6 1 -6 9 -1 37 17 63 40 33 30 59 43 93 49 42 7 43 8 13 8 -19 0 -42 -2
-51 -6z"/>
<path d="M2630 709 c0 -5 5 -7 10 -4 6 3 10 8 10 11 0 2 -4 4 -10 4 -5 0 -10
-5 -10 -11z"/>
<path d="M2555 640 c-44 -15 -111 -42 -150 -60 -46 -21 -104 -37 -170 -47
-127 -18 -226 -51 -340 -113 -133 -72 -249 -116 -360 -139 -55 -11 -163 -41
-240 -66 -77 -25 -169 -50 -204 -56 -34 -5 -84 -20 -110 -33 -25 -13 -82 -35
-126 -50 -44 -15 -91 -34 -105 -42 -16 -10 -18 -13 -5 -8 136 47 207 74 241
92 23 12 70 26 105 31 35 6 127 31 204 56 77 25 178 52 225 61 103 19 206 57
365 137 150 75 235 104 344 118 62 8 118 24 201 59 63 26 139 55 168 65 28 9
52 18 52 21 0 7 -12 4 -95 -26z"/>
<path d="M2055 564 c-33 -14 -82 -34 -110 -45 -27 -12 -52 -23 -55 -26 -9 -10
44 9 125 44 44 19 98 38 120 43 35 7 36 8 10 9 -16 0 -57 -11 -90 -25z"/>
<path d="M1867 511 c-49 -45 -284 -166 -342 -177 -38 -6 -81 -23 -60 -24 49 0
385 149 385 171 0 5 8 6 18 3 13 -4 14 -3 4 4 -11 7 -6 15 20 36 18 14 30 26
25 26 -4 0 -26 -17 -50 -39z"/>
<path d="M1382 289 c-29 -12 -52 -23 -50 -25 4 -3 109 34 117 42 9 9 -16 2
-67 -17z"/>
<path d="M1290 250 c-8 -5 -10 -10 -5 -10 6 0 17 5 25 10 8 5 11 10 5 10 -5 0
-17 -5 -25 -10z"/>
<path d="M1200 219 c-35 -20 -28 -19 40 7 22 8 27 13 15 13 -11 0 -36 -9 -55
-20z"/>
<path d="M1098 193 c12 -2 32 -2 45 0 12 2 2 4 -23 4 -25 0 -35 -2 -22 -4z"/>
<path d="M1038 183 c6 -2 18 -2 25 0 6 3 1 5 -13 5 -14 0 -19 -2 -12 -5z"/>
<path d="M998 173 c7 -3 16 -2 19 1 4 3 -2 6 -13 5 -11 0 -14 -3 -6 -6z"/>
<path d="M2855 141 c-17 -15 -41 -34 -54 -43 -16 -11 -24 -28 -27 -60 l-4 -43
13 38 c8 25 31 55 62 82 28 24 48 45 45 48 -3 3 -19 -7 -35 -22z"/>
<path d="M755 89 c-22 -10 -34 -19 -27 -19 15 0 72 28 72 35 0 6 3 7 -45 -16z"/>
<path d="M615 69 c-38 -5 -82 -6 -96 -3 -26 5 -124 -14 -115 -23 2 -2 23 1 46
7 24 6 54 9 69 5 l26 -7 -35 -18 c-51 -28 -31 -24 32 5 29 14 71 25 95 25 23
0 45 5 48 10 3 6 5 9 3 9 -2 -1 -34 -5 -73 -10z"/>
<path d="M360 30 c-8 -5 -10 -10 -5 -10 6 0 17 5 25 10 8 5 11 10 5 10 -5 0
-17 -5 -25 -10z"/>
<path d="M310 10 c-8 -5 -10 -10 -5 -10 6 0 17 5 25 10 8 5 11 10 5 10 -5 0
-17 -5 -25 -10z"/>
</g>
</svg>