<?xml version="1.0" standalone="no"?>
<!DOCTYPE svg PUBLIC "-//W3C//DTD SVG 20010904//EN"
 "http://www.w3.org/TR/2001/REC-SVG-20010904/DTD/svg10.dtd">
<svg version="1.0" xmlns="http://www.w3.org/2000/svg"
 width="512.000000pt" height="512.000000pt" viewBox="0 0 512.000000 512.000000"
 preserveAspectRatio="xMidYMid meet">
<metadata>
Created by potrace 1.16, written by Peter Selinger 2001-2019
</metadata>
<g transform="translate(0.000000,512.000000) scale(0.100000,-0.100000)"
fill="#000000" stroke="none">
<path d="M2256 4615 c-12 -32 -6 -76 15 -104 12 -17 19 -38 16 -52 -3 -21 -6
-19 -22 19 -12 28 -26 44 -42 48 -13 4 -26 4 -29 1 -11 -11 29 -77 62 -102 37
-28 58 -57 69 -92 6 -23 6 -23 -24 -5 -31 17 -60 11 -68 -15 -6 -17 35 -50 69
-57 30 -6 30 -6 26 -61 -4 -51 -61 -185 -78 -185 -11 0 -40 162 -40 222 0 64
-18 102 -49 106 -22 4 -23 2 -16 -40 4 -24 15 -67 25 -95 21 -59 10 -70 -29
-29 -17 18 -21 33 -19 67 3 38 0 44 -17 44 -19 0 -20 -7 -20 -95 0 -55 -5
-103 -12 -115 -11 -18 -14 -15 -39 38 -33 74 -35 139 -4 202 12 26 32 50 44
55 31 11 53 40 61 79 7 33 7 34 -21 27 -48 -11 -78 -40 -88 -82 -4 -21 -13
-50 -19 -64 -10 -25 -10 -24 -17 12 -7 41 -26 68 -46 68 -18 0 -17 -4 6 -70
21 -59 26 -120 10 -120 -5 0 -16 22 -24 49 -27 91 -57 132 -123 165 -42 21
-43 21 -43 -15 0 -37 37 -107 61 -114 9 -3 17 -16 17 -30 0 -33 17 -52 53 -60
36 -8 60 -39 103 -130 56 -121 56 -127 -9 -65 -101 97 -173 187 -185 230 -11
42 -44 70 -63 51 -10 -10 -9 -12 39 -79 17 -22 16 -22 -10 -12 -14 5 -39 19
-54 30 -32 24 -69 33 -78 19 -10 -17 27 -48 70 -60 70 -17 92 -29 131 -69 45
-46 42 -60 -6 -31 -64 40 -104 20 -79 -39 15 -37 6 -54 -22 -39 -16 9 -19 17
-15 46 8 48 -6 77 -50 107 -59 40 -73 36 -73 -24 0 -64 20 -103 61 -121 36
-14 93 -72 78 -77 -5 -2 -31 4 -59 13 -32 11 -55 13 -66 7 -27 -15 10 -42 57
-42 22 0 49 -5 60 -10 19 -11 125 -217 116 -226 -3 -3 -56 37 -117 88 -139
114 -173 165 -171 259 0 35 -6 73 -14 89 -14 28 -73 62 -129 76 -28 7 -28 6
-21 -27 13 -65 46 -119 85 -141 29 -17 41 -33 53 -70 l15 -49 -56 32 c-32 18
-65 40 -75 51 -37 38 -78 51 -140 44 -87 -9 -96 -17 -56 -50 42 -36 76 -48
109 -41 30 7 120 -13 120 -26 0 -16 -44 -21 -83 -8 -37 12 -42 11 -93 -16 -30
-16 -54 -33 -54 -37 0 -13 77 -48 105 -48 14 0 41 14 63 34 65 59 104 57 194
-12 57 -43 46 -58 -21 -29 -47 19 -49 19 -86 1 -21 -10 -49 -17 -62 -16 -25 2
-28 -5 -13 -28 7 -12 31 -15 120 -13 60 1 110 -1 110 -5 0 -4 -6 -16 -14 -27
-7 -11 -22 -46 -32 -78 -10 -31 -22 -56 -27 -54 -4 1 -23 32 -40 67 -27 54
-36 65 -57 65 -47 0 -33 -71 20 -104 30 -18 77 -88 66 -98 -3 -3 -38 22 -78
54 -40 33 -95 73 -123 89 -27 15 -63 43 -80 61 -21 24 -46 38 -82 48 -31 7
-53 9 -53 4 0 -16 37 -84 52 -96 7 -6 35 -13 63 -17 41 -5 161 -63 152 -72 -5
-5 -92 18 -126 33 -57 26 -99 9 -143 -57 l-37 -55 50 -3 c33 -2 49 -7 49 -16
0 -19 35 -26 75 -15 24 7 48 6 77 -2 l43 -12 -55 -14 c-70 -19 -80 -27 -80
-72 0 -55 -19 -116 -32 -103 -8 8 -8 23 1 51 14 48 -3 102 -39 121 -25 13 -22
15 -45 -29 -20 -40 -15 -66 25 -116 28 -35 30 -43 30 -119 l-1 -81 -45 50
c-56 60 -64 80 -57 133 8 56 -13 85 -87 122 l-60 30 0 -27 c0 -55 20 -101 58
-132 56 -47 72 -64 72 -73 0 -5 -16 3 -36 19 -29 22 -50 28 -101 31 -63 4 -65
4 -54 -16 15 -28 68 -71 97 -78 14 -4 42 -4 63 0 36 5 40 3 90 -52 29 -31 76
-80 104 -109 l51 -52 -61 18 c-43 13 -72 30 -101 59 -52 52 -172 93 -172 59 0
-14 43 -58 75 -75 18 -10 16 -11 -16 -12 -19 0 -43 -6 -53 -13 -16 -12 -16
-15 -1 -51 l16 -38 -23 7 c-35 11 -50 27 -44 47 11 44 -14 79 -78 109 -36 17
-62 25 -65 18 -7 -22 11 -80 34 -108 29 -33 32 -46 9 -37 -27 10 -99 -29 -137
-76 -20 -25 -37 -47 -37 -49 0 -3 28 -4 63 -3 148 3 144 2 180 39 l35 36 66
-32 c37 -18 65 -36 63 -42 -1 -5 -33 -17 -70 -26 -76 -20 -102 -39 -128 -96
-26 -56 -25 -67 8 -59 65 15 112 43 139 83 30 46 73 75 122 84 53 10 37 -18
-31 -52 -27 -13 -33 -23 -35 -55 -4 -51 7 -61 51 -42 29 12 38 22 47 58 24 90
111 135 239 125 58 -4 171 -41 160 -51 -2 -2 -40 -7 -84 -10 -174 -11 -218
-24 -236 -68 -14 -35 -3 -48 43 -48 29 0 53 19 63 50 8 27 39 33 164 34 77 0
123 -5 166 -18 l60 -19 -82 -22 c-45 -12 -100 -33 -122 -48 -22 -15 -51 -27
-63 -27 l-22 0 22 16 c53 37 48 84 -9 84 -37 0 -97 -52 -101 -88 -2 -20 -9
-28 -28 -30 -14 -2 -29 -8 -34 -12 -5 -5 -30 -6 -56 -3 -35 4 -56 0 -85 -14
l-39 -20 24 -13 c14 -7 46 -14 72 -14 41 -1 58 -11 46 -28 -6 -10 26 -48 41
-48 25 0 70 37 81 66 8 20 17 24 49 24 22 0 42 -4 45 -8 9 -15 -54 -92 -74
-92 -16 0 -65 -17 -79 -27 -3 -2 6 -14 19 -28 15 -16 43 -28 82 -36 33 -7 57
-16 55 -22 -6 -18 -88 -57 -117 -57 -28 0 -100 26 -100 36 0 3 10 14 22 23 42
35 -8 81 -94 86 -29 1 -56 3 -60 4 -5 0 -8 12 -8 25 0 32 -27 62 -74 82 l-39
15 6 -36 c8 -52 31 -82 67 -90 23 -5 35 -17 50 -48 24 -50 24 -47 0 -47 -11 0
-53 33 -97 76 -76 75 -122 104 -163 104 -25 0 -25 -2 0 -50 23 -45 41 -57 99
-66 l42 -7 -31 -18 c-37 -23 -38 -34 -3 -56 19 -13 43 -17 78 -15 36 2 65 -5
105 -22 30 -14 77 -28 104 -31 45 -6 47 -8 32 -23 -10 -10 -39 -17 -80 -20
-55 -4 -73 0 -117 22 -52 25 -139 36 -139 17 0 -5 18 -25 41 -46 l41 -37 84 7
c46 4 84 4 84 0 0 -3 -13 -20 -29 -36 -27 -26 -30 -36 -33 -106 -2 -43 -2 -80
0 -83 1 -2 19 5 39 15 54 29 74 68 72 139 l-3 59 45 23 c61 32 79 31 47 -3
-56 -61 -57 -105 -1 -116 43 -8 56 9 50 66 -3 37 0 53 16 73 29 37 54 43 132
30 l70 -12 -38 -19 c-44 -21 -62 -52 -53 -90 9 -36 30 -41 66 -15 20 14 34 35
41 65 12 48 15 50 84 61 l48 7 -22 -32 c-13 -17 -31 -31 -43 -31 -21 0 -22
-18 -4 -62 6 -13 1 -17 -21 -20 -31 -3 -43 -32 -18 -42 9 -3 47 -9 85 -12 63
-6 68 -5 75 15 11 37 -5 82 -36 100 -16 9 -29 19 -29 23 0 4 18 20 40 34 32
21 47 25 77 21 88 -15 210 -134 291 -285 23 -43 42 -82 42 -86 0 -25 -121 25
-206 85 -37 28 -44 38 -44 67 0 61 -53 120 -89 97 -19 -11 -12 -71 11 -100
l21 -27 -34 8 c-19 5 -52 8 -74 9 -34 0 -40 -3 -37 -20 7 -47 88 -78 149 -56
18 7 38 9 45 5 15 -10 -45 -32 -88 -33 -17 -1 -37 -8 -44 -16 -19 -23 33 -31
83 -11 53 20 80 20 117 1 31 -16 39 -33 18 -39 -7 -2 -57 -20 -110 -40 -54
-20 -111 -36 -126 -36 -31 0 -100 45 -126 82 -9 12 -16 40 -16 61 0 67 -42
103 -142 121 -44 8 -45 5 -17 -55 27 -55 57 -89 81 -89 10 0 26 -10 36 -22 9
-12 34 -41 56 -65 44 -49 39 -51 -56 -24 -96 26 -118 43 -118 90 0 53 -30 87
-92 106 -28 8 -54 13 -56 10 -3 -2 8 -30 24 -62 23 -44 38 -61 71 -77 42 -21
55 -36 31 -36 -32 0 -112 32 -140 55 -32 27 -68 33 -68 12 0 -9 -12 -14 -32
-15 -34 -1 -168 -50 -168 -62 0 -10 134 -50 171 -50 19 0 49 9 67 20 44 27 71
25 226 -15 74 -19 147 -35 163 -35 39 0 58 -13 41 -27 -25 -20 -84 -24 -121
-8 -20 8 -47 15 -60 15 -22 0 -107 -48 -107 -61 0 -10 50 -29 78 -29 15 0 51
9 80 20 29 11 60 20 70 20 34 -1 -25 -37 -71 -44 -50 -8 -78 -32 -102 -88 -24
-58 -21 -69 18 -61 63 11 98 35 125 84 29 53 42 61 42 27 0 -26 21 -88 30 -88
3 0 17 14 30 32 24 33 28 65 15 125 -6 26 -3 34 16 47 26 16 151 58 157 51 11
-11 -34 -62 -68 -76 -21 -9 -43 -27 -50 -39 -11 -20 -10 -21 17 -18 24 2 28
-1 27 -19 0 -16 5 -23 18 -23 27 0 58 36 58 69 0 38 57 122 95 141 17 8 57 14
90 14 71 1 138 -32 205 -98 l42 -41 -38 -2 c-22 -2 -74 -10 -116 -19 -72 -16
-79 -16 -102 -1 -29 20 -52 22 -62 6 -8 -14 10 -32 48 -45 l31 -10 -66 -37
c-59 -32 -72 -35 -115 -30 -45 5 -55 2 -115 -34 l-66 -40 38 -22 c60 -33 107
-28 147 16 38 42 49 40 32 -3 -12 -32 -4 -104 12 -104 22 0 50 60 50 108 0 41
4 54 23 69 35 27 146 78 154 70 10 -11 -39 -58 -78 -73 -55 -23 -86 -92 -59
-134 15 -24 61 7 87 60 l22 45 1 -38 c0 -30 7 -45 31 -68 17 -16 35 -26 40
-23 18 11 9 69 -17 105 -30 44 -23 68 29 99 95 58 193 -16 291 -220 l41 -85
-1 -330 c-1 -308 -13 -481 -39 -588 -11 -43 12 -49 154 -46 71 2 133 7 137 11
4 4 2 38 -4 75 -22 134 -35 404 -36 773 -1 419 -4 400 70 456 27 21 50 29 94
32 58 4 59 4 72 -28 10 -25 25 -36 62 -51 l49 -18 -6 40 c-3 22 -10 46 -17 53
-6 8 -43 22 -83 31 -40 10 -74 19 -76 21 -6 6 27 31 72 55 l38 20 62 -24 c96
-38 117 -41 117 -18 0 59 -55 111 -118 111 -18 0 -46 -10 -62 -22 -16 -12 -33
-18 -37 -15 -12 13 32 62 76 83 66 32 101 70 101 110 0 39 3 38 -43 19 -36
-15 -87 -67 -87 -89 0 -7 -9 -21 -20 -31 -24 -22 -26 -8 -5 42 19 45 19 73 0
73 -19 0 -31 -25 -39 -85 -11 -91 -47 -147 -130 -204 -41 -28 -78 -51 -82 -51
-4 0 -4 30 -1 68 13 142 88 288 174 339 66 39 150 39 209 1 55 -35 80 -69 98
-132 17 -57 44 -89 72 -84 13 2 21 -8 30 -40 12 -39 11 -47 -6 -80 -11 -20
-20 -42 -20 -49 0 -19 44 -123 52 -123 3 0 19 25 33 55 15 30 31 55 35 55 4 0
27 -7 50 -15 24 -8 45 -13 48 -11 2 3 1 24 -3 47 -10 56 -50 96 -103 105 -37
6 -42 11 -55 48 -8 22 -18 49 -22 59 -6 14 -2 17 24 17 17 0 31 4 31 9 0 19
-34 35 -70 34 -36 -2 -42 2 -94 68 -31 38 -56 71 -56 74 0 2 17 5 38 7 32 3
37 6 37 28 0 21 -5 26 -31 28 -24 2 -35 -3 -47 -22 -17 -25 -18 -25 -58 -11
-23 8 -67 15 -98 15 l-56 1 30 24 c49 41 108 58 174 52 83 -7 135 -35 229
-124 l83 -78 -13 -33 c-17 -45 2 -76 71 -115 l54 -31 -7 58 c-3 32 -13 73 -21
92 -8 19 -12 34 -10 34 2 0 32 -18 66 -40 34 -22 66 -40 71 -40 5 0 9 -15 8
-33 -3 -53 -1 -62 20 -85 35 -37 53 -29 48 21 -3 23 -8 50 -12 60 -12 26 16
22 42 -6 12 -13 22 -30 22 -39 0 -27 41 -69 89 -91 25 -12 49 -23 54 -25 13
-7 8 57 -8 95 -8 20 -23 42 -33 49 -24 18 -1 17 25 -1 18 -13 53 -12 53 2 0
16 -57 74 -86 88 -33 15 -39 16 -84 1 -27 -9 -57 -16 -68 -16 -29 0 -154 65
-182 95 l-23 25 49 0 c27 0 92 5 144 12 l96 11 48 -28 c26 -15 57 -43 69 -61
19 -30 57 -47 57 -26 0 17 -64 84 -98 102 -29 15 -32 19 -16 20 12 0 41 -7 64
-15 54 -19 87 -19 124 0 15 8 45 15 65 15 41 0 59 11 84 53 l17 27 -48 0 c-41
0 -53 -5 -77 -30 -33 -35 -82 -40 -141 -15 l-35 14 16 31 c21 41 13 50 -43 50
-62 0 -95 -18 -106 -57 -8 -27 -17 -34 -57 -43 -79 -19 -209 -16 -260 7 -48
21 -139 87 -140 100 0 4 10 10 23 13 18 5 26 -1 38 -24 20 -39 62 -53 95 -32
57 37 16 71 -105 87 l-84 11 -22 -25 c-22 -26 -23 -26 -71 -11 -26 9 -55 18
-63 20 -25 8 7 22 81 34 77 13 196 -3 313 -42 56 -18 66 -25 64 -43 -3 -18 3
-20 48 -23 47 -3 54 0 78 28 14 17 26 40 26 50 0 42 -80 54 -124 19 -19 -15
-30 -18 -39 -11 -7 6 -45 20 -85 31 -99 27 -102 30 -51 57 54 28 69 29 69 6 0
-24 19 -42 46 -42 17 0 25 9 34 35 7 20 9 42 6 50 -8 22 15 23 75 3 51 -17 58
-23 63 -52 8 -43 41 -73 93 -84 50 -11 55 -8 42 26 -36 93 -57 113 -134 126
-22 4 -51 13 -65 21 -25 14 -25 14 33 39 32 14 63 26 70 26 44 -1 187 -104
212 -153 13 -26 53 -54 86 -62 30 -7 39 10 39 79 l0 40 31 -30 c28 -27 36 -29
104 -29 40 0 76 3 80 7 10 9 -73 96 -108 115 -38 19 -31 24 19 11 48 -13 84
-6 120 25 l26 23 -45 24 c-39 21 -50 23 -88 14 -33 -7 -51 -7 -69 3 -54 27
-115 9 -125 -37 l-7 -31 -56 6 c-32 4 -94 16 -140 27 -46 11 -118 25 -160 32
l-77 12 53 12 c65 15 142 15 212 2 87 -16 156 -15 185 4 21 14 39 16 91 11 63
-7 124 6 124 26 0 20 -46 59 -76 65 -44 8 -93 -10 -142 -52 -39 -33 -45 -35
-89 -28 -77 11 -80 17 -25 53 27 17 57 40 67 51 16 17 27 18 136 13 69 -4 119
-2 119 3 0 17 -87 64 -119 64 -18 0 -45 -7 -61 -15 -34 -18 -36 -14 -14 24 15
25 20 27 68 23 45 -4 54 -1 78 23 36 36 64 135 39 135 -20 0 -97 -32 -114 -48
-11 -9 -25 -30 -32 -47 l-13 -30 -7 38 c-4 20 -5 48 -3 62 8 39 -33 33 -66 -9
-29 -38 -35 -96 -14 -141 10 -22 8 -29 -13 -51 -40 -44 -101 -84 -127 -84 -24
0 -23 2 16 38 29 27 42 47 42 65 0 78 -131 5 -168 -94 -8 -20 -22 -29 -59 -39
-26 -6 -84 -23 -128 -36 -43 -12 -81 -22 -83 -20 -5 5 116 98 181 139 31 21
72 58 90 83 32 45 32 45 79 39 60 -8 88 0 88 27 0 23 -26 47 -50 48 -8 0 -27
-7 -42 -14 l-28 -15 15 37 c20 45 20 46 40 34 22 -12 93 1 113 21 37 38 -43
64 -94 31 -30 -20 -37 -15 -28 20 5 20 12 26 34 26 42 0 59 9 75 41 23 44 19
59 -16 59 -23 0 -41 -9 -65 -35 -30 -32 -33 -33 -39 -15 -3 10 -1 28 5 40 9
17 6 24 -14 45 -24 24 -28 25 -128 19 -88 -6 -113 -4 -172 15 -37 11 -83 21
-101 21 -66 0 -43 18 62 49 l106 31 31 -35 c33 -38 88 -55 115 -36 22 14 0 56
-41 78 l-33 17 63 10 c80 11 132 -8 132 -49 0 -47 26 -81 79 -104 27 -11 52
-21 55 -21 8 0 -6 74 -21 103 -7 15 -38 41 -69 58 -40 23 -52 34 -42 40 22 14
47 10 68 -11 23 -23 67 -25 119 -7 46 16 48 30 8 52 -25 13 -47 17 -88 13
l-54 -5 29 21 c50 35 74 65 90 111 l14 44 -51 -6 c-29 -3 -65 -13 -82 -22 -37
-20 -77 -96 -72 -133 3 -24 0 -28 -27 -32 -91 -14 -126 -16 -126 -8 0 5 27 21
59 35 59 26 91 57 91 89 0 12 -8 18 -23 18 -22 0 -59 -27 -146 -107 -20 -18
-49 -39 -66 -48 -47 -23 -275 -103 -269 -93 3 4 29 23 57 41 29 19 85 61 126
95 76 64 85 69 96 52 3 -5 24 -10 45 -10 29 0 40 5 45 19 3 11 17 26 30 35 27
18 34 46 11 46 -8 0 -24 14 -36 31 -18 24 -28 30 -54 27 -23 -2 -34 2 -41 17
-19 36 -38 24 -39 -25 -1 -34 -5 -44 -16 -42 -8 2 -34 7 -58 12 -24 4 -53 17
-64 28 -20 19 -20 19 19 27 21 3 73 18 115 33 l77 25 36 -31 c45 -40 89 -42
151 -6 l45 26 -53 35 c-68 43 -89 48 -126 29 -17 -9 -36 -16 -41 -16 -18 0 -1
27 25 41 33 17 46 43 54 102 7 51 5 53 -43 33 -54 -23 -71 -49 -69 -111 2 -64
-6 -72 -103 -105 -72 -25 -93 -26 -75 -5 7 8 18 15 26 15 7 0 29 8 49 17 55
26 59 82 5 83 -28 0 -77 -38 -107 -82 -29 -43 -48 -56 -156 -102 l-58 -25 21
29 c11 16 48 48 81 72 154 110 179 131 209 178 26 41 38 51 68 56 63 10 70 14
92 48 26 43 26 46 -10 46 -40 0 -77 -18 -96 -48 -25 -38 -36 -13 -17 44 20 64
12 108 -28 157 -17 20 -34 37 -37 37 -9 0 -33 -67 -39 -110 -4 -29 1 -43 26
-74 55 -69 37 -138 -56 -207 -73 -55 -163 -112 -168 -107 -3 2 14 31 36 64 31
45 52 64 86 78 61 26 103 63 103 92 0 35 -18 30 -67 -18 -48 -47 -70 -46 -30
2 38 45 43 87 18 168 -22 74 -39 96 -68 90 -24 -5 -28 -35 -7 -59 16 -18 16
-21 -10 -59 -29 -45 -35 -105 -11 -136 23 -30 18 -57 -17 -98 l-33 -38 0 105
c0 103 -1 106 -29 136 -34 35 -61 40 -75 13 -13 -25 8 -55 49 -72 28 -12 30
-16 30 -64 0 -33 -3 -46 -9 -37 -12 19 -39 7 -50 -21 -10 -26 -118 -135 -125
-127 -3 3 3 32 13 64 15 49 23 61 42 63 33 5 49 20 49 48 0 26 -24 44 -51 37
-17 -5 -18 -1 -13 28 4 19 15 53 25 77 16 37 27 46 76 68 104 46 125 84 46 84
-37 0 -53 -6 -75 -27 -23 -22 -28 -24 -28 -9 0 31 43 62 97 70 88 11 143 76
65 76 -28 0 -46 -8 -70 -30 -30 -27 -52 -38 -52 -26 0 3 9 20 20 39 27 45 19
79 -26 114 -19 14 -37 24 -39 21 -3 -2 -8 -25 -11 -50 -5 -32 -1 -55 11 -81
16 -35 16 -37 -7 -78 l-23 -42 -5 52 c-5 47 -19 70 -42 71 -12 0 -9 -39 8
-110 13 -58 12 -127 -3 -153 -3 -5 -14 5 -24 22 -12 20 -24 29 -34 25 -16 -6
-35 -62 -35 -104 0 -14 -9 -36 -19 -49 l-18 -23 5 31 c4 29 -11 61 -28 61 -22
0 -70 -54 -70 -77 0 -30 -15 -21 -42 24 l-17 29 58 46 c48 38 60 54 70 92 14
56 14 96 1 96 -18 0 -86 -38 -101 -56 -8 -9 -16 -47 -19 -83 -5 -62 -7 -66
-30 -67 -14 -1 -32 -4 -40 -7 -27 -10 -158 -47 -166 -47 -4 0 17 24 47 53 55
54 197 207 208 225 3 5 25 15 48 21 42 11 93 59 93 87 0 11 -10 12 -47 7 -45
-5 -93 -34 -93 -55 0 -15 -84 -108 -97 -108 -23 0 -14 63 16 116 27 46 35 52
88 69 71 21 103 40 103 62 0 13 -8 15 -51 9 l-50 -7 7 36 c6 31 4 35 -16 35
-12 0 -38 -16 -57 -35 -32 -32 -35 -40 -30 -77 4 -28 1 -48 -10 -64 -20 -30
-33 -22 -33 21 0 33 -40 95 -61 95 -14 0 -30 -50 -23 -73 3 -11 22 -36 41 -55
34 -33 35 -38 29 -85 -6 -55 -10 -61 -42 -71 -18 -6 -21 -3 -17 17 6 30 -22
97 -39 97 -21 0 -67 -48 -74 -77 -4 -15 -1 -40 6 -57 23 -57 23 -89 -2 -126
-19 -28 -31 -36 -62 -38 l-38 -3 31 38 c17 21 31 47 32 58 4 41 -1 72 -16 91
-15 19 -16 18 -41 -10 -23 -26 -25 -34 -19 -86 6 -55 6 -58 -25 -83 -42 -36
-63 -36 -49 0 13 34 5 53 -21 53 -12 0 -25 -10 -32 -26 -10 -22 -10 -28 5 -39
15 -11 9 -24 -63 -131 -115 -173 -124 -182 -109 -114 15 68 58 172 99 240 48
81 203 234 286 284 57 33 74 51 74 77 0 5 -9 9 -20 9 -26 0 -25 3 5 36 48 51
9 53 -56 2 l-37 -28 12 52 c10 48 15 54 61 77 41 22 53 35 72 79 l23 54 -32
-7 c-18 -4 -52 -16 -76 -27 -51 -24 -65 -51 -81 -158 -14 -92 -55 -178 -116
-245 -40 -43 -45 -46 -41 -24 3 14 9 59 12 100 7 71 9 75 51 113 40 37 43 43
43 93 0 29 -3 53 -6 53 -4 0 -22 -10 -41 -21 -38 -24 -53 -53 -53 -105 0 -19
-4 -34 -8 -34 -17 0 -42 97 -42 166 0 64 -2 73 -29 98 -24 23 -29 25 -35 11z
m284 -344 c0 -6 -4 -13 -10 -16 -5 -3 -10 1 -10 9 0 9 5 16 10 16 6 0 10 -4
10 -9z m-391 -166 c11 -19 27 -35 35 -35 36 0 25 -156 -17 -236 -13 -24 -15
-21 -46 75 l-33 101 17 65 c10 36 19 65 20 65 2 0 12 -16 24 -35z m-240 -74
c50 -26 142 -126 171 -187 13 -29 25 -76 28 -116 5 -71 -5 -184 -16 -173 -9 8
-22 128 -22 187 1 42 -3 51 -41 88 -23 22 -47 40 -54 40 -7 0 -16 -16 -19 -35
-7 -34 -8 -34 -30 -20 -23 15 -23 17 -10 71 15 67 6 99 -32 108 -36 9 -59 -13
-50 -48 5 -21 12 -26 37 -26 21 0 30 -4 27 -12 -3 -7 -13 -37 -23 -67 -14 -43
-20 -51 -30 -40 -18 20 -34 75 -28 97 2 11 0 23 -6 26 -6 4 -11 27 -11 51 0
24 -6 47 -12 52 -9 5 -3 10 17 14 51 11 64 10 104 -10z m957 -98 c13 -14 38
-55 55 -89 25 -51 31 -76 31 -126 0 -64 -38 -248 -51 -248 -4 0 -17 33 -28 73
-28 94 -22 182 14 210 12 10 23 27 23 38 0 29 -35 24 -58 -8 l-20 -28 -13 29
c-12 25 -11 29 10 45 43 33 24 100 -24 85 -24 -8 -85 -8 -93 0 -9 10 6 18 55
32 67 18 71 17 99 -13z m290 -32 c-13 -101 -62 -204 -141 -296 l-26 -30 7 70
c6 72 44 203 70 243 15 23 70 62 88 62 5 0 6 -22 2 -49z m-658 -14 c-60 -55
-178 -126 -178 -107 0 17 47 94 69 114 26 24 88 45 131 45 l35 0 -57 -52z
m177 -18 c25 -12 45 -24 45 -28 0 -3 -43 -7 -95 -7 -52 -1 -95 2 -95 6 0 12
62 50 83 50 9 0 37 -9 62 -21z m341 4 c-3 -10 -8 -30 -12 -45 -3 -16 -10 -28
-15 -28 -5 0 -11 12 -15 28 -3 15 -7 32 -9 39 -5 16 5 23 32 23 19 0 23 -4 19
-17z m314 -66 c0 -44 -30 -139 -66 -205 -40 -77 -96 -161 -106 -162 -4 0 -4
15 -1 33 3 23 -1 39 -15 57 l-20 25 -69 -64 c-37 -35 -78 -75 -91 -89 -36 -38
-37 -19 -3 45 30 57 66 103 145 190 38 42 40 43 85 37 60 -8 80 10 59 53 -13
27 -12 30 21 65 42 42 61 47 61 15z m-610 -14 c56 -5 64 -9 81 -37 10 -17 19
-41 19 -52 l0 -22 -37 19 c-48 25 -59 24 -67 -3 -17 -64 12 -108 70 -108 31 0
34 -3 49 -52 17 -60 19 -136 4 -193 -12 -48 -64 -161 -77 -169 -10 -6 -22 62
-22 124 0 31 8 45 40 78 49 49 53 82 10 82 -19 0 -38 -9 -54 -26 l-24 -26 -7
21 c-8 27 13 54 55 71 28 11 47 51 35 70 -7 11 -53 3 -72 -13 -7 -5 -18 -27
-23 -48 -13 -46 -22 -43 -50 12 l-20 39 20 40 c11 21 20 52 20 68 0 15 5 33
10 38 16 16 -7 30 -57 37 -49 6 -53 0 -53 -74 0 -46 -1 -49 -19 -39 -28 14
-121 13 -121 -2 0 -7 12 -24 27 -40 24 -25 25 -30 13 -53 l-14 -25 -26 25
c-29 28 -55 26 -65 -6 -9 -27 12 -49 45 -49 25 0 33 -9 68 -72 21 -40 37 -75
35 -78 -3 -3 -33 27 -68 65 -61 68 -64 70 -109 69 -29 -1 -53 -7 -66 -19 -17
-15 -20 -16 -20 -3 0 44 31 88 80 113 75 38 121 125 66 125 -25 0 -82 -50 -91
-81 -3 -9 -16 -20 -28 -23 -18 -4 -27 -22 -49 -98 -22 -75 -48 -238 -48 -300
0 -8 -3 -9 -11 -1 -13 13 -24 221 -15 295 15 115 107 216 254 278 112 47 181
57 312 43z m-740 -73 c14 -7 19 -17 15 -29 -3 -10 5 -31 20 -51 26 -36 40 -73
48 -132 6 -42 -7 -59 -22 -30 -6 11 -39 56 -75 101 -58 72 -86 128 -86 169 0
10 4 10 21 0 18 -11 23 -10 32 4 11 17 12 16 19 -2 4 -10 16 -24 28 -30z
m-268 1 c24 -10 52 -26 63 -35 19 -14 16 -15 -47 -16 -80 0 -98 -6 -98 -31 0
-28 25 -34 62 -16 18 9 34 14 35 13 2 -2 -4 -23 -13 -47 -9 -24 -21 -84 -28
-132 l-11 -88 -34 58 c-42 72 -49 130 -26 209 15 53 39 104 49 104 3 0 24 -9
48 -19z m147 -132 c28 -22 51 -46 51 -51 0 -6 -21 -42 -47 -81 -48 -69 -48
-69 -51 -38 -2 18 4 43 13 57 20 30 16 68 -7 72 -9 2 -23 -7 -32 -20 -12 -19
-13 -38 -4 -116 7 -61 7 -104 1 -125 l-10 -32 -18 40 c-24 52 -24 193 1 313 7
34 44 28 103 -19z m1588 -6 c-7 -16 -32 -53 -56 -85 -39 -49 -50 -57 -89 -63
-24 -4 -46 -4 -49 -2 -3 3 13 30 35 59 27 37 58 64 98 86 72 39 76 39 61 5z
m-2052 -28 c36 -13 84 -37 108 -54 48 -33 95 -81 80 -81 -16 0 -139 47 -192
74 -26 13 -73 29 -106 35 -32 6 -60 13 -62 15 -5 4 75 34 94 35 7 1 42 -10 78
-24z m2349 2 c-2 -7 -13 -18 -24 -25 -17 -10 -18 -9 -13 6 9 26 24 42 34 37 4
-3 6 -11 3 -18z m-98 -17 c8 0 14 -9 14 -20 0 -18 -91 -98 -165 -146 -16 -10
-66 -45 -109 -76 -44 -32 -82 -56 -84 -53 -3 2 10 35 29 72 l34 68 46 0 c47 0
79 17 79 41 0 8 -11 14 -27 15 -16 0 -36 4 -46 8 -16 6 -16 9 8 31 22 21 37
25 87 25 51 0 63 4 77 22 9 12 22 20 29 18 8 -3 20 -5 28 -5z m-1025 -47 c21
-23 22 -25 4 -18 -47 18 -63 17 -79 -6 -24 -35 -21 -59 8 -59 13 0 26 7 30 15
8 22 44 18 70 -8 47 -47 60 -234 23 -321 -10 -22 -20 -37 -23 -34 -3 4 -12 37
-20 74 -10 48 -35 106 -84 196 -38 70 -70 132 -70 137 0 5 9 7 20 4 13 -3 27
3 42 21 29 33 48 33 79 -1z m-643 -30 c41 -59 63 -117 106 -285 66 -257 113
-384 188 -511 16 -27 27 -54 25 -60 -1 -5 -34 16 -71 48 -153 129 -246 254
-246 330 0 34 6 47 35 75 39 37 43 62 20 116 -18 44 -35 40 -55 -14 -22 -58
-30 -62 -30 -11 0 28 7 53 20 69 31 39 26 81 -14 119 l-34 33 -17 -46 c-14
-37 -15 -53 -6 -93 17 -76 41 -236 36 -242 -8 -7 -19 8 -71 98 -46 80 -48 86
-47 157 2 80 24 134 85 208 35 43 50 45 76 9z m1118 -49 c5 -27 2 -42 -13 -62
-20 -26 -213 -156 -220 -148 -17 17 186 246 217 246 5 0 12 -16 16 -36z m-713
-45 c81 -41 158 -102 178 -141 29 -58 23 -63 -25 -21 -64 56 -111 68 -203 52
-42 -7 -72 -18 -70 -24 2 -5 28 -27 58 -48 54 -38 54 -39 127 -32 l72 7 35
-35 c33 -33 35 -39 35 -98 -1 -35 -6 -74 -14 -87 -12 -23 -13 -23 -25 18 -15
51 -91 133 -115 124 -26 -10 -19 -31 19 -54 60 -37 77 -91 54 -172 -12 -44
-24 -49 -33 -13 -14 53 -129 295 -141 295 -8 0 -16 -10 -18 -22 l-4 -23 -8 23
c-10 30 -39 25 -43 -8 -6 -47 -23 -100 -32 -100 -17 0 -22 85 -10 190 15 140
26 177 62 214 l30 30 14 -27 c8 -15 34 -37 57 -48z m-848 22 c55 -27 74 -44
119 -104 29 -40 63 -89 75 -109 21 -35 21 -38 4 -38 -10 0 -61 21 -114 48 -84
41 -95 49 -88 67 15 38 9 71 -16 95 l-25 23 -15 -37 c-19 -44 -13 -86 16 -112
20 -18 26 -77 10 -102 -6 -10 -10 -7 -15 12 -8 33 -51 37 -59 5 -10 -37 8 -67
36 -62 21 4 25 0 31 -27 14 -71 9 -75 -37 -28 -65 64 -97 112 -97 142 0 15 -7
43 -15 62 -11 28 -19 35 -37 32 -32 -4 -46 -49 -27 -85 17 -34 34 -53 47 -53
5 0 22 -19 37 -42 33 -50 102 -135 159 -195 22 -24 37 -45 34 -49 -12 -12
-147 68 -207 123 -107 97 -138 176 -106 277 14 43 23 57 47 67 34 14 50 47 42
88 -7 35 6 41 83 37 34 -2 74 -14 118 -35z m1785 3 c0 -19 -140 -282 -167
-313 -42 -49 -51 -34 -14 24 31 49 57 113 48 121 -11 12 -36 -11 -57 -54 l-24
-47 -9 65 -9 65 68 62 c64 57 104 79 147 82 9 1 17 -2 17 -5z m-265 -228 c15
-99 -36 -222 -138 -333 -32 -35 -47 -35 -47 0 0 49 23 101 61 138 21 21 39 44
39 51 0 33 -14 58 -30 58 -22 0 -60 -45 -60 -70 0 -25 -41 -152 -47 -146 -9 9
-51 190 -46 199 8 13 21 7 26 -13 5 -20 23 -26 43 -12 6 4 15 25 20 47 9 35
18 45 79 82 39 23 75 43 82 43 6 0 15 -20 18 -44z m440 -5 c-7 -33 9 -70 51
-120 34 -41 54 -40 54 2 0 32 1 33 35 29 37 -4 42 4 36 66 -2 25 2 26 30 12
10 -6 19 -20 19 -31 0 -47 60 -120 91 -112 17 5 20 13 17 52 -3 39 -8 49 -35
66 -44 27 -41 36 10 29 61 -10 75 -19 70 -48 -6 -29 12 -66 32 -66 8 0 15 -8
15 -18 0 -34 -51 -165 -81 -208 -28 -41 -68 -78 -76 -70 -2 2 12 33 32 69 25
47 34 77 33 102 -3 40 -15 43 -52 14 -24 -19 -27 -27 -25 -75 2 -44 -3 -60
-26 -96 -30 -45 -88 -101 -136 -132 l-30 -18 22 53 c12 30 24 63 27 74 7 27
54 94 86 124 27 26 35 81 16 111 -16 25 -60 -25 -60 -69 0 -20 -9 -49 -20 -66
-22 -33 -25 -28 -35 54 -8 73 -19 91 -55 91 -25 0 -30 -4 -30 -23 0 -13 11
-38 25 -57 37 -50 47 -98 34 -159 -6 -28 -14 -53 -19 -56 -12 -8 -40 59 -40
98 0 39 -21 67 -51 67 -29 0 -25 -54 6 -86 31 -31 31 -34 0 -34 -18 0 -26 -7
-31 -25 -8 -32 -5 -35 45 -42 23 -3 41 -8 41 -10 0 -23 -96 -159 -146 -208
-57 -56 -194 -158 -202 -150 -11 10 58 105 89 123 56 33 156 129 167 161 21
60 -49 99 -84 46 -11 -17 -14 -35 -9 -63 6 -37 4 -41 -37 -74 -24 -19 -51 -37
-61 -41 -19 -7 -20 -13 9 108 19 79 51 117 117 135 30 9 37 15 37 35 0 38 -39
33 -80 -10 -19 -19 -38 -35 -42 -35 -13 0 -9 32 10 74 15 34 24 41 62 50 40
10 46 15 58 50 26 81 -17 104 -64 34 -16 -24 -32 -51 -36 -60 -4 -10 -12 -18
-18 -18 -18 0 -11 44 15 85 43 70 30 93 -32 55 -27 -16 -33 -26 -33 -56 0 -19
5 -45 11 -57 9 -16 8 -42 -7 -114 -10 -51 -21 -90 -26 -85 -4 4 -12 46 -17 94
-10 91 -29 141 -56 152 -26 9 -29 -21 -6 -59 36 -61 26 -75 -19 -27 -21 23
-44 42 -49 42 -25 0 -20 -25 10 -56 l33 -34 -42 0 c-32 0 -42 -4 -42 -16 0
-31 41 -73 82 -86 58 -17 72 -44 65 -124 -7 -94 -57 -189 -150 -289 -41 -44
-78 -76 -83 -72 -4 4 -10 36 -12 71 -5 82 16 131 60 140 39 8 58 23 58 47 0
20 -39 35 -65 26 -8 -4 -23 -24 -35 -47 -11 -22 -23 -40 -26 -40 -13 0 8 78
38 139 25 53 29 71 23 107 -8 56 -18 61 -44 25 -15 -20 -23 -52 -28 -105 -3
-42 -10 -79 -14 -82 -5 -3 -9 -29 -9 -59 0 -30 -4 -56 -9 -59 -8 -5 -43 71
-69 152 -13 40 -2 61 118 217 42 55 95 127 117 160 101 148 204 235 279 235
40 0 42 -2 59 -46 17 -46 61 -84 98 -84 20 0 21 18 5 72 -14 47 -47 75 -97 84
-20 3 -47 9 -61 14 -24 7 -22 9 30 33 31 15 74 26 98 26 43 1 44 1 37 -28z
m-1856 -21 c125 -57 135 -64 176 -125 21 -33 64 -94 95 -135 74 -100 74 -99
49 -93 -11 3 -27 17 -36 30 -20 30 -87 70 -134 78 -31 6 -37 11 -42 38 -14 82
-42 109 -124 120 -50 6 -54 -4 -24 -69 20 -43 54 -74 81 -74 19 0 52 -34 67
-71 13 -31 68 -59 116 -59 50 0 147 -38 181 -71 17 -16 28 -31 25 -33 -3 -3
-54 6 -114 19 -274 62 -425 194 -425 370 0 49 17 105 33 105 5 0 40 -13 76
-30z m671 -100 c0 -11 14 -30 31 -42 39 -28 83 -120 109 -231 21 -86 27 -187
11 -187 -12 0 -101 133 -119 176 -11 26 -10 36 7 74 11 24 17 48 15 52 -9 13
-41 9 -54 -8 -12 -13 -15 -11 -27 17 -16 39 -17 89 -2 140 12 39 29 44 29 9z
m455 -103 c9 -34 15 -76 13 -92 l-3 -30 -22 38 c-12 20 -29 37 -38 37 -22 0
-19 -12 18 -71 28 -45 32 -61 32 -118 0 -59 -6 -79 -55 -185 -30 -66 -59 -120
-65 -120 -5 -1 -23 35 -38 79 -45 129 -38 253 20 370 39 76 93 155 108 155 7
0 20 -27 30 -63z m-1499 -21 c36 -13 71 -29 76 -34 9 -9 -175 -42 -233 -42
-28 0 -115 35 -124 50 -3 5 9 7 27 4 23 -4 47 2 78 19 59 32 95 32 176 3z
m362 -293 c-14 -16 -33 -43 -42 -60 -20 -40 -25 -40 -50 -6 -19 26 -19 26 0
41 22 17 95 51 108 52 6 0 -2 -12 -16 -27z m175 0 c-33 -17 -51 -13 -38 6 3 6
21 11 38 10 l32 0 -32 -16z m285 -44 c90 -24 138 -47 223 -110 155 -114 271
-337 314 -603 9 -54 7 -343 -3 -385 l-7 -34 -41 54 c-23 30 -99 116 -170 191
-71 75 -140 155 -152 177 l-23 40 38 6 c50 9 103 27 103 36 0 4 -14 19 -31 33
-23 19 -42 26 -74 26 -24 0 -47 -5 -51 -11 -5 -8 -9 -7 -15 3 -13 23 9 85 37
107 23 18 36 20 98 15 61 -4 78 -2 121 19 l50 24 -35 22 c-81 49 -146 48 -186
-4 -24 -32 -52 -50 -61 -41 -7 6 24 61 43 77 15 12 64 108 64 125 0 10 -65 -8
-102 -29 -21 -11 -44 -35 -53 -53 -17 -37 -20 -80 -5 -89 14 -9 12 -58 -3 -79
-12 -16 -16 -11 -44 55 -37 89 -47 152 -30 199 10 29 18 36 52 43 50 10 114
62 98 78 -7 7 -33 14 -60 16 -67 7 -98 -18 -113 -92 -6 -30 -15 -55 -20 -55
-8 0 -22 55 -35 131 -6 39 -37 75 -55 64 -14 -8 -4 -63 15 -85 8 -8 17 -28 21
-44 l7 -30 -30 22 c-16 11 -42 24 -59 28 -16 4 -42 22 -57 40 -28 34 -57 45
-57 23 0 -7 19 -34 43 -60 23 -27 53 -62 67 -80 18 -21 36 -32 58 -34 18 -1
38 -7 43 -12 9 -9 51 -154 46 -159 -4 -5 -212 134 -327 218 -66 49 -120 95
-120 103 0 16 69 67 82 59 4 -3 8 -16 8 -30 0 -32 32 -32 50 0 7 14 23 27 36
30 17 5 24 13 24 31 0 29 8 35 68 44 59 10 117 4 210 -20z m1712 -89 c0 -9
-73 -51 -123 -72 -15 -6 -17 -4 -12 12 4 13 1 22 -9 26 -20 8 -45 -12 -57 -44
-6 -15 -35 -36 -93 -63 -67 -33 -92 -40 -130 -37 l-47 3 76 65 c87 74 112 89
175 106 54 15 220 18 220 4z m500 0 c0 -5 -7 -10 -16 -10 -8 0 -12 5 -9 10 3
6 10 10 16 10 5 0 9 -4 9 -10z m-2753 -48 c6 -4 13 -20 15 -36 4 -39 31 -55
55 -34 17 15 21 13 63 -24 41 -36 43 -40 18 -34 -15 3 -54 9 -87 12 -54 6 -60
9 -75 41 -12 24 -24 35 -48 40 l-31 6 22 19 c24 19 48 23 68 10z m2546 -13
l39 -10 -24 -22 -23 -22 -42 30 c-23 16 -42 34 -42 39 -1 8 12 6 92 -15z
m-1274 -115 c52 -146 54 -197 10 -272 -16 -29 -35 -52 -42 -49 -6 2 -26 48
-44 103 -26 76 -32 111 -29 149 4 51 46 185 57 185 4 0 25 -52 48 -116z
m-1129 -47 c30 -7 64 -18 75 -24 16 -9 10 -12 -40 -18 -86 -9 -84 -9 -148 -1
-66 10 -76 18 -45 40 27 19 84 20 158 3z"/>
<path d="M3064 4255 c-18 -13 -18 -15 -2 -45 13 -23 15 -37 8 -56 -13 -32 -6
-44 25 -44 20 0 24 6 30 50 5 33 2 60 -7 80 -14 34 -25 37 -54 15z"/>
<path d="M3325 1976 c-18 -13 -18 -15 -2 -40 10 -14 24 -26 33 -26 28 0 84 29
84 44 0 33 -79 49 -115 22z"/>
<path d="M1287 1653 l-47 -38 33 -12 c80 -29 162 0 155 56 -3 23 -8 26 -49 29
-40 3 -51 -2 -92 -35z"/>
</g>
</svg>