<?xml version="1.0" standalone="no"?>
<!DOCTYPE svg PUBLIC "-//W3C//DTD SVG 20010904//EN"
 "http://www.w3.org/TR/2001/REC-SVG-20010904/DTD/svg10.dtd">
<svg version="1.0" xmlns="http://www.w3.org/2000/svg"
 width="512.000000pt" height="512.000000pt" viewBox="0 0 512.000000 512.000000"
 preserveAspectRatio="xMidYMid meet">
<metadata>
Created by potrace 1.16, written by Peter Selinger 2001-2019
</metadata>
<g transform="translate(0.000000,512.000000) scale(0.100000,-0.100000)"
fill="#000000" stroke="none">
<path d="M812 5018 c117 -143 287 -335 344 -388 l49 -45 -46 50 c-54 58 -244
284 -339 403 -36 44 -71 81 -78 82 -7 0 24 -46 70 -102z"/>
<path d="M1511 5099 c6 -12 33 -56 61 -98 27 -42 75 -120 105 -173 30 -54 57
-98 59 -98 8 0 -59 124 -137 257 -44 73 -84 133 -90 133 -6 0 -5 -8 2 -21z"/>
<path d="M2961 5065 c-11 -30 -23 -67 -26 -82 l-6 -28 15 25 c25 42 18 16 -30
-107 -26 -65 -55 -149 -66 -187 -11 -38 -29 -89 -39 -114 -11 -25 -21 -64 -24
-87 -2 -23 -22 -98 -44 -166 -22 -68 -48 -155 -56 -194 -16 -67 -36 -107 -89
-169 -23 -28 -24 -28 -31 -7 -4 14 2 31 19 54 22 29 54 135 91 307 14 64 -29
-66 -50 -151 -24 -99 -43 -147 -68 -167 -10 -8 -12 -27 -9 -65 4 -54 -5 -84
-83 -271 -8 -19 -11 -37 -6 -40 4 -3 27 41 51 97 80 189 89 207 133 265 25 31
53 82 62 112 33 104 136 359 154 381 l18 22 55 -44 c31 -24 79 -57 108 -74 28
-16 58 -36 66 -43 17 -16 20 -77 2 -66 -7 4 -8 3 -4 -4 4 -7 0 -74 -8 -149 -8
-76 -20 -190 -26 -253 -12 -130 -1 -110 -147 -271 -84 -91 -113 -132 -158
-220 -31 -60 -59 -109 -63 -109 -4 0 -15 19 -24 41 -12 28 -22 40 -34 37 -54
-11 -127 -207 -118 -315 5 -54 4 -57 -10 -39 -22 27 -20 67 9 190 14 58 25
125 25 148 -1 144 -87 290 -214 367 -58 35 -125 54 -230 66 l-59 7 20 -26 c11
-14 31 -51 43 -83 27 -68 53 -114 93 -166 20 -25 36 -68 53 -135 20 -80 33
-111 78 -177 30 -44 64 -99 75 -122 20 -41 29 -103 14 -103 -4 0 -37 29 -73
65 -60 59 -71 66 -126 77 -40 7 -64 18 -76 32 -9 13 -50 108 -91 213 -42 105
-94 231 -116 280 -23 50 -41 100 -41 112 0 66 -25 115 -138 263 -367 485 -602
761 -757 891 -27 23 14 -26 92 -108 77 -83 166 -179 196 -215 137 -164 544
-690 564 -729 14 -27 23 -63 23 -90 0 -28 10 -67 26 -101 38 -81 97 -233 129
-330 15 -47 34 -97 42 -112 7 -16 12 -28 9 -28 -9 0 -168 171 -224 240 -33 41
-86 100 -118 130 l-58 55 55 -60 c31 -33 88 -104 128 -158 40 -54 79 -101 86
-103 7 -3 27 -24 46 -46 l32 -41 -79 5 c-83 6 -145 31 -295 118 l-54 32 58
-59 c85 -87 81 -90 -58 -37 l-96 37 -76 98 c-73 92 -80 106 -129 249 -28 83
-55 154 -59 158 -5 4 -6 0 -3 -8 3 -8 26 -79 52 -157 26 -78 58 -157 70 -175
12 -18 39 -57 60 -85 21 -29 34 -53 29 -53 -13 0 -153 46 -199 64 -27 11 -68
46 -121 104 l-81 87 -108 39 c-60 22 -127 48 -149 59 -100 49 -553 312 -578
336 -16 14 -40 46 -55 70 -30 48 -154 140 -161 119 -2 -7 9 -21 25 -33 16 -11
65 -57 109 -102 106 -108 323 -248 840 -539 61 -34 126 -75 145 -92 l35 -30
-50 -6 c-28 -4 -102 -22 -165 -42 -63 -19 -129 -34 -145 -34 -17 0 -111 20
-209 45 -99 24 -227 52 -285 61 -83 12 -126 25 -199 60 -51 24 -95 44 -98 44
-3 0 -4 -9 -2 -21 2 -17 72 -56 333 -188 424 -215 937 -451 978 -451 6 0 -53
31 -133 69 -80 37 -208 102 -285 143 -77 41 -250 130 -384 198 -134 68 -239
126 -233 128 10 3 250 -56 417 -103 50 -13 104 -25 122 -25 17 0 87 16 155 36
171 49 219 49 373 -6 66 -24 177 -67 247 -96 107 -45 143 -56 225 -64 54 -6
112 -15 130 -21 18 -6 65 -45 111 -92 44 -45 144 -129 222 -187 142 -105 180
-140 180 -167 0 -19 -33 -12 -165 34 -285 100 -287 81 -2 -28 205 -79 298
-131 328 -187 l18 -32 -29 -15 c-42 -22 -48 -38 -6 -18 39 18 41 18 50 -12 6
-19 1 -20 -172 -21 -215 -1 -286 -14 -460 -85 -79 -31 -173 -60 -247 -76 -66
-13 -154 -38 -195 -54 -79 -32 -456 -116 -555 -125 -33 -2 -85 -7 -115 -9
l-55 -5 85 38 c128 58 161 74 157 79 -9 9 -119 -23 -199 -57 l-86 -38 -124 19
c-132 19 -278 23 -531 12 l-157 -6 0 -299 c0 -164 2 -298 4 -298 2 0 28 11 57
24 30 14 108 41 174 60 154 45 132 45 -53 1 -80 -19 -147 -33 -149 -31 -6 6
53 49 138 99 68 40 90 47 210 68 73 12 128 24 123 26 -6 2 -78 -5 -159 -16
-82 -11 -152 -18 -156 -15 -11 7 -3 27 49 120 l46 81 90 7 c185 13 405 38 551
62 196 32 556 116 631 147 32 14 113 42 179 62 66 21 176 60 245 87 172 69
265 87 496 95 197 6 222 2 193 -33 -9 -11 -9 -27 -1 -67 6 -29 14 -108 17
-177 2 -69 8 -163 11 -210 l7 -85 -69 -67 c-38 -36 -117 -105 -176 -152 -59
-47 -121 -107 -139 -133 -18 -27 -71 -84 -118 -128 l-84 -81 27 -46 27 -46
-124 -100 c-113 -91 -132 -103 -218 -132 -52 -17 -98 -35 -103 -40 -6 -6 5
-23 30 -44 25 -22 35 -38 29 -44 -5 -5 -57 -44 -115 -87 -58 -43 -144 -112
-191 -152 -102 -86 -183 -140 -296 -201 -89 -47 -106 -61 -46 -35 113 46 229
117 343 208 69 55 178 131 242 168 98 57 144 93 286 225 93 86 258 251 367
366 254 267 297 303 410 340 68 22 105 42 170 91 46 35 116 77 156 94 41 17
100 52 132 78 122 100 135 106 172 79 26 -19 15 -39 -71 -141 -75 -89 -109
-156 -119 -230 l-7 -50 31 63 c31 64 41 75 41 44 0 -16 -62 -115 -186 -293
-28 -41 -84 -135 -124 -209 l-73 -135 -7 -121 c-5 -104 -10 -127 -31 -162 -33
-55 -226 -280 -253 -294 -21 -11 -21 -11 -2 11 30 33 5 24 -38 -14 l-39 -35
-13 -123 c-8 -73 -23 -151 -38 -195 l-25 -72 75 0 c65 0 74 2 74 18 0 10 16
65 35 122 19 57 35 113 35 124 1 40 38 102 135 221 53 66 102 131 109 145 16
30 43 149 61 269 12 78 22 104 91 235 45 83 100 171 127 201 26 30 58 78 71
107 27 61 107 200 174 305 45 69 49 72 82 70 35 -2 35 -3 88 -127 64 -148 91
-246 99 -355 5 -71 2 -86 -20 -136 -23 -53 -25 -68 -26 -230 -1 -131 -5 -185
-17 -219 l-16 -46 46 -114 47 -114 -12 -88 c-9 -70 -9 -103 1 -163 8 -46 10
-105 7 -150 -6 -61 -4 -75 7 -75 9 0 17 16 21 43 11 67 20 76 39 39 9 -18 19
-32 21 -32 5 0 -10 43 -27 73 -6 12 -13 42 -14 67 -1 25 -5 61 -9 81 -5 28 -1
52 20 100 14 35 29 87 32 115 5 48 2 58 -43 141 l-48 89 17 70 c24 99 23 287
-2 351 -18 47 -18 49 0 91 10 23 20 42 22 42 3 0 38 -20 80 -45 88 -53 133
-101 196 -210 37 -65 57 -87 106 -120 41 -28 76 -64 112 -116 60 -85 79 -123
118 -232 15 -43 29 -76 31 -74 2 2 -12 48 -31 103 -50 138 -140 273 -216 325
-63 43 -82 66 -127 154 -29 58 -108 142 -210 223 -31 24 -43 42 -47 70 -8 47
-30 109 -93 252 -27 63 -53 128 -57 144 l-6 29 48 -7 c26 -4 71 -10 98 -15 28
-4 196 -69 375 -145 330 -139 380 -156 476 -156 50 0 65 -7 201 -88 82 -49
183 -108 226 -131 l77 -42 0 64 0 64 -87 41 c-49 22 -176 82 -283 133 -198 93
-285 131 -330 144 -24 8 -23 6 10 -32 19 -22 37 -38 39 -37 5 5 59 -24 65 -35
10 -16 -87 16 -144 47 -79 43 -565 247 -628 263 -68 17 -76 27 -52 67 28 45
46 49 79 18 40 -38 51 -32 12 8 l-32 33 77 234 c83 251 212 530 246 535 31 4
109 77 132 123 13 25 33 78 46 116 47 146 57 154 165 155 109 1 198 18 380 75
99 30 185 57 190 60 34 16 -106 -15 -250 -55 -144 -41 -187 -49 -282 -53 -62
-3 -113 -3 -113 -1 0 1 9 19 21 38 16 27 45 48 121 88 55 29 117 70 137 91 44
47 152 127 212 157 24 13 91 40 149 62 106 40 129 52 117 64 -10 10 -262 -95
-326 -136 -32 -21 -87 -62 -122 -91 -104 -88 -117 -96 -189 -124 -46 -18 -78
-37 -95 -58 -14 -18 -36 -44 -48 -59 -17 -21 -48 -35 -137 -62 -63 -19 -173
-58 -245 -87 -71 -28 -184 -66 -250 -84 -129 -36 -239 -74 -232 -81 2 -3 17 1
33 7 37 14 288 78 292 74 5 -4 -70 -123 -153 -246 -70 -102 -86 -137 -100
-219 -5 -29 -1 -41 20 -65 l27 -30 -22 33 c-19 29 -21 37 -11 83 6 27 18 64
27 80 13 27 200 312 236 362 17 24 208 93 338 123 58 13 108 24 112 24 12 0
-71 -229 -94 -260 -11 -16 -43 -38 -70 -49 l-48 -20 -76 -158 c-84 -175 -106
-230 -169 -413 -55 -163 -86 -225 -139 -286 l-44 -49 -36 19 c-39 21 -116 98
-116 116 0 6 11 32 24 58 42 84 58 156 54 247 -3 78 -5 86 -35 117 -60 63 -84
108 -78 147 3 27 3 30 -3 11 -7 -21 -13 -9 -41 78 -18 58 -48 125 -68 155 -30
44 -63 121 -63 147 0 16 71 95 108 120 23 15 38 30 35 34 -16 15 -41 2 -90
-46 -62 -61 -67 -54 -18 20 29 42 41 52 64 52 16 0 40 -9 55 -21 30 -23 46
-18 46 16 0 24 44 68 124 122 22 15 48 35 56 45 8 9 100 75 204 148 103 72
232 163 285 202 113 84 384 329 484 440 l70 77 73 -6 c47 -4 83 -1 105 7 19 7
53 18 77 26 l42 13 0 -28 c0 -20 -22 -53 -84 -125 -153 -177 -292 -391 -322
-496 -33 -114 -97 -187 -219 -248 -97 -50 -91 -55 10 -8 123 57 193 135 236
266 38 115 183 336 321 487 61 66 79 94 84 124 5 32 14 43 55 70 40 25 49 36
49 60 0 34 -4 35 -64 9 -25 -10 -80 -26 -123 -35 -43 -9 -97 -25 -122 -36 -45
-19 -76 -25 -69 -11 23 43 41 92 58 157 11 42 29 94 40 115 11 21 30 67 44
102 37 101 60 139 151 259 l85 112 0 69 c0 58 -3 68 -17 68 -12 0 -26 -19 -42
-55 -13 -30 -54 -90 -91 -133 -74 -85 -89 -111 -114 -192 -34 -108 -33 -107
-117 -146 -44 -21 -78 -39 -76 -41 2 -2 36 10 75 27 39 16 74 30 77 30 4 0 -9
-29 -29 -64 -20 -35 -36 -72 -36 -82 0 -10 -28 -48 -63 -83 -60 -63 -42 -54
36 18 32 31 37 32 37 15 0 -58 -109 -190 -300 -362 -87 -78 -207 -152 -248
-152 -19 0 -241 -209 -520 -490 -277 -278 -246 -264 -305 -141 -24 51 -31 79
-33 140 -3 100 6 175 19 162 6 -6 6 -25 -2 -57 -7 -25 -10 -49 -7 -51 10 -10
27 81 21 116 -5 32 0 44 56 121 60 83 99 157 134 253 9 26 38 73 65 105 26 31
73 93 104 137 42 58 75 91 123 123 36 25 102 79 147 122 46 44 122 102 176
135 185 112 236 152 510 399 85 77 157 141 159 143 2 2 -2 3 -11 3 -8 0 -93
-70 -189 -156 -96 -86 -210 -185 -254 -219 -120 -93 -298 -203 -345 -214 -32
-7 -59 -26 -113 -79 -79 -76 -121 -102 -164 -102 -41 0 -64 -20 -128 -107
-126 -174 -184 -243 -206 -243 -4 0 -26 33 -48 73 -22 39 -69 108 -105 151
-43 52 -76 106 -97 157 -18 44 -35 77 -37 74 -2 -2 8 -35 23 -72 15 -37 29
-92 32 -121 5 -45 4 -52 -10 -46 -10 3 -28 45 -47 106 l-31 100 -105 105
c-121 121 -118 105 -43 254 54 109 75 175 84 272 l7 67 -45 0 -46 0 -20 -55z
m-664 -1375 c112 -52 181 -135 218 -264 21 -71 15 -156 -14 -219 -11 -23 -20
-35 -20 -27 -4 62 -42 262 -55 290 -9 19 -14 26 -11 15 2 -11 7 -33 10 -50 5
-27 4 -26 -9 6 -25 63 -47 100 -56 94 -6 -3 -7 0 -5 7 5 12 -78 104 -86 97 -4
-2 -169 90 -169 95 0 12 148 -21 197 -44z m-29 -87 c43 -39 54 -55 44 -61 -11
-7 -10 -10 3 -15 9 -4 13 -3 10 3 -3 6 -4 10 -1 10 2 0 21 -27 41 -60 40 -66
88 -218 82 -259 -3 -23 -4 -22 -6 7 -2 57 -28 100 -105 176 -67 64 -76 77 -76
109 0 30 3 35 18 31 14 -5 15 -4 2 5 -28 20 -40 12 -40 -26 l0 -38 -21 25
c-11 14 -40 64 -65 113 l-44 87 50 -27 c28 -16 77 -51 108 -80z m63 -30 c13
-16 12 -17 -3 -4 -17 13 -22 21 -14 21 2 0 10 -8 17 -17z m961 -190 c21 -8 35
-19 32 -24 -3 -5 -1 -9 5 -9 5 0 15 -17 22 -37 6 -21 22 -59 36 -85 13 -27 20
-48 16 -48 -4 0 2 -7 13 -16 19 -15 19 -16 -1 -8 -11 4 -38 9 -60 11 -37 3
-46 -1 -134 -77 -100 -84 -151 -110 -256 -129 -119 -21 -180 -29 -185 -24 -3
3 19 27 47 53 75 69 256 156 343 166 96 10 121 26 31 19 l-75 -6 40 35 c34 31
46 35 94 36 44 0 51 3 36 11 -20 12 -129 14 -177 4 -30 -7 -30 -6 -19 17 7 12
24 36 39 52 25 28 25 28 3 16 -13 -6 -31 -25 -40 -42 -11 -18 -39 -41 -77 -60
-33 -17 -72 -39 -87 -50 -16 -11 -28 -15 -28 -10 0 14 48 83 88 126 l37 39
-32 -22 c-48 -32 -102 -100 -115 -143 -13 -43 -140 -198 -146 -179 -2 7 19 35
47 64 35 35 58 70 73 111 28 72 107 162 171 194 87 43 176 48 259 15z m-912
-125 c20 -37 34 -79 37 -116 l6 -57 -29 40 c-95 135 -97 139 -120 240 l-7 30
41 -39 c22 -21 55 -65 72 -98z m-34 100 l29 -33 -32 29 c-18 17 -33 31 -33 33
0 8 8 1 36 -29z m91 10 c-3 -8 -6 -5 -6 6 -1 11 2 17 5 13 3 -3 4 -12 1 -19z
m240 -153 c6 -60 -9 -115 -44 -163 -31 -42 -42 -34 -15 10 19 31 26 61 37 153
l5 40 -14 -35 -14 -35 -3 40 c-1 24 -3 31 -6 18 -2 -13 -9 -23 -15 -23 -6 0
-8 -11 -4 -27 8 -33 15 -114 9 -95 -3 6 -9 10 -14 6 -5 -3 -9 5 -9 18 0 18 -2
20 -10 8 -5 -8 -10 -40 -10 -70 0 -39 -3 -51 -10 -40 -26 40 5 187 56 263 l27
41 14 -28 c8 -15 17 -52 20 -81z m463 -10 c-18 -19 -47 -37 -64 -41 -55 -12
-106 -36 -99 -47 3 -6 1 -7 -5 -3 -15 9 -74 -22 -67 -35 4 -5 3 -9 -2 -8 -21
4 -34 -2 -27 -13 4 -6 3 -8 -3 -5 -6 4 -40 -23 -75 -59 -34 -36 -81 -79 -103
-96 -28 -21 -21 -12 21 29 33 32 92 93 129 136 38 44 89 93 114 110 48 33 139
66 185 66 l30 1 -34 -35z m-669 -212 c6 -144 13 -204 29 -255 11 -38 23 -68
25 -68 2 0 14 20 26 45 33 66 34 48 1 -26 l-29 -64 -18 29 c-10 16 -25 56 -32
90 -14 67 -30 455 -18 444 4 -4 11 -92 16 -195z m-362 105 c19 -17 66 -50 104
-75 87 -56 173 -136 198 -185 32 -63 21 -65 -38 -6 -32 31 -98 86 -146 122
-49 36 -118 98 -155 137 -60 64 -63 70 -32 54 19 -10 50 -31 69 -47z m1160 -4
c-106 -108 -158 -137 -311 -174 -146 -34 -228 -67 -272 -108 -23 -22 -26 -23
-18 -6 6 11 31 39 55 61 46 43 50 44 220 72 115 20 170 46 280 137 56 46 104
84 106 84 2 0 -25 -30 -60 -66z m-563 -22 c1 -12 -3 -22 -8 -22 -5 0 -7 -4 -4
-9 3 -5 -5 -16 -18 -25 -13 -8 -37 -41 -52 -73 l-28 -58 -4 48 c-3 45 -1 50
42 92 25 24 46 52 46 60 0 25 25 12 26 -13z m-181 -244 c3 -56 2 -83 -3 -68
-13 36 -24 211 -12 183 5 -13 12 -64 15 -115z m147 104 c-11 -11 -24 -28 -30
-38 -6 -10 -13 -16 -17 -12 -3 3 8 22 26 42 17 20 34 35 36 32 3 -2 -4 -13
-15 -24z m447 -57 l35 -17 -25 -13 c-13 -7 -55 -13 -94 -13 -38 0 -81 -4 -95
-10 -18 -7 -3 -8 55 -4 44 2 78 2 75 -1 -3 -3 -48 -7 -100 -10 -147 -8 -297
-55 -364 -116 l-29 -26 27 41 c31 47 120 117 186 146 111 48 261 59 329 23z
m-489 -60 c-7 -8 -17 -15 -23 -15 -5 0 -2 9 8 20 21 23 35 19 15 -5z m-25 -35
c-3 -5 -11 -10 -16 -10 -6 0 -7 5 -4 10 3 6 11 10 16 10 6 0 7 -4 4 -10z m633
-26 c29 -4 47 -12 57 -27 17 -26 58 -157 52 -163 -3 -3 -8 7 -11 21 -11 42
-48 137 -52 132 -2 -2 12 -49 30 -105 45 -132 63 -224 71 -347 3 -55 9 -111
12 -125 5 -24 -84 151 -176 344 -28 59 -62 109 -101 151 -63 68 -84 100 -77
119 5 12 100 12 195 0z m-215 -137 c42 -32 77 -62 77 -66 0 -4 16 -26 35 -48
28 -33 32 -42 19 -47 -8 -3 -13 -2 -10 3 3 4 -8 21 -24 36 -17 16 -30 37 -30
47 0 20 -68 70 -83 61 -6 -3 -7 -1 -3 5 6 10 -31 38 -44 34 -3 -1 -5 2 -5 8 0
5 -9 16 -20 25 -47 38 17 -4 88 -58z m-340 -34 c-7 -2 -21 -2 -30 0 -10 3 -4
5 12 5 17 0 24 -2 18 -5z m50 -10 c-7 -2 -19 -2 -25 0 -7 3 -2 5 12 5 14 0 19
-2 13 -5z m44 -9 c-3 -3 -12 -4 -19 -1 -8 3 -5 6 6 6 11 1 17 -2 13 -5z m98
-39 c82 -37 192 -114 255 -181 30 -32 48 -53 39 -46 -9 6 -18 11 -20 9 -2 -1
-3 0 -1 2 4 7 -71 81 -82 81 -5 0 1 -12 15 -27 l24 -28 -27 24 c-15 13 -25 27
-22 32 6 11 -74 66 -170 116 -91 47 -96 55 -11 18z m-28 -178 c33 -43 78 -145
68 -155 -3 -3 -5 0 -5 7 0 7 -4 9 -10 6 -6 -4 -7 1 -3 11 4 11 3 15 -5 10 -7
-4 -18 6 -27 24 -19 38 -11 40 9 3 9 -17 15 -22 16 -12 0 30 -63 115 -143 192
l-82 78 75 -61 c41 -34 90 -80 107 -103z m217 -156 c29 -117 31 -134 10 -76
-21 55 -54 199 -44 188 5 -4 20 -55 34 -112z m186 58 c15 -28 5 -23 -15 7 -9
15 -12 23 -6 20 6 -4 16 -16 21 -27z m28 -54 c-3 -3 -9 2 -12 12 -6 14 -5 15
5 6 7 -7 10 -15 7 -18z m-324 -130 c7 -27 15 -57 18 -65 3 -8 3 -12 1 -7 -3 4
-9 5 -14 1 -5 -3 -9 -2 -8 3 1 4 0 15 -4 23 -6 17 -18 120 -11 105 2 -5 10
-32 18 -60z m-27 -57 c-2 -13 -4 -3 -4 22 0 25 2 35 4 23 2 -13 2 -33 0 -45z
m170 30 c-3 -7 -5 -2 -5 12 0 14 2 19 5 13 2 -7 2 -19 0 -25z m10 -55 c-3 -10
-5 -4 -5 12 0 17 2 24 5 18 2 -7 2 -21 0 -30z m-200 -25 c-3 -7 -5 -2 -5 12 0
14 2 19 5 13 2 -7 2 -19 0 -25z m210 -30 c-3 -8 -6 -5 -6 6 -1 11 2 17 5 13 3
-3 4 -12 1 -19z m-227 -75 c-9 -15 -10 -12 -6 16 3 18 7 43 8 55 1 11 3 4 5
-16 2 -21 -1 -46 -7 -55z m80 -88 c-14 -16 -25 -21 -16 -6 4 5 0 12 -6 14 -7
3 -2 6 11 6 20 1 21 -1 11 -14z"/>
<path d="M3245 3280 c-3 -6 1 -7 9 -4 18 7 21 14 7 14 -6 0 -13 -4 -16 -10z"/>
<path d="M3191 2704 c0 -11 3 -14 6 -6 3 7 2 16 -1 19 -3 4 -6 -2 -5 -13z"/>
<path d="M3202 2670 c0 -8 6 -31 13 -50 7 -19 13 -28 13 -20 0 8 -6 31 -13 50
-7 19 -13 28 -13 20z"/>
<path d="M3241 2534 c0 -11 3 -14 6 -6 3 7 2 16 -1 19 -3 4 -6 -2 -5 -13z"/>
<path d="M3336 2440 c4 -19 13 -50 20 -70 l14 -35 -6 35 c-4 19 -13 50 -20 70
l-14 35 6 -35z"/>
<path d="M3130 5095 c-6 -15 -18 -57 -27 -94 -9 -36 -27 -90 -40 -120 -13 -30
-21 -56 -18 -59 7 -8 51 97 65 158 7 30 19 73 27 94 15 44 9 64 -7 21z"/>
<path d="M3548 5053 c-40 -61 -127 -214 -96 -170 48 69 148 230 145 233 -2 3
-24 -26 -49 -63z"/>
<path d="M3648 5103 c-8 -10 -62 -88 -118 -173 -155 -232 -235 -335 -301 -386
-32 -25 -59 -47 -59 -50 0 -11 90 60 137 109 75 76 385 517 365 517 -5 0 -16
-8 -24 -17z"/>
<path d="M3664 5029 c-74 -148 -94 -210 -94 -290 0 -42 -6 -84 -16 -107 -22
-50 -94 -275 -90 -280 4 -3 7 5 81 218 38 107 46 144 42 179 -6 53 13 113 83
259 28 58 48 107 46 110 -3 2 -26 -38 -52 -89z"/>
<path d="M3979 5033 c-28 -48 -101 -185 -162 -303 -60 -118 -129 -249 -152
-290 -24 -41 -50 -101 -59 -132 -9 -31 -37 -87 -62 -125 -25 -37 -36 -59 -25
-48 33 34 90 135 106 192 9 30 31 77 49 106 18 29 68 121 110 206 85 169 109
198 266 324 47 37 103 89 124 115 l39 47 -59 -56 c-32 -31 -94 -84 -136 -118
-42 -34 -88 -76 -102 -94 -42 -53 -30 -23 50 119 85 152 95 195 13 57z"/>
<path d="M2467 5100 c-9 -25 -27 -265 -26 -348 1 -56 6 -20 20 133 17 197 19
250 6 215z"/>
<path d="M2860 4980 c-7 -50 -11 -93 -8 -95 3 -3 11 35 18 85 6 50 10 93 7 96
-2 2 -10 -36 -17 -86z"/>
<path d="M2842 4845 c0 -16 2 -22 5 -12 2 9 2 23 0 30 -3 6 -5 -1 -5 -18z"/>
<path d="M4100 4772 c-69 -73 -163 -182 -157 -182 2 0 55 54 117 120 61 66
108 120 104 120 -5 0 -33 -26 -64 -58z"/>
<path d="M2996 4763 c-15 -25 -24 -48 -22 -51 3 -2 16 19 30 47 33 64 27 67
-8 4z"/>
<path d="M2236 4760 c4 -24 15 -74 26 -110 35 -119 38 -134 38 -225 0 -49 5
-108 11 -130 6 -22 22 -94 35 -160 18 -91 22 -104 18 -55 -3 36 -13 101 -21
145 -8 44 -18 134 -23 200 -5 66 -14 134 -20 150 -7 17 -25 75 -41 130 -16 55
-26 80 -23 55z"/>
<path d="M310 4717 c0 -2 48 -40 108 -83 59 -44 170 -130 247 -193 77 -63 131
-104 120 -91 -47 52 -475 384 -475 367z"/>
<path d="M5009 4642 c-62 -65 -154 -178 -112 -137 34 34 185 205 180 205 -3 0
-33 -30 -68 -68z"/>
<path d="M2766 4475 c-9 -26 -7 -32 5 -12 6 10 9 21 6 23 -2 3 -7 -2 -11 -11z"/>
<path d="M576 4454 c16 -16 86 -76 155 -134 68 -58 149 -127 179 -155 30 -27
42 -35 25 -16 -16 18 -73 70 -125 115 -106 92 -282 234 -234 190z"/>
<path d="M4334 4444 c-18 -14 -18 -15 4 -4 12 6 22 13 22 15 0 8 -5 6 -26 -11z"/>
<path d="M4255 4398 c-27 -18 -106 -65 -174 -105 -129 -76 -158 -101 -42 -36
83 46 271 163 271 169 0 6 -2 5 -55 -28z"/>
<path d="M2879 4367 c-41 -52 -45 -65 -6 -22 31 34 44 55 35 55 -2 0 -15 -15
-29 -33z"/>
<path d="M2686 4375 c-3 -9 -6 -22 -5 -28 0 -7 5 -1 10 12 5 13 8 26 5 28 -2
2 -6 -3 -10 -12z"/>
<path d="M4481 4244 c-93 -17 -112 -25 -41 -17 86 9 192 31 150 31 -19 0 -68
-6 -109 -14z"/>
<path d="M3062 4181 c-18 -36 -25 -57 -16 -46 18 22 58 105 52 110 -1 1 -18
-27 -36 -64z"/>
<path d="M1690 4200 c12 -16 24 -30 26 -30 3 0 -4 14 -16 30 -12 17 -24 30
-26 30 -3 0 4 -13 16 -30z"/>
<path d="M3910 4205 c-14 -8 -20 -14 -15 -14 6 0 21 6 35 14 14 8 21 14 15 14
-5 0 -21 -6 -35 -14z"/>
<path d="M4100 4151 c-83 -22 -105 -32 -57 -24 45 7 159 41 137 41 -8 0 -44
-8 -80 -17z"/>
<path d="M4448 4163 c7 -3 16 -2 19 1 4 3 -2 6 -13 5 -11 0 -14 -3 -6 -6z"/>
<path d="M1771 4078 c28 -46 56 -87 62 -93 13 -13 -38 78 -75 133 -49 72 -41
46 13 -40z"/>
<path d="M4375 4150 c-25 -11 1 -11 35 0 20 6 21 8 5 8 -11 0 -29 -3 -40 -8z"/>
<path d="M2077 4035 c26 -57 48 -103 51 -101 5 5 -79 195 -89 202 -4 2 13 -43
38 -101z"/>
<path d="M3968 4113 c6 -2 18 -2 25 0 6 3 1 5 -13 5 -14 0 -19 -2 -12 -5z"/>
<path d="M3719 4083 c-13 -16 -12 -17 4 -4 9 7 17 15 17 17 0 8 -8 3 -21 -13z"/>
<path d="M3672 4023 c-16 -21 -34 -48 -40 -59 -17 -33 -62 -158 -58 -162 4 -4
46 104 46 118 0 5 20 38 45 74 49 73 53 87 7 29z"/>
<path d="M2371 3974 c0 -11 3 -14 6 -6 3 7 2 16 -1 19 -3 4 -6 -2 -5 -13z"/>
<path d="M2653 3905 c-17 -41 -27 -72 -23 -70 10 6 62 136 57 141 -2 3 -18
-29 -34 -71z"/>
<path d="M4053 3853 c-55 -54 -106 -109 -112 -123 -8 -16 -1 -11 21 15 18 22
71 77 118 122 47 45 82 82 79 83 -3 0 -51 -44 -106 -97z"/>
<path d="M4962 3815 c-132 -64 -282 -155 -282 -171 0 -6 12 0 68 38 23 16 117
65 207 108 91 43 165 84 165 89 0 14 20 22 -158 -64z"/>
<path d="M3042 3850 c0 -19 2 -27 5 -17 2 9 2 25 0 35 -3 9 -5 1 -5 -18z"/>
<path d="M2950 3724 c-113 -63 -120 -70 -120 -117 0 -24 -7 -53 -16 -65 -9
-13 -14 -25 -11 -28 11 -12 41 54 39 89 -1 41 -5 37 164 144 40 25 6 11 -56
-23z"/>
<path d="M2671 3694 c0 -11 3 -14 6 -6 3 7 2 16 -1 19 -3 4 -6 -2 -5 -13z"/>
<path d="M2646 3612 c-9 -32 -16 -65 -15 -73 0 -8 9 17 20 55 11 38 18 70 16
73 -2 2 -12 -23 -21 -55z"/>
<path d="M2610 3455 c-7 -36 -10 -68 -8 -70 3 -3 10 25 17 61 6 37 10 68 8 71
-3 2 -10 -26 -17 -62z"/>
<path d="M2212 3445 c-1 -11 3 -38 7 -60 7 -34 9 -35 9 -10 0 35 -15 101 -16
70z"/>
<path d="M4692 3399 c-30 -17 -52 -33 -49 -35 4 -4 102 48 116 62 15 14 -22
-1 -67 -27z"/>
<path d="M3747 3356 c-76 -46 -125 -81 -92 -64 32 16 185 110 185 114 0 7 -2
6 -93 -50z"/>
<path d="M2232 3320 c0 -14 2 -19 5 -12 2 6 2 18 0 25 -3 6 -5 1 -5 -13z"/>
<path d="M4205 3270 c-55 -26 -97 -49 -93 -49 10 -1 198 87 198 93 0 8 7 11
-105 -44z"/>
<path d="M4230 3174 c-36 -14 -69 -30 -75 -35 -10 -10 124 34 152 50 33 19 -9
11 -77 -15z"/>
<path d="M2007 3018 c105 -104 113 -109 39 -28 -61 67 -106 110 -117 110 -3 0
32 -37 78 -82z"/>
<path d="M3330 2900 c-6 -11 -8 -20 -6 -20 3 0 10 9 16 20 6 11 8 20 6 20 -3
0 -10 -9 -16 -20z"/>
<path d="M2170 2897 c0 -3 18 -20 40 -37 22 -17 40 -29 40 -27 0 3 -18 20 -40
37 -22 17 -40 29 -40 27z"/>
<path d="M3387 2878 c-32 -11 -56 -22 -53 -25 5 -5 136 36 136 43 0 8 -25 2
-83 -18z"/>
<path d="M1450 2840 c140 -21 254 -48 475 -114 82 -25 151 -44 153 -42 5 6
-300 101 -413 130 -105 26 -245 47 -305 45 -19 -1 21 -9 90 -19z"/>
<path d="M3460 2820 c-30 -10 -49 -18 -42 -19 17 -1 122 29 122 35 0 8 -25 3
-80 -16z"/>
<path d="M3411 2720 c0 -3 6 -30 14 -60 14 -52 15 -53 10 -11 -5 34 -25 95
-24 71z"/>
<path d="M60 2599 c25 -4 117 -17 205 -29 166 -22 326 -54 479 -96 48 -14 90
-23 93 -21 7 7 -219 67 -370 97 -149 30 -369 61 -422 59 -24 -1 -21 -3 15 -10z"/>
<path d="M2180 2589 c36 -4 111 -12 168 -18 56 -6 118 -18 138 -26 19 -8 32
-10 29 -5 -11 18 -110 40 -225 50 -133 11 -205 11 -110 -1z"/>
<path d="M2025 2390 c-171 -30 -314 -74 -471 -143 -43 -19 -112 -40 -152 -47
-95 -16 -88 -24 9 -10 45 6 109 26 164 50 87 38 242 82 335 95 145 20 300 55
300 66 0 14 -74 9 -185 -11z"/>
<path d="M4592 2392 c-56 -8 -101 -16 -99 -18 1 -2 107 1 234 5 128 5 268 7
313 4 50 -4 80 -2 80 4 0 26 -362 30 -528 5z"/>
<path d="M3603 2285 c0 -38 2 -53 4 -32 2 20 2 52 0 70 -2 17 -4 1 -4 -38z"/>
<path d="M3592 2185 c0 -16 2 -22 5 -12 2 9 2 23 0 30 -3 6 -5 -1 -5 -18z"/>
<path d="M6 2161 c11 -11 157 -30 243 -31 70 0 22 9 -96 19 -66 6 -129 14
-139 17 -15 5 -16 4 -8 -5z"/>
<path d="M2581 2154 c0 -11 3 -14 6 -6 3 7 2 16 -1 19 -3 4 -6 -2 -5 -13z"/>
<path d="M3575 2122 c-3 -16 -17 -45 -31 -63 -39 -52 -49 -78 -15 -39 31 36
68 116 58 126 -3 3 -8 -8 -12 -24z"/>
<path d="M2591 2124 c-1 -6 11 -68 25 -138 23 -115 24 -129 11 -150 -9 -13
-75 -85 -149 -162 l-133 -139 100 91 c55 51 124 117 154 149 l54 57 -7 56 c-6
57 -53 256 -55 236z"/>
<path d="M2034 1944 c-18 -14 -18 -15 4 -4 12 6 22 13 22 15 0 8 -5 6 -26 -11z"/>
<path d="M1900 1870 c-57 -33 -145 -76 -195 -96 -135 -53 -276 -116 -272 -120
8 -9 369 145 450 191 81 47 139 85 127 84 -3 0 -52 -27 -110 -59z"/>
<path d="M2333 1823 c-54 -60 -140 -155 -190 -213 -105 -121 -126 -141 -248
-237 -133 -105 -146 -127 -20 -34 155 113 186 141 268 239 40 48 123 147 185
219 62 73 111 133 109 133 -2 0 -49 -48 -104 -107z"/>
<path d="M2299 1873 c-13 -16 -12 -17 4 -4 9 7 17 15 17 17 0 8 -8 3 -21 -13z"/>
<path d="M2249 1833 l-24 -28 28 24 c25 23 32 31 24 31 -2 0 -14 -12 -28 -27z"/>
<path d="M2044 1676 c-95 -72 -191 -148 -215 -169 -24 -21 37 23 137 97 165
124 267 206 254 205 -3 -1 -82 -60 -176 -133z"/>
<path d="M883 1773 c9 -2 23 -2 30 0 6 3 -1 5 -18 5 -16 0 -22 -2 -12 -5z"/>
<path d="M745 1760 c-33 -6 -35 -7 -10 -8 17 0 53 3 80 8 47 7 48 7 10 7 -22
0 -58 -3 -80 -7z"/>
<path d="M603 1753 c9 -2 25 -2 35 0 9 3 1 5 -18 5 -19 0 -27 -2 -17 -5z"/>
<path d="M533 1743 c9 -2 23 -2 30 0 6 3 -1 5 -18 5 -16 0 -22 -2 -12 -5z"/>
<path d="M3065 1734 c-16 -8 -21 -11 -10 -8 11 4 49 10 85 14 l65 7 -55 1
c-30 1 -68 -6 -85 -14z"/>
<path d="M3523 1633 c-12 -60 -41 -196 -66 -303 -61 -266 -69 -331 -66 -553 2
-180 1 -199 -25 -302 -41 -166 -60 -462 -30 -472 8 -3 13 52 17 189 4 158 10
213 31 303 20 88 25 137 26 245 0 74 5 191 10 260 9 121 17 167 95 535 20 93
35 177 33 187 -2 10 -13 -30 -25 -89z"/>
<path d="M4595 1670 c-13 -5 0 -8 40 -7 33 1 110 -4 170 -11 171 -17 322 -24
305 -14 -14 9 -389 43 -460 41 -19 0 -44 -4 -55 -9z"/>
<path d="M3045 1646 c-16 -7 -39 -24 -50 -37 l-20 -24 27 24 c15 13 49 30 75
37 30 8 38 13 23 13 -14 0 -38 -6 -55 -13z"/>
<path d="M3397 1572 c-14 -21 -54 -92 -89 -158 -73 -133 -194 -334 -212 -349
-25 -21 -75 -154 -91 -240 -9 -49 -21 -114 -27 -142 -7 -43 -26 -76 -98 -174
-50 -66 -101 -134 -115 -151 -14 -16 -28 -42 -31 -56 -4 -15 -20 -60 -36 -101
-16 -40 -27 -78 -26 -83 2 -5 20 35 41 89 47 122 41 114 165 276 l104 136 18
108 c31 184 65 286 114 343 24 27 170 271 230 385 33 61 66 120 74 133 8 12
12 22 9 22 -2 0 -16 -17 -30 -38z"/>
<path d="M735 1392 c-99 -49 -235 -115 -303 -147 -67 -32 -120 -60 -118 -62
10 -10 606 277 606 293 0 7 2 8 -185 -84z"/>
<path d="M2655 1348 c-37 -62 -110 -178 -160 -258 -51 -80 -99 -159 -108 -176
-8 -16 -55 -73 -104 -125 -127 -136 -144 -161 -30 -44 104 107 217 264 354
495 81 136 126 220 120 220 -2 0 -35 -51 -72 -112z"/>
<path d="M3643 1310 c0 -30 2 -43 4 -27 2 15 2 39 0 55 -2 15 -4 2 -4 -28z"/>
<path d="M4123 1308 c95 -148 158 -250 191 -310 20 -38 39 -68 42 -68 2 0 -13
35 -35 78 -38 76 -216 352 -226 352 -3 0 10 -24 28 -52z"/>
<path d="M3185 1290 c-10 -11 -16 -22 -13 -25 3 -3 13 6 22 20 20 30 16 32 -9
5z"/>
<path d="M4425 1253 c27 -29 685 -406 694 -397 8 8 -12 21 -154 100 -77 42
-212 117 -300 167 -88 49 -180 101 -205 115 -25 14 -40 20 -35 15z"/>
<path d="M2854 1189 c-19 -22 -19 -22 3 -10 24 12 39 31 25 31 -5 0 -17 -10
-28 -21z"/>
<path d="M4317 1110 c54 -81 351 -596 490 -850 124 -226 145 -262 150 -257 6
7 -103 207 -340 622 -201 353 -304 522 -334 547 -9 7 7 -21 34 -62z"/>
<path d="M3531 1074 c0 -11 3 -14 6 -6 3 7 2 16 -1 19 -3 4 -6 -2 -5 -13z"/>
<path d="M3811 1080 c0 -8 4 -24 9 -35 5 -13 9 -14 9 -5 0 8 -4 24 -9 35 -5
13 -9 14 -9 5z"/>
<path d="M1443 932 c-127 -101 -163 -132 -103 -91 82 57 251 196 228 188 -2 0
-58 -44 -125 -97z"/>
<path d="M3542 1005 c0 -16 2 -22 5 -12 2 9 2 23 0 30 -3 6 -5 -1 -5 -18z"/>
<path d="M3831 1004 c0 -11 3 -14 6 -6 3 7 2 16 -1 19 -3 4 -6 -2 -5 -13z"/>
<path d="M3881 1006 c-1 -4 12 -54 28 -110 40 -136 49 -178 61 -288 6 -52 15
-107 20 -123 10 -29 10 -29 5 5 -3 19 -10 77 -16 130 -5 52 -23 145 -39 205
-29 109 -58 198 -59 181z"/>
<path d="M1274 974 c-18 -14 -18 -15 4 -4 12 6 22 13 22 15 0 8 -5 6 -26 -11z"/>
<path d="M3841 964 c0 -11 3 -14 6 -6 3 7 2 16 -1 19 -3 4 -6 -2 -5 -13z"/>
<path d="M1102 881 c-78 -43 -237 -123 -352 -177 -116 -55 -206 -100 -202
-102 12 -4 254 99 366 155 122 61 358 203 336 202 -3 0 -69 -35 -148 -78z"/>
<path d="M3851 924 c0 -11 3 -14 6 -6 3 7 2 16 -1 19 -3 4 -6 -2 -5 -13z"/>
<path d="M3860 894 c-1 -19 74 -297 77 -287 2 5 -13 72 -32 149 -33 127 -45
162 -45 138z"/>
<path d="M1161 550 c-149 -83 -161 -90 -145 -90 11 0 238 126 275 152 47 34
12 16 -130 -62z"/>
<path d="M2384 438 c-78 -81 -141 -153 -198 -231 -49 -64 -22 -40 50 46 38 45
106 124 152 175 46 50 82 92 80 92 -2 0 -40 -37 -84 -82z"/>
<path d="M1609 375 c-115 -94 -233 -199 -194 -173 61 39 332 270 314 267 -2 0
-56 -43 -120 -94z"/>
<path d="M4160 435 c0 -5 5 -17 10 -25 5 -8 10 -10 10 -5 0 6 -5 17 -10 25 -5
8 -10 11 -10 5z"/>
<path d="M4182 380 c19 -52 102 -240 105 -236 4 4 -94 237 -104 245 -3 4 -4
-1 -1 -9z"/>
<path d="M1427 162 c-81 -82 -147 -153 -147 -158 0 -11 205 192 262 259 22 26
38 47 36 47 -2 0 -70 -67 -151 -148z"/>
<path d="M1968 253 c-72 -176 -98 -246 -94 -251 3 -2 9 4 12 14 4 10 29 75 55
143 27 68 48 126 46 128 -2 2 -11 -14 -19 -34z"/>
<path d="M1104 237 c-39 -23 -139 -78 -222 -122 -82 -44 -149 -82 -146 -84 11
-12 357 175 424 228 38 31 22 25 -56 -22z"/>
</g>
</svg>