<?xml version="1.0" standalone="no"?>
<!DOCTYPE svg PUBLIC "-//W3C//DTD SVG 20010904//EN"
 "http://www.w3.org/TR/2001/REC-SVG-20010904/DTD/svg10.dtd">
<svg version="1.0" xmlns="http://www.w3.org/2000/svg"
 width="512.000000pt" height="512.000000pt" viewBox="0 0 512.000000 512.000000"
 preserveAspectRatio="xMidYMid meet">
<metadata>
Created by potrace 1.16, written by Peter Selinger 2001-2019
</metadata>
<g transform="translate(0.000000,512.000000) scale(0.100000,-0.100000)"
fill="#000000" stroke="none">
<path d="M120 5088 c0 -18 -3 -50 -6 -71 l-7 -38 -26 17 c-14 9 -38 28 -53 42
-26 24 -28 24 -28 6 0 -12 20 -35 50 -58 l50 -38 -25 -44 c-14 -24 -36 -64
-50 -88 -28 -49 -34 -83 -9 -51 8 11 33 53 55 93 24 42 47 72 56 72 9 0 52
-37 97 -83 45 -46 90 -88 100 -94 18 -10 17 -14 -13 -101 -17 -49 -31 -97 -31
-106 0 -9 -6 -16 -13 -16 -25 0 -98 -72 -129 -126 -16 -30 -34 -57 -40 -60 -5
-3 -27 6 -48 20 -22 14 -42 26 -45 26 -12 0 -3 -30 12 -38 16 -9 16 -12 -1
-38 l-17 -29 22 25 21 25 32 -36 c17 -21 46 -78 65 -130 19 -52 38 -96 41 -99
4 -3 21 -60 38 -126 18 -67 49 -172 71 -233 22 -62 34 -110 28 -108 -6 2 -48
52 -93 111 -76 99 -82 110 -77 144 5 35 27 125 39 156 3 8 -8 26 -24 42 -22
22 -37 53 -57 124 -15 52 -32 100 -37 105 -7 7 -8 2 -3 -15 28 -90 38 -128 39
-152 0 -15 7 -33 14 -39 15 -16 16 -52 2 -99 -6 -19 -11 -66 -12 -103 l-2 -69
-53 7 c-35 4 -53 3 -53 -4 0 -6 13 -11 29 -11 52 0 92 -12 102 -32 9 -16 2
-22 -58 -50 -78 -36 -78 -36 -71 -44 3 -3 39 11 78 31 l73 37 70 -70 69 -69
-107 -72 c-59 -40 -112 -70 -118 -68 -6 2 -21 43 -34 92 -13 49 -25 90 -26 92
-2 1 -4 -99 -5 -222 -2 -156 0 -225 8 -225 6 0 29 9 51 21 l41 20 52 -39 c29
-22 88 -58 132 -80 55 -28 85 -50 97 -72 11 -17 17 -33 15 -34 -1 -2 -25 -11
-52 -20 -57 -19 -49 -22 -176 73 -41 30 -77 57 -79 58 -3 2 9 17 25 34 17 18
22 28 12 24 -9 -4 -24 -18 -33 -31 -10 -16 -29 -26 -55 -30 -22 -4 -40 -11
-40 -15 0 -5 17 -7 38 -3 33 5 44 0 112 -48 41 -30 89 -63 105 -72 47 -27 251
-353 233 -372 -4 -4 -26 1 -48 11 -29 13 -40 24 -40 40 0 22 -32 36 -150 63
-29 7 -39 17 -60 59 -31 64 -184 258 -188 239 -2 -7 35 -61 81 -118 82 -103
127 -180 89 -157 -9 6 -51 44 -92 84 -41 41 -77 72 -79 69 -3 -2 37 -46 87
-97 l92 -93 -31 -29 c-45 -43 -152 -175 -146 -181 2 -3 41 38 87 91 85 99 113
115 129 71 5 -13 39 -45 75 -72 36 -26 66 -50 66 -53 0 -3 -34 -37 -75 -74
l-75 -69 -98 39 c-53 21 -100 40 -105 41 -4 2 -7 -70 -7 -161 l0 -164 50 -27
c28 -15 50 -33 50 -40 0 -22 -73 -126 -89 -126 -10 0 -2 -13 20 -36 25 -26 40
-34 58 -31 17 4 38 -5 68 -28 l43 -33 -45 -27 c-25 -14 -61 -39 -79 -55 -32
-29 -34 -29 -50 -11 -17 19 -16 20 8 37 15 9 25 19 22 21 -6 7 -56 -28 -56
-38 0 -12 66 -107 98 -141 31 -33 24 -44 -48 -78 l-50 -23 0 -114 0 -114 91
-86 91 -87 -89 -44 c-97 -49 -99 -50 -91 -57 3 -3 45 16 93 41 l88 47 -9 -59
c-4 -32 -7 -88 -6 -124 5 -167 4 -351 -2 -373 -5 -23 -8 -24 -55 -15 -54 11
-56 15 -81 140 -6 32 -16 60 -21 64 -11 6 -8 -11 22 -125 l20 -74 -26 -27
c-25 -26 -26 -30 -23 -148 l3 -121 78 70 c43 38 82 69 87 69 24 0 4 -29 -82
-116 -50 -52 -87 -94 -82 -94 6 0 43 33 82 74 40 41 74 70 77 66 6 -10 -26
-160 -53 -247 -11 -35 -16 -63 -11 -63 11 0 42 101 65 212 10 49 21 88 24 88
3 0 30 -16 60 -35 30 -19 59 -35 64 -35 5 0 -23 21 -62 46 -74 47 -77 51 -64
71 9 15 102 -28 151 -69 18 -16 37 -28 43 -28 28 0 76 -51 86 -92 11 -43 89
-164 99 -154 3 3 -8 22 -24 43 -35 44 -57 86 -67 127 -8 33 -60 86 -85 86 -9
0 -25 7 -35 15 -41 31 -2 27 99 -11 l105 -39 45 -85 c31 -61 41 -90 35 -100
-6 -8 -9 -22 -9 -30 0 -8 5 -4 11 10 l10 25 11 -23 c9 -20 27 -31 27 -16 0 4
-27 57 -60 119 -33 62 -60 115 -60 119 0 3 6 6 13 6 7 0 48 -56 91 -125 l78
-125 154 0 c121 0 154 3 154 13 0 24 44 56 105 77 80 27 83 26 41 -20 -35 -39
-47 -70 -26 -70 6 0 10 8 10 18 0 10 16 33 35 52 l34 33 78 -36 c120 -55 153
-67 186 -67 17 0 81 26 149 61 65 33 137 67 160 75 l42 15 -24 -26 c-13 -14
-38 -29 -54 -34 -27 -8 -28 -9 -7 -10 22 -1 106 57 123 85 5 7 37 35 72 63 48
37 67 47 74 38 10 -13 62 -113 62 -121 0 -2 -19 -7 -43 -10 -33 -6 -56 -20
-112 -71 -38 -35 -65 -64 -60 -65 6 0 38 25 72 55 47 42 73 57 107 64 69 13
74 -4 21 -73 -31 -40 -32 -46 -15 -46 12 0 29 16 46 45 14 25 29 45 34 45 4 0
23 -20 41 -45 19 -25 42 -45 53 -45 19 0 19 1 -1 23 -48 52 -48 63 3 122 26
30 51 52 55 50 4 -3 20 -37 35 -76 l28 -72 -29 -23 c-49 -39 -9 -27 55 17 33
22 78 61 100 86 22 25 72 70 112 99 39 30 86 68 105 84 18 17 35 30 37 30 3 0
26 -14 51 -32 52 -37 52 -29 -5 -181 -22 -60 -40 -113 -40 -118 0 -5 45 -9
100 -9 l100 0 2 83 c5 174 -1 229 -30 277 -24 41 -27 53 -24 128 2 55 7 82 14
80 6 -2 33 -40 60 -85 l50 -81 -11 -108 c-13 -126 -13 -251 -1 -279 6 -12 7
16 4 75 -3 52 -1 108 3 124 l9 30 46 -75 c26 -40 57 -95 69 -122 13 -26 28
-47 34 -47 6 0 24 14 41 31 43 45 197 155 201 143 7 -20 75 -125 79 -121 4 4
-67 131 -118 212 -14 22 -33 55 -42 73 -17 33 -17 33 4 22 12 -7 43 -57 73
-118 29 -59 63 -124 75 -144 26 -42 24 -51 -20 -74 -16 -8 -28 -18 -25 -20 3
-3 20 2 38 11 30 16 34 16 44 1 7 -9 26 -16 43 -16 30 0 31 1 21 26 -5 15 -7
29 -4 32 7 7 34 -29 35 -45 0 -7 7 -13 16 -13 13 0 11 6 -7 31 -20 29 -21 31
-3 26 10 -3 39 -8 64 -12 25 -3 64 -16 87 -28 l42 -21 63 58 c35 33 82 79 105
102 30 30 45 40 50 31 4 -7 7 -52 7 -102 -1 -57 1 -81 6 -65 4 14 8 53 9 87
l1 61 65 -41 c35 -23 65 -46 65 -50 0 -5 -9 -22 -21 -39 -12 -16 -19 -32 -16
-34 3 -3 17 12 32 34 25 38 28 40 57 30 26 -9 29 -15 26 -39 -4 -26 -2 -29 23
-29 26 0 28 4 31 43 l3 42 13 -42 c7 -24 17 -43 22 -43 5 0 -2 31 -15 69 -14
38 -23 75 -20 82 8 20 107 62 115 49 3 -5 12 -50 19 -100 7 -49 17 -93 22 -96
7 -4 8 7 4 28 -3 18 -11 68 -18 111 l-13 77 93 30 c51 17 99 30 106 30 8 0 26
-45 45 -116 46 -163 47 -164 79 -164 24 1 26 2 12 13 -16 13 -85 264 -75 275
3 3 38 16 76 28 l70 22 78 -62 c76 -62 109 -94 101 -99 -2 -2 -26 -20 -52 -41
-37 -29 -46 -42 -41 -58 6 -22 -18 -55 -51 -69 -16 -6 -14 -8 12 -8 22 -1 37
5 45 19 17 26 32 26 18 0 -9 -17 -8 -20 13 -20 20 0 33 15 71 80 l46 80 0 120
0 121 -57 -46 c-31 -25 -60 -42 -64 -38 -14 14 -27 91 -17 101 13 13 138 304
138 322 0 25 -14 -2 -75 -146 -31 -72 -62 -140 -70 -150 -16 -22 -6 -31 -99
90 l-60 78 75 146 74 145 70 19 c39 11 75 24 80 30 11 12 -7 8 -87 -16 -27 -8
-48 -14 -48 -12 0 2 11 34 25 70 18 47 25 86 25 135 0 37 3 71 6 74 4 4 24
-17 45 -45 22 -28 39 -45 39 -37 0 8 -14 32 -32 53 l-32 39 32 26 32 26 0 113
c0 108 -1 112 -19 102 -11 -5 -22 -10 -25 -10 -8 0 -75 214 -78 249 l-3 34 64
-2 c43 -2 61 1 56 8 -3 6 -11 9 -16 5 -16 -9 -119 7 -119 20 0 6 32 43 70 81
56 55 70 76 70 100 0 29 -3 27 -89 -59 l-89 -89 -108 59 c-59 33 -109 64 -111
69 -8 27 272 114 314 98 14 -5 83 44 83 59 0 6 -15 -1 -34 -16 -51 -38 -57
-34 -54 31 l3 56 40 11 40 12 3 83 c2 65 0 82 -10 78 -7 -3 -36 -13 -65 -23
l-52 -17 -53 37 c-29 20 -64 45 -77 55 l-25 19 23 83 c12 46 40 150 63 231
l42 148 74 -81 c41 -44 77 -78 80 -75 2 3 -28 40 -67 82 -39 42 -70 78 -68 80
6 6 82 -18 97 -30 30 -25 46 -31 28 -10 -17 19 -17 21 0 38 16 18 16 18 -5 7
-17 -9 -35 -8 -75 2 -29 7 -53 17 -53 23 0 5 33 32 72 59 l72 50 0 228 c1 179
-2 228 -11 225 -7 -2 -31 -36 -54 -75 -44 -78 -91 -144 -110 -156 -16 -9 -47
-103 -39 -117 3 -5 2 -10 -3 -10 -10 0 -27 -64 -24 -92 1 -9 -5 -22 -13 -28
-20 -16 -19 -13 15 114 20 75 41 127 69 170 105 163 172 277 169 287 -2 5 -53
-70 -114 -168 -63 -101 -118 -179 -128 -181 -26 -6 -53 24 -101 113 -42 77
-43 82 -38 145 5 53 15 79 54 145 26 44 56 91 67 105 20 25 22 25 152 17 19
-2 36 -18 67 -65 37 -55 43 -60 41 -35 -2 15 -10 35 -19 43 -9 8 -24 27 -33
41 -16 26 -16 27 20 58 52 46 35 50 -23 6 -46 -36 -50 -37 -107 -31 -66 7 -75
15 -76 66 0 19 -7 46 -14 59 -12 21 -10 29 21 80 34 54 35 59 29 131 -5 71 -3
80 35 173 36 84 44 97 65 97 13 0 32 -10 42 -21 9 -12 28 -33 40 -48 l24 -26
-23 40 -23 40 23 -20 23 -20 -4 29 c-2 23 -10 32 -33 39 -16 5 -31 11 -32 12
-2 1 13 38 32 82 19 45 35 89 35 100 0 10 -19 -25 -43 -77 -37 -83 -46 -95
-70 -98 -21 -3 -27 1 -27 15 0 35 43 148 71 188 30 43 73 149 67 166 -2 5 -16
-22 -31 -62 -16 -40 -39 -86 -53 -104 -24 -32 -64 -142 -64 -177 0 -16 -4 -18
-17 -12 -10 5 -66 9 -125 9 -109 1 -128 7 -149 46 -8 15 2 27 53 70 35 28 80
71 102 96 32 36 37 48 29 65 -8 19 0 34 53 99 34 42 81 109 104 148 42 71 47
73 83 43 24 -21 21 -3 -4 24 l-21 23 22 38 22 38 -34 -37 c-27 -31 -36 -35
-51 -27 -13 8 -17 18 -13 35 6 24 6 24 -79 24 l-85 0 -20 -40 c-11 -21 -20
-46 -20 -55 0 -18 -10 -19 -47 -3 -37 17 -42 25 -36 65 5 29 3 33 -18 33 -18
0 -20 -3 -11 -12 7 -7 12 -20 12 -30 0 -21 -42 -30 -125 -26 -60 3 -60 3 -66
38 -6 33 -6 33 -8 -11 -1 -37 -39 -150 -57 -168 -2 -2 -48 18 -103 44 l-100
48 45 55 c25 30 42 57 39 61 -3 3 -18 -10 -33 -29 -64 -82 -64 -82 -99 -69
-38 13 -41 30 -12 70 l20 29 -29 0 c-24 0 -47 -17 -112 -78 l-83 -79 -43 8
c-48 9 -99 32 -110 50 -4 7 13 29 42 55 60 53 49 58 -14 7 l-45 -37 -32 37
c-43 49 -55 48 -16 -2 17 -21 31 -41 31 -43 0 -8 -181 -91 -186 -85 -5 5 18
113 32 152 4 12 3 17 -2 12 -12 -11 -54 -159 -48 -169 5 -8 -12 -16 -64 -32
l-22 -7 16 43 c22 55 21 54 44 33 11 -10 20 -13 20 -8 0 6 -7 17 -16 24 -16
13 -15 38 2 97 6 19 3 22 -24 22 -22 0 -32 -6 -37 -20 -8 -26 -17 -25 -33 1
-7 12 -16 18 -19 15 -4 -3 2 -15 12 -26 32 -35 7 -35 -65 0 l-71 34 -140 -139
-140 -140 21 55 c12 30 29 75 37 100 9 25 22 60 30 79 8 18 11 36 9 39 -6 6
-36 -61 -36 -80 0 -10 -67 -177 -76 -186 -1 -2 -23 5 -48 16 -56 25 -64 51
-46 137 7 33 15 73 18 88 l4 28 -104 -2 -105 -1 -7 -77 c-4 -42 -24 -177 -45
-301 -44 -265 -22 -246 -207 -177 -213 81 -220 84 -232 123 -10 33 -6 42 52
147 100 180 158 293 142 277 -8 -8 -60 -99 -116 -202 -96 -177 -101 -189 -91
-219 14 -40 14 -42 0 -33 -6 3 -18 22 -25 41 -13 31 -13 43 10 136 13 56 27
118 30 138 5 29 20 48 68 90 33 29 56 55 49 57 -7 2 -34 -14 -61 -37 -27 -23
-53 -41 -59 -41 -14 0 -49 53 -44 68 3 6 -2 12 -11 12 -9 0 -25 -19 -37 -42
-45 -91 -123 -228 -129 -228 -3 0 -3 30 1 68 5 37 8 92 8 122 1 31 6 61 13 68
21 21 -13 14 -36 -7 -24 -22 -268 -178 -292 -188 -15 -5 -16 0 -10 53 11 90
14 97 52 122 20 13 33 26 30 29 -3 3 -40 -17 -83 -44 -142 -92 -170 -106 -177
-87 -11 30 -6 44 21 57 28 12 85 69 77 76 -2 2 -24 -15 -49 -38 -24 -22 -49
-41 -55 -41 -16 0 -12 42 7 62 15 17 13 18 -55 18 -61 0 -73 -3 -86 -21 l-15
-21 -34 21 c-19 11 -41 21 -48 21 -8 0 3 -11 25 -24 l38 -23 -85 -62 c-67 -48
-148 -91 -172 -91 -1 0 -18 24 -38 54 -31 46 -34 56 -23 72 24 35 50 79 44 74
-4 -3 -21 -23 -39 -45 l-32 -40 7 43 6 42 -210 0 -209 0 -17 -56 c-15 -53 -17
-55 -37 -41 -17 11 -22 25 -22 56 0 42 -14 59 -16 19 -1 -13 -2 -31 -3 -42 -1
-13 -45 -46 -136 -102 -74 -46 -140 -84 -145 -84 -6 0 -39 21 -74 48 l-63 47
6 78 c4 50 3 77 -4 77 -5 0 -10 -15 -10 -32z m1334 -5 c-4 -19 -3 -24 4 -15 7
11 10 9 15 -7 6 -26 -5 -27 -27 -2 -9 10 -14 25 -10 35 10 27 25 18 18 -11z
m2034 -40 c11 -5 -222 -303 -238 -303 -4 0 -14 7 -21 16 -8 9 -42 30 -77 47
l-63 30 28 31 c15 17 74 79 132 138 l104 106 66 -31 c36 -18 67 -33 69 -34z
m-2542 39 c6 -4 10 -20 10 -37 -1 -23 -8 -34 -34 -48 -19 -10 -36 -16 -39 -13
-3 3 -16 28 -29 55 l-23 51 52 0 c29 0 57 -4 63 -8z m-108 -43 c13 -22 21 -43
18 -46 -8 -8 -86 18 -86 28 0 18 24 59 34 59 6 0 21 -19 34 -41z m1218 14 c-2
-16 -8 -68 -11 -118 -7 -93 -38 -281 -48 -292 -14 -14 -125 76 -174 142 -63
84 -72 106 -48 120 9 5 74 47 143 92 70 45 131 82 135 83 5 0 6 -12 3 -27z
m195 -4 l22 -31 -43 -82 c-24 -44 -61 -111 -83 -149 -47 -80 -46 -115 3 -185
16 -23 30 -47 30 -53 0 -6 -36 9 -80 32 -66 35 -79 46 -75 63 2 12 9 45 15 75
6 30 26 79 44 110 19 31 56 100 82 154 27 53 52 97 56 97 3 0 17 -14 29 -31z
m2789 -25 c0 -37 -210 -307 -260 -334 -16 -8 -15 -3 5 68 35 122 60 166 142
242 72 67 77 70 94 54 11 -10 19 -23 19 -30z m-4019 -47 c31 -65 41 -100 46
-157 10 -121 -36 -55 -61 88 -8 44 -19 89 -25 100 -12 22 -15 52 -6 52 3 0 24
-37 46 -83z m427 50 c18 -18 29 -36 26 -40 -4 -4 -2 -7 5 -7 31 0 -49 -52
-107 -70 -84 -26 -98 -25 -119 7 -17 25 -17 26 7 42 13 9 49 35 80 58 30 23
60 42 66 42 5 1 25 -14 42 -32z m283 -45 c-4 -34 -12 -67 -17 -72 -5 -5 -34
-20 -65 -34 l-57 -25 -6 52 c-4 28 -4 53 1 55 4 1 40 22 78 46 39 24 71 43 72
42 1 -1 -2 -29 -6 -64z m2363 46 c-26 -42 -92 -123 -103 -126 -19 -4 17 53 63
99 39 40 53 49 40 27z m622 -5 c-12 -43 -58 -254 -68 -315 -7 -38 -14 -68 -18
-68 -3 0 -30 15 -60 33 l-55 32 -22 89 -22 90 34 72 33 73 54 4 c127 8 130 8
124 -10z m-4129 -19 c4 -11 -208 -204 -224 -204 -4 0 -26 12 -47 26 l-38 26
134 84 c125 78 166 94 175 68z m3208 -28 c-22 -17 -60 -50 -86 -73 -25 -24
-49 -40 -52 -36 -4 3 -7 21 -7 38 0 31 5 35 83 72 92 45 120 45 62 -1z m405
34 c18 -11 11 -19 -55 -55 -49 -26 -49 -26 -29 -4 12 13 27 34 33 47 13 24 27
27 51 12z m-3105 -56 c22 -37 25 -48 14 -55 -27 -17 -36 -9 -47 42 -20 86 -12
89 33 13z m3690 41 c17 -7 24 -14 17 -14 -24 -2 -51 -45 -52 -81 -1 -66 -79
-258 -88 -216 -3 14 45 254 64 314 4 15 21 15 59 -3z m-3944 -16 c27 -10 40
-22 49 -47 10 -28 10 -36 -1 -44 -115 -76 -377 -201 -411 -196 -20 3 -9 17 81
103 57 55 127 123 155 152 54 55 58 56 127 32z m125 -25 c4 -29 2 -50 -5 -57
-16 -16 -24 -2 -12 21 6 12 11 27 10 34 0 7 -5 1 -11 -14 -12 -35 -25 -35 -40
-2 -11 23 -9 28 12 45 14 10 28 19 32 19 4 0 10 -21 14 -46z m2924 21 c14 -8
39 -14 57 -15 17 0 34 -4 37 -9 11 -18 -131 -216 -208 -290 -42 -40 -79 -72
-81 -69 -10 10 -35 203 -30 228 6 28 50 75 125 134 50 39 64 42 100 21z m461
-32 c55 -25 99 -49 99 -53 0 -3 -11 -17 -25 -30 -37 -35 -109 -130 -103 -136
3 -2 24 19 46 49 23 29 52 63 65 75 l24 23 17 -65 c21 -87 21 -92 -14 -106
-23 -10 -40 -10 -76 -1 -26 7 -70 14 -98 17 -65 7 -118 32 -181 87 -47 42 -49
46 -37 69 12 22 154 118 175 118 5 0 54 -21 108 -47z m-2096 -35 c-3 -24 -16
-71 -28 -106 -21 -61 -21 -64 -3 -115 21 -61 19 -95 -7 -111 -14 -9 -22 -5
-47 24 -17 19 -35 51 -42 72 -10 33 -8 41 17 85 16 26 46 81 67 121 22 39 42
72 44 72 3 0 3 -19 -1 -42z m-1028 15 c-4 -3 1 -12 11 -20 16 -13 15 -13 -3
-5 -17 8 -31 0 -85 -49 l-65 -58 -3 40 c-2 23 -1 43 1 46 3 2 31 15 64 29 56
23 93 31 80 17z m2412 -60 c6 -31 11 -69 11 -86 0 -30 -96 -227 -110 -227 -5
0 -36 12 -69 26 -39 17 -61 32 -61 43 1 9 22 72 48 141 l47 125 45 17 c71 27
76 25 89 -39z m-2102 -52 c53 -106 113 -248 113 -268 0 -9 -10 -42 -21 -74
-39 -105 -61 -78 -145 170 -35 104 -64 194 -64 199 0 19 43 63 59 60 9 -2 35
-40 58 -87z m-603 70 c4 -5 -7 -42 -23 -83 -16 -40 -37 -99 -47 -131 -16 -53
-21 -58 -55 -67 -21 -6 -63 -31 -93 -56 l-55 -45 -63 16 c-35 9 -84 23 -110
31 -52 17 -54 22 -42 95 5 30 10 35 28 32 25 -4 283 116 376 175 70 45 76 47
84 33z m796 4 c0 -15 -83 -85 -102 -86 l-23 -2 23 -4 c12 -2 22 -10 22 -16 0
-7 18 -39 40 -72 39 -58 89 -190 76 -202 -20 -21 -110 94 -98 125 3 9 1 13 -5
9 -14 -9 -24 18 -16 40 4 10 2 14 -4 10 -12 -8 -26 20 -17 34 3 5 1 9 -3 9 -5
0 -9 8 -9 18 -1 9 -4 32 -8 49 -6 31 -4 34 51 62 58 30 73 35 73 26z m-317
-25 c-11 -40 117 -414 155 -453 l26 -28 -29 -86 c-40 -115 -47 -124 -70 -89
-13 19 -21 59 -26 132 -5 57 -13 113 -18 123 -6 9 -12 49 -15 87 -8 87 -38
199 -62 226 -11 11 -18 30 -17 42 3 20 2 20 -6 1 -6 -14 -2 -28 14 -50 28 -37
55 -137 61 -230 3 -38 9 -76 14 -85 5 -9 12 -41 15 -71 l6 -54 -20 35 c-11 19
-18 43 -15 52 3 9 -2 31 -10 47 -9 17 -16 55 -16 87 0 46 -7 71 -40 136 -36
71 -40 84 -34 127 6 44 10 50 38 59 47 15 55 14 49 -8z m1627 -36 c0 -6 -9
-32 -20 -57 -23 -52 -104 -317 -98 -322 2 -2 23 60 47 138 24 78 55 165 68
194 l25 52 66 -33 c37 -19 81 -48 97 -66 l30 -32 -30 -24 c-16 -14 -56 -39
-88 -57 -44 -24 -67 -46 -96 -92 -22 -33 -60 -84 -86 -114 -25 -29 -52 -66
-60 -81 -13 -25 -39 -40 -72 -40 -19 0 -16 24 17 139 16 57 45 176 65 265 20
88 38 166 40 173 5 14 95 -26 95 -43z m-2070 43 c0 -1 4 -17 9 -35 10 -35 6
-39 -21 -18 -17 13 -15 56 3 56 5 0 9 -1 9 -3z m850 -101 c25 -33 73 -80 108
-104 34 -24 62 -47 62 -50 0 -4 -47 -30 -105 -58 -84 -40 -105 -47 -105 -34 0
33 -39 129 -74 184 -20 31 -36 66 -36 77 0 12 16 37 36 57 l37 37 16 -24 c8
-13 36 -51 61 -85z m-1493 29 c14 -12 24 -28 21 -36 -3 -9 -21 3 -59 40 -45
44 -49 50 -21 35 18 -10 44 -28 59 -39z m987 28 c-3 -16 -7 -33 -9 -40 -2 -6
16 -51 41 -99 36 -72 44 -96 44 -143 0 -31 7 -69 15 -85 9 -16 13 -36 10 -46
-3 -9 4 -35 15 -58 11 -23 25 -66 30 -95 6 -28 19 -65 31 -80 18 -24 19 -32 9
-63 l-12 -36 -25 24 c-14 13 -120 133 -235 267 l-210 243 103 104 c71 71 116
108 144 118 55 20 56 20 49 -11z m1443 -41 c-13 -29 -15 -25 -9 23 4 31 6 36
12 20 4 -11 3 -30 -3 -43z m1183 33 c-7 -9 -15 -13 -19 -10 -3 3 1 10 9 15 21
14 24 12 10 -5z m95 6 c3 -5 1 -48 -4 -96 -7 -60 -16 -94 -31 -112 -11 -14
-20 -34 -20 -43 0 -10 -7 -24 -16 -31 -9 -7 -33 -38 -54 -69 -21 -30 -49 -66
-63 -78 l-25 -24 -7 22 c-4 14 -1 29 12 43 13 15 13 18 2 9 -14 -11 -17 -7
-23 25 -8 54 -7 83 3 83 9 0 37 -68 34 -81 -1 -3 4 -6 11 -6 10 0 7 14 -10 51
-13 28 -24 58 -24 68 0 17 49 83 137 186 55 62 67 70 78 53z m-2901 -14 c-2
-7 -14 -19 -27 -26 -21 -13 -21 -12 2 13 27 29 33 32 25 13z m2216 9 c0 -2 -8
-10 -17 -17 -16 -13 -17 -12 -4 4 13 16 21 21 21 13z m-2370 -43 c0 -7 -11
-13 -24 -13 -14 0 -32 -10 -40 -22 -20 -29 -20 -19 0 31 15 37 17 39 40 29 13
-6 24 -17 24 -25z m3103 -84 l-41 -42 0 29 c0 16 2 51 5 78 l5 48 36 -36 37
-36 -42 -41z m-180 79 c-54 -71 -80 -100 -102 -115 -14 -9 3 15 39 55 59 65
87 92 63 60z m-3528 -18 c3 -5 1 -10 -4 -10 -6 0 -11 5 -11 10 0 6 2 10 4 10
3 0 8 -4 11 -10z m2915 -4 c0 -2 -8 -10 -17 -17 -16 -13 -17 -12 -4 4 13 16
21 21 21 13z m389 -203 l1 -42 -60 21 c-33 11 -60 21 -60 23 0 2 14 27 30 55
17 28 38 68 47 88 l16 37 13 -70 c7 -38 13 -89 13 -112z m1171 156 c0 -14 -27
-48 -71 -91 -39 -38 -73 -67 -75 -65 -3 2 7 28 20 58 16 36 38 65 67 87 50 38
59 39 59 11z m-698 -10 c11 -6 40 -14 65 -18 l44 -6 -64 -130 c-35 -71 -73
-141 -84 -154 l-19 -23 -71 23 -72 23 15 29 c9 16 20 56 25 90 9 57 15 67 67
120 61 61 63 63 94 46z m124 -145 c-54 -103 -66 -135 -66 -173 0 -25 4 -52 9
-59 4 -7 6 12 3 43 -4 52 -1 62 58 177 34 68 66 127 70 131 7 7 156 -46 172
-62 9 -8 -28 -185 -45 -215 -6 -11 -17 -76 -23 -144 -6 -68 -14 -125 -16 -127
-8 -8 -138 47 -138 58 0 20 -50 120 -57 114 -3 -4 -1 -13 5 -20 7 -8 18 -32
26 -55 13 -36 13 -42 1 -42 -8 0 -26 16 -42 36 -20 28 -29 53 -34 105 -4 38
-14 78 -23 90 -14 20 -10 30 47 145 57 115 64 124 90 124 l29 0 -66 -126z
m-1824 26 c53 -22 126 -49 162 -60 l66 -22 -6 -61 c-8 -83 -7 -82 -55 -117
l-42 -30 -36 33 c-49 44 -155 118 -217 151 -45 24 -53 33 -58 64 -15 96 -2
119 53 96 20 -9 80 -33 133 -54z m-272 -60 c0 -30 -43 -187 -61 -222 l-21 -41
-61 68 c-34 37 -66 75 -71 83 -5 9 1 43 19 96 15 44 29 87 31 94 4 14 164 -61
164 -78z m-1257 21 c-83 -101 -139 -175 -157 -206 -17 -28 -16 -28 13 5 17 19
59 72 92 118 33 45 62 82 64 82 3 0 -12 -35 -31 -77 -20 -43 -65 -145 -102
-226 -56 -127 -68 -148 -86 -145 -20 3 -21 9 -19 88 l1 85 -8 -78 c-4 -43 -11
-81 -15 -85 -4 -4 -4 25 0 63 3 39 9 113 14 166 9 113 13 118 116 175 39 21
90 51 114 66 25 15 46 28 48 28 2 0 -18 -26 -44 -59z m105 35 c19 -25 19 -25
-24 -153 -31 -93 -42 -138 -38 -163 4 -27 -4 -54 -35 -122 -27 -57 -46 -88
-57 -88 -16 0 -124 29 -124 34 0 1 43 98 95 216 99 221 139 300 155 300 5 0
17 -11 28 -24z m3581 -134 c-5 -13 -24 -43 -43 -68 -19 -25 -46 -80 -61 -122
-40 -120 -45 -119 -38 3 4 78 11 119 23 140 10 17 21 48 25 70 3 22 11 62 17
89 l10 48 38 -68 c30 -54 36 -73 29 -92z m-2619 133 c0 -16 -35 -112 -49 -135
-8 -12 -19 -10 -71 15 -33 16 -59 34 -57 39 3 10 153 95 170 96 4 0 7 -7 7
-15z m1485 -57 c0 -8 -18 -35 -41 -61 -41 -46 -41 -46 -59 -27 -18 20 -18 21
6 48 14 15 31 36 38 47 8 11 -4 0 -26 -24 l-40 -44 -21 35 c-12 20 -22 38 -22
41 0 3 14 14 31 25 l32 20 51 -23 c28 -12 51 -29 51 -37z m-2715 48 c0 -2 -8
-10 -17 -17 -16 -13 -17 -12 -4 4 13 16 21 21 21 13z m1488 -25 c4 -29 -15
-25 -36 8 -15 22 -15 23 9 19 16 -2 25 -10 27 -27z m-1734 -27 l108 -36 -6
-82 c-4 -44 -3 -104 2 -133 9 -52 9 -52 -22 -64 -17 -7 -84 -36 -149 -66 -65
-29 -122 -53 -126 -53 -5 0 -35 33 -69 74 l-60 74 24 53 c33 71 164 269 178
269 6 0 60 -16 120 -36z m3461 4 c-11 -42 -38 -98 -46 -98 -26 0 -10 58 29
103 20 23 25 22 17 -5z m-3711 -10 c-10 -13 -43 -49 -73 -80 -31 -32 -50 -58
-43 -58 7 0 12 -16 12 -42 l0 -43 -26 26 -25 26 35 60 c19 33 53 76 76 96 44
41 74 50 44 15z m976 -173 c89 -104 180 -208 202 -231 l39 -40 -77 -235 c-42
-129 -78 -236 -80 -239 -7 -7 -290 279 -355 358 -32 40 -59 80 -59 89 0 8 18
54 41 102 31 67 39 93 34 118 -4 23 5 66 29 143 38 120 44 133 56 128 4 -2 81
-88 170 -193z m2080 150 c0 -5 -36 -23 -80 -38 -44 -16 -82 -32 -85 -37 -3 -5
21 2 52 14 88 36 119 40 127 20 10 -27 -29 -60 -108 -93 -122 -50 -150 -56
-187 -39 -30 15 -31 16 -12 27 11 5 24 7 28 3 3 -4 5 0 3 8 -2 8 5 15 17 16
22 1 65 21 65 30 0 2 -15 -3 -32 -11 -30 -14 -31 -14 -13 0 11 9 60 44 110 79
80 56 91 62 102 47 7 -9 12 -20 13 -26z m-1065 -67 c17 -40 59 -115 93 -167
34 -52 61 -96 59 -97 -1 -1 -50 6 -109 16 -104 17 -178 48 -178 73 0 6 11 38
24 71 13 34 30 94 37 134 11 64 14 71 27 58 8 -8 29 -47 47 -88z m1304 -2 c17
-28 31 -53 31 -57 0 -4 -25 -15 -56 -24 l-55 -16 -32 27 c-52 43 -51 47 5 113
l52 60 12 -27 c6 -15 25 -49 43 -76z m239 26 c8 -68 7 -74 -12 -84 -12 -6 -38
-24 -58 -40 l-37 -29 9 28 c17 58 81 206 86 200 2 -1 7 -36 12 -75z m-200 47
c34 -11 62 -25 62 -30 0 -4 -12 -28 -27 -52 l-27 -45 -43 67 c-60 93 -60 92
35 60z m-1871 -9 c12 -10 24 -30 28 -42 3 -13 24 -61 45 -108 22 -47 51 -130
65 -185 15 -55 35 -120 46 -145 16 -36 19 -57 13 -106 l-6 -62 -78 -51 c-43
-28 -85 -51 -92 -51 -7 0 -56 44 -108 97 -63 64 -78 83 -45 56 78 -63 126 -93
149 -93 15 0 11 5 -17 18 -20 9 -71 46 -112 81 -61 53 -74 68 -69 85 4 12 43
101 86 199 44 98 78 180 76 182 -2 3 -25 -42 -50 -98 -101 -220 -131 -282
-135 -271 -2 5 28 99 67 209 39 109 79 222 88 251 9 30 19 54 22 54 4 0 16 -9
27 -20z m682 -76 c25 -16 71 -50 103 -77 67 -55 68 -49 -22 -127 l-58 -50 -65
103 c-70 109 -117 201 -117 229 0 17 33 1 159 -78z m288 39 c-3 -10 -5 -2 -5
17 0 19 2 27 5 18 2 -10 2 -26 0 -35z m-2043 -1 c0 -12 -1 -68 -2 -124 -2
-115 -18 -124 -23 -13 -5 116 -1 167 14 163 6 -3 12 -14 11 -26z m1266 -72 c0
-11 4 -20 10 -20 5 0 7 7 3 16 -6 15 -4 15 19 0 14 -9 39 -34 57 -56 l32 -40
-37 -80 c-35 -75 -58 -98 -70 -67 -2 7 2 53 11 101 10 59 12 93 5 104 -7 13
-9 6 -10 -28 0 -57 -11 -120 -19 -120 -4 0 -18 25 -30 56 -13 30 -25 53 -28
51 -3 -4 28 -92 63 -175 16 -37 19 -122 5 -122 -11 0 -32 63 -60 179 -12 46
-33 109 -47 141 -25 57 -25 58 -8 86 18 29 18 29 -2 12 -11 -10 -23 -18 -26
-18 -6 0 -28 56 -28 72 0 4 36 -10 80 -32 60 -30 80 -45 80 -60z m2739 -34
c-24 -47 -48 -81 -52 -77 -5 5 4 54 19 110 l27 102 25 -25 26 -25 -45 -85z
m-1169 -66 c34 -43 33 -56 -14 -99 -25 -23 -25 -23 -136 -12 -137 14 -179 31
-224 85 l-35 43 72 23 c88 28 156 61 181 89 l19 21 53 -55 c29 -31 67 -73 84
-95z m430 129 c0 -5 -11 -43 -25 -85 -27 -82 -30 -120 -16 -172 8 -27 7 -32
-8 -32 -30 0 -114 29 -151 51 l-34 21 36 19 c29 15 45 35 74 95 38 76 86 127
111 117 7 -3 13 -9 13 -14z m-1245 -82 c-18 -39 -179 -170 -201 -165 -10 2 5
20 40 48 30 25 58 52 61 60 3 8 28 31 55 50 42 30 50 40 51 70 l2 35 4 -32 c2
-18 -3 -48 -12 -66z m1493 81 c7 -7 12 -38 12 -69 0 -53 -3 -62 -40 -104 -23
-26 -52 -69 -66 -96 -13 -27 -29 -49 -34 -49 -15 0 -12 58 4 105 8 22 22 64
30 93 15 48 63 131 77 132 3 0 10 -5 17 -12z m656 -4 l68 -7 -6 -45 c-8 -56
-50 -150 -71 -158 -15 -6 -160 40 -179 57 -4 4 11 44 35 89 37 67 47 80 64 75
11 -2 51 -8 89 -11z m-807 -17 c64 -21 70 -25 61 -41 -6 -11 -17 -44 -25 -75
-20 -76 -47 -125 -83 -151 -49 -35 -65 -24 -63 40 1 52 1 53 -6 15 -5 -22 -9
-33 -10 -24 0 9 -4 31 -8 49 -5 26 -3 31 7 25 10 -6 12 -4 7 9 -8 19 34 177
46 176 1 0 34 -11 74 -23z m955 17 c3 -3 -15 -50 -40 -105 -33 -71 -50 -99
-63 -99 -16 0 -16 4 6 53 13 28 26 76 30 105 6 48 9 52 34 52 15 0 30 -3 33
-6z m-1192 -104 c-29 -58 -67 -90 -105 -90 -19 0 -19 2 1 42 14 30 106 108
126 108 5 0 -5 -27 -22 -60z m-217 0 l-28 -51 -22 26 c-13 14 -23 30 -23 35 0
5 21 15 48 23 26 8 48 15 50 16 2 1 -9 -22 -25 -49z m-484 -31 c17 -17 31 -34
31 -39 0 -29 -28 -60 -72 -81 -87 -41 -126 -25 -183 73 l-26 47 23 6 c31 7
136 22 170 24 17 1 37 -10 57 -30z m-1004 -56 c10 -27 38 -80 62 -119 24 -39
43 -76 43 -81 0 -12 -141 -148 -186 -180 l-31 -22 -10 22 c-16 34 5 255 27
287 9 14 29 51 43 83 14 31 28 57 30 57 2 0 12 -21 22 -47z m770 -3 l26 -51
-63 -70 c-34 -39 -64 -65 -66 -59 -8 24 21 136 46 182 15 27 28 48 29 48 2 0
14 -23 28 -50z m1371 19 c8 -17 12 -35 7 -39 -16 -15 -143 -82 -143 -75 0 26
91 145 111 145 5 0 16 -14 25 -31z m394 15 c0 -16 -43 -170 -70 -248 -16 -49
-28 -91 -26 -93 4 -5 78 214 96 285 6 23 15 42 20 42 4 0 45 -14 90 -31 56
-22 90 -29 111 -25 l31 6 -24 -38 c-68 -109 -125 -219 -281 -532 -165 -332
-172 -343 -175 -302 -7 92 26 306 72 463 24 85 63 224 86 309 23 85 44 158 46
162 6 9 24 11 24 2z m-2477 -47 c24 -18 58 -39 75 -46 28 -12 32 -18 32 -50
-1 -26 -7 -41 -25 -53 l-24 -18 -34 58 c-43 71 -79 142 -72 142 3 0 24 -15 48
-33z m-1879 -59 c25 -32 46 -60 46 -62 0 -2 -13 -9 -29 -14 l-30 -11 -22 67
c-12 37 -24 74 -27 82 -7 20 5 8 62 -62z m366 57 c0 -10 -23 -115 -41 -193
-13 -51 -18 -95 -14 -113 7 -29 5 -31 -16 -24 -43 13 -91 53 -156 131 l-64 76
113 52 c62 29 124 57 138 63 28 13 40 15 40 8z m6 -137 c-22 -180 -25 -198
-36 -198 -16 0 -11 89 10 180 10 47 22 102 25 124 4 21 9 36 12 33 2 -3 -2
-65 -11 -139z m2559 123 c28 -11 89 -23 135 -27 134 -11 134 -12 54 -75 -82
-66 -139 -104 -217 -147 l-57 -32 -30 32 c-16 18 -30 38 -30 44 0 12 66 200
76 216 7 11 12 11 69 -11z m533 -24 c28 -15 52 -32 52 -37 0 -19 -24 -60 -35
-60 -12 0 -118 30 -123 35 -5 4 42 95 48 93 3 -2 29 -16 58 -31z m1186 -15 c6
-44 -5 -93 -34 -139 -23 -38 -26 -39 -62 -15 l-27 18 50 87 c28 48 54 87 59
87 4 0 10 -17 14 -38z m-635 1 c7 -16 26 -65 42 -110 28 -78 29 -85 18 -156
l-11 -74 -126 -56 c-69 -31 -127 -55 -130 -53 -13 13 32 165 65 219 41 68 103
204 103 227 0 8 -16 -21 -35 -65 -19 -44 -54 -111 -78 -150 -32 -53 -47 -92
-60 -160 -11 -49 -24 -95 -30 -102 -7 -7 -42 -23 -79 -37 l-67 -24 4 27 c5 23
35 302 35 316 0 3 6 5 14 5 8 0 40 25 73 56 71 68 207 159 244 163 3 1 11 -11
18 -26z m122 -12 l46 -16 -25 -54 -24 -53 -27 48 c-15 27 -35 62 -46 78 l-19
29 24 -8 c14 -4 46 -15 71 -24z m-1317 -3 c-3 -13 -14 -43 -24 -68 l-17 -44
-22 41 c-11 23 -21 45 -21 47 0 6 71 45 83 46 5 0 5 -10 1 -22z m946 -15 c0
-35 -4 -40 -60 -75 -49 -30 -60 -34 -60 -20 0 37 13 62 35 68 13 3 35 19 51
35 15 16 29 29 31 29 2 0 3 -17 3 -37z m-1106 9 l37 -18 -82 -37 c-45 -21 -84
-36 -86 -34 -3 4 85 107 91 107 1 0 19 -8 40 -18z m539 -43 c-15 -25 -36 -53
-46 -64 -10 -11 -27 -31 -38 -45 -12 -14 -4 6 16 43 20 38 34 71 32 74 -6 5
-19 -18 -111 -190 l-52 -97 -49 26 c-28 14 -61 33 -73 43 l-24 18 89 52 c48
28 118 76 155 106 36 29 68 51 71 49 2 -3 12 7 22 22 11 17 20 23 27 16 6 -6
-1 -25 -19 -53z m-1107 40 c61 -11 64 -12 70 -45 3 -19 4 -37 1 -40 -3 -4 -27
1 -54 9 -26 9 -61 17 -77 19 -25 3 -29 7 -30 36 -1 37 0 37 90 21z m1531 -20
c20 -7 21 -11 11 -46 -5 -21 -12 -40 -13 -42 -5 -4 -97 29 -108 40 -5 3 -1 21
8 39 15 28 19 31 48 24 18 -3 42 -10 54 -15z m-1219 -15 c31 -5 32 -7 32 -52
0 -26 3 -71 7 -101 5 -44 3 -53 -8 -49 -19 6 -32 147 -16 168 6 8 2 7 -10 -3
-18 -16 -25 -17 -45 -6 -13 7 -28 19 -34 27 -9 12 -17 7 -45 -28 -30 -36 -39
-40 -63 -34 -27 7 -46 37 -46 74 0 18 6 19 98 14 53 -3 112 -7 130 -10z m342
-34 c14 -28 20 -59 20 -108 l0 -68 -35 -17 c-44 -21 -60 -21 -135 0 -58 16
-60 17 -62 52 l-1 36 -4 -32 c-8 -62 -28 -32 -35 52 -2 32 7 55 23 55 6 0 7
-15 4 -37 -5 -28 -4 -34 4 -23 6 8 11 24 11 36 0 16 19 29 88 61 48 22 90 38
95 36 4 -2 16 -22 27 -43z m-2839 -47 c-8 -27 -20 -77 -27 -113 l-13 -65 4 85
c3 47 8 105 11 128 6 40 8 43 22 28 14 -14 15 -22 3 -63z m569 60 c0 -28 -44
-208 -52 -211 -3 -2 0 -20 9 -40 8 -20 19 -66 23 -102 l7 -65 2 52 c0 29 -4
73 -11 98 -11 40 -9 57 16 158 l27 114 67 -20 c61 -18 70 -25 100 -69 l33 -49
-46 -75 c-25 -41 -45 -80 -45 -87 0 -7 12 8 27 33 15 25 39 62 54 83 l27 37
40 -46 40 -47 -45 -96 c-25 -53 -92 -204 -150 -336 -58 -132 -108 -243 -112
-247 -6 -7 -136 82 -221 150 l-34 28 56 175 c74 226 84 268 103 429 9 74 19
138 22 142 2 5 17 8 34 8 21 0 29 -5 29 -17z m-262 -170 c38 -30 39 -35 36
-80 -1 -26 -1 -37 2 -23 13 68 12 67 44 62 16 -2 30 -6 30 -9 0 -9 -135 -233
-141 -233 -4 0 -9 17 -11 38 -3 20 -15 70 -27 110 -19 63 -27 76 -61 98 -29
19 -43 37 -50 65 -6 21 -17 56 -25 78 l-14 41 32 13 32 13 56 -70 c31 -39 75
-85 97 -103z m2126 152 c19 -14 19 -15 -6 -15 -27 0 -43 12 -31 24 9 9 16 7
37 -9z m-177 -37 c47 -17 94 -40 105 -52 17 -18 88 -149 88 -163 0 -16 -75 10
-128 45 -43 28 -76 41 -113 45 -47 6 -59 13 -103 56 l-49 49 23 32 c20 28 26
31 58 25 19 -4 73 -20 119 -37z m1201 35 c-2 -5 -19 -39 -37 -78 l-33 -70 31
-91 c35 -106 34 -157 -5 -236 -48 -95 -70 -73 -42 40 l22 83 -22 67 c-28 90
-29 112 -8 144 9 15 26 51 38 80 19 50 32 67 51 68 5 0 7 -3 5 -7z m134 -24
c54 -17 98 -34 98 -39 0 -4 -7 -24 -15 -45 -9 -20 -26 -76 -39 -123 -25 -97
-28 -98 -126 -101 l-45 -1 -32 92 -32 91 36 79 c20 43 40 78 46 78 6 0 54 -14
109 -31z m253 -5 c-52 -46 -75 -59 -75 -42 0 12 96 79 110 78 3 -1 -13 -17
-35 -36z m-1777 7 c-7 -11 -16 -17 -20 -14 -10 5 10 33 23 33 5 0 4 -9 -3 -19z
m418 -5 c1 0 7 -48 13 -105 8 -71 8 -108 1 -115 -17 -17 -11 -29 8 -15 16 13
16 12 3 -4 -15 -18 -15 -18 -29 0 -7 10 -31 52 -53 93 -22 41 -47 87 -56 102
-26 40 -7 56 60 50 28 -2 53 -5 53 -6z m904 -13 c-15 -52 -23 -65 -99 -172
-42 -59 -83 -118 -93 -131 l-16 -25 -16 37 -16 37 86 120 c72 102 126 157 156
160 4 1 3 -11 -2 -26z m-1244 -211 l-6 -73 49 -52 c42 -46 49 -59 54 -108 6
-52 5 -57 -22 -83 l-29 -28 -69 66 c-37 36 -111 101 -164 144 -80 64 -150 138
-137 146 24 14 115 92 155 134 l52 53 61 -63 61 -63 -5 -73z m2502 172 c30
-21 45 -51 52 -108 7 -54 13 -42 -125 -248 -31 -47 -66 -57 -113 -32 -19 10
-36 24 -39 31 -6 16 177 373 192 373 6 0 21 -7 33 -16z m-3196 -126 l97 -103
-47 -16 c-70 -24 -124 -54 -209 -114 -42 -31 -78 -54 -80 -52 -2 2 14 51 36
108 21 57 51 143 67 192 15 48 31 87 34 87 3 1 49 -46 102 -102z m1456 51
c-23 -15 -38 -9 -38 14 0 35 12 41 33 16 14 -18 15 -24 5 -30z m1299 -3 c2
-42 -2 -56 -14 -60 -14 -6 -15 1 -9 46 6 45 13 68 19 68 1 0 3 -24 4 -54z
m-1976 -22 c21 -4 62 -22 91 -41 29 -18 71 -39 93 -45 22 -6 44 -15 49 -19 5
-4 -24 -44 -65 -88 -51 -57 -80 -81 -96 -81 -16 0 -42 20 -81 61 -31 33 -59
66 -62 72 -3 7 -4 45 -2 85 3 60 6 72 19 68 8 -3 32 -9 54 -12z m389 -3 c0 -5
6 -8 13 -7 20 2 117 -25 117 -33 0 -4 -24 -19 -54 -34 l-55 -26 -4 32 c-4 31
-4 31 -5 -5 -2 -40 -22 -54 -22 -15 0 12 -3 39 -6 60 -5 24 -3 37 5 37 6 0 11
-4 11 -9z m340 -81 c0 -62 -2 -70 -19 -70 -30 0 -73 39 -66 61 9 27 3 25 -67
-27 -81 -59 -150 -94 -187 -94 -23 0 -48 -17 -113 -77 -152 -144 -303 -296
-271 -274 17 12 42 34 55 49 13 15 87 87 165 160 112 105 146 132 162 127 23
-7 83 21 154 71 26 19 49 34 52 34 3 0 -10 -24 -29 -52 -18 -29 -72 -131 -120
-226 -100 -199 -85 -185 -334 -311 l-143 -73 -26 26 c-14 14 -31 26 -37 26 -6
0 16 25 49 56 l60 56 -60 -50 c-57 -47 -74 -52 -102 -29 -16 12 135 172 353
374 134 123 170 150 276 209 68 37 143 80 167 96 65 40 81 28 81 -62z m-2784
63 c30 -19 37 -35 71 -162 20 -74 23 -106 18 -150 -7 -53 -7 -54 -21 -31 -7
14 -19 51 -25 83 -6 31 -16 57 -21 57 -6 0 -8 6 -5 14 3 7 2 17 -3 22 -9 9
-50 150 -50 171 0 17 6 16 36 -4z m3193 -152 c1 -28 -25 -147 -35 -159 -4 -6
-129 60 -136 72 -19 28 -4 67 59 161 l67 100 22 -70 c13 -38 23 -85 23 -104z
m-1582 113 c3 -8 -136 -84 -153 -84 -15 0 15 26 69 61 59 38 77 43 84 23z
m1190 -76 c-2 -18 -4 -4 -4 32 0 36 2 50 4 33 2 -18 2 -48 0 -65z m-2971 60
c28 -32 76 -98 71 -98 -2 0 -27 27 -56 60 -29 33 -48 60 -43 60 4 0 17 -10 28
-22z m1042 -121 c114 -116 122 -127 116 -153 -10 -41 -85 -242 -132 -354 -112
-269 -113 -270 -131 -260 -22 11 -245 174 -283 205 l-26 22 112 254 c198 448
188 428 206 419 8 -5 70 -64 138 -133z m3143 28 l-9 -60 -1 81 c0 44 2 84 7
88 11 12 13 -43 3 -109z m-55 -1 c-13 -49 -28 -105 -34 -124 l-10 -35 -13 33
c-7 17 -19 32 -26 32 -7 0 -51 -20 -99 -45 -48 -25 -90 -42 -93 -40 -2 3 3 38
13 79 l17 73 132 60 c73 33 133 59 135 58 1 -1 -8 -42 -22 -91z m-2306 59 l22
-28 -56 -17 c-88 -27 -156 -34 -156 -16 0 12 133 83 162 87 4 1 16 -11 28 -26z
m1021 -75 c-13 -29 -39 -82 -58 -118 -20 -36 -42 -87 -50 -113 -15 -50 -26
-71 -78 -144 -28 -39 -55 -56 -55 -33 0 5 55 116 122 245 79 153 125 232 131
226 7 -7 2 -29 -12 -63z m1331 -153 c4 -36 -17 -43 -51 -16 l-24 19 29 113 29
114 7 -100 c3 -55 8 -113 10 -130z m-1058 203 c-4 -7 -23 -33 -43 -58 l-36
-44 -6 29 c-16 74 -12 80 64 84 20 1 26 -3 21 -11z m36 -39 c0 -9 -16 -29 -35
-43 -20 -15 -33 -30 -31 -34 2 -4 -2 -20 -10 -37 l-14 -30 5 35 c4 28 3 31 -6
17 -6 -10 -8 -30 -4 -45 6 -26 7 -25 33 22 15 27 37 56 49 63 21 14 23 13 29
-13 6 -22 -6 -52 -61 -158 -57 -108 -172 -273 -183 -261 -2 1 13 51 32 111 19
60 42 153 52 207 11 62 22 97 30 97 7 0 32 24 56 53 41 52 57 56 58 16z m-205
1 c21 0 19 -22 -10 -152 -21 -92 -30 -117 -58 -147 -18 -21 -53 -72 -77 -114
-24 -42 -49 -77 -54 -77 -6 1 -35 13 -64 28 l-52 27 45 60 c25 33 52 83 61
110 9 28 43 105 76 172 l60 122 28 -14 c16 -8 36 -15 45 -15z m-1293 -67 c67
-80 75 -95 91 -163 10 -41 32 -113 50 -160 32 -85 32 -85 90 -113 l57 -28 0
-56 0 -56 -77 7 c-43 3 -169 9 -280 12 l-201 7 -51 51 c-50 51 -50 51 -71 167
-11 64 -27 143 -36 175 l-15 59 28 22 c116 93 247 162 310 163 28 0 41 -11
105 -87z m298 13 c41 -33 109 -93 150 -133 l75 -72 -89 -90 -90 -90 -46 77
c-70 118 -103 160 -130 170 -29 11 -160 141 -160 160 0 6 12 12 28 13 15 0 54
9 87 19 33 9 69 15 80 12 11 -3 54 -32 95 -66z m1610 -89 c-23 -62 -43 -113
-45 -115 -2 -3 -123 54 -132 62 -2 2 13 34 32 72 19 38 35 83 35 101 0 22 4
31 13 28 6 -3 39 -2 72 3 58 7 60 6 63 -16 2 -13 -15 -74 -38 -135z m293 66
c-31 -127 -23 -115 -92 -134 l-63 -18 7 62 c9 74 10 77 38 77 12 0 40 9 62 19
54 26 56 25 48 -6z m-267 -102 c-13 -31 -28 -68 -31 -83 -4 -16 -11 -28 -16
-28 -14 0 -12 7 28 124 32 92 39 104 41 76 2 -20 -7 -55 -22 -89z m-1297 63
c2 -2 -4 -13 -14 -24 -20 -22 -35 -12 -35 23 0 14 5 17 23 11 12 -3 24 -8 26
-10z m969 -32 c34 -18 62 -34 62 -37 0 -9 -142 -490 -146 -494 -5 -5 -1 -9
-51 59 -31 43 -45 75 -61 145 l-20 89 69 139 c39 76 73 137 77 135 4 -2 35
-18 70 -36z m804 2 c19 -42 14 -61 -49 -200 l-37 -81 -51 39 c-27 22 -67 55
-87 75 l-38 34 19 36 c14 28 37 46 110 84 51 27 98 49 105 49 6 0 19 -16 28
-36z m382 15 c20 -12 36 -22 36 -24 0 -6 -181 -330 -189 -338 -4 -4 -20 6 -35
22 l-27 28 83 167 c45 91 86 166 90 166 4 0 23 -9 42 -21z m106 -44 l0 -45
-25 16 c-31 20 -32 38 -3 58 12 9 24 16 25 16 2 0 3 -20 3 -45z m-2733 -35
c12 0 92 -110 132 -182 33 -59 33 -77 -3 -107 -12 -10 -24 -8 -62 11 l-49 23
-37 110 c-20 61 -40 128 -44 149 l-7 39 31 -21 c16 -12 34 -22 39 -22z m2333
-18 c0 -2 -15 -25 -34 -51 -18 -25 -48 -74 -65 -108 -17 -35 -35 -63 -41 -63
-23 0 -18 27 18 108 22 48 45 104 52 124 l11 38 30 -22 c16 -12 29 -24 29 -26z
m375 -42 c-8 -48 -75 -284 -85 -299 -5 -10 -20 -8 -61 10 -30 12 -60 27 -67
34 -12 11 23 81 145 293 l25 44 25 -24 c20 -19 23 -29 18 -58z m-1165 57 c0
-7 -14 -82 -30 -166 -17 -84 -29 -158 -28 -163 2 -5 19 64 37 154 18 90 36
166 40 169 3 4 34 -9 67 -27 l61 -34 -37 -93 c-26 -62 -45 -134 -60 -222 -12
-71 -27 -135 -34 -142 -8 -9 -37 -10 -102 -6 l-91 6 32 121 c68 259 118 416
131 416 8 0 14 -6 14 -13z m440 -21 c0 -8 -15 -26 -33 -40 -26 -20 -39 -43
-59 -103 -23 -69 -25 -90 -21 -185 3 -74 1 -108 -7 -108 -9 0 -108 46 -118 55
-1 1 26 85 61 185 l64 184 44 12 c61 16 69 16 69 0z m847 -198 c13 -14 10 -21
-21 -62 -20 -26 -39 -53 -43 -60 -5 -7 -34 -17 -66 -21 -54 -6 -58 -5 -53 12
19 65 66 244 72 276 l7 38 44 -83 c25 -46 52 -90 60 -100z m-3408 55 c12 -67
11 -75 -6 -97 -10 -13 -49 -63 -88 -111 -38 -48 -77 -97 -87 -109 l-16 -21 -7
27 c-10 38 66 221 122 295 24 32 47 71 50 87 8 38 17 19 32 -71z m2690 -37
l64 -48 -7 -60 c-3 -33 -8 -63 -11 -68 -8 -12 -127 -67 -191 -87 -54 -17 -57
-17 -70 2 -10 13 -14 50 -14 124 0 119 26 225 61 252 19 14 23 13 62 -25 23
-23 71 -63 106 -90z m-3662 70 l31 -44 -27 -12 c-24 -11 -28 -9 -58 26 -39 44
-40 48 -10 62 32 15 30 16 64 -32z m2624 -14 c-10 -26 -11 -25 -6 8 3 19 -11
-10 -29 -65 -19 -55 -34 -102 -33 -105 4 -21 -17 -161 -25 -166 -13 -8 -1 121
14 151 9 16 8 18 -3 8 -10 -10 -16 -9 -31 4 -17 15 -16 18 13 72 70 125 92
154 101 137 6 -11 5 -27 -1 -44z m584 -168 c-53 -234 -52 -231 -66 -217 -17
17 34 269 73 365 18 44 34 74 36 66 2 -9 -18 -105 -43 -214z m-3281 155 c15
-22 26 -42 24 -43 -2 -2 -43 -15 -92 -30 -88 -27 -89 -27 -114 -9 -14 11 -27
24 -29 30 -3 7 158 89 183 93 1 0 14 -18 28 -41z m128 -46 c29 -35 30 -43 5
-43 -14 0 -35 9 -48 20 -21 17 -22 21 -9 30 22 14 35 12 52 -7z m2731 -85 c10
-41 29 -85 50 -115 42 -59 74 -111 62 -100 -9 8 -65 -111 -86 -184 -10 -36
-63 -129 -73 -129 -7 0 -147 50 -160 57 -13 7 -8 20 30 76 l45 68 -6 152 -7
152 58 64 c65 72 61 74 87 -41z m-2740 30 c12 0 29 -1 37 0 13 0 185 -246 177
-254 -1 -2 -59 12 -127 31 -112 31 -128 39 -157 71 -18 21 -33 40 -33 44 0 4
27 26 61 50 33 23 58 44 55 47 -2 3 -31 -14 -64 -37 l-60 -42 -65 31 c-37 18
-69 36 -72 40 -5 9 30 24 125 54 43 13 46 13 73 -9 16 -13 38 -25 50 -26z
m2291 23 c3 -5 -38 -51 -92 -103 -93 -88 -103 -101 -181 -248 -52 -96 -97
-166 -118 -185 -29 -25 -36 -39 -42 -87 -4 -32 -10 -60 -13 -63 -15 -15 -224
-135 -236 -135 -32 0 -19 37 56 152 112 173 169 276 192 344 11 32 23 66 27
74 3 8 5 19 4 23 -1 5 3 6 9 2 6 -4 29 9 52 27 73 58 302 207 320 208 9 0 19
-4 22 -9z m-2103 -77 c55 -42 102 -80 105 -85 7 -12 -36 -93 -45 -83 -4 5 -28
38 -52 74 -25 36 -62 89 -83 118 -21 28 -35 52 -31 52 4 0 51 -34 106 -76z
m2181 47 c24 -10 57 -30 74 -44 29 -25 30 -29 26 -84 -5 -58 -44 -173 -84
-248 -12 -22 -52 -86 -90 -143 -37 -57 -73 -121 -79 -143 -15 -47 -16 -47
-145 -13 -68 18 -116 24 -152 21 l-54 -4 7 56 c5 46 13 62 42 91 19 19 72 103
117 186 76 142 87 157 181 247 55 53 103 96 107 97 3 0 26 -8 50 -19z m1989
-67 c-4 -38 -9 -57 -10 -43 -1 29 -21 42 -48 32 -12 -5 -14 -3 -8 8 18 30 70
88 73 80 1 -4 -2 -38 -7 -77z m30 24 c-9 -31 -9 -31 -10 -6 -1 30 11 67 16 51
2 -6 0 -26 -6 -45z m-3384 -59 l44 -45 -103 -69 c-57 -37 -128 -88 -159 -112
-30 -23 -58 -43 -62 -43 -8 0 -27 69 -27 102 0 21 4 25 19 21 13 -3 28 8 51
39 19 24 65 81 104 127 l70 84 9 -29 c5 -16 29 -50 54 -75z m1123 77 c0 -3
-37 -30 -83 -60 -46 -31 -92 -65 -102 -76 -21 -23 -45 -26 -45 -5 0 17 14 27
135 94 100 55 95 53 95 47z m1870 -72 c63 -25 121 -52 129 -59 13 -12 4 -24
-59 -85 -41 -39 -81 -69 -89 -68 -9 2 -28 28 -44 58 -29 57 -70 200 -58 200 4
0 58 -21 121 -46z m-2230 22 c0 -2 -7 -38 -16 -80 -8 -42 -14 -82 -11 -89 2
-6 10 22 17 64 16 100 21 107 55 85 14 -9 29 -24 32 -32 16 -42 -46 -213 -119
-327 -31 -48 -49 -58 -28 -15 11 22 11 22 -5 3 -25 -31 -49 -79 -35 -70 8 5
11 3 8 -6 -3 -8 -12 -12 -19 -11 -8 2 -11 0 -6 -4 4 -4 0 -18 -9 -32 -8 -13
-14 -26 -11 -28 8 -8 122 167 170 261 26 50 54 117 63 149 10 39 18 55 24 46
12 -19 -41 -164 -95 -261 -83 -148 -207 -331 -217 -321 -10 10 12 63 39 94 8
9 12 21 8 27 -3 6 19 71 49 143 62 153 68 176 71 278 2 81 12 130 26 130 5 0
9 -2 9 -4z m785 -332 c-25 -35 -50 -64 -54 -64 -5 0 -19 8 -30 18 l-22 17 54
115 c33 69 60 143 68 185 l14 70 8 -138 8 -138 -46 -65z m1323 279 l10 -43
-25 20 c-14 11 -33 20 -42 20 -12 1 -9 7 11 24 15 13 25 26 24 29 -2 2 1 2 5
-2 4 -3 12 -25 17 -48z m372 7 c0 -6 -11 -8 -26 -4 -21 5 -25 4 -19 -6 6 -10
4 -12 -9 -7 -10 4 -20 7 -22 7 -3 0 -2 5 1 10 8 13 75 13 75 0z m-388 -49 c24
-23 92 -151 84 -158 -6 -7 -145 57 -179 82 -17 12 -17 15 4 59 20 40 26 45 48
40 14 -4 34 -14 43 -23z m-3485 -22 c29 -22 51 -44 48 -48 -2 -5 26 -35 63
-66 37 -32 86 -78 109 -103 l42 -46 -57 -62 c-31 -34 -68 -76 -81 -94 -29 -39
-69 -57 -86 -38 -7 7 -21 51 -33 98 -12 47 -42 126 -67 175 -25 50 -45 100
-45 112 0 22 39 113 49 113 2 0 28 -18 58 -41z m2973 -14 c17 -4 30 -13 30
-21 0 -17 -4 -17 -53 -3 -21 6 -47 19 -59 31 -14 14 -23 17 -29 9 -5 -6 -6 -9
-2 -6 3 3 16 -3 27 -14 12 -11 40 -24 63 -30 44 -12 86 -47 80 -66 -2 -5 -27
-28 -55 -50 -28 -22 -74 -71 -103 -110 -29 -38 -85 -108 -124 -155 -94 -113
-107 -132 -71 -100 16 14 55 57 87 96 35 44 71 76 89 83 29 10 31 9 24 -12 -3
-12 -13 -34 -20 -49 -8 -15 -14 -33 -14 -40 0 -13 -201 -131 -209 -123 -6 6
22 154 28 150 3 -1 7 13 8 34 2 44 55 207 92 278 14 28 46 74 70 101 l44 50
34 -24 c18 -12 47 -25 63 -29z m-2263 8 c-8 -48 -94 -221 -147 -295 -49 -68
-53 -67 -131 30 -28 34 -56 62 -62 62 -6 0 2 13 18 30 24 25 80 64 275 193 42
27 53 22 47 -20z m480 21 c49 -6 52 -8 61 -45 l10 -38 -97 -93 c-69 -67 -117
-104 -171 -131 l-75 -38 130 127 c132 129 98 106 -63 -43 -79 -73 -106 -88
-107 -58 -1 6 -13 48 -28 95 -14 47 -34 116 -44 155 -15 57 -22 70 -43 77 -28
9 347 2 427 -8z m2744 -44 c26 -12 21 -15 -120 -85 -131 -66 -147 -71 -159
-57 -19 24 -14 34 63 121 l70 78 60 -22 c33 -13 72 -28 86 -35z m-3156 17 c8
-12 15 -29 15 -38 0 -16 60 -233 75 -270 5 -13 -17 -25 -107 -59 -62 -24 -108
-45 -102 -47 5 -2 38 8 74 22 35 14 66 23 68 20 3 -2 -7 -9 -21 -14 -14 -6
-29 -16 -34 -24 -4 -8 -24 -28 -44 -45 l-36 -31 -67 68 -67 67 37 48 c50 66
142 247 150 294 5 33 10 39 25 35 11 -3 26 -15 34 -26z m-1175 -21 c25 -23 52
-36 81 -40 24 -4 57 -10 73 -13 l29 -5 -22 -17 c-15 -12 -31 -49 -52 -121 -17
-58 -38 -113 -47 -123 -14 -16 -18 -13 -52 51 -20 37 -56 97 -79 134 -22 36
-41 68 -41 72 0 10 60 96 67 96 3 0 22 -15 43 -34z m-100 -15 c-25 -37 -26
-37 -40 -11 -10 18 -7 22 22 34 18 8 35 13 37 11 2 -2 -7 -18 -19 -34z m220 8
c85 -22 122 -39 85 -39 -43 0 -149 22 -176 36 -32 16 -40 38 -11 30 9 -2 55
-15 102 -27z m2390 2 c0 -18 -25 -77 -38 -91 -9 -8 -23 -33 -33 -56 -11 -23
-25 -47 -33 -53 -15 -13 -42 -79 -38 -94 1 -5 -2 -6 -7 -3 -5 3 -11 -7 -14
-23 -4 -16 -13 -35 -22 -43 -39 -33 -47 -42 -38 -45 14 -5 -18 -73 -34 -73 -7
0 -13 6 -13 13 0 23 49 117 94 180 66 93 100 154 126 230 13 37 30 67 37 67 7
0 13 -4 13 -9z m970 5 c0 -3 -4 -8 -10 -11 -5 -3 -10 -1 -10 4 0 6 5 11 10 11
6 0 10 -2 10 -4z m-31 -29 c19 -21 20 -26 7 -36 -12 -10 -17 -7 -30 18 -26 49
-15 57 23 18z m1029 -1 c7 -8 -21 -93 -53 -161 -18 -38 -40 -95 -50 -125 -30
-99 -88 -250 -96 -250 -4 0 -69 32 -144 70 -75 39 -142 70 -148 70 -7 0 -20 7
-30 14 -17 13 -17 15 5 48 13 19 39 69 57 110 l33 76 150 76 c83 43 152 75
155 73 6 -7 -64 -145 -93 -184 -13 -17 -78 -71 -144 -119 -67 -48 -118 -89
-116 -92 3 -2 61 35 129 84 130 93 145 110 208 234 46 92 47 93 93 85 22 -3
42 -8 44 -9z m-3932 -42 c59 -42 78 -64 55 -64 -9 0 -131 98 -131 106 0 10 15
1 76 -42z m3400 -74 c-2 -8 -17 -49 -32 -90 -14 -41 -35 -104 -45 -140 -10
-36 -36 -113 -59 -172 l-42 -107 -64 32 c-68 33 -78 51 -45 81 20 18 19 19 -5
70 -13 28 -49 110 -79 181 -30 72 -54 122 -55 113 0 -9 31 -90 69 -179 67
-156 69 -163 53 -184 l-17 -23 -45 38 c-25 20 -79 56 -120 79 -41 23 -81 48
-87 54 -10 10 8 40 82 144 l96 132 94 36 c52 21 97 40 100 45 2 4 50 -16 105
-44 72 -36 99 -55 96 -66z m-858 85 c2 -2 -9 -23 -24 -47 -15 -23 -42 -74 -60
-113 -53 -116 -49 -113 -128 -70 l-68 38 7 36 c4 20 19 66 33 103 l26 67 105
-6 c58 -3 107 -7 109 -8z m-2852 -4 c-6 -9 -56 -22 -56 -14 0 4 40 21 53 22 5
1 6 -3 3 -8z m486 -123 c-19 -23 -35 -23 -56 1 -16 17 -16 25 -6 58 27 81 31
83 55 18 19 -53 20 -62 7 -77z m2383 93 c-3 -12 -11 -19 -16 -16 -5 4 -5 14 2
26 13 26 23 18 14 -10z m935 -56 c0 -18 -71 -177 -93 -208 -13 -20 -23 -25
-30 -18 -11 11 36 157 76 235 18 38 20 39 33 21 8 -10 14 -24 14 -30z m-3679
-93 c11 -31 27 -84 35 -117 9 -35 27 -72 42 -88 23 -24 26 -36 27 -105 2 -71
0 -79 -26 -104 -15 -15 -35 -48 -45 -74 l-17 -45 -41 7 c-23 3 -42 7 -44 9 -1
1 2 24 8 50 7 32 7 58 0 83 -5 21 -10 56 -10 79 0 23 -6 66 -14 95 -13 53 -9
189 9 296 l8 43 24 -36 c13 -20 33 -62 44 -93z m2992 26 c-7 -26 -20 -39 -63
-62 -30 -16 -50 -23 -44 -15 97 128 109 142 112 127 2 -9 -1 -31 -5 -50z
m-2385 -177 c34 -30 62 -60 62 -67 0 -7 -27 -33 -59 -58 l-59 -46 -56 37 c-53
35 -56 40 -56 78 0 22 -16 85 -34 140 -48 141 -36 151 63 48 42 -43 104 -103
139 -132z m3414 1 c-31 -111 -61 -200 -67 -198 -5 2 -9 12 -8 22 2 25 124 386
129 381 2 -2 -22 -94 -54 -205z m-1912 153 c10 -12 8 -16 -12 -24 -17 -6 -28
-23 -37 -52 -27 -89 -73 -179 -92 -179 -10 0 -20 4 -23 8 -4 7 141 262 149
262 1 0 8 -7 15 -15z m-2572 -36 c30 -10 46 -40 20 -38 -30 2 -172 55 -175 65
-4 12 79 -3 155 -27z m854 -42 c55 -156 46 -200 -15 -69 -41 87 -52 126 -42
142 14 23 31 1 57 -73z m1756 46 c-7 -14 -31 -67 -69 -151 -30 -65 -42 -83
-56 -80 -24 5 -21 16 25 127 37 90 52 108 90 110 8 1 12 -2 10 -6z m292 0 c0
-13 -48 -68 -54 -63 -7 7 33 70 45 70 5 0 9 -3 9 -7z m-1098 -25 c-7 -7 -12
-8 -12 -2 0 14 12 26 19 19 2 -3 -1 -11 -7 -17z m974 -35 c41 -14 54 -32 54
-75 0 -10 -39 -49 -90 -89 -51 -41 -87 -76 -83 -83 3 -6 2 -8 -2 -3 -5 4 -15
1 -24 -7 -9 -7 -26 -16 -39 -19 -21 -5 -27 1 -47 45 -21 46 -22 55 -11 82 8
17 28 65 46 106 45 105 42 103 103 78 29 -11 71 -27 93 -35z m-2830 26 c38
-12 86 -30 108 -41 l38 -20 -36 -24 -37 -25 -68 51 c-38 28 -72 57 -75 65 -7
19 -11 19 70 -6z m844 -2 c0 -7 16 -48 35 -92 l35 -79 -37 -38 c-34 -35 -196
-128 -222 -128 -6 0 -11 20 -11 49 0 39 7 58 33 95 17 25 59 84 91 131 54 77
76 95 76 62z m2196 -7 l51 -29 -24 -103 c-32 -140 -42 -167 -63 -178 -16 -8
-22 1 -53 88 -52 147 -52 149 -12 205 19 26 39 47 43 47 4 0 30 -13 58 -30z
m-2623 -148 c4 -6 12 -57 17 -113 10 -107 1 -180 -23 -178 -26 1 -107 35 -108
44 0 6 -7 25 -15 44 -14 33 -13 36 41 136 33 62 58 123 62 152 l7 48 7 -61 c3
-33 9 -65 12 -72z m2733 -5 c-7 -73 -19 -95 -53 -99 -19 -2 -32 -12 -41 -31
-8 -16 -16 -26 -19 -24 -2 3 0 14 5 24 5 10 22 69 37 132 l28 115 24 -30 c21
-26 24 -36 19 -87z m-1691 76 c-9 -16 -36 -55 -60 -88 -25 -33 -64 -87 -87
-119 -24 -33 -81 -136 -128 -230 l-85 -170 -101 -26 -101 -26 -6 76 c-5 63 -3
76 11 84 9 5 43 34 76 65 88 81 145 126 192 149 37 19 114 92 114 109 0 4 -16
-12 -36 -35 -20 -23 -45 -47 -57 -54 -16 -8 -12 0 13 28 20 22 62 75 94 119
33 44 64 86 70 94 8 11 8 13 -1 8 -6 -4 -48 -54 -92 -111 -44 -57 -104 -124
-132 -148 -29 -23 -85 -73 -126 -111 -41 -37 -78 -65 -82 -63 -4 3 -13 1 -21
-5 -12 -7 -12 -9 -1 -9 11 0 11 -3 1 -15 -7 -9 -19 -14 -27 -11 -12 5 -13 -11
-7 -94 9 -126 -9 -135 -25 -13 l-11 88 238 238 c231 233 271 267 302 260 8 -2
29 6 45 16 42 27 49 25 30 -6z m56 -20 c16 -53 64 -146 106 -209 30 -46 34
-59 29 -90 -4 -21 -23 -53 -45 -77 -21 -23 -57 -67 -81 -97 -40 -52 -46 -56
-121 -76 l-79 -21 7 26 c3 14 10 37 15 50 5 15 4 28 -3 37 -9 11 3 29 57 86
118 126 132 147 26 42 -95 -96 -101 -104 -96 -135 3 -19 -1 -52 -9 -74 -13
-38 -15 -39 -83 -52 -38 -8 -81 -14 -96 -15 -16 0 -28 -4 -28 -8 0 -12 -63
-21 -73 -11 -5 5 6 12 30 15 l38 7 80 166 c44 91 106 202 137 247 32 45 81
114 108 154 28 39 55 72 60 72 4 0 14 -17 21 -37z m16 5 c-3 -8 -6 -5 -6 6 -1
11 2 17 5 13 3 -3 4 -12 1 -19z m2007 -24 c37 -21 53 -39 76 -85 17 -32 30
-64 30 -72 0 -7 -24 -29 -54 -49 l-53 -36 -47 88 c-49 94 -55 123 -30 158 19
28 22 28 78 -4z m575 -8 c10 -12 2 -35 -46 -128 -56 -109 -73 -128 -101 -110
-10 7 -2 34 32 120 61 151 63 154 85 143 10 -6 23 -17 30 -25z m-3460 -48
l-12 -23 -10 29 c-8 24 -6 32 9 43 17 13 19 12 22 -6 2 -11 -2 -30 -9 -43z
m916 42 c10 -11 21 -18 24 -15 9 5 102 -153 136 -229 14 -33 25 -68 23 -80 -3
-16 -14 -4 -52 54 -27 41 -61 93 -76 115 -26 39 -90 159 -90 170 0 11 18 4 35
-15z m674 -19 c36 -10 78 -22 93 -25 l27 -6 -34 -58 c-36 -58 -42 -90 -25
-121 7 -15 -1 -25 -53 -63 -80 -58 -159 -101 -167 -91 -4 5 -21 71 -38 149
-23 107 -29 150 -22 178 10 44 7 41 45 53 38 13 90 8 174 -16z m2072 -63 l116
-60 -13 -72 c-25 -131 -15 -119 -97 -111 -42 3 -83 2 -99 -4 -23 -8 -41 -4
-117 31 l-90 41 66 128 c76 149 49 144 234 47z m-1395 25 c9 -27 23 -63 31
-82 19 -49 18 -51 -32 -51 -31 0 -65 -10 -105 -30 -33 -16 -62 -30 -65 -30 -3
0 -5 24 -5 54 l0 54 73 66 c39 36 75 66 79 66 3 0 14 -21 24 -47z m-911 -2
c-5 -28 3 -79 24 -174 17 -74 31 -144 31 -156 0 -23 -19 -28 -37 -10 -9 9 -19
6 -42 -10 -17 -13 -31 -27 -31 -33 0 -7 11 -1 24 11 13 13 32 21 43 19 16 -3
15 -6 -7 -21 -14 -9 -36 -18 -49 -20 -14 -2 -34 -16 -47 -32 l-22 -28 -16 31
c-9 17 -29 81 -46 144 -17 62 -35 123 -40 136 -6 13 -6 21 -2 18 9 -5 58 -146
87 -249 9 -32 19 -57 21 -54 6 6 -54 214 -83 286 -14 36 -22 66 -17 68 5 2 52
28 104 58 52 30 99 55 103 55 5 0 6 -18 2 -39z m1666 0 c46 -31 96 -78 88 -85
-2 -2 -24 -6 -49 -10 l-45 -6 -27 65 c-15 36 -23 65 -19 65 4 0 28 -13 52 -29z
m-243 -13 c10 -18 35 -63 55 -99 l36 -66 -123 -97 c-68 -53 -128 -96 -133 -96
-4 0 -25 27 -47 60 -21 34 -47 67 -58 74 -19 14 -18 16 28 73 26 32 57 73 67
92 14 23 39 42 81 61 34 16 64 29 68 29 3 1 15 -14 26 -31z m-2399 -46 l34
-26 -23 -15 c-14 -9 -74 -54 -135 -101 -104 -80 -112 -85 -150 -80 -31 4 -41
10 -43 25 -3 20 16 46 155 203 l55 63 36 -22 c21 -12 52 -34 71 -47z m1371 51
c0 -2 -16 -34 -35 -70 -19 -36 -35 -73 -35 -81 0 -12 -3 -12 -15 -2 -23 19
-19 40 21 107 24 40 42 59 50 56 8 -3 14 -7 14 -10z m108 -6 l32 -12 -33 -50
c-19 -28 -44 -69 -57 -92 -22 -39 -50 -58 -50 -33 0 6 18 46 40 90 22 44 40
85 40 92 0 7 -21 -32 -47 -85 -26 -53 -53 -97 -60 -97 -26 0 -25 32 2 83 67
126 68 127 133 104z m-1403 -47 c-10 -11 -22 -17 -27 -14 -4 3 2 14 14 24 29
23 37 17 13 -10z m1484 -32 c23 -51 28 -71 22 -103 l-7 -40 -69 2 c-38 2 -73
7 -78 12 -6 6 11 44 44 100 30 50 55 91 56 91 2 0 16 -28 32 -62z m636 -5
c-46 -63 -98 -113 -116 -113 -59 0 -66 41 -12 73 68 41 148 83 152 80 2 -1 -9
-19 -24 -40z m1373 -6 c29 -21 52 -42 50 -47 -6 -15 -156 -150 -167 -150 -7 0
-9 10 -7 23 3 12 12 60 21 107 22 114 24 122 38 113 7 -4 36 -24 65 -46z
m-4690 -2 c-3 -3 -9 2 -12 12 -6 14 -5 15 5 6 7 -7 10 -15 7 -18z m896 3
c-115 -131 -115 -131 -109 -160 6 -27 5 -28 -30 -28 l-37 0 7 63 c4 34 8 62 9
62 0 0 37 19 81 41 94 49 105 52 79 22z m3646 -92 c-9 -59 -17 -86 -27 -86
-16 0 -16 22 -3 92 20 101 21 101 32 90 7 -7 7 -36 -2 -96z m-1737 87 c2 -5 7
-25 11 -46 7 -37 6 -38 -39 -57 -26 -11 -50 -20 -53 -20 -4 0 -5 24 -4 54 3
49 7 56 30 65 34 12 50 13 55 4z m-1712 -51 c-27 -38 -168 -172 -182 -172 -6
0 -9 10 -7 22 2 14 39 50 103 100 55 43 101 78 103 78 2 0 -6 -13 -17 -28z
m2855 2 c24 -14 44 -29 44 -33 0 -8 -82 -210 -118 -293 -12 -27 -27 -48 -34
-48 -16 0 -248 117 -307 155 -23 14 -41 29 -41 34 0 8 48 49 220 190 21 17 39
20 108 21 72 0 89 -4 128 -26z m-3247 -67 c-10 -49 -15 -57 -34 -57 -35 0 -36
9 -4 72 37 74 54 67 38 -15z m2344 33 c9 0 17 -4 17 -10 0 -5 -26 -52 -58
-104 l-58 -94 -42 37 -42 36 62 70 62 70 -65 -62 c-58 -57 -91 -80 -74 -53 11
18 -18 6 -45 -17 -44 -40 -53 -29 -16 20 12 18 26 39 30 47 11 22 -31 -29 -60
-72 -28 -43 -95 -91 -119 -86 -13 2 -9 15 23 68 40 68 89 103 158 115 18 2 60
18 95 33 56 25 66 27 89 15 14 -7 33 -13 43 -13z m1707 16 c0 -2 -8 -10 -17
-17 -16 -13 -17 -12 -4 4 13 16 21 21 21 13z m-2959 -69 c10 -17 9 -17 -20 -2
-34 17 -34 16 -24 41 6 16 7 15 20 -2 8 -10 19 -27 24 -37z m2263 -34 c10
-112 12 -320 4 -328 -8 -8 -60 8 -135 41 l-51 22 59 139 c87 201 87 203 103
203 10 0 16 -20 20 -77z m-999 -23 c-29 -59 -44 -80 -63 -85 -16 -4 -22 -11
-18 -20 3 -8 1 -15 -4 -15 -6 0 -10 5 -10 12 0 12 83 151 108 181 30 35 25 5
-13 -73z m161 65 c31 -13 47 -31 97 -111 l26 -42 -54 -36 c-30 -20 -61 -36
-70 -36 -13 0 -166 39 -172 44 -2 2 56 128 80 174 19 35 23 36 93 7z m946 -17
c122 -53 122 -51 15 -140 l-92 -77 -6 57 c-11 91 -10 192 1 192 5 0 42 -14 82
-32z m-4145 -45 c-2 -16 -4 -5 -4 22 0 28 2 40 4 28 2 -13 2 -35 0 -50z m2487
46 c31 -12 56 -27 56 -34 0 -7 -7 -29 -15 -49 -14 -33 -18 -35 -48 -30 -47 8
-97 23 -140 41 l-38 16 38 39 c44 45 67 47 147 17z m2176 18 c0 -2 -12 -14
-27 -28 l-28 -24 24 28 c23 25 31 32 31 24z m-2906 -31 c42 -17 66 -51 66 -92
0 -29 -4 -33 -42 -42 -24 -6 -71 -14 -105 -18 -36 -4 -60 -11 -57 -16 4 -5 -2
-8 -12 -7 -11 2 -25 0 -32 -5 -24 -14 1 23 65 98 32 38 62 75 68 82 12 17 9
17 49 0z m-1344 -25 c0 -11 -201 -99 -236 -103 -15 -2 -29 2 -31 9 -5 13 31
31 152 74 84 29 115 35 115 20z m4084 -12 c5 -4 -16 -39 -50 -80 l-59 -72 -57
63 c-62 67 -68 83 -40 99 19 11 192 3 206 -10z m-3981 5 c20 -4 37 -10 37 -13
0 -12 -103 -51 -130 -50 -14 1 -36 4 -50 8 -24 7 -23 9 25 34 55 28 62 30 118
21z m2070 0 c4 -4 -5 -20 -18 -36 -14 -16 -25 -34 -25 -40 0 -6 -3 -9 -6 -6
-3 3 0 24 7 47 11 38 26 50 42 35z m2181 -101 c-10 -7 -42 -13 -71 -13 l-53 0
0 40 0 39 58 16 c31 9 62 18 67 19 6 2 11 -18 13 -43 3 -34 -1 -48 -14 -58z
m-4082 61 c15 -8 34 -14 43 -14 20 0 20 -2 -15 -63 -16 -30 -30 -66 -30 -80 0
-26 -8 -32 -40 -27 -16 2 -150 92 -150 101 0 3 19 12 43 19 71 21 149 52 144
57 -3 2 -52 -11 -108 -31 -57 -19 -133 -42 -169 -52 -36 -10 -83 -25 -106 -35
-37 -15 -42 -22 -48 -61 l-7 -43 -13 31 c-8 17 -25 49 -40 72 -29 46 -31 52
-15 52 6 0 44 13 84 29 70 29 75 29 125 16 50 -13 53 -13 128 19 81 35 120 37
174 10z m2137 19 c0 -5 -32 -33 -70 -63 -39 -30 -92 -78 -120 -107 -54 -57
-54 -57 -37 16 8 38 16 51 29 51 19 0 164 84 174 101 7 11 25 12 24 2z m-509
-10 c-1 -5 -27 -37 -59 -72 -50 -54 -62 -62 -82 -56 -22 7 -20 11 46 71 63 58
96 77 95 57z m610 -94 c0 -9 -171 -131 -255 -180 -78 -46 -80 -47 -87 -26 -5
19 -6 18 -8 -8 -1 -16 -4 -24 -7 -17 -3 7 -2 34 2 60 6 37 9 43 16 27 7 -18 8
-18 8 -2 1 32 39 74 138 157 l94 80 50 -43 c27 -23 49 -45 49 -48z m1383 34
c84 -91 82 -76 32 -208 -25 -65 -47 -121 -50 -123 -3 -3 -55 17 -117 44 l-113
50 4 69 c2 57 7 72 25 85 11 8 53 42 91 77 39 34 71 62 73 62 2 1 27 -24 55
-56z m-1963 39 c0 -5 -25 -36 -55 -70 -38 -41 -61 -59 -71 -55 -12 4 0 21 47
69 61 61 79 74 79 56z m110 -24 c33 -7 59 -17 57 -23 -2 -5 -21 -58 -42 -117
l-37 -107 -100 67 -99 66 68 68 c37 38 73 66 80 64 7 -3 39 -11 73 -18z m2174
-20 c-1 -27 -7 -37 -38 -54 -21 -12 -56 -27 -79 -35 -54 -17 -53 -15 -31 -40
19 -22 19 -22 -6 -14 -27 8 -50 24 -50 34 0 4 12 14 28 23 15 9 58 42 96 72
38 31 72 54 75 52 3 -2 6 -19 5 -38z m-3850 16 c9 -8 16 -22 16 -30 0 -13 -78
-60 -86 -51 -4 4 47 97 53 97 1 0 9 -7 17 -16z m2901 -118 c77 -42 145 -76
151 -76 6 0 16 -6 22 -13 8 -9 1 -28 -25 -72 -62 -104 -226 -370 -233 -378 -4
-4 -41 8 -83 28 -69 33 -79 41 -101 86 -30 59 -69 127 -108 190 -15 25 -37 81
-48 125 l-20 79 22 17 c13 10 63 45 111 78 l88 60 42 -24 c23 -14 105 -59 182
-100z m-3700 85 l70 -28 62 -119 c33 -65 60 -121 58 -122 -11 -11 -187 58
-230 90 -29 21 -64 38 -84 40 -54 5 -59 26 -19 84 19 27 38 57 41 67 8 22 19
21 102 -12z m210 -79 c29 -50 36 -70 33 -105 l-3 -42 -38 75 c-21 43 -37 89
-37 109 0 41 -1 42 45 -37z m368 3 l79 -54 -39 -24 c-21 -13 -75 -46 -121 -72
-93 -54 -78 -57 -169 29 -35 33 -43 47 -43 77 0 32 4 38 38 53 52 23 123 44
152 45 15 0 57 -21 103 -54z m1585 44 c-6 -18 -170 -80 -166 -62 2 8 34 25 72
38 37 13 71 26 74 29 10 10 24 6 20 -5z m921 -40 c25 -5 67 -16 92 -25 42 -13
48 -19 54 -50 3 -20 5 -37 3 -39 -2 -1 -27 -15 -56 -29 l-54 -27 -76 16 c-43
9 -86 19 -97 21 -11 2 -35 14 -53 28 l-34 24 74 51 c40 27 79 48 87 45 8 -3
35 -9 60 -15z m-2339 -4 c-19 -23 -6 -28 54 -21 45 6 54 10 50 24 -5 15 52
-84 91 -158 7 -14 20 -60 28 -102 l14 -78 -39 -1 c-21 -1 -42 -2 -47 -3 -13
-2 -122 164 -148 224 -32 78 -30 122 6 129 2 1 -2 -6 -9 -14z m1479 -12 c59
-34 199 -132 207 -144 24 -40 -87 4 -275 109 l-65 36 30 13 c42 17 52 16 103
-14z m-243 -10 c-7 -30 -40 -63 -62 -63 -17 0 -17 5 -2 46 10 30 20 36 62 43
4 0 5 -11 2 -26z m-77 -24 c-13 -39 -34 -59 -62 -59 -17 0 -18 2 -6 18 13 16
12 16 -6 1 -29 -22 -53 -14 -47 17 2 13 8 26 12 29 10 6 114 33 118 30 1 -1
-3 -17 -9 -36z m230 -3 c31 -19 98 -55 149 -80 50 -25 92 -48 92 -51 0 -2 -28
-23 -62 -46 -35 -23 -89 -64 -122 -91 l-58 -49 -42 24 c-22 13 -72 41 -109 62
-38 21 -71 43 -73 50 -6 14 37 114 67 156 18 26 66 56 93 58 4 1 34 -14 65
-33z m-1045 -11 c-10 -8 -35 -14 -54 -14 l-35 1 45 13 c61 18 67 18 44 0z
m491 -16 c19 -17 32 -35 29 -40 -3 -5 -10 -7 -15 -4 -5 4 -9 3 -9 -2 0 -4 -10
-8 -22 -9 -13 -1 -50 -4 -83 -8 l-60 -7 22 19 22 19 -25 24 c-23 21 -23 24 -7
30 10 4 39 8 65 8 39 1 53 -4 83 -30z m3028 -45 c80 -40 127 -71 127 -83 0 -5
-34 -31 -77 -59 -59 -39 -81 -49 -97 -42 -12 4 -61 11 -109 15 -69 6 -87 11
-87 23 0 9 16 62 36 118 l36 101 50 -19 c27 -10 82 -35 121 -54z m-3881 19 c9
-27 44 -88 77 -138 34 -49 61 -93 61 -97 0 -19 -18 -5 -32 25 -9 18 -39 58
-67 89 -47 52 -67 86 -85 146 -6 17 -3 22 11 22 13 0 23 -14 35 -47z m692 18
l28 -29 -28 -14 c-16 -8 -65 -20 -109 -27 -44 -7 -115 -26 -159 -43 -69 -27
-80 -29 -93 -15 -13 13 -5 21 69 72 104 72 120 77 182 53 27 -10 51 -17 53
-14 2 2 -13 10 -34 17 -32 10 -35 13 -18 20 43 17 81 10 109 -20z m-739 -33
c12 -33 36 -71 71 -109 62 -68 91 -117 72 -123 -7 -2 -45 -15 -84 -29 l-71
-26 -59 60 c-32 33 -82 76 -111 97 -29 20 -52 39 -52 42 -1 4 54 39 216 139 1
1 9 -22 18 -51z m2232 -14 c12 -8 50 -19 85 -25 35 -5 77 -13 93 -17 24 -7 42
-3 90 20 l60 28 11 -37 c11 -38 10 -38 -50 -104 l-60 -65 -111 47 c-72 31
-133 66 -177 101 -37 29 -67 56 -67 59 -1 3 14 13 32 21 34 17 29 19 94 -28z
m-2594 -5 c23 -23 52 -48 65 -56 17 -12 22 -25 22 -55 0 -47 -35 -189 -57
-232 -20 -38 -28 -23 -38 64 -8 77 -33 198 -47 223 -9 17 -2 97 8 97 3 0 24
-18 47 -41z m847 37 c0 -4 -96 -68 -127 -85 -20 -10 -23 -9 -23 7 0 14 19 28
68 50 65 30 82 36 82 28z m748 -60 c-32 -64 -51 -74 -63 -35 -4 11 -10 17 -15
14 -10 -6 -50 42 -50 61 0 24 17 15 30 -16 7 -17 15 -29 17 -26 3 2 0 14 -7
25 -10 19 -8 21 17 22 15 0 37 4 48 9 52 22 56 13 23 -54z m2292 -63 l85 -40
-76 -78 c-74 -76 -77 -78 -99 -62 -22 15 -26 14 -94 -33 -39 -26 -87 -65 -107
-86 -41 -44 -84 -112 -76 -120 3 -3 17 15 32 39 30 53 90 110 169 163 56 37
57 37 76 18 18 -19 16 -22 -71 -164 -51 -83 -94 -144 -101 -142 -7 2 -35 21
-63 42 -27 21 -85 57 -127 81 -43 24 -78 47 -78 52 0 5 50 76 110 158 61 82
110 157 110 167 0 10 7 41 15 69 l15 51 98 -38 c53 -21 135 -55 182 -77z
m-2488 66 c37 -24 47 -36 42 -48 -4 -9 -34 -98 -68 -198 -53 -160 -76 -212
-76 -172 0 6 -13 28 -29 48 -38 48 -66 104 -86 176 l-18 60 69 64 c38 35 56
55 39 43 -63 -44 -115 -100 -115 -123 1 -46 48 -157 94 -222 25 -35 46 -70 46
-77 0 -15 -32 -59 -101 -140 -37 -44 -54 -78 -84 -167 -21 -62 -41 -113 -45
-113 -9 0 -320 179 -351 202 l-24 18 113 108 c87 84 112 114 112 134 0 15 5
30 10 33 6 4 7 11 4 17 -4 6 -2 8 3 5 6 -4 37 34 71 86 33 50 78 110 100 133
42 41 217 164 235 164 6 0 32 -14 59 -31z m-173 3 c-70 -54 -122 -83 -136 -78
-8 4 -23 1 -31 -6 -9 -7 -4 3 11 23 42 56 32 59 -15 5 -43 -48 -43 -48 -148
-67 l-105 -18 -17 22 c-10 12 -16 26 -15 31 4 11 84 43 157 62 30 8 98 17 151
20 52 2 108 9 125 13 45 14 49 13 23 -7z m1296 -41 c40 -32 83 -62 96 -66 40
-13 192 -85 188 -89 -43 -43 -265 -214 -270 -208 -31 30 -219 336 -212 343 9
9 114 76 122 78 3 1 37 -25 76 -58z m-2802 -23 l39 -62 -29 -24 c-46 -38 -116
-83 -125 -80 -4 2 -25 27 -47 57 -34 45 -39 57 -28 69 18 23 128 102 141 102
6 0 28 -28 49 -62z m126 10 c10 -3 -1 -15 -31 -36 l-46 -32 -23 38 c-13 20
-29 47 -37 59 l-14 22 69 -23 c37 -12 75 -25 82 -28z m2281 28 c0 -2 -8 -10
-17 -17 -16 -13 -17 -12 -4 4 13 16 21 21 21 13z m-46 -18 c-4 -7 -43 -62 -87
-121 -76 -102 -81 -107 -101 -94 -11 8 -31 19 -44 26 -22 12 -22 13 30 58 29
25 76 60 103 78 28 18 57 40 64 49 16 19 46 22 35 4z m-1325 -55 c34 -51 36
-70 16 -123 -14 -39 -14 -40 -44 66 -34 117 -24 136 28 57z m763 10 c15 -13
10 -24 -56 -126 -40 -62 -82 -128 -94 -147 -12 -19 -22 -33 -22 -30 0 4 93
296 105 328 5 14 34 3 67 -25z m-1276 -77 c41 -37 78 -75 83 -85 8 -14 -6 -32
-80 -99 -49 -45 -96 -82 -104 -82 -12 0 -15 19 -16 103 0 56 -4 122 -8 147 -5
26 -6 -15 -3 -99 l5 -144 -45 34 c-44 33 -45 35 -32 61 17 34 64 212 64 245
l0 25 31 -20 c17 -11 64 -50 105 -86z m2806 -38 c65 -114 67 -122 37 -115 -13
3 -59 13 -103 22 -57 13 -87 26 -112 47 -19 17 -34 35 -34 41 0 6 28 40 63 75
l62 63 20 -25 c11 -14 41 -63 67 -108z m1433 -18 c21 -63 40 -121 42 -128 3
-7 -17 -22 -52 -38 -102 -45 -99 -46 -193 63 l-82 96 117 79 c101 67 119 75
125 61 3 -10 23 -70 43 -133z m-2205 103 c0 -21 23 -123 51 -227 l51 -190 -28
-23 c-16 -13 -53 -42 -82 -65 -61 -48 -53 -53 -127 73 -24 42 -66 101 -93 130
l-50 54 31 45 c90 132 149 200 190 219 57 26 57 26 57 -16z m130 -124 c56 -88
103 -166 104 -173 2 -18 -113 -110 -118 -94 -16 50 -87 312 -96 350 -8 39 -6
78 5 78 2 0 49 -72 105 -161z m-806 108 c16 -12 9 -21 -71 -105 -49 -51 -87
-92 -84 -92 3 0 47 41 97 91 l91 90 36 -21 c22 -13 34 -27 30 -33 -4 -6 -9
-27 -12 -46 -5 -30 -24 -49 -134 -138 l-127 -103 -33 16 c-17 9 -33 18 -35 19
-5 5 18 46 47 85 14 19 26 38 26 41 0 16 130 209 140 209 6 0 19 -6 29 -13z
m2643 -31 c9 -9 -27 -35 -57 -42 -14 -3 -39 -11 -55 -18 -37 -16 -145 -40
-151 -33 -3 3 7 29 21 58 l27 54 104 -6 c58 -4 108 -10 111 -13z m-4308 -71
c11 -38 27 -103 36 -143 16 -71 16 -73 -5 -107 -13 -22 -40 -43 -73 -58 -66
-31 -97 -41 -97 -30 0 21 74 115 98 124 15 6 22 13 16 17 -6 4 -21 29 -33 57
-12 27 -31 60 -43 72 l-20 22 23 38 c42 71 61 95 69 86 5 -4 17 -39 29 -78z
m3992 53 c-41 -105 -50 -119 -71 -108 -11 6 -20 15 -20 21 0 9 88 109 96 109
2 0 0 -10 -5 -22z m-2877 0 c-26 -44 -106 -158 -110 -158 -6 0 5 19 53 90 12
19 23 38 23 43 0 19 -22 -8 -69 -86 -39 -63 -81 -111 -180 -205 l-130 -123
-26 17 -26 17 84 58 c73 50 94 73 162 169 42 61 75 113 73 115 -2 3 -38 -43
-79 -101 -64 -91 -86 -115 -163 -169 -100 -71 -92 -71 -169 -2 l-49 43 133 84
c118 75 264 145 318 153 10 2 25 8 33 14 26 21 88 43 88 30 0 -6 7 -4 17 6 20
20 27 22 17 5z m749 -66 c42 -24 77 -47 77 -50 0 -4 -16 -52 -36 -107 -20 -55
-46 -138 -57 -184 -12 -46 -27 -86 -33 -88 -8 -3 -286 156 -304 174 -5 5 2 12
116 104 117 95 130 110 138 157 3 24 10 42 14 40 4 -2 42 -23 85 -46z m1042 8
c17 -19 16 -20 -16 -47 -39 -31 -77 -69 -207 -206 l-94 -98 -49 16 c-27 9 -51
20 -54 25 -3 5 72 71 166 147 95 76 184 148 198 160 32 27 34 28 56 3z m1425
-86 c47 -53 86 -100 88 -104 2 -4 -14 -11 -34 -15 -20 -3 -78 -25 -128 -48
-75 -33 -104 -41 -168 -45 l-76 -3 -4 72 c-2 59 1 77 15 96 10 13 19 39 20 58
2 29 7 37 27 41 14 3 33 8 43 11 14 4 17 0 13 -19 -3 -13 -10 -45 -15 -73 -6
-27 -17 -72 -26 -100 -8 -27 -11 -45 -6 -40 11 11 48 141 56 196 5 31 11 39
43 52 20 8 44 15 52 16 8 0 53 -42 100 -95z m-3904 29 c8 -11 13 -47 14 -95 0
-77 0 -77 -36 -105 -20 -15 -68 -54 -106 -86 -39 -32 -80 -63 -91 -69 -19 -10
-20 -8 -14 28 4 22 9 66 13 99 l6 60 97 92 c53 51 98 92 100 93 2 0 10 -8 17
-17z m2639 -19 c60 -14 110 -26 110 -27 0 -1 16 -37 34 -79 l33 -78 -84 -92
c-47 -51 -108 -132 -137 -180 -30 -48 -68 -98 -85 -112 -18 -13 -90 -74 -161
-134 -71 -61 -138 -116 -151 -122 -19 -10 -34 -8 -93 15 -39 15 -71 28 -71 30
0 2 33 114 74 249 85 281 73 262 280 465 80 79 110 102 123 96 10 -3 67 -18
128 -31z m965 1 c0 -21 -8 -43 -19 -54 -14 -14 -19 -34 -19 -90 -1 -39 -4 -75
-7 -81 -7 -11 -106 -42 -113 -35 -7 7 137 295 148 295 5 0 10 -16 10 -35z
m-4096 -71 c17 -43 18 -47 3 -56 -9 -5 -31 -30 -48 -56 -18 -26 -33 -49 -35
-51 -2 -2 -28 11 -58 29 -41 23 -56 37 -56 53 0 13 29 55 68 100 l67 77 20
-25 c11 -13 29 -45 39 -71z m3983 81 l21 -15 -35 -82 c-63 -153 -103 -228
-119 -228 -20 0 -75 32 -72 42 7 19 174 297 178 298 3 0 15 -7 27 -15z m-1960
-42 c-3 -10 -5 -4 -5 12 0 17 2 24 5 18 2 -7 2 -21 0 -30z m-1490 -20 c-3 -10
-5 -4 -5 12 0 17 2 24 5 18 2 -7 2 -21 0 -30z m2831 -80 c-18 -18 -35 -33 -38
-33 -7 0 -60 106 -60 120 0 5 29 -5 65 -22 l65 -32 -32 -33z m-3151 29 l53
-47 -17 -118 c-9 -64 -20 -114 -24 -110 -3 5 -21 73 -39 153 -18 80 -35 151
-37 158 -9 23 12 12 64 -36z m2052 -152 c57 -92 61 -102 46 -116 -9 -9 -34
-44 -57 -78 -23 -33 -56 -82 -75 -108 l-33 -46 -40 16 c-35 15 -40 21 -41 52
l-2 35 -6 -35 -7 -35 -8 50 c-4 28 -17 84 -27 127 -10 42 -19 82 -19 90 1 21
61 -113 70 -157 l8 -40 1 35 c1 23 -14 66 -42 123 l-43 88 65 96 66 95 41 -46
c23 -25 69 -91 103 -146z m-1229 163 c0 -25 -222 -245 -234 -233 -7 7 28 49
109 130 66 66 121 120 122 120 2 0 3 -7 3 -17z m-1177 -127 c26 -15 47 -33 47
-40 0 -8 -23 -35 -52 -61 l-52 -47 -19 24 c-16 19 -18 33 -13 88 4 36 7 74 7
85 0 20 0 20 17 -1 9 -11 38 -33 65 -48z m292 -67 c13 -62 22 -115 20 -117 -2
-2 -34 10 -72 27 l-69 30 -70 -21 c-38 -11 -82 -27 -98 -35 -25 -13 -30 -13
-43 0 -13 12 -6 21 47 70 34 30 73 58 88 62 58 14 132 57 149 86 10 16 19 26
21 21 1 -5 13 -60 27 -123z m1366 116 c36 -19 34 -25 -57 -120 -60 -64 -68
-77 -90 -154 -14 -46 -34 -106 -46 -132 -21 -51 -24 -52 -71 -15 -18 14 -17
19 22 130 37 106 46 122 116 203 41 48 75 91 75 95 0 12 18 10 51 -7z m-1755
-21 c-3 -9 -6 -36 -6 -62 l0 -46 -35 34 c-19 19 -35 37 -35 41 0 8 60 47 74
48 4 1 5 -6 2 -15z m854 -28 l47 -44 -139 -67 c-77 -36 -142 -64 -145 -61 -3
2 -6 19 -6 37 -2 29 7 40 83 106 46 40 91 73 99 73 7 0 35 -20 61 -44z m2910
20 c0 -2 -26 -27 -59 -55 -48 -42 -61 -48 -70 -37 -9 11 0 22 50 55 56 37 79
48 79 37z m-1826 -83 c61 -36 119 -72 129 -78 15 -10 2 -14 -73 -22 -111 -13
-128 -23 -300 -190 l-127 -122 -31 32 c-34 35 -44 61 -13 33 19 -17 20 -15 49
46 17 35 39 97 50 138 18 70 24 80 97 158 51 54 84 81 93 77 8 -3 65 -35 126
-72z m1937 23 c120 -77 126 -83 114 -95 -7 -7 -24 1 -54 29 -23 22 -41 34 -38
26 6 -14 -28 -29 -106 -46 -43 -9 -53 -8 -83 11 -19 11 -34 24 -34 27 0 8 102
101 111 102 3 0 44 -24 90 -54z m559 10 c0 -15 -47 -33 -156 -61 -61 -15 -134
-20 -134 -9 0 21 24 44 48 45 15 0 47 9 72 19 56 24 170 27 170 6z m-1552 -55
c2 -6 -21 -92 -52 -193 -30 -101 -60 -204 -66 -230 -9 -36 -17 -48 -31 -48
-42 0 -319 128 -319 148 0 3 9 15 19 26 11 12 47 61 80 111 49 70 82 105 157
166 l96 76 56 -23 c31 -13 58 -27 60 -33z m-688 45 c0 -2 -7 -6 -15 -10 -8 -3
-15 -1 -15 4 0 6 7 10 15 10 8 0 15 -2 15 -4z m2582 -73 l26 -14 -26 -60 -26
-61 -14 30 c-14 28 -13 33 8 62 12 17 20 34 17 37 -3 2 -16 -11 -29 -31 -13
-20 -26 -36 -29 -36 -4 0 -46 21 -93 46 -48 25 -89 44 -92 41 -3 -3 35 -26 85
-52 l91 -47 -31 -57 c-51 -90 -45 -89 -136 -22 -44 32 -84 64 -88 71 -4 6 -25
24 -47 40 l-39 29 68 20 c37 11 106 31 153 44 l85 24 45 -25 c25 -14 57 -32
72 -39z m-3822 31 c22 -15 40 -29 40 -31 0 -7 -175 -193 -181 -193 -9 0 -191
112 -187 115 4 3 282 135 286 135 1 0 20 -12 42 -26z m3030 -95 c0 -4 -32 -19
-72 -33 l-71 -27 -43 42 c-47 46 -48 59 -6 60 15 0 47 8 72 18 l45 18 38 -36
c20 -19 37 -38 37 -42z m-274 42 c21 -16 56 -47 78 -69 37 -39 37 -40 16 -47
-12 -4 -25 -3 -29 2 -4 4 -36 38 -71 76 -66 70 -63 89 6 38z m1117 -152 c-15
-44 -31 -79 -36 -79 -22 0 -17 44 19 149 l39 116 3 -54 c2 -40 -4 -75 -25
-132z m-3678 92 c61 -36 148 -86 193 -111 113 -62 112 -67 -35 -173 -146 -104
-240 -167 -249 -167 -3 0 -57 43 -119 95 l-112 95 -6 62 -5 62 101 107 c56 58
106 104 111 101 5 -3 59 -35 121 -71z m2553 -32 l53 -48 -33 -45 -33 -45 -75
-1 c-41 0 -120 -5 -175 -10 -139 -14 -148 -3 -58 72 38 31 97 86 132 122 l64
65 36 -31 c20 -17 60 -53 89 -79z m-3099 48 c1 -20 -35 -77 -48 -77 -11 0 8
102 22 118 9 12 12 11 18 -5 4 -10 8 -26 8 -36z m1565 13 c10 -13 9 -13 -6 -1
-10 7 -18 21 -17 30 0 13 1 14 6 1 3 -8 11 -22 17 -30z m-1946 -70 c-16 -50
-34 -90 -38 -88 -4 2 -30 28 -58 59 l-51 56 27 13 c27 13 131 48 144 49 4 1
-7 -40 -24 -89z m116 65 c31 -14 63 -25 71 -25 34 0 9 -18 -90 -68 -58 -28
-105 -50 -105 -47 0 18 53 165 59 165 5 0 34 -11 65 -25z m4044 -4 c22 -16 43
-34 47 -40 3 -6 42 -39 87 -72 l80 -62 -91 -91 c-108 -108 -98 -111 -181 55
l-55 111 -64 27 c-35 14 -64 30 -65 36 -1 9 152 63 185 64 9 1 34 -12 57 -28z
m-2268 -1 c0 -5 -40 -62 -89 -127 -88 -117 -89 -119 -192 -175 -57 -31 -113
-63 -123 -71 -18 -13 -24 -11 -67 22 -26 20 -48 41 -48 47 -1 15 190 199 262
254 53 39 66 45 130 50 112 11 127 11 127 0z m38 -12 c30 -30 13 -62 -103
-185 -119 -127 -155 -181 -155 -233 0 -28 -5 -33 -55 -56 -31 -13 -58 -24 -60
-24 -3 0 -21 25 -41 55 -44 66 -52 55 102 139 68 38 112 70 135 98 55 68 149
200 149 210 0 12 14 10 28 -4z m1332 -1 c0 -2 -10 -12 -22 -23 l-23 -19 19 23
c18 21 26 27 26 19z m-2702 -122 c12 -10 11 -18 -2 -44 -9 -17 -21 -31 -26
-31 -6 0 -48 25 -95 57 -80 53 -84 57 -72 77 7 12 17 26 21 33 5 9 29 -1 84
-34 42 -25 83 -52 90 -58z m3941 78 c11 -20 -41 -133 -62 -133 -37 1 -37 17 0
83 21 36 41 67 45 67 4 0 11 -8 17 -17z m-4660 -113 c0 -40 -34 -114 -42 -90
-18 54 -14 123 10 190 8 20 31 -55 32 -100z m91 19 c0 -5 -4 -9 -9 -9 -11 0
-71 80 -71 94 1 13 80 -72 80 -85z m3898 61 l23 -19 -43 -55 c-48 -62 -63 -65
-143 -32 -33 14 -37 18 -24 31 19 19 142 94 154 94 6 0 20 -8 33 -19z m111
-35 c0 -5 -6 1 -14 15 -8 14 -14 30 -14 35 0 6 6 -1 14 -15 8 -14 14 -29 14
-35z m161 -111 c34 -69 69 -128 76 -131 14 -5 20 -53 7 -53 -5 0 -28 14 -53
30 -25 16 -51 30 -57 30 -21 0 -132 236 -133 282 0 4 22 -2 48 -13 47 -20 50
-23 112 -145z m-2125 119 c5 -21 9 -44 11 -52 1 -7 -1 -10 -5 -5 -12 13 -30
94 -21 94 4 0 11 -17 15 -37z m1181 9 c-17 -16 -18 -16 -5 5 7 12 15 20 18 17
3 -2 -3 -12 -13 -22z m-2906 -23 c0 -18 -19 -17 -36 2 -16 17 -16 22 -4 29 14
9 40 -11 40 -31z m47 11 c21 -24 118 -209 143 -271 11 -26 33 -70 51 -98 17
-29 29 -54 27 -56 -2 -2 -20 -2 -40 1 -33 6 -36 9 -42 50 -6 50 -20 77 -115
229 -40 63 -66 114 -61 119 5 5 5 17 -1 28 -14 25 16 25 38 -2z m1669 -72 l21
-80 -32 -19 c-18 -11 -86 -53 -151 -94 -103 -64 -119 -72 -122 -55 -7 40 39
110 144 224 59 64 110 113 113 110 3 -3 15 -42 27 -86z m-1768 62 c14 -23 6
-44 -26 -73 -19 -17 -22 -17 -73 0 -29 10 -54 23 -56 29 -2 6 27 23 64 37 84
31 76 31 91 7z m3687 -24 l18 -33 -29 -37 c-33 -41 -34 -41 -75 -21 l-30 16
33 40 c18 23 37 47 43 55 14 20 20 18 40 -20z m-3395 -96 c154 -124 162 -132
183 -224 10 -43 9 -50 -8 -62 -11 -8 -43 -14 -75 -14 l-56 0 -41 83 c-66 130
-67 132 -38 176 l24 39 -21 18 c-20 19 -21 19 -8 -2 11 -17 10 -25 -5 -47 -9
-15 -20 -27 -24 -27 -6 0 -91 164 -91 175 0 11 16 0 160 -115z m-170 -42 c80
-126 117 -213 100 -232 -5 -4 -28 -10 -52 -13 -39 -4 -47 -1 -85 35 -38 35
-63 85 -50 98 10 11 74 -16 96 -40 12 -13 26 -36 31 -52 6 -23 8 -24 9 -8 2
37 -41 87 -89 105 -40 14 -49 23 -77 80 -18 35 -32 70 -32 77 -1 15 47 82 58
82 4 0 45 -59 91 -132z m-204 68 c26 -6 35 -17 67 -89 20 -45 37 -93 37 -107
1 -33 18 -62 58 -95 17 -15 32 -31 32 -36 0 -5 -39 -35 -87 -67 -98 -65 -74
-62 -248 -31 -65 12 -68 13 -35 20 28 5 21 7 -32 8 -50 1 -68 5 -68 15 0 17
43 81 84 126 37 39 159 200 153 200 -3 0 -36 -39 -75 -87 -38 -49 -81 -98 -94
-111 l-25 -22 18 112 c10 62 19 127 19 143 0 26 7 33 48 51 l47 20 35 -22 c19
-12 49 -25 66 -28z m3592 -1 c17 -3 32 -8 32 -11 0 -7 -79 -76 -132 -116 -40
-31 -59 -38 -94 -38 -24 0 -44 2 -44 5 0 3 30 50 66 105 l66 100 36 -19 c20
-10 52 -22 70 -26z m713 -37 c2 -4 -13 -30 -34 -58 -26 -34 -44 -50 -53 -46
-19 7 -60 -14 -96 -49 -16 -15 -28 -20 -28 -13 0 7 -3 23 -6 36 -5 18 10 39
86 117 l93 95 17 -38 c9 -20 19 -40 21 -44z m-3841 35 c0 -34 -1 -36 -16 -21
-13 12 -14 20 -5 37 16 30 21 26 21 -16z m3978 18 c-2 -3 -34 -68 -73 -143
-67 -132 -71 -138 -101 -138 -17 0 -33 3 -37 6 -8 9 17 56 71 134 90 129 115
158 129 153 8 -3 13 -8 11 -12z m-1108 0 c0 -5 -11 -34 -25 -64 -13 -31 -31
-73 -40 -92 l-15 -37 -57 41 c-79 55 -165 132 -158 140 6 5 97 12 258 19 20 1
37 -2 37 -7z m516 -67 c50 -80 49 -93 -3 -94 -26 0 -107 96 -95 114 27 43 38
56 44 56 3 0 28 -34 54 -76z m469 67 c3 -5 1 -12 -5 -16 -5 -3 -10 1 -10 9 0
18 6 21 15 7z m-1326 -15 c10 -12 7 -18 -18 -30 -30 -16 -61 -21 -61 -11 0 3
7 17 16 30 18 28 45 32 63 11z m-94 -43 c-10 -15 -41 -54 -68 -85 -42 -49 -52
-56 -69 -47 -10 6 -18 15 -16 20 4 13 162 148 167 144 2 -3 -4 -17 -14 -32z
m-3105 18 c0 -5 -10 -70 -21 -143 -14 -88 -30 -148 -45 -178 -23 -43 -24 -44
-24 -15 0 55 48 315 60 330 14 17 30 20 30 6z m1315 -125 c15 -65 29 -124 31
-131 5 -12 -246 -177 -272 -179 -11 -1 -134 176 -134 192 0 9 344 250 347 243
1 -3 14 -59 28 -125z m2038 33 l87 -67 -118 -74 c-64 -41 -123 -78 -130 -82
-8 -5 -32 10 -64 39 -28 25 -69 58 -90 73 -20 15 -37 32 -37 37 0 6 26 38 58
73 40 42 66 62 82 62 13 0 38 8 54 19 28 17 32 17 51 2 12 -9 60 -46 107 -82z
m494 -65 c-2 -2 -45 -1 -95 2 l-91 7 47 35 c26 20 67 54 92 76 l45 41 3 -79
c2 -43 1 -80 -1 -82z m73 119 c0 -3 -12 -21 -26 -40 -14 -19 -24 -37 -21 -39
3 -3 19 15 37 40 l31 46 40 -46 c21 -25 39 -47 39 -49 0 -6 -106 -35 -128 -35
-22 0 -32 33 -32 112 l0 49 30 -16 c17 -9 30 -18 30 -22z m-1616 -101 c17 -20
30 -43 28 -52 -3 -16 49 -70 67 -70 7 0 117 -134 172 -210 30 -42 44 -74 27
-64 -7 5 -9 2 -5 -9 3 -8 0 -20 -7 -26 -16 -13 -117 59 -162 115 -95 122 -111
149 -102 174 9 23 10 22 79 -46 39 -38 95 -99 126 -136 31 -37 59 -66 61 -63
7 7 -62 89 -164 195 -99 104 -211 264 -162 234 6 -4 25 -23 42 -42z m-26 -31
c57 -105 44 -130 -81 -166 -84 -25 -90 -25 -114 -10 -14 9 -22 19 -19 22 3 3
-8 32 -26 65 -17 32 -29 60 -27 62 9 9 205 85 219 85 8 1 30 -26 48 -58z
m-737 22 c13 -16 12 -17 -3 -4 -17 13 -22 21 -14 21 2 0 10 -8 17 -17z m2559
3 c0 -9 -7 -12 -20 -9 -11 3 -17 9 -14 14 8 14 34 10 34 -5z m-50 -15 c19 -36
11 -50 -61 -107 -69 -56 -71 -57 -88 -38 -11 11 -21 41 -24 69 l-6 51 77 21
c97 27 90 26 102 4z m-3201 -54 c19 -15 32 -29 30 -31 -2 -2 -14 -8 -26 -15
-38 -20 -52 -14 -58 27 -12 66 -16 76 -26 61 -5 -8 -9 -9 -9 -3 0 32 12 26 89
-39z m2170 7 c33 -25 82 -64 107 -87 l46 -42 -22 -53 c-13 -29 -28 -51 -34
-49 -6 3 -10 10 -8 16 1 6 -2 11 -7 11 -10 0 -27 42 -35 86 -7 41 -42 92 -89
132 -59 49 -27 38 42 -14z m787 -65 c25 -50 44 -92 42 -93 -2 -1 -40 -28 -85
-59 -45 -31 -86 -57 -90 -57 -4 0 -34 40 -65 87 l-57 88 105 53 c58 30 103 56
101 59 -3 2 -32 -9 -65 -26 -63 -32 -72 -30 -72 20 0 17 8 19 70 19 l70 0 46
-91z m50 77 c3 -8 4 -25 2 -37 -3 -21 -5 -20 -31 14 l-28 37 26 0 c14 0 28 -6
31 -14z m-244 -27 c6 -37 -16 -54 -83 -68 -24 -5 -82 -25 -127 -45 -46 -20
-86 -36 -88 -36 -35 0 104 105 201 151 77 37 92 37 97 -2z m-1591 -40 c16 -34
28 -63 26 -65 -2 -3 -40 -29 -83 -59 -92 -63 -96 -62 -104 50 l-5 70 65 32
c36 17 66 32 67 32 2 1 17 -26 34 -60z m-455 -97 c70 -59 86 -83 65 -96 -13
-8 -261 165 -261 182 0 3 7 14 16 23 16 18 19 17 62 -14 24 -18 78 -60 118
-95z m2544 119 c0 -5 -22 -29 -48 -53 -26 -23 -39 -36 -27 -28 11 8 34 28 52
44 29 26 34 28 61 17 26 -11 30 -18 35 -67 5 -53 -11 -142 -33 -185 -12 -22
-67 -26 -91 -6 -23 18 -115 148 -110 155 6 12 146 132 154 132 4 0 7 -4 7 -9z
m-2490 -21 c6 -11 8 -20 6 -20 -3 0 -10 9 -16 20 -6 11 -8 20 -6 20 3 0 10 -9
16 -20z m2865 0 c16 0 34 -14 58 -47 19 -27 53 -72 76 -102 38 -49 52 -93 33
-104 -4 -3 -54 28 -111 69 -57 41 -98 74 -91 74 15 0 4 87 -13 109 -10 12 -9
13 6 8 10 -4 29 -7 42 -7z m-3571 -29 c8 -15 31 -50 51 -75 27 -35 42 -72 60
-140 12 -51 35 -115 49 -143 14 -28 22 -53 19 -57 -3 -3 -23 9 -45 27 -84 68
-85 69 -139 41 -27 -13 -51 -24 -54 -24 -8 0 -50 93 -95 211 l-38 100 42 23
c58 34 120 65 128 66 4 0 14 -13 22 -29z m939 -53 c2 -40 6 -81 8 -92 3 -13
-12 -30 -48 -57 -29 -22 -53 -35 -53 -29 0 6 -5 8 -11 4 -7 -4 -9 0 -5 14 5
14 -4 48 -23 93 -17 40 -29 74 -28 76 8 7 133 62 144 63 7 0 13 -26 16 -72z
m-403 -14 c49 -36 90 -72 90 -80 0 -7 -14 -36 -31 -64 -17 -28 -29 -53 -26
-56 3 -3 20 21 38 53 18 32 33 59 34 61 4 5 55 -21 55 -29 0 -18 -113 -100
-137 -99 -18 0 -83 -24 -150 -57 l-72 -35 -84 52 c-78 48 -86 55 -97 96 -7 25
-11 46 -9 48 10 10 285 176 291 176 4 0 48 -30 98 -66z m1324 -24 c4 0 4 5 0
12 -4 7 -3 8 5 4 6 -4 9 -11 6 -16 -3 -5 27 -31 67 -57 89 -58 85 -55 72 -60
-6 -2 -44 -24 -85 -48 -41 -25 -78 -45 -84 -45 -6 0 -9 29 -7 72 3 71 2 75
-42 146 -26 41 -46 76 -46 79 0 2 24 -16 54 -41 29 -25 56 -46 60 -46z m-2253
53 c-12 -20 -14 -14 -5 12 4 9 9 14 11 11 3 -2 0 -13 -6 -23z m2086 -43 l-2
-70 -32 38 c-18 20 -32 40 -33 44 0 6 58 58 65 58 2 0 3 -31 2 -70z m1636 53
c18 -10 38 -25 45 -33 9 -10 11 -11 6 -1 -5 11 -3 11 11 3 10 -5 20 -17 21
-27 1 -9 17 -53 35 -96 17 -44 30 -81 28 -83 -10 -8 -213 -64 -220 -61 -19 12
-18 74 2 119 12 27 23 80 26 122 3 41 8 74 10 74 3 0 19 -8 36 -17z m-665 -58
c27 -36 56 -79 65 -95 l17 -28 -36 -12 c-38 -13 -249 -5 -273 9 -7 5 -16 34
-20 66 -8 55 -7 57 18 66 14 6 51 20 81 33 86 37 94 35 148 -39z m-1203 -41
c36 -47 64 -92 61 -100 -7 -19 -231 -184 -249 -184 -9 0 -36 -9 -62 -20 -26
-11 -48 -20 -49 -20 -1 0 -13 23 -26 51 l-24 51 64 62 c36 34 85 95 110 135
52 84 75 111 95 111 7 0 43 -39 80 -86z m-671 19 c31 -63 44 -111 15 -58 -12
22 -30 51 -40 64 -16 20 -18 41 -4 41 3 0 15 -21 29 -47z m384 31 c18 -8 32
-21 32 -27 0 -13 -185 -231 -243 -286 l-36 -33 -40 80 c-39 77 -40 80 -21 97
34 31 255 184 266 185 6 0 25 -7 42 -16z m145 3 c-20 -31 -68 -102 -73 -107
-3 -3 -11 -17 -19 -32 -8 -15 -36 -46 -63 -69 -27 -23 -74 -74 -105 -115 -56
-75 -69 -84 -91 -62 -19 19 -15 26 41 86 106 112 216 242 222 263 4 11 21 27
38 34 41 18 60 19 50 2z m-1514 -95 l20 -73 -27 -10 c-15 -6 -48 -24 -75 -41
-39 -25 -54 -29 -85 -24 -20 4 -65 9 -100 12 l-62 6 67 42 c38 23 106 72 153
109 47 37 86 64 87 60 1 -5 11 -41 22 -81z m2572 70 c-13 -24 -121 -132 -131
-132 -14 0 -22 38 -12 56 6 12 133 91 150 94 1 0 -2 -8 -7 -18z m1089 -45 l-1
-42 -13 31 c-7 17 -17 41 -21 53 -6 21 -5 22 14 12 16 -9 21 -21 21 -54z
m-4443 47 c-3 -3 -12 -4 -19 -1 -8 3 -5 6 6 6 11 1 17 -2 13 -5z m3063 -82
c23 -10 23 -11 -14 -11 -26 -1 -56 9 -90 29 -100 58 -104 71 -11 31 50 -22
101 -44 115 -49z m880 10 c20 -54 21 -65 9 -76 -8 -7 -41 -35 -74 -63 l-61
-52 -42 67 c-40 63 -41 67 -25 84 34 32 158 116 164 109 3 -3 16 -34 29 -69z
m-561 -57 l1 -80 -35 40 c-59 67 -59 68 -17 119 35 43 37 45 44 23 3 -12 6
-58 7 -102z m600 20 c0 -15 -36 56 -43 85 -3 14 5 3 18 -25 14 -27 25 -54 25
-60z m-3176 50 c9 -25 12 -45 8 -45 -7 0 -31 65 -31 84 0 17 10 1 23 -39z
m3740 -10 c42 -27 77 -53 77 -56 0 -3 -30 -14 -67 -24 -64 -17 -66 -17 -80 0
-7 11 -13 28 -13 39 0 12 -3 38 -7 60 -7 46 -9 46 90 -19z m-515 9 c-3 -14 -5
-12 -10 9 -3 19 -2 25 4 19 6 -6 8 -18 6 -28z m52 -49 c28 -40 35 -45 70 -45
44 0 46 -2 55 -52 7 -36 6 -37 -45 -63 -38 -19 -55 -23 -65 -15 -7 5 -21 54
-31 107 -12 66 -20 90 -25 77 -4 -10 -8 -14 -8 -7 -1 13 9 43 15 43 1 0 17
-20 34 -45z m-2390 12 c0 -2 -12 -14 -27 -28 l-28 -24 24 28 c23 25 31 32 31
24z m-1529 -57 c88 -28 159 -55 159 -60 0 -17 -33 -11 -120 20 -46 17 -89 29
-97 26 -8 -3 -12 -2 -9 3 3 5 -13 14 -37 19 -44 12 -93 41 -68 42 7 0 85 -23
172 -50z m3196 -51 c11 -13 11 -29 -4 -94 -15 -70 -18 -76 -31 -59 -27 35 -71
136 -65 150 3 8 1 14 -5 14 -6 0 -8 9 -5 20 3 12 0 20 -8 20 -7 0 -4 9 10 24
l23 24 36 -41 c20 -23 42 -49 49 -58z m-225 14 c23 -43 44 -80 46 -84 1 -3
-33 -29 -75 -59 -43 -29 -95 -69 -115 -88 l-36 -35 -36 69 c-19 38 -49 89 -65
114 -36 53 -38 49 74 114 60 35 90 46 121 46 42 0 42 0 86 -77z m-2308 42 c3
-8 1 -15 -4 -15 -6 0 -10 7 -10 15 0 8 2 15 4 15 2 0 6 -7 10 -15z m2932 -47
c18 -29 34 -58 34 -63 0 -6 -42 -52 -94 -104 -120 -120 -123 -119 -236 56 -47
72 -60 100 -60 130 l0 39 161 -3 161 -3 34 -52z m-2956 34 c0 -29 -214 -222
-247 -222 -8 0 -42 27 -75 60 -43 44 -59 66 -56 82 3 22 7 23 73 21 39 -1 95
-3 125 -5 47 -3 60 1 90 24 28 22 66 42 88 47 1 1 2 -3 2 -7z m3208 -65 c18
-40 32 -76 32 -82 0 -5 -11 -23 -24 -40 -27 -34 -34 -32 -134 31 l-56 37 67
63 c37 35 71 64 75 64 4 -1 22 -33 40 -73z m-3146 -4 c14 -32 29 -71 32 -87 7
-28 7 -29 -15 -14 -15 9 -29 37 -41 79 -21 73 -21 79 -9 79 4 0 20 -26 33 -57z
m3637 -52 c12 -45 20 -85 17 -88 -2 -3 -9 12 -15 33 -33 128 -39 156 -32 148
4 -5 18 -47 30 -93z m-3676 37 l17 -53 -32 -27 c-18 -15 -68 -48 -111 -74
l-78 -47 -25 25 -26 25 91 72 c50 39 100 84 113 101 12 16 25 30 28 30 3 0 14
-24 23 -52z m477 -44 c0 -8 -45 -74 -51 -74 -6 0 -79 142 -79 153 0 3 29 -12
65 -34 36 -23 65 -43 65 -45z m2191 -88 l22 -39 -58 8 c-32 4 -68 11 -80 17
-20 9 -21 14 -13 60 5 28 14 62 19 76 10 25 10 25 49 -29 21 -30 49 -71 61
-93z m-2435 113 c19 -11 34 -25 34 -29 0 -13 -65 -60 -83 -60 -15 0 -74 67
-66 74 9 8 65 35 73 36 5 0 24 -9 42 -21z m-109 -51 c30 -28 29 -38 -2 -38
-15 0 -25 6 -25 14 0 8 -3 21 -6 30 -9 22 6 20 33 -6z m187 -57 l-9 -31 -44
22 -44 21 34 28 c33 27 34 28 53 9 16 -15 18 -25 10 -49z m1124 37 c-3 -7 -24
-28 -48 -46 -41 -32 -45 -33 -57 -16 -20 27 -17 31 40 53 62 24 70 25 65 9z
m-1088 -33 c0 -19 -4 -35 -10 -35 -5 0 -10 16 -10 35 0 19 5 35 10 35 6 0 10
-16 10 -35z m2880 5 c0 -19 -5 -30 -14 -30 -24 0 -29 20 -10 41 23 25 24 24
24 -11z m725 0 c-16 -16 -31 -27 -34 -24 -5 5 48 54 58 54 3 0 -8 -13 -24 -30z
m-248 -42 c-3 -8 -6 -5 -6 6 -1 11 2 17 5 13 3 -3 4 -12 1 -19z"/>
<path d="M2901 4624 c0 -11 3 -14 6 -6 3 7 2 16 -1 19 -3 4 -6 -2 -5 -13z"/>
<path d="M2881 4534 c0 -11 3 -14 6 -6 3 7 2 16 -1 19 -3 4 -6 -2 -5 -13z"/>
<path d="M2871 4494 c0 -11 3 -14 6 -6 3 7 2 16 -1 19 -3 4 -6 -2 -5 -13z"/>
<path d="M2861 4444 c0 -11 3 -14 6 -6 3 7 2 16 -1 19 -3 4 -6 -2 -5 -13z"/>
<path d="M4061 4733 c-1 -6 -4 -20 -7 -30 -5 -17 -5 -17 6 0 6 10 9 23 6 30
-3 9 -5 9 -5 0z"/>
<path d="M703 4315 c0 -33 2 -45 4 -27 2 18 2 45 0 60 -2 15 -4 0 -4 -33z"/>
<path d="M331 4406 c-29 -50 -67 -113 -83 -140 -16 -27 -23 -44 -14 -37 8 7
36 49 62 94 26 45 58 101 72 125 13 24 23 45 21 47 -2 1 -28 -38 -58 -89z"/>
<path d="M2738 3541 c-34 -53 -257 -305 -276 -313 -5 -1 -38 -29 -73 -62 -35
-32 -53 -53 -39 -46 43 21 333 322 384 398 27 40 47 75 45 77 -2 2 -21 -22
-41 -54z"/>
<path d="M3191 3504 c0 -11 3 -14 6 -6 3 7 2 16 -1 19 -3 4 -6 -2 -5 -13z"/>
<path d="M3205 3469 c-6 -44 -9 -50 -16 -34 -8 17 -9 16 -4 -5 2 -14 5 -29 6
-35 0 -5 9 14 20 44 11 33 15 59 10 68 -5 11 -10 -2 -16 -38z"/>
<path d="M3171 3400 c0 -8 4 -22 9 -30 12 -18 12 -2 0 25 -6 13 -9 15 -9 5z"/>
<path d="M2272 3070 c0 -19 2 -27 5 -17 2 9 2 25 0 35 -3 9 -5 1 -5 -18z"/>
<path d="M2231 2854 c0 -11 3 -14 6 -6 3 7 2 16 -1 19 -3 4 -6 -2 -5 -13z"/>
<path d="M2212 2805 c-17 -37 -14 -45 4 -12 9 16 14 31 11 33 -2 2 -9 -7 -15
-21z"/>
<path d="M3036 2903 c-6 -14 -5 -15 5 -6 7 7 10 15 7 18 -3 3 -9 -2 -12 -12z"/>
<path d="M3690 2967 c-9 -7 -16 -23 -17 -36 -1 -13 -1 -22 1 -20 4 6 35 69 33
69 -1 0 -9 -6 -17 -13z"/>
<path d="M1890 1820 c6 -11 13 -20 16 -20 2 0 0 9 -6 20 -6 11 -13 20 -16 20
-2 0 0 -9 6 -20z"/>
<path d="M3026 5097 c4 -13 2 -17 -5 -13 -7 5 -8 1 -4 -10 5 -12 3 -15 -6 -9
-10 6 -11 2 -6 -15 5 -15 4 -20 -4 -16 -7 5 -8 1 -4 -10 4 -12 3 -15 -5 -10
-7 4 -10 2 -7 -7 3 -7 -2 -30 -10 -51 -9 -21 -14 -40 -12 -42 5 -5 42 79 67
152 15 42 15 51 4 51 -10 0 -12 -7 -8 -20z"/>
<path d="M25 1184 c16 -8 37 -21 45 -28 15 -14 89 -53 80 -43 -17 18 -127 87
-140 87 -8 0 -2 -7 15 -16z"/>
<path d="M4871 293 c0 -13 -17 -70 -36 -127 -19 -58 -35 -113 -34 -123 0 -10
18 36 40 102 21 66 37 131 36 145 -4 22 -4 23 -6 3z"/>
<path d="M2029 244 c-7 -9 -36 -32 -64 -50 -27 -19 -45 -34 -39 -34 14 0 83
50 108 79 11 11 17 21 14 21 -3 0 -12 -7 -19 -16z"/>
<path d="M2710 176 c-142 -77 -302 -176 -285 -176 6 0 61 31 122 70 61 38 147
87 190 109 70 35 126 70 113 70 -3 0 -66 -33 -140 -73z"/>
<path d="M1681 40 c-30 -22 -48 -40 -41 -40 6 0 29 13 49 28 20 16 45 34 56
40 14 8 15 11 5 11 -8 0 -39 -18 -69 -39z"/>
</g>
</svg>