<?xml version="1.0" standalone="no"?>
<!DOCTYPE svg PUBLIC "-//W3C//DTD SVG 20010904//EN"
 "http://www.w3.org/TR/2001/REC-SVG-20010904/DTD/svg10.dtd">
<svg version="1.0" xmlns="http://www.w3.org/2000/svg"
 width="512.000000pt" height="512.000000pt" viewBox="0 0 512.000000 512.000000"
 preserveAspectRatio="xMidYMid meet">
<metadata>
Created by potrace 1.16, written by Peter Selinger 2001-2019
</metadata>
<g transform="translate(0.000000,512.000000) scale(0.100000,-0.100000)"
fill="#000000" stroke="none">
<path d="M0 4999 c0 -120 0 -120 23 -114 12 4 42 27 67 51 26 25 65 50 93 60
26 9 47 22 47 30 0 19 -17 18 -112 -7 -44 -11 -82 -18 -84 -16 -2 2 3 20 11
40 24 58 20 77 -15 77 l-30 0 0 -121z"/>
<path d="M370 5102 c0 -25 62 -96 102 -116 18 -9 41 -22 50 -28 28 -20 32 -2
8 32 -12 17 -25 50 -28 72 l-5 42 30 -22 c16 -11 35 -27 41 -34 6 -8 43 -29
81 -48 39 -18 71 -37 71 -41 0 -3 -31 -9 -69 -11 -60 -5 -76 -10 -120 -42 -35
-26 -57 -36 -70 -31 -28 9 -58 -10 -78 -48 l-18 -32 -5 40 -5 40 -41 -38 c-23
-20 -44 -37 -47 -37 -11 0 -28 70 -22 90 3 11 18 34 32 51 39 46 16 59 -31 18
-116 -101 -146 -222 -88 -350 l30 -66 -24 -39 c-28 -45 -29 -54 -10 -54 7 0
31 25 52 56 42 61 60 74 98 74 43 0 115 38 170 90 30 28 78 63 108 78 46 23
55 33 67 70 12 39 19 46 76 73 66 31 101 61 90 78 -3 6 -16 11 -27 11 -34 0
-162 68 -198 105 -34 35 -34 35 -127 35 -83 0 -93 -2 -93 -18z"/>
<path d="M820 5107 c0 -31 63 -136 107 -180 63 -63 132 -96 224 -106 86 -10
116 -23 181 -80 43 -38 78 -53 78 -32 0 12 -78 82 -121 109 -20 12 -56 47 -79
76 -52 69 -122 123 -233 181 -88 46 -157 60 -157 32z"/>
<path d="M1236 5104 c-3 -9 -6 -29 -6 -45 0 -16 -5 -38 -12 -48 -6 -10 -8 -26
-5 -34 5 -14 18 -11 92 23 98 45 140 73 155 101 10 18 6 19 -104 19 -95 0
-115 -3 -120 -16z"/>
<path d="M1580 5111 c0 -18 97 -109 137 -129 22 -12 54 -33 72 -48 18 -15 38
-24 47 -20 13 5 12 10 -8 34 -12 16 -39 61 -58 100 l-35 71 -77 0 c-43 1 -78
-3 -78 -8z"/>
<path d="M1890 5079 c0 -56 24 -103 79 -149 53 -46 77 -52 67 -17 -16 58 -17
106 -3 155 l16 52 -80 0 -79 0 0 -41z"/>
<path d="M2198 5063 c-9 -32 -23 -75 -32 -95 -15 -35 -15 -38 3 -47 30 -16
153 50 224 120 31 32 57 62 57 68 0 7 -40 11 -118 11 l-118 0 -16 -57z"/>
<path d="M2732 5097 c20 -12 40 -32 43 -44 3 -12 20 -32 38 -44 17 -13 57 -47
87 -75 57 -54 140 -104 171 -104 12 0 19 7 19 20 0 27 2 26 43 -15 33 -33 67
-46 67 -25 0 6 9 6 26 0 33 -13 111 -13 119 0 3 6 17 10 31 10 14 0 41 7 60
15 50 21 43 49 -25 96 -29 20 -72 55 -95 77 -22 22 -67 56 -98 76 l-57 36
-233 0 -233 -1 37 -22z"/>
<path d="M3360 5111 c0 -5 25 -31 55 -59 51 -47 123 -82 167 -82 24 0 130 -54
147 -74 8 -9 20 -16 27 -16 9 0 14 -11 14 -27 0 -20 15 -42 58 -83 69 -67 140
-99 184 -82 23 9 30 8 35 -4 4 -10 22 -14 64 -14 51 0 63 -4 92 -30 33 -28 55
-70 37 -70 -8 0 -55 -101 -65 -141 -9 -35 11 -107 41 -146 28 -37 28 -40 11
-73 -49 -94 -60 -141 -54 -220 l6 -79 -49 -75 -50 -76 -39 28 c-22 16 -71 37
-108 46 -177 43 -361 -22 -422 -148 -23 -47 -55 -228 -45 -259 8 -25 26 -17
37 19 15 46 65 113 133 181 61 61 62 61 80 42 21 -23 42 -24 65 -3 12 11 16
25 13 44 -6 25 -4 27 26 22 41 -6 83 16 77 40 -4 15 1 18 32 18 35 0 141 -44
140 -58 -8 -55 16 -38 70 51 34 57 80 112 148 178 55 52 113 113 130 135 43
55 74 137 75 195 0 27 4 52 9 55 5 3 9 18 9 35 0 22 -5 29 -19 29 -10 0 -22 7
-25 15 -5 14 -9 14 -35 1 -33 -18 -41 -13 -41 26 0 40 49 108 110 152 102 73
146 168 161 343 9 117 2 163 -25 163 -9 0 -22 -24 -35 -62 -12 -35 -44 -101
-71 -148 -56 -94 -80 -162 -80 -225 0 -31 -8 -54 -31 -86 -17 -24 -40 -59 -51
-76 -23 -39 -32 -36 -49 15 -19 60 -45 105 -82 143 -19 19 -40 53 -47 75 -41
128 -129 202 -307 259 -62 20 -94 37 -132 71 -27 24 -59 44 -71 44 -21 0 -22
-4 -19 -62 3 -52 1 -63 -12 -66 -12 -2 -26 16 -47 62 l-31 66 -105 0 c-59 0
-106 -4 -106 -9z"/>
<path d="M4065 5073 c3 -27 6 -62 6 -79 -1 -36 18 -56 73 -79 26 -11 47 -31
68 -65 17 -27 34 -47 38 -45 4 3 8 -5 8 -18 0 -31 19 -77 32 -77 5 0 10 21 10
46 0 31 12 74 37 132 38 88 46 144 30 205 -7 25 -11 27 -61 27 -52 0 -55 -1
-65 -31 -17 -48 -13 -123 8 -184 36 -103 -3 -68 -59 53 -16 34 -33 62 -39 62
-5 0 -12 15 -16 33 -13 64 -15 67 -47 67 l-31 0 8 -47z"/>
<path d="M4850 5110 c0 -18 34 -95 57 -129 13 -19 23 -42 23 -51 0 -23 66
-154 85 -170 26 -21 42 5 49 79 10 94 20 126 39 125 13 -1 17 7 17 32 0 19 -5
34 -11 34 -8 0 -9 15 -5 45 l7 45 -130 0 c-79 0 -131 -4 -131 -10z"/>
<path d="M2589 5064 c-6 -8 -8 -26 -4 -44 4 -19 2 -36 -5 -45 -7 -9 -9 -26 -6
-41 8 -30 89 -121 117 -129 37 -12 18 -23 -49 -30 -124 -12 -188 35 -175 130
5 42 4 47 -13 43 -22 -4 -38 -73 -29 -130 5 -33 2 -39 -22 -51 -61 -31 -68
-30 -98 12 -31 46 -112 91 -162 91 -18 0 -66 -11 -107 -25 -40 -14 -107 -29
-147 -35 -41 -6 -81 -13 -90 -16 -12 -3 -25 11 -47 50 -17 29 -46 63 -64 74
-34 20 -175 42 -165 25 4 -6 -26 -8 -73 -5 -128 7 -135 -20 -34 -121 104 -104
172 -116 319 -57 28 11 35 9 100 -31 153 -93 262 -112 383 -68 31 12 73 27 92
34 19 7 55 15 80 17 49 3 45 10 48 -80 2 -36 5 -43 20 -40 9 2 18 13 20 25 4
27 39 36 107 28 32 -4 61 -3 73 4 16 8 44 6 119 -9 93 -20 102 -20 168 -5 60
13 76 14 114 2 l44 -14 -53 -27 c-29 -15 -73 -40 -98 -56 l-46 -28 -39 33
c-72 62 -167 58 -281 -12 -57 -35 -61 -36 -100 -24 -123 37 -179 50 -188 45
-15 -10 10 -31 45 -37 17 -3 58 -15 90 -27 52 -20 62 -28 98 -86 48 -75 84
-98 152 -97 72 1 134 37 180 106 30 45 55 66 120 105 80 48 183 90 194 79 3
-3 -9 -37 -27 -75 -35 -77 -37 -118 -5 -115 114 8 257 69 263 111 5 36 22 25
22 -15 l1 -38 33 36 c33 35 76 131 76 168 0 10 14 48 31 85 41 87 27 108 -43
66 -19 -11 -68 -28 -109 -38 -103 -26 -143 -47 -188 -99 l-39 -44 -71 16
c-109 25 -226 116 -314 243 -50 73 -148 165 -187 175 -11 3 -24 -1 -31 -9z"/>
<path d="M4776 4894 c-3 -9 -6 -24 -6 -34 0 -40 -57 -186 -82 -211 -32 -32
-44 -117 -33 -245 7 -86 7 -87 -31 -160 -21 -41 -35 -77 -31 -80 15 -15 35 9
74 87 28 57 52 91 73 104 42 27 87 92 111 163 17 49 18 58 5 68 -12 8 -13 19
-6 50 5 21 10 62 10 89 0 103 -61 228 -84 169z"/>
<path d="M895 4770 c-48 -10 -72 -27 -79 -55 -7 -28 -24 -33 -32 -10 -11 27
-37 16 -84 -34 l-47 -48 -39 23 c-45 28 -89 31 -98 8 -26 -67 32 -150 133
-190 71 -28 182 -3 290 67 46 30 52 37 47 61 -4 21 -1 28 16 34 12 3 50 29 85
56 59 47 74 70 55 82 -14 8 -214 13 -247 6z"/>
<path d="M3630 4769 c0 -6 10 -19 23 -29 13 -10 30 -38 37 -61 19 -58 66 -104
119 -119 24 -6 45 -9 48 -6 13 12 -24 111 -51 138 -59 59 -176 110 -176 77z"/>
<path d="M1500 4666 c-30 -7 -62 -16 -71 -20 -10 -4 -20 -3 -23 3 -8 12 -72
-9 -125 -40 -32 -19 -36 -19 -47 -5 -18 25 -38 19 -91 -28 -32 -29 -62 -69
-83 -112 -32 -65 -33 -69 -26 -158 6 -97 1 -139 -18 -133 -10 3 -57 89 -81
147 -13 31 -110 110 -135 110 -28 0 -25 -24 9 -97 25 -51 40 -69 84 -97 58
-37 109 -96 117 -136 3 -13 12 -26 21 -28 13 -2 17 9 22 57 4 32 12 71 19 85
12 29 82 74 190 125 71 34 168 127 168 162 0 12 7 19 18 19 10 0 48 25 85 56
51 42 67 62 65 78 -4 26 -26 29 -98 12z"/>
<path d="M5067 4663 c-2 -5 -7 -24 -11 -43 -3 -19 -20 -55 -36 -80 -31 -47
-39 -97 -17 -119 10 -10 7 -16 -13 -31 l-25 -19 -3 34 c-2 19 -9 35 -15 35
-20 0 -153 -152 -180 -205 -60 -120 -87 -261 -67 -355 11 -52 11 -63 -4 -84
-18 -28 -21 -56 -6 -56 5 0 22 20 37 44 16 24 51 63 80 85 63 50 113 125 142
210 28 87 28 94 -9 86 -38 -8 -41 15 -5 39 29 19 36 76 10 76 -25 0 -17 21 20
56 30 28 40 32 69 27 19 -3 46 -3 60 1 26 6 26 6 26 122 0 77 -5 126 -14 149
-14 33 -30 44 -39 28z"/>
<path d="M1812 4614 c2 -15 -2 -18 -24 -16 -74 9 -173 -48 -246 -142 -70 -89
-78 -105 -58 -124 14 -14 27 -13 138 14 93 22 132 37 163 60 22 17 46 29 54
26 7 -2 27 9 44 26 18 17 58 42 90 56 34 15 57 31 55 38 -3 7 -45 24 -94 39
-49 14 -97 30 -107 34 -15 6 -18 4 -15 -11z"/>
<path d="M4090 4585 c-25 -8 -65 -19 -90 -26 -88 -23 -133 -42 -167 -72 -37
-33 -93 -122 -93 -149 0 -23 28 -30 70 -18 19 6 49 10 66 10 17 0 58 14 92 30
49 25 71 45 110 98 56 76 72 104 72 126 0 19 -1 19 -60 1z"/>
<path d="M7 4573 c-4 -3 -7 -29 -7 -56 0 -44 2 -48 16 -36 20 17 55 85 47 93
-8 8 -48 8 -56 -1z"/>
<path d="M3595 4548 c18 -87 17 -127 -3 -155 -52 -74 -136 -250 -138 -290 -2
-32 -12 -54 -39 -88 -31 -37 -34 -46 -21 -51 10 -4 25 5 42 25 22 27 32 31 75
31 62 0 123 30 149 73 24 38 25 47 5 47 -20 0 -19 3 9 45 21 31 24 46 23 108
-2 59 -5 72 -20 75 -14 3 -17 15 -17 75 0 78 -24 137 -56 137 -13 0 -15 -6 -9
-32z"/>
<path d="M2205 4525 c-22 -8 -51 -27 -65 -43 -14 -15 -54 -42 -90 -59 -81 -40
-127 -95 -136 -164 -4 -32 -14 -55 -30 -70 -13 -12 -26 -21 -28 -18 -2 2 4 32
12 66 14 57 14 66 -3 108 -12 32 -22 45 -33 43 -26 -5 -51 -67 -52 -125 0 -29
-4 -53 -10 -53 -5 0 -21 18 -35 41 -21 33 -29 38 -40 29 -20 -17 -7 -38 64
-105 45 -44 61 -67 75 -112 10 -31 42 -106 71 -167 28 -61 55 -119 58 -128 4
-10 11 -18 17 -18 6 0 14 8 17 18 24 65 112 123 236 155 72 19 99 37 137 89
31 43 38 86 18 106 -9 9 -7 16 6 31 10 11 16 30 14 42 -3 20 -9 23 -53 24
-138 4 -283 -97 -315 -220 -25 -93 -43 -145 -55 -155 -9 -8 -24 14 -60 87 -26
54 -53 118 -61 143 -13 44 -13 45 19 78 30 31 35 33 79 27 64 -9 127 20 163
74 15 22 24 44 21 50 -3 5 9 18 26 30 54 33 112 97 104 116 -3 9 -10 14 -15
10 -18 -11 -22 15 -6 39 15 23 14 47 -3 46 -4 -1 -25 -7 -47 -15z"/>
<path d="M449 4433 c-32 -43 -43 -68 -47 -105 -4 -42 -7 -48 -28 -48 -48 0
-42 -94 10 -163 17 -23 38 -61 45 -84 14 -41 33 -55 46 -32 4 5 0 18 -9 28
-24 26 -20 70 8 92 13 10 36 43 52 74 26 51 28 57 13 68 -15 11 -15 15 -3 32
31 41 7 195 -30 195 -9 0 -34 -26 -57 -57z"/>
<path d="M2937 4431 c-39 -43 -54 -103 -43 -166 8 -39 3 -41 -47 -20 -46 19
-94 19 -170 -1 -33 -8 -81 -14 -106 -12 -41 3 -46 1 -49 -19 -2 -16 8 -29 42
-52 24 -17 48 -31 52 -31 4 0 29 -22 56 -50 27 -27 56 -50 64 -50 7 0 14 -4
14 -9 0 -4 -20 -11 -45 -13 -63 -8 -105 -44 -175 -151 -60 -93 -70 -117 -47
-117 17 0 151 56 199 82 41 24 78 73 78 105 0 10 14 30 31 42 28 21 35 22 77
11 25 -6 65 -23 89 -37 24 -14 50 -22 58 -19 17 6 20 42 5 51 -5 3 -16 28 -24
56 -8 27 -25 63 -36 79 -20 28 -20 32 -6 52 9 12 16 33 16 45 0 13 3 23 8 23
8 0 42 -78 42 -97 0 -7 8 -17 19 -22 24 -13 45 10 59 64 12 46 4 103 -22 155
-25 48 -88 140 -96 140 -4 0 -24 -18 -43 -39z"/>
<path d="M3373 4383 c-11 -21 -26 -55 -33 -75 -6 -21 -16 -38 -21 -38 -13 0
-11 -58 5 -110 12 -41 12 -50 -6 -98 -11 -29 -17 -56 -14 -59 12 -12 32 7 45
43 7 22 31 58 53 82 49 53 58 78 58 155 0 67 -24 130 -50 135 -10 2 -24 -13
-37 -35z"/>
<path d="M180 4384 c-33 -15 -56 -21 -58 -14 -5 15 -32 12 -79 -10 l-43 -19 0
-196 c0 -159 3 -195 14 -195 7 0 19 7 27 16 10 13 10 19 0 36 -7 11 -11 21 -9
22 2 2 32 22 66 45 56 38 63 46 58 67 -4 16 -2 26 8 30 26 10 69 82 63 105 -4
14 3 38 19 64 46 79 28 92 -66 49z m-40 -73 c0 -6 -11 -23 -25 -38 -21 -24
-24 -25 -25 -9 0 11 7 28 17 38 17 20 33 24 33 9z"/>
<path d="M698 4293 c-20 -22 -82 -146 -98 -195 -11 -37 -13 -38 -49 -32 -32 5
-41 2 -54 -16 -8 -12 -12 -30 -10 -41 6 -22 38 -42 56 -36 15 5 36 -79 37
-143 0 -25 5 -62 11 -83 8 -30 7 -42 -6 -59 -8 -12 -15 -30 -15 -40 0 -34 23
-30 60 11 21 22 40 41 43 41 3 0 11 -25 17 -55 7 -36 24 -72 47 -102 30 -40
34 -49 24 -66 -11 -17 -7 -25 35 -63 26 -24 51 -44 55 -44 5 0 9 -4 9 -10 0
-5 -10 -10 -22 -10 -32 0 -52 -15 -45 -34 3 -8 28 -28 55 -43 l50 -28 -23 -27
c-29 -34 -64 -143 -67 -205 -2 -63 35 -138 106 -220 49 -56 74 -98 64 -108 -1
-2 -29 12 -61 31 -125 74 -220 73 -373 -4 -108 -54 -174 -114 -174 -159 0 -21
4 -23 53 -23 29 0 77 7 105 15 61 18 68 18 64 -5 -2 -10 4 -20 12 -23 22 -9
124 20 172 48 42 25 104 88 104 105 0 17 39 11 90 -15 28 -14 50 -27 50 -29 0
-2 -5 -17 -11 -34 -17 -48 3 -100 60 -156 49 -48 50 -50 30 -64 -15 -11 -24
-11 -32 -3 -14 14 -128 14 -201 0 -31 -7 -59 -9 -62 -6 -6 6 85 97 129 129 58
42 18 50 -87 17 -105 -32 -208 -144 -116 -125 26 5 28 3 26 -26 -1 -30 3 -34
54 -57 59 -25 80 -29 138 -22 59 7 62 6 56 -12 -6 -18 -3 -19 30 -14 31 5 38
3 47 -16 25 -52 109 -79 175 -54 17 6 32 -2 73 -39 28 -25 51 -51 51 -57 0 -6
-12 -24 -27 -39 -24 -25 -25 -30 -13 -43 13 -12 23 -9 74 26 32 21 66 39 76
39 73 0 232 24 273 42 41 18 48 24 43 43 -5 18 0 25 24 35 32 13 90 73 90 92
0 6 12 35 26 64 35 72 31 88 -28 92 -26 2 -62 -4 -83 -12 -20 -9 -48 -13 -65
-10 -23 5 -34 1 -54 -21 -14 -15 -51 -39 -83 -54 -65 -31 -144 -110 -183 -184
-14 -26 -29 -47 -35 -47 -14 0 -129 129 -149 167 -9 18 -36 46 -61 63 -57 39
-79 72 -71 105 4 14 2 44 -4 66 -12 43 -73 119 -96 119 -8 0 -14 8 -14 19 0
10 -7 34 -15 54 -13 32 -13 39 4 79 23 52 35 151 23 193 -5 20 -16 31 -30 33
-18 3 -22 10 -22 37 0 19 -5 46 -11 61 -5 16 -7 45 -4 66 7 38 7 39 43 31 21
-4 52 -6 70 -5 50 3 130 -46 102 -63 -19 -12 -40 -76 -40 -122 0 -37 -4 -46
-21 -50 -18 -5 -20 -11 -16 -52 3 -25 9 -62 13 -81 7 -38 60 -126 88 -149 10
-8 24 -27 32 -43 19 -37 38 -37 31 2 -4 16 -3 32 2 34 11 7 46 97 62 156 l12
45 12 -34 c13 -39 29 -49 50 -31 17 14 35 5 35 -19 0 -9 6 -25 13 -35 11 -15
17 -16 33 -6 11 7 26 27 34 44 33 76 105 183 172 256 40 44 75 90 78 102 8 31
30 35 30 5 0 -62 106 -193 188 -234 37 -18 49 -32 78 -91 39 -80 70 -114 80
-89 3 9 -6 31 -22 52 -28 38 -30 51 -19 156 6 51 3 88 -15 169 -25 117 -24
227 4 293 8 21 43 65 76 98 50 49 61 65 58 88 -2 20 7 39 29 64 18 21 35 53
38 74 4 21 11 51 17 66 6 15 8 30 5 33 -3 4 -36 8 -72 10 -57 4 -72 1 -110
-22 -83 -48 -115 -107 -115 -209 0 -29 9 -69 21 -95 17 -38 20 -56 14 -115 -3
-38 -10 -86 -14 -105 l-7 -34 -23 63 c-20 55 -21 68 -11 111 15 62 1 117 -49
187 -59 83 -160 154 -188 131 -9 -7 -8 -19 2 -49 25 -69 98 -201 148 -268 59
-78 124 -240 160 -400 10 -41 -10 -9 -28 47 -23 73 -71 140 -129 181 -40 29
-51 33 -67 23 -10 -7 -21 -12 -23 -12 -2 0 -4 30 -3 68 2 59 -3 77 -35 145
-37 78 -57 93 -77 60 -9 -16 -12 -16 -21 -3 -5 8 -10 23 -10 33 0 39 -85 182
-140 237 -65 64 -229 159 -290 167 -39 6 -40 5 -40 -25 0 -34 14 -73 43 -115
16 -23 17 -30 6 -43 -11 -14 -8 -21 26 -53 22 -20 51 -44 65 -53 l25 -17 -37
0 c-58 -1 -52 -19 45 -131 47 -55 74 -70 110 -63 22 5 27 2 27 -15 0 -21 12
-27 110 -50 26 -6 35 -14 33 -28 -4 -52 -36 -200 -44 -209 -5 -5 -9 -25 -9
-45 0 -37 -23 -109 -57 -174 l-20 -40 -17 31 c-15 31 -15 34 16 93 24 48 29
66 21 79 -6 9 -8 40 -5 69 4 48 3 52 -17 52 -15 0 -21 6 -21 20 0 12 -7 35
-16 53 -19 38 -123 147 -141 147 -43 0 -45 -120 -3 -208 l30 -64 -32 7 -31 7
6 -38 c4 -21 20 -57 37 -80 24 -34 30 -52 30 -94 0 -41 -3 -51 -14 -47 -10 4
-16 -5 -21 -29 -9 -48 -21 -35 -28 29 -7 72 -47 149 -117 224 -45 48 -62 75
-75 120 -45 155 -146 271 -295 342 -93 44 -148 111 -90 111 20 0 70 54 70 76
0 19 -24 18 -63 -3 -18 -9 -48 -19 -67 -22 -31 -6 -36 -11 -40 -40 -3 -19 -10
-36 -16 -38 -15 -5 -24 29 -24 89 0 44 2 48 34 63 81 39 94 80 92 304 -1 128
-8 148 -38 114z"/>
<path d="M1390 4271 c-84 -17 -261 -144 -299 -214 -29 -55 25 -69 127 -34 27
9 35 9 42 -2 7 -12 15 -12 53 3 25 9 51 24 58 32 8 10 15 11 25 3 19 -15 63
17 82 61 l16 35 6 -45 c7 -54 21 -82 56 -109 22 -18 24 -23 14 -36 -11 -13 -8
-21 16 -46 36 -37 115 -76 174 -85 25 -4 56 -15 69 -26 25 -19 51 -24 51 -10
0 5 -13 21 -29 36 -23 22 -29 38 -34 87 -7 75 -46 157 -95 200 -20 18 -64 45
-98 60 -35 16 -63 36 -66 46 -4 17 -97 55 -124 52 -5 -1 -25 -4 -44 -8z"/>
<path d="M3972 4258 c-94 -16 -205 -97 -249 -183 -15 -27 -55 -82 -115 -158
-20 -24 -20 -29 -7 -42 14 -14 27 -13 122 10 59 14 119 25 134 25 49 0 203 83
203 110 0 4 -14 11 -31 15 -36 8 -29 17 27 33 48 14 130 89 140 128 9 33 -15
54 -61 54 -18 0 -35 3 -39 7 -9 10 -72 10 -124 1z"/>
<path d="M890 4166 c0 -14 5 -28 10 -31 6 -3 10 -24 10 -46 l0 -39 -25 16
c-13 8 -29 13 -35 9 -5 -3 -10 -38 -10 -77 0 -61 4 -76 26 -105 21 -27 23 -37
14 -49 -18 -21 22 -76 115 -160 46 -42 86 -88 101 -117 36 -69 48 -57 52 47 5
140 -9 173 -139 343 -38 51 -48 74 -63 147 -15 71 -22 86 -37 86 -13 0 -19 -7
-19 -24z"/>
<path d="M3172 4093 c-5 -10 -14 -39 -21 -65 -6 -26 -20 -62 -31 -81 -11 -18
-23 -61 -26 -95 -4 -34 -11 -62 -17 -62 -14 0 0 -75 23 -128 11 -24 34 -62 52
-84 18 -23 40 -64 48 -91 26 -84 51 -69 31 18 -5 22 -1 43 15 75 31 66 76 199
69 210 -3 5 -12 7 -20 3 -18 -6 -18 -7 0 42 18 51 19 75 2 75 -9 0 -18 23 -25
61 -15 81 -41 133 -69 137 -13 2 -25 -4 -31 -15z"/>
<path d="M4522 4083 c-25 -10 -63 -85 -79 -156 -9 -40 -22 -76 -29 -80 -8 -4
-14 -15 -14 -23 0 -13 24 -85 45 -137 6 -15 4 -17 -19 -11 -14 3 -26 3 -26 0
0 -15 41 -85 66 -116 26 -30 27 -34 13 -59 -13 -24 -22 -26 -89 -31 -88 -6
-110 -17 -139 -65 -27 -47 -27 -51 11 -69 40 -21 102 -20 133 0 22 14 115 134
115 148 0 3 22 34 50 71 48 64 63 98 76 182 5 33 3 44 -9 48 -8 4 -13 14 -10
25 3 10 -7 53 -21 95 -14 43 -26 96 -26 119 0 23 -5 47 -12 54 -13 13 -16 13
-36 5z"/>
<path d="M214 4059 c-10 -16 5 -146 23 -197 11 -34 12 -47 3 -52 -42 -26 102
-207 200 -251 28 -13 62 -38 76 -57 33 -42 57 -29 26 15 -15 20 -21 50 -25
109 -3 53 -13 99 -27 130 l-21 49 -18 -24 -18 -24 -6 39 c-11 63 -60 155 -116
217 -51 55 -82 70 -97 46z"/>
<path d="M5100 4003 c-32 -11 -93 -80 -117 -133 -16 -33 -28 -76 -29 -110 -2
-30 -3 -58 -4 -61 0 -10 -69 -44 -75 -37 -4 3 0 19 8 35 17 33 27 116 17 133
-11 18 -25 6 -88 -77 -31 -42 -65 -86 -75 -99 -10 -12 -23 -40 -30 -61 -11
-31 -28 -48 -93 -91 -58 -39 -86 -65 -106 -100 -33 -56 -34 -62 -9 -62 10 0
35 -7 54 -15 20 -8 61 -15 90 -15 30 0 74 7 97 15 54 19 94 19 109 1 39 -46
121 -20 209 65 56 55 68 87 30 74 -13 -4 -55 -6 -95 -5 -76 1 -144 -20 -172
-53 -20 -25 -39 -21 -79 14 -19 17 -49 37 -66 44 l-30 13 35 21 c20 13 42 19
54 16 82 -25 165 -7 165 34 0 11 18 33 42 50 33 25 49 30 73 25 19 -3 47 1 68
10 l37 15 0 180 c0 100 -1 181 -2 180 -2 0 -10 -3 -18 -6z"/>
<path d="M4303 3891 c-97 -70 -156 -167 -157 -256 0 -66 47 -235 66 -235 10 0
7 49 -7 96 -5 17 5 32 45 70 56 53 90 109 90 148 0 14 5 37 11 53 6 15 13 56
16 91 6 73 -3 78 -64 33z"/>
<path d="M2854 3858 c-8 -12 -24 -88 -26 -118 0 -8 4 -40 9 -70 12 -69 8 -83
-17 -70 -59 32 -2 -152 79 -254 50 -62 43 -81 -50 -154 -60 -47 -86 -74 -101
-108 -24 -55 -26 -133 -5 -191 15 -43 14 -43 -19 -90 -19 -27 -34 -51 -34 -55
0 -21 30 -3 63 37 30 36 49 48 95 61 111 31 183 91 242 199 18 33 39 69 46 80
18 26 18 45 -1 45 -21 0 -19 6 14 48 61 76 79 170 33 165 -27 -3 -146 -58
-184 -84 -54 -38 -52 -12 6 73 31 47 45 80 50 117 8 61 2 75 -25 61 -22 -12
-24 -4 -8 37 8 22 7 30 -5 39 -9 6 -16 22 -16 35 0 27 -49 135 -81 180 -21 30
-52 38 -65 17z"/>
<path d="M3955 3737 c-59 -23 -113 -57 -141 -87 -16 -16 -34 -30 -40 -30 -6 0
-36 -26 -67 -58 -51 -55 -67 -85 -79 -157 -2 -13 -20 -26 -53 -38 -28 -11 -75
-32 -106 -47 l-57 -28 -5 34 c-3 19 -19 63 -36 97 -16 34 -34 74 -40 90 -12
31 -36 35 -50 9 -18 -35 -41 -153 -41 -216 0 -46 6 -75 24 -109 l23 -47 -48
-31 c-93 -59 -153 -150 -169 -251 -15 -103 -14 -102 -121 -103 -106 -1 -156
-18 -269 -95 -33 -23 -68 -40 -77 -38 -10 2 -24 27 -36 66 l-20 64 26 54 c15
30 27 63 27 74 0 11 4 20 9 20 23 0 64 123 44 132 -5 2 -16 28 -27 58 -10 30
-27 67 -37 82 -28 39 -24 53 26 85 54 34 64 53 29 53 l-26 0 31 35 c42 48 60
86 68 140 5 41 4 45 -15 45 -19 0 -20 3 -12 26 7 18 7 39 -1 67 -14 53 -26 67
-56 67 -19 0 -34 -16 -73 -77 -28 -43 -50 -85 -50 -94 0 -12 -7 -15 -23 -12
-21 4 -25 -2 -40 -47 -9 -29 -17 -70 -17 -92 0 -36 -2 -39 -22 -33 -21 7 -21
6 -15 -63 5 -50 2 -91 -9 -139 -22 -93 -15 -183 18 -256 29 -61 26 -62 -35
-14 -45 35 -135 80 -146 72 -5 -3 -5 -23 0 -46 30 -131 148 -246 267 -262 23
-3 54 -13 68 -22 30 -19 24 -30 -41 -75 l-42 -29 -53 26 c-66 31 -152 30 -218
-5 -23 -12 -46 -22 -51 -22 -5 0 -10 33 -13 73 -5 73 -23 123 -61 164 -14 16
-24 20 -36 13 -13 -7 -23 -1 -44 25 -25 32 -158 130 -218 161 -51 26 -62 20
-55 -28 13 -84 38 -140 82 -184 24 -24 39 -46 33 -49 -45 -29 95 -157 187
-171 25 -3 54 -14 66 -24 l22 -17 -42 -40 c-39 -37 -52 -70 -35 -86 8 -8 47
15 84 50 26 24 28 24 57 9 17 -9 42 -16 57 -16 54 0 16 -53 -47 -64 -49 -9
-125 -61 -163 -112 -16 -22 -39 -53 -50 -68 -14 -19 -37 -31 -80 -42 -33 -9
-68 -20 -79 -26 -16 -9 -17 -12 -3 -25 11 -11 19 -12 35 -4 11 6 41 15 67 21
40 9 57 8 106 -10 33 -11 72 -20 88 -20 54 0 158 40 235 90 42 27 99 57 127
66 92 30 77 62 -47 100 -86 27 -100 38 -63 49 12 4 63 46 114 94 51 48 113 98
138 111 l45 24 54 -41 c78 -59 130 -82 198 -90 65 -6 76 3 38 31 l-23 17 30
-6 c99 -19 124 -18 163 8 20 14 54 30 74 37 44 13 100 73 91 96 -5 13 -142 88
-196 107 -22 8 0 18 64 28 72 12 150 47 194 89 17 16 54 38 83 49 29 11 69 32
89 47 28 21 34 31 30 53 -5 22 2 31 44 60 58 40 181 167 204 211 9 18 14 38
11 46 -7 19 -61 18 -91 -2 l-25 -16 0 39 c0 38 2 40 42 54 23 7 53 23 67 34
15 11 35 25 46 31 11 6 27 24 35 40 8 15 20 34 26 41 26 27 105 186 100 199
-6 16 -11 16 -51 1z"/>
<path d="M14 3708 c33 -47 37 -58 23 -58 -7 0 -19 6 -25 12 -10 10 -12 -7 -10
-82 l3 -95 64 -9 c49 -6 86 -4 151 9 l87 16 56 -27 c91 -45 88 -6 -2 41 -25
13 -66 47 -89 75 -53 62 -107 97 -185 122 -82 25 -94 24 -73 -4z"/>
<path d="M2330 3594 c-23 -21 -53 -57 -66 -81 -22 -36 -29 -42 -50 -37 -22 6
-24 3 -24 -29 0 -23 -6 -37 -16 -41 -14 -5 -16 -18 -12 -79 5 -82 20 -114 76
-174 22 -24 43 -56 47 -73 5 -21 12 -30 27 -30 18 0 19 4 12 43 -11 61 -10 68
35 217 42 136 47 177 22 172 -10 -2 -12 4 -7 23 14 57 18 113 8 119 -6 4 -30
-10 -52 -30z"/>
<path d="M4001 3573 c-12 -27 -31 -64 -42 -83 -14 -24 -19 -47 -15 -72 4 -40
-2 -46 -22 -26 -35 35 -36 -56 -2 -173 15 -50 20 -104 22 -220 3 -150 2 -155
-24 -204 -24 -47 -70 -86 -84 -72 -3 3 3 19 15 35 25 35 26 48 6 56 -12 4 -12
11 5 48 26 58 26 81 0 73 -22 -7 -28 13 -9 32 15 15 23 162 10 196 -6 15 -17
27 -26 27 -22 0 -118 -122 -160 -205 -31 -60 -37 -81 -33 -119 3 -44 2 -47
-19 -41 -19 4 -23 0 -29 -31 -13 -70 2 -180 35 -251 17 -36 31 -76 31 -90 0
-35 -58 -140 -90 -163 -15 -11 -47 -45 -70 -77 -24 -32 -47 -62 -51 -67 -4 -4
-39 26 -78 67 -73 76 -158 127 -223 132 -15 1 -36 9 -46 17 -28 25 -59 38 -88
38 -25 0 -26 -2 -21 -40 3 -25 1 -41 -7 -43 -24 -9 12 -47 58 -61 14 -5 16 -9
7 -20 -9 -11 -6 -21 14 -44 52 -61 182 -106 283 -96 66 7 69 5 50 -29 -6 -12
-18 -51 -25 -87 -10 -49 -20 -70 -41 -87 -21 -17 -24 -24 -15 -34 9 -9 15 -9
27 0 11 9 23 8 55 -5 49 -19 105 -9 185 34 97 53 215 248 162 268 -11 4 -11
14 2 58 18 67 3 109 -41 114 -41 5 -33 29 18 53 42 20 84 56 117 101 12 16 17
16 53 3 54 -19 104 -19 112 1 4 11 13 13 35 9 16 -4 34 -2 41 3 7 5 36 12 65
14 50 5 101 30 109 54 2 6 -19 21 -46 33 -27 13 -62 34 -77 48 -46 39 -83 55
-146 61 -32 2 -61 9 -64 14 -4 5 3 19 13 31 38 43 62 93 83 177 11 47 34 107
51 133 29 48 30 67 5 67 -19 0 -40 -35 -62 -103 -11 -31 -22 -57 -25 -57 -10
0 -19 57 -19 118 0 50 4 60 49 121 72 97 113 209 73 199 -15 -4 -17 4 -17 76
0 100 -9 136 -34 136 -12 0 -26 -16 -40 -47z"/>
<path d="M5091 3517 c-12 -15 -5 -27 16 -27 7 0 13 9 13 20 0 23 -13 26 -29 7z"/>
<path d="M0 3407 c0 -21 22 -80 54 -148 30 -62 52 -117 49 -122 -2 -4 -25 11
-51 34 l-47 41 -3 -61 c-3 -54 1 -69 34 -132 26 -50 49 -78 76 -95 32 -21 78
-86 78 -112 0 -9 -54 -31 -115 -47 -26 -6 -41 -16 -43 -29 -4 -17 1 -18 40
-12 33 5 61 0 117 -19 114 -38 175 -31 255 30 25 19 41 24 60 19 21 -5 26 -3
26 14 0 11 -6 25 -14 31 -32 26 -26 112 14 198 26 56 26 83 0 83 -25 0 -25 2
0 50 24 48 25 70 4 70 -15 0 -16 10 -10 83 8 104 1 150 -23 137 -60 -31 -151
-159 -151 -210 0 -14 -7 -20 -21 -20 -21 0 -21 -4 -17 -82 6 -100 33 -160 103
-228 48 -46 83 -100 66 -100 -5 0 -32 14 -59 31 -52 32 -116 42 -175 26 -24
-7 -29 -4 -44 28 -16 34 -16 37 10 100 15 35 30 83 33 104 9 57 -4 148 -25
169 -9 9 -29 36 -43 58 -29 45 -93 101 -145 128 l-33 17 0 -34z"/>
<path d="M570 3374 c-34 -78 -20 -144 35 -174 26 -14 29 -13 51 13 26 31 30
60 13 104 -13 36 -59 103 -71 103 -5 0 -18 -21 -28 -46z"/>
<path d="M4730 3268 c-97 -36 -168 -104 -206 -194 -11 -26 -26 -40 -60 -54
-34 -15 -49 -28 -60 -56 -29 -68 2 -144 58 -144 15 0 28 -5 28 -11 0 -24 45
-3 55 26 5 17 15 33 22 38 6 4 21 36 33 72 19 57 29 70 86 116 35 29 73 66 84
83 11 17 32 47 45 66 52 70 15 96 -85 58z"/>
<path d="M4379 3256 c-105 -43 -219 -137 -259 -216 -12 -23 -24 -65 -27 -93
-4 -36 -16 -66 -38 -97 -31 -43 -65 -103 -65 -115 0 -3 6 -5 14 -5 7 0 34 31
59 69 41 61 49 69 85 75 30 4 55 19 94 55 51 47 52 50 34 64 -19 14 -19 15 8
32 15 10 39 39 53 64 15 25 49 71 75 100 52 60 54 64 35 79 -9 8 -28 5 -68
-12z"/>
<path d="M4988 3263 c-9 -10 -23 -34 -33 -53 -10 -19 -31 -46 -48 -60 -42 -37
-50 -115 -16 -176 13 -24 21 -46 18 -49 -3 -3 -20 2 -38 11 -45 22 -62 13 -51
-26 5 -18 14 -38 20 -46 7 -7 8 -19 4 -26 -19 -31 8 -113 62 -185 14 -18 33
-51 43 -75 24 -54 83 -113 106 -104 15 5 16 17 10 89 -7 81 -6 85 24 134 25
41 31 61 31 107 0 31 -3 56 -7 56 -4 0 -26 -19 -50 -42 -57 -55 -68 -32 -20
43 86 135 95 188 53 303 -40 112 -72 140 -108 99z"/>
<path d="M1608 2762 c-37 -38 -60 -70 -64 -91 -4 -20 -17 -37 -35 -48 -54 -32
-44 -66 11 -38 17 9 40 13 51 10 31 -10 87 14 110 46 39 55 37 179 -4 179 -6
0 -36 -26 -69 -58z"/>
<path d="M4212 2778 c-16 -16 13 -48 45 -48 36 0 101 -37 168 -95 33 -28 70
-57 83 -64 16 -9 21 -18 17 -31 -3 -11 -1 -28 5 -39 15 -28 80 -71 107 -71 24
0 31 -14 13 -25 -31 -19 28 -55 90 -55 22 0 58 -9 80 -20 22 -11 44 -20 50
-20 13 0 13 94 -1 143 -17 62 -153 247 -181 247 -4 0 -8 -19 -8 -41 l0 -42
-44 41 c-51 47 -82 65 -97 57 -5 -4 -42 7 -82 24 -63 26 -168 51 -217 51 -9 0
-21 -5 -28 -12z"/>
<path d="M1372 2713 c-5 -10 -15 -49 -22 -88 -7 -38 -18 -79 -23 -90 -6 -11
-11 -22 -10 -25 15 -83 15 -80 -9 -77 -20 2 -23 -2 -19 -28 4 -36 33 -96 55
-114 9 -8 16 -22 16 -33 0 -26 31 -20 46 10 6 12 20 33 32 45 50 55 82 137 48
124 -12 -5 -14 3 -9 43 4 35 1 59 -11 84 -9 19 -16 41 -16 50 0 22 -34 89 -54
105 -12 10 -16 9 -24 -6z"/>
<path d="M3333 2718 c-10 -13 -31 -84 -37 -128 -2 -14 -7 -41 -11 -62 -6 -29
-3 -41 14 -59 23 -25 27 -40 10 -36 -20 4 -20 -17 0 -49 12 -20 40 -42 75 -58
31 -15 56 -31 56 -37 0 -6 12 -9 28 -7 24 3 28 8 32 48 3 25 12 55 18 68 16
28 12 144 -5 149 -6 3 -20 -11 -30 -29 l-17 -33 -6 60 c-7 69 -18 91 -67 146
-38 42 -45 45 -60 27z"/>
<path d="M136 2602 c-7 -11 36 -126 79 -213 52 -103 32 -105 -47 -6 -21 27
-67 81 -103 120 l-65 71 0 -153 0 -154 68 6 c37 3 79 11 93 17 21 9 32 7 72
-15 43 -25 121 -97 140 -130 9 -16 33 -20 41 -7 2 4 -19 38 -48 74 -62 76
-132 202 -170 305 -27 70 -49 102 -60 85z"/>
<path d="M4325 2590 c-9 -15 4 -50 20 -50 13 0 28 38 19 52 -7 11 -32 10 -39
-2z"/>
<path d="M4285 2474 c-33 -19 -90 -51 -126 -70 -86 -45 -202 -162 -218 -219
-6 -22 -11 -51 -11 -65 0 -18 -20 -45 -70 -94 -38 -37 -70 -74 -70 -82 0 -29
30 -12 90 51 62 63 63 64 106 58 36 -5 56 0 123 32 76 36 101 58 81 70 -15 9
-12 35 4 35 24 0 125 121 157 186 34 72 39 134 11 134 -10 0 -45 -16 -77 -36z"/>
<path d="M325 2470 c-10 -17 71 -177 93 -184 12 -4 22 -17 24 -29 2 -14 26
-37 66 -64 56 -38 71 -43 120 -43 89 0 94 -11 36 -63 -27 -25 -56 -57 -64 -72
-19 -36 -4 -45 81 -45 36 0 69 -4 75 -10 6 -6 22 -6 45 1 30 10 43 8 84 -10
60 -27 83 -26 113 1 l23 23 18 -24 c10 -13 30 -25 44 -26 14 -2 46 -17 71 -34
91 -63 99 -26 20 91 -84 124 -224 193 -377 187 l-82 -4 -20 60 c-16 47 -34 75
-87 129 -53 55 -70 67 -81 58 -10 -9 -22 -6 -50 14 -38 25 -108 54 -133 54 -7
0 -16 -4 -19 -10z"/>
<path d="M2566 2465 c-3 -9 2 -33 11 -53 9 -20 17 -50 18 -66 0 -24 7 -33 40
-50 30 -16 43 -31 54 -62 13 -36 21 -43 72 -64 48 -19 68 -22 118 -16 60 7 61
7 104 -34 44 -40 67 -50 67 -29 0 15 -148 173 -223 237 -57 49 -191 132 -236
147 -12 3 -21 0 -25 -10z"/>
<path d="M3947 2427 c-40 -12 -81 -32 -99 -49 -28 -26 -30 -32 -24 -72 4 -27
3 -47 -4 -51 -16 -10 -12 -45 6 -45 9 0 32 14 51 30 18 17 39 30 46 30 25 0
66 48 95 113 36 78 37 77 -71 44z"/>
<path d="M4980 2433 c1 -22 92 -138 120 -153 19 -10 20 -8 20 70 0 77 -1 81
-26 90 -14 6 -45 10 -70 10 -35 0 -44 -3 -44 -17z"/>
<path d="M4505 2392 c-148 -64 -244 -175 -261 -305 -8 -54 1 -97 20 -97 10 0
15 21 18 78 4 70 8 84 43 137 49 73 139 140 217 162 59 17 72 36 27 40 -13 1
-42 -5 -64 -15z"/>
<path d="M4936 2288 c-25 -35 -19 -118 17 -261 24 -99 29 -131 19 -135 -17 -5
-52 -75 -67 -133 -12 -45 -12 -47 10 -57 17 -8 42 -5 102 12 44 12 85 26 91
30 9 5 12 55 12 170 0 157 -1 164 -21 169 -18 5 -19 9 -9 27 13 24 10 31 -69
137 -25 35 -51 63 -58 63 -6 0 -19 -10 -27 -22z"/>
<path d="M4492 2267 c-75 -24 -151 -133 -169 -244 -5 -28 -2 -33 13 -33 11 0
39 11 63 25 28 16 58 25 88 25 61 0 86 15 79 46 -4 13 -2 24 3 24 9 0 20 -67
27 -178 l5 -73 -25 7 c-24 6 -25 5 -19 -33 3 -21 11 -55 18 -75 12 -35 11 -38
-13 -54 -24 -16 -26 -15 -44 7 -10 13 -28 41 -40 62 -38 66 -51 47 -49 -75 2
-94 0 -108 -14 -108 -21 0 -14 -42 19 -115 33 -72 69 -110 134 -141 31 -14 67
-31 80 -37 33 -16 46 2 37 50 -5 21 -7 48 -6 61 3 25 -41 126 -66 154 -9 10
-25 18 -35 18 -22 0 -35 27 -21 41 7 7 24 3 52 -12 29 -15 51 -20 73 -15 40 8
72 -12 98 -63 21 -43 35 -55 49 -47 5 3 -9 41 -31 85 l-40 78 26 66 c14 36 26
77 26 91 0 26 0 26 -27 9 -26 -18 -27 -17 -18 2 34 79 12 149 -73 238 l-66 68
48 44 c56 51 58 76 6 87 -19 4 -55 11 -80 17 -54 12 -65 12 -108 -2z"/>
<path d="M0 2120 c0 -38 2 -40 20 -30 29 15 24 70 -6 70 -10 0 -14 -13 -14
-40z"/>
<path d="M80 2142 c1 -15 113 -92 144 -97 18 -4 50 1 75 9 24 9 52 16 62 16
37 0 18 29 -33 53 -45 21 -69 25 -150 26 -54 0 -98 -3 -98 -7z"/>
<path d="M2414 2052 c-28 -10 -73 -37 -100 -59 -27 -22 -68 -50 -91 -62 -70
-35 -54 -58 26 -39 47 10 58 9 136 -17 70 -23 96 -27 153 -23 86 6 99 13 76
39 -20 22 -13 23 40 5 51 -18 90 -8 175 43 144 88 138 106 -41 114 -73 4 -176
9 -228 12 -75 4 -105 1 -146 -13z"/>
<path d="M414 2045 c-6 -16 13 -121 28 -148 5 -10 7 -21 5 -24 -3 -2 -37 7
-77 21 -77 28 -105 32 -115 15 -9 -14 23 -48 60 -63 16 -7 62 -42 100 -78 86
-80 107 -92 151 -83 32 5 36 3 61 -38 16 -23 44 -57 63 -75 31 -28 33 -31 14
-32 -12 0 -39 7 -60 17 -45 19 -209 22 -227 4 -6 -6 -21 -11 -34 -11 -34 0
-101 -29 -108 -48 -8 -20 27 -50 97 -82 29 -14 55 -28 59 -32 3 -4 21 -3 39 2
43 12 40 13 40 -5 0 -47 154 18 195 82 30 49 73 46 126 -9 22 -23 47 -54 54
-68 11 -22 55 -143 55 -152 0 -2 -33 -3 -72 -3 -40 0 -86 -3 -103 -8 -28 -7
-31 -5 -47 33 -16 38 -48 64 -55 44 -2 -5 -38 -8 -82 -8 -65 1 -84 6 -110 25
-42 31 -137 37 -217 14 -33 -9 -65 -22 -71 -27 -25 -21 -13 -29 32 -22 25 3
45 4 45 2 0 -3 -27 -24 -60 -47 -89 -63 -126 -122 -85 -137 16 -6 128 34 182
66 27 16 33 17 33 5 0 -32 56 -16 125 35 71 53 82 57 153 62 l43 4 -7 -31 c-7
-35 -30 -81 -43 -90 -21 -12 -33 -108 -22 -169 10 -54 45 -140 72 -177 9 -12
5 -21 -20 -46 -25 -25 -31 -40 -31 -73 0 -84 89 -253 156 -296 36 -24 46 -8
36 57 -10 67 3 170 29 226 22 48 24 75 7 102 -10 16 -7 23 17 43 28 25 28 48
-1 48 -8 0 -32 -9 -54 -20 -22 -11 -41 -20 -44 -20 -9 0 7 75 22 105 8 17 20
52 26 79 12 55 32 70 42 32 3 -13 14 -32 25 -42 10 -9 19 -29 19 -44 0 -16 12
-38 33 -58 36 -35 57 -41 57 -15 0 14 5 12 28 -9 37 -35 69 -50 91 -43 10 3
36 -7 64 -26 26 -17 54 -28 62 -25 27 10 16 49 -44 159 -52 95 -58 110 -48
132 14 28 22 30 57 10 31 -18 96 -19 107 -2 4 6 31 24 58 38 60 31 68 56 28
94 -34 32 -135 85 -163 85 -11 0 -46 9 -77 20 -31 11 -80 23 -107 26 -53 7
-61 13 -156 120 -19 21 -70 66 -113 99 -77 59 -127 117 -127 147 0 14 5 13 39
-5 39 -21 39 -21 61 -2 22 19 22 19 36 0 8 -10 14 -22 14 -25 0 -4 11 -12 25
-18 22 -10 24 -14 13 -32 -8 -12 -9 -23 -3 -29 14 -13 142 -51 170 -51 42 0
37 -20 -9 -40 -25 -10 -46 -24 -46 -30 0 -17 64 -40 165 -60 60 -11 105 -26
130 -43 31 -21 42 -24 66 -15 16 5 42 23 57 39 29 31 48 38 38 14 -8 -23 4
-45 25 -45 11 0 42 20 68 45 26 25 51 45 55 45 3 0 6 -15 6 -32 0 -18 12 -58
26 -88 25 -56 98 -140 120 -140 7 0 16 14 19 31 11 49 25 15 25 -59 0 -46 4
-64 15 -68 22 -9 59 19 94 70 35 51 42 116 15 154 -15 21 -14 22 15 22 25 0
31 4 31 20 0 31 -33 89 -80 143 -81 92 -279 158 -365 122 l-38 -15 24 -26 24
-26 -24 -19 c-13 -10 -29 -19 -36 -19 -7 0 -27 -16 -44 -35 -17 -19 -34 -35
-39 -35 -4 0 -21 13 -36 29 l-28 30 46 60 c25 34 46 63 46 66 0 12 -28 3 -62
-20 -45 -31 -48 -31 -48 -2 -1 51 -74 167 -106 167 -14 0 -24 -23 -24 -56 0
-33 -21 -29 -45 9 -25 39 -70 70 -140 96 -43 16 -68 19 -119 14 -42 -4 -66
-10 -66 -18 0 -7 -14 -15 -30 -19 -38 -7 -48 -31 -25 -56 25 -28 15 -33 -21
-11 -17 10 -47 47 -68 82 -49 83 -147 217 -164 223 -7 3 -15 -1 -18 -9z"/>
<path d="M3141 2009 c-29 -5 -72 -17 -95 -27 -71 -32 -177 -154 -154 -177 7
-7 220 22 253 35 79 30 175 134 148 160 -14 14 -96 19 -152 9z"/>
<path d="M1477 1993 c-13 -12 -7 -40 14 -67 23 -29 18 -46 -14 -46 -12 0 -47
-9 -77 -20 -30 -11 -56 -20 -57 -20 -2 0 -16 -19 -33 -42 -50 -68 -33 -133 27
-110 47 18 81 22 85 12 2 -7 18 -5 43 4 22 8 69 21 105 29 58 13 66 13 76 -1
15 -21 59 -11 159 37 80 39 205 140 205 166 0 17 -43 23 -195 30 -66 2 -158
11 -205 20 -94 16 -123 18 -133 8z"/>
<path d="M0 1875 l0 -105 30 0 c17 0 45 7 63 17 39 19 137 93 137 102 0 6 -81
62 -117 80 -12 6 -42 11 -67 11 l-46 0 0 -105z"/>
<path d="M4035 1968 c-116 -18 -177 -49 -122 -63 15 -4 30 -20 41 -45 26 -59
75 -85 161 -84 42 1 88 8 115 19 25 10 69 21 99 24 68 7 76 25 18 39 -24 6
-52 21 -63 33 -26 29 -106 68 -157 77 -23 4 -64 4 -92 0z"/>
<path d="M2069 1821 c-10 -11 -38 -21 -75 -25 -67 -7 -154 -52 -180 -91 -10
-15 -26 -25 -39 -25 -34 0 -55 -10 -55 -26 0 -10 12 -14 39 -14 27 0 49 -8 75
-29 98 -78 223 -29 300 118 32 63 33 77 1 85 -14 4 -25 11 -25 16 0 16 -23 10
-41 -9z"/>
<path d="M3192 1814 c2 -13 25 -26 78 -44 69 -23 75 -27 78 -55 8 -79 77 -154
166 -180 69 -20 110 -12 102 20 -5 20 -1 23 38 28 52 7 96 26 97 41 0 6 21 29
47 50 50 42 92 92 92 112 0 6 -20 17 -44 23 -74 18 -186 13 -298 -14 -129 -31
-156 -31 -243 1 -105 38 -118 40 -113 18z"/>
<path d="M2364 1805 c-8 -20 74 -122 104 -130 19 -5 22 -9 13 -18 -21 -21 -11
-36 52 -71 82 -46 113 -53 136 -31 18 15 20 15 25 -3 4 -11 25 -27 50 -36 24
-9 52 -26 61 -36 22 -24 45 -26 45 -5 0 23 -47 112 -88 169 -20 27 -63 66 -96
88 -103 67 -288 112 -302 73z"/>
<path d="M235 1782 c-44 -15 -102 -52 -134 -86 -19 -20 -43 -36 -52 -36 -48 0
-49 -3 -49 -166 l0 -153 47 17 c54 20 141 94 149 128 3 13 22 40 41 59 20 20
33 41 30 49 -3 8 3 22 13 31 23 21 63 118 58 142 -2 13 -13 18 -43 20 -22 1
-49 -2 -60 -5z"/>
<path d="M3077 1726 c-3 -7 -2 -30 3 -49 4 -20 6 -65 3 -99 -5 -62 -4 -66 57
-183 34 -66 72 -131 86 -146 32 -34 32 -51 -1 -39 -13 5 -26 6 -29 1 -10 -15
61 -101 148 -179 46 -41 47 -74 6 -170 -35 -82 -38 -115 -13 -110 11 2 29 32
48 78 18 41 64 129 104 195 114 191 198 362 183 377 -8 8 -15 8 -21 3 -5 -6
-51 -91 -101 -190 -102 -197 -98 -190 -105 -183 -3 3 2 24 10 48 17 49 19 164
4 230 -5 25 -31 87 -57 138 -41 81 -50 92 -69 87 -16 -4 -26 2 -42 28 -21 33
-105 118 -155 155 -33 25 -52 28 -59 8z"/>
<path d="M4050 1683 c-63 -22 -143 -77 -188 -129 -25 -29 -55 -51 -87 -63 -35
-13 -51 -25 -53 -40 -4 -24 17 -28 50 -10 23 12 130 15 148 4 8 -5 0 -19 -23
-44 -64 -66 -87 -123 -87 -217 0 -49 4 -86 11 -90 6 -3 23 6 38 20 15 14 35
26 45 26 9 0 26 5 38 11 33 18 34 1 1 -34 -40 -42 -53 -68 -53 -107 0 -37 29
-161 41 -174 10 -12 70 52 95 102 11 20 25 43 32 50 15 17 16 86 1 115 -7 12
-25 38 -40 58 -43 54 -39 63 25 56 78 -8 126 -37 218 -133 117 -120 116 -126
-14 -69 -79 35 -98 37 -98 9 0 -23 38 -91 59 -106 10 -7 26 -29 34 -48 20 -46
162 -196 171 -181 4 6 4 31 0 56 -6 45 3 58 24 32 6 -7 33 -24 61 -37 48 -24
51 -27 52 -65 3 -85 -3 -132 -27 -184 -40 -88 -32 -101 42 -67 59 28 138 110
166 173 13 29 21 68 21 101 0 44 -5 60 -32 95 -17 23 -40 61 -51 84 -50 110
-83 173 -91 173 -4 0 -13 9 -19 21 -11 20 -10 20 34 14 29 -5 61 -2 93 8 26 8
125 27 218 42 232 36 215 31 215 61 0 20 -3 24 -13 16 -15 -13 -241 -43 -319
-43 -70 0 -111 14 -276 91 -158 74 -203 78 -291 29 -48 -27 -65 -32 -120 -31
-91 2 -95 12 -33 75 58 58 64 77 27 77 -38 0 -31 29 11 46 71 30 204 173 204
221 0 23 -1 23 -107 23 -71 -1 -123 -6 -153 -17z m442 -745 c12 -12 17 -23 11
-25 -11 -4 -103 33 -103 42 0 16 72 3 92 -17z m91 -8 c27 -31 43 -68 34 -77
-3 -3 -22 8 -41 24 -26 20 -36 36 -36 56 0 35 12 34 43 -3z"/>
<path d="M2949 1670 c-10 -7 -15 -39 -17 -114 -3 -83 -7 -106 -18 -106 -12 0
-13 -13 -8 -67 7 -63 6 -67 -9 -54 -15 12 -17 9 -17 -35 1 -27 7 -67 15 -89
22 -61 19 -73 -20 -84 -44 -12 -125 -58 -125 -71 0 -11 -80 -64 -87 -57 -2 3
15 41 38 85 34 65 42 92 47 151 4 67 3 73 -17 78 -13 3 -21 14 -21 27 -1 41
-45 105 -105 151 -126 98 -149 93 -131 -31 2 -17 18 -56 35 -86 17 -30 31 -58
31 -61 0 -4 -13 -4 -30 0 -47 9 -41 -22 22 -109 7 -9 10 -19 8 -22 -3 -2 -37
3 -75 12 -40 10 -110 17 -165 17 -113 -1 -171 -20 -284 -96 -62 -42 -83 -51
-137 -57 -49 -5 -65 -11 -67 -24 -3 -16 6 -18 80 -18 77 0 89 -3 162 -40 71
-36 86 -40 150 -39 109 1 195 35 137 54 -40 12 -20 23 32 18 62 -6 119 17 178
74 41 39 50 35 68 -35 10 -36 9 -48 -8 -88 -11 -25 -29 -57 -41 -71 -25 -32
-26 -53 -2 -53 12 0 25 14 36 39 44 95 143 151 219 122 33 -13 95 2 121 29 20
21 20 22 3 33 -53 34 -54 35 -32 52 11 8 41 26 66 40 59 31 92 70 119 141 29
79 13 118 -32 77 -21 -18 -22 -12 -8 38 14 51 -11 181 -46 230 -29 42 -44 51
-65 39z"/>
<path d="M5053 1653 c-83 -16 -198 -65 -198 -83 0 -7 14 -17 30 -21 17 -4 43
-10 58 -13 15 -4 49 -28 75 -55 43 -44 87 -70 98 -58 3 2 3 58 2 124 l-3 119
-62 -13z"/>
<path d="M2284 1625 c-27 -13 -67 -41 -88 -60 -29 -27 -42 -33 -52 -24 -19 15
-41 0 -111 -74 -57 -62 -83 -115 -83 -173 0 -9 -15 -34 -34 -54 -19 -21 -39
-48 -46 -59 -19 -37 21 -25 62 18 37 39 37 40 110 39 88 -2 143 20 206 80 40
40 54 72 32 72 -18 0 -10 18 23 51 23 24 41 57 56 107 34 108 19 124 -75 77z"/>
<path d="M4798 1443 c-32 -2 -58 -8 -58 -14 0 -19 82 -121 113 -140 41 -24 60
-24 107 2 33 19 43 20 71 10 46 -16 89 -14 89 4 0 8 -5 15 -11 15 -26 0 -109
44 -114 61 -8 24 -62 56 -105 61 -19 2 -61 3 -92 1z"/>
<path d="M670 1360 c0 -13 7 -20 20 -20 13 0 20 7 20 20 0 13 -7 20 -20 20
-13 0 -20 -7 -20 -20z"/>
<path d="M1410 1303 c0 -10 7 -39 14 -65 19 -60 24 -190 8 -196 -21 -7 -12
-65 18 -127 42 -86 37 -135 -16 -155 -25 -10 -25 -30 1 -30 8 0 45 27 83 60
83 72 112 128 112 219 0 50 -3 62 -20 71 -11 6 -20 18 -20 26 0 25 -55 88 -94
109 -24 13 -37 28 -42 50 -10 48 -44 77 -44 38z"/>
<path d="M3668 1208 c-9 -7 -28 -60 -43 -118 -22 -88 -31 -107 -51 -117 -13
-6 -33 -9 -43 -6 -16 4 -21 -2 -26 -31 -9 -47 3 -140 23 -182 13 -29 14 -37 2
-60 -8 -14 -15 -22 -16 -17 -1 4 -5 20 -8 36 -10 43 -44 35 -101 -23 -27 -27
-57 -50 -66 -50 -21 0 -60 -45 -79 -89 -7 -18 -18 -30 -25 -27 -16 6 -51 -19
-66 -45 -25 -47 -50 -174 -44 -219 7 -48 4 -53 -81 -159 -2 -2 -32 15 -66 37
-79 51 -156 77 -288 97 -122 18 -182 18 -230 2 -43 -15 -47 -33 -18 -77 17
-24 35 -37 65 -45 30 -7 48 -20 65 -45 13 -19 37 -39 53 -44 17 -4 38 -12 47
-17 10 -5 122 -9 250 -9 l233 1 -27 20 c-14 11 -37 28 -50 39 l-23 19 21 15
c11 8 33 33 48 55 21 30 39 44 70 52 57 15 84 31 149 83 32 27 69 70 88 103
29 50 31 58 17 67 -14 8 -12 13 13 37 23 21 29 36 29 67 0 50 15 92 33 92 8 0
22 9 32 20 10 12 37 29 59 39 51 22 111 87 142 155 28 59 30 82 9 90 -12 4
-13 11 -5 31 23 60 0 165 -47 217 -19 21 -24 22 -45 6z"/>
<path d="M0 980 l0 -110 31 0 c17 0 73 22 127 50 82 43 108 51 167 56 68 4 70
-6 4 -20 -72 -15 -125 -97 -141 -220 -16 -118 -7 -125 73 -55 154 135 175 169
151 246 -14 46 -7 60 36 74 51 16 82 37 82 54 0 22 -21 18 -73 -10 -70 -40
-129 -42 -233 -10 -249 76 -224 82 -224 -55z"/>
<path d="M4929 1071 c-30 -10 -88 -33 -128 -51 -59 -27 -71 -37 -69 -54 2 -15
16 -25 48 -35 63 -20 94 -34 103 -48 11 -18 63 -16 127 3 49 15 55 15 66 0 6
-9 19 -16 28 -16 14 0 16 15 16 110 l0 110 -67 -1 c-38 0 -93 -8 -124 -18z"/>
<path d="M2982 1003 c-63 -94 -83 -131 -103 -186 -21 -57 -25 -159 -9 -203 9
-23 7 -31 -11 -51 -36 -37 -52 -31 -34 13 8 20 15 48 15 61 0 24 -2 25 -37 18
-55 -10 -154 -57 -194 -93 -20 -17 -47 -52 -60 -77 -13 -25 -27 -45 -30 -45
-4 0 -20 7 -35 15 -16 8 -36 15 -44 15 -8 0 -28 7 -44 15 -34 18 -63 20 -176
11 -96 -8 -156 -21 -166 -38 -4 -7 5 -20 21 -32 15 -12 48 -42 74 -68 76 -77
183 -120 267 -108 54 8 119 34 147 58 16 14 22 14 65 -8 70 -34 171 -38 259
-11 206 65 214 114 29 172 -39 12 -75 25 -79 29 -14 12 76 60 113 60 44 0 139
36 176 66 27 22 28 25 12 38 -24 18 -23 22 10 35 53 22 128 146 139 232 5 36
4 39 -19 39 -23 0 -116 -58 -165 -102 -21 -19 -21 -19 -27 -1 -3 11 -7 50 -7
88 -2 130 -27 147 -87 58z"/>
<path d="M1720 944 c0 -8 18 -34 41 -57 22 -23 50 -52 61 -64 26 -27 99 -46
146 -37 62 11 193 65 189 78 -2 6 -28 15 -58 20 -30 4 -65 16 -79 25 -52 35
-87 43 -192 46 -88 2 -108 0 -108 -11z"/>
<path d="M4150 873 c-8 -3 -33 -19 -56 -34 -22 -15 -79 -46 -125 -69 -98 -48
-133 -79 -200 -177 -64 -94 -85 -113 -196 -179 -51 -30 -93 -59 -93 -64 0 -33
53 -9 224 102 50 32 68 38 112 38 84 0 188 40 164 64 -21 21 -10 31 33 28 52
-4 88 17 69 41 -11 13 -10 16 7 22 51 16 111 128 111 207 0 28 -14 34 -50 21z"/>
<path d="M4837 810 c-32 -4 -63 -12 -68 -17 -20 -20 21 -91 83 -143 50 -41 62
-48 82 -40 20 7 27 4 46 -22 25 -34 100 -71 124 -62 13 5 16 25 16 123 l0 116
-57 23 c-68 26 -145 34 -226 22z"/>
<path d="M870 766 c0 -41 82 -171 132 -209 73 -56 133 -68 208 -42 38 13 48
13 93 0 31 -9 55 -11 60 -6 12 12 0 31 -21 31 -49 0 -93 22 -106 53 -22 51
-79 100 -120 102 -20 1 -47 10 -60 19 -14 9 -34 16 -45 16 -11 0 -40 16 -65
35 -59 45 -76 45 -76 1z"/>
<path d="M1634 786 c-56 -18 -103 -55 -138 -110 -27 -43 -80 -76 -121 -76 -8
0 -15 -7 -15 -15 0 -18 37 -20 77 -3 15 6 69 12 118 12 85 1 94 4 142 34 58
37 127 116 120 135 -6 16 -73 37 -113 36 -16 0 -48 -6 -70 -13z"/>
<path d="M2282 749 c-33 -13 -77 -43 -116 -80 -53 -49 -71 -60 -110 -65 -47
-7 -59 3 -32 25 13 11 56 93 56 107 0 12 -85 -4 -131 -24 -67 -30 -124 -76
-143 -116 -16 -35 -37 -45 -111 -58 -11 -2 -20 -10 -20 -18 0 -11 9 -14 35
-10 47 6 107 4 156 -5 32 -6 49 -3 81 14 23 11 43 26 45 33 7 20 148 23 186 4
48 -25 146 -21 207 8 62 29 255 163 255 177 0 20 -55 29 -178 28 -103 0 -137
-4 -180 -20z"/>
<path d="M2 633 l3 -108 53 -1 c46 -1 59 -6 99 -39 34 -29 47 -35 56 -25 9 9
1 21 -35 53 -27 25 -55 63 -67 91 -25 58 -64 111 -92 126 -19 11 -20 8 -17
-97z"/>
<path d="M440 694 c-78 -73 -94 -106 -94 -190 0 -54 -4 -70 -13 -67 -23 9 -14
-41 15 -88 42 -65 91 -118 126 -136 17 -8 65 -48 106 -89 54 -53 85 -75 110
-80 l35 -7 -19 22 c-11 11 -17 23 -15 25 2 2 31 0 64 -5 53 -9 61 -8 75 9 10
14 32 21 72 25 89 8 158 51 130 79 -5 5 -42 17 -83 28 -41 10 -99 26 -129 34
-78 22 -185 20 -239 -4 -57 -26 -96 -26 -115 1 -13 19 -11 28 30 105 52 99 55
124 19 124 -24 0 -26 2 -19 38 4 20 12 51 19 67 7 17 13 59 13 93 1 55 -1 62
-19 62 -11 0 -42 -21 -69 -46z"/>
<path d="M4244 728 c-4 -6 -9 -47 -10 -91 -2 -45 -8 -83 -12 -86 -5 -3 -12
-33 -15 -66 -16 -155 -26 -236 -32 -245 -14 -22 -36 -8 -64 41 -25 45 -29 59
-24 105 6 58 -9 94 -47 114 -41 22 -90 -12 -90 -63 0 -41 22 -72 64 -92 22
-10 48 -39 77 -85 46 -73 63 -82 95 -51 11 10 36 23 55 30 38 12 81 53 123
116 27 41 36 98 14 90 -10 -4 -13 14 -13 72 0 75 -1 80 -44 145 -46 69 -65 86
-77 66z"/>
<path d="M4810 566 c-25 -76 -9 -250 30 -326 l20 -40 -20 0 c-31 0 -25 -30 20
-94 43 -62 48 -76 25 -76 -8 0 -15 -7 -15 -15 0 -13 20 -15 124 -15 l125 0 -5
69 c-3 60 -34 212 -51 256 -6 18 -30 20 -36 3 -6 -17 -3 -20 -66 102 -52 103
-103 170 -127 170 -7 0 -17 -15 -24 -34z"/>
<path d="M1450 461 c-75 -32 -84 -53 -25 -61 22 -3 63 -17 90 -30 60 -30 142
-33 200 -8 22 9 52 19 68 22 36 8 34 33 -4 41 -17 4 -56 20 -86 36 -75 39
-152 40 -243 0z"/>
<path d="M1297 452 c-13 -13 -21 -13 -42 -4 -59 27 -125 11 -213 -53 -18 -13
-58 -29 -87 -35 -97 -20 -82 -49 46 -86 92 -27 125 -29 184 -13 54 15 115 77
115 117 0 17 4 34 10 37 5 3 14 14 20 25 13 24 -12 34 -33 12z"/>
<path d="M3717 404 c-15 -15 -6 -38 47 -119 70 -107 120 -140 216 -140 73 -1
111 -19 136 -66 11 -23 22 -29 46 -29 18 0 45 -11 65 -26 45 -34 62 -26 29 13
-14 17 -26 33 -26 35 0 2 30 4 68 4 97 0 162 12 162 30 0 11 14 14 60 14 49 0
62 4 72 20 7 11 18 20 24 20 23 0 105 95 136 157 39 79 34 98 -25 89 -52 -8
-238 -92 -321 -145 -34 -21 -80 -48 -103 -60 -23 -11 -66 -42 -94 -67 l-52
-46 -49 49 c-27 26 -61 72 -75 101 -29 61 -88 110 -168 141 -59 22 -137 36
-148 25z"/>
<path d="M2052 359 c-53 -10 -147 -61 -190 -102 -59 -56 -103 -138 -126 -230
l-6 -27 84 0 c47 0 88 5 91 10 4 6 31 26 61 45 67 43 126 129 129 190 1 22 7
53 14 68 23 58 19 61 -57 46z"/>
<path d="M44 346 c-9 -23 51 -137 100 -192 60 -66 109 -90 161 -75 52 14 75 1
75 -44 l0 -35 60 0 c34 0 60 4 60 10 0 6 -14 37 -30 70 -31 61 -57 77 -67 40
-10 -39 -36 -16 -78 70 -28 57 -100 140 -121 140 -7 0 -14 -7 -16 -15 -2 -11
-13 -8 -47 15 -47 32 -88 39 -97 16z"/>
<path d="M1414 313 c7 -55 26 -87 66 -112 l29 -17 -44 -38 c-37 -30 -95 -117
-95 -141 0 -3 49 -5 109 -5 l108 0 27 73 c15 39 36 97 47 127 12 30 27 62 35
71 8 9 11 18 8 22 -8 7 -80 -28 -89 -43 -4 -6 -23 7 -45 32 -25 29 -54 49 -88
61 -73 25 -76 24 -68 -30z"/>
<path d="M3429 246 c-88 -31 -137 -79 -203 -197 l-28 -51 99 4 c91 3 105 6
174 40 88 44 241 179 223 197 -16 18 -222 23 -265 7z"/>
<path d="M1299 215 c-130 -26 -212 -91 -243 -192 -7 -23 -7 -23 112 -23 l120
0 31 35 c17 20 31 47 31 61 0 14 12 41 26 59 27 36 29 69 4 72 -8 1 -45 -5
-81 -12z"/>
<path d="M2173 196 c-15 -19 -37 -52 -47 -73 -11 -21 -30 -49 -41 -63 -46 -53
-42 -60 39 -60 l74 0 5 63 c3 34 9 86 13 115 8 62 -3 67 -43 18z"/>
<path d="M2394 137 c-12 -14 -44 -104 -44 -124 0 -9 18 -13 65 -13 59 0 65 2
65 21 0 27 -51 129 -64 129 -6 -1 -16 -6 -22 -13z"/>
<path d="M3674 92 c-13 -8 -44 -66 -44 -82 0 -5 17 -10 39 -10 36 0 39 2 45
34 10 53 -8 80 -40 58z"/>
<path d="M4420 41 c0 -5 -3 -16 -6 -25 -5 -13 1 -16 30 -16 36 0 41 5 30 34
-6 17 -54 23 -54 7z"/>
<path d="M4048 3 c6 -2 18 -2 25 0 6 3 1 5 -13 5 -14 0 -19 -2 -12 -5z"/>
</g>
</svg>