<?xml version="1.0" standalone="no"?>
<!DOCTYPE svg PUBLIC "-//W3C//DTD SVG 20010904//EN"
 "http://www.w3.org/TR/2001/REC-SVG-20010904/DTD/svg10.dtd">
<svg version="1.0" xmlns="http://www.w3.org/2000/svg"
 width="512.000000pt" height="512.000000pt" viewBox="0 0 512.000000 512.000000"
 preserveAspectRatio="xMidYMid meet">
<metadata>
Created by potrace 1.16, written by Peter Selinger 2001-2019
</metadata>
<g transform="translate(0.000000,512.000000) scale(0.100000,-0.100000)"
fill="#000000" stroke="none">
<path d="M0 4793 c1 -275 3 -325 14 -310 14 19 36 23 36 7 0 -5 7 -10 15 -10
18 0 19 -9 1 -32 -14 -20 -36 -24 -36 -8 0 6 -7 10 -15 10 -13 0 -15 -70 -15
-560 0 -523 5 -619 26 -535 5 22 9 24 22 13 8 -7 23 -12 34 -10 20 4 24 -8 7
-25 -8 -8 -5 -14 10 -22 28 -16 27 -29 -3 -24 -18 4 -26 0 -30 -15 -6 -17 -10
-18 -30 -9 -13 6 -21 17 -19 24 3 7 0 13 -5 13 -7 0 -11 -143 -12 -437 -1
-369 1 -434 13 -425 8 7 17 9 20 5 4 -3 7 1 7 10 0 24 12 21 33 -8 17 -23 16
-25 -7 -50 -19 -21 -25 -23 -30 -10 -3 8 -12 15 -21 15 -13 0 -15 -18 -15
-110 0 -67 4 -110 10 -110 6 0 10 -7 10 -15 0 -8 -4 -15 -10 -15 -6 0 -10 -63
-10 -169 l0 -168 28 -6 c48 -10 125 -69 157 -121 25 -42 30 -59 30 -116 l0
-67 27 47 c83 145 278 219 461 175 66 -15 82 -26 104 -69 19 -37 49 -62 90
-76 28 -10 40 -25 75 -98 l43 -86 0 -132 c0 -73 3 -136 8 -140 4 -4 7 -2 7 4
0 17 75 15 109 -2 15 -8 45 -34 65 -57 l38 -42 -4 -81 c-4 -63 -14 -104 -46
-186 -65 -169 -68 -174 -128 -203 -30 -15 -55 -27 -57 -27 -1 0 -1 61 1 135 3
122 1 147 -26 258 -17 67 -35 148 -41 180 -10 57 -61 156 -105 206 -39 43
-172 139 -181 129 -3 -3 9 -115 18 -172 5 -34 37 -64 76 -72 44 -9 53 -18 96
-96 28 -50 44 -93 48 -130 4 -30 21 -100 38 -154 17 -54 33 -132 36 -171 8
-104 -10 -145 -113 -254 -46 -48 -84 -92 -84 -96 1 -4 41 33 89 84 111 115
126 148 118 271 -3 55 -15 114 -31 161 -14 41 -25 86 -25 100 1 20 2 21 6 6 7
-33 55 -166 59 -163 2 2 -10 46 -27 97 -20 63 -29 109 -27 140 3 44 4 42 31
-57 36 -132 45 -281 23 -401 l-15 -84 -113 -116 c-62 -64 -130 -141 -151 -171
l-38 -55 7 40 c4 22 17 56 29 75 90 142 105 219 66 319 -12 29 -24 80 -28 112
-5 51 -8 57 -21 47 -36 -30 -55 -100 -63 -237 -7 -123 -22 -211 -35 -211 -3 0
-4 123 -3 273 2 282 -2 320 -42 420 -17 40 -23 82 -28 185 -5 107 -9 136 -22
146 -9 6 -22 36 -28 66 -18 86 -76 200 -102 200 -4 0 8 -23 26 -51 41 -61 53
-98 65 -210 5 -47 16 -102 25 -122 16 -39 20 -107 7 -107 -11 0 -32 46 -32 70
0 20 -97 170 -110 170 -5 0 13 -33 40 -72 27 -40 51 -84 55 -98 l7 -25 -18 25
c-30 44 -88 100 -102 100 -11 0 -13 -10 -9 -43 3 -23 9 -52 13 -64 13 -45 -14
-22 -52 43 -45 78 -149 179 -212 206 -59 26 -102 38 -102 29 0 -4 19 -13 43
-20 97 -29 191 -109 259 -223 22 -38 46 -68 53 -68 7 0 20 -12 30 -26 13 -20
22 -24 41 -20 35 9 79 -25 109 -85 39 -77 56 -178 60 -354 4 -155 4 -158 -9
-95 -18 86 -40 139 -95 233 -47 81 -82 124 -141 171 -38 30 -26 26 30 -11 59
-40 128 -112 149 -158 11 -24 28 -76 37 -115 20 -87 30 -86 14 1 -17 93 -52
163 -113 222 -70 69 -129 99 -265 137 -126 35 -160 35 -92 0 72 -36 182 -115
221 -156 59 -64 69 -84 69 -144 0 -85 24 -150 93 -250 110 -160 108 -157 105
-300 -2 -122 -2 -125 19 -128 18 -3 28 8 54 60 17 35 51 90 74 123 54 75 225
245 225 224 0 -40 -27 -89 -80 -144 -81 -85 -207 -252 -197 -261 3 -3 43 45
90 108 47 62 100 127 118 143 l32 30 -38 -70 c-82 -149 -93 -171 -100 -192
-15 -52 13 -18 46 55 35 77 38 80 152 166 64 49 117 90 117 92 0 7 -82 -47
-143 -94 -56 -42 -58 -43 -44 -16 8 16 23 37 34 46 29 27 179 97 272 128 91
31 92 41 0 14 -74 -22 -157 -58 -220 -94 -50 -30 -51 -30 -45 -8 9 28 22 98
31 158 5 41 9 47 45 62 22 9 40 14 40 11 0 -3 -16 -36 -36 -72 -19 -36 -26
-55 -15 -41 11 14 21 21 21 17 0 -9 -46 -95 -64 -117 -6 -7 14 1 44 19 85 50
129 67 200 78 78 12 125 14 114 4 -55 -47 -112 -86 -177 -121 -43 -23 -100
-59 -126 -79 -50 -37 -148 -140 -190 -200 -38 -53 0 -23 56 44 75 90 153 160
214 190 99 50 297 190 285 202 -1 2 -59 -6 -127 -17 -98 -17 -137 -28 -186
-55 -35 -19 -63 -32 -63 -29 0 2 25 51 55 109 52 96 62 108 136 164 90 68 129
79 224 63 33 -6 85 -13 116 -17 124 -14 215 -112 223 -240 0 -14 2 -25 4 -25
1 0 19 11 40 24 58 37 108 49 183 44 92 -7 163 -43 232 -118 60 -64 85 -122
89 -202 2 -47 10 -59 24 -37 3 6 30 22 58 35 63 29 144 31 201 5 43 -19 105
-82 105 -106 0 -9 10 -15 24 -15 13 0 35 -9 49 -20 l26 -21 42 28 c46 31 141
43 178 24 19 -11 27 -6 72 43 156 170 393 163 554 -16 25 -28 45 -54 45 -59 0
-4 21 -6 48 -3 30 4 63 0 92 -10 37 -13 47 -13 60 -2 56 49 157 61 224 26 37
-18 40 -18 52 -2 13 18 92 24 149 10 28 -7 32 -4 60 38 96 145 312 238 439
190 43 -16 46 -16 82 4 42 22 104 26 135 10 16 -9 24 -6 44 17 13 15 24 33 24
38 0 6 -10 -2 -22 -16 -21 -23 -28 -25 -83 -21 -47 3 -69 0 -99 -16 -36 -18
-42 -18 -74 -5 -60 25 -176 13 -256 -26 -68 -34 -182 -132 -212 -181 -14 -25
-19 -27 -47 -19 -44 13 -107 11 -136 -4 -21 -11 -31 -11 -60 1 -58 25 -140 20
-196 -12 -44 -25 -52 -26 -89 -16 -23 6 -59 10 -80 8 -37 -3 -43 0 -77 44 -21
26 -47 52 -59 59 -19 10 -21 17 -16 70 16 181 220 301 384 225 l51 -24 11 44
c29 116 177 190 258 129 26 -20 30 -19 36 15 4 16 25 50 47 74 23 25 41 48 42
53 0 4 2 10 5 13 4 3 2 -1 -2 -9 -6 -11 -4 -13 11 -6 10 4 44 10 76 13 46 3
67 0 112 -21 l55 -26 7 37 c32 195 188 346 365 355 l49 2 0 1891 0 1892 -51
22 c-114 49 -230 -20 -275 -163 -7 -23 -13 -34 -13 -23 -2 37 23 97 56 135 65
76 157 99 241 61 l42 -19 0 119 0 120 -2560 0 -2560 0 0 -327z m3580 272 c0
-8 -4 -15 -9 -15 -13 0 -22 16 -14 24 11 11 23 6 23 -9z m-1670 -10 c0 -8 -7
-15 -15 -15 -8 0 -15 7 -15 15 0 8 7 15 15 15 8 0 15 -7 15 -15z m-990 -15 c0
-5 -7 -10 -15 -10 -8 0 -15 5 -15 10 0 6 7 10 15 10 8 0 15 -4 15 -10z m2298
-1 c-2 -6 -8 -10 -13 -10 -5 0 -11 4 -13 10 -2 6 4 11 13 11 9 0 15 -5 13 -11z
m1543 -2 c-1 -12 -15 -9 -19 4 -3 6 1 10 8 8 6 -3 11 -8 11 -12z m-3049 -9 c0
-7 2 -18 2 -24 1 -6 8 -19 16 -29 14 -17 13 -18 -15 -13 -16 4 -38 2 -49 -4
-16 -9 -18 -7 -13 7 4 9 2 25 -3 36 -9 16 -7 19 15 19 14 0 25 5 25 10 0 15
20 12 22 -2z m-1478 -19 c-3 -5 -10 -7 -15 -3 -5 3 -7 10 -3 15 3 5 10 7 15 3
5 -3 7 -10 3 -15z m474 10 c-2 -6 -8 -10 -13 -10 -5 0 -11 4 -13 10 -2 6 4 11
13 11 9 0 15 -5 13 -11z m397 -19 c0 -29 -32 -41 -41 -16 -9 24 4 48 23 44 12
-2 18 -12 18 -28z m131 18 c-5 8 -1 12 11 12 16 0 16 -1 1 -16 -17 -18 -54
-12 -43 6 5 8 12 7 23 -2 12 -10 14 -10 8 0z m2815 -5 c0 -5 2 -18 3 -30 3
-27 5 -26 -29 -13 -22 9 -24 12 -13 30 12 19 37 28 39 13z m-3558 -43 c6 -28
9 -30 54 -30 51 -1 51 -2 -11 -43 -17 -12 -17 -15 -2 -51 9 -22 15 -41 13 -43
-2 -2 -15 6 -30 17 -29 23 -64 22 -91 -2 -31 -28 -38 -21 -21 19 13 31 13 38
2 45 -8 4 -25 16 -38 27 l-24 20 48 1 c47 0 49 1 64 40 18 44 28 45 36 0z
m1037 30 c0 -5 -7 -10 -15 -10 -8 0 -15 5 -15 10 0 6 7 10 15 10 8 0 15 -4 15
-10z m2110 -15 c0 -8 -7 -15 -15 -15 -16 0 -20 12 -8 23 11 12 23 8 23 -8z
m150 -6 c0 -5 -7 -9 -15 -9 -15 0 -20 12 -9 23 8 8 24 -1 24 -14z m700 0 c0
-5 -7 -9 -15 -9 -15 0 -20 12 -9 23 8 8 24 -1 24 -14z m-4330 1 c0 -5 7 -10
15 -10 17 0 19 -9 5 -30 -8 -13 -11 -13 -19 -1 -5 7 -13 11 -19 7 -6 -3 -9 5
-8 19 1 23 26 37 26 15z m2740 -5 c0 -8 -7 -15 -15 -15 -8 0 -15 7 -15 15 0 8
7 15 15 15 8 0 15 -7 15 -15z m1470 0 c0 -8 -4 -15 -10 -15 -5 0 -10 7 -10 15
0 8 5 15 10 15 6 0 10 -7 10 -15z m-2600 -15 c0 -5 -4 -10 -10 -10 -5 0 -10 5
-10 10 0 6 5 10 10 10 6 0 10 -4 10 -10z m790 -16 c0 -17 -22 -14 -28 4 -2 7
3 12 12 12 9 0 16 -7 16 -16z m2300 -4 c0 -5 -4 -10 -10 -10 -5 0 -10 5 -10
10 0 6 5 10 10 10 6 0 10 -4 10 -10z m-1760 -8 c0 -13 -12 -22 -22 -16 -10 6
-1 24 13 24 5 0 9 -4 9 -8z m1580 -2 c0 -5 -4 -10 -10 -10 -5 0 -10 5 -10 10
0 6 5 10 10 10 6 0 10 -4 10 -10z m-4642 -28 c2 -7 -3 -12 -12 -12 -9 0 -16 7
-16 16 0 17 22 14 28 -4z m2269 -8 c-9 -9 -28 6 -21 18 4 6 10 6 17 -1 6 -6 8
-13 4 -17z m1883 16 c0 -5 -4 -10 -10 -10 -5 0 -10 5 -10 10 0 6 5 10 10 10 6
0 10 -4 10 -10z m-3520 -15 c0 -8 -4 -15 -9 -15 -13 0 -22 16 -14 24 11 11 23
6 23 -9z m385 5 c3 -5 -1 -10 -9 -10 -9 0 -16 5 -16 10 0 6 4 10 9 10 6 0 13
-4 16 -10z m202 -16 c-9 -9 -28 6 -21 18 4 6 10 6 17 -1 6 -6 8 -13 4 -17z
m180 -30 c-9 -9 -28 6 -21 18 4 6 10 6 17 -1 6 -6 8 -13 4 -17z m505 -6 c-15
-15 -26 -4 -18 18 5 13 9 15 18 6 9 -9 9 -15 0 -24z m222 2 c21 0 21 -16 0
-24 -12 -5 -14 -13 -9 -33 5 -23 4 -25 -9 -14 -9 7 -24 10 -37 6 -18 -6 -20
-4 -14 15 5 14 1 28 -12 42 -18 21 -18 21 5 15 16 -4 25 0 29 10 6 14 7 14 18
-1 7 -9 20 -16 29 -16z m294 20 c8 0 11 -11 10 -30 -2 -21 -7 -29 -16 -25 -7
3 -18 5 -24 5 -5 0 -8 8 -6 18 2 9 -3 23 -12 30 -13 12 -12 13 10 8 14 -3 31
-6 38 -6z m1429 -6 c8 -21 -13 -42 -28 -27 -13 13 -5 43 11 43 6 0 13 -7 17
-16z m-3010 -20 c-9 -9 -28 6 -21 18 4 6 10 6 17 -1 6 -6 8 -13 4 -17z m2173
16 c0 -5 -4 -10 -10 -10 -5 0 -10 5 -10 10 0 6 5 10 10 10 6 0 10 -4 10 -10z
m240 -5 c0 -8 -7 -15 -15 -15 -16 0 -20 12 -8 23 11 12 23 8 23 -8z m400 5 c0
-5 -7 -10 -16 -10 -8 0 -12 5 -9 10 3 6 10 10 16 10 5 0 9 -4 9 -10z m-2000
-19 c0 -12 11 -23 28 -29 24 -9 25 -10 5 -11 -14 -1 -23 -7 -23 -17 0 -13 -3
-14 -14 -5 -7 6 -21 9 -30 5 -12 -5 -15 -2 -10 11 4 10 1 21 -7 26 -11 7 -10
9 4 9 10 0 20 7 23 15 9 21 24 19 24 -4z m1800 -11 c0 -5 -7 -10 -15 -10 -8 0
-15 5 -15 10 0 6 7 10 15 10 8 0 15 -4 15 -10z m-360 -20 c0 -5 -4 -10 -10
-10 -5 0 -10 5 -10 10 0 6 5 10 10 10 6 0 10 -4 10 -10z m1480 1 c0 -6 -4 -13
-10 -16 -5 -3 -10 1 -10 9 0 9 5 16 10 16 6 0 10 -4 10 -9z m-1022 -13 c-6
-18 -28 -21 -28 -4 0 9 7 16 16 16 9 0 14 -5 12 -12z m838 -25 c9 -37 17 -45
69 -64 l30 -12 -37 -11 c-46 -14 -51 -19 -64 -69 l-10 -42 -18 47 c-16 41 -25
50 -64 65 -49 18 -47 20 30 37 23 5 29 13 34 46 8 50 18 51 30 3z m-4196 17
c0 -5 -4 -10 -10 -10 -5 0 -10 5 -10 10 0 6 5 10 10 10 6 0 10 -4 10 -10z
m2490 -5 c0 -8 -4 -15 -10 -15 -5 0 -10 7 -10 15 0 8 5 15 10 15 6 0 10 -7 10
-15z m-1980 -5 c0 -5 -4 -10 -10 -10 -5 0 -10 5 -10 10 0 6 5 10 10 10 6 0 10
-4 10 -10z m3965 0 c3 -5 -1 -10 -10 -10 -9 0 -13 5 -10 10 3 6 8 10 10 10 2
0 7 -4 10 -10z m-495 -16 c0 -17 -22 -14 -28 4 -2 7 3 12 12 12 9 0 16 -7 16
-16z m781 3 c-1 -12 -15 -9 -19 4 -3 6 1 10 8 8 6 -3 11 -8 11 -12z m-4001 -7
c0 -5 -4 -10 -10 -10 -5 0 -10 5 -10 10 0 6 5 10 10 10 6 0 10 -4 10 -10z
m388 -9 c3 -8 -1 -12 -9 -9 -7 2 -15 10 -17 17 -3 8 1 12 9 9 7 -2 15 -10 17
-17z m1902 3 c0 -17 -22 -14 -28 4 -2 7 3 12 12 12 9 0 16 -7 16 -16z m820 1
c0 -8 -7 -15 -15 -15 -8 0 -15 7 -15 15 0 8 7 15 15 15 8 0 15 -7 15 -15z
m-1010 -10 c0 -8 -7 -15 -15 -15 -8 0 -15 7 -15 15 0 8 7 15 15 15 8 0 15 -7
15 -15z m1845 5 c-3 -5 -10 -10 -16 -10 -5 0 -9 5 -9 10 0 6 7 10 16 10 8 0
12 -4 9 -10z m-3974 -13 c-1 -12 -15 -9 -19 4 -3 6 1 10 8 8 6 -3 11 -8 11
-12z m484 3 c3 -5 -1 -10 -10 -10 -9 0 -13 5 -10 10 3 6 8 10 10 10 2 0 7 -4
10 -10z m805 0 c0 -5 -4 -10 -10 -10 -5 0 -10 5 -10 10 0 6 5 10 10 10 6 0 10
-4 10 -10z m-1450 -15 c0 -8 -4 -15 -9 -15 -13 0 -22 16 -14 24 11 11 23 6 23
-9z m448 -12 c-4 -22 -22 -20 -26 1 -2 10 3 16 13 16 10 0 15 -7 13 -17z
m-130 -4 c-2 -6 -8 -10 -13 -10 -5 0 -11 4 -13 10 -2 6 4 11 13 11 9 0 15 -5
13 -11z m782 1 c0 -5 -7 -10 -15 -10 -8 0 -15 5 -15 10 0 6 7 10 15 10 8 0 15
-4 15 -10z m2036 -17 c-10 -10 -19 5 -10 18 6 11 8 11 12 0 2 -7 1 -15 -2 -18z
m-1935 4 c-1 -12 -15 -9 -19 4 -3 6 1 10 8 8 6 -3 11 -8 11 -12z m-1408 -37
c-6 -23 -26 -26 -43 -5 -9 11 -9 17 2 28 18 21 48 4 41 -23z m2817 31 c0 -5
10 -12 23 -15 19 -6 20 -7 5 -16 -10 -6 -14 -18 -11 -30 4 -16 2 -19 -12 -14
-10 4 -21 1 -26 -7 -7 -11 -9 -11 -9 4 0 9 -7 17 -15 17 -9 0 -12 6 -8 16 3 9
0 20 -8 25 -11 7 -9 9 8 9 12 0 25 5 28 10 8 12 25 13 25 1z m270 -1 c0 -5 -2
-10 -4 -10 -3 0 -8 5 -11 10 -3 6 -1 10 4 10 6 0 11 -4 11 -10z m-882 -26
c263 -38 543 -157 802 -340 137 -97 144 -103 138 -109 -3 -3 -17 4 -32 16 -15
12 -29 19 -32 17 -2 -3 33 -38 78 -78 113 -100 256 -251 301 -318 48 -70 51
-73 38 -39 -18 48 -13 50 34 11 l45 -37 61 28 c33 15 62 25 65 23 2 -3 -2 -25
-10 -50 -13 -45 -13 -45 16 -62 35 -21 28 -36 -17 -36 -19 0 -36 -4 -39 -9 -3
-4 34 -87 82 -182 80 -158 180 -416 169 -436 -2 -4 4 -16 15 -25 17 -17 18
-17 18 10 0 26 15 52 31 52 14 0 31 -61 24 -87 -5 -23 -4 -26 6 -15 14 13 63
15 93 3 16 -6 14 -11 -23 -38 -31 -23 -38 -32 -26 -36 8 -4 15 -16 15 -28 0
-15 -4 -19 -15 -15 -8 3 -22 9 -30 12 -11 5 -13 -1 -8 -30 4 -29 2 -36 -11
-36 -9 0 -21 9 -28 19 -11 18 -13 17 -27 -13 -20 -40 -34 -37 -44 10 -6 29 -3
42 10 58 10 11 -1 6 -23 -12 -23 -18 -45 -32 -48 -32 -14 0 -4 42 14 60 14 14
16 20 6 20 -7 0 -31 7 -51 16 -47 19 -32 34 33 34 46 0 50 4 27 26 -21 21 -19
35 5 41 11 3 20 7 20 8 0 2 -18 56 -41 121 -47 140 -124 301 -187 393 -60 90
-64 93 -95 86 l-26 -7 24 -32 c13 -17 53 -87 88 -155 38 -73 67 -118 71 -110
3 8 4 5 1 -7 -3 -12 11 -56 34 -105 48 -105 90 -249 73 -249 -5 0 -16 33 -25
73 -18 73 -36 118 -37 87 -1 -28 -20 12 -20 42 0 50 -154 372 -199 417 -17 17
-19 47 -6 86 9 30 -98 159 -299 359 -136 134 -195 184 -290 247 -136 90 -317
182 -455 230 -52 18 -89 35 -83 37 16 5 67 -12 182 -60 130 -55 199 -91 309
-160 51 -32 95 -57 98 -55 4 4 -138 94 -237 150 -79 44 -260 117 -367 147
-243 68 -552 79 -776 26 -335 -78 -706 -300 -977 -583 -104 -108 -166 -193
-258 -353 -54 -95 -152 -307 -152 -330 0 -6 -4 -10 -10 -10 -15 0 -13 13 20
95 40 100 111 241 171 337 290 468 880 849 1391 898 111 10 255 4 396 -16z
m-2398 -5 c0 -5 -7 -9 -15 -9 -15 0 -20 12 -9 23 8 8 24 -1 24 -14z m1390 11
c0 -5 -4 -10 -10 -10 -5 0 -10 5 -10 10 0 6 5 10 10 10 6 0 10 -4 10 -10z
m-1610 -19 c0 -6 -4 -13 -10 -16 -5 -3 -10 1 -10 9 0 9 5 16 10 16 6 0 10 -4
10 -9z m1175 -41 c0 -20 -4 -26 -14 -22 -10 4 -13 1 -8 -11 3 -9 2 -17 -4 -17
-5 0 -12 7 -15 15 -4 8 -14 15 -24 15 -27 0 -34 17 -11 25 11 3 23 14 26 24 9
30 50 6 50 -29z m282 20 c12 0 13 -3 5 -13 -6 -7 -8 -24 -5 -38 6 -21 5 -23
-10 -10 -13 10 -20 11 -31 2 -11 -9 -12 -7 -9 13 3 13 0 27 -6 30 -7 4 -4 13
7 24 13 14 19 15 25 5 4 -7 15 -13 24 -13z m2543 5 c0 -8 -4 -15 -10 -15 -5 0
-10 7 -10 15 0 8 5 15 10 15 6 0 10 -7 10 -15z m-3910 -16 c0 -5 -7 -9 -15 -9
-15 0 -20 12 -9 23 8 8 24 -1 24 -14z m466 -6 c-10 -10 -19 5 -10 18 6 11 8
11 12 0 2 -7 1 -15 -2 -18z m1054 6 c0 -5 -7 -9 -15 -9 -15 0 -20 12 -9 23 8
8 24 -1 24 -14z m1461 -2 c-13 -13 -26 -3 -16 12 3 6 11 8 17 5 6 -4 6 -10 -1
-17z m1769 13 c0 -5 -4 -10 -9 -10 -6 0 -13 5 -16 10 -3 6 1 10 9 10 9 0 16
-4 16 -10z m-4940 -21 c0 -5 -7 -9 -15 -9 -15 0 -20 12 -9 23 8 8 24 -1 24
-14z m4480 11 c0 -5 -4 -10 -9 -10 -6 0 -13 5 -16 10 -3 6 1 10 9 10 9 0 16
-4 16 -10z m-3587 -11 c103 -28 170 -146 142 -251 -33 -130 -189 -189 -298
-112 -131 93 -102 306 48 359 49 17 60 18 108 4z m1880 -28 c269 -54 562 -192
786 -371 118 -94 224 -191 216 -198 -3 -3 -34 21 -68 55 -214 208 -537 395
-817 472 -215 59 -483 72 -691 33 -223 -42 -427 -129 -650 -278 -109 -73 -267
-205 -331 -277 -18 -20 -18 -20 1 9 34 52 182 186 281 254 256 177 483 274
735 315 131 21 397 14 538 -14z m1007 14 c0 -8 -4 -15 -10 -15 -5 0 -10 7 -10
15 0 8 5 15 10 15 6 0 10 -7 10 -15z m782 0 c0 -5 -5 -11 -11 -13 -6 -2 -11 4
-11 13 0 9 5 15 11 13 6 -2 11 -8 11 -13z m-3491 -18 c-13 -13 -26 -3 -16 12
3 6 11 8 17 5 6 -4 6 -10 -1 -17z m3207 12 c-2 -6 -8 -10 -13 -10 -5 0 -11 4
-13 10 -2 6 4 11 13 11 9 0 15 -5 13 -11z m474 -9 c12 -11 16 -20 10 -20 -7 0
-12 -10 -12 -21 0 -18 -3 -19 -15 -9 -8 7 -21 10 -28 7 -10 -4 -14 4 -14 24 0
17 6 30 16 32 9 3 17 5 19 6 2 0 12 -8 24 -19z m-3532 -40 c0 -5 -7 -10 -16
-10 -8 0 -12 5 -9 10 3 6 10 10 16 10 5 0 9 -4 9 -10z m-802 -11 c-2 -6 -8
-10 -13 -10 -5 0 -11 4 -13 10 -2 6 4 11 13 11 9 0 15 -5 13 -11z m73 -2 c-1
-12 -15 -9 -19 4 -3 6 1 10 8 8 6 -3 11 -8 11 -12z m964 -7 c0 -22 -29 -18
-33 3 -3 14 1 18 15 15 10 -2 18 -10 18 -18z m2955 16 c0 -11 -19 -15 -25 -6
-3 5 1 10 9 10 9 0 16 -2 16 -4z m511 -9 c-1 -12 -15 -9 -19 4 -3 6 1 10 8 8
6 -3 11 -8 11 -12z m-2061 -23 c0 -16 -16 -19 -25 -4 -8 13 4 32 16 25 5 -4 9
-13 9 -21z m1040 16 c0 -5 -7 -10 -16 -10 -8 0 -12 5 -9 10 3 6 10 10 16 10 5
0 9 -4 9 -10z m145 -20 c-5 -8 -11 -8 -17 -2 -6 6 -7 16 -3 22 5 8 11 8 17 2
6 -6 7 -16 3 -22z m-3815 6 c0 -8 -4 -17 -9 -21 -12 -7 -24 12 -16 25 9 15 25
12 25 -4z m3350 -20 c-13 -13 -35 7 -25 24 5 8 11 8 21 -1 10 -8 12 -15 4 -23z
m690 3 c0 -5 -7 -9 -15 -9 -15 0 -20 12 -9 23 8 8 24 -1 24 -14z m-1523 -18
c117 -24 253 -67 333 -105 69 -32 51 -34 -21 -2 -81 35 -205 73 -326 98 -85
17 -144 22 -275 22 -93 1 -168 5 -168 10 0 17 349 0 457 -23z m1912 -11 c17 0
13 -15 -9 -35 -18 -16 -20 -16 -26 -1 -3 9 -12 16 -20 16 -18 0 -18 6 4 29 14
15 19 16 28 5 6 -8 16 -14 23 -14z m-259 -10 c0 -5 -4 -10 -10 -10 -5 0 -10 5
-10 10 0 6 5 10 10 10 6 0 10 -4 10 -10z m-4036 -22 c6 -23 6 -23 23 -3 14 18
15 18 9 2 -3 -10 -6 -22 -6 -27 0 -14 -42 -19 -61 -7 -23 14 -25 27 -4 27 8 0
15 7 15 15 0 23 17 18 24 -7z m4446 6 c0 -8 -4 -12 -10 -9 -5 3 -10 10 -10 16
0 5 5 9 10 9 6 0 10 -7 10 -16z m-4259 -7 c-1 -12 -15 -9 -19 4 -3 6 1 10 8 8
6 -3 11 -8 11 -12z m1439 -8 c0 -5 -7 -9 -15 -9 -15 0 -20 12 -9 23 8 8 24 -1
24 -14z m238 -7 c4 -29 -26 -42 -44 -18 -17 24 -6 48 20 44 13 -2 22 -12 24
-26z m-958 8 c0 -5 -4 -10 -10 -10 -5 0 -10 5 -10 10 0 6 5 10 10 10 6 0 10
-4 10 -10z m1225 1 c3 -5 1 -12 -5 -16 -5 -3 -10 1 -10 9 0 18 6 21 15 7z
m-1909 -29 c-8 -9 -19 -13 -22 -9 -10 9 16 38 28 31 6 -4 4 -13 -6 -22z m4364
2 c0 -8 -5 -12 -10 -9 -6 4 -8 11 -5 16 9 14 15 11 15 -7z m-4920 -15 c0 -5
-7 -9 -15 -9 -15 0 -20 12 -9 23 8 8 24 -1 24 -14z m2749 -18 c258 -55 423
-135 686 -332 147 -109 271 -232 372 -370 142 -193 189 -273 253 -434 17 -44
38 -87 46 -96 15 -17 45 -152 64 -293 10 -70 17 -94 34 -108 l21 -17 -27 1
c-25 2 -28 7 -33 48 -20 150 -39 261 -55 310 -33 101 -152 355 -198 422 l-18
28 -32 -30 c-18 -16 -32 -33 -32 -37 0 -13 -99 -65 -110 -58 -6 4 -10 1 -10
-4 0 -6 5 -11 10 -11 6 0 10 -7 10 -16 0 -12 -7 -15 -25 -12 -13 3 -22 1 -19
-3 3 -5 1 -9 -5 -9 -14 0 -31 34 -31 62 -1 21 -2 21 -11 5 -8 -13 -7 -22 2
-33 15 -18 8 -27 -15 -18 -19 7 -22 40 -4 46 19 7 -16 54 -52 73 -17 9 -30 22
-30 29 0 7 -7 19 -15 26 -8 7 -15 25 -15 41 0 22 4 27 18 23 15 -5 15 -5 0 5
-12 8 -15 21 -11 53 7 53 22 85 23 48 1 -39 11 -70 24 -70 7 0 17 -5 24 -12 6
-6 19 -13 29 -14 39 -6 104 -37 118 -57 12 -16 15 -18 15 -5 0 8 14 21 31 28
26 11 32 11 39 -1 6 -8 4 -16 -3 -21 -8 -5 -8 -8 -1 -8 6 0 26 -3 44 -6 31 -7
31 -6 -46 97 -222 297 -577 566 -881 667 -165 56 -297 76 -488 76 -125 0 -188
-5 -240 -17 -38 -9 -86 -19 -105 -22 -51 -8 -199 -60 -290 -101 -72 -33 -79
-39 -74 -60 7 -27 -7 -32 -26 -9 -11 13 -17 13 -49 -6 -20 -12 -71 -48 -113
-81 -43 -32 -78 -55 -78 -50 0 5 35 34 78 64 193 138 384 221 627 273 110 23
136 25 300 21 130 -3 206 -10 274 -25z m1152 14 c-1 -15 -24 -12 -29 3 -3 9 2
13 12 10 10 -1 17 -7 17 -13z m929 -1 c0 -8 -4 -12 -10 -9 -5 3 -10 10 -10 16
0 5 5 9 10 9 6 0 10 -7 10 -16z m-3690 -12 c0 -13 -12 -22 -22 -16 -10 6 -1
24 13 24 5 0 9 -4 9 -8z m2595 -12 c-5 -15 -2 -20 12 -21 10 0 13 -3 6 -6 -7
-2 -13 -14 -13 -25 0 -16 -3 -18 -14 -9 -7 6 -21 8 -31 5 -14 -6 -16 -3 -10
14 4 13 2 22 -4 22 -6 0 -11 5 -11 10 0 6 9 10 19 10 11 0 23 5 26 10 11 18
26 10 20 -10z m265 -5 c0 -8 -4 -15 -10 -15 -5 0 -10 7 -10 15 0 8 5 15 10 15
6 0 10 -7 10 -15z m-3780 -10 c0 -32 79 -47 123 -23 20 10 21 10 8 -5 -20 -25
-101 -23 -135 4 -29 23 -34 39 -11 39 8 0 15 -7 15 -15z m4130 5 c0 -5 -4 -10
-10 -10 -5 0 -10 5 -10 10 0 6 5 10 10 10 6 0 10 -4 10 -10z m140 2 c0 -13
-12 -22 -22 -16 -10 6 -1 24 13 24 5 0 9 -4 9 -8z m-4070 -17 c0 -8 -4 -15 -9
-15 -13 0 -22 16 -14 24 11 11 23 6 23 -9z m4469 -17 c-37 -51 -121 -131 -181
-170 -79 -53 -271 -127 -253 -98 3 5 14 10 23 10 29 0 164 64 227 107 33 22
89 72 125 111 69 74 96 93 59 40z m-2205 -8 c247 -48 449 -137 646 -284 118
-88 271 -229 354 -324 32 -37 40 -42 53 -31 13 11 18 10 34 -10 21 -26 24 -41
9 -41 -5 0 -9 -6 -7 -12 1 -8 -9 -13 -25 -14 -16 -1 -25 3 -22 11 11 27 -141
196 -285 316 -247 207 -443 306 -736 371 -82 18 -132 22 -275 23 -161 0 -184
-2 -285 -29 -172 -44 -355 -118 -355 -142 0 -8 -7 -14 -16 -14 -9 0 -12 5 -8
12 4 7 3 8 -5 4 -6 -4 -9 -11 -6 -16 6 -10 -49 -42 -63 -38 -5 2 -30 -12 -56
-30 -38 -27 -45 -37 -35 -48 7 -9 8 -14 1 -14 -6 0 -12 6 -14 12 -6 17 -36 -3
-126 -87 -39 -37 -69 -72 -65 -77 3 -7 1 -8 -5 -4 -25 16 -204 -238 -284 -402
-27 -57 -52 -102 -54 -99 -6 5 50 124 99 212 147 260 388 490 657 625 132 66
333 128 505 154 62 9 264 -4 369 -24z m451 10 c8 -26 -1 -40 -26 -40 -22 0
-34 22 -25 45 8 22 44 18 51 -5z m992 -16 c-9 -9 -28 6 -21 18 4 6 10 6 17 -1
6 -6 8 -13 4 -17z m-3567 6 c0 -5 -4 -10 -10 -10 -5 0 -10 5 -10 10 0 6 5 10
10 10 6 0 10 -4 10 -10z m1150 -15 c0 -8 -4 -15 -10 -15 -5 0 -10 7 -10 15 0
8 5 15 10 15 6 0 10 -7 10 -15z m-490 -16 c0 -5 -7 -9 -15 -9 -15 0 -20 12 -9
23 8 8 24 -1 24 -14z m1156 10 c-104 -9 -178 -21 -263 -46 -54 -15 -71 -27
-53 -38 5 -3 10 -11 10 -17 0 -5 -9 0 -19 13 -11 13 -17 27 -13 30 8 8 203 56
247 62 17 2 66 4 110 4 l80 0 -99 -8z m-1849 -25 c-9 -9 -28 6 -21 18 4 6 10
6 17 -1 6 -6 8 -13 4 -17z m561 9 c-5 -25 -28 -28 -28 -4 0 12 6 21 16 21 9 0
14 -7 12 -17z m2182 -14 c0 -5 -7 -9 -15 -9 -15 0 -20 12 -9 23 8 8 24 -1 24
-14z m129 -75 c51 -36 90 -68 87 -71 -2 -3 -31 15 -63 39 -32 24 -75 54 -95
67 -21 12 -38 25 -38 27 0 12 26 -2 109 -62z m-3069 46 c0 -5 -7 -10 -15 -10
-8 0 -15 5 -15 10 0 6 7 10 15 10 8 0 15 -4 15 -10z m3610 -5 c0 -8 -4 -15
-10 -15 -5 0 -10 7 -10 15 0 8 5 15 10 15 6 0 10 -7 10 -15z m228 -12 c60 -38
79 -125 39 -184 -47 -71 -134 -85 -198 -32 -43 37 -56 91 -35 148 33 85 120
116 194 68z m292 7 c0 -5 -4 -10 -10 -10 -5 0 -10 5 -10 10 0 6 5 10 10 10 6
0 10 -4 10 -10z m-2210 -15 c0 -8 -7 -15 -15 -15 -16 0 -20 12 -8 23 11 12 23
8 23 -8z m2374 0 c-54 -42 -299 -112 -356 -103 -15 3 -5 7 27 12 91 14 205 46
268 75 70 33 90 38 61 16z m-4654 -5 c0 -5 -7 -10 -15 -10 -8 0 -15 5 -15 10
0 6 7 10 15 10 8 0 15 -4 15 -10z m580 -5 c0 -8 -4 -15 -9 -15 -13 0 -22 16
-14 24 11 11 23 6 23 -9z m90 5 c0 -5 -4 -10 -10 -10 -5 0 -10 5 -10 10 0 6 5
10 10 10 6 0 10 -4 10 -10z m1975 -15 c0 -28 -29 -25 -33 3 -3 19 0 23 15 20
10 -2 18 -12 18 -23z m-2119 -27 c-1 -28 3 -34 22 -36 15 -2 35 6 50 20 l27
23 -24 -27 c-27 -31 -62 -36 -85 -12 -19 19 -20 36 -4 52 16 16 16 16 14 -20z
m3024 17 c0 -8 -4 -15 -10 -15 -5 0 -10 7 -10 15 0 8 5 15 10 15 6 0 10 -7 10
-15z m-1180 -5 c0 -5 -2 -10 -4 -10 -3 0 -8 5 -11 10 -3 6 -1 10 4 10 6 0 11
-4 11 -10z m-2175 -38 c6 -36 10 -40 53 -54 l47 -15 -41 -11 c-32 -9 -44 -20
-58 -49 l-19 -38 -12 35 c-9 28 -20 38 -53 50 -23 8 -42 17 -42 20 0 4 19 10
43 16 38 8 43 13 51 47 12 47 23 47 31 -1z m1365 18 c0 -5 -7 -10 -16 -10 -8
0 -12 5 -9 10 3 6 10 10 16 10 5 0 9 -4 9 -10z m590 -10 c0 -5 -4 -10 -10 -10
-5 0 -10 5 -10 10 0 6 5 10 10 10 6 0 10 -4 10 -10z m850 -5 c0 -8 -7 -15 -15
-15 -16 0 -20 12 -8 23 11 12 23 8 23 -8z m-2180 -9 c0 -3 -4 -8 -10 -11 -5
-3 -10 -1 -10 4 0 6 5 11 10 11 6 0 10 -2 10 -4z m1859 -31 c131 -22 260 -67
385 -135 58 -32 103 -53 100 -46 -3 6 3 1 13 -11 29 -34 173 -144 173 -132 0
6 6 9 13 6 6 -2 11 -11 9 -21 -2 -9 1 -16 6 -16 16 0 45 -27 35 -33 -5 -3 -56
32 -114 78 -57 47 -110 85 -117 85 -7 0 -25 11 -40 25 -41 38 -235 131 -333
159 -231 66 -479 61 -714 -15 -52 -16 -95 -32 -95 -35 0 -21 25 -44 47 -44 21
0 23 -2 13 -14 -6 -8 -21 -16 -33 -18 -16 -2 -22 -10 -22 -28 0 -32 -3 -33
-43 -19 -32 11 -33 12 -15 31 17 19 17 20 0 33 -21 15 -22 25 -2 25 8 0 22 11
30 24 18 28 162 78 285 100 104 19 306 19 419 1z m-2636 -25 c3 -13 17 -22 36
-26 43 -9 39 -27 -4 -21 -19 3 -38 1 -41 -4 -8 -14 -24 -11 -24 5 0 8 -6 16
-12 19 -9 3 -7 10 7 25 25 26 31 27 38 2z m1140 -37 c-64 -76 -206 -299 -260
-408 -64 -127 -120 -276 -129 -343 -3 -29 -10 -52 -15 -52 -8 0 -8 82 1 90 3
3 15 37 28 75 34 110 151 338 243 476 83 125 159 222 167 214 3 -2 -13 -26
-35 -52z m-467 -8 c-16 -17 -36 -20 -36 -6 0 5 -3 17 -7 27 -4 12 -3 15 5 10
7 -4 15 0 18 9 6 14 8 13 21 -5 12 -18 12 -22 -1 -35z m1704 39 c0 -9 -5 -14
-12 -12 -18 6 -21 28 -4 28 9 0 16 -7 16 -16z m1205 7 c7 -12 -12 -24 -25 -16
-11 7 -4 25 10 25 5 0 11 -4 15 -9z m-2141 -38 l22 -17 -91 -91 c-53 -52 -118
-130 -154 -185 -63 -95 -184 -331 -196 -382 -5 -19 -14 -28 -29 -29 -16 -1
-17 -2 -3 -6 22 -6 22 -39 0 -52 -17 -9 -17 -10 0 -28 19 -21 24 -44 6 -26 -6
6 -17 9 -24 6 -8 -2 -24 3 -38 12 -24 16 -25 15 -31 -21 -4 -20 -10 -33 -13
-30 -6 5 14 91 26 111 8 15 -21 -18 -37 -41 -11 -17 -12 -15 -8 17 4 33 2 36
-16 31 -15 -4 -19 0 -17 14 1 10 -1 27 -6 37 -13 31 2 50 38 44 22 -3 36 1 44
12 11 14 12 12 13 -14 0 -25 6 -17 34 45 18 41 43 95 56 120 36 70 190 303
197 297 3 -3 -8 -23 -24 -44 -89 -115 -245 -409 -235 -445 3 -13 12 -17 29
-15 20 3 30 17 57 84 69 167 184 351 288 459 59 62 67 73 53 84 -19 16 -20 40
-1 40 8 0 16 7 20 15 7 19 12 19 40 -2z m3410 -4 c-3 -5 -10 -7 -15 -3 -5 3
-7 10 -3 15 3 5 10 7 15 3 5 -3 7 -10 3 -15z m-3540 -10 c-3 -5 -10 -7 -15 -3
-5 3 -7 10 -3 15 3 5 10 7 15 3 5 -3 7 -10 3 -15z m1334 10 c-2 -6 -8 -10 -13
-10 -5 0 -11 4 -13 10 -2 6 4 11 13 11 9 0 15 -5 13 -11z m-1405 -52 l32 4
-27 -16 c-33 -18 -37 -30 -8 -22 27 7 26 -10 -1 -18 -16 -5 -19 -12 -15 -31 7
-28 3 -29 -28 -9 -18 12 -29 13 -51 5 -35 -13 -41 -8 -15 15 24 22 25 33 3 57
-15 17 -14 18 16 18 26 0 34 5 39 22 5 22 6 22 14 -3 7 -21 14 -25 41 -22z
m1543 32 c3 -6 0 -15 -7 -20 -14 -8 -32 9 -23 23 7 11 22 10 30 -3z m-646 -14
c0 -8 -7 -15 -15 -15 -16 0 -20 12 -8 23 11 12 23 8 23 -8z m1646 -32 c22 -27
52 -60 69 -75 16 -16 25 -28 20 -28 -6 0 -5 -4 1 -8 18 -12 114 -144 114 -156
0 -6 -11 2 -23 19 -83 111 -220 274 -228 270 -5 -4 -9 1 -9 9 0 27 16 18 56
-31z m-2858 26 c-2 -6 -8 -10 -13 -10 -5 0 -11 4 -13 10 -2 6 4 11 13 11 9 0
15 -5 13 -11z m2692 -9 c0 -5 -4 -10 -10 -10 -5 0 -10 5 -10 10 0 6 5 10 10
10 6 0 10 -4 10 -10z m720 0 c0 -5 -4 -10 -10 -10 -5 0 -10 5 -10 10 0 6 5 10
10 10 6 0 10 -4 10 -10z m614 -21 c-3 -5 -10 -7 -15 -3 -5 3 -7 10 -3 15 3 5
10 7 15 3 5 -3 7 -10 3 -15z m-4176 0 c-2 -6 -8 -10 -13 -10 -5 0 -11 4 -13
10 -2 6 4 11 13 11 9 0 15 -5 13 -11z m1030 -28 c-173 -101 -371 -289 -483
-459 -15 -23 -30 -40 -33 -38 -2 3 24 44 59 93 108 151 299 326 449 411 30 18
59 32 65 32 5 0 -20 -18 -57 -39z m-1458 14 c0 -8 -4 -15 -9 -15 -13 0 -22 16
-14 24 11 11 23 6 23 -9z m200 5 c0 -5 -4 -10 -10 -10 -5 0 -10 5 -10 10 0 6
5 10 10 10 6 0 10 -4 10 -10z m1060 -5 c0 -8 -4 -15 -10 -15 -5 0 -10 7 -10
15 0 8 5 15 10 15 6 0 10 -7 10 -15z m1350 -1 c0 -17 -22 -14 -28 4 -2 7 3 12
12 12 9 0 16 -7 16 -16z m398 4 c-6 -18 -28 -21 -28 -4 0 9 7 16 16 16 9 0 14
-5 12 -12z m582 -13 c0 -8 -4 -15 -9 -15 -13 0 -22 16 -14 24 11 11 23 6 23
-9z m620 0 c0 -8 -7 -15 -15 -15 -8 0 -15 7 -15 15 0 8 7 15 15 15 8 0 15 -7
15 -15z m-2030 -6 c214 -26 440 -116 585 -232 68 -55 145 -129 145 -140 0 -5
-38 26 -83 69 -144 135 -331 228 -557 274 -145 30 -363 24 -490 -12 -282 -82
-491 -234 -665 -483 -36 -51 -44 -72 -23 -59 7 4 8 3 4 -5 -4 -6 -11 -9 -16
-6 -28 17 -118 -213 -144 -367 -21 -120 -31 -298 -18 -298 6 0 9 -8 5 -17 -5
-15 -3 -14 10 2 14 17 18 18 27 5 5 -8 8 -20 5 -27 -2 -8 10 -13 33 -15 l37
-3 -52 -55 c-45 -49 -59 -57 -112 -69 -64 -14 -90 -9 -71 14 8 10 8 19 0 34
-7 15 -7 21 0 21 16 0 30 -44 16 -52 -8 -6 -8 -8 1 -8 22 0 73 52 73 74 0 23
-24 63 -50 83 -13 11 -13 12 3 13 10 0 28 -7 40 -15 l22 -14 -3 92 c-4 109 10
217 44 347 32 118 78 218 150 326 42 65 53 88 46 101 -7 12 -5 24 5 40 15 22
16 22 28 6 12 -16 19 -12 82 48 194 187 409 291 683 333 52 7 159 6 240 -5z
m640 -4 c0 -8 -4 -15 -9 -15 -13 0 -22 16 -14 24 11 11 23 6 23 -9z m570 0 c0
-8 -4 -15 -10 -15 -5 0 -10 7 -10 15 0 8 5 15 10 15 6 0 10 -7 10 -15z m-2219
-28 c-7 -17 -7 -28 -1 -32 23 -14 8 -30 -30 -30 -38 -1 -51 7 -32 19 5 3 7 19
4 36 -4 29 -3 31 21 25 14 -4 28 -2 32 5 12 20 16 4 6 -23z m-1475 12 c10 -17
-13 -36 -27 -22 -12 12 -4 33 11 33 5 0 12 -5 16 -11z m2509 -14 c321 -49 536
-167 724 -400 53 -66 131 -179 131 -190 0 -19 -23 4 -54 55 -48 78 -65 77 -26
-1 17 -33 30 -65 28 -71 -2 -5 -17 18 -33 51 -19 42 -34 61 -47 61 -10 0 -18
6 -18 14 0 17 27 29 43 19 24 -15 -61 85 -132 155 -81 80 -206 168 -297 208
-113 50 -276 85 -425 91 -145 6 -223 -3 -330 -38 -300 -98 -556 -320 -694
-602 -64 -131 -115 -348 -115 -489 0 -39 -4 -68 -10 -68 -5 0 -10 26 -10 58 0
31 -3 68 -5 82 -5 22 -4 23 5 5 8 -15 9 -5 6 40 -4 44 -3 53 4 35 7 -20 8 -15
5 20 -7 55 9 111 74 259 28 63 48 119 44 125 -3 6 -3 8 2 4 5 -5 24 16 43 45
132 197 283 333 477 429 214 107 388 136 610 103z m985 5 c0 -5 -7 -10 -15
-10 -8 0 -15 5 -15 10 0 6 7 10 15 10 8 0 15 -4 15 -10z m1200 -25 c0 -8 -7
-15 -15 -15 -16 0 -20 12 -8 23 11 12 23 8 23 -8z m-4050 -36 c0 -14 12 -25
38 -36 l37 -17 -42 -9 c-36 -8 -43 -14 -49 -40 l-6 -31 -18 22 c-21 25 -32 27
-60 10 -28 -18 -37 -1 -12 24 l22 22 -27 29 -28 28 48 -4 c36 -2 51 1 63 15
19 21 34 15 34 -13z m3805 -62 c25 3 45 2 45 -3 0 -5 -14 -21 -31 -35 -30 -24
-31 -28 -21 -57 12 -35 7 -39 -22 -17 -28 21 -32 20 -57 -22 l-23 -38 -9 42
-8 41 -34 -11 c-51 -15 -56 0 -12 37 l37 31 -27 29 -28 28 30 -7 c16 -3 34 -7
39 -8 5 -1 14 16 19 37 l10 40 23 -46 23 -46 46 5z m115 73 c0 -5 -4 -10 -10
-10 -5 0 -10 5 -10 10 0 6 5 10 10 10 6 0 10 -4 10 -10z m-3550 -14 c0 -3 -4
-8 -10 -11 -5 -3 -10 -1 -10 4 0 6 5 11 10 11 6 0 10 -2 10 -4z m-760 -32 c0
-8 -7 -14 -15 -14 -15 0 -21 21 -9 33 10 9 24 -2 24 -19z m1095 16 c3 -6 -1
-13 -10 -16 -19 -8 -30 0 -20 15 8 14 22 14 30 1z m2343 -1 c-2 -6 -8 -10 -13
-10 -5 0 -11 4 -13 10 -2 6 4 11 13 11 9 0 15 -5 13 -11z m-1967 -12 c-1 -12
-15 -9 -19 4 -3 6 1 10 8 8 6 -3 11 -8 11 -12z m487 -4 c-2 -10 -10 -18 -18
-18 -8 0 -16 8 -18 18 -2 12 3 17 18 17 15 0 20 -5 18 -17z m536 -8 c3 -9 -1
-18 -10 -22 -19 -7 -28 2 -21 22 8 19 23 19 31 0z m-1994 -5 c0 -5 -4 -10 -10
-10 -5 0 -10 5 -10 10 0 6 5 10 10 10 6 0 10 -4 10 -10z m4100 -20 c0 -5 -4
-10 -10 -10 -5 0 -10 5 -10 10 0 6 5 10 10 10 6 0 10 -4 10 -10z m-4730 -40
c0 -5 -4 -10 -10 -10 -5 0 -10 5 -10 10 0 6 5 10 10 10 6 0 10 -4 10 -10z
m3276 -30 c17 0 13 -38 -5 -49 -16 -10 4 -53 51 -108 l32 -38 -33 30 c-18 17
-41 45 -52 62 -17 28 -24 31 -40 23 -16 -9 -21 -7 -29 15 -5 14 -15 25 -22 25
-7 0 2 14 20 31 17 16 32 35 32 42 0 6 7 1 16 -11 8 -12 22 -22 30 -22z
m-3366 5 c0 -8 -7 -15 -15 -15 -16 0 -20 12 -8 23 11 12 23 8 23 -8z m4535
-15 c-5 -8 -11 -8 -17 -2 -6 6 -7 16 -3 22 5 8 11 8 17 2 6 -6 7 -16 3 -22z
m145 5 c0 -8 -7 -15 -15 -15 -8 0 -15 7 -15 15 0 8 7 15 15 15 8 0 15 -7 15
-15z m-4330 -5 c0 -5 -4 -10 -9 -10 -6 0 -13 5 -16 10 -3 6 1 10 9 10 9 0 16
-4 16 -10z m1550 -21 c0 -5 -7 -9 -15 -9 -15 0 -20 12 -9 23 8 8 24 -1 24 -14z
m-960 -10 c0 -5 -7 -9 -15 -9 -15 0 -20 12 -9 23 8 8 24 -1 24 -14z m304 -20
c-8 -14 -34 -11 -34 4 0 8 3 17 7 20 9 9 34 -13 27 -24z m2790 -41 c50 -81
130 -247 141 -293 10 -46 1 -29 -48 85 -42 98 -88 187 -131 253 -10 15 -16 27
-13 27 3 0 26 -33 51 -72z m-3446 44 c2 -7 -3 -12 -12 -12 -9 0 -16 7 -16 16
0 17 22 14 28 -4z m4207 8 c3 -5 -1 -10 -9 -10 -9 0 -16 5 -16 10 0 6 4 10 9
10 6 0 13 -4 16 -10z m-275 -14 c0 -11 -19 -15 -25 -6 -3 5 1 10 9 10 9 0 16
-2 16 -4z m-610 -10 c0 -3 -4 -8 -10 -11 -5 -3 -10 -1 -10 4 0 6 5 11 10 11 6
0 10 -2 10 -4z m720 -6 c0 -5 -4 -10 -10 -10 -5 0 -10 5 -10 10 0 6 5 10 10
10 6 0 10 -4 10 -10z m-1684 -23 c7 2 11 -8 10 -26 -1 -24 -5 -29 -26 -28 -26
2 -51 38 -31 45 6 2 11 11 11 20 1 15 2 16 13 1 7 -9 17 -14 23 -12z m1884 -7
c0 -5 7 -10 16 -10 11 0 14 -5 10 -16 -3 -9 -6 -22 -6 -31 0 -9 -6 -13 -14
-10 -8 3 -17 1 -19 -6 -2 -7 -7 -9 -11 -5 -13 11 -14 61 -2 74 13 16 26 18 26
4z m-1605 -29 c3 -5 0 -13 -6 -16 -5 -4 -8 -14 -4 -23 5 -13 2 -12 -15 3 -15
14 -17 21 -9 32 13 15 25 17 34 4z m675 -7 c0 -8 -5 -12 -10 -9 -6 4 -8 11 -5
16 9 14 15 11 15 -7z m-3372 -18 c3 -13 -1 -17 -14 -14 -11 2 -20 11 -22 22
-3 13 1 17 14 14 11 -2 20 -11 22 -22z m1640 2 c-6 -18 -28 -21 -28 -4 0 9 7
16 16 16 9 0 14 -5 12 -12z m-1318 -8 c0 -5 -4 -10 -10 -10 -5 0 -10 5 -10 10
0 6 5 10 10 10 6 0 10 -4 10 -10z m-501 -71 c45 -9 47 -15 11 -34 -31 -16 -32
-19 -26 -58 l7 -42 -28 28 -29 27 -22 -22 c-26 -26 -38 -19 -22 13 11 20 9 25
-21 50 l-34 28 43 7 c23 3 42 10 42 15 0 4 5 20 11 36 l11 28 12 -35 c10 -27
20 -36 45 -41z m-319 45 c0 -17 -22 -14 -28 4 -2 7 3 12 12 12 9 0 16 -7 16
-16z m3254 -56 c10 -15 15 -28 12 -28 -8 0 -66 83 -66 94 0 12 29 -23 54 -66z
m1306 62 c0 -5 -7 -10 -16 -10 -8 0 -12 5 -9 10 3 6 10 10 16 10 5 0 9 -4 9
-10z m-2634 -28 c97 -71 170 -179 230 -340 23 -61 24 -112 2 -112 -5 0 -6 5
-2 12 5 7 3 8 -5 3 -9 -5 -10 -10 -2 -18 6 -6 11 -14 11 -18 0 -8 -53 2 -60
11 -3 4 -14 4 -25 0 -15 -6 -9 -9 28 -15 46 -7 48 -9 42 -34 -8 -30 -39 -63
-51 -53 -4 4 -4 1 1 -6 10 -18 -92 -118 -130 -128 -28 -7 -41 -2 -101 36 -19
12 -25 11 -49 -8 -28 -22 -59 -30 -53 -13 2 6 19 20 38 33 30 20 35 30 37 67
4 63 30 109 74 131 21 11 46 20 56 20 13 1 -49 29 -65 30 -1 0 -7 10 -12 23
-7 17 -9 18 -9 4 -1 -9 14 -26 32 -37 23 -14 27 -20 14 -20 -10 0 -32 14 -49
30 l-30 31 7 107 c6 93 4 116 -14 172 -21 67 -26 102 -14 113 15 16 63 5 99
-21z m-767 -7 c15 8 11 -45 -5 -68 -12 -18 -12 -18 -19 2 -3 11 -15 23 -26 26
-20 7 -27 25 -9 25 6 0 10 10 10 22 0 20 1 20 19 4 11 -10 24 -15 30 -11z
m436 16 c7 -12 -12 -24 -25 -16 -11 7 -4 25 10 25 5 0 11 -4 15 -9z m2735 -11
c0 -5 -5 -10 -11 -10 -5 0 -7 5 -4 10 3 6 8 10 11 10 2 0 4 -4 4 -10z m-499
-175 c46 -92 68 -147 64 -162 -4 -17 -1 -20 15 -16 14 4 20 -1 24 -18 30 -136
56 -284 55 -315 0 -24 -9 6 -24 81 -31 163 -43 205 -58 200 -16 -6 -50 97 -43
128 3 12 3 16 0 10 -9 -21 -26 -15 -19 6 4 13 -15 60 -55 137 -33 64 -60 120
-60 123 1 17 40 -49 101 -174z m-1250 140 c-1 -15 -24 -12 -29 3 -3 9 2 13 12
10 10 -1 17 -7 17 -13z m1875 -30 c4 -8 9 -13 13 -11 4 3 8 -7 9 -20 1 -15 -2
-23 -9 -19 -5 4 -16 1 -24 -5 -12 -10 -18 -10 -30 0 -14 12 -14 15 0 30 8 9
15 22 15 28 0 17 20 15 26 -3z m225 -8 c-1 -12 -15 -9 -19 4 -3 6 1 10 8 8 6
-3 11 -8 11 -12z m-321 -12 c0 -8 -7 -15 -15 -15 -16 0 -20 12 -8 23 11 12 23
8 23 -8z m-1050 -35 c28 -55 25 -64 -5 -11 -26 44 -28 51 -20 51 2 0 14 -18
25 -40z m-2245 -27 c10 -35 31 -47 22 -13 -4 14 0 20 12 20 25 0 33 -11 19
-27 -9 -11 -9 -16 1 -23 20 -12 -1 -20 -58 -22 -41 -2 -55 2 -76 22 -30 28
-31 37 -8 62 11 13 27 18 47 16 25 -2 33 -9 41 -35z m-532 -53 c3 -21 4 -21 6
6 0 17 10 39 22 50 20 18 21 18 35 -1 16 -22 18 -59 4 -84 -8 -16 -3 -21 34
-35 25 -9 47 -24 50 -32 3 -8 -1 -54 -10 -102 -8 -48 -18 -151 -21 -229 -3
-79 -10 -143 -15 -143 -17 0 9 316 36 449 5 20 2 22 -17 17 -12 -3 -27 -6 -33
-6 -6 0 -9 -13 -6 -30 5 -34 4 -34 -33 -20 -26 10 -26 9 -20 -20 8 -36 -15
-42 -39 -9 l-14 21 -11 -21 c-12 -22 -51 -29 -51 -9 0 6 9 21 19 32 20 21 20
21 -12 21 -25 0 -33 5 -35 22 -2 12 -12 25 -23 28 -24 8 -20 27 9 40 13 6 22
20 24 40 2 22 8 29 21 27 11 -2 17 4 17 16 0 10 6 24 12 30 10 10 16 8 30 -10
9 -13 19 -34 21 -48z m2967 60 c-8 -5 -10 -10 -4 -10 5 0 15 5 22 12 18 18 27
1 14 -28 -7 -14 -8 -23 -2 -19 5 3 10 -3 10 -13 0 -27 -28 -92 -40 -92 -5 0 0
16 11 35 11 19 17 40 13 46 -4 7 -14 -3 -25 -27 -10 -22 -18 -32 -19 -24 0 11
-3 11 -12 2 -17 -17 -33 -15 -18 3 7 8 18 15 25 15 7 0 15 9 18 20 8 31 -65
-32 -90 -78 -21 -37 -21 -80 -1 -51 7 10 8 8 3 -7 -3 -12 8 -74 25 -138 37
-145 50 -275 39 -404 -22 -255 -100 -477 -246 -695 -66 -100 -189 -241 -203
-232 -4 2 16 28 44 57 70 72 170 214 228 325 161 305 203 632 121 943 -14 52
-28 109 -32 125 -7 33 -31 46 -31 17 0 -40 -94 -102 -155 -102 -32 0 -35 2
-35 30 0 16 9 52 20 79 12 30 16 53 10 56 -20 12 -10 46 18 58 15 6 33 17 40
24 15 14 218 82 247 82 17 1 17 -1 5 -9z m1088 -10 c7 -12 8 -20 2 -20 -5 0
-10 5 -10 10 0 6 -7 10 -15 10 -8 0 -15 5 -15 10 0 17 25 11 38 -10z m-965
-72 c94 -221 138 -399 136 -548 -2 -75 -2 -75 -10 28 -4 56 -13 128 -19 160
-16 73 -105 332 -136 395 -14 26 -20 47 -15 47 5 0 25 -37 44 -82z m1195 51
c-2 -6 -8 -10 -13 -10 -5 0 -11 4 -13 10 -2 6 4 11 13 11 9 0 15 -5 13 -11z
m-2030 -21 c24 -21 11 -48 -53 -104 -36 -32 -80 -81 -97 -108 -75 -118 -107
-155 -147 -167 -36 -11 -39 -14 -30 -36 15 -39 -1 -102 -35 -141 l-30 -34 23
-65 c23 -68 23 -80 -4 -70 -9 4 -15 19 -15 39 0 53 -23 78 -65 71 -21 -3 -35
-2 -35 5 0 5 -8 8 -18 5 -41 -10 -92 97 -87 182 2 17 3 40 4 53 1 15 5 21 13
16 7 -5 9 -2 5 8 -3 9 1 24 8 35 11 13 14 14 15 4 0 -8 3 -11 6 -8 4 3 15 2
25 -4 11 -5 19 -7 19 -5 0 3 -14 13 -32 22 l-31 16 24 19 c15 12 17 17 7 13
-29 -10 -20 13 15 40 55 42 209 136 223 136 7 0 15 -10 17 -22 l4 -23 2 23 c1
28 -17 36 -55 22 -28 -10 -28 -9 -9 6 87 71 283 113 333 72z m-611 -3 c-4 -8
2 -38 12 -67 10 -29 21 -70 25 -90 l7 -38 50 40 c28 22 54 40 59 40 4 0 19 12
34 26 14 15 26 22 26 16 0 -6 -36 -36 -81 -67 -77 -54 -81 -58 -77 -91 2 -18
2 -31 -1 -29 -2 3 -12 -16 -21 -43 -48 -133 -90 -198 -90 -139 0 29 40 149 69
206 20 38 21 48 12 92 -6 27 -18 66 -26 85 -18 43 -19 74 -4 74 6 0 9 -7 6
-15z m-1026 -18 c-10 -9 -11 -8 -5 6 3 10 9 15 12 12 3 -3 0 -11 -7 -18z m83
8 c-4 -8 -10 -12 -15 -9 -14 8 -10 24 6 24 9 0 12 -6 9 -15z m3132 -12 c-10
-10 -19 5 -10 18 6 11 8 11 12 0 2 -7 1 -15 -2 -18z m34 2 c0 -8 -4 -15 -10
-15 -5 0 -10 7 -10 15 0 8 5 15 10 15 6 0 10 -7 10 -15z m280 -5 c0 -5 -4 -10
-9 -10 -6 0 -13 5 -16 10 -3 6 1 10 9 10 9 0 16 -4 16 -10z m63 -4 c3 -8 0
-20 -8 -26 -10 -8 -14 -8 -18 2 -10 29 15 52 26 24z m-3765 -123 c-21 -71 -41
-150 -44 -176 -7 -48 -8 -49 -37 -44 -29 4 -30 3 -11 -12 17 -14 19 -31 20
-171 0 -85 6 -193 13 -240 6 -47 14 -98 16 -115 3 -21 2 -25 -4 -15 -5 8 -15
59 -22 112 -12 85 -15 95 -30 87 -23 -12 -48 16 -30 34 8 8 16 9 29 1 16 -10
17 -1 14 135 l-4 146 -34 22 -35 23 -10 -23 c-9 -20 -9 -20 -5 6 3 23 -1 30
-23 39 l-26 10 25 10 c14 6 35 14 47 18 12 5 24 21 28 39 8 37 22 48 38 31 9
-10 9 -11 0 -6 -9 5 -13 -2 -13 -23 0 -17 5 -31 10 -31 6 0 10 -7 10 -15 0
-33 18 -12 29 33 20 81 75 252 82 252 3 0 -11 -57 -33 -127z m3560 106 c-2 -6
-8 -10 -13 -10 -5 0 -11 4 -13 10 -2 6 4 11 13 11 9 0 15 -5 13 -11z m-4252
-20 c10 -17 -13 -36 -27 -22 -12 12 -4 33 11 33 5 0 12 -5 16 -11z m3474 -9
c20 11 21 10 10 -9 -7 -14 -7 -21 0 -21 6 0 6 -7 -2 -20 -8 -12 -15 -15 -19
-8 -4 6 -14 8 -22 5 -11 -4 -16 4 -19 33 -3 36 -2 38 13 24 14 -12 22 -13 39
-4z m-317 -72 c22 -77 54 -222 67 -306 9 -52 15 -71 23 -63 7 7 17 4 32 -11
l23 -22 -25 -19 c-24 -19 -24 -19 -48 3 -14 13 -21 28 -18 34 9 13 7 34 -14
150 -8 48 -19 83 -23 76 -5 -8 -10 -2 -14 15 -4 15 -5 30 -1 33 3 3 5 -3 6
-14 0 -10 3 -14 5 -8 3 6 -4 46 -16 88 -20 77 -23 96 -16 96 3 0 11 -24 19
-52z m-2305 19 c2 -10 -3 -17 -12 -17 -18 0 -29 16 -21 31 9 14 29 6 33 -14z
m362 7 c0 -17 -22 -14 -28 4 -2 7 3 12 12 12 9 0 16 -7 16 -16z m-704 -24 c10
0 14 -7 12 -17 -2 -10 -9 -17 -16 -16 -6 2 -18 -30 -29 -79 -9 -44 -19 -76
-21 -69 -2 6 4 46 14 89 9 42 17 88 17 102 -1 15 1 18 4 8 2 -10 11 -18 19
-18z m504 10 c0 -5 -4 -10 -10 -10 -5 0 -10 5 -10 10 0 6 5 10 10 10 6 0 10
-4 10 -10z m3140 -5 c0 -8 -7 -15 -15 -15 -16 0 -20 12 -8 23 11 12 23 8 23
-8z m240 5 c0 -5 -7 -10 -16 -10 -8 0 -12 5 -9 10 3 6 10 10 16 10 5 0 9 -4 9
-10z m150 -40 c0 -5 -7 -10 -16 -10 -8 0 -12 5 -9 10 3 6 10 10 16 10 5 0 9
-4 9 -10z m-3990 -15 c0 -8 -7 -15 -15 -15 -16 0 -20 12 -8 23 11 12 23 8 23
-8z m3070 -185 c6 -36 13 -75 16 -87 2 -13 0 -23 -4 -23 -5 0 -12 28 -16 63
-3 34 -15 96 -26 137 -11 41 -19 84 -19 95 1 27 36 -104 49 -185z m-4089 177
c-1 -12 -15 -9 -19 4 -3 6 1 10 8 8 6 -3 11 -8 11 -12z m694 -122 c-8 -55 -15
-126 -15 -158 0 -41 -3 -56 -11 -51 -8 5 -10 33 -6 91 9 121 29 246 38 231 4
-8 1 -59 -6 -113z m3141 114 c10 -17 -13 -36 -27 -22 -12 12 -4 33 11 33 5 0
12 -5 16 -11z m-219 -31 c-3 -8 -6 -5 -6 6 -1 11 2 17 5 13 3 -3 4 -12 1 -19z
m1279 -9 c10 -17 -13 -36 -27 -22 -12 12 -4 33 11 33 5 0 12 -5 16 -11z
m-1026 -105 c12 -54 24 -148 27 -207 5 -89 9 -107 21 -102 18 7 44 -26 31 -41
-5 -6 -13 -35 -18 -65 l-9 -54 -1 43 c-1 52 -21 56 -22 5 -1 -51 -37 -246 -38
-206 -1 17 6 67 14 110 8 43 15 93 15 112 0 28 -3 33 -20 28 -22 -6 -26 3 -8
21 8 8 8 15 -3 28 -12 16 -12 17 3 11 25 -9 32 27 24 116 -7 74 -32 242 -43
287 -3 14 -3 22 0 19 4 -3 16 -50 27 -105z m-3106 -11 c-7 -114 -10 -126 -20
-99 -9 24 6 206 17 206 6 0 7 -42 3 -107z m-104 52 c0 -8 -7 -15 -15 -15 -8 0
-15 7 -15 15 0 8 7 15 15 15 8 0 15 -7 15 -15z m-570 -20 c0 -8 -7 -15 -15
-15 -8 0 -15 7 -15 15 0 8 7 15 15 15 8 0 15 -7 15 -15z m80 0 c0 -8 -7 -15
-15 -15 -8 0 -15 7 -15 15 0 8 7 15 15 15 8 0 15 -7 15 -15z m1488 -2 c5 -17
-26 -29 -40 -15 -6 6 -7 15 -3 22 9 14 37 9 43 -7z m3374 -25 c-9 -9 -15 -9
-24 0 -10 10 -10 15 2 22 20 12 38 -6 22 -22z m-4747 -33 c-3 -32 -8 -37 -29
-29 -19 7 -20 20 -3 39 19 23 36 17 32 -10z m4485 4 c0 -5 -7 -9 -15 -9 -15 0
-20 12 -9 23 8 8 24 -1 24 -14z m-3867 -4 c1 -5 -6 -11 -15 -13 -11 -2 -18 3
-18 13 0 17 30 18 33 0z m807 -30 c0 -8 -7 -15 -15 -15 -8 0 -15 7 -15 15 0 8
7 15 15 15 8 0 15 -7 15 -15z m2708 -120 c-1 -59 -1 -59 -14 30 l-13 90 6
-120 c9 -199 8 -315 -4 -315 -12 0 -10 422 2 440 13 20 24 -42 23 -125z m191
40 c6 -38 14 -144 17 -235 7 -195 -7 -306 -62 -470 -35 -107 -129 -290 -151
-298 -7 -2 2 23 21 56 29 51 32 62 18 67 -12 4 -13 8 -3 18 9 9 14 9 20 -1 5
-9 18 9 38 55 107 238 129 486 77 866 -9 71 13 20 25 -58z m-3604 -294 c16
-111 14 -148 -4 -59 -16 80 -31 262 -30 358 2 74 3 66 10 -55 5 -77 16 -187
24 -244z m-507 335 c6 -29 -15 -43 -35 -24 -14 14 -14 20 -3 33 16 19 34 15
38 -9z m4392 -12 c0 -17 -22 -14 -28 4 -2 7 3 12 12 12 9 0 16 -7 16 -16z
m-4890 -9 c0 -8 -9 -15 -20 -15 -11 0 -20 7 -20 15 0 8 9 15 20 15 11 0 20 -7
20 -15z m4489 -210 c0 -71 -4 -161 -9 -200 -14 -103 -50 -248 -66 -264 -9 -10
-7 6 6 50 41 132 53 236 53 439 0 123 3 178 8 150 4 -25 8 -103 8 -175z m157
188 c-10 -10 -19 5 -10 18 6 11 8 11 12 0 2 -7 1 -15 -2 -18z m-3891 -12 c3
-17 1 -39 -5 -50 -10 -19 -8 -21 24 -21 72 0 88 -23 27 -40 -33 -9 -38 -13
-33 -35 5 -30 -20 -44 -46 -24 -15 13 -16 12 -4 -3 8 -10 9 -19 3 -22 -5 -4
-17 4 -25 16 -13 19 -19 20 -41 10 -38 -17 -55 -15 -55 9 0 11 4 17 10 14 6
-3 7 1 4 9 -3 9 -12 16 -20 16 -8 0 -14 7 -14 15 0 9 9 15 21 15 20 0 20 1 -6
31 -14 18 -25 39 -23 48 5 26 43 24 76 -4 l30 -25 22 35 c26 43 46 45 55 6z
m2700 -1 c-5 -8 -11 -8 -17 -2 -6 6 -7 16 -3 22 5 8 11 8 17 2 6 -6 7 -16 3
-22z m695 -10 c10 -25 15 -28 27 -18 11 9 16 9 24 -3 5 -8 7 -20 4 -26 -3 -9
8 -11 43 -7 l47 5 -24 -20 c-30 -27 -15 -27 24 -1 17 11 41 20 54 20 22 0 23
-3 18 -36 -3 -20 -13 -44 -22 -54 -18 -20 -82 -31 -106 -19 -14 7 -15 3 -8
-34 10 -53 11 -167 2 -167 -5 0 -6 29 -5 65 3 58 1 68 -22 96 -29 34 -34 31
-10 -6 21 -33 7 -32 -28 2 -22 21 -31 24 -40 15 -20 -20 -41 -14 -36 11 4 20
1 22 -29 19 -31 -4 -45 9 -23 23 5 3 -4 26 -20 52 -17 26 -28 49 -25 51 2 2
24 -3 49 -11 41 -14 46 -14 46 -1 0 8 -4 12 -10 9 -5 -3 -10 3 -10 13 0 29 37
35 55 9 8 -12 15 -16 15 -10 0 7 -4 15 -10 18 -5 3 -10 15 -10 26 0 27 14 17
30 -21z m-2630 15 c0 -8 -4 -15 -10 -15 -5 0 -10 7 -10 15 0 8 5 15 10 15 6 0
10 -7 10 -15z m-1270 -50 c0 -8 -7 -15 -15 -15 -16 0 -20 12 -8 23 11 12 23 8
23 -8z m3445 -104 c-8 -107 -37 -256 -71 -364 -48 -153 -169 -381 -249 -472
-35 -39 -23 -18 44 80 57 83 157 284 185 370 35 108 67 275 73 377 4 65 10
105 16 101 5 -3 6 -40 2 -92z m1155 58 c0 -5 -7 -9 -15 -9 -15 0 -20 12 -9 23
8 8 24 -1 24 -14z m-1615 -10 c0 -7 -8 -15 -17 -17 -18 -3 -25 18 -11 32 10
10 28 1 28 -15z m-2285 -4 c0 -8 -7 -15 -15 -15 -16 0 -20 12 -8 23 11 12 23
8 23 -8z m-116 -97 c8 -98 38 -239 61 -294 19 -44 37 -120 25 -107 -19 19 -82
244 -92 323 -5 47 -13 102 -18 123 -6 27 -5 37 5 37 8 0 14 -27 19 -82z m1251
42 c-5 -8 -11 -8 -17 -2 -6 6 -7 16 -3 22 5 8 11 8 17 2 6 -6 7 -16 3 -22z
m-1912 -12 c6 -19 -3 -38 -18 -38 -18 0 -28 17 -21 35 7 18 33 20 39 3z m510
-161 c7 -107 16 -170 32 -223 6 -19 6 -19 -9 0 -9 11 -16 15 -16 9 0 -21 59
-190 89 -258 18 -39 25 -62 16 -55 -18 15 -46 75 -86 190 -22 62 -32 110 -35
175 -3 49 -9 94 -14 100 -10 12 -11 204 -2 220 10 16 19 -37 25 -158z m3907
153 c0 -5 -5 -10 -11 -10 -5 0 -7 5 -4 10 3 6 8 10 11 10 2 0 4 -4 4 -10z
m190 -21 c0 -24 -23 -21 -28 4 -2 10 3 17 12 17 10 0 16 -9 16 -21z m-4015
-36 c12 -100 28 -189 41 -227 16 -44 17 -56 6 -56 -11 0 -50 159 -58 230 -3
30 -7 65 -10 78 -2 12 0 22 5 22 5 0 12 -21 16 -47z m4285 21 c0 -8 -7 -14
-15 -14 -15 0 -21 21 -9 33 10 9 24 -2 24 -19z m-2232 -2 c2 -7 -6 -12 -17
-12 -21 0 -27 11 -14 24 9 9 26 2 31 -12z m-2328 -64 c8 -25 14 -28 55 -28 25
0 45 -2 45 -5 0 -3 -16 -20 -36 -37 -32 -28 -35 -34 -29 -70 8 -45 1 -47 -37
-11 -28 27 -28 27 -64 9 -42 -19 -50 -16 -35 12 18 34 13 59 -16 78 l-28 19
44 5 c42 5 45 7 59 50 16 48 16 47 42 -22z m3674 -46 c-4 -51 -11 -92 -17 -92
-5 0 -6 7 -3 16 3 9 6 54 6 102 0 57 3 83 10 76 6 -6 8 -45 4 -102z m-1706 63
c2 -21 -10 -50 -40 -99 -52 -83 -70 -98 -95 -73 -16 15 -16 17 -1 17 9 0 19 4
22 8 3 5 -8 6 -24 4 l-30 -4 25 -30 c14 -16 25 -34 25 -39 0 -13 -38 -49 -52
-49 -16 0 -48 31 -48 47 0 7 -5 13 -10 13 -6 0 -10 -6 -9 -12 3 -27 -1 -48
-11 -48 -5 0 -10 7 -10 15 0 21 22 65 30 60 4 -3 10 9 13 25 5 23 10 28 24 23
16 -5 16 -4 -1 9 -17 14 -16 17 25 68 44 53 120 103 149 98 9 -2 16 -16 18
-33z m1045 1 c15 -12 16 -15 2 -26 -9 -7 -14 -19 -11 -27 3 -7 1 -13 -4 -13
-6 0 -10 5 -10 10 0 6 -9 10 -20 10 -11 0 -20 7 -20 15 0 8 7 15 15 15 8 0 15
7 15 15 0 18 9 19 33 1z m-2123 -15 c0 -11 -5 -21 -11 -23 -8 -3 -9 -10 -2
-23 6 -11 20 -60 32 -110 40 -161 144 -354 270 -499 33 -39 58 -73 55 -77 -2
-4 23 -31 56 -60 33 -29 58 -54 55 -57 -14 -14 -367 326 -371 358 -1 6 -2 15
-3 20 0 6 -7 9 -13 8 -7 -2 -12 3 -10 10 1 7 -7 30 -18 52 -38 74 -5 40 40
-42 31 -56 76 -114 143 -185 55 -57 104 -103 109 -103 5 0 -20 33 -58 73 -75
81 -133 166 -189 276 l-37 75 -19 -25 c-23 -30 -23 -43 -2 -76 10 -14 13 -24
8 -22 -6 3 -23 11 -38 19 -27 13 -30 12 -48 -10 l-19 -25 0 23 c0 17 -10 27
-42 41 -44 19 -41 27 12 33 20 2 26 10 30 38 4 19 11 43 16 53 9 16 12 12 23
-23 11 -37 15 -41 34 -35 12 4 29 7 38 8 13 1 14 5 6 19 -9 13 -13 14 -20 5
-5 -7 -6 -4 -3 9 4 11 -1 41 -10 65 -25 70 -43 169 -37 201 6 32 23 38 23 9z
m848 -32 c-3 -8 -7 -3 -11 10 -4 17 -3 21 5 13 5 -5 8 -16 6 -23z m-1318 6 c0
-8 -4 -15 -9 -15 -13 0 -22 16 -14 24 11 11 23 6 23 -9z m425 -78 c8 -48 24
-110 35 -139 17 -45 20 -71 6 -57 -11 10 -57 187 -62 238 -10 84 4 57 21 -42z
m3105 62 c0 -5 -4 -9 -10 -9 -5 0 -10 7 -10 16 0 8 5 12 10 9 6 -3 10 -10 10
-16z m240 7 c0 -8 -4 -17 -9 -21 -12 -7 -24 12 -16 25 9 15 25 12 25 -4z
m-3135 -14 c0 -18 -20 -15 -23 4 -3 10 1 15 10 12 7 -3 13 -10 13 -16z m643
-17 c42 -22 52 -33 52 -54 0 -19 -3 -22 -12 -13 -15 15 -28 15 -28 1 0 -5 5
-7 10 -4 6 3 10 -2 10 -13 0 -23 -62 -107 -90 -122 -38 -20 -95 24 -70 55 8 9
4 11 -14 8 -17 -4 -35 5 -64 31 -22 20 -43 36 -48 36 -4 0 1 -7 12 -15 17 -13
12 -14 -56 -8 -89 7 -122 17 -114 36 5 14 64 52 64 41 0 -3 12 1 26 11 53 35
97 45 184 42 71 -3 93 -8 138 -32z m1762 -15 c0 -11 -5 -19 -12 -17 -14 2 -25
-40 -27 -100 0 -24 -5 -43 -11 -43 -12 0 -12 9 0 86 6 34 11 73 12 87 2 21 5
24 20 16 10 -5 18 -19 18 -29z m-906 4 c20 -19 20 -24 0 -52 -8 -12 -20 -19
-26 -16 -7 5 -8 2 -3 -6 5 -8 2 -17 -6 -24 -25 -19 -49 -82 -49 -130 0 -38 -5
-52 -27 -72 l-26 -24 21 -23 c33 -35 44 -74 32 -116 -14 -52 -13 -57 21 -95
43 -50 31 -68 -13 -21 -36 38 -37 39 -76 27 -53 -16 -83 -3 -112 52 -13 22
-33 52 -46 66 -12 14 -27 37 -33 52 -10 26 -9 27 27 33 64 11 69 14 14 11 -77
-5 -82 15 -29 117 31 60 54 91 99 128 33 27 64 46 70 43 7 -4 8 -2 4 5 -5 7
11 20 46 36 63 28 91 31 112 9z m1076 -4 c0 -5 -4 -10 -10 -10 -5 0 -10 5 -10
10 0 6 5 10 10 10 6 0 10 -4 10 -10z m290 3 c0 -5 -10 -33 -21 -63 -12 -30
-23 -71 -24 -90 -2 -39 -47 -169 -52 -153 -2 5 8 42 22 80 14 39 25 73 25 77
0 4 -17 -11 -38 -34 -22 -22 -48 -40 -60 -40 -20 0 -52 24 -52 39 0 14 24 31
45 32 20 0 20 1 0 8 -18 7 -13 14 42 69 33 34 53 57 43 52 -21 -11 -120 -120
-120 -132 0 -16 -25 -7 -54 19 -31 28 -31 27 2 -7 17 -20 32 -41 32 -46 0 -6
-13 -20 -28 -31 l-28 -21 4 30 c4 24 -1 35 -22 52 -17 13 -28 32 -29 51 -2 27
1 30 33 33 19 2 42 10 50 17 42 38 230 85 230 58z m-3260 -33 c0 -5 -4 -10
-10 -10 -5 0 -10 5 -10 10 0 6 5 10 10 10 6 0 10 -4 10 -10z m-125 -12 c5 4 5
1 1 -5 -4 -7 -3 -20 2 -29 8 -15 12 -14 27 9 21 32 35 27 35 -14 0 -24 4 -29
25 -29 33 0 32 -23 -2 -49 -16 -12 -20 -18 -10 -15 23 8 22 -11 -5 -41 -21
-24 -22 -24 -42 -7 -20 16 -20 16 -6 -1 12 -17 12 -20 -3 -28 -15 -9 -15 -13
3 -60 11 -27 31 -72 45 -99 14 -28 22 -50 17 -50 -19 0 -92 172 -92 218 0 24
-1 24 -18 9 -40 -36 -75 -12 -44 30 l19 26 -33 30 c-19 16 -31 33 -28 38 3 5
23 9 46 9 l40 0 -7 37 c-6 31 -4 35 8 25 7 -7 18 -8 22 -4z m2972 -50 c-2 -13
-4 -5 -4 17 -1 22 1 32 4 23 2 -10 2 -28 0 -40z m-3381 11 c10 -17 -13 -36
-27 -22 -12 12 -4 33 11 33 5 0 12 -5 16 -11z m4419 -9 c4 -6 11 -8 16 -5 13
9 11 -8 -3 -28 -11 -14 -16 -14 -31 -3 -10 8 -15 20 -11 30 7 18 20 21 29 6z
m-225 -15 c0 -8 -7 -15 -15 -15 -8 0 -15 7 -15 15 0 8 7 15 15 15 8 0 15 -7
15 -15z m-2125 -66 c-8 -19 -13 -25 -9 -14 3 11 9 36 12 55 5 25 7 29 10 14 2
-12 -4 -37 -13 -55z m640 31 c-5 -8 -11 -8 -17 -2 -6 6 -7 16 -3 22 5 8 11 8
17 2 6 -6 7 -16 3 -22z m550 -18 c-7 -8 -65 30 -60 39 4 5 18 0 34 -13 16 -13
27 -24 26 -26z m-3225 28 c0 -5 -2 -10 -4 -10 -3 0 -8 5 -11 10 -3 6 -1 10 4
10 6 0 11 -4 11 -10z m3350 -10 c0 -15 -12 -26 -39 -38 l-38 -18 32 -24 c48
-36 73 -78 85 -140 10 -52 9 -55 -17 -76 -18 -14 -29 -18 -31 -11 -2 7 -21 26
-43 42 -49 36 -74 69 -114 149 -19 38 -43 69 -64 84 l-34 22 44 0 c24 0 55 -6
69 -13 41 -21 62 -28 55 -17 -3 6 0 10 7 10 7 0 27 11 43 25 37 30 45 31 45 5z
m-3252 -65 c18 -94 50 -173 73 -180 20 -7 24 -22 10 -43 -5 -9 -18 7 -39 50
-43 88 -84 238 -65 238 4 0 14 -29 21 -65z m1881 -57 c1 -10 7 -18 15 -18 14
0 54 -120 64 -192 7 -52 -12 -44 -29 12 -7 22 -16 37 -22 33 -5 -3 -7 3 -3 13
3 11 1 26 -4 34 -6 10 -7 -18 -3 -81 l6 -95 -29 -23 c-20 -16 -37 -21 -55 -17
-32 6 -41 -4 -58 -61 -11 -39 -27 -61 -37 -51 -2 3 3 21 11 41 21 52 19 80
-10 107 -29 27 -32 58 -10 100 17 32 38 41 29 13 -3 -10 2 -6 11 9 8 15 35 39
60 54 25 14 45 28 45 30 0 4 -39 -16 -110 -56 -49 -28 -71 -25 -126 18 -45 36
-156 112 -200 138 -16 10 -17 13 -5 28 11 13 33 16 115 16 118 0 200 -13 271
-43 28 -11 51 -21 53 -22 2 -2 8 -24 16 -62 3 -18 16 -29 16 -14 0 7 -5 32
-11 57 -10 37 -21 51 -70 87 -32 23 -59 45 -59 49 0 4 29 -14 64 -40 36 -26
65 -55 65 -64z m-2360 32 c14 0 32 -4 40 -9 11 -7 7 -13 -16 -25 -35 -18 -43
-33 -43 -84 -1 -39 -4 -37 -36 15 -10 15 -15 16 -34 5 -20 -12 -20 -11 -11 7
15 27 16 26 -29 46 -47 21 -51 35 -11 35 46 0 59 9 72 48 l13 37 14 -37 c12
-30 20 -38 41 -38z m1001 60 c0 -5 -2 -10 -4 -10 -3 0 -8 5 -11 10 -3 6 -1 10
4 10 6 0 11 -4 11 -10z m2510 -19 c14 -10 25 -27 25 -37 0 -15 -7 -19 -32 -18
-42 2 -107 35 -111 56 -6 32 73 32 118 -1z m-2927 -64 c36 -110 34 -133 -3
-34 -40 108 -43 117 -33 117 5 0 21 -37 36 -83z m3287 48 c0 -15 -15 -42 -36
-65 -46 -50 -40 -63 6 -15 19 19 39 35 46 35 7 0 15 6 17 13 4 9 6 9 6 0 1 -7
-8 -17 -19 -23 -10 -6 -33 -30 -50 -55 -33 -47 -56 -60 -45 -24 5 15 4 19 -4
15 -18 -11 -13 -1 19 39 16 20 35 52 42 71 14 41 18 42 18 9z m-2947 -203 l46
-102 -24 -16 c-14 -9 -34 -32 -46 -51 -17 -28 -26 -33 -43 -28 -11 4 -34 9
-49 12 -19 4 -26 10 -23 22 2 9 7 26 11 38 8 28 61 73 85 73 10 0 33 -12 51
-27 l33 -28 -21 35 c-34 56 -103 227 -102 252 0 15 7 6 18 -27 10 -27 39 -96
64 -153z m-643 173 c0 -8 -7 -15 -15 -15 -8 0 -15 7 -15 15 0 8 7 15 15 15 8
0 15 -7 15 -15z m3676 -31 c-3 -26 -12 -60 -20 -75 -17 -34 -17 -35 27 -9 32
19 185 55 194 46 3 -2 -2 -17 -10 -33 -8 -15 -20 -48 -27 -73 -12 -44 -44 -90
-64 -90 -5 0 -30 -10 -54 -22 -43 -20 -47 -21 -89 -5 -40 15 -48 15 -71 2 -36
-20 -53 -34 -80 -69 -28 -37 -28 -44 2 -39 16 3 30 18 42 44 22 50 39 62 19
15 -19 -45 -19 -46 6 -46 19 0 20 -2 8 -17 -13 -16 -12 -17 3 -5 30 24 85 -2
119 -56 16 -25 29 -42 29 -36 0 5 -11 26 -25 47 -28 40 -22 45 30 23 42 -18
75 -69 75 -116 0 -39 -28 -106 -54 -133 -17 -16 -19 -16 -48 0 -72 42 -147
154 -153 227 -2 27 -6 31 -40 34 -50 5 -86 -5 -79 -21 3 -8 -6 -45 -20 -82
-14 -38 -23 -72 -20 -74 5 -6 81 80 76 86 -5 6 26 59 42 72 24 20 19 2 -10
-36 -30 -39 -23 -44 11 -7 14 15 25 21 25 15 0 -17 -132 -161 -147 -161 -6 0
-38 -23 -70 -51 -87 -77 -170 -139 -176 -133 -3 3 20 27 51 54 117 97 194 202
216 294 l7 29 -48 -41 c-63 -53 -119 -112 -107 -112 6 0 15 5 22 12 9 9 12 8
12 -6 0 -12 -7 -17 -23 -14 -17 2 -45 -17 -105 -72 -44 -40 -78 -78 -75 -83 3
-6 1 -7 -5 -3 -6 3 -27 -3 -46 -15 -47 -28 -46 -11 1 21 21 14 109 95 196 180
155 151 159 156 152 188 -3 18 -10 30 -15 27 -12 -8 -88 52 -104 82 -8 16 -31
44 -52 63 l-38 35 42 -50 c23 -27 37 -52 32 -53 -12 -4 50 -56 91 -78 15 -7
29 -21 33 -30 5 -14 4 -15 -8 -5 -7 6 -22 9 -32 5 -14 -4 -15 -3 -6 4 10 7 5
11 -18 16 -18 3 -43 6 -55 6 -36 0 -71 35 -95 97 -12 32 -34 68 -47 81 -14 13
-22 26 -18 30 4 4 10 2 12 -5 2 -7 10 -9 18 -7 8 3 49 -2 92 -10 91 -19 144
-52 179 -111 26 -45 30 -75 13 -106 -9 -18 -8 -19 9 -10 10 5 31 26 45 45 15
19 44 44 64 57 50 31 56 40 31 58 l-21 14 23 19 c12 10 28 18 35 18 14 0 48
35 51 53 8 43 38 147 42 147 3 0 2 -21 -2 -46z m-1566 26 c0 -5 -5 -10 -11
-10 -5 0 -7 5 -4 10 3 6 8 10 11 10 2 0 4 -4 4 -10z m20 -20 c0 -5 -5 -10 -11
-10 -5 0 -7 5 -4 10 3 6 8 10 11 10 2 0 4 -4 4 -10z m1088 4 c27 -8 28 -34 3
-65 -16 -20 -21 -21 -35 -10 -19 16 -22 81 -3 81 6 0 22 -3 35 -6z m-1763 -84
c-5 -8 -11 -8 -17 -2 -6 6 -7 16 -3 22 5 8 11 8 17 2 6 -6 7 -16 3 -22z m2665
5 c5 -14 16 -25 25 -25 8 0 15 -4 15 -10 0 -5 -7 -10 -15 -10 -8 0 -15 -9 -15
-20 0 -11 -4 -20 -10 -20 -5 0 -10 6 -10 14 0 8 -9 18 -20 21 -23 7 -27 25 -5
25 9 0 15 9 15 25 0 14 2 25 5 25 3 0 10 -11 15 -25z m-3670 -32 c29 -21 62
-50 73 -65 l20 -26 -27 -53 c-14 -29 -26 -59 -26 -66 0 -25 -20 -13 -39 25
-10 21 -27 64 -36 96 -9 31 -19 55 -22 53 -2 -3 9 -44 24 -91 l29 -86 -25 0
c-14 0 -46 14 -70 30 -24 17 -48 30 -53 30 -17 0 -8 83 13 116 20 32 64 74 79
74 3 0 31 -17 60 -37z m-472 16 c-2 -6 -8 -10 -13 -10 -5 0 -11 4 -13 10 -2 6
4 11 13 11 9 0 15 -5 13 -11z m3539 -111 c-19 -40 -46 -86 -59 -101 l-23 -28
3 58 c3 49 8 61 30 78 l27 20 -16 -25 c-22 -35 -32 -75 -15 -60 12 9 44 75 71
145 7 17 9 18 12 3 2 -9 -11 -50 -30 -90z m-160 25 c-3 -10 -5 -2 -5 17 0 19
2 27 5 18 2 -10 2 -26 0 -35z m1118 19 c0 -18 -20 -15 -23 4 -3 10 1 15 10 12
7 -3 13 -10 13 -16z m-2280 -42 c9 -16 13 -30 11 -30 -3 0 -12 14 -21 30 -9
17 -13 30 -11 30 3 0 12 -13 21 -30z m-1956 -50 c42 -16 86 -37 99 -46 l23
-16 -45 -29 -46 -28 -57 40 c-35 24 -74 41 -98 44 l-40 5 40 -13 c57 -19 77
-31 142 -86 54 -44 203 -204 176 -187 -7 4 -21 3 -30 -3 -20 -11 -109 19 -156
52 -43 30 -26 31 50 4 37 -14 77 -28 88 -32 11 -4 5 4 -13 18 -19 14 -52 42
-74 62 -21 20 -41 35 -44 32 -2 -2 14 -21 36 -41 22 -20 38 -36 35 -36 -20 0
-96 38 -120 60 -16 16 -63 49 -104 75 -65 42 -135 117 -133 142 2 14 63 22
131 17 36 -3 96 -17 140 -34z m1194 -30 c37 0 40 -12 7 -31 -23 -15 -30 -26
-30 -50 0 -32 0 -32 -20 -14 -16 14 -23 16 -32 7 -7 -7 -18 -12 -26 -12 -10 0
-10 4 2 22 21 29 20 35 -4 41 -29 8 -24 24 9 32 22 5 30 13 36 38 l7 32 14
-32 c10 -24 21 -33 37 -33z m-523 44 c0 -7 -76 -132 -117 -195 -22 -34 -68
-66 -127 -88 l-28 -11 20 25 c11 13 30 50 42 82 28 69 40 84 98 123 61 40 39
39 -24 -1 -27 -18 -69 -38 -94 -44 -25 -7 -53 -16 -64 -20 -17 -7 -17 -6 -6
16 31 61 83 96 159 109 58 10 141 12 141 4z m330 -29 c0 -8 -7 -15 -15 -15 -8
0 -15 7 -15 15 0 8 7 15 15 15 8 0 15 -7 15 -15z m-1570 -15 c0 -11 -4 -20 -9
-20 -14 0 -23 18 -16 30 10 17 25 11 25 -10z m1241 -11 c-5 -13 -10 -19 -10
-12 -1 15 10 45 15 40 3 -2 0 -15 -5 -28z m2066 17 c-7 -17 27 -129 40 -133 5
-2 20 8 33 22 32 34 39 32 37 -12 -2 -32 2 -39 28 -52 l30 -15 -30 -7 c-16 -4
-42 -10 -57 -13 -16 -4 -28 -14 -30 -26 -4 -30 -22 -29 -27 0 -4 28 -19 42
-41 35 -8 -2 -22 0 -30 5 -13 8 -12 10 4 10 18 0 18 1 1 20 -25 28 -14 48 24
42 36 -5 38 4 16 68 -18 51 -19 70 -4 70 6 0 9 -6 6 -14z m772 -30 c-6 -6 -13
-6 -21 2 -8 8 -8 15 2 28 13 15 15 14 21 -3 4 -10 3 -22 -2 -27z m588 -6 c29
0 30 -16 2 -31 -17 -8 -20 -17 -15 -40 5 -27 4 -29 -15 -19 -15 9 -24 8 -35
-1 -11 -9 -14 -7 -14 14 0 16 -8 31 -20 37 -28 15 -25 30 5 30 14 0 28 7 30
15 16 49 18 51 28 23 8 -20 18 -28 34 -28z m-3371 -34 c-9 -58 -21 -65 -41
-25 -18 34 -14 59 10 59 8 0 15 5 15 11 0 5 -4 7 -10 4 -11 -7 -14 8 -3 19 4
3 13 0 21 -8 11 -10 13 -26 8 -60z m-26 -116 c0 -36 -3 -41 -36 -55 -48 -20
-48 -20 -78 20 l-27 34 27 53 c15 29 34 63 42 76 15 23 15 23 43 -33 18 -33
29 -71 29 -95z m-512 83 c15 -28 25 -67 29 -113 3 -39 10 -73 14 -76 4 -2 6
10 4 28 -2 18 -7 55 -10 82 -3 27 -14 65 -25 83 -11 19 -20 35 -20 37 0 1 26
1 58 -2 52 -4 112 -24 112 -38 0 -3 -13 -22 -29 -42 -19 -24 -33 -57 -40 -96
-6 -33 -11 -61 -11 -62 0 -1 -13 -1 -29 0 -16 0 -28 3 -26 7 2 3 -36 47 -85
98 l-88 91 36 25 c52 36 81 30 110 -22z m2875 7 c3 -11 1 -18 -4 -14 -5 3 -9
-3 -9 -13 -1 -43 -74 -126 -188 -211 -40 -30 -79 -67 -87 -81 l-15 -26 4 25
c2 16 22 40 57 68 30 24 84 72 121 107 54 51 70 73 84 119 18 56 27 63 37 26z
m517 10 l23 -12 -24 -14 c-28 -16 -65 -17 -105 -5 -16 5 -46 12 -68 16 -38 6
-39 18 -1 28 34 10 149 1 175 -13z m-3147 -87 c-29 -59 -46 -83 -73 -97 l-35
-19 27 29 c26 28 63 112 54 122 -3 2 -10 -15 -17 -39 -8 -26 -34 -64 -65 -98
l-52 -56 17 -65 c10 -36 41 -113 70 -171 28 -59 54 -123 58 -143 3 -20 10 -36
14 -36 5 0 9 2 9 4 0 2 3 12 7 22 5 13 3 15 -8 9 -12 -7 -12 -6 -1 7 8 9 20
14 27 12 19 -8 41 30 61 106 10 36 21 69 26 74 16 19 17 -1 2 -58 -12 -46 -13
-61 -3 -70 9 -8 10 -8 4 2 -4 9 8 26 36 50 46 40 75 60 66 45 -8 -13 163 -132
191 -133 13 0 22 -6 22 -15 0 -8 -5 -15 -11 -15 -10 0 -106 62 -199 128 -16
12 -24 7 -71 -40 -29 -29 -50 -47 -45 -40 4 6 3 12 -1 12 -5 0 -19 -30 -31
-67 -21 -66 -21 -66 -2 -93 l20 -27 47 24 c42 22 58 24 129 21 65 -3 90 -9
126 -31 54 -31 112 -94 132 -142 8 -19 17 -35 20 -35 3 0 1 11 -6 24 -16 37
-4 54 59 84 49 23 72 27 143 27 71 0 94 -4 142 -27 146 -68 248 -230 248 -393
l0 -64 46 21 c57 25 159 22 216 -6 95 -46 169 -161 176 -274 4 -62 15 -75 40
-50 16 16 111 15 143 -2 32 -16 79 -61 79 -74 0 -6 -11 -23 -24 -37 -22 -25
-27 -26 -93 -22 -63 5 -76 3 -120 -21 l-49 -27 -41 19 c-23 10 -56 37 -75 62
-46 60 -113 93 -187 93 -58 -1 -141 -29 -155 -52 -15 -24 -26 -9 -26 37 0 64
-46 157 -104 210 -72 66 -138 95 -232 100 -73 4 -88 1 -140 -22 -64 -29 -68
-27 -78 34 -8 48 -76 150 -129 194 -134 109 -285 126 -413 45 -24 -16 -47 -29
-50 -29 -2 0 2 13 10 29 29 55 107 296 109 336 2 22 6 46 11 53 4 6 3 12 -3
12 -16 0 -51 -51 -51 -74 1 -18 3 -18 16 7 26 47 27 23 4 -49 -26 -77 -40 -71
-40 16 0 78 -22 155 -75 259 -25 51 -50 119 -57 155 -10 51 -16 65 -28 61 -15
-5 -72 -7 -101 -3 -9 1 -21 10 -28 20 -13 22 -3 23 23 3 26 -19 42 -19 26 0
-10 12 -10 15 3 15 9 0 28 -5 42 -12 19 -8 31 -8 50 0 14 6 24 15 23 19 -1 5
1 28 5 53 12 67 49 123 94 143 46 20 77 25 81 15 2 -4 -14 -43 -35 -85z m387
71 c0 -16 -16 -19 -25 -4 -8 13 4 32 16 25 5 -4 9 -13 9 -21z m2834 -18 c42
-17 74 -63 92 -129 18 -68 18 -70 -8 -56 -13 7 -41 12 -63 11 -58 -3 -81 15
-119 91 -19 37 -32 67 -30 67 34 0 100 -69 96 -100 -1 -11 0 -11 4 -2 5 10 16
5 42 -20 20 -18 12 -7 -17 25 -43 47 -51 61 -40 69 12 8 11 9 -1 5 -15 -5 -58
19 -49 26 9 9 45 26 52 27 4 0 23 -6 41 -14z m-1016 -20 c3 -13 -1 -17 -14
-14 -11 2 -20 11 -22 22 -3 13 1 17 14 14 11 -2 20 -11 22 -22z m-1712 -37 c3
-6 2 -15 -3 -20 -13 -13 -43 -1 -43 17 0 16 36 19 46 3z m-349 -56 c-2 -2 -19
0 -37 3 -30 7 -32 8 -15 20 16 12 21 11 37 -3 10 -9 17 -18 15 -20z m327 16
c20 -10 25 -19 24 -46 -1 -35 -12 -51 -23 -33 -3 5 -10 10 -15 10 -5 0 3 -12
18 -27 l27 -28 -23 -3 c-35 -5 -76 15 -102 50 -12 16 -41 38 -63 48 -41 19
-41 19 -17 29 35 14 144 13 174 0z m1566 -24 c36 -4 83 -11 105 -16 22 -5 50
-11 62 -13 99 -14 147 -174 73 -241 -19 -17 -20 -17 -20 4 0 12 -5 32 -12 44
-7 12 -15 45 -19 72 l-8 50 3 -57 c1 -32 -1 -58 -5 -58 -10 0 -69 75 -69 89 0
6 -6 11 -14 11 -7 0 -19 7 -26 15 -7 9 -27 25 -44 37 -17 11 -5 -3 27 -32 31
-28 57 -55 57 -60 0 -5 -10 -11 -22 -13 -19 -3 -17 -5 6 -6 44 -2 85 -43 54
-54 -7 -2 -2 -2 10 0 29 5 52 -13 52 -38 0 -23 5 -23 -61 0 -30 10 -69 16 -86
14 -46 -7 -98 45 -108 107 -4 25 -18 69 -31 99 -29 64 -30 75 -6 62 9 -5 46
-12 82 -16z m-1902 -6 c12 -5 27 -20 32 -34 11 -30 12 -97 1 -135 -6 -22 -9
-18 -20 29 -14 56 -57 115 -92 126 -16 5 -18 10 -8 21 11 14 35 12 87 -7z
m1230 0 c-2 -6 -8 -10 -13 -10 -5 0 -11 4 -13 10 -2 6 4 11 13 11 9 0 15 -5
13 -11z m-1007 -48 c20 -23 47 -45 60 -50 23 -8 23 -9 -14 -25 -25 -10 -36
-20 -31 -27 4 -8 3 -9 -4 -5 -7 4 -31 -6 -54 -22 -68 -46 -107 -64 -129 -57
-17 6 -19 12 -12 38 4 18 8 60 8 95 0 67 5 76 23 38 22 -48 25 -94 8 -127 -9
-18 -14 -34 -12 -36 2 -2 11 13 21 33 19 41 15 102 -10 137 -20 29 -19 34 13
46 49 19 93 6 133 -38z m205 39 c15 6 24 6 24 0 0 -6 -3 -10 -7 -11 -5 0 -16
-2 -25 -4 -9 -2 -23 4 -30 13 -10 14 -10 15 1 5 9 -8 21 -9 37 -3z m-479 -43
c34 -32 63 -101 63 -149 0 -91 -128 3 -183 135 l-16 37 32 9 c42 12 66 5 104
-32z m1848 -4 c-38 -28 -106 -65 -111 -61 -2 3 24 24 58 46 34 23 65 39 68 36
3 -3 -4 -12 -15 -21z m975 2 c0 -8 -4 -15 -9 -15 -13 0 -22 16 -14 24 11 11
23 6 23 -9z m-112 -26 c4 -36 -25 -47 -52 -20 -16 17 -17 22 -6 36 20 24 54
15 58 -16z m802 21 c0 -5 -7 -10 -15 -10 -8 0 -15 5 -15 10 0 6 7 10 15 10 8
0 15 -4 15 -10z m-3044 -16 c28 -13 94 -95 94 -117 0 -3 -24 -6 -54 -6 -64 0
-112 -12 -205 -51 -74 -32 -124 -37 -165 -19 -25 12 -25 12 27 36 28 13 59 30
67 38 23 20 108 46 180 55 57 6 59 8 20 8 -25 1 -63 -3 -85 -8 -60 -14 -54 -5
12 17 44 15 59 25 61 41 4 26 5 26 48 6z m324 -4 c0 -13 -7 -20 -20 -20 -19 0
-27 20 -13 33 13 14 33 6 33 -13z m1069 4 c-27 -33 -165 -118 -251 -155 -135
-59 -233 -81 -383 -86 -155 -6 -269 11 -422 62 -108 36 -263 109 -263 124 0 5
39 -10 87 -35 181 -91 355 -134 548 -134 190 0 319 31 490 116 50 25 115 62
145 83 63 45 67 47 49 25z m760 -36 c-15 -28 -161 -173 -189 -188 -41 -22 -21
15 30 54 27 21 73 64 101 97 52 60 80 77 58 37z m-1211 -15 c-2 -10 -10 -18
-18 -18 -8 0 -16 8 -18 18 -2 12 3 17 18 17 15 0 20 -5 18 -17z m1752 -43 c28
0 25 -14 -6 -29 l-26 -11 24 -19 c12 -11 19 -23 15 -28 -5 -4 -15 1 -23 12
-14 19 -15 19 -10 -7 6 -33 -7 -36 -27 -8 -10 14 -20 18 -32 14 -15 -6 -17 -3
-12 15 4 18 1 24 -14 28 -22 6 -26 23 -4 23 8 0 15 9 15 20 0 24 15 26 24 3 6
-14 9 -13 23 7 l16 23 8 -21 c5 -13 17 -22 29 -22z m555 -30 c-5 -8 -11 -8
-17 -2 -6 6 -7 16 -3 22 5 8 11 8 17 2 6 -6 7 -16 3 -22z m-865 12 c0 -13 -12
-22 -22 -16 -10 6 -1 24 13 24 5 0 9 -4 9 -8z m-1054 -13 c10 -17 -13 -36 -27
-22 -12 12 -4 33 11 33 5 0 12 -5 16 -11z m-2439 -31 c6 -7 14 -29 17 -48 7
-35 7 -35 -11 -14 -10 12 -24 30 -31 40 -10 16 -11 15 -1 -6 7 -14 23 -39 36
-56 31 -41 29 -48 -7 -29 -36 19 -50 50 -48 105 1 33 4 38 18 30 9 -5 21 -15
27 -22z m3533 17 c0 -8 -4 -15 -10 -15 -5 0 -10 7 -10 15 0 8 5 15 10 15 6 0
10 -7 10 -15z m-2221 -29 c87 -34 279 -80 384 -91 31 -4 55 -10 52 -14 -2 -5
-15 -7 -27 -5 -210 28 -299 49 -416 95 -71 28 -108 49 -88 49 5 0 48 -15 95
-34z m311 19 c0 -8 -7 -15 -15 -15 -8 0 -15 7 -15 15 0 8 7 15 15 15 8 0 15
-7 15 -15z m1356 -34 c90 -41 132 -159 104 -299 -22 -113 -20 -113 -85 -8 -32
53 -61 94 -63 91 -3 -2 19 -41 48 -86 41 -64 49 -83 40 -93 -9 -8 -11 -8 -7 0
9 15 -63 64 -94 64 -13 0 -35 6 -49 13 -23 11 -26 20 -31 92 -5 73 -4 82 17
107 l22 27 17 -26 c9 -14 17 -40 18 -59 1 -34 17 -38 17 -3 0 17 3 18 23 8 15
-8 11 -1 -13 22 -19 19 -52 55 -73 79 l-38 45 28 22 c34 28 65 29 119 4z
m-2871 -63 c42 -50 105 -171 105 -202 0 -11 -7 -30 -16 -41 -15 -20 -15 -20
-34 5 -29 37 -24 61 5 25 20 -24 25 -26 30 -13 8 21 -15 74 -54 122 -17 21
-31 51 -32 65 0 17 -13 36 -37 56 l-36 30 32 -41 c21 -26 30 -47 26 -57 -13
-34 -46 -15 -51 28 -2 11 -5 35 -7 52 -4 29 -2 32 14 23 10 -5 35 -29 55 -52z
m2640 43 l40 -19 -37 -16 c-21 -9 -43 -16 -50 -16 -7 -1 -29 -10 -48 -21 -35
-20 -31 -19 44 8 21 7 41 12 43 9 10 -10 -38 -84 -76 -114 -22 -18 -46 -43
-52 -55 -6 -12 12 0 40 28 52 49 52 50 47 20 -6 -30 -5 -30 6 3 10 31 13 32
63 32 62 0 65 -5 65 -90 0 -54 -2 -58 -27 -68 -16 -5 -37 -10 -48 -10 -40 -1
-205 -28 -212 -36 -4 -4 6 -4 22 0 35 8 33 5 -20 -26 -34 -20 -38 -21 -24 -4
11 13 14 25 9 39 -5 11 -9 50 -9 86 -1 46 -6 70 -16 79 -8 7 -12 17 -8 24 4 6
-4 4 -17 -5 -47 -30 -235 -100 -335 -124 -310 -74 -592 -46 -945 94 -62 25
-231 113 -272 143 -51 36 -29 37 25 1 133 -90 385 -190 588 -235 86 -18 135
-22 279 -22 200 -1 311 18 480 81 156 58 201 85 250 148 24 31 53 63 64 71 28
19 83 17 131 -5z m-1560 -20 c7 -12 -12 -24 -25 -16 -11 7 -4 25 10 25 5 0 11
-4 15 -9z m1045 -15 c0 -8 -4 -17 -9 -21 -12 -7 -24 12 -16 25 9 15 25 12 25
-4z m610 -5 c25 -48 -7 -91 -70 -91 -22 0 -40 5 -40 10 0 21 30 69 52 84 30
21 45 20 58 -3z m1164 -49 c4 -7 13 -12 21 -12 27 0 25 -19 -2 -32 -19 -9 -27
-20 -25 -34 2 -13 -3 -21 -12 -21 -8 0 -13 4 -10 9 9 14 -9 9 -29 -9 -20 -18
-20 -17 -14 13 5 27 2 33 -26 47 l-32 15 31 7 c23 5 38 18 55 48 l23 42 6 -31
c4 -17 10 -36 14 -42z m248 53 c0 -5 -5 -11 -11 -13 -6 -2 -11 4 -11 13 0 9 5
15 11 13 6 -2 11 -8 11 -13z m-1902 -5 c0 -5 -7 -10 -15 -10 -8 0 -15 5 -15
10 0 6 7 10 15 10 8 0 15 -4 15 -10z m1050 -10 c0 -5 -5 -10 -11 -10 -5 0 -7
5 -4 10 3 6 8 10 11 10 2 0 4 -4 4 -10z m100 -21 c0 -5 -4 -9 -10 -9 -5 0 -10
7 -10 16 0 8 5 12 10 9 6 -3 10 -10 10 -16z m-3684 -80 c4 -64 4 -64 -10 -29
-18 43 -21 119 -5 103 6 -6 13 -39 15 -74z m202 61 c34 -21 42 -40 16 -40 -23
0 -52 18 -64 40 -14 27 4 26 48 0z m3132 -13 c0 -7 -11 -17 -25 -24 -35 -16
-45 4 -14 28 24 18 39 17 39 -4z m-870 -8 c0 -5 -7 -9 -15 -9 -15 0 -20 12 -9
23 8 8 24 -1 24 -14z m-588 -4 c0 -5 -5 -11 -11 -13 -6 -2 -11 4 -11 13 0 9 5
15 11 13 6 -2 11 -8 11 -13z m-1575 -22 c28 -35 73 -107 73 -117 0 -12 -87 71
-101 97 -9 16 -5 37 8 37 3 0 12 -8 20 -17z m-401 -69 c25 -41 81 -104 93
-104 5 0 11 -10 14 -22 3 -13 17 -55 32 -95 14 -40 27 -101 30 -135 5 -60 4
-59 -11 22 -19 106 -58 193 -98 226 -17 13 -37 29 -43 35 -7 5 -13 20 -13 32
0 23 -49 92 -50 70 0 -7 9 -22 20 -33 28 -28 27 -52 -2 -41 -14 5 -26 21 -31
42 -4 19 -11 45 -14 58 l-6 25 29 -23 c16 -12 38 -38 50 -57z m2284 67 c0 -14
-18 -23 -30 -16 -6 4 -8 11 -5 16 8 12 35 12 35 0z m1525 -41 c13 0 26 -3 28
-8 7 -11 -29 -52 -38 -44 -4 4 -2 -3 4 -16 7 -12 16 -20 21 -17 6 3 7 -1 4 -9
-8 -21 -17 -20 -39 4 -24 27 -41 25 -70 -5 -15 -17 -26 -22 -30 -15 -4 7 7 26
24 44 l32 33 -23 16 -23 16 26 0 c16 1 30 8 34 19 6 16 7 16 16 0 6 -10 21
-18 34 -18z m-1277 -7 c-4 -22 -22 -20 -26 1 -2 10 3 16 13 16 10 0 15 -7 13
-17z m982 1 c0 -17 -22 -14 -28 4 -2 7 3 12 12 12 9 0 16 -7 16 -16z m-730 -4
c0 -40 -293 -149 -495 -184 -105 -19 -135 -20 -135 -6 0 6 18 10 40 10 54 0
247 42 343 74 98 33 237 96 237 107 0 5 2 9 5 9 3 0 5 -4 5 -10z m1670 -5 c0
-8 -7 -15 -15 -15 -8 0 -15 7 -15 15 0 8 7 15 15 15 8 0 15 -7 15 -15z m-3053
-42 c51 -26 93 -51 93 -55 0 -5 -45 14 -100 42 -90 45 -113 60 -93 60 4 0 49
-21 100 -47z m373 22 c0 -8 -7 -15 -15 -15 -16 0 -20 12 -8 23 11 12 23 8 23
-8z m362 -47 c-15 -15 -26 -4 -18 18 5 13 9 15 18 6 9 -9 9 -15 0 -24z m-2147
-8 c11 -17 -5 -32 -21 -19 -8 6 -14 15 -14 20 0 12 27 11 35 -1z m3775 6 c0
-2 -7 -7 -16 -10 -8 -3 -12 -2 -9 4 6 10 25 14 25 6z m-1114 -47 c9 -15 -11
-33 -30 -26 -9 4 -13 13 -10 22 7 17 30 20 40 4z m-2179 -51 c-2 -13 -4 -5 -4
17 -1 22 1 32 4 23 2 -10 2 -28 0 -40z m2628 42 c-23 -37 -291 -182 -401 -217
-30 -9 -54 -21 -54 -26 0 -5 8 -6 18 -2 9 4 31 9 47 12 17 3 32 6 33 8 2 2 23
-4 45 -14 23 -10 62 -19 86 -19 25 -1 52 -9 62 -18 10 -9 24 -14 31 -11 7 2
21 -3 32 -12 21 -19 143 -21 155 -3 19 31 114 42 147 17 27 -20 104 -20 104 1
0 13 6 11 31 -7 31 -21 31 -23 25 -80 -4 -33 -4 -59 0 -59 4 0 18 10 31 21 20
20 23 20 29 6 3 -9 10 -15 14 -12 5 3 15 -2 23 -10 17 -17 57 -20 57 -5 0 6
-7 10 -15 10 -8 0 -15 4 -15 9 0 5 9 7 20 4 11 -3 21 0 21 6 1 6 2 17 3 24 1
6 10 11 21 10 40 -5 65 7 65 30 1 22 1 22 15 -3 9 -17 10 -27 3 -31 -14 -9 -1
-29 20 -29 9 0 -1 -9 -23 -19 -51 -23 -101 -80 -115 -130 l-10 -40 -46 20
c-160 71 -373 -51 -391 -223 l-5 -53 -62 29 c-118 57 -254 46 -365 -29 l-49
-32 -21 27 c-30 42 -103 74 -154 67 -23 -2 -49 -8 -58 -11 -13 -6 -18 2 -24
41 -12 79 -44 149 -92 203 -45 50 -125 100 -160 100 -10 0 -27 6 -38 13 -12 8
-46 13 -83 13 l-62 -1 -6 35 c-3 19 -9 47 -14 62 -6 20 -5 28 2 28 7 0 4 6 -5
13 -14 10 21 12 185 13 233 0 338 15 500 68 111 36 265 110 369 175 64 41 86
50 74 31z m-122 -17 c-7 -2 -21 -2 -30 0 -10 3 -4 5 12 5 17 0 24 -2 18 -5z
m-67 -16 c-10 -7 -45 -29 -78 -50 -166 -105 -488 -170 -760 -153 -66 5 -124
13 -134 20 -14 11 -4 11 52 3 119 -16 403 -2 524 27 114 26 270 80 280 96 7
12 112 70 125 69 6 0 2 -6 -9 -12z m-877 -29 c10 3 12 0 7 -13 -4 -11 0 -22
11 -31 17 -13 17 -13 0 -14 -10 0 -16 -4 -12 -9 3 -5 0 -13 -6 -17 -8 -4 -9
-3 -5 4 4 7 3 12 -3 12 -5 0 -11 -5 -13 -11 -6 -18 -40 2 -35 22 3 11 -2 19
-17 24 -21 6 -21 6 3 16 17 7 22 15 18 30 l-6 21 22 -20 c12 -11 28 -17 36
-14z m-2181 -31 c25 -11 71 -46 102 -77 88 -88 180 -284 180 -383 0 -25 -9
-16 -64 66 -35 53 -68 116 -75 143 -7 26 -19 60 -27 77 -24 45 -93 116 -156
159 -32 21 -58 41 -58 44 0 9 47 -5 98 -29z m2707 -57 c0 -7 -6 -15 -12 -17
-8 -3 -13 4 -13 17 0 13 5 20 13 18 6 -3 12 -11 12 -18z m974 -22 c1 30 21 18
21 -13 0 -37 10 -55 32 -55 10 0 17 3 15 8 -3 4 10 7 29 8 l35 1 -30 -31 c-22
-23 -28 -35 -21 -46 12 -19 13 -33 1 -26 -5 3 -12 -1 -15 -10 -5 -14 -9 -14
-23 -3 -17 13 -17 12 0 -13 21 -33 21 -34 1 -42 -27 -10 -66 4 -59 23 4 9 -6
4 -23 -12 l-29 -28 5 54 c4 53 4 53 -38 81 -23 15 -39 23 -36 18 3 -6 2 -13
-3 -16 -5 -3 -11 3 -14 13 -4 18 0 19 43 16 51 -3 48 -6 80 70 l13 30 8 -25
c7 -25 7 -25 8 -2z m499 -6 c2 -7 -6 -12 -17 -12 -21 0 -27 11 -14 24 9 9 26
2 31 -12z m-974 -23 c-2 -4 4 -10 14 -14 14 -7 13 -9 -8 -14 -14 -4 -25 -14
-25 -23 0 -9 -4 -20 -8 -25 -5 -4 -7 -1 -5 7 2 8 -2 14 -9 13 -7 -2 -10 4 -7
12 4 8 -1 17 -10 21 -20 8 -21 24 -2 24 7 0 19 7 26 15 9 11 15 12 25 2 7 -7
11 -15 9 -18z m736 16 c0 -8 -7 -15 -15 -15 -8 0 -15 7 -15 15 0 8 7 15 15 15
8 0 15 -7 15 -15z m-2675 -84 c33 -17 72 -43 85 -58 14 -15 17 -21 7 -13 -10
7 -35 15 -55 17 -20 2 -67 8 -104 13 -37 6 -93 10 -125 10 -55 0 -62 -3 -137
-60 -44 -33 -81 -60 -84 -60 -6 0 39 62 67 93 91 100 217 121 346 58z m1952
23 c-3 -3 -12 -4 -19 -1 -8 3 -5 6 6 6 11 1 17 -2 13 -5z m823 -38 c0 -8 -8
-14 -19 -13 -11 0 -17 6 -14 14 7 18 33 17 33 -1z m90 -19 c0 -2 -12 -14 -27
-28 l-28 -24 24 28 c23 25 31 32 31 24z m-3803 -54 c-3 -10 -5 -4 -5 12 0 17
2 24 5 18 2 -7 2 -21 0 -30z m-119 -146 c32 -51 65 -106 72 -124 24 -63 4 -53
-51 24 -68 95 -78 113 -95 178 -18 65 -17 102 0 52 8 -21 41 -79 74 -130z
m259 21 c34 -113 28 -150 -40 -262 -29 -47 -62 -98 -74 -113 l-22 -28 5 45 c4
27 23 74 49 120 63 108 71 146 52 250 l-16 85 6 -105 c5 -104 5 -107 -26 -168
-32 -64 -49 -83 -30 -34 6 15 13 79 15 143 3 114 12 156 36 183 11 12 13 10
16 -8 1 -11 14 -60 29 -108z m3299 107 c1 -8 -1 -15 -6 -15 -10 0 -20 26 -13
34 8 8 16 -1 19 -19z m288 -27 c-9 -30 -7 -30 -37 -15 -31 14 -36 32 -8 24 10
-2 25 -1 32 4 20 13 21 11 13 -13z m-1821 -45 c-7 -2 -21 -2 -30 0 -10 3 -4 5
12 5 17 0 24 -2 18 -5z m-1434 -64 c-16 -34 -33 -59 -35 -56 -6 5 30 82 48
105 21 26 17 10 -13 -49z m-482 -201 c-3 -7 -5 -2 -5 12 0 14 2 19 5 13 2 -7
2 -19 0 -25z m54 -218 c-4 -3 -14 -23 -22 -45 l-14 -40 -3 52 c-2 38 2 57 15
73 l18 20 7 -27 c4 -15 4 -30 -1 -33z"/>
<path d="M3625 4275 c17 -13 35 -24 40 -25 6 0 -3 11 -20 25 -16 13 -34 24
-40 25 -5 0 4 -11 20 -25z"/>
<path d="M3727 3576 c4 -13 3 -17 -4 -13 -7 4 -10 0 -8 -10 3 -18 17 -19 45
-3 12 7 12 9 1 10 -8 0 -20 8 -27 18 -13 16 -14 16 -7 -2z"/>
<path d="M3831 3514 c0 -11 3 -14 6 -6 3 7 2 16 -1 19 -3 4 -6 -2 -5 -13z"/>
<path d="M3730 3484 c0 -10 5 -26 10 -34 8 -11 9 -7 4 15 -8 37 -14 45 -14 19z"/>
<path d="M3880 3486 c0 -2 7 -7 16 -10 8 -3 12 -2 9 4 -6 10 -25 14 -25 6z"/>
<path d="M3780 3450 c0 -16 4 -30 8 -30 5 0 7 14 4 30 -2 17 -6 30 -8 30 -2 0
-4 -13 -4 -30z"/>
<path d="M3781 3384 c0 -11 3 -14 6 -6 3 7 2 16 -1 19 -3 4 -6 -2 -5 -13z"/>
<path d="M1824 4104 c-18 -14 -18 -15 4 -4 12 6 22 13 22 15 0 8 -5 6 -26 -11z"/>
<path d="M1436 2984 c-4 -20 -5 -38 -3 -40 3 -3 8 11 11 32 4 20 5 38 3 40 -3
3 -8 -11 -11 -32z"/>
<path d="M2111 3434 c0 -11 3 -14 6 -6 3 7 2 16 -1 19 -3 4 -6 -2 -5 -13z"/>
<path d="M2183 3394 c9 -11 15 -23 13 -25 -2 -2 2 -10 10 -17 11 -10 14 -10
14 1 0 7 -12 24 -27 38 -20 17 -23 18 -10 3z"/>
<path d="M2135 3380 c10 -11 20 -20 23 -20 3 0 -3 9 -13 20 -10 11 -20 20 -23
20 -3 0 3 -9 13 -20z"/>
<path d="M2102 3360 c0 -14 2 -19 5 -12 2 6 2 18 0 25 -3 6 -5 1 -5 -13z"/>
<path d="M2165 3349 c-4 -6 -5 -12 -2 -15 2 -3 7 2 10 11 7 17 1 20 -8 4z"/>
<path d="M2261 3335 c4 -28 -2 -37 -18 -30 -15 5 -16 4 -4 -7 11 -11 15 -10
24 4 10 15 13 14 29 -10 10 -15 18 -22 18 -17 0 6 -11 24 -25 40 -14 17 -25
26 -24 20z"/>
<path d="M2150 3295 c0 -14 4 -25 9 -25 4 0 6 11 3 25 -2 14 -6 25 -8 25 -2 0
-4 -11 -4 -25z"/>
<path d="M2250 3274 c0 -6 7 -19 16 -30 14 -18 14 -18 3 6 -14 31 -19 36 -19
24z"/>
<path d="M2116 3251 c-4 -5 -2 -12 3 -15 5 -4 12 -2 15 3 4 5 2 12 -3 15 -5 4
-12 2 -15 -3z"/>
<path d="M2150 3210 c0 -16 4 -30 8 -30 5 0 7 14 4 30 -2 17 -6 30 -8 30 -2 0
-4 -13 -4 -30z"/>
<path d="M2101 3134 c0 -11 3 -14 6 -6 3 7 2 16 -1 19 -3 4 -6 -2 -5 -13z"/>
<path d="M2246 3141 c-3 -5 1 -14 9 -21 8 -7 12 -16 9 -21 -3 -5 0 -9 7 -9 7
0 24 -10 38 -22 15 -13 11 -6 -9 17 -19 22 -38 41 -43 43 -4 2 -5 8 -1 13 3 5
3 9 0 9 -3 0 -7 -4 -10 -9z"/>
<path d="M2350 3090 c6 -11 13 -20 16 -20 2 0 0 9 -6 20 -6 11 -13 20 -16 20
-2 0 0 -9 6 -20z"/>
<path d="M2258 3033 c7 -3 16 -2 19 1 4 3 -2 6 -13 5 -11 0 -14 -3 -6 -6z"/>
<path d="M2210 3020 c14 -4 36 -8 50 -8 22 0 22 1 -5 8 -16 4 -39 8 -50 8 -16
0 -15 -2 5 -8z"/>
<path d="M2158 2973 c7 -3 16 -2 19 1 4 3 -2 6 -13 5 -11 0 -14 -3 -6 -6z"/>
<path d="M2338 2963 c7 -3 16 -2 19 1 4 3 -2 6 -13 5 -11 0 -14 -3 -6 -6z"/>
<path d="M2108 2938 c6 -6 18 -8 28 -6 14 3 12 5 -9 10 -19 3 -25 2 -19 -4z"/>
<path d="M2225 2940 c-3 -6 1 -7 9 -4 18 7 21 14 7 14 -6 0 -13 -4 -16 -10z"/>
<path d="M2189 2913 c-13 -16 -12 -17 4 -4 9 7 17 15 17 17 0 8 -8 3 -21 -13z"/>
<path d="M2138 2893 c20 -4 21 -7 10 -21 -11 -15 -11 -15 3 -5 9 7 20 9 25 5
4 -4 2 1 -5 11 -7 9 -23 16 -35 16 -20 -2 -19 -2 2 -6z"/>
<path d="M2260 2855 c-24 -25 -42 -45 -39 -45 3 0 25 20 49 45 24 25 42 45 39
45 -3 0 -25 -20 -49 -45z"/>
<path d="M2200 2855 c-7 -9 -11 -17 -9 -20 3 -2 10 5 17 15 14 24 10 26 -8 5z"/>
<path d="M4101 3175 c1 -19 18 -51 18 -35 0 8 -4 22 -9 30 -5 8 -9 11 -9 5z"/>
<path d="M715 3240 c10 -11 20 -20 23 -20 3 0 -3 9 -13 20 -10 11 -20 20 -23
20 -3 0 3 -9 13 -20z"/>
<path d="M683 3153 c9 -2 23 -2 30 0 6 3 -1 5 -18 5 -16 0 -22 -2 -12 -5z"/>
<path d="M3673 3313 c9 -2 23 -2 30 0 6 3 -1 5 -18 5 -16 0 -22 -2 -12 -5z"/>
<path d="M3670 3290 c-9 -6 -10 -10 -3 -10 6 0 15 5 18 10 8 12 4 12 -15 0z"/>
<path d="M3643 3273 c4 -3 1 -13 -6 -22 -11 -14 -10 -14 5 -2 16 12 16 31 1
31 -4 0 -3 -3 0 -7z"/>
<path d="M3570 3240 c-8 -5 -28 -10 -45 -11 l-30 -2 28 -4 c54 -8 22 -42 -42
-45 l-46 -1 44 -6 44 -6 -43 -54 c-33 -41 -37 -50 -17 -35 15 10 27 22 27 26
0 5 22 39 50 78 27 38 49 70 47 70 -1 0 -9 -5 -17 -10z"/>
<path d="M3595 3189 c-4 -6 -5 -12 -2 -15 2 -3 7 2 10 11 7 17 1 20 -8 4z"/>
<path d="M2806 3234 c-9 -24 -2 -26 12 -4 7 11 8 20 3 20 -5 0 -12 -7 -15 -16z"/>
<path d="M2856 3237 c3 -10 9 -15 12 -12 3 3 0 11 -7 18 -10 9 -11 8 -5 -6z"/>
<path d="M2869 3183 c-13 -16 -12 -17 4 -4 9 7 17 15 17 17 0 8 -8 3 -21 -13z"/>
<path d="M2900 3169 c0 -5 5 -7 10 -4 6 3 10 8 10 11 0 2 -4 4 -10 4 -5 0 -10
-5 -10 -11z"/>
<path d="M2760 3146 c0 -2 13 -6 29 -8 17 -2 28 -1 25 4 -5 8 -54 12 -54 4z"/>
<path d="M2693 3103 c9 -2 23 -2 30 0 6 3 -1 5 -18 5 -16 0 -22 -2 -12 -5z"/>
<path d="M2783 3075 c0 -11 4 -12 14 -4 7 6 13 13 13 15 0 2 -6 4 -13 4 -8 0
-14 -7 -14 -15z"/>
<path d="M2756 3035 c-11 -8 -15 -15 -9 -15 6 0 16 7 23 15 16 19 11 19 -14 0z"/>
<path d="M2698 3033 c6 -2 18 -2 25 0 6 3 1 5 -13 5 -14 0 -19 -2 -12 -5z"/>
<path d="M2553 3013 c15 -2 37 -2 50 0 12 2 0 4 -28 4 -27 0 -38 -2 -22 -4z"/>
<path d="M2648 3003 c7 -3 16 -2 19 1 4 3 -2 6 -13 5 -11 0 -14 -3 -6 -6z"/>
<path d="M2761 2984 c-12 -26 -12 -26 -34 -8 -22 19 -22 19 -4 -2 9 -11 14
-24 10 -29 -5 -4 -3 -5 4 -1 18 10 56 66 45 66 -5 0 -14 -12 -21 -26z"/>
<path d="M2521 2986 c2 -2 15 -9 29 -15 24 -11 24 -11 6 3 -16 13 -49 24 -35
12z"/>
<path d="M2530 2944 c0 -2 25 -15 55 -29 39 -17 58 -32 65 -51 6 -15 13 -24
16 -22 9 10 -18 56 -40 66 -38 19 -96 41 -96 36z"/>
<path d="M2530 2916 c0 -2 8 -10 18 -17 15 -13 16 -12 3 4 -13 16 -21 21 -21
13z"/>
<path d="M2451 2864 c0 -11 3 -14 6 -6 3 7 2 16 -1 19 -3 4 -6 -2 -5 -13z"/>
<path d="M2503 2835 c0 -27 2 -38 4 -22 2 15 2 37 0 50 -2 12 -4 0 -4 -28z"/>
<path d="M2561 2825 c0 -5 8 -26 19 -45 11 -19 19 -30 19 -25 0 6 -8 26 -19
45 -11 19 -19 31 -19 25z"/>
<path d="M2625 2790 c10 -11 20 -20 23 -20 3 0 -3 9 -13 20 -10 11 -20 20 -23
20 -3 0 3 -9 13 -20z"/>
<path d="M1099 2933 c-13 -16 -12 -17 4 -4 9 7 17 15 17 17 0 8 -8 3 -21 -13z"/>
<path d="M712 2400 c0 -19 2 -27 5 -17 2 9 2 25 0 35 -3 9 -5 1 -5 -18z"/>
<path d="M2470 2480 c-9 -6 -10 -10 -3 -10 6 0 15 5 18 10 8 12 4 12 -15 0z"/>
<path d="M2379 2413 l-34 -38 38 34 c34 33 42 41 34 41 -2 0 -19 -17 -38 -37z"/>
<path d="M2073 2423 c9 -2 25 -2 35 0 9 3 1 5 -18 5 -19 0 -27 -2 -17 -5z"/>
<path d="M1996 2407 c-11 -8 -16 -20 -13 -28 4 -11 6 -11 6 2 1 9 11 21 24 27
12 6 17 11 11 11 -5 1 -18 -5 -28 -12z"/>
<path d="M2158 2413 c6 -2 18 -2 25 0 6 3 1 5 -13 5 -14 0 -19 -2 -12 -5z"/>
<path d="M1928 2343 c6 -2 18 -2 25 0 6 3 1 5 -13 5 -14 0 -19 -2 -12 -5z"/>
<path d="M2168 2343 c7 -3 16 -2 19 1 4 3 -2 6 -13 5 -11 0 -14 -3 -6 -6z"/>
<path d="M2118 2333 c7 -3 16 -2 19 1 4 3 -2 6 -13 5 -11 0 -14 -3 -6 -6z"/>
<path d="M2970 2363 c8 -3 22 -11 30 -17 13 -10 13 -9 1 7 -7 9 -21 17 -30 16
-13 0 -14 -1 -1 -6z"/>
<path d="M3006 2315 c4 -8 8 -15 10 -15 2 0 4 7 4 15 0 8 -4 15 -10 15 -5 0
-7 -7 -4 -15z"/>
<path d="M2991 2267 c-13 -21 -12 -21 5 -5 10 10 16 20 13 22 -3 3 -11 -5 -18
-17z"/>
<path d="M2810 2230 c-6 -11 -8 -20 -6 -20 3 0 10 9 16 20 6 11 8 20 6 20 -3
0 -10 -9 -16 -20z"/>
<path d="M2864 2178 c-16 -18 -22 -27 -14 -20 8 6 25 13 40 13 17 1 20 3 7 6
-14 4 -16 8 -6 19 23 28 2 13 -27 -18z"/>
<path d="M2948 2183 c7 -3 16 -2 19 1 4 3 -2 6 -13 5 -11 0 -14 -3 -6 -6z"/>
<path d="M2804 2128 l-19 -23 23 19 c21 18 27 26 19 26 -2 0 -12 -10 -23 -22z"/>
<path d="M2950 2134 c-17 -9 -20 -14 -9 -14 9 0 22 7 29 15 15 18 13 18 -20
-1z"/>
<path d="M2888 2113 c7 -3 16 -2 19 1 4 3 -2 6 -13 5 -11 0 -14 -3 -6 -6z"/>
<path d="M2749 2083 c-13 -16 -12 -17 4 -4 16 13 21 21 13 21 -2 0 -10 -8 -17
-17z"/>
<path d="M2868 2073 c12 -2 32 -2 45 0 12 2 2 4 -23 4 -25 0 -35 -2 -22 -4z"/>
<path d="M2964 2023 c10 -12 16 -29 13 -37 -4 -9 -3 -17 1 -20 19 -12 9 43
-11 60 l-22 19 19 -22z"/>
<path d="M2860 2020 c8 -5 20 -10 25 -10 6 0 3 5 -5 10 -8 5 -19 10 -25 10 -5
0 -3 -5 5 -10z"/>
<path d="M2815 1982 c11 -13 29 -28 40 -34 21 -11 18 -8 -30 32 -29 24 -29 24
-10 2z"/>
<path d="M2932 1984 c10 -10 20 -16 22 -13 3 3 -5 11 -17 18 -21 13 -21 12 -5
-5z"/>
<path d="M2976 1923 c-6 -14 -5 -15 5 -6 7 7 10 15 7 18 -3 3 -9 -2 -12 -12z"/>
<path d="M2927 1909 c12 -12 24 -21 27 -18 2 2 -8 13 -22 23 l-27 19 22 -24z"/>
<path d="M4338 2263 c7 -3 16 -2 19 1 4 3 -2 6 -13 5 -11 0 -14 -3 -6 -6z"/>
<path d="M3940 2176 c0 -2 8 -10 18 -17 15 -13 16 -12 3 4 -13 16 -21 21 -21
13z"/>
<path d="M3989 2112 c6 -12 18 -47 25 -79 8 -32 15 -49 15 -37 1 29 -27 122
-40 130 -8 4 -7 0 0 -14z"/>
<path d="M2260 2166 c0 -2 7 -7 16 -10 8 -3 12 -2 9 4 -6 10 -25 14 -25 6z"/>
<path d="M2393 2143 c9 -2 23 -2 30 0 6 3 -1 5 -18 5 -16 0 -22 -2 -12 -5z"/>
<path d="M2305 2129 c-3 -3 1 -12 9 -18 11 -9 15 -7 18 7 5 18 -18 27 -27 11z"/>
<path d="M2603 2073 c9 -2 23 -2 30 0 6 3 -1 5 -18 5 -16 0 -22 -2 -12 -5z"/>
<path d="M2402 2054 c10 -10 20 -16 22 -13 3 3 -5 11 -17 18 -21 13 -21 12 -5
-5z"/>
<path d="M2470 2050 c-9 -6 -10 -10 -3 -10 6 0 15 5 18 10 8 12 4 12 -15 0z"/>
<path d="M2598 2043 c7 -3 16 -2 19 1 4 3 -2 6 -13 5 -11 0 -14 -3 -6 -6z"/>
<path d="M2477 2019 c7 -7 15 -10 18 -7 3 3 -2 9 -12 12 -14 6 -15 5 -6 -5z"/>
<path d="M2530 1901 c0 -17 4 -32 8 -35 4 -2 6 11 4 30 -5 42 -12 45 -12 5z"/>
<path d="M2572 1860 c0 -14 2 -19 5 -12 2 6 2 18 0 25 -3 6 -5 1 -5 -13z"/>
<path d="M4342 2018 c-31 -29 -62 -60 -69 -69 -7 -9 -26 -22 -43 -29 -16 -7
-30 -16 -30 -21 0 -14 52 16 79 45 13 14 28 23 34 19 6 -3 7 -1 4 5 -4 5 16
31 44 56 28 25 48 46 44 46 -3 0 -32 -24 -63 -52z"/>
<path d="M4308 1923 c7 -3 16 -2 19 1 4 3 -2 6 -13 5 -11 0 -14 -3 -6 -6z"/>
<path d="M3941 1860 c14 -31 19 -36 19 -24 0 6 -7 19 -16 30 -14 18 -14 18 -3
-6z"/>
<path d="M4231 1724 c0 -11 3 -14 6 -6 3 7 2 16 -1 19 -3 4 -6 -2 -5 -13z"/>
<path d="M4242 1665 c0 -16 2 -22 5 -12 2 9 2 23 0 30 -3 6 -5 -1 -5 -18z"/>
<path d="M4252 1585 c0 -16 2 -22 5 -12 2 9 2 23 0 30 -3 6 -5 -1 -5 -18z"/>
<path d="M633 1863 c9 -2 23 -2 30 0 6 3 -1 5 -18 5 -16 0 -22 -2 -12 -5z"/>
<path d="M3657 1732 c-19 -20 -23 -37 -7 -27 10 6 33 45 27 45 -2 0 -11 -8
-20 -18z"/>
<path d="M1318 1559 c25 -25 47 -60 58 -91 9 -27 18 -47 21 -44 3 3 -2 26 -11
53 -15 45 -79 123 -100 123 -5 0 9 -19 32 -41z"/>
<path d="M3595 1310 c-3 -6 1 -7 9 -4 18 7 21 14 7 14 -6 0 -13 -4 -16 -10z"/>
<path d="M3658 1283 c7 -3 16 -2 19 1 4 3 -2 6 -13 5 -11 0 -14 -3 -6 -6z"/>
<path d="M3613 1125 c-3 -9 -3 -18 -1 -21 3 -3 8 4 11 16 6 23 -1 27 -10 5z"/>
<path d="M3378 1203 c7 -3 16 -2 19 1 4 3 -2 6 -13 5 -11 0 -14 -3 -6 -6z"/>
<path d="M3513 1155 c0 -22 2 -30 4 -17 2 12 2 30 0 40 -3 9 -5 -1 -4 -23z"/>
<path d="M4244 1135 c-10 -8 -14 -15 -8 -15 6 0 17 7 24 15 16 19 9 19 -16 0z"/>
<path d="M3010 760 c0 -5 7 -7 15 -4 8 4 15 8 15 10 0 2 -7 4 -15 4 -8 0 -15
-4 -15 -10z"/>
<path d="M2970 750 c0 -5 7 -7 15 -4 8 4 15 8 15 10 0 2 -7 4 -15 4 -8 0 -15
-4 -15 -10z"/>
<path d="M2938 743 c7 -3 16 -2 19 1 4 3 -2 6 -13 5 -11 0 -14 -3 -6 -6z"/>
<path d="M2865 730 c-4 -7 3 -8 22 -4 38 9 42 14 10 14 -14 0 -29 -5 -32 -10z"/>
<path d="M2787 723 c-4 -3 -83 -6 -177 -6 -94 0 -172 -3 -175 -7 -3 -4 1 -13
9 -19 26 -22 375 4 401 30 5 5 -2 9 -21 9 -17 0 -34 -3 -37 -7z"/>
<path d="M3863 713 c-16 -6 -5 -33 13 -33 8 0 14 6 14 14 0 18 -11 25 -27 19z"/>
<path d="M3104 639 c-3 -6 -2 -15 3 -20 5 -5 9 -1 9 11 0 23 -2 24 -12 9z"/>
<path d="M3142 630 c0 -14 2 -19 5 -12 2 6 2 18 0 25 -3 6 -5 1 -5 -13z"/>
<path d="M3512 619 c-18 -7 -21 -14 -16 -33 3 -13 1 -27 -5 -30 -19 -12 -13
-39 6 -32 11 5 23 0 33 -14 l16 -21 21 21 c32 29 28 82 -7 102 -17 10 -34 12
-48 7z m52 -29 c7 0 13 -6 13 -14 0 -8 -3 -15 -6 -14 -18 2 -21 -4 -11 -21 14
-27 -8 -40 -26 -16 -7 10 -20 15 -29 12 -17 -7 -21 8 -4 19 6 3 8 17 4 31 -3
15 -2 22 4 19 5 -4 13 -1 17 5 5 8 10 7 16 -5 5 -9 15 -16 22 -16z"/>
<path d="M4085 580 c-3 -6 1 -7 9 -4 18 7 21 14 7 14 -6 0 -13 -4 -16 -10z"/>
<path d="M3213 461 c-28 -24 -30 -28 -17 -45 8 -11 14 -15 14 -10 0 6 -5 15
-12 22 -9 9 -7 12 9 12 13 0 24 8 29 22 6 20 8 20 19 5 7 -9 17 -17 24 -17 16
0 14 -15 -4 -30 -8 -7 -15 -19 -15 -27 0 -11 -4 -13 -12 -5 -8 5 -22 6 -33 1
-18 -7 -17 -8 5 -8 15 -1 31 -6 38 -13 9 -9 12 -6 12 14 0 14 7 31 15 38 21
17 19 23 -13 47 l-28 20 -31 -26z"/>
<path d="M3982 644 c10 -10 20 -15 24 -12 3 4 -5 12 -18 18 -22 12 -22 12 -6
-6z"/>
<path d="M1432 760 c37 -4 93 -20 124 -34 31 -15 59 -25 61 -23 2 2 -24 17
-58 32 -43 19 -83 29 -128 31 l-66 3 67 -9z"/>
<path d="M1135 708 c-16 -28 -52 -73 -80 -101 -48 -49 -49 -50 -10 -22 22 16
46 36 52 45 21 25 75 121 72 125 -2 2 -17 -19 -34 -47z"/>
<path d="M4925 676 c-27 -13 -64 -37 -81 -53 -34 -31 -70 -93 -56 -93 5 0 16
16 25 35 26 56 106 107 192 125 l40 8 -35 1 c-19 0 -57 -10 -85 -23z"/>
<path d="M0 641 c0 -5 14 -11 32 -15 42 -8 94 -49 118 -94 14 -25 18 -29 14
-12 -11 39 -33 68 -70 90 -39 25 -94 42 -94 31z"/>
<path d="M5 483 c6 -5 30 -15 53 -22 28 -8 60 -28 87 -55 34 -34 46 -41 60
-33 48 26 189 -43 267 -132 41 -46 75 -123 83 -188 4 -29 10 -53 14 -53 11 0
-6 114 -23 152 -7 18 -29 53 -47 78 -20 27 -32 54 -30 68 4 32 -63 96 -118
113 -39 12 -50 11 -104 -8 l-60 -21 -24 28 c-13 16 -42 38 -66 49 -49 23 -107
39 -92 24z m384 -104 c31 -18 32 -22 18 -36 -14 -14 -18 -14 -46 6 -16 12 -47
28 -68 36 l-38 14 50 0 c34 1 61 -6 84 -20z m56 -49 c10 -31 -4 -44 -26 -24
-14 13 -16 20 -8 31 16 18 27 16 34 -7z"/>
<path d="M364 239 c35 -31 59 -67 96 -143 54 -110 65 -117 24 -16 -32 79 -74
141 -118 175 -52 40 -54 29 -2 -16z"/>
<path d="M1625 193 c-104 -15 -213 -71 -287 -148 -49 -51 -41 -58 9 -8 51 51
128 99 197 123 69 25 191 26 267 4 75 -22 180 -79 234 -126 25 -22 48 -38 51
-35 9 8 -107 97 -166 127 -96 48 -225 75 -305 63z"/>
<path d="M1048 162 c-40 -19 -184 -149 -175 -159 4 -3 35 24 70 60 75 77 110
97 180 102 l52 4 -43 -9 c-24 -5 -58 -18 -75 -28 -34 -19 -122 -121 -113 -130
3 -3 16 8 28 24 49 64 95 102 137 114 77 20 74 7 -14 -64 -46 -39 -82 -72 -80
-74 6 -7 47 22 106 74 28 25 66 53 85 62 42 20 43 28 3 36 -55 11 -123 6 -161
-12z"/>
<path d="M572 125 c0 -16 4 -43 8 -60 11 -42 11 -1 1 50 -7 34 -9 35 -9 10z"/>
<path d="M737 20 c-3 -11 -1 -20 4 -20 5 0 9 9 9 20 0 11 -2 20 -4 20 -2 0 -6
-9 -9 -20z"/>
</g>
</svg>