<?xml version="1.0" standalone="no"?>
<!DOCTYPE svg PUBLIC "-//W3C//DTD SVG 20010904//EN"
 "http://www.w3.org/TR/2001/REC-SVG-20010904/DTD/svg10.dtd">
<svg version="1.0" xmlns="http://www.w3.org/2000/svg"
 width="512.000000pt" height="512.000000pt" viewBox="0 0 512.000000 512.000000"
 preserveAspectRatio="xMidYMid meet">
<metadata>
Created by potrace 1.16, written by Peter Selinger 2001-2019
</metadata>
<g transform="translate(0.000000,512.000000) scale(0.100000,-0.100000)"
fill="#000000" stroke="none">
<path d="M2942 4369 c-48 -18 -35 -87 24 -126 28 -18 43 -15 144 22 161 60
369 -145 447 -443 45 -172 32 -422 -27 -520 -23 -38 -57 -43 -64 -9 -22 115
-32 151 -58 212 -89 211 -328 469 -511 549 -74 33 -161 48 -212 36 -22 -5 -64
-10 -92 -10 -64 0 -93 -23 -93 -73 0 -41 29 -70 70 -70 26 0 51 13 126 68 60
44 188 24 290 -44 214 -143 397 -398 439 -609 18 -86 15 -114 -6 -68 -27 58
-124 85 -189 51 -16 -8 -42 -31 -57 -52 -23 -30 -28 -47 -29 -102 -2 -64 -3
-68 -48 -115 -25 -27 -60 -77 -77 -112 -27 -54 -33 -80 -40 -176 -4 -62 -14
-144 -23 -183 -8 -38 -18 -98 -22 -132 -4 -38 -11 -63 -18 -63 -7 0 -34 69
-60 155 -48 154 -48 158 -51 308 -2 84 -7 172 -13 197 -6 25 -10 66 -9 92 2
52 -4 64 -29 54 -18 -7 -17 -11 11 -106 11 -35 20 -120 25 -230 8 -165 10
-183 49 -308 23 -72 41 -135 41 -140 -1 -4 -23 46 -50 111 -60 144 -104 218
-164 277 -35 33 -49 41 -58 32 -14 -14 6 -42 31 -42 43 0 119 -118 191 -295
45 -112 45 -111 25 -131 -19 -20 -19 -65 0 -90 8 -10 15 -32 15 -47 0 -28 -1
-27 -37 20 -243 318 -523 612 -843 883 -107 91 -271 230 -365 310 -142 122
-232 196 -334 274 -10 8 -13 8 -10 0 8 -21 315 -307 539 -502 268 -232 279
-243 225 -209 -75 46 -160 85 -234 107 -73 23 -115 50 -233 155 -187 167 -516
325 -741 356 -204 28 -351 -50 -403 -216 -24 -74 -9 -136 56 -235 73 -112 100
-240 63 -297 -17 -25 -17 -27 1 -37 98 -59 144 -119 181 -242 27 -87 66 -147
144 -217 47 -43 137 -102 176 -117 15 -6 24 -13 22 -17 -49 -93 -81 -132 -117
-147 -22 -9 -40 -19 -40 -22 0 -4 20 -28 44 -54 67 -72 71 -155 11 -244 l-24
-36 50 0 c96 0 138 -44 147 -156 4 -52 1 -68 -17 -98 l-22 -35 50 6 c44 5 56
2 90 -20 54 -36 85 -103 76 -163 -5 -36 -4 -45 7 -41 87 36 144 28 203 -28 32
-29 36 -38 30 -65 -8 -36 1 -38 48 -10 19 11 69 27 112 35 72 14 81 14 114 -2
21 -11 48 -37 66 -65 17 -26 36 -48 43 -48 7 0 22 23 34 50 22 54 23 54 83 40
67 -16 134 10 203 78 70 69 116 135 212 307 104 188 232 405 237 405 3 0 -9
-25 -27 -56 -18 -33 -30 -65 -27 -76 3 -11 -3 -34 -14 -51 -10 -18 -19 -48
-19 -68 0 -19 -7 -44 -15 -55 -8 -10 -15 -35 -15 -55 0 -19 -5 -40 -11 -46
-17 -17 -23 -249 -10 -329 11 -63 53 -174 65 -174 9 0 47 79 68 140 10 30 39
152 63 271 25 119 52 233 60 253 9 20 27 73 41 117 18 56 29 79 39 76 7 -3 31
-11 54 -18 23 -7 41 -16 41 -22 0 -5 -16 -34 -35 -65 -45 -74 -64 -158 -72
-312 -5 -114 -9 -130 -37 -185 -45 -86 -43 -159 7 -277 22 -52 37 -103 37
-127 0 -23 4 -41 8 -41 5 0 30 21 55 46 41 40 51 45 84 42 35 -3 38 -5 46 -45
11 -59 18 -57 63 15 1 2 30 -15 64 -37 l63 -41 -109 0 c-79 -1 -104 -3 -91
-11 9 -6 62 -9 120 -7 56 1 180 1 276 -1 l173 -3 29 35 c33 40 102 77 142 77
17 0 42 -13 66 -35 21 -19 41 -35 45 -35 3 0 4 24 1 53 -5 42 -2 58 14 85 41
65 111 88 172 56 17 -8 33 -13 36 -11 2 3 -1 24 -7 47 -10 38 -9 47 19 106 39
84 70 114 116 114 l35 0 -18 37 c-14 27 -21 70 -25 146 l-6 107 42 21 41 22
-29 23 c-65 53 -82 73 -123 151 -44 81 -140 196 -207 247 -33 26 -38 27 -54
12 -10 -9 -26 -16 -36 -16 -13 0 -6 -9 21 -29 50 -37 141 -133 183 -194 28
-42 91 -167 91 -182 0 -10 -86 -4 -145 9 -89 22 -475 193 -475 211 0 3 12 -1
28 -9 58 -30 363 -98 377 -84 2 2 -46 12 -108 23 -85 14 -105 20 -82 25 24 5
16 7 -36 12 -95 10 -151 35 -287 128 -109 75 -143 110 -91 97 10 -3 19 -1 21
4 2 4 50 15 107 24 58 9 107 18 110 20 9 9 -14 22 -87 50 -68 25 -72 28 -58
44 9 10 16 20 16 24 0 3 -21 20 -47 38 -27 18 -49 33 -51 34 -1 1 4 15 13 31
8 16 15 45 15 65 0 28 5 39 26 50 45 24 102 97 109 140 4 21 11 39 16 39 9 0
65 72 72 93 2 6 38 14 83 18 242 21 341 221 197 397 -44 54 -134 114 -197 132
-25 7 -46 14 -46 17 0 2 13 33 30 69 43 95 106 178 210 277 75 72 109 96 194
137 126 62 198 79 261 62 65 -17 115 -15 153 8 45 28 60 62 39 93 -34 52 -70
45 -335 -66 -183 -76 -345 -169 -449 -255 -59 -49 -139 -150 -192 -239 -23
-40 -43 -73 -45 -73 -2 0 7 26 19 58 92 231 28 613 -139 824 -85 107 -208 178
-310 178 -24 0 -71 8 -103 18 -38 12 -67 16 -81 11z m893 -810 c-70 -74 -142
-179 -165 -239 -7 -19 -16 -39 -20 -43 -9 -10 -40 2 -40 15 0 23 96 170 145
221 47 49 130 117 143 117 2 0 -26 -32 -63 -71z m-2909 -50 c70 -27 128 -48
130 -46 3 2 -36 23 -86 46 -49 23 -90 44 -90 46 0 3 30 -6 66 -20 36 -14 71
-22 77 -18 5 3 7 2 4 -3 -3 -6 51 -43 121 -83 70 -41 178 -110 239 -154 114
-81 172 -131 98 -85 -22 13 -141 77 -265 140 -209 107 -324 154 -490 198 -42
11 -43 13 -25 27 29 21 75 11 221 -48z m-306 34 c0 -12 -33 -43 -47 -43 -20 0
-16 17 9 34 24 17 38 20 38 9z m193 -52 c42 -12 94 -29 115 -38 37 -15 37 -16
12 -25 -14 -5 -41 -8 -60 -6 -36 4 -242 50 -249 55 -3 2 6 14 18 27 25 26 24
26 164 -13z m397 -45 c178 -78 439 -246 528 -339 30 -31 32 -37 20 -56 -7 -11
-17 -21 -23 -21 -5 0 -46 33 -90 73 -139 125 -334 264 -495 352 -100 54 -74
51 60 -9z m-640 19 c0 -2 -7 -23 -16 -45 -11 -27 -22 -40 -35 -40 -24 0 -24 2
1 50 11 22 27 40 35 40 8 0 15 -2 15 -5z m249 -50 l58 -17 -21 -53 -21 -53
-65 -6 c-36 -3 -87 -6 -113 -6 -45 0 -49 2 -62 34 -11 26 -12 42 -3 72 20 74
19 73 98 58 39 -7 97 -20 129 -29z m234 -16 c68 -34 167 -93 167 -99 0 -3 -17
-14 -37 -23 -37 -17 -41 -16 -160 15 -96 24 -123 35 -123 48 0 25 65 79 98 80
7 0 32 -9 55 -21z m-529 -64 c24 -24 30 -56 13 -72 -13 -14 -17 -13 -30 8 -23
38 -30 79 -13 79 8 0 21 -7 30 -15z m2827 -34 c13 -11 21 -23 17 -27 -12 -11
-58 13 -58 31 0 20 13 19 41 -4z m-2374 -11 c169 -40 164 -37 153 -66 -6 -14
-10 -43 -10 -65 0 -52 -29 -65 -114 -50 -89 16 -126 60 -126 151 0 27 2 50 5
50 2 0 44 -9 92 -20z m2263 -13 c0 -14 -20 -37 -32 -37 -12 0 -10 24 4 38 16
16 28 15 28 -1z m-2400 -27 c0 -37 32 -100 64 -125 l31 -25 -45 6 c-92 12
-156 26 -177 40 -13 8 -34 36 -48 64 l-25 49 23 4 c12 2 57 5 100 6 71 1 77
-1 77 -19z m-232 -53 c45 -46 50 -57 27 -57 -14 0 -71 56 -88 86 -17 30 20 12
61 -29z m816 -5 c89 -42 250 -147 281 -184 30 -36 29 -64 -2 -61 -12 2 -79 27
-150 57 -132 57 -264 99 -346 111 -56 9 -63 17 -46 57 27 66 145 75 263 20z
m2174 -4 c3 -15 -4 -18 -42 -18 -24 0 -56 -4 -70 -10 -26 -9 -28 -8 -30 23 -1
14 51 26 104 23 25 -1 36 -6 38 -18z m158 -28 c62 -30 144 -107 144 -134 0
-24 -22 -30 -33 -10 -27 50 -96 102 -168 126 -51 17 -75 30 -77 43 -4 15 1 17
35 11 21 -4 66 -20 99 -36z m-358 -87 l-34 -68 -95 -32 c-112 -38 -149 -42
-149 -14 0 33 82 107 141 128 29 10 76 29 104 43 27 14 54 22 59 19 5 -4 -7
-38 -26 -76z m199 77 c17 0 32 -54 43 -150 12 -105 3 -120 -74 -120 -136 1
-210 129 -128 221 30 33 96 61 127 54 11 -3 25 -5 32 -5z m106 -21 c99 -33
157 -89 157 -152 0 -48 -69 -107 -125 -107 -37 0 -63 32 -70 87 -6 49 -21 131
-31 171 -8 27 -8 27 69 1z m-3043 -41 c0 -5 -4 -7 -9 -4 -4 3 -17 -1 -27 -9
-18 -14 -18 -14 9 -15 24 0 27 -4 27 -33 0 -19 7 -56 15 -83 8 -27 15 -50 15
-52 0 -2 -10 -2 -22 0 -18 3 -25 17 -44 93 -29 116 -29 114 6 113 17 -1 30 -5
30 -10z m227 1 c54 -6 109 -17 124 -25 38 -19 48 -67 22 -103 -18 -24 -29 -27
-139 -38 -65 -6 -130 -13 -143 -15 -21 -3 -27 3 -37 37 -16 50 -17 110 -4 136
13 23 38 24 177 8z m400 -9 c88 -21 210 -66 335 -123 61 -28 85 -47 117 -87
37 -47 49 -70 36 -70 -3 0 -48 11 -100 25 -130 34 -282 47 -449 39 l-138 -7
12 23 c9 16 10 46 6 95 -4 42 -2 83 3 99 9 22 16 26 53 26 24 0 80 -9 125 -20z
m575 -27 c194 -77 440 -273 679 -540 68 -76 160 -175 203 -220 44 -46 76 -86
72 -90 -10 -10 -365 171 -530 270 -180 108 -277 179 -372 272 -117 116 -170
238 -130 300 20 30 23 30 78 8z m249 -80 c13 -16 12 -17 -3 -4 -10 7 -18 15
-18 17 0 8 8 3 21 -13z m1269 -19 c17 -44 11 -74 -19 -105 -68 -68 -203 0
-148 75 13 18 107 55 140 56 10 0 22 -11 27 -26z m540 -48 c-20 -62 -103 -119
-147 -101 -15 5 -11 10 19 26 21 11 56 44 79 75 46 63 70 63 49 0z m-2916 -5
c3 -5 3 -22 0 -39 -6 -27 -12 -31 -87 -51 -45 -12 -89 -24 -98 -27 -23 -6 -86
94 -65 102 52 20 240 31 250 15z m2142 -20 c21 -16 59 -47 83 -68 l43 -38 -11
-80 c-21 -149 -20 -145 -44 -144 -55 1 -162 62 -178 101 -20 50 27 258 59 258
5 0 27 -13 48 -29z m-2426 -41 c18 -43 5 -49 -30 -15 -27 26 -29 30 -13 37 28
11 30 10 43 -22z m2878 8 c47 2 56 -13 16 -28 -37 -15 -81 -12 -120 6 -49 24
-43 37 14 27 26 -4 66 -6 90 -5z m-1998 -21 c33 -8 49 -16 40 -20 -8 -4 -51
-19 -96 -35 -143 -52 -263 -142 -311 -236 l-25 -48 -44 6 c-97 13 -114 49 -66
137 39 69 40 95 7 143 -38 56 -34 64 33 69 113 9 406 -2 462 -16z m-578 -53
c17 -37 3 -52 -72 -81 -108 -41 -105 -41 -123 11 -12 34 -13 47 -4 54 19 16
109 41 150 41 31 1 39 -3 49 -25z m814 -24 c15 -6 79 -53 143 -104 149 -120
241 -178 511 -317 120 -63 218 -115 217 -116 -2 -1 -65 14 -141 32 -323 80
-459 99 -691 99 -168 0 -207 -3 -335 -28 -115 -22 -165 -27 -240 -24 -124 5
-139 14 -71 44 46 21 51 26 45 48 -14 56 47 97 180 122 l71 13 -98 -6 c-103
-6 -131 3 -120 35 22 63 186 166 310 196 70 17 181 20 219 6z m-1046 -60 c6
-15 10 -38 8 -51 -2 -17 -10 -5 -29 45 -22 55 -23 64 -9 51 10 -9 23 -29 30
-45z m2764 37 l69 -12 -26 -30 c-22 -27 -31 -30 -75 -28 -93 4 -152 45 -104
72 22 13 50 13 136 -2z m-2519 -53 c51 -34 27 -77 -74 -135 l-49 -28 -21 45
c-36 76 -34 83 34 110 73 28 79 28 110 8z m-187 -99 c11 -27 23 -59 27 -70 8
-19 8 -19 -12 -2 -27 24 -57 92 -49 113 8 22 10 19 34 -41z m2382 -152 c0 -53
-4 -93 -10 -93 -11 0 -95 32 -174 68 l-59 26 7 67 c9 105 2 101 126 60 l110
-36 0 -92z m281 146 c14 -22 11 -35 -16 -68 -34 -40 -89 -73 -109 -65 -32 12
-39 99 -11 145 11 16 124 7 136 -12z m-2476 -49 c19 -21 57 -35 122 -45 38 -6
41 -9 34 -28 -6 -16 -27 -28 -76 -44 l-68 -22 -49 41 c-70 58 -75 72 -35 97
40 26 49 26 72 1z m143 -156 c-4 -24 -32 -29 -69 -14 -40 17 -37 25 14 37 46
10 61 5 55 -23z m2220 4 c3 -29 -13 -68 -28 -68 -6 0 -10 23 -10 51 0 43 3 50
18 47 10 -2 18 -14 20 -30z m-486 -38 c-6 -39 -32 -40 -32 -1 0 16 6 31 13 34
20 7 24 0 19 -33z m158 26 c88 -27 130 -48 130 -65 0 -22 -69 -101 -119 -135
-45 -31 -70 -30 -114 5 -32 24 -34 52 -11 144 15 59 19 65 43 65 14 0 46 -6
71 -14z m-910 -71 c151 -17 581 -101 624 -120 l31 -15 -30 5 c-128 18 -347 27
-605 23 -281 -5 -300 -6 -395 -32 -55 -15 -146 -31 -203 -36 -57 -5 -119 -12
-139 -16 -34 -6 -35 -6 -23 16 25 46 93 110 144 134 114 54 350 70 596 41z
m1096 -105 c11 -127 -24 -197 -121 -241 -52 -24 -70 -24 -95 3 -42 46 -11 143
65 197 25 18 64 54 87 82 23 27 45 46 49 42 4 -5 11 -42 15 -83z m-1826 63 c0
-5 -17 -27 -38 -51 -32 -37 -49 -46 -129 -71 -51 -16 -93 -27 -93 -25 0 2 21
35 46 74 l46 69 57 4 c31 2 68 4 84 5 15 1 27 -1 27 -5z m2008 -19 c19 -12 21
-18 11 -30 -25 -31 -99 -3 -99 38 0 18 4 20 32 14 18 -3 43 -13 56 -22z
m-2252 -7 c-18 -72 -85 -153 -120 -145 -12 2 -2 23 40 86 55 80 93 108 80 59z
m1589 -74 c49 -6 48 -6 -95 -40 -241 -57 -416 -82 -673 -98 -133 -8 -252 -15
-265 -15 -29 0 -38 23 -22 60 20 48 104 81 265 104 42 6 729 -3 790 -11z m222
-21 l21 -12 -19 -51 c-11 -28 -20 -71 -21 -95 -3 -55 -24 -56 -51 -4 -14 27
-17 51 -14 106 5 87 11 100 40 81 12 -8 32 -19 44 -25z m502 7 c76 -26 68 -35
-42 -45 -69 -6 -77 -5 -77 10 0 28 19 56 38 56 10 0 47 -10 81 -21z m-2179
-48 c-33 -54 -36 -74 -15 -111 26 -45 19 -55 -66 -99 -44 -22 -85 -39 -90 -35
-5 3 -9 31 -9 63 0 32 -6 77 -14 99 -12 34 -12 43 -1 52 11 9 197 77 217 79 4
1 -6 -21 -22 -48z m340 15 c0 -8 -225 -124 -252 -131 -23 -6 -28 -3 -33 17 -7
25 7 72 24 82 24 15 261 44 261 32z m1005 -39 c-136 -72 -173 -100 -478 -364
-121 -105 -150 -118 -180 -82 -25 31 -20 69 29 214 53 160 53 160 171 174 127
15 349 56 438 80 105 29 108 25 20 -22z m93 -16 c-75 -81 -138 -178 -353 -549
-43 -73 -80 -131 -83 -128 -5 6 130 257 195 361 24 39 32 57 19 40 -25 -29
-125 -196 -222 -368 -27 -48 -59 -100 -72 -115 l-22 -27 18 45 c20 48 35 100
29 100 -2 0 -17 -32 -32 -71 -42 -104 -81 -125 -177 -99 l-38 11 34 67 c19 37
64 119 100 182 50 88 58 106 33 78 -17 -20 -68 -100 -112 -177 -43 -78 -85
-141 -93 -141 -7 0 -26 7 -41 15 -16 8 -47 17 -70 21 -34 6 -41 10 -41 30 0
36 51 86 140 138 96 56 178 123 325 266 125 122 238 221 307 268 52 36 189
112 202 112 4 0 -16 -26 -46 -59z m-1109 2 c-5 -14 -7 -38 -4 -52 4 -22 -2
-31 -44 -59 -27 -18 -60 -49 -73 -68 -18 -27 -141 -114 -161 -114 -11 0 -19
83 -13 125 l7 42 142 76 c78 42 145 76 149 77 4 0 3 -12 -3 -27z m1768 -80
c74 -56 242 -205 247 -220 9 -21 -5 -43 -26 -43 -11 0 -83 32 -159 71 -107 55
-146 81 -173 114 l-36 43 43 35 c23 20 45 36 49 37 3 0 28 -16 55 -37z m-2320
-88 c-1 -26 -7 -41 -17 -43 -12 -2 -15 12 -15 79 l0 81 17 -39 c10 -21 17 -56
15 -78z m973 100 c-19 -22 -429 -225 -455 -225 -25 0 -35 17 -35 58 0 42 95
127 164 147 70 20 160 32 260 34 69 1 77 -1 66 -14z m790 -5 c0 -5 -4 -10 -10
-10 -5 0 -10 5 -10 10 0 6 5 10 10 10 6 0 10 -4 10 -10z m-851 -177 c-32 -99
-49 -165 -49 -200 l0 -51 -50 -12 c-67 -16 -109 -1 -178 64 -30 28 -68 63 -84
79 -16 15 -28 32 -26 38 3 10 413 228 430 229 3 0 -16 -66 -43 -147z m1245
101 c24 -61 -35 -399 -71 -411 -26 -9 -74 202 -62 274 14 88 28 113 73 133 52
23 53 23 60 4z m-404 -15 c7 -11 9 -23 6 -26 -7 -7 -24 5 -36 28 -8 15 -7 19
4 19 9 0 20 -9 26 -21z m-1540 -62 c0 -90 -13 -97 -70 -39 l-47 47 51 27 c28
15 54 27 59 28 4 0 7 -28 7 -63z m1776 11 c-10 -52 -20 -52 -36 1 -8 29 -7 31
17 31 23 0 25 -3 19 -32z m477 -227 c51 -35 72 -76 63 -125 -13 -69 -65 -100
-109 -66 -73 58 -217 334 -217 415 0 28 6 24 110 -82 60 -61 129 -125 153
-142z m-753 199 c19 -19 27 -40 15 -40 -15 0 -55 34 -55 46 0 20 17 17 40 -6z
m700 -58 c109 -58 125 -70 125 -92 0 -33 -43 -39 -88 -11 -38 23 -186 171
-172 171 6 0 66 -31 135 -68z m-2000 -2 c0 -47 -2 -50 -72 -115 -95 -87 -102
-91 -128 -65 -20 20 -28 92 -12 117 11 18 194 123 203 117 5 -3 9 -27 9 -54z
m-330 25 c50 -31 56 -44 64 -132 9 -111 -20 -90 -49 34 -10 45 -25 77 -42 95
-33 35 -24 35 27 3z m2163 -130 c74 -202 77 -212 77 -260 0 -54 -15 -68 -61
-55 -19 6 -40 14 -47 19 -30 18 -60 364 -38 429 4 13 9 22 11 20 1 -2 27 -70
58 -153z m-313 60 c1 -58 -58 -325 -71 -325 -10 0 -19 68 -19 140 0 77 22 174
51 232 26 52 39 37 39 -47z m782 26 c40 -16 136 -56 213 -89 78 -33 152 -62
165 -64 24 -3 25 -6 28 -85 2 -46 0 -83 -4 -83 -3 0 -67 44 -143 98 -128 93
-253 173 -191 123 14 -11 91 -68 173 -127 81 -58 147 -109 146 -113 0 -3 -21
-21 -45 -39 l-45 -33 -107 102 c-58 55 -148 135 -199 177 -51 42 -94 83 -95
91 -3 31 3 55 15 63 16 10 6 12 89 -21z m-1022 -27 c0 -3 -5 -14 -11 -25 -10
-20 -11 -20 -30 -3 -27 24 -24 34 11 34 17 0 30 -3 30 -6z m-1240 -48 c0 -19
9 -45 21 -60 l20 -26 -67 -75 -68 -76 -58 58 -58 57 32 26 c18 13 61 51 96 83
34 32 67 55 72 52 6 -3 10 -21 10 -39z m1609 -174 c6 -11 11 -62 10 -113 0
-52 5 -110 11 -129 16 -57 13 -66 -14 -41 -42 40 -65 110 -75 233 l-10 113 3
-115 c3 -113 2 -117 -36 -215 -21 -55 -45 -113 -53 -130 l-14 -30 0 49 c-2 92
47 349 94 496 8 25 17 59 21 75 5 25 10 13 29 -72 13 -56 28 -110 34 -121z
m656 86 c54 -44 139 -120 188 -168 73 -71 88 -91 82 -106 -5 -11 -13 -38 -19
-61 -6 -24 -16 -43 -23 -43 -16 0 -296 271 -335 324 -20 28 -28 51 -28 81 0
77 13 75 135 -27z m-545 -108 c6 -58 25 -146 41 -196 40 -124 39 -134 -9 -134
-53 0 -90 40 -108 117 -19 83 -17 155 7 221 11 31 26 75 32 96 14 53 21 33 37
-104z m-500 121 c0 -5 -7 -14 -15 -21 -13 -11 -21 -10 -43 0 l-27 13 30 8 c44
10 55 10 55 0z m-1082 -70 c22 -16 43 -34 46 -39 5 -8 -65 -174 -80 -191 -2
-2 -26 14 -52 37 -27 22 -65 47 -85 56 -20 8 -37 20 -37 27 0 21 125 139 147
139 11 0 38 -13 61 -29z m1747 -13 c16 -24 46 -64 67 -89 21 -25 38 -52 38
-60 -1 -23 -57 -82 -73 -76 -15 6 -27 48 -28 101 0 17 -8 61 -18 99 -9 37 -17
67 -16 67 2 0 15 -19 30 -42z m-2052 -70 c33 -39 38 -58 17 -58 -4 0 -17 15
-28 33 -12 17 -31 45 -43 61 -22 28 -22 28 -2 17 12 -6 37 -30 56 -53z m2482
-99 c146 -147 158 -162 141 -173 -11 -6 -41 -30 -67 -54 l-47 -43 -63 123
c-34 68 -79 152 -101 187 -34 57 -50 121 -30 121 4 0 80 -73 167 -161z m-1115
143 c0 -29 -50 -42 -69 -18 -10 12 -7 15 21 19 18 2 36 5 41 5 4 1 7 -2 7 -6z
m-909 -56 c-10 -12 -32 -42 -49 -68 -22 -32 -43 -50 -68 -58 -19 -7 -38 -9
-41 -6 -3 3 12 43 34 89 l41 84 51 -10 c50 -11 51 -11 32 -31z m1901 -98 c85
-154 140 -270 130 -280 -5 -5 -24 -11 -43 -14 l-34 -5 -82 143 c-87 152 -106
198 -81 198 8 0 23 9 33 20 10 11 21 20 25 20 3 0 27 -37 52 -82z m-1017 61
c11 -16 -1 -22 -30 -15 -14 4 -23 11 -20 16 8 13 42 13 50 -1z m-1207 -58 c20
-10 46 -29 57 -42 l20 -24 -20 17 c-12 10 -45 28 -75 42 -30 14 -47 25 -37 25
10 1 34 -8 55 -18z m1432 -67 c-6 -32 -10 -95 -10 -139 l-1 -80 -25 48 c-33
64 -41 134 -20 175 14 28 55 66 63 59 1 -2 -2 -30 -7 -63z m814 -259 c-9 -5
-40 -25 -67 -43 -43 -28 -52 -31 -64 -19 -13 12 -123 271 -123 288 0 3 15 10
33 15 18 6 41 23 52 40 l20 30 83 -150 c75 -135 82 -152 66 -161z m369 265
c-27 -51 -43 -64 -43 -32 0 18 26 61 44 74 24 17 24 6 -1 -42z m-1416 14 c-7
-7 -37 7 -37 17 0 6 9 5 21 -1 11 -7 19 -14 16 -16z m744 -30 c27 -26 136
-280 125 -291 -4 -4 -41 4 -83 18 l-76 25 -53 139 c-29 77 -53 145 -54 151 0
18 112 -15 141 -42z m-1686 17 c-14 -12 -95 -31 -95 -22 0 4 17 12 38 18 49
14 69 15 57 4z m190 -62 c4 -6 2 -16 -4 -22 -8 -8 -20 -2 -46 23 -19 19 -35
38 -35 42 0 10 76 -28 85 -43z m1200 -108 c-11 -72 -10 -71 -92 -71 -60 0 -74
3 -70 14 3 7 14 42 25 77 11 35 25 77 32 93 l11 29 50 -49 c49 -48 50 -50 44
-93z m860 37 c-11 -6 -40 -27 -64 -47 -41 -33 -43 -34 -27 -9 20 30 73 68 96
68 10 -1 9 -4 -5 -12z m-747 -39 c19 -4 35 -9 38 -11 2 -3 7 -31 10 -64 6 -55
4 -61 -20 -83 l-26 -24 -47 40 c-45 39 -48 43 -46 88 2 66 8 78 35 69 13 -4
38 -10 56 -15z m116 -62 c10 -27 17 -50 15 -51 -2 -2 -19 -11 -36 -20 l-33
-17 0 74 c0 41 3 77 7 81 11 10 28 -14 47 -67z m152 -151 c28 -13 54 -28 57
-32 3 -5 -55 -9 -129 -10 -74 0 -134 1 -134 3 0 1 19 16 42 33 51 37 94 39
164 6z"/>
<path d="M3764 2995 c-14 -37 26 -69 53 -43 12 12 13 20 4 37 -13 24 -49 28
-57 6z"/>
<path d="M1538 2523 c7 -3 16 -2 19 1 4 3 -2 6 -13 5 -11 0 -14 -3 -6 -6z"/>
<path d="M2584 1958 l-29 -33 33 29 c30 28 37 36 29 36 -2 0 -16 -15 -33 -32z"/>
<path d="M2445 1808 c-48 -51 -91 -102 -97 -113 -10 -18 84 78 161 168 63 72
22 36 -64 -55z"/>
<path d="M3422 2034 c9 -8 111 -34 133 -33 11 0 -11 9 -50 20 -74 20 -92 23
-83 13z"/>
<path d="M3593 1993 c9 -2 23 -2 30 0 6 3 -1 5 -18 5 -16 0 -22 -2 -12 -5z"/>
<path d="M3658 1983 c7 -3 16 -2 19 1 4 3 -2 6 -13 5 -11 0 -14 -3 -6 -6z"/>
<path d="M4038 1753 c18 -2 45 -2 60 0 15 2 0 4 -33 4 -33 0 -45 -2 -27 -4z"/>
</g>
</svg>