<?xml version="1.0" standalone="no"?>
<!DOCTYPE svg PUBLIC "-//W3C//DTD SVG 20010904//EN"
 "http://www.w3.org/TR/2001/REC-SVG-20010904/DTD/svg10.dtd">
<svg version="1.0" xmlns="http://www.w3.org/2000/svg"
 width="512.000000pt" height="512.000000pt" viewBox="0 0 512.000000 512.000000"
 preserveAspectRatio="xMidYMid meet">
<metadata>
Created by potrace 1.16, written by Peter Selinger 2001-2019
</metadata>
<g transform="translate(0.000000,512.000000) scale(0.100000,-0.100000)"
fill="#000000" stroke="none">
<path d="M134 5105 c11 -8 26 -15 34 -15 11 0 13 -10 8 -45 -4 -25 -4 -45 0
-45 3 0 22 14 41 30 38 34 47 35 83 15 14 -8 28 -14 33 -15 14 0 7 32 -14 61
-20 28 -22 29 -112 29 -83 -1 -90 -2 -73 -15z"/>
<path d="M660 5101 c0 -16 -11 -22 -60 -32 -33 -6 -67 -17 -76 -24 -15 -10 -7
-16 54 -39 40 -15 72 -30 72 -33 0 -3 -9 -36 -21 -73 -32 -105 -25 -112 46
-52 33 29 65 52 72 52 6 0 40 -13 75 -30 35 -17 65 -25 66 -20 2 6 -12 40 -32
75 -20 36 -36 71 -36 78 0 7 18 29 40 50 58 53 53 61 -30 54 -39 -3 -72 -2
-75 4 -4 5 -26 9 -51 9 -37 0 -44 -3 -44 -19z"/>
<path d="M1210 5110 c-8 -5 -55 -20 -103 -35 -48 -14 -85 -30 -82 -35 3 -5 29
-16 58 -26 28 -9 69 -26 91 -36 l39 -20 -7 -59 c-3 -32 -9 -86 -12 -119 -9
-83 9 -80 87 15 34 41 66 75 71 75 5 0 38 -16 73 -35 40 -23 66 -32 70 -25 3
6 -17 51 -45 101 l-52 90 42 60 41 59 -128 -1 c-70 0 -135 -4 -143 -9z"/>
<path d="M1692 5095 c12 -27 52 -35 61 -11 8 20 -13 36 -45 36 -26 0 -27 -2
-16 -25z"/>
<path d="M1816 5104 c-3 -9 -6 -32 -6 -53 0 -49 -14 -66 -75 -89 -55 -22 -68
-39 -33 -46 13 -2 43 -8 67 -13 43 -8 44 -9 70 -77 15 -38 31 -71 37 -73 7 -2
17 26 25 69 l14 73 58 3 c31 2 57 6 57 9 0 3 -22 28 -49 54 -27 26 -64 73 -82
103 -35 58 -70 75 -83 40z"/>
<path d="M2237 5113 c-2 -4 -10 -25 -16 -45 -12 -35 -15 -38 -52 -38 -48 0
-49 -10 -4 -41 39 -27 40 -29 20 -84 -8 -21 -12 -41 -10 -44 3 -2 17 2 32 10
16 7 31 15 36 17 4 2 7 -10 7 -27 0 -42 18 -49 31 -11 10 28 14 30 45 24 37
-7 40 -1 19 36 -22 38 -19 45 25 65 22 10 39 23 37 29 -2 6 -30 13 -61 16 -57
5 -58 6 -71 44 -15 42 -30 62 -38 49z"/>
<path d="M3065 5104 c11 -8 29 -21 40 -28 20 -13 20 -14 -4 -79 -35 -100 -28
-106 51 -51 l67 47 63 -41 c74 -49 79 -43 49 49 -12 34 -21 64 -21 65 0 2 17
15 37 29 l38 25 -170 0 c-154 -1 -168 -2 -150 -16z"/>
<path d="M3780 5110 c0 -6 -32 -10 -75 -10 -41 0 -75 -4 -75 -9 0 -6 24 -27
54 -47 l54 -38 -35 -75 c-18 -41 -32 -81 -31 -88 2 -10 24 -4 76 22 41 19 76
35 78 35 2 0 32 -25 65 -56 37 -34 65 -52 70 -47 6 6 1 41 -11 88 -13 50 -17
82 -10 89 5 7 36 25 70 41 33 16 60 34 60 41 0 14 -45 24 -106 24 -33 0 -47 5
-56 20 -10 16 -24 20 -70 20 -32 0 -58 -4 -58 -10z"/>
<path d="M4394 5096 l30 -23 -27 -90 c-41 -135 -38 -138 57 -63 35 28 68 50
72 50 5 0 35 -18 67 -40 58 -40 77 -48 77 -31 0 6 -12 47 -26 91 -14 45 -24
83 -22 84 2 1 19 12 38 24 l35 22 -165 0 -165 0 29 -24z"/>
<path d="M4995 5090 c16 -16 32 -30 37 -30 4 0 8 14 8 30 0 28 -3 30 -37 30
l-37 0 29 -30z"/>
<path d="M2682 5048 c-11 -29 -23 -64 -27 -77 -7 -22 -10 -23 -75 -17 -40 4
-71 3 -74 -2 -3 -6 19 -31 49 -57 30 -25 55 -53 55 -61 0 -8 -13 -41 -30 -74
-28 -55 -37 -90 -25 -90 3 0 37 16 76 36 l71 35 45 -38 c77 -65 83 -68 83 -47
0 11 -9 50 -20 88 l-19 68 70 31 c38 17 68 36 66 42 -2 5 -39 17 -83 26 l-79
15 -24 87 c-14 48 -28 87 -32 87 -4 0 -16 -24 -27 -52z"/>
<path d="M2952 5033 c4 -21 33 -25 33 -3 0 8 -8 16 -18 18 -14 3 -18 -1 -15
-15z"/>
<path d="M4218 5032 c-21 -22 -13 -72 12 -72 10 0 25 -3 33 -6 24 -9 29 57 6
79 -22 21 -29 21 -51 -1z"/>
<path d="M4920 4992 l0 -59 -41 -7 c-51 -8 -47 -24 11 -45 45 -16 45 -17 48
-69 2 -28 7 -52 12 -52 5 0 21 15 35 34 l26 34 42 -19 c65 -29 72 -25 43 25
l-26 45 25 29 c38 45 33 53 -27 46 l-53 -6 -35 48 c-50 68 -60 68 -60 -4z"/>
<path d="M3506 4991 c-19 -21 -12 -51 13 -51 9 0 22 9 29 20 10 17 10 23 -2
35 -18 19 -19 19 -40 -4z"/>
<path d="M0 4924 c0 -26 19 -31 38 -12 18 18 15 25 -13 30 -21 4 -25 1 -25
-18z"/>
<path d="M3118 4824 c-22 -45 -26 -49 -60 -49 -52 0 -56 -11 -17 -44 l34 -29
-17 -46 c-9 -25 -13 -48 -9 -50 4 -3 23 6 41 19 19 14 38 25 43 25 5 0 26 -14
46 -32 34 -30 36 -31 39 -11 2 12 -1 38 -6 57 -11 39 -9 43 46 70 43 22 32 36
-28 36 l-49 0 -12 43 c-18 63 -26 65 -51 11z"/>
<path d="M173 4828 c2 -7 10 -13 17 -13 7 0 15 6 18 13 2 7 -5 12 -18 12 -13
0 -20 -5 -17 -12z"/>
<path d="M331 4798 c-42 -109 -40 -107 -84 -112 -23 -3 -58 -7 -77 -8 -19 -2
-35 -7 -35 -13 0 -8 59 -52 113 -84 10 -6 8 -21 -8 -72 -11 -35 -20 -67 -20
-71 0 -15 20 -7 76 28 l56 36 54 -36 c48 -32 74 -43 74 -32 0 2 -11 34 -25 70
-14 37 -25 69 -25 71 0 3 27 18 60 35 84 42 80 49 -33 66 -52 7 -54 9 -79 93
-15 51 -34 63 -47 29z"/>
<path d="M1662 4808 c-18 -18 -14 -36 8 -43 24 -7 40 1 40 20 0 21 -34 37 -48
23z"/>
<path d="M3716 4718 c-9 -12 -16 -28 -16 -35 0 -8 -12 -13 -30 -13 -34 0 -39
-14 -10 -30 17 -9 19 -17 14 -50 -7 -42 4 -52 26 -25 15 18 34 19 60 3 25 -16
33 -7 21 25 -8 20 -6 28 10 43 24 21 24 34 1 34 -23 0 -42 19 -42 41 0 28 -17
31 -34 7z"/>
<path d="M1015 4721 c-8 -15 3 -31 21 -31 9 0 14 7 12 17 -4 20 -24 28 -33 14z"/>
<path d="M4175 4718 c-3 -7 -15 -44 -28 -83 l-22 -70 -75 -3 c-41 -2 -79 -7
-84 -12 -5 -5 23 -29 63 -56 39 -26 71 -50 71 -54 0 -3 -11 -35 -25 -70 -23
-59 -32 -110 -20 -110 3 0 37 23 76 51 l70 51 59 -41 c90 -63 91 -62 45 67
l-23 63 37 23 c20 12 51 31 69 41 55 32 26 52 -79 54 l-55 1 -25 77 c-23 74
-43 100 -54 71z"/>
<path d="M4611 4709 c-5 -13 -12 -32 -15 -41 -3 -10 -14 -18 -24 -18 -10 0
-27 -6 -37 -14 -19 -14 -19 -15 9 -27 26 -12 28 -16 22 -56 -6 -49 -2 -52 31
-21 24 22 25 22 54 5 l31 -17 -3 39 c-2 27 3 46 14 59 23 25 22 30 -10 34 -19
2 -29 11 -37 35 -15 44 -24 49 -35 22z"/>
<path d="M769 4671 c-7 -18 -19 -31 -31 -33 -28 -4 -34 -25 -9 -33 16 -5 19
-12 14 -43 -6 -36 -6 -37 14 -19 23 20 54 22 71 5 10 -10 12 -5 11 27 -1 22 1
48 5 58 6 13 3 17 -13 17 -14 0 -23 8 -27 25 -8 33 -23 32 -35 -4z"/>
<path d="M2265 4681 c-9 -16 3 -31 26 -31 14 0 19 6 17 17 -4 20 -33 29 -43
14z"/>
<path d="M3383 4589 l-47 -82 -93 5 c-52 3 -96 2 -98 -2 -3 -4 22 -34 55 -66
33 -32 60 -60 60 -64 0 -3 -22 -36 -50 -74 -42 -58 -63 -106 -45 -106 2 0 40
13 83 29 l78 28 73 -63 c39 -35 76 -64 80 -64 18 0 17 28 -4 120 l-22 95 99
47 c54 26 98 51 98 56 0 11 -63 27 -142 38 l-48 6 0 89 c0 115 -14 116 -77 8z"/>
<path d="M4900 4655 c0 -7 7 -40 15 -72 8 -31 15 -64 15 -73 0 -10 -27 -26
-77 -45 -42 -16 -78 -35 -80 -42 -4 -10 32 -24 135 -52 l42 -12 0 -58 c0 -68
9 -121 21 -121 4 0 24 26 43 59 46 75 59 86 85 71 21 -11 21 -9 21 152 l0 163
-31 -32 c-16 -18 -32 -33 -35 -33 -2 0 -31 25 -64 55 -59 55 -90 68 -90 40z"/>
<path d="M1839 4613 c-6 -15 -18 -52 -27 -80 l-16 -53 -52 0 c-28 0 -66 -3
-83 -6 -31 -6 -31 -7 -14 -26 9 -10 43 -35 75 -54 32 -20 58 -36 58 -37 0 -1
-9 -31 -20 -67 -22 -71 -25 -100 -11 -100 5 0 34 20 64 45 31 25 59 45 62 45
4 0 32 -18 62 -40 86 -61 88 -57 42 61 -18 44 -30 81 -28 83 2 2 33 18 69 37
l65 33 -35 7 c-19 4 -56 11 -82 14 l-46 6 -24 76 c-25 84 -42 100 -59 56z"/>
<path d="M1377 4616 c-3 -8 -2 -29 3 -45 10 -34 8 -36 -37 -46 -43 -9 -41 -19
7 -38 39 -15 40 -17 40 -64 l1 -48 29 34 30 35 34 -16 c42 -20 50 -14 31 23
-21 40 -19 56 10 75 43 28 32 46 -23 38 -47 -6 -49 -5 -73 30 -25 38 -43 45
-52 22z"/>
<path d="M2565 4592 c-18 -34 -24 -37 -69 -40 l-49 -3 33 -34 32 -33 -17 -46
c-10 -26 -15 -49 -11 -53 3 -4 23 1 43 11 l36 17 33 -32 c36 -35 37 -34 34 23
-1 34 2 39 40 58 47 24 48 42 3 51 -45 9 -51 15 -58 69 -4 28 -12 50 -18 50
-7 0 -21 -17 -32 -38z"/>
<path d="M0 4560 l0 -31 31 21 c34 25 34 25 -3 34 -26 6 -28 4 -28 -24z"/>
<path d="M997 4577 c-3 -8 -8 -39 -12 -69 l-7 -56 -47 -7 c-62 -8 -112 -25
-106 -35 2 -4 32 -18 65 -30 33 -12 63 -26 66 -31 2 -5 -2 -36 -11 -70 -9 -34
-14 -63 -11 -66 5 -5 16 2 89 60 l35 28 61 -30 c33 -17 65 -31 71 -31 17 0 11
25 -20 81 -16 30 -30 57 -30 61 0 4 20 21 45 39 25 18 45 36 45 41 0 4 -31 8
-69 8 l-68 0 -34 57 c-35 59 -53 73 -62 50z"/>
<path d="M2201 4518 c-5 -13 -12 -30 -14 -39 -3 -9 -21 -19 -41 -23 -46 -9
-46 -23 0 -42 32 -13 35 -18 29 -44 -7 -32 5 -39 25 -15 16 19 40 19 67 0 26
-18 39 -5 23 24 -15 28 -12 58 5 65 8 3 15 13 15 22 0 13 -6 15 -30 11 -27 -6
-31 -3 -44 28 -17 41 -23 43 -35 13z"/>
<path d="M2993 4477 c-6 -6 -13 -20 -16 -29 -4 -13 -17 -18 -42 -18 -39 0 -46
-14 -15 -30 22 -12 26 -41 9 -72 -16 -29 -3 -35 32 -14 30 18 32 18 60 -3 38
-28 41 -27 34 12 -6 29 -3 36 19 51 35 22 33 34 -6 38 -26 2 -33 8 -40 35 -10
37 -22 48 -35 30z"/>
<path d="M0 4343 c0 -32 4 -43 15 -43 19 0 19 9 0 51 l-14 34 -1 -42z"/>
<path d="M3795 4350 c-12 -23 -22 -30 -45 -30 -35 0 -37 -6 -9 -36 20 -21 20
-23 4 -54 -16 -31 -16 -33 2 -27 10 3 28 9 40 12 16 5 25 1 38 -19 26 -40 38
-32 31 18 -7 41 -5 45 20 58 42 20 42 38 0 38 -29 0 -36 4 -36 19 0 26 -10 51
-21 51 -5 0 -15 -13 -24 -30z"/>
<path d="M369 4349 c-8 -16 -8 -47 1 -121 6 -55 10 -101 8 -102 -2 -2 -45 -25
-95 -51 -51 -27 -93 -54 -93 -61 0 -7 25 -18 58 -25 155 -32 157 -33 160 -65
5 -44 41 -177 51 -187 9 -9 23 11 86 126 20 37 42 67 48 67 7 0 50 -7 96 -15
125 -22 129 -12 36 97 -36 42 -65 81 -65 86 0 5 21 53 46 107 61 129 54 136
-72 71 l-95 -48 -68 71 c-37 39 -73 71 -79 71 -6 0 -16 -9 -23 -21z"/>
<path d="M4691 4329 c-6 -17 -20 -33 -31 -36 -20 -5 -20 -7 -4 -24 10 -12 15
-29 12 -49 -5 -34 6 -38 34 -13 15 13 22 14 44 4 34 -15 39 -9 26 27 -8 25 -7
33 11 51 l21 21 -30 0 c-23 0 -34 6 -42 25 -15 33 -28 32 -41 -6z"/>
<path d="M154 4263 c-3 -12 -15 -25 -25 -28 -20 -7 -26 -25 -9 -25 6 0 10 -11
10 -25 0 -21 5 -25 29 -25 17 0 33 -4 36 -10 13 -21 25 -9 25 24 0 19 5 38 10
41 18 11 10 25 -14 25 -13 0 -31 10 -39 23 l-16 22 -7 -22z"/>
<path d="M1461 4267 c-8 -10 -7 -19 4 -33 12 -17 15 -18 30 -3 17 17 11 49
-10 49 -7 0 -18 -6 -24 -13z"/>
<path d="M4482 4219 c2 -6 8 -10 13 -10 5 0 11 4 13 10 2 6 -4 11 -13 11 -9 0
-15 -5 -13 -11z"/>
<path d="M2100 4205 c0 -9 5 -15 11 -13 6 2 11 8 11 13 0 5 -5 11 -11 13 -6 2
-11 -4 -11 -13z"/>
<path d="M2565 4143 c4 -27 14 -79 21 -117 8 -38 13 -70 12 -71 -2 -1 -45 -28
-95 -59 -51 -32 -93 -62 -93 -67 0 -14 43 -28 137 -47 96 -18 91 -12 118 -166
15 -87 24 -112 32 -91 2 6 28 57 57 115 l54 105 111 -3 c86 -2 111 0 111 10 0
7 -32 48 -72 92 l-71 78 41 84 c23 46 42 91 42 99 0 24 -33 17 -118 -25 -90
-45 -96 -47 -114 -22 -30 40 -141 132 -159 132 -18 0 -20 -4 -14 -47z"/>
<path d="M1050 4151 c-5 -11 -18 -67 -27 -125 l-17 -105 -65 -11 c-199 -34
-204 -42 -65 -115 53 -27 100 -55 105 -61 5 -6 -1 -51 -16 -113 -14 -56 -25
-109 -25 -117 0 -28 30 -13 107 52 43 36 84 68 91 71 7 3 51 -14 97 -38 46
-24 86 -41 90 -38 3 4 -11 57 -31 120 l-36 112 86 85 c47 47 86 89 86 95 0 10
-206 2 -234 -9 -8 -3 -26 27 -51 83 -60 136 -74 153 -95 114z"/>
<path d="M4160 4146 c-5 -13 -12 -41 -16 -62 -12 -67 -19 -74 -77 -74 -58 0
-97 -8 -97 -20 0 -4 30 -23 68 -41 75 -38 73 -35 52 -136 -8 -34 -11 -65 -7
-69 3 -4 31 14 62 41 l56 47 65 -42 c35 -24 67 -40 71 -37 3 4 -8 40 -26 82
-17 41 -31 76 -31 78 0 2 25 21 55 41 30 20 55 40 55 45 0 9 -71 21 -121 21
-20 0 -30 6 -35 23 -20 66 -47 127 -55 127 -5 0 -14 -11 -19 -24z"/>
<path d="M1690 4105 c-7 -8 -10 -22 -6 -30 7 -20 42 -19 50 1 8 22 8 22 -13
33 -14 8 -22 7 -31 -4z"/>
<path d="M2317 4064 c-13 -26 -22 -34 -35 -30 -9 3 -23 2 -30 -2 -9 -7 -8 -13
8 -27 13 -12 20 -31 20 -57 l0 -39 31 18 c29 17 31 17 43 1 21 -28 26 -22 26
31 0 28 5 53 10 56 17 11 11 25 -10 25 -15 0 -22 9 -26 30 -8 39 -17 38 -37
-6z"/>
<path d="M3227 4050 c-14 -38 -18 -40 -56 -40 -48 0 -52 -11 -14 -38 27 -20
27 -21 15 -67 -7 -26 -11 -50 -8 -52 2 -2 18 3 35 11 37 20 60 20 67 2 3 -8
17 -22 31 -32 l26 -16 -6 30 c-3 16 -9 40 -12 53 -5 20 1 28 35 47 48 27 44
42 -10 42 -37 0 -40 2 -49 38 -6 20 -11 43 -11 50 0 27 -28 9 -43 -28z"/>
<path d="M4643 4038 c-6 -7 -19 -39 -28 -70 l-16 -58 -62 0 c-89 0 -100 -11
-46 -49 93 -64 85 -50 66 -117 -9 -33 -17 -63 -17 -67 0 -17 27 -4 72 34 l48
40 51 -36 c27 -21 53 -35 56 -31 4 3 -1 30 -10 60 -9 29 -17 58 -17 64 0 6 22
23 50 39 27 15 48 33 47 38 -2 6 -29 13 -61 16 -32 4 -61 10 -66 15 -4 5 -15
34 -25 64 -21 65 -28 75 -42 58z"/>
<path d="M1541 4000 c-7 -20 -17 -30 -30 -30 -23 0 -27 -10 -11 -26 8 -8 7
-19 0 -39 -14 -36 -8 -40 31 -26 30 10 35 9 61 -16 33 -32 41 -28 28 15 -8 29
-6 35 21 54 32 24 24 38 -23 38 -20 0 -28 7 -37 30 -5 17 -14 30 -20 30 -5 0
-14 -13 -20 -30z"/>
<path d="M3659 3986 l-20 -46 -57 0 -57 -1 27 -24 c16 -13 36 -28 45 -34 17
-9 17 -13 -5 -53 -34 -65 -29 -72 29 -42 l52 26 36 -36 c20 -20 41 -36 45 -36
8 0 3 50 -10 96 -5 18 1 24 40 39 60 23 59 41 -3 49 -49 6 -50 7 -63 53 -18
62 -34 65 -59 9z"/>
<path d="M4962 3998 c-6 -26 -14 -34 -35 -36 -32 -4 -34 -13 -8 -36 16 -14 18
-23 10 -43 -18 -48 -5 -57 38 -23 23 18 27 18 55 4 36 -19 42 -15 27 20 -11
23 -9 29 11 51 l23 25 -30 0 c-33 0 -49 13 -54 44 -7 33 -28 29 -37 -6z"/>
<path d="M1954 4005 c-4 -9 -14 -46 -23 -83 -16 -63 -19 -67 -47 -70 -76 -6
-114 -14 -114 -23 0 -5 19 -18 43 -28 82 -37 82 -37 61 -124 -9 -42 -15 -79
-12 -83 4 -3 34 17 68 45 33 28 63 51 65 51 2 0 36 -20 77 -45 88 -55 97 -45
43 50 -20 36 -33 69 -30 75 3 5 28 22 55 37 28 15 50 31 50 35 0 9 -48 17
-114 20 l-50 3 -23 78 c-23 75 -37 93 -49 62z"/>
<path d="M53 3798 c-30 -38 -53 -144 -53 -245 l0 -104 37 26 c21 14 41 25 46
25 4 0 33 -20 65 -45 65 -52 71 -47 48 43 -9 33 -16 62 -16 64 0 3 23 19 50
36 27 17 50 35 50 40 0 5 -34 14 -76 18 l-76 9 -25 65 c-28 75 -36 86 -50 68z"/>
<path d="M1476 3761 c-10 -16 5 -42 23 -39 21 4 21 42 -1 46 -9 2 -19 -1 -22
-7z"/>
<path d="M711 3730 c-18 -16 -21 -23 -12 -34 7 -8 10 -18 9 -24 -3 -11 -1 -12
43 -12 22 0 30 4 26 14 -3 7 0 19 6 26 9 10 9 14 -1 17 -7 3 -19 11 -26 19
-18 17 -16 18 -45 -6z"/>
<path d="M2305 3661 c-3 -10 -17 -22 -31 -25 -24 -7 -25 -8 -10 -25 9 -10 16
-28 16 -40 0 -18 4 -22 18 -15 9 4 27 7 40 7 16 -1 22 5 22 22 0 13 7 25 15
29 22 8 18 26 -5 26 -11 0 -25 9 -32 20 -16 25 -25 25 -33 1z"/>
<path d="M3617 3656 c-19 -28 -8 -44 34 -48 19 -2 25 2 27 21 3 15 -3 30 -14
38 -24 18 -29 17 -47 -11z"/>
<path d="M3205 3613 c-10 -27 -22 -60 -27 -74 -10 -29 -39 -39 -109 -39 -22 0
-39 -4 -39 -9 0 -5 25 -24 55 -41 l54 -31 -31 -64 c-18 -35 -29 -67 -26 -71 4
-3 35 11 69 31 l62 36 52 -51 c29 -29 55 -48 58 -43 2 4 -3 41 -13 81 l-17 73
58 30 c33 16 59 33 59 38 0 5 -26 12 -57 16 -32 4 -63 8 -69 10 -7 2 -19 38
-29 79 -9 42 -20 76 -25 76 -5 0 -16 -21 -25 -47z"/>
<path d="M5023 3650 c-32 -13 -29 -23 22 -64 44 -37 45 -38 45 -97 0 -46 3
-59 15 -59 12 0 15 19 15 115 l0 115 -37 -1 c-21 0 -48 -4 -60 -9z"/>
<path d="M4830 3581 l-21 -69 -75 -7 c-41 -4 -74 -11 -74 -16 0 -5 25 -23 55
-40 30 -17 55 -37 55 -43 0 -7 -9 -39 -20 -71 -11 -32 -20 -60 -20 -62 0 -10
27 1 74 33 l54 35 48 -37 c57 -43 64 -35 41 46 -17 56 -18 55 61 94 28 14 52
31 52 36 0 10 -39 18 -104 22 -36 3 -41 6 -49 38 -23 96 -29 110 -42 110 -9 0
-22 -26 -35 -69z"/>
<path d="M4022 3603 c-6 -16 -14 -38 -17 -50 -5 -18 -14 -23 -41 -23 -43 0
-43 -16 -2 -50 l32 -27 -18 -42 c-11 -23 -16 -44 -13 -47 3 -3 24 4 46 17 l41
23 30 -29 c37 -35 46 -28 32 24 -10 43 -8 48 51 85 37 23 26 36 -33 36 l-49 0
-16 55 c-17 61 -28 68 -43 28z"/>
<path d="M390 3495 c0 -52 -4 -77 -12 -79 -7 -2 -34 -10 -60 -16 -27 -7 -48
-18 -48 -25 0 -7 24 -23 53 -35 28 -12 53 -24 55 -25 2 -2 -4 -28 -13 -59 -9
-31 -15 -61 -13 -66 2 -6 26 6 55 25 29 19 58 35 65 35 7 0 36 -23 65 -52 59
-58 63 -54 41 42 -13 56 -6 69 37 70 11 0 27 5 35 10 12 8 9 15 -18 43 l-33
33 36 47 c19 25 35 51 35 57 0 14 -44 6 -115 -22 l-49 -19 -51 56 c-27 30 -53
55 -57 55 -5 0 -8 -34 -8 -75z"/>
<path d="M1466 3551 c-3 -5 -9 -68 -12 -140 l-7 -131 -91 -51 c-108 -60 -151
-93 -142 -108 5 -7 48 -11 120 -11 79 0 117 -4 124 -12 5 -7 15 -54 22 -104 7
-51 16 -98 21 -105 11 -19 31 1 81 82 23 38 48 71 55 73 7 3 43 -1 80 -9 38
-8 72 -10 76 -6 5 5 -23 43 -63 87 l-72 78 93 88 c64 60 90 91 83 98 -7 7 -40
5 -104 -6 l-94 -16 -21 24 c-11 14 -44 59 -73 101 -50 74 -65 87 -76 68z"/>
<path d="M4372 3483 c-5 -10 -17 -48 -28 -85 l-19 -68 -50 0 c-111 0 -157 -22
-101 -48 14 -6 43 -23 65 -36 l40 -26 -34 -72 c-55 -114 -51 -118 66 -57 l79
41 66 -62 c39 -36 70 -58 75 -53 5 5 1 42 -11 88 -11 43 -20 84 -20 91 0 8 19
23 43 35 63 32 100 60 90 70 -4 4 -45 11 -90 15 l-82 7 -28 85 c-29 88 -45
107 -61 75z"/>
<path d="M3705 3443 c-9 -21 -21 -48 -26 -60 -7 -20 -16 -23 -69 -23 -34 0
-60 -4 -60 -10 0 -6 23 -24 51 -41 27 -17 48 -37 46 -43 -3 -6 -13 -30 -22
-54 -19 -46 -14 -62 13 -46 9 6 31 19 49 29 l32 19 48 -45 c54 -50 62 -43 39
35 -17 56 -12 65 52 86 58 21 32 50 -45 50 -38 0 -43 7 -58 79 -6 30 -16 56
-22 58 -7 3 -19 -13 -28 -34z"/>
<path d="M982 3418 c-5 -7 -16 -35 -24 -63 -13 -49 -15 -50 -53 -52 -22 -1
-48 -2 -57 -2 -29 -1 -21 -14 31 -53 l49 -37 -21 -65 c-11 -36 -18 -68 -14
-72 3 -4 28 9 54 29 l47 35 45 -37 44 -36 -6 45 c-4 25 -9 54 -12 65 -4 16 5
26 52 50 31 17 58 36 60 42 3 8 -20 14 -65 18 l-69 7 -22 69 c-12 38 -24 69
-25 69 -2 0 -8 -6 -14 -12z"/>
<path d="M2734 3366 c-3 -9 -12 -16 -20 -16 -14 0 -20 -36 -6 -43 4 -2 19 -7
35 -11 22 -5 27 -3 27 12 0 10 4 22 9 28 6 5 0 16 -15 27 -21 16 -25 16 -30 3z"/>
<path d="M2335 3280 c-4 -47 -12 -83 -19 -85 -6 -2 -38 -9 -70 -17 -33 -7 -61
-18 -63 -25 -3 -7 22 -21 57 -34 34 -12 64 -28 67 -35 2 -7 -1 -29 -7 -51 -31
-104 -38 -133 -30 -138 9 -5 81 44 127 88 l32 30 71 -31 c115 -52 120 -46 50
58 -22 32 -40 63 -40 69 0 5 27 31 60 56 33 25 60 51 60 57 0 10 -64 8 -164
-5 -13 -1 -28 17 -56 68 -54 97 -66 96 -75 -5z"/>
<path d="M2174 3289 c-3 -6 -2 -15 2 -19 12 -12 38 5 30 19 -9 14 -23 14 -32
0z"/>
<path d="M150 3270 c-8 -16 -8 -24 4 -35 22 -22 50 -18 62 9 9 19 8 25 -7 35
-27 16 -47 14 -59 -9z"/>
<path d="M1925 3240 c-14 -28 -20 -30 -70 -30 -30 0 -55 -4 -55 -8 0 -5 16
-17 35 -28 19 -10 35 -21 35 -24 0 -4 -7 -28 -16 -54 -9 -26 -13 -50 -9 -54 3
-4 20 1 36 11 42 24 50 22 87 -20 l33 -38 -4 56 -3 57 38 13 c47 15 44 29 -10
49 -31 10 -42 20 -42 35 -1 66 -29 85 -55 35z"/>
<path d="M2823 3180 c-6 -17 -15 -30 -20 -29 -4 1 -17 1 -28 0 -19 -1 -19 -2
3 -19 18 -14 22 -24 17 -45 -8 -31 -3 -33 29 -12 20 13 25 13 42 0 29 -22 36
-18 29 14 -5 24 -2 32 15 41 25 13 17 30 -14 30 -15 0 -27 9 -34 25 -15 33
-25 32 -39 -5z"/>
<path d="M3306 3143 c-7 -16 -21 -56 -31 -89 l-17 -62 -71 -6 c-85 -9 -117
-15 -117 -26 0 -4 34 -22 76 -40 85 -38 83 -30 43 -137 -12 -35 -20 -66 -16
-70 4 -4 41 17 82 45 41 29 77 52 80 52 3 0 34 -22 69 -50 35 -27 69 -50 75
-50 14 0 7 31 -26 119 -18 51 -21 66 -11 73 7 5 37 23 66 41 28 17 51 36 49
42 -2 5 -40 11 -85 13 l-81 3 -26 84 c-14 47 -30 85 -35 85 -5 0 -16 -12 -24
-27z"/>
<path d="M4682 3133 c2 -10 10 -18 18 -18 8 0 16 8 18 18 2 12 -3 17 -18 17
-15 0 -20 -5 -18 -17z"/>
<path d="M4995 3107 c-8 -20 -15 -40 -15 -45 0 -5 -7 -32 -15 -60 -14 -48 -18
-52 -53 -57 -78 -13 -132 -27 -132 -36 0 -5 32 -25 70 -44 39 -19 70 -39 70
-43 0 -4 -6 -41 -14 -82 -8 -41 -12 -78 -9 -83 3 -4 33 19 68 52 35 34 66 61
69 61 3 0 20 -9 38 -20 18 -11 36 -20 40 -20 4 0 7 54 7 121 -1 95 -3 119 -14
115 -9 -3 -22 20 -40 72 -15 42 -34 83 -41 91 -12 13 -16 9 -29 -22z"/>
<path d="M387 3063 c-4 -3 -7 -14 -7 -23 0 -12 -11 -20 -32 -24 l-31 -6 21
-23 c12 -13 22 -33 22 -45 0 -26 7 -28 31 -6 16 14 20 14 44 -2 l27 -18 -3 31
c-2 20 3 39 15 52 19 21 19 21 -13 21 -24 0 -34 6 -43 25 -11 26 -19 30 -31
18z"/>
<path d="M1 2900 l0 -145 53 -32 c30 -18 57 -33 60 -33 12 0 6 39 -14 85 -11
26 -20 53 -20 60 0 8 26 35 58 61 31 25 58 50 60 55 2 4 -36 10 -85 11 l-87 3
-12 40 c-11 36 -13 24 -13 -105z"/>
<path d="M3910 3016 c-5 -15 -10 -37 -10 -49 0 -53 -11 -66 -56 -73 -24 -3
-47 -10 -49 -15 -5 -7 5 -15 72 -55 18 -12 20 -18 13 -46 -26 -103 -22 -108
39 -53 21 19 43 35 48 35 5 0 28 -14 51 -31 24 -17 45 -29 49 -26 3 3 -4 33
-15 66 l-20 60 56 43 57 43 -75 5 -75 5 -26 48 c-37 69 -46 76 -59 43z"/>
<path d="M816 2928 c-3 -24 -7 -63 -9 -88 l-2 -45 -69 -12 c-39 -7 -74 -17
-80 -23 -9 -9 45 -38 132 -71 25 -10 26 -22 12 -119 -5 -35 -7 -66 -4 -69 2
-3 31 21 64 54 l59 58 75 -31 c42 -18 78 -32 81 -32 15 0 0 38 -36 91 -22 33
-38 67 -35 74 3 8 28 31 56 51 27 20 50 40 50 46 0 6 -31 9 -81 7 l-81 -4 -51
74 c-29 41 -57 76 -64 78 -7 3 -14 -12 -17 -39z"/>
<path d="M2887 2932 c-14 -35 -18 -38 -50 -34 -47 5 -57 -14 -21 -43 31 -25
31 -21 -2 -99 -6 -16 -4 -18 12 -12 76 32 71 32 110 -4 l36 -35 -7 35 c-4 19
-9 44 -12 56 -3 16 4 24 36 39 59 26 54 35 -24 47 -11 2 -21 12 -23 23 -11 77
-31 87 -55 27z"/>
<path d="M1907 2903 c-3 -4 -10 -34 -17 -65 -8 -42 -16 -58 -27 -58 -33 0
-143 -22 -143 -29 0 -4 29 -19 65 -35 36 -15 65 -34 65 -41 0 -7 -7 -32 -15
-55 -29 -83 -15 -90 60 -30 28 22 56 40 63 40 7 0 35 -12 63 -26 28 -14 54
-23 57 -19 4 3 -7 31 -23 62 l-29 56 21 16 c11 9 36 24 54 34 43 24 25 37 -51
37 l-55 0 -30 57 c-29 55 -48 73 -58 56z"/>
<path d="M4315 2850 c-3 -6 1 -13 10 -16 19 -8 30 0 20 15 -8 14 -22 14 -30 1z"/>
<path d="M4482 2824 c-6 -11 -18 -45 -27 -76 -14 -49 -20 -58 -39 -58 -39 0
-136 -22 -136 -31 0 -5 29 -22 64 -38 l65 -29 -20 -62 c-10 -34 -19 -66 -19
-71 0 -20 29 -7 79 36 l53 45 48 -40 c46 -39 70 -49 70 -32 0 5 -9 35 -20 68
-11 32 -18 64 -16 70 3 7 28 27 55 46 72 47 70 51 -28 52 l-55 1 -23 59 c-28
73 -38 84 -51 60z"/>
<path d="M2531 2761 c-8 -17 -20 -31 -27 -31 -17 0 -18 -16 -3 -26 6 -3 9 -15
6 -25 -7 -25 7 -33 24 -13 9 11 22 14 46 9 32 -6 33 -5 27 19 -4 17 -1 27 13
34 16 9 14 11 -12 18 -16 4 -37 16 -45 27 -16 19 -17 19 -29 -12z"/>
<path d="M3680 2770 c0 -5 -13 -10 -30 -10 -23 0 -30 -4 -30 -20 0 -11 4 -20
10 -20 5 0 9 -10 7 -22 -2 -19 3 -22 41 -24 41 -2 44 -1 40 21 -3 13 -2 29 2
36 4 6 0 20 -8 30 -18 21 -32 25 -32 9z"/>
<path d="M2255 2717 c-23 -17 -14 -47 15 -47 26 0 37 27 18 46 -12 12 -17 12
-33 1z"/>
<path d="M482 2681 c-20 -12 3 -63 26 -59 24 5 28 44 5 57 -11 5 -25 6 -31 2z"/>
<path d="M1423 2673 c-2 -10 -19 -56 -37 -103 l-31 -85 -87 -5 c-48 -3 -90 -9
-95 -13 -10 -10 14 -28 90 -69 43 -23 56 -35 51 -47 -34 -84 -54 -146 -52
-158 2 -11 23 0 73 36 38 28 76 51 83 51 8 0 38 -20 66 -45 83 -71 84 -68 45
75 -10 35 -15 68 -13 72 3 5 40 31 82 60 42 28 79 53 81 55 14 11 -19 15 -102
14 l-94 -2 -13 77 c-6 43 -14 84 -17 91 -7 19 -24 16 -30 -4z"/>
<path d="M375 2638 c-3 -7 -15 -42 -28 -78 l-23 -65 -87 -3 c-48 -1 -87 -7
-87 -11 0 -5 29 -28 65 -51 36 -23 65 -43 65 -44 0 -1 -13 -33 -30 -71 -16
-39 -30 -76 -30 -83 0 -9 26 1 75 27 41 23 79 41 85 41 7 0 37 -22 68 -50 31
-27 60 -50 64 -50 12 0 10 28 -7 90 -21 78 -20 85 23 104 44 20 99 62 92 69
-3 3 -43 9 -89 14 l-83 8 -19 73 c-10 40 -21 77 -24 82 -9 14 -25 12 -30 -2z"/>
<path d="M2787 2626 c-4 -9 -9 -56 -13 -106 -4 -50 -12 -94 -18 -98 -6 -4 -36
-12 -66 -18 -30 -7 -68 -17 -85 -24 -28 -11 -29 -12 -12 -25 11 -8 51 -23 89
-35 l70 -21 -7 -109 c-4 -63 -3 -110 3 -114 10 -6 41 26 97 102 22 28 42 52
46 52 3 0 41 -16 84 -35 43 -20 80 -33 83 -30 6 6 -21 63 -67 140 l-30 51 50
39 c50 40 85 82 75 92 -3 3 -43 0 -90 -7 -48 -8 -88 -11 -91 -9 -2 3 -24 40
-48 84 -45 81 -60 97 -70 71z"/>
<path d="M4093 2598 c-6 -7 -21 -41 -34 -75 l-24 -63 -67 0 c-38 0 -68 -4 -68
-9 0 -5 23 -24 52 -42 28 -19 56 -37 61 -40 6 -4 1 -33 -13 -73 -12 -37 -19
-70 -16 -74 4 -3 33 8 65 26 32 18 61 32 65 32 4 0 27 -19 52 -42 26 -24 48
-37 53 -32 5 5 3 31 -5 59 -20 75 -19 78 41 108 30 15 55 31 55 37 0 9 -43 23
-112 36 -21 3 -38 11 -38 17 0 23 -41 147 -49 147 -5 0 -13 -6 -18 -12z"/>
<path d="M3385 2556 c-8 -19 -15 -40 -15 -46 0 -5 -22 -10 -50 -10 -27 0 -50
-3 -50 -7 0 -5 15 -20 34 -35 l35 -28 -16 -45 c-8 -26 -12 -49 -9 -52 4 -4 23
3 44 15 l37 21 39 -37 39 -37 -7 43 c-4 24 -7 48 -9 54 -1 5 13 15 32 21 51
18 50 35 -3 48 -44 11 -45 12 -56 65 -14 67 -26 75 -45 30z"/>
<path d="M4952 2460 l-47 -100 -75 1 c-101 2 -120 1 -120 -10 0 -5 29 -32 65
-60 36 -28 65 -57 65 -65 0 -7 -13 -43 -30 -79 -37 -83 -39 -111 -7 -101 12 3
33 14 47 24 14 9 42 26 62 39 l37 22 74 -66 c42 -36 78 -65 81 -65 10 0 6 53
-10 130 -15 73 -15 75 5 89 17 10 21 24 21 62 0 45 -2 49 -25 49 -31 0 -41 20
-49 100 -17 164 -29 168 -94 30z"/>
<path d="M2307 2488 c-8 -24 -18 -53 -22 -65 -5 -18 -16 -23 -70 -28 -36 -4
-65 -11 -65 -16 0 -5 23 -23 50 -40 28 -17 50 -34 50 -39 0 -4 -9 -27 -20 -51
-11 -24 -20 -52 -20 -62 0 -17 3 -17 43 5 23 13 51 30 63 38 19 12 27 9 78
-30 31 -24 59 -40 63 -37 3 4 -4 32 -16 63 -11 31 -21 60 -21 65 0 4 25 24 55
44 31 19 53 40 50 45 -3 6 -34 10 -69 10 l-63 0 -27 70 c-15 39 -31 70 -36 70
-4 0 -14 -19 -23 -42z"/>
<path d="M0 2295 l0 -54 65 40 c36 23 65 45 65 49 0 11 -38 20 -87 20 l-43 0
0 -55z"/>
<path d="M1680 2320 c0 -23 5 -30 19 -30 30 0 45 25 26 44 -26 26 -45 20 -45
-14z"/>
<path d="M1944 2305 c-13 -20 -25 -25 -55 -25 l-40 0 22 -30 c19 -25 21 -33
11 -56 -16 -34 -7 -46 24 -32 24 11 29 9 55 -22 l28 -35 1 46 c0 43 2 46 41
63 44 20 44 25 -4 41 -26 8 -33 16 -35 43 -4 39 -25 42 -48 7z"/>
<path d="M799 2261 l-21 -60 -64 -7 c-35 -3 -66 -10 -69 -14 -3 -5 17 -22 45
-39 27 -17 50 -32 50 -34 0 -1 -9 -27 -19 -57 -11 -30 -16 -56 -11 -58 5 -2
27 8 49 22 22 14 44 26 47 26 4 0 24 -16 46 -36 22 -19 42 -34 44 -31 4 4 -9
78 -22 118 -3 11 12 26 51 50 30 18 55 36 55 40 0 4 -26 11 -57 15 -46 7 -58
13 -61 29 -9 50 -24 95 -32 95 -5 0 -19 -27 -31 -59z"/>
<path d="M3732 2282 c-11 -35 -16 -39 -59 -48 -61 -12 -65 -28 -11 -45 41 -13
43 -16 48 -59 l5 -45 27 34 c25 33 27 34 57 21 41 -16 48 -8 29 33 -15 31 -15
34 3 45 28 18 23 32 -10 32 -25 0 -31 6 -41 35 -15 46 -34 44 -48 -3z"/>
<path d="M3253 2253 c-18 -6 -16 -33 1 -33 15 0 30 27 18 33 -4 3 -13 2 -19 0z"/>
<path d="M4433 2200 c-3 -11 -11 -20 -19 -20 -19 0 -27 -19 -15 -34 6 -7 10
-24 9 -37 -2 -17 1 -23 12 -19 8 2 32 4 53 4 35 0 38 2 34 23 -3 14 2 27 11
32 19 11 7 31 -18 31 -11 0 -24 9 -30 20 -6 11 -15 20 -21 20 -6 0 -13 -9 -16
-20z"/>
<path d="M1 2152 c-1 -48 3 -64 14 -69 9 -3 17 -4 19 -2 1 2 -5 33 -15 69
l-17 65 -1 -63z"/>
<path d="M2610 2195 c0 -8 7 -15 15 -15 8 0 15 7 15 15 0 8 -7 15 -15 15 -8 0
-15 -7 -15 -15z"/>
<path d="M1049 2161 c-7 -20 -19 -30 -40 -35 -25 -5 -43 -26 -21 -26 5 0 16
-6 25 -12 14 -11 15 -19 8 -45 -12 -40 -2 -41 39 -7 23 20 34 24 43 15 11 -11
47 -16 47 -6 0 3 -6 14 -12 25 -11 17 -9 22 10 35 34 24 28 39 -14 32 -33 -6
-37 -4 -47 23 -14 38 -25 38 -38 1z"/>
<path d="M3341 2148 c-5 -13 -14 -36 -19 -53 -8 -27 -14 -31 -63 -38 -73 -10
-80 -21 -26 -45 56 -25 61 -34 47 -77 -6 -19 -10 -44 -8 -56 3 -20 6 -19 48
15 25 20 50 36 57 36 6 0 26 -12 43 -26 17 -15 34 -24 37 -20 3 3 0 25 -8 48
-18 58 -19 55 20 76 19 10 36 23 38 29 4 10 -41 23 -81 23 -17 0 -24 10 -36
52 -17 58 -35 71 -49 36z"/>
<path d="M3966 2114 c-4 -10 -2 -22 3 -27 14 -14 43 0 39 20 -4 24 -34 28 -42
7z"/>
<path d="M479 2021 c-10 -34 -17 -41 -38 -42 -14 0 -35 -4 -46 -8 -18 -8 -16
-10 18 -27 40 -19 42 -25 26 -73 -6 -18 -9 -34 -7 -37 3 -2 22 9 43 26 l37 30
30 -21 30 -22 -7 45 c-6 41 -4 46 19 62 33 21 25 36 -19 36 -30 0 -35 4 -43
32 -12 46 -29 45 -43 -1z"/>
<path d="M204 1975 c-16 -49 -21 -55 -51 -61 -40 -8 -41 -12 -7 -39 26 -21 26
-22 10 -54 -22 -41 -16 -47 23 -27 42 22 50 21 89 -16 l35 -33 -6 35 c-4 19
-9 44 -12 55 -5 16 0 24 19 35 42 22 28 50 -24 50 -13 0 -20 10 -24 38 -17 90
-28 94 -52 17z"/>
<path d="M1407 2009 c-8 -13 -26 -46 -39 -74 l-23 -50 -55 -2 c-88 -4 -141
-14 -138 -25 2 -5 30 -25 63 -43 36 -19 61 -40 63 -52 1 -10 -9 -49 -23 -86
-14 -37 -25 -72 -25 -77 0 -21 28 -8 88 40 34 28 66 50 71 50 6 0 36 -23 68
-51 55 -48 58 -50 61 -27 1 12 -6 56 -17 96 l-19 73 86 43 c49 25 80 46 74 50
-6 4 -50 10 -96 13 -84 6 -84 6 -90 36 -3 16 -6 39 -6 51 0 12 -6 31 -14 41
-13 18 -14 17 -29 -6z"/>
<path d="M4252 2017 c-5 -6 -15 -37 -21 -67 -6 -30 -15 -60 -19 -66 -4 -6 -40
-16 -81 -22 -41 -6 -78 -15 -82 -19 -5 -5 21 -24 61 -43 42 -21 70 -40 70 -49
0 -9 -9 -45 -20 -79 -32 -101 -29 -103 61 -32 35 27 67 50 72 50 4 0 32 -16
62 -36 29 -20 58 -34 64 -33 6 2 -3 35 -20 77 -16 40 -29 77 -29 82 0 5 28 28
61 51 72 49 67 59 -32 59 l-67 0 -28 65 c-30 73 -37 81 -52 62z"/>
<path d="M1933 2008 c-6 -7 -16 -36 -23 -65 -11 -50 -13 -52 -51 -57 -21 -3
-57 -9 -79 -12 -22 -3 -40 -9 -40 -13 0 -5 27 -23 60 -40 33 -18 60 -35 60
-39 0 -4 -9 -31 -20 -60 -33 -87 -27 -90 63 -35 l60 36 63 -34 c35 -18 66 -30
71 -26 4 5 -6 33 -22 64 -32 62 -36 55 50 106 26 15 44 31 40 35 -3 4 -39 9
-78 12 l-71 5 -33 68 c-18 37 -34 67 -37 67 -2 0 -8 -6 -13 -12z"/>
<path d="M2529 1995 c-6 -17 -23 -66 -37 -110 l-27 -80 -93 -7 c-140 -11 -144
-18 -38 -69 48 -23 90 -48 93 -55 3 -7 -7 -48 -21 -91 -14 -43 -26 -84 -26
-91 0 -24 28 -11 96 47 l69 58 77 -53 c42 -30 81 -54 87 -54 19 0 12 28 -24
107 -19 42 -35 79 -35 83 0 5 37 31 81 60 48 30 78 55 73 60 -5 5 -49 10 -98
12 l-89 3 -28 94 c-33 111 -45 128 -60 86z"/>
<path d="M3692 1920 c5 -70 5 -72 -21 -82 -107 -42 -108 -45 -28 -68 l52 -16
8 -62 c10 -74 23 -78 62 -22 15 22 33 40 39 40 6 0 32 -8 58 -17 26 -9 50 -14
54 -10 4 3 -8 28 -25 55 -17 27 -31 53 -31 58 0 6 18 28 40 49 22 21 40 43 40
48 0 9 -106 2 -134 -9 -6 -2 -27 16 -46 42 -19 25 -44 50 -54 56 -18 10 -19 7
-14 -62z"/>
<path d="M2305 1950 c-11 -17 5 -50 25 -50 10 0 21 7 24 16 11 30 -33 60 -49
34z"/>
<path d="M4903 1938 c2 -7 10 -13 17 -13 7 0 15 6 18 13 2 7 -5 12 -18 12 -13
0 -20 -5 -17 -12z"/>
<path d="M4685 1930 c-4 -7 -3 -16 3 -22 14 -14 45 -2 40 15 -6 16 -34 21 -43
7z"/>
<path d="M3003 1890 c-15 -38 -18 -40 -59 -40 -56 0 -62 -13 -19 -40 40 -25
41 -27 20 -77 -8 -19 -15 -39 -15 -44 0 -15 24 -10 50 11 34 27 45 25 91 -12
21 -17 41 -29 44 -26 3 2 -2 27 -10 54 -17 54 -21 45 47 96 23 17 23 17 -23
18 -51 0 -60 7 -80 63 -7 20 -17 37 -22 37 -5 0 -16 -18 -24 -40z"/>
<path d="M5075 1831 l-26 -79 -93 5 c-63 4 -95 2 -100 -5 -7 -12 55 -61 119
-94 22 -11 43 -25 46 -30 3 -5 0 -39 -7 -76 -23 -120 -17 -127 59 -57 l47 43
0 186 c0 106 -4 186 -9 186 -5 0 -21 -36 -36 -79z"/>
<path d="M1 1669 c-1 -192 -1 -196 22 -217 13 -12 26 -19 30 -16 3 3 3 43 0
88 l-6 83 83 29 c46 16 85 34 87 41 4 12 -26 22 -127 42 l-56 12 -16 67 -15
67 -2 -196z"/>
<path d="M1047 1812 c-12 -2 -16 -9 -13 -19 3 -8 6 -21 6 -29 0 -26 54 -13 58
13 4 24 -22 42 -51 35z"/>
<path d="M4593 1807 c-6 -6 -13 -20 -16 -29 -4 -10 -16 -18 -28 -18 -21 0 -21
-1 -5 -19 13 -14 16 -28 11 -50 -7 -32 9 -43 31 -21 7 7 19 4 36 -10 36 -28
39 -26 32 19 -5 30 -3 39 10 44 23 9 20 37 -4 37 -12 0 -24 10 -30 24 -11 31
-25 39 -37 23z"/>
<path d="M863 1755 c-20 -25 -40 -45 -43 -45 -4 0 -25 16 -49 36 -23 20 -45
33 -49 30 -3 -4 1 -34 10 -67 l16 -60 -24 -10 c-14 -5 -36 -12 -50 -15 -39
-10 -38 -22 5 -43 22 -12 42 -25 45 -29 3 -5 -1 -30 -9 -57 -28 -90 -19 -95
54 -29 l51 46 67 -51 c81 -63 96 -56 59 24 -14 32 -26 63 -26 69 0 7 21 19 48
27 26 8 47 19 47 24 0 6 -22 18 -50 27 l-50 17 2 75 c1 42 -2 76 -7 76 -5 0
-26 -20 -47 -45z"/>
<path d="M3380 1760 c0 -13 7 -20 20 -20 13 0 20 7 20 20 0 13 -7 20 -20 20
-13 0 -20 -7 -20 -20z"/>
<path d="M460 1650 c0 -13 -10 -25 -27 -32 -39 -17 -39 -17 -14 -34 18 -13 22
-23 17 -45 -6 -33 8 -38 36 -12 17 15 19 15 36 0 17 -16 42 -23 42 -12 0 2 -5
16 -12 29 -9 21 -8 29 5 44 23 25 21 32 -8 32 -17 0 -29 8 -37 25 -13 30 -38
33 -38 5z"/>
<path d="M2215 1640 c-3 -5 -4 -14 0 -20 8 -13 35 -1 35 16 0 16 -26 19 -35 4z"/>
<path d="M1705 1630 c-4 -7 -3 -16 3 -22 14 -14 45 -2 40 15 -6 16 -34 21 -43
7z"/>
<path d="M4418 1508 l-33 -103 -105 -8 c-58 -4 -109 -12 -113 -16 -6 -6 102
-99 171 -147 2 -1 -6 -38 -17 -82 -39 -151 -26 -164 72 -72 36 33 70 60 76 60
6 0 43 -21 81 -47 39 -25 73 -43 77 -39 7 7 -5 72 -29 154 l-12 42 72 73 c40
40 72 76 72 80 0 4 -42 7 -94 7 l-94 0 -22 73 c-11 39 -25 83 -29 97 -4 14
-15 26 -23 28 -12 2 -24 -22 -50 -100z"/>
<path d="M1900 1498 c-45 -121 -48 -128 -62 -128 -7 0 -57 5 -110 12 -54 6
-101 8 -105 4 -5 -4 32 -45 81 -90 l89 -82 -38 -90 c-37 -89 -53 -144 -41
-144 11 0 78 37 126 69 25 17 52 31 60 31 8 0 51 -31 95 -69 50 -44 84 -66 90
-60 6 6 1 45 -13 107 -12 53 -22 104 -22 113 0 11 30 31 84 57 47 23 87 46 91
51 9 16 -28 30 -112 43 -43 6 -82 14 -86 18 -5 4 -17 43 -28 86 -11 44 -25 96
-30 117 -15 58 -34 46 -69 -45z"/>
<path d="M3329 1557 c-7 -15 -20 -27 -30 -27 -25 0 -32 -15 -14 -30 8 -7 15
-23 15 -36 0 -25 18 -32 37 -13 8 8 17 8 31 0 30 -16 34 -14 30 13 -1 13 6 33
16 45 19 21 19 21 -7 21 -16 0 -32 10 -45 27 l-20 28 -13 -28z"/>
<path d="M3636 1572 c-3 -6 -1 -14 5 -17 15 -10 25 3 12 16 -7 7 -13 7 -17 1z"/>
<path d="M2940 1480 c-15 -25 -30 -38 -40 -36 -85 23 -98 10 -45 -44 l36 -37
-27 -51 c-15 -29 -25 -55 -21 -58 4 -4 27 1 52 11 l46 17 45 -42 c25 -23 48
-39 51 -36 3 3 0 26 -6 52 -13 53 -11 57 42 74 20 6 37 16 37 21 0 5 -24 21
-54 35 -53 25 -55 27 -63 77 -4 27 -13 52 -18 54 -6 2 -21 -15 -35 -37z"/>
<path d="M1120 1480 c0 -6 -11 -16 -25 -22 -22 -10 -25 -16 -19 -42 8 -39 4
-36 46 -30 28 5 38 12 43 32 3 14 2 28 -3 31 -4 3 -11 14 -15 24 -7 18 -27 24
-27 7z"/>
<path d="M4840 1465 c-6 -16 -17 -25 -31 -25 -20 0 -21 -1 -5 -25 9 -13 16
-31 16 -38 0 -10 13 -14 43 -13 36 1 43 4 40 17 -3 10 0 26 6 38 10 17 9 21
-4 21 -8 0 -21 11 -27 25 -6 14 -15 25 -20 25 -5 0 -13 -11 -18 -25z"/>
<path d="M3870 1345 l0 -85 -40 -6 c-22 -4 -47 -12 -57 -19 -15 -11 -11 -16
35 -39 29 -14 52 -29 52 -32 0 -4 -13 -22 -30 -41 -16 -18 -30 -38 -30 -43 0
-15 31 -11 77 9 23 11 44 17 47 13 3 -3 6 -32 6 -64 0 -32 4 -58 9 -58 5 0 21
17 36 38 42 57 52 62 103 55 51 -7 51 -9 -6 70 l-34 48 46 40 c25 22 46 45 46
51 0 11 -69 6 -116 -8 -18 -5 -27 4 -58 58 -73 128 -86 130 -86 13z"/>
<path d="M2366 1383 c-12 -12 -6 -33 9 -33 8 0 15 6 15 14 0 17 -14 28 -24 19z"/>
<path d="M1337 1303 c-8 -32 -18 -72 -22 -89 -6 -30 -6 -30 -100 -41 -142 -17
-144 -22 -24 -84 55 -29 78 -46 75 -56 -10 -24 -46 -175 -46 -189 0 -27 23
-13 95 57 l73 70 72 -55 c40 -31 76 -54 80 -51 9 5 -4 59 -35 145 -8 23 -15
50 -15 59 1 9 30 38 65 65 36 26 65 52 65 57 0 11 -2 11 -104 13 l-79 1 -28
75 c-34 95 -51 100 -72 23z"/>
<path d="M3560 1330 c-23 -28 -28 -29 -65 -20 -55 13 -66 -2 -31 -39 l28 -29
-22 -42 -22 -43 29 7 c15 4 37 9 49 12 15 4 24 -3 39 -30 25 -46 39 -41 45 15
4 38 9 44 30 47 43 6 45 20 6 38 -34 17 -36 20 -36 66 0 57 -14 62 -50 18z"/>
<path d="M380 1325 c-5 -14 -16 -25 -25 -25 -17 0 -20 -16 -5 -25 6 -3 10 -22
10 -41 0 -38 5 -41 31 -18 13 12 22 13 38 5 30 -16 32 -14 25 24 -5 27 -3 36
10 41 24 9 19 24 -9 24 -14 0 -30 9 -37 20 -17 27 -27 25 -38 -5z"/>
<path d="M99 1256 c-42 -51 -59 -65 -77 -62 l-22 3 1 -181 0 -181 21 66 20 66
107 6 c113 7 151 14 151 28 0 4 -29 22 -64 38 -35 17 -68 37 -75 44 -8 11 -8
40 1 116 16 135 7 143 -63 57z"/>
<path d="M3265 1261 c-3 -10 -15 -21 -27 -24 -21 -6 -21 -7 -5 -24 10 -12 14
-27 10 -41 -5 -22 10 -31 22 -12 4 6 16 4 31 -6 23 -16 24 -16 24 12 0 15 7
36 17 46 15 17 15 18 -6 18 -13 0 -26 9 -33 25 -13 30 -24 32 -33 6z"/>
<path d="M2670 1245 c0 -8 7 -15 15 -15 8 0 15 7 15 15 0 8 -7 15 -15 15 -8 0
-15 -7 -15 -15z"/>
<path d="M620 1235 c0 -9 -12 -20 -26 -25 -19 -8 -23 -14 -16 -23 6 -6 12 -25
14 -41 3 -27 4 -28 19 -14 10 11 21 13 30 7 25 -16 41 -11 34 12 -4 13 -1 27
9 38 15 16 14 19 -9 29 -14 6 -25 16 -25 22 0 5 -7 10 -15 10 -8 0 -15 -7 -15
-15z"/>
<path d="M4986 1221 c-8 -12 25 -51 84 -101 l51 -43 -3 63 c-3 58 -5 64 -28
70 -58 16 -99 20 -104 11z"/>
<path d="M2517 1188 c-7 -18 -18 -46 -23 -63 -9 -28 -13 -30 -64 -31 -77 -2
-80 -3 -80 -13 0 -5 24 -27 54 -49 l54 -41 -18 -48 c-31 -85 -33 -93 -16 -93
9 0 38 14 66 31 l51 31 44 -41 c37 -34 66 -51 65 -38 0 1 -9 35 -19 75 l-19
72 56 28 c73 35 76 49 15 57 -92 13 -96 15 -113 85 -9 35 -21 65 -28 68 -7 2
-18 -11 -25 -30z"/>
<path d="M4842 1073 c-17 -18 -21 -28 -13 -36 6 -6 11 -22 11 -35 0 -20 3 -22
14 -13 8 7 25 9 40 5 23 -5 26 -3 26 19 0 14 5 29 10 32 15 9 2 25 -21 25 -11
0 -22 7 -25 15 -8 20 -14 18 -42 -12z"/>
<path d="M857 1083 c-4 -3 -7 -21 -7 -39 0 -28 -5 -35 -40 -50 -45 -20 -42
-32 15 -54 28 -11 35 -19 35 -41 0 -39 15 -44 43 -13 24 26 25 26 52 8 l28
-18 -6 24 c-3 14 -8 34 -12 45 -4 15 2 25 25 40 47 31 39 45 -29 45 -50 0 -61
3 -66 19 -7 23 -29 43 -38 34z"/>
<path d="M572 1013 c-7 -12 -12 -31 -12 -43 0 -14 -9 -24 -30 -31 -37 -13 -38
-22 -5 -43 14 -9 25 -23 25 -31 0 -17 26 -20 35 -5 3 6 18 7 31 4 24 -6 25 -5
19 29 -4 21 -3 37 4 41 17 11 13 26 -8 26 -12 0 -23 13 -33 38 -14 36 -15 36
-26 15z"/>
<path d="M3019 993 c-6 -15 -16 -50 -22 -76 -13 -57 -30 -67 -110 -67 -81 0
-89 -13 -32 -49 27 -17 57 -33 67 -37 23 -7 23 -27 -2 -92 -36 -95 -29 -99 66
-36 l54 36 58 -46 c32 -25 61 -46 65 -46 12 0 7 44 -13 110 -11 36 -20 66 -20
67 0 1 27 21 60 43 33 22 60 45 60 49 0 14 -28 21 -89 21 l-58 0 -25 72 c-27
80 -43 94 -59 51z"/>
<path d="M5106 983 c-4 -21 -9 -50 -12 -65 -4 -21 -2 -28 10 -28 13 0 16 12
16 65 0 36 -2 65 -4 65 -2 0 -7 -17 -10 -37z"/>
<path d="M4395 900 c-3 -11 -13 -20 -21 -20 -16 0 -19 -16 -4 -25 6 -3 10 -15
10 -25 0 -16 5 -18 38 -13 44 7 38 2 46 36 5 20 3 27 -8 27 -9 0 -20 9 -26 20
-6 11 -15 20 -20 20 -5 0 -12 -9 -15 -20z"/>
<path d="M4681 853 c-6 -21 -15 -54 -19 -73 -8 -33 -10 -35 -81 -50 -40 -8
-72 -19 -71 -25 1 -5 23 -18 48 -28 26 -10 51 -22 56 -27 4 -4 -1 -34 -13 -66
-12 -32 -18 -61 -13 -66 4 -4 34 10 66 32 31 22 59 40 62 40 3 0 32 -18 64
-40 32 -22 61 -40 64 -40 13 0 5 44 -19 102 -14 34 -24 62 -22 62 18 9 107 73
107 79 0 4 -33 7 -73 7 l-74 0 -24 62 c-13 34 -30 63 -36 65 -7 3 -16 -12 -22
-34z"/>
<path d="M213 834 c-3 -9 -9 -30 -12 -48 -6 -26 -13 -33 -44 -40 -20 -5 -37
-12 -37 -16 0 -3 13 -16 30 -28 24 -18 28 -26 21 -45 -29 -80 -20 -95 31 -52
37 31 53 31 90 0 17 -14 32 -24 34 -22 2 2 -4 27 -13 56 -16 48 -16 54 -2 61
9 5 27 18 40 29 l24 20 -46 1 c-51 0 -61 8 -78 63 -13 39 -28 47 -38 21z"/>
<path d="M3543 823 c-4 -10 -17 -49 -28 -88 l-20 -70 -83 -5 c-45 -3 -83 -9
-84 -15 0 -5 14 -19 33 -29 19 -10 53 -29 75 -42 l42 -24 -24 -75 c-39 -124
-31 -132 57 -55 32 28 61 50 66 50 5 0 33 -19 63 -41 66 -49 71 -41 37 54
l-24 67 68 42 c38 24 69 46 69 49 0 11 -43 19 -106 19 l-61 0 -24 87 c-24 86
-42 111 -56 76z"/>
<path d="M2254 793 c-10 -49 -12 -51 -43 -58 -45 -10 -47 -23 -6 -42 36 -17
36 -19 30 -60 -7 -51 8 -57 45 -17 24 24 38 26 84 8 14 -5 14 -1 0 41 -16 45
-16 47 7 71 24 25 22 27 -26 25 -24 -1 -34 5 -47 29 -21 37 -36 38 -44 3z"/>
<path d="M3787 805 c-31 -23 -15 -52 23 -40 22 7 27 40 7 48 -7 3 -21 -1 -30
-8z"/>
<path d="M4055 798 c-3 -7 -8 -53 -13 -102 l-7 -90 -83 -24 c-46 -14 -81 -30
-79 -36 2 -6 34 -19 72 -28 37 -10 70 -20 73 -22 2 -3 -5 -40 -17 -84 -34
-125 -31 -127 62 -42 36 33 70 60 76 60 5 0 36 -16 68 -35 97 -58 104 -47 43
71 l-40 77 55 63 c30 34 55 65 55 68 0 11 -43 6 -98 -11 -34 -11 -57 -14 -59
-8 -2 6 -20 41 -41 79 -37 70 -58 89 -67 64z"/>
<path d="M926 765 c-3 -9 -6 -36 -6 -60 0 -65 -6 -73 -77 -95 -35 -11 -72 -24
-80 -29 -14 -8 -14 -10 3 -18 10 -6 43 -16 73 -24 61 -15 71 -30 72 -112 0
-29 4 -61 8 -72 7 -17 11 -14 40 25 18 25 38 55 44 68 13 27 23 27 82 2 26
-11 49 -20 51 -20 11 0 1 26 -31 76 -19 30 -35 58 -35 62 0 4 18 26 40 47 52
51 53 70 3 61 -76 -13 -75 -13 -115 44 -41 58 -62 71 -72 45z"/>
<path d="M1901 736 c-19 -20 -20 -26 -8 -49 9 -17 18 -23 26 -17 7 4 22 5 32
3 29 -8 25 47 -5 69 -22 16 -24 16 -45 -6z"/>
<path d="M1720 715 c0 -10 7 -15 18 -13 21 4 19 22 -2 26 -10 2 -16 -3 -16
-13z"/>
<path d="M1535 689 c-4 -5 -15 -38 -24 -72 -19 -66 -29 -74 -101 -76 -70 -2
-70 -18 3 -51 75 -34 74 -33 52 -125 -23 -94 -21 -95 57 -25 l56 50 29 -23
c44 -36 84 -59 90 -53 4 3 -6 36 -20 74 -15 37 -27 72 -27 78 0 5 25 22 55 37
30 15 55 31 55 36 0 5 -30 12 -67 16 -38 3 -72 8 -78 10 -5 1 -21 32 -33 69
-23 64 -34 77 -47 55z"/>
<path d="M2521 638 c-1 -9 -11 -24 -23 -32 -17 -12 -20 -18 -10 -28 7 -7 12
-19 12 -27 0 -12 11 -16 41 -17 34 0 40 3 36 18 -3 9 1 22 9 29 21 17 17 29
-10 29 -13 0 -30 10 -39 23 -13 18 -16 19 -16 5z"/>
<path d="M5013 578 c-5 -7 -13 -21 -16 -30 -4 -10 -13 -18 -22 -18 -19 0 -19
-14 -1 -29 8 -7 11 -22 8 -38 -5 -27 -5 -27 20 -11 14 9 35 14 47 11 17 -4 21
-1 21 20 0 14 5 29 10 32 17 10 11 25 -10 25 -11 0 -25 11 -33 26 -10 20 -16
23 -24 12z"/>
<path d="M526 558 c-3 -13 -8 -44 -11 -70 -7 -51 -2 -48 -107 -74 -16 -3 -28
-9 -28 -13 0 -4 28 -20 61 -34 47 -20 60 -30 55 -43 -10 -27 -19 -124 -11
-124 4 0 29 18 55 40 l48 41 46 -23 c25 -12 49 -18 53 -14 4 4 -8 36 -27 72
l-34 64 42 43 c23 23 42 47 42 51 0 5 -24 6 -54 2 l-54 -6 -22 55 c-23 57 -46
71 -54 33z"/>
<path d="M440 544 c0 -17 22 -14 28 4 2 7 -3 12 -12 12 -9 0 -16 -7 -16 -16z"/>
<path d="M2667 553 c-2 -5 -8 -30 -12 -57 -10 -71 -12 -73 -66 -80 -94 -13
-97 -23 -19 -57 70 -30 72 -35 50 -108 -26 -83 -26 -95 1 -80 12 6 41 29 64
50 l42 39 54 -41 c48 -36 54 -38 57 -21 2 11 -8 47 -22 81 l-25 62 46 32 c86
60 86 56 -4 57 l-83 0 -30 59 c-30 60 -45 78 -53 64z"/>
<path d="M87 503 c-13 -43 -18 -49 -51 -56 -42 -11 -46 -28 -10 -52 22 -14 25
-21 19 -52 -3 -19 -9 -41 -12 -49 -9 -24 21 -16 57 16 42 35 49 36 100 10 l40
-20 0 20 c0 12 -7 34 -15 50 -14 28 -14 29 20 50 19 12 35 26 35 31 0 5 -26 9
-59 9 l-58 0 -13 45 c-7 25 -19 45 -26 45 -7 0 -20 -21 -27 -47z"/>
<path d="M2051 527 c-5 -13 -15 -42 -22 -65 l-12 -42 -68 0 c-37 0 -70 -4 -73
-9 -3 -5 17 -24 46 -42 28 -19 55 -37 61 -40 5 -4 -2 -37 -17 -78 -14 -40 -26
-74 -26 -77 0 -12 30 0 79 31 l54 34 47 -39 c46 -39 70 -49 70 -32 0 5 -9 35
-20 67 -11 32 -20 62 -20 67 0 4 25 19 55 33 30 13 55 28 55 34 0 5 -31 14
-70 21 l-70 12 -10 41 c-29 111 -42 130 -59 84z"/>
<path d="M4417 534 c-14 -14 -7 -35 11 -32 9 2 17 10 17 17 0 16 -18 25 -28
15z"/>
<path d="M3234 459 c-3 -6 -1 -16 5 -22 9 -9 14 -8 21 3 9 15 4 30 -10 30 -5
0 -12 -5 -16 -11z"/>
<path d="M1207 443 c-3 -5 -4 -19 -3 -33 1 -19 7 -25 24 -26 30 -2 54 42 31
57 -17 11 -46 12 -52 2z"/>
<path d="M3078 368 c-12 -9 -15 -22 -11 -40 4 -23 11 -28 33 -28 22 0 29 6 34
26 11 44 -22 68 -56 42z"/>
<path d="M4988 331 c-18 -28 -37 -51 -43 -51 -5 0 -34 9 -63 20 -86 33 -91 26
-37 -49 19 -26 35 -53 35 -58 0 -5 -18 -27 -40 -48 -61 -59 -55 -69 38 -61
l77 6 34 -45 c19 -25 41 -45 52 -45 17 0 19 8 19 64 0 62 1 64 30 75 24 8 30
16 30 39 0 22 -7 31 -32 43 -31 13 -34 19 -43 81 -5 37 -13 70 -17 73 -4 4
-22 -16 -40 -44z"/>
<path d="M3340 344 c-6 -14 -10 -29 -10 -34 0 -4 -9 -38 -20 -74 l-21 -66 -74
0 c-76 0 -105 -6 -105 -21 0 -5 30 -27 66 -50 60 -38 65 -45 62 -70 l-5 -29
117 0 117 0 -5 29 c-3 25 1 32 29 46 44 22 99 64 99 74 0 5 -37 12 -82 17
l-83 9 -22 87 c-12 48 -24 92 -28 98 -11 17 -25 11 -35 -16z"/>
<path d="M2350 275 c-18 -21 -3 -55 25 -55 30 0 42 39 18 58 -22 16 -28 15
-43 -3z"/>
<path d="M1764 269 c-3 -6 0 -17 8 -25 13 -13 16 -13 27 0 7 8 10 20 6 26 -8
13 -32 13 -41 -1z"/>
<path d="M1087 263 c-2 -4 -13 -52 -23 -105 l-18 -98 -83 0 c-91 0 -102 -9
-50 -40 29 -18 50 -20 220 -20 175 0 191 2 218 21 51 36 38 42 -71 35 -78 -5
-101 -4 -104 6 -45 151 -63 202 -73 205 -6 2 -13 0 -16 -4z"/>
<path d="M4569 224 c-8 -9 -30 -44 -50 -78 l-35 -61 -97 4 c-63 2 -97 0 -97
-7 0 -6 19 -27 42 -46 l42 -36 190 0 c195 0 217 7 109 31 -51 12 -52 13 -58
53 -3 23 -6 65 -8 95 -2 58 -15 72 -38 45z"/>
<path d="M4144 207 c-3 -9 -14 -19 -24 -22 -15 -5 -18 -13 -13 -43 7 -46 9
-48 27 -33 11 9 20 10 35 2 28 -15 27 -15 27 27 -1 44 -41 98 -52 69z"/>
<path d="M0 176 c0 -41 -1 -41 45 -22 52 22 48 38 -12 51 -32 6 -33 6 -33 -29z"/>
<path d="M1497 138 c-4 -18 -9 -57 -13 -85 l-7 -53 62 0 62 0 -17 32 c-9 18
-24 55 -34 82 -20 61 -45 72 -53 24z"/>
<path d="M3786 81 c-9 -39 -16 -72 -16 -75 0 -4 25 -6 55 -6 30 0 55 4 55 9 0
12 -42 114 -53 129 -18 23 -25 12 -41 -57z"/>
<path d="M3001 121 c-16 -11 -2 -43 18 -39 9 2 17 10 19 19 3 19 -19 31 -37
20z"/>
<path d="M275 75 c-19 -57 -25 -64 -57 -68 -18 -2 -3 -5 35 -5 64 -2 67 -1 67
22 0 13 -9 34 -19 47 -19 23 -20 23 -26 4z"/>
<path d="M1895 81 c-7 -12 12 -24 25 -16 11 7 4 25 -10 25 -5 0 -11 -4 -15 -9z"/>
<path d="M650 35 c0 -33 2 -35 35 -35 l35 0 -22 35 c-30 45 -48 45 -48 0z"/>
<path d="M2672 38 c-21 -21 -13 -38 18 -38 27 0 30 2 20 19 -14 27 -25 32 -38
19z"/>
<path d="M1 24 c0 -11 3 -14 6 -6 3 7 2 16 -1 19 -3 4 -6 -2 -5 -13z"/>
<path d="M2242 28 c-19 -19 -14 -28 14 -28 18 0 25 5 22 17 -4 21 -21 26 -36
11z"/>
<path d="M2025 10 c-4 -6 5 -10 20 -10 15 0 24 4 20 10 -8 13 -32 13 -40 0z"/>
</g>
</svg>