<?xml version="1.0" standalone="no"?>
<!DOCTYPE svg PUBLIC "-//W3C//DTD SVG 20010904//EN"
 "http://www.w3.org/TR/2001/REC-SVG-20010904/DTD/svg10.dtd">
<svg version="1.0" xmlns="http://www.w3.org/2000/svg"
 width="512.000000pt" height="512.000000pt" viewBox="0 0 512.000000 512.000000"
 preserveAspectRatio="xMidYMid meet">
<metadata>
Created by potrace 1.16, written by Peter Selinger 2001-2019
</metadata>
<g transform="translate(0.000000,512.000000) scale(0.100000,-0.100000)"
fill="#000000" stroke="none">
<path d="M3007 4550 c-37 -29 -37 -80 -1 -109 35 -27 59 -26 89 4 63 63 -18
160 -88 105z"/>
<path d="M2340 4463 c-137 -16 -415 -96 -522 -150 -82 -40 -53 -43 40 -3 239
103 547 161 775 145 67 -5 97 -3 97 4 0 11 -306 13 -390 4z"/>
<path d="M2807 4453 c-12 -3 -17 -12 -15 -26 4 -29 62 -37 72 -10 6 16 -17 45
-33 42 -3 -1 -14 -3 -24 -6z"/>
<path d="M3230 4402 c0 -4 35 -20 78 -35 120 -43 124 -47 126 -100 4 -95 96
-139 182 -87 l33 21 63 -42 c77 -52 135 -96 182 -137 33 -29 34 -32 24 -65
-14 -47 -4 -83 36 -123 41 -41 93 -52 137 -30 30 15 34 15 52 -1 32 -29 132
-185 171 -267 36 -74 37 -78 19 -92 -10 -7 -20 -14 -23 -14 -13 0 -40 -61 -40
-89 0 -36 50 -98 86 -107 14 -4 26 -16 29 -28 22 -93 35 -179 46 -287 12 -124
12 -127 -9 -154 -29 -37 -28 -80 4 -123 26 -33 26 -37 20 -126 -7 -90 -31
-289 -43 -355 -4 -22 -2 -32 5 -27 5 3 15 35 21 71 11 60 41 347 41 388 0 12
8 17 29 17 17 0 42 11 60 26 26 21 31 33 31 69 0 36 -5 48 -31 69 -19 16 -43
26 -63 26 l-33 0 -7 83 c-7 75 -40 290 -51 327 -3 10 7 22 28 33 39 21 67 64
67 102 0 57 -52 115 -103 115 -20 0 -29 10 -47 56 -26 64 -112 203 -170 276
-38 48 -39 51 -25 78 19 36 19 61 1 105 -29 67 -134 99 -187 56 l-24 -19 -45
36 c-24 21 -89 67 -143 103 l-99 66 -2 52 c-1 43 -6 56 -34 83 -27 27 -40 33
-76 33 -32 0 -51 -6 -68 -22 -14 -13 -28 -23 -34 -23 -5 0 -51 16 -102 35 -96
36 -112 40 -112 27z"/>
<path d="M1662 4387 c-6 -7 -9 -22 -6 -33 4 -15 -9 -27 -66 -59 -38 -22 -70
-43 -70 -48 0 -4 33 11 73 33 41 22 76 37 79 34 10 -10 46 15 53 36 12 39 -38
68 -63 37z"/>
<path d="M2171 4332 c-28 -22 -31 -75 -6 -102 27 -30 78 -27 104 6 27 35 26
59 -4 89 -28 29 -64 32 -94 7z"/>
<path d="M2496 4297 c-20 -15 -15 -51 7 -60 39 -14 73 33 45 61 -16 16 -30 15
-52 -1z"/>
<path d="M2680 4271 c0 -7 18 -11 48 -11 228 0 644 -153 885 -326 47 -34 74
-44 61 -23 -13 22 -182 124 -307 186 -144 72 -289 123 -436 153 -131 27 -251
37 -251 21z"/>
<path d="M1433 4154 c-130 -99 -230 -194 -327 -311 -44 -55 -72 -80 -82 -76
-25 9 -72 -17 -85 -49 -10 -24 -10 -37 -1 -61 11 -29 7 -41 -47 -152 -142
-288 -197 -536 -194 -870 1 -177 28 -433 47 -452 16 -16 16 12 2 89 -77 414
-17 863 163 1221 47 93 61 112 81 115 59 6 72 14 85 46 11 26 12 41 3 68 -11
35 -10 37 59 119 84 100 170 183 278 268 44 35 82 67 83 72 7 19 -18 8 -65
-27z"/>
<path d="M2835 4165 c-17 -13 -18 -16 -5 -25 22 -15 45 -8 45 14 0 25 -16 30
-40 11z"/>
<path d="M1883 4087 c-4 -8 -48 -35 -98 -60 -108 -55 -100 -62 11 -10 42 20
91 37 108 37 24 1 31 5 31 21 0 24 -39 33 -52 12z"/>
<path d="M2918 4059 c-10 -5 -18 -15 -18 -22 -1 -37 -14 -38 -141 -11 -218 45
-399 42 -598 -11 -55 -14 -90 -35 -60 -35 9 0 19 3 23 7 3 4 14 8 24 9 9 1 58
11 107 23 140 32 302 29 490 -10 94 -19 158 -38 173 -50 32 -25 56 -24 82 3
52 56 -15 136 -82 97z"/>
<path d="M3080 4000 c8 -5 21 -10 29 -10 30 0 297 -113 322 -136 27 -26 68
-31 87 -12 20 20 15 76 -7 88 -31 16 -50 12 -76 -16 l-23 -25 -56 25 c-117 54
-327 119 -276 86z"/>
<path d="M3737 4003 c-4 -3 -7 -15 -7 -25 0 -24 58 -26 67 -2 9 24 -41 47 -60
27z"/>
<path d="M3792 3950 c-18 -29 -15 -36 8 -15 20 18 26 35 12 35 -4 0 -13 -9
-20 -20z"/>
<path d="M2105 3930 c-218 -78 -420 -222 -572 -407 -34 -41 -35 -41 -87 -36
-82 8 -148 -31 -181 -110 -39 -94 6 -202 101 -242 l32 -13 -25 -83 c-32 -110
-52 -220 -53 -292 0 -91 16 -58 23 45 6 88 43 252 70 306 8 18 26 29 60 37 26
7 59 23 74 36 31 29 62 94 63 132 0 40 -26 97 -62 134 l-31 32 51 58 c132 152
278 265 445 343 101 48 147 59 147 38 0 -23 58 -97 85 -110 14 -6 25 -19 25
-28 0 -23 17 -36 60 -48 l35 -9 -45 -8 c-174 -29 -390 -137 -532 -264 -94 -85
-194 -260 -232 -405 -9 -35 -23 -64 -35 -73 -22 -15 -29 -67 -11 -78 10 -6 9
-21 -5 -140 l-7 -60 -62 0 c-52 0 -69 -5 -102 -27 -48 -34 -72 -73 -80 -131
-8 -58 9 -110 49 -143 42 -35 73 -46 133 -45 l50 0 23 -72 c13 -40 45 -114 72
-166 27 -52 49 -95 49 -97 0 -2 -13 -4 -29 -4 -37 0 -90 -18 -120 -42 -13 -10
-27 -18 -30 -18 -23 0 -127 240 -161 374 -29 114 -42 116 -19 4 18 -89 49
-173 108 -293 55 -110 56 -115 42 -142 -25 -47 -20 -131 12 -185 22 -39 40
-53 95 -80 75 -37 94 -45 72 -29 -12 9 -9 11 16 11 16 0 53 12 82 26 l51 25
33 -24 c50 -37 194 -112 272 -142 198 -73 414 -99 606 -73 19 3 62 9 95 13 33
4 71 13 85 20 14 6 63 22 110 35 47 13 89 27 95 32 16 14 -16 9 -104 -17 -47
-14 -85 -24 -86 -22 -20 38 -39 57 -58 57 -32 0 -47 -18 -47 -56 l0 -32 -75
-11 c-259 -38 -538 15 -779 149 -50 28 -101 59 -114 68 l-24 18 23 39 c16 26
23 55 24 92 0 29 4 53 8 53 5 0 23 -10 40 -23 101 -71 268 -147 324 -147 13 0
26 -7 29 -15 7 -17 40 -20 50 -4 3 6 14 -6 24 -28 31 -69 81 -87 72 -25 -4 28
-2 29 46 36 68 9 82 27 46 61 -15 14 -49 33 -76 43 -55 19 -57 31 -8 47 26 9
30 13 17 18 -10 4 -29 2 -43 -3 -38 -15 -42 -13 -60 25 -18 38 -40 48 -31 14
5 -19 4 -19 -16 -6 -55 35 -65 40 -80 34 -11 -4 -15 -19 -13 -57 2 -42 7 -56
27 -71 20 -16 22 -20 9 -29 -22 -14 -44 -12 -100 9 -27 11 -50 16 -50 13 0 -4
-4 -2 -8 4 -4 6 -23 19 -42 29 -75 37 -178 112 -204 149 -15 21 -44 45 -66 55
-32 13 -47 30 -81 89 -46 80 -81 162 -100 234 -13 46 -12 47 18 72 39 33 63
83 63 134 0 54 -12 83 -53 129 l-34 38 9 90 c8 83 11 92 38 113 33 26 38 56
14 83 -14 16 -14 23 1 76 9 32 41 109 71 171 47 97 66 125 132 191 89 91 188
158 321 217 79 36 238 83 245 72 1 -1 8 -23 16 -48 18 -56 37 -57 66 -6 20 35
22 37 29 17 8 -27 23 -27 34 1 8 22 8 22 24 -8 9 -17 22 -36 31 -43 12 -10 17
-9 25 8 6 11 11 31 11 45 0 14 4 27 8 30 15 9 179 -26 282 -60 58 -20 117 -37
132 -39 49 -7 228 -127 322 -216 89 -85 90 -87 77 -113 -17 -31 -3 -71 28 -81
13 -4 26 -26 41 -70 12 -36 23 -65 26 -65 6 0 -8 63 -22 99 -13 30 -12 36 2
52 21 23 12 64 -18 80 -12 7 -59 49 -103 94 -106 109 -299 235 -358 235 -14 0
-49 11 -78 24 -30 14 -65 27 -79 29 -14 2 -32 7 -42 11 -9 4 -60 15 -114 25
-98 17 -131 34 -73 38 37 3 59 19 59 44 0 10 8 20 18 23 20 7 92 96 92 115 0
17 30 13 111 -13 122 -40 168 -63 181 -91 12 -27 45 -41 75 -31 23 7 97 -42
221 -146 131 -110 238 -244 336 -421 33 -60 36 -72 27 -99 -12 -35 -1 -63 28
-73 15 -4 21 -22 30 -83 13 -86 16 -332 6 -374 -4 -17 -3 -28 3 -28 26 0 28
346 2 434 -10 33 -9 44 4 66 19 34 10 69 -20 76 -16 4 -32 24 -52 67 -99 212
-286 424 -494 563 -52 34 -68 50 -68 68 0 41 -66 77 -85 46 -10 -16 -33 -12
-100 15 -34 13 -107 36 -162 51 -97 25 -103 26 -154 10 -30 -8 -81 -31 -113
-51 -32 -19 -61 -34 -63 -31 -8 8 10 58 23 63 21 8 17 23 -6 23 -11 0 -20 -6
-20 -14 0 -7 -6 -19 -14 -25 -12 -10 -17 -8 -27 11 -14 27 -30 39 -42 31 -4
-3 -2 -12 7 -21 18 -21 32 -72 19 -72 -6 0 -18 8 -27 19 -24 27 -123 68 -176
75 -34 4 -65 -2 -125 -24z"/>
<path d="M1496 3908 c-9 -12 -16 -35 -16 -51 0 -22 -19 -49 -83 -117 -45 -49
-102 -120 -127 -159 -25 -38 -52 -70 -61 -70 -22 -1 -44 -27 -29 -36 5 -3 10
-3 10 1 0 4 9 -5 21 -20 17 -21 24 -24 40 -16 23 13 26 60 4 60 -8 0 -15 3
-15 6 0 15 115 167 175 232 65 70 68 72 105 66 45 -7 77 8 90 42 10 26 -1 61
-24 76 -24 16 -75 8 -90 -14z m-266 -418 c0 -5 -5 -10 -11 -10 -5 0 -7 5 -4
10 3 6 8 10 11 10 2 0 4 -4 4 -10z"/>
<path d="M3772 3758 c7 -19 38 -22 38 -4 0 10 -9 16 -21 16 -12 0 -19 -5 -17
-12z"/>
<path d="M1910 3700 c-11 -11 -20 -26 -20 -33 0 -18 32 -47 53 -47 15 0 47 35
47 52 0 11 -38 48 -50 48 -5 0 -19 -9 -30 -20z"/>
<path d="M3658 3635 c-35 -20 -48 -44 -48 -93 0 -47 35 -88 84 -98 27 -5 39
-16 68 -67 80 -140 140 -303 162 -442 13 -85 13 -90 -5 -103 -26 -18 -25 -68
1 -84 26 -17 26 -66 0 -220 -60 -357 -253 -683 -525 -887 -51 -38 -75 -50 -90
-46 -11 4 -32 9 -47 12 -106 20 -212 -86 -193 -191 7 -32 5 -34 -27 -42 -18
-4 -49 -6 -69 -5 -43 3 -69 -20 -49 -44 16 -19 49 -19 56 0 3 7 26 22 50 31
l45 17 30 -36 c36 -44 104 -72 154 -63 19 4 52 21 72 39 67 59 81 140 38 220
l-24 47 22 11 c47 25 183 147 244 218 179 210 286 441 334 719 10 63 19 136
19 163 0 27 4 49 9 49 17 0 41 31 41 52 0 11 -13 32 -30 46 -22 19 -30 35 -30
59 0 75 -61 268 -130 412 -67 138 -69 145 -51 158 11 7 25 29 31 49 29 86 -64
163 -142 119z"/>
<path d="M4023 3584 c-4 -11 2 -24 18 -38 33 -28 50 -73 98 -258 56 -211 61
-241 44 -263 -19 -27 -16 -53 11 -78 47 -44 59 -382 21 -622 -28 -175 -72
-303 -162 -475 -73 -139 -129 -216 -238 -328 -212 -220 -508 -388 -831 -472
-208 -53 -373 -74 -599 -74 -190 1 -207 2 -345 34 -135 30 -147 35 -173 66
-32 39 -59 43 -112 16 -31 -15 -34 -20 -29 -47 3 -16 12 -40 20 -52 29 -46
103 -39 126 13 9 19 17 24 32 19 77 -22 245 -56 330 -66 231 -27 603 20 896
113 326 104 656 337 839 594 74 105 178 314 216 434 60 193 86 469 65 697 -10
120 -10 135 5 149 30 30 14 79 -33 100 -2 1 -19 66 -38 145 -34 141 -97 359
-113 389 -12 22 -40 24 -48 4z"/>
<path d="M2911 3546 c-36 -38 -33 -92 7 -127 37 -33 51 -35 92 -14 36 19 50
43 50 88 0 71 -99 107 -149 53z"/>
<path d="M3953 3474 c-7 -20 22 -45 43 -37 8 3 14 16 14 29 0 19 -5 24 -25 24
-15 0 -28 -7 -32 -16z"/>
<path d="M2430 3470 c-88 -9 -180 -32 -266 -66 l-62 -25 -30 31 c-23 22 -40
30 -67 30 -44 0 -89 -25 -104 -57 -14 -30 -14 -88 -1 -114 9 -15 1 -32 -44
-96 -128 -184 -179 -412 -146 -648 15 -101 66 -253 112 -332 38 -65 39 -69 24
-94 -21 -36 -20 -61 5 -93 15 -20 29 -26 58 -26 20 0 42 5 48 11 8 8 25 0 64
-31 53 -42 108 -74 115 -68 2 2 -32 28 -74 58 -75 54 -77 56 -74 93 5 52 -27
87 -78 87 -36 0 -38 2 -83 88 -25 48 -58 128 -73 178 -26 83 -28 102 -28 269
0 177 1 182 33 275 32 96 86 197 139 259 26 31 31 32 63 23 71 -19 135 26 148
105 6 35 10 40 66 62 261 104 530 91 770 -36 56 -29 165 -103 165 -111 0 -3
-5 -20 -12 -38 -9 -27 -9 -37 6 -58 19 -30 69 -36 96 -11 16 15 21 12 58 -25
23 -22 44 -40 47 -40 8 0 -48 72 -70 90 -8 7 -15 19 -15 27 0 21 -46 63 -70
63 -11 0 -44 18 -73 39 -181 136 -421 203 -647 181z"/>
<path d="M611 3349 c-6 -13 -15 -43 -21 -66 -9 -37 -14 -42 -42 -45 -40 -4
-73 -46 -64 -82 3 -14 20 -33 37 -43 26 -15 29 -22 25 -48 -13 -71 -26 -228
-26 -326 0 -82 -3 -109 -15 -119 -19 -16 -19 -44 -1 -59 8 -7 16 -43 20 -91 4
-44 12 -80 17 -80 7 0 8 25 3 68 -6 65 -5 70 19 94 29 29 27 67 -4 75 -22 6
-28 79 -17 228 14 185 25 234 58 265 35 32 36 40 14 87 -16 32 -16 38 1 94 18
59 15 93 -4 48z"/>
<path d="M4035 3290 c-3 -6 1 -13 10 -16 19 -8 30 0 20 15 -8 14 -22 14 -30 1z"/>
<path d="M2382 3269 c-53 -10 -153 -54 -212 -92 -92 -60 -171 -152 -229 -266
-25 -49 -60 -196 -61 -250 0 -57 10 -29 24 68 51 338 379 586 702 532 196 -33
350 -148 433 -326 52 -110 64 -170 60 -303 -3 -72 -1 -108 5 -102 6 6 10 65
10 133 -1 105 -4 132 -27 195 -74 210 -226 357 -422 407 -63 16 -211 18 -283
4z"/>
<path d="M1058 3245 c-3 -5 -14 -39 -23 -75 -10 -36 -21 -69 -25 -73 -4 -4
-19 -3 -35 3 -61 23 -135 -30 -135 -97 0 -47 54 -103 99 -103 l31 0 0 -58 c0
-45 -4 -61 -20 -75 -11 -9 -20 -29 -20 -45 0 -16 9 -37 20 -47 15 -14 20 -31
20 -72 0 -30 5 -109 11 -174 10 -107 10 -121 -5 -138 -23 -26 -20 -66 7 -88
16 -12 30 -41 42 -88 97 -372 382 -718 741 -898 77 -39 247 -100 307 -111 31
-6 41 -14 53 -41 35 -84 136 -100 175 -28 12 22 18 24 54 19 104 -14 185 -18
185 -9 0 6 -45 13 -100 17 -120 8 -130 11 -130 41 0 12 -11 34 -25 49 -36 38
-93 37 -134 -5 -28 -28 -35 -30 -74 -24 -108 17 -317 109 -460 202 -96 63
-319 286 -386 388 -73 110 -145 262 -177 374 -25 89 -26 95 -10 121 21 37 20
55 -5 79 -26 24 -36 77 -45 248 -7 120 -6 125 15 139 27 19 28 65 1 89 -29 26
-29 129 0 160 31 33 40 75 25 119 -12 34 -11 45 11 109 22 64 29 119 12 92z"/>
<path d="M3524 3205 c-4 -8 1 -24 10 -34 9 -10 16 -23 16 -29 0 -7 4 -20 10
-30 16 -29 47 -132 64 -212 53 -265 14 -551 -106 -770 -128 -234 -280 -358
-557 -454 -136 -47 -295 -69 -461 -62 -74 3 -113 2 -95 -3 17 -5 89 -9 161
-10 398 -3 743 160 920 435 47 74 109 208 133 289 25 86 51 255 51 332 -1 109
-28 267 -67 383 -21 63 -40 128 -43 144 -6 33 -27 46 -36 21z"/>
<path d="M1150 3081 c0 -22 21 -33 40 -21 18 11 4 40 -20 40 -13 0 -20 -7 -20
-19z"/>
<path d="M3306 3052 c6 -4 14 -16 18 -27 6 -13 10 -16 13 -7 6 15 -14 42 -31
42 -8 0 -8 -3 0 -8z"/>
<path d="M3374 3032 c-50 -40 -54 -97 -9 -150 31 -38 44 -122 21 -141 -21 -18
-20 -48 2 -62 16 -10 17 -20 11 -78 -7 -61 -34 -154 -57 -198 -6 -10 -42 -34
-80 -52 l-70 -34 -32 27 c-18 15 -48 33 -66 41 -26 11 -32 18 -27 32 5 15 4
16 -8 7 -8 -7 -48 -14 -89 -16 -117 -5 -209 -64 -261 -166 -21 -40 -24 -61
-24 -145 0 -121 0 -122 -140 -121 -118 1 -200 21 -305 72 -96 47 -94 46 -86
34 3 -5 43 -28 88 -50 96 -47 206 -72 313 -72 l76 0 -34 -42 c-61 -76 -84
-139 -53 -151 26 -10 153 26 228 64 39 20 45 20 97 8 124 -31 226 -5 307 75
36 37 56 67 69 106 14 44 35 73 107 148 136 141 169 233 85 240 -20 2 -45 -2
-57 -8 -23 -12 -24 -11 -9 27 20 49 49 167 49 198 0 18 8 38 20 48 27 23 25
53 -5 79 -19 17 -25 31 -25 65 0 41 1 43 29 43 45 0 91 44 91 87 0 38 -15 71
-39 90 -24 18 -93 15 -117 -5z m-4 -722 c0 -34 -77 -150 -99 -150 -4 0 -13 21
-21 48 -8 26 -16 53 -18 60 -4 15 72 50 111 51 15 1 27 -4 27 -9z m-625 -390
c32 -33 29 -41 -24 -59 -52 -17 -71 -14 -71 11 0 20 45 78 60 78 3 0 19 -14
35 -30z"/>
<path d="M3192 2918 c-18 -18 -15 -45 8 -66 29 -27 44 -151 31 -255 -5 -45
-13 -90 -16 -99 -4 -10 -3 -18 3 -18 26 0 43 245 23 318 -8 27 -7 36 10 53 22
22 23 32 9 60 -12 21 -50 25 -68 7z"/>
<path d="M1135 2748 c-4 -75 -3 -137 3 -158 8 -29 10 -13 11 85 1 66 4 137 7
158 4 23 3 37 -4 37 -6 0 -13 -50 -17 -122z"/>
<path d="M1880 2557 c0 -37 20 -130 31 -141 5 -6 9 -19 9 -30 0 -38 79 -165
141 -227 33 -34 63 -59 66 -56 3 3 -19 30 -49 59 -97 96 -148 195 -173 336
-14 77 -25 104 -25 59z"/>
<path d="M3076 2482 c-5 -18 -5 -36 -2 -39 7 -7 19 43 13 59 -2 7 -7 -2 -11
-20z"/>
<path d="M4550 2393 c-42 -39 -49 -87 -18 -133 40 -59 110 -65 161 -14 21 21
27 36 27 71 0 93 -101 138 -170 76z"/>
<path d="M1165 2400 c-8 -14 3 -30 21 -30 8 0 14 9 14 20 0 21 -24 28 -35 10z"/>
<path d="M424 2340 c-57 -23 -84 -117 -48 -168 35 -50 122 -66 154 -27 7 8 16
15 20 15 4 0 24 -28 45 -62 21 -35 56 -86 77 -115 l38 -52 -20 -33 c-22 -36
-26 -98 -10 -129 24 -44 101 -61 152 -35 26 14 29 13 50 -17 96 -140 280 -318
431 -420 146 -98 379 -208 392 -186 4 5 0 9 -7 9 -26 0 -275 128 -363 187
-118 78 -245 191 -333 295 -108 127 -130 160 -121 183 18 47 10 86 -25 121
-29 29 -41 34 -83 34 l-49 0 -61 93 c-81 123 -91 145 -86 188 11 85 -74 151
-153 119z"/>
<path d="M1170 2325 c0 -8 5 -15 10 -15 6 0 10 7 10 15 0 8 -4 15 -10 15 -5 0
-10 -7 -10 -15z"/>
<path d="M1627 2318 c-21 -11 -22 -31 -3 -47 20 -16 46 -3 46 24 0 27 -19 37
-43 23z"/>
<path d="M4042 2258 c-15 -15 -16 -65 -1 -74 7 -4 9 -22 6 -43 l-5 -36 13 31
c9 19 24 34 39 38 52 13 41 96 -12 96 -16 0 -33 -5 -40 -12z"/>
<path d="M1650 2211 c0 -15 6 -21 21 -21 25 0 22 33 -4 38 -12 2 -17 -3 -17
-17z"/>
<path d="M4012 2050 c-18 -29 -15 -38 4 -12 9 13 14 25 12 27 -2 2 -9 -5 -16
-15z"/>
<path d="M4354 1996 c-55 -47 -19 -146 52 -146 34 0 84 51 84 85 0 34 -50 85
-84 85 -14 0 -37 -11 -52 -24z"/>
<path d="M1280 1950 c0 -5 7 -10 15 -10 8 0 15 5 15 10 0 6 -7 10 -15 10 -8 0
-15 -4 -15 -10z"/>
<path d="M3957 1923 c-4 -3 -7 -17 -7 -29 0 -23 -48 -111 -95 -174 -15 -20
-37 -37 -53 -40 -21 -4 -28 -11 -30 -35 -2 -23 -14 -38 -55 -65 -29 -19 -61
-37 -72 -40 -11 -3 -30 -21 -42 -39 -12 -18 -50 -51 -85 -73 -75 -48 -73 -46
-65 -55 4 -3 24 7 45 24 20 16 51 37 67 45 28 15 32 15 54 -3 13 -10 31 -19
41 -19 44 0 66 65 36 105 -12 17 -9 21 34 51 32 22 55 31 69 27 29 -7 53 15
50 46 -2 17 14 51 43 96 25 39 48 80 52 92 4 12 19 32 33 43 15 12 23 26 19
35 -6 15 -28 20 -39 8z"/>
<path d="M4119 1661 c-35 -35 -37 -69 -7 -122 l21 -38 -41 -53 c-23 -29 -70
-84 -105 -122 l-64 -70 -37 18 c-46 22 -88 14 -116 -21 -21 -27 -27 -87 -10
-98 5 -3 14 -14 20 -25 8 -16 -1 -25 -73 -71 -45 -29 -113 -70 -150 -91 -60
-33 -73 -36 -117 -31 -43 5 -51 3 -75 -21 -23 -23 -26 -33 -22 -64 8 -48 38
-76 82 -76 53 0 79 31 78 92 l-1 48 72 37 c39 20 108 64 154 97 57 41 93 60
113 60 42 0 79 39 79 85 0 31 10 45 73 109 39 41 92 101 117 135 36 48 51 60
73 61 43 0 87 49 87 95 0 48 -44 95 -90 95 -22 0 -41 -9 -61 -29z"/>
<path d="M780 1631 c0 -5 15 -36 34 -69 l34 -60 -36 -24 c-97 -64 -93 -187 8
-255 51 -35 141 -25 179 20 19 24 25 22 84 -31 29 -27 74 -63 99 -80 29 -20
48 -42 53 -59 11 -45 43 -73 85 -73 20 0 41 5 46 10 7 7 33 -4 80 -36 100 -66
256 -139 391 -183 143 -47 183 -56 183 -43 0 6 -24 16 -52 22 -151 36 -350
120 -494 209 l-81 50 5 50 c4 43 1 53 -21 75 -36 36 -80 35 -118 -3 l-29 -29
-72 55 c-125 95 -125 96 -120 157 8 94 -41 157 -135 172 -37 6 -43 11 -74 70
-31 58 -49 78 -49 55z"/>
<path d="M1633 1543 c-16 -6 -17 -25 -1 -41 7 -7 17 -8 28 -2 14 7 48 -8 146
-65 70 -41 134 -75 141 -75 7 0 13 -8 13 -18 0 -10 7 -28 16 -41 15 -20 22
-23 60 -17 30 4 64 -1 106 -14 55 -17 228 -47 381 -65 33 -4 47 -11 47 -21 0
-28 56 -74 90 -74 46 0 69 16 90 62 l18 41 128 33 c169 43 174 45 174 55 0 10
-39 3 -86 -17 -18 -7 -74 -23 -125 -34 l-94 -20 -20 23 c-50 60 -122 60 -157
0 l-21 -35 -86 7 c-121 10 -236 31 -330 60 -68 22 -82 30 -87 51 -8 31 -34 45
-72 38 -22 -5 -49 5 -123 46 -52 29 -115 67 -140 85 -49 35 -77 46 -96 38z"/>
<path d="M3006 1175 c-20 -21 -12 -35 20 -35 20 0 25 4 22 22 -4 28 -21 33
-42 13z"/>
<path d="M2920 1160 c-21 -7 -17 -8 20 -9 32 0 41 2 30 9 -17 11 -16 11 -50 0z"/>
<path d="M2659 821 c-24 -24 -39 -48 -39 -63 0 -23 -4 -26 -61 -32 -34 -3
-129 -6 -210 -6 -145 0 -149 1 -173 25 -70 70 -165 -24 -99 -97 33 -37 113 -8
113 40 0 16 17 17 214 18 l214 1 16 -34 c52 -109 212 -88 242 31 4 16 15 28
28 30 158 32 386 101 386 117 0 12 5 13 -81 -17 -59 -20 -304 -84 -322 -84 -3
0 -10 14 -17 30 -22 52 -64 80 -122 80 -45 0 -54 -4 -89 -39z"/>
</g>
</svg>