<?xml version="1.0" standalone="no"?>
<!DOCTYPE svg PUBLIC "-//W3C//DTD SVG 20010904//EN"
 "http://www.w3.org/TR/2001/REC-SVG-20010904/DTD/svg10.dtd">
<svg version="1.0" xmlns="http://www.w3.org/2000/svg"
 width="512.000000pt" height="512.000000pt" viewBox="0 0 512.000000 512.000000"
 preserveAspectRatio="xMidYMid meet">
<metadata>
Created by potrace 1.16, written by Peter Selinger 2001-2019
</metadata>
<g transform="translate(0.000000,512.000000) scale(0.100000,-0.100000)"
fill="#000000" stroke="none">
<path d="M2335 4036 c-15 -22 -14 -27 7 -68 l23 -44 32 33 c37 37 41 62 15 86
-26 24 -59 21 -77 -7z"/>
<path d="M3274 4027 c-27 -23 -27 -26 -25 -123 2 -119 11 -174 57 -341 19 -70
42 -159 50 -196 15 -73 19 -151 7 -145 -124 63 -210 82 -272 60 -27 -10 -37
-7 -79 18 -65 41 -186 70 -289 70 l-83 0 0 94 c0 101 10 144 46 193 29 38 32
76 7 71 -25 -5 -63 -117 -70 -207 l-6 -74 -14 54 c-33 133 -184 372 -260 412
-15 8 -68 36 -116 62 -62 33 -92 44 -99 37 -17 -17 -2 -40 34 -47 32 -7 122
-48 144 -66 9 -7 7 -26 -7 -70 -15 -46 -19 -91 -19 -191 0 -136 -14 -218 -50
-289 -16 -29 -37 -46 -106 -83 -47 -25 -103 -59 -123 -76 l-38 -29 -13 72
c-16 95 -55 229 -85 294 -65 142 -240 244 -419 242 -110 0 -135 -13 -171 -84
l-30 -60 0 -191 0 -192 -55 -17 c-113 -35 -180 -91 -201 -168 -15 -56 1 -106
47 -147 46 -40 75 -51 138 -51 54 -1 238 32 218 39 -6 2 -46 -4 -88 -12 -106
-22 -161 -20 -214 7 -60 30 -85 67 -85 126 0 70 37 121 117 160 35 18 79 34
99 37 l35 6 13 -58 c18 -84 63 -172 114 -223 l43 -44 -70 -61 c-155 -136 -261
-323 -302 -534 -18 -95 -18 -279 0 -374 31 -162 148 -421 243 -537 30 -36 80
-100 112 -141 154 -200 290 -292 481 -326 85 -15 226 -18 234 -5 3 4 -34 11
-82 14 -187 14 -338 72 -433 169 -62 63 -78 93 -31 60 43 -31 160 -87 240
-116 105 -37 236 -56 398 -56 255 0 444 48 809 204 153 65 249 129 350 230
122 122 185 244 248 474 28 104 32 131 31 247 0 88 -6 153 -17 199 l-18 70 80
80 c43 45 90 100 105 123 69 113 88 268 43 366 -25 55 -72 109 -142 163 l-39
31 18 63 c49 179 175 330 346 416 45 23 54 24 84 13 29 -11 38 -10 60 5 28 18
34 54 14 74 -25 25 -65 11 -174 -62 -191 -128 -276 -221 -351 -384 -48 -107
-49 -107 -69 -104 -11 2 -51 6 -90 9 l-71 5 -12 67 c-6 36 -32 143 -58 236
-43 155 -48 180 -48 280 0 104 1 112 28 149 32 46 33 60 7 86 -26 26 -43 25
-76 -3z m-859 -224 c88 -106 185 -321 185 -409 0 -20 -6 -22 -82 -29 -46 -4
-126 -15 -178 -25 -52 -11 -95 -18 -97 -17 -1 2 10 32 24 67 24 58 27 83 33
240 7 175 19 240 46 240 7 0 39 -30 69 -67z m-964 -100 c6 -21 20 -55 31 -76
l19 -38 -53 27 c-29 15 -70 38 -92 51 -32 21 -36 27 -25 38 13 12 68 32 96 34
6 1 17 -16 24 -36z m84 26 c32 -6 76 -18 97 -26 38 -15 38 -16 39 -72 0 -31 4
-80 8 -108 l7 -53 -35 21 c-106 62 -160 127 -175 212 -4 20 -5 37 -3 37 2 0
30 -5 62 -11z m-190 -80 c28 -20 29 -21 5 -15 -14 3 -31 6 -37 6 -7 0 -13 7
-13 15 0 20 9 19 45 -6z m410 -20 c55 -51 83 -107 111 -227 l22 -94 -41 39
c-23 21 -63 55 -88 75 -45 36 -46 38 -57 120 -21 146 -17 152 53 87z m-311
-39 c25 -10 46 -21 46 -22 0 -2 -23 -4 -51 -5 -28 -2 -76 -9 -105 -17 l-54
-14 0 33 c0 59 5 63 65 53 29 -4 74 -17 99 -28z m74 -49 c9 -5 -5 -10 -40 -14
-64 -8 -99 -32 -115 -81 -11 -31 -10 -43 2 -71 11 -29 12 -45 2 -90 -8 -42 -8
-68 1 -112 11 -52 10 -59 -7 -76 -18 -18 -19 -17 -36 25 -16 40 -39 201 -47
328 -3 51 -1 55 25 68 53 25 189 40 215 23z m102 -62 l43 -24 -60 -7 c-65 -7
-118 -26 -163 -58 -39 -28 -48 -25 -56 15 -7 40 13 80 49 96 38 16 141 4 187
-22z m123 -85 c49 -33 135 -111 148 -137 10 -17 8 -17 -28 2 -57 28 -144 41
-263 38 -86 -2 -113 2 -148 17 -41 19 -42 20 -25 39 69 75 232 97 316 41z
m1084 -90 c22 -4 22 -5 -12 -50 -49 -64 -75 -156 -80 -289 l-4 -110 10 85 c17
151 52 256 106 321 14 16 32 29 41 29 20 0 89 -32 117 -53 19 -15 19 -15 -8
-56 -15 -22 -39 -76 -54 -118 -22 -66 -26 -95 -27 -188 0 -114 14 -188 55
-282 l20 -47 -21 19 c-11 10 -36 50 -55 88 -19 38 -35 62 -35 52 0 -31 58
-139 107 -199 61 -75 146 -136 201 -143 36 -5 40 -8 31 -24 -17 -32 -92 -69
-140 -69 -68 0 -154 63 -232 170 -18 25 -18 25 -1 -5 30 -52 83 -112 125 -141
l41 -28 -36 -18 c-101 -52 -199 -23 -286 85 -66 81 -95 159 -125 330 -36 205
-46 327 -34 420 24 191 114 258 296 221z m-1384 -11 c18 -9 68 -19 117 -22
l85 -6 -65 -24 c-36 -13 -91 -40 -122 -61 l-57 -38 -10 31 c-19 53 -12 137 11
137 5 0 23 -7 41 -17z m1100 11 c4 -4 -3 -20 -14 -36 -66 -92 -82 -255 -49
-489 30 -215 28 -224 -39 -271 -69 -48 -81 -48 -81 -2 0 49 -25 98 -71 138
-22 18 -39 39 -39 47 0 8 16 47 35 87 19 40 32 72 30 72 -2 0 -19 -23 -37 -51
l-33 -52 -3 62 c-2 40 4 87 18 134 23 85 25 136 6 162 -20 28 -41 12 -56 -41
-15 -53 -18 -261 -6 -358 7 -54 13 -64 56 -106 48 -46 54 -58 64 -131 5 -41
-13 -63 -136 -157 l-67 -51 -21 36 c-89 151 -147 399 -136 578 l5 80 -15 -55
c-22 -84 -27 -250 -11 -355 8 -49 12 -93 8 -97 -3 -4 -18 -9 -32 -13 -25 -6
-26 -4 -37 51 -7 32 -13 94 -13 138 -2 81 -2 81 -9 26 -5 -30 -4 -93 1 -139 6
-49 6 -88 1 -93 -5 -5 -22 -10 -38 -11 -26 -2 -30 2 -42 48 -17 66 -9 214 18
324 11 46 19 86 16 88 -2 2 -18 -54 -35 -124 -34 -142 -39 -236 -17 -319 11
-44 11 -53 -2 -70 -33 -43 -92 -186 -116 -283 -27 -106 -33 -205 -17 -272 8
-35 6 -39 -33 -71 -88 -72 -80 -76 -72 42 8 109 25 223 52 348 12 57 20 75 37
82 17 7 18 9 5 9 -10 1 -18 3 -18 5 0 2 18 59 40 127 21 68 38 125 36 126 -2
2 -26 -54 -54 -124 l-51 -128 -93 -52 c-51 -29 -94 -51 -95 -49 -4 4 35 144
57 203 25 69 86 190 114 228 37 50 41 61 11 35 -104 -94 -225 -368 -276 -625
-28 -145 -29 -146 -45 -110 -7 17 -11 37 -9 45 2 8 6 31 9 50 5 35 5 35 -8 -5
l-13 -40 -11 40 c-6 22 -15 66 -20 97 l-9 57 60 43 c47 34 66 57 93 110 19 37
34 71 34 75 -1 5 -14 -18 -31 -50 -22 -43 -45 -69 -92 -103 l-62 -46 -3 98 -3
98 83 85 c114 117 145 156 78 97 -57 -51 -134 -106 -146 -106 -4 0 -4 23 -1
51 8 65 47 114 164 206 128 102 134 108 61 69 -36 -20 -69 -36 -72 -36 -3 0 0
14 6 31 6 17 40 56 79 90 64 54 74 59 117 59 26 0 73 11 106 25 l59 24 -35
-32 c-34 -31 -96 -120 -153 -222 -39 -69 -26 -54 34 38 68 104 109 146 288
299 199 171 238 196 373 247 l55 21 -35 -27 c-46 -35 -101 -94 -122 -131 -10
-16 16 4 60 48 93 93 176 138 278 149 38 5 72 9 75 10 3 0 9 -2 12 -5z m-696
-64 c25 -11 44 -22 42 -24 -7 -7 -166 13 -196 25 -26 10 -27 12 -8 20 30 13
108 3 162 -21z m-134 -28 l68 -17 -58 -34 c-137 -81 -148 -93 -160 -178 -3
-24 -10 -46 -14 -49 -20 -12 -94 20 -135 58 -51 47 -62 74 -41 96 14 14 18 12
37 -21 29 -49 36 -47 10 2 l-20 40 37 30 c53 44 146 86 198 90 6 0 41 -7 78
-17z m1581 -16 l58 -28 -32 -33 c-17 -17 -37 -53 -45 -79 -19 -64 -29 -212
-17 -261 l10 -40 1 56 c1 77 19 166 42 211 51 100 173 128 253 57 49 -42 61
-102 42 -194 -13 -62 -13 -80 1 -159 17 -100 11 -128 -32 -148 -21 -9 -28 -8
-45 7 -37 34 -42 82 -20 190 23 108 20 172 -11 208 l-19 22 -29 -32 c-57 -61
-60 -150 -12 -303 33 -104 28 -151 -20 -175 -31 -17 -64 -9 -90 21 -41 47
-109 310 -109 418 1 28 9 76 20 106 l18 55 -24 -28 c-60 -70 -71 -264 -24
-432 12 -44 29 -104 37 -134 8 -30 12 -68 8 -87 -5 -31 -9 -34 -41 -34 -103 0
-209 139 -254 334 -49 212 0 421 116 493 53 33 137 29 218 -11z m-1391 -28 c9
-5 17 -16 17 -25 0 -25 -80 -96 -152 -136 -103 -58 -101 -58 -78 9 52 151 121
200 213 152z m1766 -64 c64 -29 104 -64 121 -105 14 -33 4 -207 -11 -192 -4 4
-10 44 -12 88 -2 59 -4 44 -6 -55 -3 -185 -17 -208 -24 -40 -3 74 -11 152 -18
173 -17 51 -84 125 -134 149 l-40 19 34 -5 c19 -4 60 -18 90 -32z m-1996 -69
c-36 -93 -45 -105 -77 -105 -17 0 -18 5 -12 52 4 28 12 60 17 70 10 18 99 81
105 75 2 -1 -13 -43 -33 -92z m2023 -408 c-9 -32 -30 -69 -51 -92 -32 -35 -34
-36 -15 -8 36 55 58 116 67 183 l8 65 3 -48 c2 -26 -4 -72 -12 -100z m-2363
69 c-6 -27 -39 -63 -49 -53 -6 6 41 77 50 77 2 0 1 -11 -1 -24z m1241 -372
l18 -27 -28 7 c-48 11 -148 64 -174 91 -24 25 -24 26 -4 44 10 11 39 33 64 49
l44 30 31 -83 c18 -46 40 -96 49 -111z m980 94 c9 -12 16 -31 16 -41 0 -10 4
-16 9 -13 5 3 9 -4 10 -17 0 -12 4 -86 7 -163 5 -116 3 -152 -11 -200 -34
-120 -113 -191 -201 -181 -25 2 -53 12 -64 22 -18 16 -18 18 2 73 23 63 30
225 15 360 l-8 72 26 0 c44 0 91 26 125 69 38 47 52 50 74 19z m-1559 -67 c14
-35 37 -81 51 -102 31 -49 30 -59 -4 -92 l-29 -27 -36 82 c-20 46 -45 107 -56
135 l-21 53 28 14 c15 8 30 11 34 8 3 -4 18 -36 33 -71z m-90 -21 c12 -36 37
-96 55 -135 l31 -70 -32 -27 c-18 -16 -39 -28 -45 -28 -14 0 -38 60 -77 190
-36 120 -36 122 -7 131 43 12 51 6 75 -61z m460 18 c48 -120 133 -200 226
-213 27 -4 49 -10 49 -14 0 -4 21 -29 46 -54 49 -50 49 -61 5 -101 -26 -24
-69 -18 -211 31 -193 65 -259 113 -291 211 -10 29 -13 32 -21 18 -5 -9 -6 -26
-3 -39 7 -21 5 -20 -21 5 l-28 27 23 25 c26 28 189 146 201 146 4 0 15 -19 25
-42z m40 4 c-6 -7 -35 18 -35 31 0 5 9 2 20 -8 11 -10 18 -20 15 -23z m125
-60 l74 -27 12 -58 11 -57 -31 0 c-72 1 -158 67 -192 149 l-14 33 33 -6 c17
-3 66 -19 107 -34z m-710 -87 c12 -38 38 -105 58 -149 l36 -79 -59 -55 c-33
-31 -87 -75 -120 -100 -59 -44 -60 -44 -66 -20 -14 50 -9 186 10 261 21 82 75
223 94 245 9 12 12 10 18 -9 4 -13 17 -55 29 -94z m-661 43 c-4 -29 -8 -74 -8
-99 -1 -42 -11 -59 -37 -59 -8 0 -4 96 6 129 8 30 36 81 43 81 2 0 0 -24 -4
-52z m2125 -188 c-9 -87 -62 -130 -156 -130 -73 1 -133 29 -141 66 -9 41 45
149 83 169 43 22 56 18 30 -10 -34 -36 -21 -38 25 -4 22 17 65 45 95 62 l55
32 8 -65 c4 -36 5 -90 1 -120z m-540 115 c38 -22 38 -23 17 -35 -31 -16 -42
-9 -70 40 -20 37 -21 41 -5 30 11 -6 36 -22 58 -35z m-1204 -39 c-11 -29 -18
-62 -14 -72 4 -14 3 -16 -4 -5 -7 10 -14 0 -27 -38 -9 -29 -15 -55 -12 -58 3
-3 11 15 18 38 17 59 23 26 9 -48 -6 -32 -13 -123 -17 -203 l-6 -145 -62 -64
-62 -64 -19 74 c-26 102 -26 331 0 445 18 81 18 81 70 111 88 53 141 83 143
83 2 0 -6 -24 -17 -54z m604 -23 l48 -52 -38 -61 c-20 -33 -40 -60 -44 -60
-13 0 -82 159 -74 172 12 22 48 59 54 56 3 -2 27 -26 54 -55z m825 -20 c-15
-40 -34 -63 -51 -63 -20 0 -119 38 -132 50 -5 6 -5 15 2 23 9 10 37 14 101 13
88 0 89 -1 80 -23z m-999 -43 c-28 -36 -35 -39 -42 -25 -6 9 -7 19 -4 22 14
14 71 51 75 47 2 -2 -11 -22 -29 -44z m120 -136 c0 -7 -8 -22 -19 -35 -23 -28
-33 -22 -86 56 l-37 53 33 42 33 41 38 -73 c20 -40 37 -78 38 -84z m-933 55
c14 -72 51 -157 81 -192 15 -17 32 -177 19 -177 -11 0 -65 106 -91 177 -37
105 -61 240 -45 259 16 20 18 16 36 -67z m1076 45 c18 -24 18 -26 -8 -78 -15
-30 -30 -76 -33 -103 l-7 -48 -33 56 c-17 31 -32 59 -32 63 0 11 81 136 88
136 4 0 15 -12 25 -26z m110 9 c19 -6 22 -21 7 -43 -9 -13 -14 -11 -35 13 -29
33 -33 52 -7 42 9 -4 25 -10 35 -12z m168 -58 c60 -19 124 -35 143 -35 26 0
42 8 67 35 33 35 62 44 74 24 19 -31 -99 -96 -191 -105 -69 -7 -182 20 -224
54 -19 16 -21 22 -11 40 6 12 17 22 23 22 6 0 60 -16 119 -35z m462 -8 l35
-34 -49 -84 c-26 -46 -72 -143 -101 -216 -48 -121 -54 -132 -81 -137 -41 -8
-95 -7 -100 2 -16 28 64 266 120 355 28 44 121 147 133 147 4 0 23 -15 43 -33z
m282 -64 c-77 -193 -231 -349 -387 -391 -21 -6 -38 -7 -38 -3 0 35 142 350
182 404 12 15 19 16 70 5 66 -14 121 -2 165 37 16 13 30 22 32 20 2 -2 -9 -35
-24 -72z m-1277 -110 c-29 -29 -56 -49 -60 -45 -5 5 -17 31 -28 58 -25 64 -26
43 -1 -28 l19 -55 -79 -79 c-88 -88 -87 -88 -114 -1 -34 114 -36 107 56 182
73 58 84 64 90 48 6 -15 8 -14 8 7 1 13 15 39 32 56 l31 32 49 -61 49 -61 -52
-53z m345 144 c92 -70 219 -103 313 -82 52 12 127 47 157 73 24 22 22 15 -27
-84 -44 -90 -106 -267 -106 -304 0 -24 2 -24 -71 -5 -73 19 -149 51 -149 64 0
5 17 30 38 55 39 47 88 126 78 126 -3 0 -11 -11 -18 -24 -7 -14 -37 -54 -67
-90 -61 -74 -54 -74 -169 -3 -77 48 -96 80 -90 156 5 59 40 151 57 151 6 0 30
-15 54 -33z m1267 -92 c-36 -172 -145 -340 -280 -430 -93 -62 -222 -121 -306
-141 -67 -15 -254 -17 -269 -2 -4 3 18 28 47 54 29 27 76 71 103 99 28 28 70
63 95 78 25 15 55 34 67 43 21 15 21 15 11 -26 -10 -39 -9 -44 16 -68 24 -24
34 -27 94 -27 114 1 193 53 285 189 42 62 121 222 133 269 12 51 16 19 4 -38z
m-1426 -47 c28 -51 29 -52 5 -33 -53 43 -89 79 -89 90 0 6 6 17 12 23 15 15
27 1 72 -80z m1375 35 c-24 -64 -105 -205 -145 -254 -24 -29 -61 -65 -84 -80
-78 -53 -195 -62 -223 -17 -15 23 14 84 83 178 31 41 66 93 80 115 13 22 24
41 26 43 1 2 17 -6 35 -17 19 -12 51 -21 73 -21 44 0 114 30 141 60 24 27 26
25 14 -7z m-1381 -88 c24 -22 61 -65 82 -95 21 -30 55 -71 76 -90 l38 -35 -36
42 c-36 40 -78 110 -61 100 140 -86 186 -109 250 -132 43 -15 85 -30 93 -33
34 -12 -83 -23 -200 -19 -147 6 -227 27 -316 85 -57 37 -144 126 -144 147 0 6
28 34 61 63 l62 53 26 -23 c14 -12 46 -41 69 -63z m-480 -110 c33 -103 33
-105 15 -128 -48 -62 -104 -119 -109 -114 -11 11 -43 137 -50 196 l-6 56 51
48 c27 26 54 47 58 47 4 0 23 -47 41 -105z m460 -128 c48 -23 89 -46 91 -52 9
-24 95 -95 152 -125 l62 -33 -48 -24 c-65 -33 -142 -41 -200 -19 -83 32 -197
191 -246 346 -10 30 -18 47 -18 38 -1 -30 50 -161 89 -228 21 -36 63 -89 93
-117 88 -83 168 -92 294 -34 l62 29 48 -18 c68 -25 183 -49 283 -58 l85 -7
-88 -33 c-189 -69 -383 -112 -509 -112 -56 0 -79 5 -126 29 -155 78 -312 245
-386 409 l-20 43 79 79 78 79 70 -75 c56 -60 85 -82 155 -117z m-622 -46 c18
-83 69 -213 104 -261 l22 -31 -69 35 c-80 40 -126 87 -161 165 -46 106 -48 94
21 167 l62 67 3 -34 c1 -19 10 -67 18 -108z m286 -102 c64 -101 199 -230 293
-283 30 -16 29 -16 -40 -10 -92 9 -207 38 -273 70 -57 28 -119 100 -162 189
l-22 45 64 70 63 69 21 -48 c12 -27 37 -73 56 -102z m1079 92 c-6 -10 -48 -53
-93 -96 -82 -76 -83 -76 -126 -70 -24 3 -65 13 -93 21 l-50 15 29 37 c15 20
36 49 45 65 17 26 21 27 100 28 45 0 102 4 127 8 72 13 72 13 61 -8z m-312
-17 c9 -8 -54 -85 -74 -90 -24 -6 -115 36 -174 80 l-35 26 140 -6 c76 -4 141
-8 143 -10z"/>
<path d="M2693 3070 c0 -25 2 -35 4 -22 2 12 2 32 0 45 -2 12 -4 2 -4 -23z"/>
<path d="M2681 2948 c-1 -91 18 -199 52 -288 28 -75 76 -174 82 -168 2 2 -12
43 -31 91 -44 109 -84 263 -85 331 -1 28 -5 65 -9 81 -6 22 -8 10 -9 -47z"/>
<path d="M1470 2559 c-12 -23 -20 -43 -18 -45 3 -2 14 17 26 41 27 56 20 60
-8 4z"/>
<path d="M1416 2445 c-9 -26 -7 -32 5 -12 6 10 9 21 6 23 -2 3 -7 -2 -11 -11z"/>
<path d="M1386 2375 c-9 -26 -7 -32 5 -12 6 10 9 21 6 23 -2 3 -7 -2 -11 -11z"/>
<path d="M1266 2044 c-9 -26 -16 -52 -15 -58 0 -6 9 13 20 43 10 30 17 56 15
58 -2 2 -11 -17 -20 -43z"/>
<path d="M3542 2840 c0 -19 2 -27 5 -17 2 9 2 25 0 35 -3 9 -5 1 -5 -18z"/>
</g>
</svg>