<?xml version="1.0" standalone="no"?>
<!DOCTYPE svg PUBLIC "-//W3C//DTD SVG 20010904//EN"
 "http://www.w3.org/TR/2001/REC-SVG-20010904/DTD/svg10.dtd">
<svg version="1.0" xmlns="http://www.w3.org/2000/svg"
 width="512.000000pt" height="512.000000pt" viewBox="0 0 512.000000 512.000000"
 preserveAspectRatio="xMidYMid meet">
<metadata>
Created by potrace 1.16, written by Peter Selinger 2001-2019
</metadata>
<g transform="translate(0.000000,512.000000) scale(0.100000,-0.100000)"
fill="#000000" stroke="none">
<path d="M2425 4078 c-147 -75 -396 -187 -496 -223 -109 -39 -251 -71 -377
-85 l-112 -13 0 -161 c0 -328 38 -667 101 -906 35 -132 124 -369 182 -485 151
-303 374 -594 687 -898 135 -132 154 -147 169 -134 453 381 768 759 921 1108
142 320 200 603 220 1057 5 130 10 279 10 330 l0 92 -42 0 c-66 0 -244 28
-327 51 -178 48 -354 117 -610 239 -104 49 -193 90 -198 89 -4 0 -62 -28 -128
-61z m306 -164 c333 -155 569 -237 768 -265 l94 -13 -7 -161 c-16 -377 -38
-607 -77 -779 -35 -155 -38 -144 -49 181 -6 149 -17 334 -25 413 -8 78 -15
148 -15 155 0 8 -23 15 -62 19 -151 17 -333 75 -604 191 l-196 84 -36 -18
c-56 -28 -292 -128 -384 -162 -108 -40 -252 -76 -360 -91 -85 -12 -87 -13 -92
-43 -5 -30 -20 -253 -33 -510 l-7 -140 -12 65 c-24 126 -36 278 -43 535 -3
143 -6 261 -5 263 1 1 44 9 96 17 169 25 449 129 754 280 60 29 114 54 120 54
6 1 85 -33 175 -75z m-86 -330 c189 -61 354 -161 464 -281 136 -148 125 -130
145 -233 31 -159 22 -334 -26 -508 -11 -41 -17 -79 -15 -86 3 -7 44 -32 92
-55 85 -43 87 -44 81 -74 -3 -17 -8 -32 -10 -35 -6 -5 -441 224 -473 250 -7 6
-21 -6 -42 -37 -35 -52 -37 -61 -16 -69 8 -3 48 -33 89 -67 l74 -62 -31 -40
c-66 -82 -201 -159 -329 -187 l-58 -13 0 -84 c0 -45 4 -83 9 -83 21 0 133 57
210 108 106 70 214 178 288 290 36 54 59 80 61 70 8 -42 -93 -184 -208 -290
-84 -78 -201 -154 -296 -193 l-59 -24 -6 -193 c-4 -106 -7 -211 -8 -232 -5
-145 -41 172 -41 359 l0 61 -102 51 c-136 68 -254 157 -339 257 -58 68 -129
178 -129 200 0 18 19 0 49 -46 116 -179 234 -284 420 -378 l101 -50 0 89 0 88
-62 12 c-96 18 -218 84 -294 156 -35 34 -64 67 -64 73 0 11 147 132 161 132
19 0 7 -15 -57 -75 l-66 -62 50 -50 c59 -59 132 -103 219 -132 112 -38 109
-40 105 99 l-3 119 -37 7 c-80 14 -187 94 -228 169 -10 19 -23 35 -28 35 -5 0
-80 -39 -165 -87 -321 -179 -289 -163 -295 -139 -12 43 -5 51 70 91 62 33 75
43 71 60 -3 11 -17 65 -32 120 -24 87 -27 119 -28 250 0 203 18 286 76 352
182 206 275 270 519 358 51 19 98 34 103 35 6 0 46 -12 90 -26z"/>
<path d="M2437 3535 c-175 -62 -295 -140 -411 -267 -96 -104 -94 -98 -30 -145
l54 -40 69 68 c87 85 200 143 325 166 72 13 86 19 86 34 0 27 -54 25 -220 -6
-74 -13 -135 -23 -137 -21 -6 6 99 88 155 122 31 19 91 45 132 58 48 15 76 30
78 40 5 22 -20 20 -101 -9z"/>
<path d="M2590 3543 c0 -14 20 -24 85 -45 55 -18 111 -45 158 -77 80 -56 122
-90 116 -95 -2 -2 -65 7 -139 20 -173 30 -220 31 -220 5 0 -15 10 -20 53 -26
28 -4 78 -15 110 -25 31 -10 57 -15 57 -11 0 3 4 1 8 -4 4 -6 27 -19 52 -30
25 -11 80 -54 123 -96 87 -83 74 -82 155 -22 l32 24 -32 46 c-82 114 -247 240
-395 300 -128 53 -163 61 -163 36z"/>
<path d="M2430 3463 c-60 -24 -156 -81 -148 -88 2 -2 35 3 73 11 39 7 87 13
107 14 58 0 68 8 68 51 0 48 -9 49 -100 12z"/>
<path d="M2592 3449 l3 -44 68 -7 c37 -3 90 -11 118 -17 74 -16 76 -14 29 20
-54 39 -133 75 -183 85 l-38 6 3 -43z"/>
<path d="M2430 3284 c-96 -20 -219 -85 -290 -152 -33 -32 -60 -62 -59 -67 0
-8 95 -83 164 -130 11 -7 27 3 67 42 59 57 117 89 177 99 l41 7 0 108 c0 124
8 117 -100 93z"/>
<path d="M2596 3284 c-3 -9 -6 -56 -6 -105 0 -89 0 -89 28 -95 63 -14 93 -27
145 -64 29 -21 62 -51 71 -65 11 -16 23 -24 32 -21 27 10 174 119 174 129 0 5
-26 34 -57 66 -86 85 -201 139 -350 165 -22 4 -33 1 -37 -10z"/>
<path d="M1906 3088 c-3 -18 -9 -44 -11 -58 -12 -52 -16 -207 -8 -260 l8 -55
23 110 c13 61 32 138 44 173 l20 64 -28 29 c-15 16 -31 29 -35 29 -4 0 -10
-15 -13 -32z"/>
<path d="M3171 3091 l-34 -28 16 -41 c24 -59 55 -188 63 -262 11 -93 22 -45
23 101 1 106 -11 217 -27 246 -5 8 -18 3 -41 -16z"/>
<path d="M1986 3002 c-56 -171 -77 -352 -53 -445 9 -33 17 -61 20 -63 2 -2 63
26 136 63 l133 68 -5 55 c-5 52 3 130 18 176 5 17 -6 29 -70 75 -42 29 -79 53
-83 51 -12 -4 -41 -135 -49 -222 -5 -64 -9 -78 -14 -55 -12 55 -9 150 7 210
26 97 26 99 0 117 l-24 18 -16 -48z"/>
<path d="M3091 3021 c-23 -18 -23 -19 -8 -67 24 -77 30 -130 21 -213 l-7 -76
-12 100 c-14 114 -36 215 -47 215 -9 0 -148 -99 -148 -105 0 -2 7 -31 16 -65
11 -44 14 -82 9 -129 l-6 -66 130 -65 c72 -35 133 -61 136 -58 4 3 12 36 18
72 8 50 8 92 -1 173 -11 99 -59 303 -72 303 -3 0 -16 -9 -29 -19z"/>
<path d="M2800 2445 c-18 -22 -125 -72 -170 -80 l-40 -7 0 -119 c0 -139 -6
-135 117 -94 105 35 253 142 242 173 -4 10 -128 142 -134 142 -1 0 -8 -7 -15
-15z"/>
</g>
</svg>