<?xml version="1.0" standalone="no"?>
<!DOCTYPE svg PUBLIC "-//W3C//DTD SVG 20010904//EN"
 "http://www.w3.org/TR/2001/REC-SVG-20010904/DTD/svg10.dtd">
<svg version="1.0" xmlns="http://www.w3.org/2000/svg"
 width="512.000000pt" height="512.000000pt" viewBox="0 0 512.000000 512.000000"
 preserveAspectRatio="xMidYMid meet">
<metadata>
Created by potrace 1.16, written by Peter Selinger 2001-2019
</metadata>
<g transform="translate(0.000000,512.000000) scale(0.100000,-0.100000)"
fill="#000000" stroke="none">
<path d="M2638 4834 c-26 -8 -56 -26 -68 -41 -11 -14 -30 -31 -42 -37 -30 -15
-66 -70 -74 -114 -4 -20 -2 -62 4 -92 7 -31 12 -77 12 -103 0 -31 9 -65 25
-97 14 -28 21 -50 15 -50 -6 0 -31 -21 -56 -47 l-45 -48 -97 0 c-79 -1 -104
-5 -137 -22 -42 -22 -75 -67 -75 -102 0 -33 16 -24 32 18 17 44 51 66 113 75
l40 6 -43 -16 c-24 -9 -58 -32 -75 -51 -18 -19 -56 -60 -84 -91 -33 -35 -68
-88 -94 -141 -22 -47 -62 -129 -89 -181 -77 -151 -148 -334 -186 -475 -19 -71
-43 -163 -54 -204 -11 -41 -20 -87 -20 -102 0 -14 -6 -45 -14 -67 -20 -55 -29
-170 -17 -207 l9 -30 1 28 c1 15 5 27 10 27 5 0 7 9 4 21 -3 11 1 55 10 97 9
43 20 104 25 137 16 104 91 374 138 494 68 176 231 495 283 553 44 49 93 83
105 71 11 -11 5 -205 -8 -278 -13 -75 -19 -70 -31 22 -4 29 -12 56 -18 60 -7
4 -8 -41 -4 -153 l6 -159 -21 53 c-11 29 -21 52 -23 50 -2 -2 4 -34 12 -72 13
-68 12 -96 -13 -181 -3 -11 -10 -43 -14 -72 -17 -108 -80 -146 -200 -120 -35
8 -35 8 -10 -7 l25 -15 -23 -1 c-24 0 -82 -26 -82 -36 0 -4 10 -4 22 -1 44 12
98 -35 98 -85 0 -55 -82 -113 -151 -106 -29 3 -35 1 -27 -9 15 -19 68 -25 118
-14 24 5 46 8 48 6 7 -6 -41 -91 -77 -135 -63 -77 -67 -86 -28 -52 21 17 42
32 47 32 11 0 13 -24 4 -58 -6 -20 -11 -22 -38 -16 -45 10 -123 7 -143 -6 -14
-9 -7 -10 34 -6 64 6 153 -17 153 -40 0 -12 -5 -14 -17 -8 -10 5 -54 10 -99
12 -96 4 -110 -5 -107 -77 1 -25 3 -61 3 -80 1 -18 -6 -52 -15 -75 -20 -48
-22 -145 -5 -156 7 -4 9 -13 6 -19 -4 -6 -2 -11 5 -11 7 0 10 -3 6 -6 -3 -4 1
-20 9 -35 11 -21 27 -32 58 -41 42 -11 44 -13 40 -42 -23 -176 -30 -322 -14
-328 6 -2 5 -77 -5 -213 -14 -206 -20 -270 -50 -605 -8 -91 -16 -209 -17 -264
l-3 -98 95 -53 c111 -62 167 -106 156 -123 -13 -21 -172 -65 -210 -58 -45 9
-155 110 -200 184 -31 52 -92 116 -198 209 -32 29 -38 40 -44 92 -7 69 -19 71
-60 12 l-26 -36 7 92 c4 51 4 93 1 93 -3 0 -12 -15 -19 -32 l-13 -33 -12 33
c-13 39 -17 40 -35 6 -13 -26 -15 -23 -47 77 -18 57 -39 112 -48 122 -9 10
-39 31 -69 48 -70 40 -89 67 -103 145 -7 42 -20 79 -36 100 l-25 33 21 11 c25
14 145 40 180 39 23 0 22 -2 -12 -20 -68 -35 -76 -85 -24 -145 18 -21 74 -93
123 -160 102 -136 144 -175 258 -234 48 -25 68 -32 51 -18 -136 107 -241 202
-295 266 -35 42 -69 80 -75 84 -7 5 -4 8 6 8 13 0 7 11 -23 42 -23 24 -45 54
-50 67 -13 34 12 68 69 93 45 20 59 21 379 16 183 -3 333 -2 333 2 0 9 -166
20 -329 21 -179 1 -222 9 -265 47 -20 18 -46 32 -57 32 -11 0 -22 7 -25 15 -5
12 -23 13 -97 10 -93 -5 -137 5 -108 24 11 7 4 12 -26 21 -35 11 -44 10 -67
-5 -40 -27 -43 -10 -5 26 31 29 32 31 9 24 -14 -4 -38 -17 -54 -28 l-29 -21 7
28 c4 16 9 42 12 60 l6 31 -34 -38 -33 -39 -13 47 c-12 44 -32 54 -32 15 0
-10 -5 -22 -10 -25 -6 -4 -10 7 -10 27 0 30 -1 31 -16 16 -15 -15 -19 -15 -50
0 l-34 16 0 86 0 87 49 -25 c28 -13 55 -22 61 -20 7 2 -15 16 -48 32 -48 23
-61 35 -72 65 -7 20 -15 43 -18 51 -3 8 11 1 31 -17 20 -17 69 -50 109 -74 40
-23 84 -49 98 -59 18 -12 57 -19 129 -24 97 -7 112 -11 225 -62 66 -31 164
-71 216 -90 52 -19 135 -59 185 -88 105 -62 135 -78 135 -72 0 9 -240 166
-255 166 -26 0 -266 90 -325 121 -46 25 -71 31 -150 36 -93 5 -98 7 -209 67
-63 33 -132 78 -154 98 l-39 37 6 68 c4 37 13 116 21 175 15 108 13 128 -17
170 -10 15 -9 27 5 67 22 63 22 89 -4 153 -21 52 -21 54 -3 124 16 67 16 75 0
170 -10 54 -24 109 -32 122 -8 12 -10 22 -4 22 5 0 10 -4 10 -10 0 -5 12 -10
26 -10 19 0 42 -15 76 -50 55 -56 181 -135 243 -151 24 -7 60 -30 91 -59 40
-38 62 -50 108 -61 50 -11 60 -17 76 -48 10 -20 51 -83 89 -141 51 -75 71
-114 71 -137 0 -21 14 -50 46 -92 25 -34 48 -61 51 -61 5 0 -27 56 -59 102
-12 17 -18 40 -16 58 l3 31 71 -65 c39 -36 74 -63 77 -59 22 21 183 -125 228
-205 l20 -37 -6 40 c-5 33 -18 52 -76 108 -44 43 -93 79 -134 99 -85 40 -237
196 -315 323 -50 80 -59 90 -96 101 -58 17 -84 31 -125 70 -20 20 -64 45 -101
58 -84 31 -167 84 -240 152 -45 43 -63 54 -90 54 -18 0 -38 4 -44 8 -10 6
-104 184 -104 197 0 3 6 5 14 5 7 0 69 29 137 64 l124 63 50 -34 c28 -19 88
-57 135 -85 47 -28 88 -56 92 -63 8 -13 80 -13 110 0 29 12 137 -108 166 -183
12 -33 31 -67 40 -75 10 -9 63 -38 117 -66 74 -36 114 -64 155 -106 30 -31 64
-61 75 -67 11 -6 -13 23 -54 65 -57 58 -94 85 -168 123 -52 27 -97 52 -99 55
-3 5 40 19 144 46 17 4 34 -5 72 -41 27 -25 54 -46 61 -46 6 0 -18 25 -55 55
l-67 54 -37 -13 c-20 -8 -59 -21 -85 -29 l-48 -15 -28 62 c-30 65 -82 132
-143 185 -35 31 -39 32 -60 17 -12 -9 -27 -16 -33 -16 -7 0 -83 43 -170 95
-87 52 -164 95 -170 95 -7 0 -73 -29 -146 -65 -73 -35 -136 -62 -140 -59 -13
8 -105 186 -147 284 -22 52 -54 120 -71 150 l-31 55 0 -1578 c0 -1557 0 -1578
19 -1572 25 8 325 -40 416 -67 39 -11 123 -40 188 -64 l119 -43 29 21 c38 28
116 34 199 15 36 -9 66 -14 68 -12 2 1 -17 14 -41 28 -24 14 -50 33 -57 42
-20 24 -80 52 -125 60 l-40 6 45 -26 c25 -14 36 -23 25 -20 -126 42 -377 94
-463 96 l-47 1 55 14 c59 15 214 41 295 50 76 9 225 -43 375 -130 14 -8 60
-30 102 -50 154 -70 225 -130 274 -233 31 -65 45 -81 132 -151 53 -44 112 -93
131 -111 l34 -32 -6 -82 c-3 -45 -3 -94 0 -110 5 -26 7 -27 74 -27 l69 0 -20
50 c-14 36 -18 63 -14 90 6 33 3 42 -17 59 -13 11 -37 32 -54 46 l-30 25 45
-18 c69 -29 437 -142 510 -158 36 -7 88 -13 115 -13 l50 0 -49 20 c-55 22
-172 56 -411 120 -176 46 -285 88 -263 100 7 4 58 22 113 39 98 32 136 50 103
50 -9 0 -19 9 -23 20 -10 31 -103 104 -183 144 l-73 37 6 62 c12 131 65 752
65 770 0 17 5 19 42 13 23 -4 71 -20 107 -35 36 -16 103 -41 148 -55 75 -25
82 -30 88 -58 4 -17 4 -63 0 -103 -8 -89 1 -149 22 -141 9 4 13 1 11 -6 -3 -7
-11 -13 -19 -13 -15 0 -35 -134 -45 -316 -6 -84 -4 -101 16 -147 12 -29 40
-68 61 -87 34 -30 46 -35 90 -35 44 0 55 4 84 33 58 58 69 167 33 323 l-21 94
21 108 c12 60 22 125 22 145 0 21 8 54 19 75 10 20 27 63 37 95 10 31 21 57
25 57 3 0 22 -6 40 -14 64 -26 79 -28 79 -12 0 15 -93 52 -108 42 -13 -8 -1
106 14 136 8 15 14 57 14 96 0 38 7 88 15 111 11 33 12 52 3 95 -9 46 -7 71
12 163 20 98 30 133 30 107 0 -5 7 -49 15 -99 20 -119 36 -492 25 -570 -5 -33
-14 -98 -20 -145 -7 -47 -22 -134 -35 -195 -36 -172 -37 -180 -21 -248 14 -53
14 -67 2 -101 -14 -39 -11 -76 5 -76 5 0 9 8 9 18 0 19 29 65 30 47 0 -13 70
-7 70 6 0 5 -16 34 -36 65 -20 30 -34 57 -32 58 1 1 33 -28 70 -65 l68 -66
-75 -28 c-65 -23 -75 -30 -75 -51 0 -28 -2 -28 43 -9 20 8 49 15 64 15 23 0
16 -6 -36 -30 -65 -31 -76 -30 -83 4 -4 27 -28 33 -28 7 0 -11 5 -32 11 -48 7
-15 11 -58 10 -94 -2 -62 0 -67 30 -97 38 -37 19 -44 -20 -9 -26 23 -27 24
-246 19 -264 -6 -262 -8 92 -77 131 -26 250 -54 264 -61 22 -11 100 -20 323
-37 10 -1 71 -57 136 -124 144 -151 191 -168 63 -23 -135 153 -156 180 -149
188 4 4 123 7 264 7 142 -1 248 1 237 3 -11 2 -90 27 -175 55 -149 48 -160 50
-293 55 l-138 4 -16 33 c-9 19 -35 43 -63 60 -29 17 -54 41 -64 62 -20 42 -20
54 -1 47 12 -5 15 3 15 39 0 26 7 72 15 104 12 43 14 84 9 158 -3 55 -2 110 3
122 l8 23 125 -44 c207 -73 436 -176 561 -252 52 -31 130 -78 174 -104 44 -26
120 -73 168 -104 49 -32 142 -82 208 -111 66 -30 141 -71 167 -93 26 -22 141
-110 255 -196 l209 -157 60 3 61 3 -79 56 c-44 31 -119 84 -169 117 -49 34
-119 91 -155 127 -35 37 -73 71 -84 77 -10 6 -105 46 -210 89 -184 77 -348
160 -328 167 6 2 34 -7 62 -19 28 -12 54 -18 58 -14 22 23 -145 106 -184 91
-17 -7 -90 27 -157 72 -70 47 -126 77 -242 127 -60 27 -114 53 -120 58 -24 23
146 -2 251 -38 126 -42 173 -67 258 -140 82 -69 96 -75 155 -73 54 3 76 -8 48
-23 -33 -19 -18 -35 46 -48 68 -14 263 -92 367 -147 64 -34 65 -34 32 -6 -29
26 -124 76 -277 146 l-50 23 70 21 c39 12 138 35 220 51 406 80 647 160 719
240 10 11 24 17 32 14 12 -4 14 78 14 558 l0 564 -23 -27 c-12 -14 -58 -70
-103 -125 -94 -113 -144 -161 -269 -258 -137 -106 -200 -157 -203 -166 -2 -4
2 -11 9 -15 8 -5 10 -3 4 7 -7 11 -6 12 7 2 8 -7 17 -10 21 -7 3 3 14 1 25 -5
21 -11 28 -66 10 -77 -4 -3 -6 -9 -3 -14 3 -4 -2 -11 -11 -14 -8 -3 -12 -10
-9 -16 3 -5 1 -10 -4 -10 -6 0 -11 4 -11 9 0 4 -12 6 -26 3 -24 -4 -57 18 -62
43 -1 6 -8 17 -16 27 -8 9 -11 20 -8 24 4 4 1 4 -6 0 -7 -5 -11 -15 -8 -23 3
-8 2 -12 -3 -9 -5 3 -19 -8 -31 -24 -24 -32 -43 -40 -34 -15 4 8 1 15 -6 15
-6 0 -8 -4 -5 -10 3 -5 -1 -10 -9 -10 -9 0 -16 2 -16 4 0 2 48 43 108 91 59
48 112 97 118 109 7 11 17 53 23 91 13 86 17 90 195 181 120 62 137 75 238
175 l108 109 0 315 c0 173 -2 315 -4 315 -22 0 -97 -59 -171 -135 -49 -50
-132 -124 -183 -164 -85 -68 -106 -91 -83 -91 5 0 11 9 14 20 3 11 10 20 17
20 6 0 8 -5 4 -12 -5 -9 -3 -9 9 1 9 7 15 17 12 21 -3 5 -1 11 4 15 6 3 8 -5
5 -20 -2 -14 -1 -25 3 -24 21 4 33 -2 33 -16 0 -9 9 -26 20 -38 19 -19 19 -23
5 -33 -9 -7 -25 -10 -35 -7 -11 3 -20 1 -20 -5 0 -8 -175 -115 -190 -117 -7 0
-69 -70 -65 -73 5 -5 49 24 135 88 102 76 100 75 94 43 -12 -80 -16 -93 -24
-93 -6 0 -9 -3 -8 -7 3 -17 -16 -69 -32 -88 -10 -11 -21 -30 -25 -42 -3 -13
-13 -30 -22 -39 -9 -8 -19 -43 -23 -77 -4 -34 -11 -73 -17 -87 -9 -22 -29
-135 -35 -200 -2 -18 -33 -49 -118 -117 -66 -53 -124 -93 -137 -93 -12 0 -29
-3 -38 -6 -17 -7 -100 -114 -247 -319 -48 -66 -93 -129 -101 -140 -14 -18 -15
-15 -26 37 -15 71 -38 95 -47 49 -4 -17 -10 -28 -15 -26 -14 9 -30 -33 -24
-62 3 -16 -4 -4 -16 25 -12 29 -26 49 -30 45 -4 -4 -12 -37 -16 -73 l-9 -65
-16 31 c-37 69 -81 73 -68 5 l7 -40 -39 20 c-33 17 -37 22 -28 39 5 10 10 29
10 42 -1 20 -2 21 -13 8 -13 -17 -68 -54 -71 -48 -1 2 -11 20 -21 41 -11 21
-24 41 -28 44 -4 2 -26 -4 -48 -15 -39 -20 -69 -20 -69 -1 0 12 -67 11 -91 -1
-36 -20 -21 10 16 32 20 11 34 22 32 25 -7 6 -77 -29 -77 -39 0 -18 -18 -7
-23 15 -4 12 -13 31 -22 42 -15 20 -15 20 -30 1 -12 -16 -17 -17 -31 -5 -9 8
-18 12 -18 10 -1 -2 -18 1 -39 8 -21 7 -40 11 -43 8 -3 -2 5 -22 18 -43 16
-27 18 -36 8 -32 -8 3 -48 16 -88 29 -56 18 -71 27 -67 39 20 49 55 187 60
232 3 29 10 71 16 93 5 22 14 103 19 180 5 77 16 190 24 250 29 221 61 709 49
755 -9 32 -7 36 21 50 41 20 47 54 39 219 -6 130 -7 135 -35 167 -28 32 -65
134 -48 134 9 0 40 -73 40 -98 0 -9 12 -25 25 -35 28 -20 32 -12 12 18 -8 11
-21 43 -30 70 -15 47 -15 55 0 105 l16 55 17 -66 c19 -79 43 -119 70 -119 16
0 19 -5 15 -23 -9 -36 20 -136 71 -239 24 -51 56 -130 70 -175 18 -57 32 -84
45 -88 15 -5 16 -10 8 -33 -7 -17 -8 -66 -3 -131 5 -81 10 -107 24 -119 16
-13 16 -17 4 -29 -18 -18 -18 -44 -1 -68 17 -23 45 -17 109 24 47 30 68 69 68
129 0 12 5 22 10 22 14 0 4 53 -26 144 -17 53 -20 73 -11 87 8 13 8 34 0 81
-6 35 -14 108 -17 163 -6 114 -43 274 -81 361 -34 75 -129 345 -156 444 -66
235 -124 342 -214 393 -22 12 -63 37 -91 55 l-50 33 2 129 c1 102 -1 130 -12
134 -9 3 -13 18 -13 38 2 31 2 32 6 5 5 -33 26 -31 33 4 6 28 30 37 30 11 0
-10 -7 -28 -16 -40 -8 -12 -10 -22 -5 -22 14 0 38 38 46 73 7 24 4 28 -24 33
-23 5 -33 13 -37 33 -6 28 -18 66 -29 94 -5 12 -2 17 9 17 22 0 56 36 56 58 0
10 -7 27 -15 38 -13 16 -16 17 -25 4 -7 -12 -10 -8 -10 18 0 44 -30 72 -77 72
-21 0 -44 -4 -51 -9 -8 -5 -29 -3 -50 5 -46 16 -65 16 -124 -2z m112 -24 c-14
-4 -46 -13 -72 -20 -50 -13 -56 -35 -12 -46 13 -3 24 -10 24 -14 0 -13 -43 1
-66 22 -19 17 -22 17 -34 3 -8 -10 -9 -15 -2 -15 6 0 9 -7 6 -15 -4 -9 0 -15
7 -15 8 -1 4 -6 -8 -13 -20 -11 -17 -12 25 -11 26 0 55 2 66 2 10 1 44 29 76
62 49 51 63 60 93 60 26 0 40 -6 51 -22 22 -32 20 -42 -4 -18 -40 40 -86 19
-144 -65 -30 -43 -98 -69 -166 -62 -66 7 -80 -2 -104 -69 l-15 -39 0 53 c-1
70 20 117 63 143 19 11 38 29 41 39 9 30 64 50 135 49 48 0 58 -3 40 -9z m153
-207 c8 -21 18 -52 21 -69 6 -29 5 -32 -21 -37 -16 -3 -31 0 -35 6 -5 8 -11 9
-15 2 -5 -5 -60 -11 -123 -12 -77 -1 -107 1 -92 7 23 10 30 34 12 45 -14 8
-13 28 3 48 16 22 108 46 178 46 56 1 57 1 72 -36z m-327 -6 c-11 -7 -31 -22
-44 -35 -13 -13 -22 -17 -20 -10 5 13 65 59 77 57 3 0 -3 -6 -13 -12z m-16
-47 c-8 -5 -19 -10 -25 -10 -5 0 -3 5 5 10 8 5 20 10 25 10 6 0 3 -5 -5 -10z
m6 -77 c29 -27 30 -30 22 -88 -12 -82 -5 -158 17 -192 11 -15 21 -37 22 -48 2
-11 8 -46 13 -78 5 -31 16 -67 26 -80 14 -19 16 -20 10 -2 -10 28 -44 175 -41
175 2 0 17 -13 35 -30 18 -16 38 -30 46 -30 18 0 18 2 -6 -45 -11 -22 -20 -51
-19 -65 l0 -25 17 25 c9 14 29 38 45 54 15 16 27 33 27 37 0 5 5 9 10 9 23 0
5 -66 -33 -122 -26 -40 -73 -38 -129 5 -83 63 -125 221 -88 332 11 34 11 40
-8 54 -30 24 -41 54 -38 97 5 48 3 44 24 44 10 0 32 -12 48 -27z m179 7 c3 -5
-1 -10 -10 -10 -9 0 -13 5 -10 10 3 6 8 10 10 10 2 0 7 -4 10 -10z m-36 -21
c20 -7 31 -18 31 -30 0 -10 8 -27 18 -36 16 -17 15 -20 -22 -58 -34 -35 -38
-37 -32 -15 12 43 11 54 -5 58 -12 2 -15 -4 -11 -30 l5 -32 -33 37 c-20 23
-34 51 -37 77 -5 39 -5 40 24 40 17 0 44 -5 62 -11z m115 2 c9 -13 -14 -71
-28 -71 -17 0 -36 21 -36 40 0 31 49 55 64 31z m83 -86 c-1 -15 -11 -21 -41
-23 -21 -2 -45 -1 -54 3 -13 5 -12 9 7 28 11 13 21 35 21 50 0 38 15 33 33
-10 9 -21 14 -27 11 -13 -13 60 -13 63 6 25 11 -22 19 -49 17 -60z m-102 -25
c3 -5 -7 -16 -22 -24 -44 -22 -66 -51 -58 -77 5 -14 4 -19 -4 -15 -23 15 -11
57 27 91 39 37 47 41 57 25z m65 -51 c13 -9 12 -10 -3 -5 -9 3 -28 1 -42 -4
-31 -12 -33 -3 -2 10 29 12 29 12 47 -1z m8 -28 c17 -10 -16 -21 -65 -21 -27
0 -33 -4 -33 -22 0 -15 -3 -19 -10 -12 -33 33 66 82 108 55z m-389 -33 c-16
-29 -5 -103 24 -170 18 -40 36 -63 68 -84 27 -18 55 -49 71 -79 41 -75 33 -89
-10 -17 -20 35 -51 72 -67 82 -30 19 -31 19 -90 -6 -108 -46 -99 -52 -91 65 8
120 12 132 61 189 40 46 52 53 34 20z m365 -23 c8 -23 -12 -28 -23 -6 -6 11
-11 22 -11 25 0 11 29 -6 34 -19z m-491 -202 c-14 -149 -43 -289 -74 -356 -11
-23 -17 -33 -14 -22 58 193 75 289 75 431 0 66 4 84 20 84 3 0 0 -62 -7 -137z
m-37 81 c11 -44 -4 -230 -26 -312 -31 -119 -67 -226 -77 -229 -6 -2 -16 3 -23
11 -14 17 -11 51 14 171 13 58 16 116 14 214 l-3 134 30 19 c42 25 63 23 71
-8z m592 -68 c12 -41 22 -79 22 -84 0 -5 -22 2 -48 16 -27 14 -55 23 -63 20
-14 -5 -84 -113 -116 -178 l-13 -25 6 25 c11 43 65 143 100 184 18 21 36 52
40 70 9 41 12 46 33 46 14 0 23 -18 39 -74z m66 43 c28 -13 39 -36 61 -129 15
-61 34 -361 22 -350 -3 3 -22 79 -42 170 -20 91 -45 194 -56 229 -19 62 -23
91 -14 91 2 0 15 -5 29 -11z m104 -63 c43 -22 69 -56 101 -133 51 -119 62
-188 62 -373 0 -91 -3 -175 -6 -186 -3 -10 2 -3 11 16 10 22 19 77 24 145 4
61 8 103 8 94 4 -39 85 -266 120 -336 54 -107 95 -273 96 -388 l1 -90 -31 3
c-18 2 -52 -5 -77 -16 l-45 -20 -25 47 c-14 25 -36 71 -50 102 l-25 57 41 -18
c87 -37 133 -32 67 7 -36 21 -38 30 -7 36 16 3 13 5 -11 6 -22 1 -41 10 -58
29 -14 15 -30 27 -34 27 -5 0 -12 4 -17 9 -5 5 -3 6 5 2 18 -11 15 9 -5 25
-14 12 -16 12 -8 0 5 -10 4 -12 -3 -7 -18 11 -14 26 6 26 9 0 46 -9 80 -20 66
-21 133 -27 116 -11 -7 7 -147 55 -189 65 -5 1 24 19 64 39 l74 37 -57 0 c-67
0 -70 9 -24 75 17 24 29 47 26 50 -3 3 -32 -18 -63 -47 l-58 -53 7 45 c20 133
19 166 -7 223 -14 31 -23 58 -19 61 3 3 0 6 -7 6 -9 0 -10 33 -5 133 3 76 2
149 -4 172 l-10 40 -1 -44 c-1 -25 -6 -85 -13 -135 l-12 -91 -8 92 c-5 50 -21
141 -36 202 -15 61 -26 111 -24 111 1 0 15 -6 30 -14z m-154 -105 c3 -5 19
-60 36 -122 16 -63 32 -124 36 -136 6 -23 5 -23 -80 -23 l-85 0 -3 -132 -3
-133 -23 43 c-12 23 -29 68 -37 100 l-15 57 6 -50 c8 -70 52 -192 113 -312 28
-57 51 -109 51 -117 0 -8 -18 -38 -40 -67 -22 -29 -38 -55 -35 -57 8 -9 65 40
86 75 l23 37 13 -33 c24 -59 28 -119 8 -141 -27 -30 -112 -54 -198 -56 -71 -2
-77 0 -72 17 3 10 -1 32 -9 48 -13 25 -16 70 -15 263 1 128 3 225 6 215 7 -26
27 -15 31 16 3 28 -21 39 -31 15 -3 -7 -6 26 -6 73 -1 77 1 87 17 85 11 -1 17
6 17 19 0 13 -6 20 -17 19 -15 -2 -18 7 -18 51 0 44 3 54 20 58 15 4 20 14 20
39 0 41 23 70 77 97 23 11 51 34 63 51 17 25 25 28 40 20 10 -6 21 -14 24 -19z
m-438 -2 c10 -11 27 -25 38 -31 17 -9 18 -7 12 18 -7 26 -1 22 61 -36 l68 -65
0 -465 0 -464 -45 -9 c-25 -4 -92 -6 -150 -4 -87 4 -119 10 -186 36 -113 44
-115 45 -104 106 5 28 13 72 17 98 l8 48 50 -67 c69 -92 146 -148 229 -168 21
-5 7 8 -46 44 -42 28 -95 73 -118 100 -47 56 -110 174 -110 205 1 17 5 14 31
-15 85 -96 190 -195 255 -240 40 -28 75 -50 79 -50 4 0 -45 55 -110 122 -154
159 -245 267 -245 289 0 36 32 156 57 212 l26 58 126 -3 126 -3 3 -25 c4 -39
-11 -51 -72 -57 -51 -5 -56 -4 -50 12 5 13 3 16 -12 13 -10 -2 -18 -10 -16
-16 2 -14 -16 -14 -78 -2 -39 7 -42 6 -26 -6 27 -19 98 -27 180 -20 l72 7 -2
-88 c-3 -71 -1 -80 6 -48 5 22 9 86 9 142 l1 102 -127 3 c-107 3 -128 5 -126
18 1 8 14 65 30 126 l27 111 41 15 c53 21 49 21 71 -3z m502 -119 c-1 -23 -26
82 -26 110 0 14 6 -2 14 -35 7 -33 13 -67 12 -75z m-301 -42 c-3 -7 -5 -2 -5
12 0 14 2 19 5 13 2 -7 2 -19 0 -25z m310 0 c-3 -8 -6 -5 -6 6 -1 11 2 17 5
13 3 -3 4 -12 1 -19z m-31 -138 c47 0 54 -3 54 -19 0 -11 -6 -22 -12 -24 -10
-4 -10 -8 1 -15 23 -17 -4 -21 -79 -13 -57 6 -69 5 -56 -4 9 -7 39 -15 67 -18
29 -4 53 -8 56 -10 5 -5 -25 -228 -32 -235 -7 -7 -52 35 -86 82 -28 38 -29 43
-29 154 l0 115 31 -7 c17 -3 56 -6 85 -6z m-2783 -127 c19 -38 42 -93 53 -122
12 -36 38 -75 72 -113 48 -52 54 -63 63 -120 5 -35 8 -85 7 -113 l-1 -50 -9
55 c-21 120 -36 153 -97 219 -71 75 -93 119 -115 225 -23 113 -20 114 27 19z
m2018 50 c13 -16 12 -17 -3 -4 -17 13 -22 21 -14 21 2 0 10 -8 17 -17z m-35
-90 c-8 -15 -15 -25 -16 -21 0 12 23 58 27 54 3 -2 -2 -17 -11 -33z m13 -43
c-29 -68 -34 -59 -7 14 12 33 24 54 26 48 2 -6 -7 -34 -19 -62z m-2016 -75 l5
-50 -14 44 c-7 24 -11 48 -8 53 9 14 11 8 17 -47z m1962 -42 c-9 -15 -14 -20
-11 -10 4 11 9 31 13 45 5 19 8 22 11 10 2 -9 -4 -29 -13 -45z m-1948 -35 c-3
-8 -6 -5 -6 6 -1 11 2 17 5 13 3 -3 4 -12 1 -19z m10 -40 c-3 -8 -6 -5 -6 6
-1 11 2 17 5 13 3 -3 4 -12 1 -19z m16 -73 c4 -34 3 -42 -3 -25 -8 25 -13 87
-6 79 2 -2 6 -26 9 -54z m1937 -178 c0 -18 7 -45 15 -61 19 -36 12 -45 -15
-21 -15 14 -20 31 -20 72 0 34 4 52 10 48 6 -3 10 -21 10 -38z m-197 -301 c22
-32 51 -45 126 -52 l56 -6 0 -67 c1 -131 16 -556 21 -573 3 -9 0 -45 -6 -79
-9 -50 -9 -68 4 -99 11 -27 12 -47 6 -71 -20 -77 -40 -208 -40 -267 0 -56 -2
-63 -17 -58 -127 35 -193 59 -204 73 -13 15 -10 16 30 9 24 -3 57 -14 75 -23
59 -30 134 -27 94 4 -14 10 -117 38 -182 48 -22 4 -68 23 -103 43 l-64 37 5
90 c6 109 30 320 53 472 15 100 18 110 33 100 10 -5 24 -7 33 -4 23 9 27 117
6 202 -14 57 -15 87 -8 160 5 49 6 97 3 107 -3 10 5 44 18 75 l23 56 10 -75
c6 -41 19 -87 28 -102z m699 132 c3 -29 7 -34 38 -39 33 -6 32 -6 -12 -8 l-48
-1 0 40 c0 48 17 54 22 8z m-374 -68 c-29 -51 -108 -153 -114 -147 -6 6 41
129 61 161 12 18 26 26 46 26 l30 0 -23 -40z m209 -6 c82 -20 154 -38 161 -40
8 -2 12 -30 12 -93 0 -129 2 -127 -83 -84 -75 37 -197 86 -197 78 0 -2 20 -16
45 -31 25 -14 44 -28 42 -30 -2 -3 -27 1 -55 7 -28 6 -64 9 -79 7 -22 -3 -12
-8 47 -27 41 -12 93 -33 115 -44 l40 -22 -30 -2 c-16 -2 -55 -6 -85 -10 l-55
-7 82 -6 c104 -7 118 -19 76 -62 -31 -34 -57 -73 -107 -163 -27 -50 -27 -50
53 34 45 46 81 79 81 72 0 -30 -50 -150 -112 -268 -38 -73 -67 -133 -65 -133
3 0 33 39 66 86 l59 86 -4 -118 c-9 -223 -24 -275 -95 -332 -15 -12 -43 -29
-62 -37 -30 -12 -37 -12 -65 3 -17 9 -43 32 -57 51 -20 28 -25 31 -25 15 0
-21 34 -83 56 -100 10 -8 1 -19 -47 -52 l-61 -42 7 42 c9 51 11 54 28 40 7 -6
18 -7 26 -2 11 6 10 13 -8 36 -18 23 -21 38 -19 96 3 76 0 76 57 0 19 -25 20
-25 21 -6 0 11 -19 51 -41 88 -23 38 -41 78 -41 90 1 11 4 64 7 116 3 52 2
196 -3 320 l-8 225 57 85 c31 47 66 104 78 128 12 23 26 42 31 42 6 0 76 -16
157 -36z m1021 20 c12 -8 22 -22 22 -29 0 -12 -6 -12 -27 -4 -35 13 -84 4
-117 -22 l-26 -20 0 29 c0 28 14 40 60 55 30 10 66 7 88 -9z m-517 -65 c16
-34 28 -63 26 -65 -4 -4 -67 108 -67 120 0 17 13 0 41 -55z m-37 -33 c9 -27
15 -50 13 -51 -1 -1 -24 -15 -50 -30 -26 -15 -46 -29 -43 -32 2 -3 13 0 24 6
34 18 59 13 82 -16 20 -26 22 -35 15 -133 -10 -175 -44 -533 -53 -565 -8 -27
-9 -24 -15 31 -10 98 -23 115 -53 69 -15 -23 -14 -31 11 -127 40 -154 49 -225
32 -252 -8 -12 -54 -42 -102 -66 -48 -24 -108 -60 -132 -78 l-45 -35 7 44 c4
24 8 45 9 45 6 6 205 94 213 94 6 0 16 6 22 14 9 11 1 20 -46 46 -68 38 -103
68 -103 88 0 8 16 32 36 54 34 38 41 64 9 38 -30 -25 -14 10 45 98 33 48 60
96 60 105 0 9 -34 77 -76 152 -42 75 -74 138 -72 141 3 2 20 -8 39 -22 60 -45
77 -50 44 -13 -17 19 -39 45 -50 58 l-20 24 35 -17 c19 -9 47 -24 63 -32 32
-18 35 -7 7 29 -25 31 -25 37 -1 37 38 0 32 20 -6 21 -21 1 -49 4 -63 8 -24 7
-24 8 -5 18 11 6 50 19 85 28 36 9 69 19 73 22 18 11 -19 23 -72 23 -44 0 -66
-7 -118 -36 -60 -33 -64 -34 -49 -12 10 15 18 55 21 104 l4 79 -10 -75 c-7
-53 -16 -81 -31 -95 l-20 -20 6 64 c3 35 6 96 6 136 l0 73 48 -10 c26 -6 50
-15 53 -20 6 -9 115 26 134 43 13 12 20 2 39 -55z m-2774 -31 c-6 -31 -14 -54
-17 -52 -3 3 1 31 8 61 7 31 14 54 16 52 3 -2 -1 -30 -7 -61z m3328 31 c12
-12 7 -15 -37 -21 -62 -8 -67 -25 -7 -25 24 0 48 -6 54 -12 5 -7 19 -45 31
-84 19 -65 20 -74 6 -100 -8 -16 -15 -22 -15 -14 0 9 5 21 10 26 7 7 6 23 -4
50 l-14 39 1 -40 c1 -53 -18 -138 -32 -143 -6 -2 -9 -8 -6 -12 3 -5 -12 -21
-34 -35 -47 -29 -51 -30 -51 -11 0 7 14 19 31 26 58 25 84 105 50 161 l-19 32
-11 -39 c-6 -22 -11 -49 -11 -60 0 -28 -27 -51 -42 -36 -17 17 -14 302 3 313
19 13 79 3 97 -15z m-1685 -7 c12 -7 17 -22 17 -49 0 -38 -1 -39 -26 -30 -14
6 -57 10 -95 10 l-69 0 0 35 c0 30 4 36 33 44 34 11 111 5 140 -10z m-1424
-147 c0 -37 -6 -84 -12 -105 -11 -36 -13 -37 -32 -23 -17 12 -20 26 -20 108 0
54 5 105 13 122 l13 30 19 -32 c15 -24 20 -50 19 -100z m-163 -103 c44 -48 53
-64 67 -127 9 -40 30 -104 47 -142 28 -64 31 -78 28 -163 -2 -76 -4 -85 -11
-52 -4 22 -31 111 -59 197 -51 155 -89 226 -106 200 -6 -8 -14 -1 -26 25 -9
20 -44 73 -77 118 -32 45 -59 85 -59 89 0 15 148 -95 196 -145z m1564 133 c45
-22 69 -82 69 -178 1 -39 -2 -74 -6 -77 -16 -17 -43 27 -43 72 0 73 -11 78
-58 31 -32 -33 -40 -47 -37 -68 2 -15 6 -49 9 -75 l6 -49 -33 21 c-28 17 -32
26 -35 68 -2 26 -8 53 -14 58 -7 7 -8 -5 -3 -40 9 -63 3 -57 -24 23 l-21 62
27 85 28 85 50 0 c28 0 66 -8 85 -18z m826 -66 c10 -8 17 -17 14 -19 -3 -3
-16 3 -30 13 -29 22 -14 27 16 6z m838 -127 c-9 -10 -22 -19 -27 -19 -6 0 -2
8 7 19 9 10 20 36 24 57 l7 39 3 -38 c2 -26 -2 -45 -14 -58z m1426 37 c0 -2
-8 -10 -17 -17 -16 -13 -17 -12 -4 4 13 16 21 21 21 13z m-44 -38 c4 -7 4 -10
-1 -6 -4 4 -15 2 -24 -5 -14 -11 -14 -10 -2 6 16 20 18 21 27 5z m-2032 -346
c14 -30 16 -48 10 -63 -8 -18 -17 -2 -53 98 -24 65 -46 125 -48 133 -6 20 67
-113 91 -168z m-2634 -7 c105 -86 124 -98 223 -140 97 -42 111 -57 205 -215
27 -47 73 -107 101 -133 40 -38 51 -55 51 -79 l0 -31 -57 61 c-42 43 -70 64
-100 73 -36 10 -40 14 -27 24 15 10 15 14 -1 46 -10 19 -44 73 -76 120 -52 78
-63 88 -112 108 -30 12 -87 31 -127 41 -53 14 -82 28 -107 52 -43 41 -89 106
-109 155 l-16 37 39 -29 c21 -16 72 -56 113 -90z m606 -290 c49 -9 121 -25
159 -35 39 -11 88 -22 110 -26 34 -6 23 -9 -75 -20 -63 -7 -144 -21 -180 -33
l-65 -20 -27 26 c-33 31 -35 43 -9 43 11 0 23 5 26 10 6 9 -9 14 -41 13 -6 0
-16 13 -21 28 -10 27 -9 29 12 29 12 0 62 -7 111 -15z m3984 2 c0 -2 -10 -12
-22 -23 l-23 -19 19 23 c18 21 26 27 26 19z m-60 -51 c0 -2 -8 -10 -17 -17
-16 -13 -17 -12 -4 4 13 16 21 21 21 13z m-40 -30 c0 -2 -8 -10 -17 -17 -16
-13 -17 -12 -4 4 13 16 21 21 21 13z m-4423 -110 c65 -40 141 -85 170 -100 38
-19 66 -44 103 -93 54 -71 64 -94 58 -138 -3 -27 -6 -24 -97 61 l-94 88 33
-57 c17 -31 27 -57 22 -57 -5 0 -13 7 -16 16 -4 9 -9 14 -12 11 -3 -3 8 -26
26 -51 30 -45 65 -116 56 -116 -2 0 -33 37 -69 83 -36 45 -79 96 -97 112 -17
17 -39 43 -47 60 -9 16 -33 52 -54 80 -36 48 -112 175 -104 175 2 0 56 -33
122 -74z m1564 18 c28 -14 49 -27 47 -30 -9 -8 -118 21 -118 31 0 11 9 25 17
25 2 0 26 -12 54 -26z m450 -32 c-11 -16 -38 -66 -60 -111 l-39 -81 -11 50
c-18 83 -17 85 57 133 37 24 69 43 71 41 2 -2 -6 -16 -18 -32z m616 -44 c0
-24 4 -81 6 -128 5 -69 4 -74 -2 -25 -5 33 -15 83 -23 111 -11 34 -13 56 -6
67 15 28 23 20 25 -25z m2138 12 c-13 -22 -99 -63 -168 -80 -66 -17 -76 -23
-117 -72 -25 -29 -79 -89 -120 -133 -41 -44 -106 -116 -144 -158 -50 -57 -73
-76 -86 -72 -10 3 -20 0 -23 -9 -3 -8 -31 -33 -61 -56 -45 -33 -56 -46 -56
-69 0 -20 -8 -34 -27 -46 l-26 -18 6 65 c8 91 20 110 93 151 49 29 99 75 219
205 154 168 212 222 258 243 21 10 211 54 245 58 7 0 10 -3 7 -9z m-4338 -71
c34 -11 113 -98 113 -124 0 -7 -14 -15 -30 -19 -27 -5 -30 -9 -24 -31 10 -42
-22 -20 -65 44 -43 62 -69 87 -122 120 -71 42 -67 50 18 35 42 -8 92 -19 110
-25z m3687 20 c6 -5 1 -18 -12 -32 -12 -13 -19 -27 -15 -30 3 -4 -1 -7 -10 -7
-9 0 -17 -6 -18 -12 -3 -36 -7 -77 -12 -115 -5 -41 -4 -43 21 -44 23 -1 21 -3
-8 -8 -26 -4 -35 -11 -35 -26 0 -11 -4 -23 -9 -27 -9 -6 28 -15 88 -20 l29 -3
-28 -33 c-31 -37 -84 -68 -94 -55 -3 4 -23 8 -43 8 -31 0 -38 -3 -38 -20 0
-18 -2 -18 -20 5 -17 21 -21 23 -30 10 -5 -8 -10 -22 -10 -30 0 -9 -6 -5 -17
10 l-17 24 -7 -24 c-4 -14 -7 -47 -8 -73 l-1 -48 -29 17 c-16 10 -34 27 -40
38 -9 19 -10 17 -10 -12 -1 -26 7 -41 34 -65 32 -28 52 -63 23 -39 -12 9 -70
26 -92 27 -20 0 -15 -44 6 -59 12 -9 18 -19 14 -23 -4 -5 -15 1 -24 12 -10 12
-25 19 -36 17 -19 -4 -19 -3 -3 22 26 40 20 53 -11 23 -15 -15 -31 -27 -35
-27 -5 0 12 26 103 152 14 21 14 21 -20 3 -19 -10 -43 -24 -52 -33 -56 -48 17
63 214 328 121 163 131 175 163 183 25 6 77 -2 89 -14z m96 -53 c0 -2 -8 -10
-17 -17 -16 -13 -17 -12 -4 4 13 16 21 21 21 13z m-3503 -158 c14 -15 31 -60
47 -131 29 -123 33 -165 8 -95 -25 70 -35 71 -29 3 l5 -60 -43 42 c-40 37 -43
44 -38 80 3 24 -4 69 -21 127 -14 48 -26 90 -26 92 0 10 77 -36 97 -58z m1306
-115 c21 -22 26 -33 16 -33 -18 0 -78 62 -107 111 -36 60 -25 64 19 7 23 -29
56 -68 72 -85z m2375 89 c-100 -134 -141 -185 -195 -238 -34 -34 -63 -59 -63
-55 0 4 16 23 36 42 20 18 76 87 125 152 49 64 94 117 100 117 6 0 5 -7 -3
-18z m-258 -68 c0 -2 -9 -4 -20 -4 -11 0 -20 4 -20 9 0 5 9 7 20 4 11 -3 20
-7 20 -9z m252 -30 c-6 -39 -9 -46 -36 -69 -15 -13 -22 -25 -17 -27 15 -5 -9
-30 -63 -67 l-49 -32 37 48 c20 26 53 76 74 110 36 60 60 77 54 37z m-2427
-74 c33 -35 23 -41 -13 -7 -22 20 -24 20 -14 2 21 -41 53 -65 84 -65 25 0 29
-3 20 -12 -9 -9 -23 -9 -59 -1 -26 6 -50 9 -52 7 -11 -11 29 -35 70 -43 24 -5
34 -9 21 -10 -36 -2 -112 -23 -112 -31 0 -4 35 -6 78 -4 63 2 68 1 27 -5 -52
-7 -95 -25 -95 -40 0 -5 20 -2 45 6 42 14 46 14 80 -7 29 -18 35 -28 35 -55 0
-72 -51 -165 -91 -165 -68 0 -109 68 -109 181 0 64 12 184 26 257 6 30 25 28
59 -8z m2428 -54 c15 7 -28 -30 -68 -58 -26 -19 -25 -16 10 23 22 24 42 41 43
36 2 -4 9 -4 15 -1z m57 -46 c-32 -40 -67 -70 -41 -34 21 27 64 74 69 74 2 0
-11 -18 -28 -40z m-1973 -276 c-4 -4 -16 -12 -29 -18 -12 -6 -23 -16 -25 -23
-3 -8 6 -7 27 3 39 20 50 13 15 -10 -32 -21 -24 -39 11 -26 40 16 41 12 4 -20
l-35 -31 34 17 c49 24 125 15 158 -19 l26 -25 -44 -12 c-24 -6 -61 -25 -82
-42 -48 -38 -71 -33 -136 30 -70 68 -73 90 -19 141 30 28 52 41 72 41 16 0 26
-3 23 -6z m-511 -75 c3 -6 -5 -3 -20 6 -14 10 -26 19 -26 22 0 7 39 -17 46
-28z m636 -194 c77 0 114 -3 107 -10 -5 -5 -56 -10 -112 -10 -105 0 -145 12
-177 50 -9 11 -1 9 26 -7 35 -21 51 -23 156 -23z"/>
<path d="M2600 4670 c0 -6 17 -10 37 -10 43 0 41 5 -4 13 -19 4 -33 2 -33 -3z"/>
<path d="M2770 4526 c0 -2 14 -6 30 -8 17 -3 30 -1 30 4 0 4 -13 8 -30 8 -16
0 -30 -2 -30 -4z"/>
<path d="M2500 4480 c0 -5 7 -7 15 -4 8 4 15 8 15 10 0 2 -7 4 -15 4 -8 0 -15
-4 -15 -10z"/>
<path d="M2517 4463 c-4 -3 -7 -19 -7 -34 0 -29 43 -70 58 -54 4 4 2 10 -4 12
-6 2 -9 15 -6 28 3 20 1 24 -11 19 -9 -3 -18 -13 -20 -22 -3 -10 -5 -5 -6 11
-1 21 4 27 20 27 11 0 17 5 14 10 -7 11 -28 13 -38 3z"/>
<path d="M2563 4295 c0 -22 2 -30 4 -17 2 12 2 30 0 40 -3 9 -5 -1 -4 -23z"/>
<path d="M2783 4453 c-18 -6 -16 -23 1 -23 17 0 30 16 19 23 -5 2 -14 2 -20 0z"/>
<path d="M3365 2800 c21 -22 44 -40 49 -40 6 0 -8 18 -29 40 -21 22 -44 40
-49 40 -6 0 8 -18 29 -40z"/>
<path d="M2702 3165 c2 -14 8 -26 13 -26 6 0 11 12 13 26 2 18 -1 25 -13 25
-12 0 -15 -7 -13 -25z"/>
<path d="M2707 2993 c-10 -10 -8 -53 2 -53 10 0 21 24 21 46 0 15 -12 19 -23
7z"/>
<path d="M2397 2346 c-65 -27 -74 -33 -64 -43 7 -6 127 37 157 57 31 20 -34
10 -93 -14z"/>
<path d="M1763 2440 c0 -25 2 -35 4 -22 2 12 2 32 0 45 -2 12 -4 2 -4 -23z"/>
<path d="M4275 980 c-3 -6 1 -7 9 -4 18 7 21 14 7 14 -6 0 -13 -4 -16 -10z"/>
<path d="M5050 3782 c-46 -48 -68 -62 -135 -86 -61 -22 -89 -39 -120 -71 -40
-42 -41 -43 -77 -30 -20 7 -68 35 -106 64 -38 28 -79 51 -91 51 -23 0 -222
-75 -283 -106 -18 -9 -70 -53 -115 -97 -74 -72 -84 -79 -100 -66 -16 13 -17
12 -5 -2 10 -14 7 -20 -20 -41 -18 -13 -46 -32 -63 -42 -16 -11 -64 -54 -105
-96 -41 -42 -124 -114 -183 -160 -59 -45 -106 -85 -103 -87 9 -10 256 178 303
231 26 30 84 81 128 113 44 33 114 91 156 130 98 91 105 95 256 158 140 58
131 58 209 -2 27 -20 71 -49 97 -63 54 -30 54 -32 -30 -78 -48 -26 -70 -48
-158 -161 -22 -28 -55 -58 -75 -67 -85 -40 -119 -73 -155 -149 -34 -69 -39
-75 -78 -86 -58 -15 -116 -46 -152 -79 -34 -31 -69 -44 -169 -61 -84 -14 -316
-116 -316 -139 0 -5 61 20 136 56 79 37 149 64 168 64 58 0 144 29 194 65 47
33 88 54 142 70 23 7 24 7 10 -11 -10 -12 -4 -10 17 6 18 14 43 51 58 85 34
78 67 111 138 144 50 22 70 40 130 116 53 66 84 96 118 112 31 15 64 45 103
92 59 74 77 87 173 122 59 23 173 118 173 146 0 23 -13 14 -70 -45z"/>
<path d="M2026 3749 c-9 -48 -7 -127 4 -134 6 -4 10 25 10 79 0 47 -2 86 -4
86 -2 0 -6 -14 -10 -31z"/>
<path d="M3911 3527 c2 -1 13 -9 24 -17 19 -14 19 -14 6 3 -7 9 -18 17 -24 17
-6 0 -8 -1 -6 -3z"/>
<path d="M3848 3489 c-14 -11 -52 -35 -84 -54 -32 -19 -54 -35 -48 -35 14 0
105 55 139 84 36 30 31 34 -7 5z"/>
<path d="M4867 3383 c-30 -74 -28 -101 1 -32 19 46 35 99 29 99 -2 0 -16 -30
-30 -67z"/>
<path d="M1868 3285 c-42 -15 -88 -44 -88 -55 0 -4 24 1 53 11 28 10 73 18 99
19 52 0 98 14 98 30 0 15 -118 11 -162 -5z"/>
<path d="M3890 3255 c-13 -14 -21 -27 -18 -30 2 -3 17 9 33 25 16 17 24 30 19
30 -6 0 -21 -11 -34 -25z"/>
<path d="M547 3069 c7 -7 15 -10 18 -7 3 3 -2 9 -12 12 -14 6 -15 5 -6 -5z"/>
<path d="M5074 3034 c-41 -55 -51 -64 -68 -64 -8 0 -18 -5 -21 -10 -4 -6 -30
-25 -58 -43 -91 -59 -86 -72 6 -16 93 57 182 139 175 160 -2 7 -16 -3 -34 -27z"/>
<path d="M4179 2963 c-13 -16 -12 -17 4 -4 16 13 21 21 13 21 -2 0 -10 -8 -17
-17z"/>
<path d="M4119 2913 l-24 -27 33 23 c32 23 39 31 24 31 -5 0 -19 -12 -33 -27z"/>
<path d="M1740 2828 c-72 -48 -106 -94 -87 -117 10 -12 13 -11 16 5 6 33 32
63 93 109 75 57 61 59 -22 3z"/>
<path d="M5001 2787 c-123 -67 -199 -133 -242 -208 -19 -33 -48 -61 -99 -95
-117 -79 -126 -89 -160 -172 -40 -96 -66 -131 -138 -184 -157 -116 -205 -154
-223 -180 -12 -16 -30 -28 -42 -28 -24 0 -123 -55 -195 -108 -24 -17 -69 -38
-100 -47 -60 -18 -136 -61 -168 -96 -12 -13 6 -5 46 19 36 22 92 48 125 57 33
10 96 41 140 70 44 29 99 62 123 74 l43 22 -18 -27 c-16 -26 -174 -171 -239
-221 -18 -13 -72 -38 -120 -55 -79 -27 -96 -30 -159 -24 -198 19 -193 19 -257
-4 -48 -17 -72 -21 -112 -16 -113 15 -166 18 -191 12 -46 -12 -26 -21 48 -21
39 -1 81 -5 92 -9 31 -13 94 -7 165 16 59 19 72 20 146 10 132 -20 194 -16
285 18 105 38 205 114 310 234 129 148 149 168 263 246 128 87 149 112 196
222 35 82 37 84 119 140 109 75 123 88 161 159 38 71 76 102 218 172 72 36
102 57 102 69 0 10 -1 18 -2 18 -2 0 -54 -28 -117 -63z"/>
<path d="M860 2752 c57 -102 80 -138 80 -129 0 18 -80 164 -100 182 -15 14
-10 -2 20 -53z"/>
<path d="M3180 2750 l-65 -60 75 35 c41 19 77 40 79 46 2 7 -5 7 -20 -2 l-23
-12 17 27 c27 41 7 30 -63 -34z"/>
<path d="M1220 2737 c-31 -7 -38 -12 -24 -14 12 -2 37 3 55 11 40 17 31 18
-31 3z"/>
<path d="M4565 2676 c-76 -58 -141 -125 -166 -173 -22 -40 -133 -93 -196 -93
-25 0 -59 -7 -77 -15 -17 -8 -79 -68 -138 -134 -70 -78 -134 -138 -189 -177
-46 -32 -123 -93 -170 -134 -47 -42 -99 -86 -115 -99 -19 -15 -22 -19 -7 -11
12 5 71 49 130 97 59 47 142 110 184 139 47 33 116 98 178 166 55 62 109 118
119 125 16 10 72 17 109 14 7 -1 -5 -35 -29 -83 -31 -64 -57 -99 -112 -152
-74 -72 -67 -75 19 -9 38 30 61 59 97 128 26 50 48 97 48 105 1 15 83 60 109
60 11 0 11 -3 0 -17 -12 -16 -12 -17 2 -6 8 7 33 45 54 84 32 57 59 88 132
151 81 70 101 89 91 88 -2 0 -34 -24 -73 -54z"/>
<path d="M848 2645 c12 -21 94 -114 160 -184 l64 -66 -37 72 c-20 39 -43 74
-51 77 -9 4 -12 2 -8 -5 4 -6 -1 -6 -13 1 -10 7 -26 28 -36 48 -11 22 -32 43
-52 53 -22 10 -32 12 -27 4z"/>
<path d="M4468 2533 c-22 -26 -30 -43 -21 -43 4 0 16 14 25 30 19 34 18 38 -4
13z"/>
<path d="M4639 2393 c-13 -16 -12 -17 4 -4 16 13 21 21 13 21 -2 0 -10 -8 -17
-17z"/>
<path d="M3448 2103 c7 -3 16 -2 19 1 4 3 -2 6 -13 5 -11 0 -14 -3 -6 -6z"/>
<path d="M3405 2090 c-3 -6 1 -7 9 -4 18 7 21 14 7 14 -6 0 -13 -4 -16 -10z"/>
<path d="M4204 1744 c-156 -157 -180 -186 -131 -151 77 53 219 193 281 275 27
35 47 65 45 67 -2 2 -90 -84 -195 -191z"/>
<path d="M4750 1834 c-25 -14 -47 -30 -48 -35 -2 -5 -7 -7 -11 -4 -10 5 -61
-86 -61 -109 0 -9 6 -13 14 -10 18 7 171 184 159 184 -4 0 -28 -12 -53 -26z"/>
<path d="M4609 1688 c-5 -9 -5 -48 -1 -43 6 6 11 45 5 45 -2 0 -4 -1 -4 -2z"/>
<path d="M1572 1528 c-142 -18 -222 -64 -222 -130 0 -44 21 -76 97 -149 62
-59 192 -159 207 -159 20 0 -2 24 -61 66 -91 63 -200 171 -213 210 -12 34 -2
71 23 92 27 23 130 52 208 58 69 6 79 5 79 -10 0 -12 -11 -16 -47 -17 -43 -1
-45 -2 -18 -9 65 -16 75 -13 75 25 0 40 2 40 -128 23z"/>
<path d="M3075 1509 c-5 -7 5 -8 32 -3 51 9 54 14 10 14 -20 0 -39 -5 -42 -11z"/>
<path d="M1280 1499 c-74 -9 -193 -39 -186 -46 8 -8 266 39 266 48 0 5 -3 8
-7 8 -5 -1 -37 -5 -73 -10z"/>
<path d="M4399 1443 c-13 -16 -12 -17 4 -4 9 7 17 15 17 17 0 8 -8 3 -21 -13z"/>
<path d="M1420 1401 c0 -13 41 -37 73 -43 15 -3 27 -4 27 -3 0 1 -18 14 -40
29 -41 27 -60 32 -60 17z"/>
<path d="M2470 1291 c0 -12 87 -44 100 -36 20 12 9 23 -34 34 -54 13 -66 14
-66 2z"/>
<path d="M1620 1286 c0 -2 11 -11 25 -20 14 -9 25 -13 25 -8 0 5 -11 14 -25
20 -14 6 -25 10 -25 8z"/>
<path d="M1980 1200 c90 -46 137 -63 114 -40 -10 10 -191 90 -202 89 -4 0 36
-22 88 -49z"/>
<path d="M1260 1174 c110 -35 210 -63 210 -58 0 2 -17 15 -38 29 -37 24 -93
38 -197 48 -49 5 -49 5 25 -19z"/>
<path d="M1753 1193 c8 -12 113 -82 191 -127 64 -37 50 -16 -22 33 -76 51
-177 108 -169 94z"/>
<path d="M2489 1165 c29 -14 59 -24 65 -22 13 5 -55 35 -93 42 -14 3 -2 -6 28
-20z"/>
<path d="M3060 1111 c13 -11 29 -17 34 -14 5 3 -2 12 -15 19 -36 20 -48 16
-19 -5z"/>
<path d="M1590 1032 c30 -27 57 -45 59 -40 4 11 -36 46 -84 74 -19 11 -11 -1
25 -34z"/>
<path d="M1730 1066 c24 -30 220 -156 220 -142 0 6 -174 127 -210 146 -23 12
-24 12 -10 -4z"/>
<path d="M2470 1035 c0 -2 14 -11 30 -20 25 -13 30 -13 30 -1 0 7 -10 16 -22
20 -28 7 -38 7 -38 1z"/>
<path d="M2390 976 c0 -6 117 -96 125 -96 15 0 -15 32 -60 65 -46 33 -65 41
-65 31z"/>
<path d="M1716 917 c6 -16 64 -61 64 -50 0 4 -16 20 -35 36 -19 15 -32 21 -29
14z"/>
<path d="M1790 917 c0 -24 158 -196 264 -287 l29 -25 -16 30 c-16 31 -277 296
-277 282z"/>
<path d="M1432 859 c-35 -13 -19 -26 66 -52 152 -48 162 -45 50 13 -31 16 -59
34 -63 40 -7 12 -22 12 -53 -1z"/>
<path d="M3480 770 c0 -5 9 -10 21 -10 11 0 17 5 14 10 -3 6 -13 10 -21 10 -8
0 -14 -4 -14 -10z"/>
<path d="M2915 744 c32 -25 417 -254 428 -254 34 0 -341 232 -421 261 -26 9
-26 8 -7 -7z"/>
<path d="M3241 686 c6 -6 342 -57 346 -52 6 6 -81 25 -192 41 -98 15 -162 19
-154 11z"/>
<path d="M173 630 c-36 -15 -29 -50 20 -97 51 -51 81 -63 155 -63 l57 0 -30
21 c-17 12 -50 49 -75 83 -48 64 -76 77 -127 56z"/>
<path d="M990 595 c-8 -2 -42 -7 -75 -11 -73 -8 -70 -9 80 -29 66 -8 156 -24
200 -34 44 -11 81 -18 83 -16 6 5 -81 53 -123 68 -42 15 -139 28 -165 22z"/>
<path d="M3506 591 c-8 -13 71 -34 157 -40 87 -7 97 4 26 31 -46 18 -174 24
-183 9z"/>
<path d="M4358 590 c-38 -4 -70 -9 -73 -12 -3 -3 61 -8 142 -11 81 -3 181 -12
222 -21 41 -9 76 -15 78 -12 6 5 -143 44 -197 51 -87 11 -106 12 -172 5z"/>
<path d="M825 399 c-91 -53 -103 -64 -130 -124 -12 -27 -47 -80 -78 -117 -32
-36 -57 -69 -57 -71 0 -2 18 -7 41 -11 27 -4 39 -11 36 -19 -3 -7 3 -22 12
-34 15 -18 29 -21 125 -22 77 -2 122 3 159 14 65 21 279 124 330 159 21 14 43
26 49 26 5 0 7 7 4 16 -3 8 -15 52 -27 97 -11 44 -27 92 -34 106 -14 25 -14
25 -16 -24 0 -27 -4 -60 -7 -73 -7 -22 -8 -21 -39 18 -36 47 -89 90 -112 90
-11 0 -9 -5 7 -15 12 -9 36 -37 54 -63 17 -26 25 -41 16 -34 -11 9 -18 10 -23
2 -3 -6 -11 -8 -16 -5 -5 4 -9 -1 -9 -9 0 -18 64 -61 126 -84 24 -9 44 -19 44
-22 0 -3 -28 -13 -62 -23 -35 -10 -107 -35 -160 -56 -54 -22 -98 -37 -98 -35
0 1 30 23 68 48 37 24 78 54 92 65 24 20 24 21 4 21 -32 0 -187 -47 -267 -81
-38 -16 -71 -28 -73 -26 -2 2 36 24 84 50 81 43 85 47 52 47 -19 0 -50 -4 -69
-10 l-34 -10 29 31 c16 17 46 40 67 51 22 11 37 25 34 32 -3 6 -13 40 -22 74
-10 34 -20 62 -24 62 -3 0 -38 -18 -76 -41z"/>
<path d="M3510 407 c0 -3 59 -46 131 -97 71 -51 191 -142 265 -202 140 -112
206 -146 93 -46 -146 127 -489 370 -489 345z"/>
<path d="M4420 400 c34 -11 60 -11 35 0 -11 5 -29 8 -40 8 -16 0 -15 -2 5 -8z"/>
<path d="M4557 354 c-4 -4 58 -46 138 -94 161 -99 347 -223 365 -245 7 -8 23
-15 36 -15 21 0 24 5 24 34 0 31 -6 38 -82 88 -105 70 -202 119 -353 179 -66
27 -110 48 -98 49 12 0 81 -14 153 -30 184 -43 322 -71 327 -66 7 6 -169 65
-257 86 -81 19 -239 27 -253 14z"/>
<path d="M3945 290 c-35 -5 -10 -7 80 -7 72 0 144 3 160 7 38 10 -170 10 -240
0z"/>
<path d="M4173 228 c-58 -19 -36 -28 69 -28 93 0 101 1 87 16 -20 19 -113 27
-156 12z"/>
<path d="M2500 73 c0 -4 10 -22 23 -40 19 -28 28 -33 61 -33 22 0 37 2 35 4
-20 16 -119 74 -119 69z"/>
</g>
</svg>