<?xml version="1.0" standalone="no"?>
<!DOCTYPE svg PUBLIC "-//W3C//DTD SVG 20010904//EN"
 "http://www.w3.org/TR/2001/REC-SVG-20010904/DTD/svg10.dtd">
<svg version="1.0" xmlns="http://www.w3.org/2000/svg"
 width="512.000000pt" height="512.000000pt" viewBox="0 0 512.000000 512.000000"
 preserveAspectRatio="xMidYMid meet">
<metadata>
Created by potrace 1.16, written by Peter Selinger 2001-2019
</metadata>
<g transform="translate(0.000000,512.000000) scale(0.100000,-0.100000)"
fill="#000000" stroke="none">
<path d="M4895 5113 c-56 -7 -73 -13 -102 -36 -19 -17 -47 -26 -88 -31 -42 -5
-83 -19 -140 -50 l-81 -43 -30 24 c-97 80 -196 80 -329 -1 -70 -42 -71 -43
-110 -29 -51 18 -152 12 -193 -12 -25 -15 -35 -16 -62 -6 -50 17 -121 13 -165
-9 -28 -14 -75 -23 -165 -30 -184 -15 -272 -42 -324 -99 -13 -15 -26 -18 -47
-14 -45 9 -126 -16 -158 -48 -19 -19 -48 -33 -80 -40 -28 -6 -57 -16 -64 -23
-20 -19 -115 -55 -207 -76 -57 -14 -102 -32 -135 -55 -42 -29 -66 -36 -155
-49 -150 -23 -332 -58 -326 -63 2 -3 58 4 123 16 65 11 164 27 219 35 68 10
126 25 175 47 80 35 178 50 429 68 l135 10 -160 -5 c-88 -2 -191 -9 -229 -14
-82 -12 -98 -6 -27 9 28 6 77 22 109 35 32 14 90 30 128 37 49 8 63 14 49 19
-28 10 82 28 217 36 97 6 107 9 116 29 13 28 55 38 232 57 69 7 110 14 92 16
-44 4 -289 -26 -312 -38 -10 -6 -21 -18 -25 -28 -5 -16 -20 -20 -118 -25 -61
-4 -130 -10 -151 -13 -30 -6 -37 -4 -31 5 13 23 73 41 130 41 49 0 62 4 98 33
23 19 61 41 84 50 49 19 181 37 272 37 47 0 72 5 97 20 46 29 120 36 168 16
37 -15 40 -15 74 6 45 27 147 30 205 5 34 -15 44 -15 90 -2 29 7 42 14 30 14
-12 1 -34 -4 -49 -9 -49 -19 -35 -4 37 39 113 68 209 69 293 5 l46 -35 91 45
c76 38 100 46 148 46 46 0 59 4 69 21 19 29 73 49 136 49 30 0 58 5 61 10 6
10 -27 11 -90 3z m-2048 -439 c-3 -3 -12 -4 -19 -1 -8 3 -5 6 6 6 11 1 17 -2
13 -5z m-357 -121 c-8 -3 -27 -12 -42 -20 -16 -7 -28 -11 -28 -9 0 9 54 35 70
35 13 -1 13 -1 0 -6z"/>
<path d="M5090 5036 c-30 -29 -126 -47 -282 -55 -153 -8 -158 -9 -245 -49 -48
-22 -104 -43 -124 -46 -21 -4 -42 -13 -49 -21 -7 -8 -24 -15 -39 -15 -14 0
-42 -10 -61 -23 -20 -14 -66 -29 -110 -36 -41 -7 -115 -24 -165 -36 -49 -13
-160 -31 -245 -40 -306 -31 -416 -53 -465 -89 -20 -15 -51 -25 -92 -29 -34 -4
-92 -18 -129 -32 -96 -36 -268 -119 -256 -123 6 -2 50 17 99 41 112 56 223 95
299 103 35 4 67 14 79 25 11 10 33 23 50 29 70 27 519 80 875 104 30 2 -8 3
-85 2 l-140 -2 130 26 c79 16 144 34 165 48 19 12 47 22 61 22 15 0 32 6 38
14 6 7 28 16 49 20 20 3 69 21 108 40 92 44 152 56 277 56 124 0 287 41 287
72 0 12 -14 10 -30 -6z"/>
<path d="M4778 4923 c-9 -10 -23 -33 -32 -51 -9 -18 -39 -67 -66 -109 -28 -41
-50 -81 -50 -88 0 -15 -109 -69 -172 -86 -26 -6 -53 -18 -60 -27 -7 -8 -29
-58 -49 -111 -35 -94 -37 -96 -70 -99 -45 -4 -86 -20 -93 -37 -3 -8 -23 -23
-45 -34 -22 -12 -42 -25 -46 -31 -11 -17 78 28 94 48 29 35 91 55 105 33 3 -4
1 -23 -5 -42 -5 -19 -26 -97 -45 -174 -19 -76 -39 -145 -42 -152 -6 -10 -14
-8 -38 6 -27 16 -32 26 -37 72 -3 30 -15 84 -27 120 -18 54 -25 66 -40 62 -13
-3 -23 4 -33 24 -9 16 -27 34 -41 41 -17 7 -29 23 -32 42 -7 30 -16 41 -96
111 -28 24 -54 39 -62 36 -9 -4 -32 -39 -52 -79 -20 -40 -59 -97 -85 -126 -27
-30 -49 -59 -49 -65 0 -7 -12 -34 -25 -62 -14 -27 -25 -60 -25 -73 0 -13 -8
-25 -17 -28 -10 -3 -37 -15 -60 -27 -35 -18 -46 -19 -68 -9 -14 7 -35 12 -45
12 -11 0 -46 18 -77 40 -76 53 -126 52 -182 -1 -17 -16 -34 -22 -53 -20 -62 6
-145 -48 -163 -107 l-7 -23 -29 25 c-43 36 -82 42 -131 17 -38 -18 -43 -19
-70 -5 -16 8 -38 12 -49 9 -14 -5 -28 0 -45 15 -36 35 -109 38 -154 8 -34 -22
-110 -31 -127 -14 -3 3 -25 6 -48 6 -45 0 -103 -20 -146 -51 -20 -14 -49 -19
-130 -22 -57 -1 242 -4 665 -5 l768 -2 -7 -27 c-10 -42 -20 -48 -63 -35 -53
16 -83 15 -110 -4 -19 -13 -28 -13 -58 -4 -72 24 -161 -5 -179 -59 -8 -25 -68
-49 -96 -39 -13 5 -33 5 -48 -1 -15 -5 -51 -13 -81 -17 -62 -7 -105 -26 -113
-49 -5 -11 -23 -15 -74 -16 -47 0 -62 -3 -48 -9 19 -8 723 -14 714 -6 -4 3
-416 16 -526 16 -29 0 -53 4 -53 10 0 19 60 40 114 40 30 0 58 5 61 10 8 13
62 13 70 -1 5 -7 13 -4 26 7 11 9 42 18 74 21 48 4 60 2 80 -17 l23 -22 25 40
c14 21 40 49 59 60 18 12 40 27 49 33 18 13 76 6 102 -14 14 -10 15 -18 7 -47
-5 -19 -10 -56 -10 -82 0 -47 0 -47 -37 -51 l-38 -4 39 -1 38 -2 -7 -47 c-4
-33 -16 -58 -36 -78 -21 -22 -33 -51 -45 -105 -9 -41 -20 -79 -24 -84 -12 -12
-58 65 -69 115 -5 23 -7 58 -4 78 4 35 4 35 -12 16 -27 -32 -55 -97 -55 -130
0 -16 6 -50 13 -75 17 -61 12 -90 -17 -90 -12 0 -33 -11 -46 -25 -20 -21 -23
-36 -24 -97 l-1 -73 -50 3 c-27 2 -51 5 -53 6 -1 2 5 22 13 46 22 61 20 74
-27 168 -38 77 -43 82 -49 59 -4 -15 0 -56 8 -93 15 -65 15 -69 -7 -123 -13
-31 -26 -59 -29 -63 -9 -11 -166 67 -236 117 -35 25 -66 45 -70 45 -3 0 -40
-20 -83 -43 -42 -24 -114 -63 -160 -87 l-83 -43 -41 19 c-23 10 -98 53 -166
96 l-124 76 -62 -28 c-34 -15 -98 -53 -142 -85 -104 -75 -153 -100 -167 -86
-6 6 -17 11 -23 11 -7 0 -32 20 -56 45 -42 45 -44 45 -82 34 -21 -6 -49 -8
-61 -5 -13 3 -66 46 -119 96 -52 49 -99 90 -103 90 -15 0 -168 -62 -187 -76
-30 -21 -48 -8 -126 91 -50 64 -83 85 -135 85 -34 0 -37 3 -62 58 -30 65 -97
171 -140 221 -28 32 -32 34 -59 23 -16 -6 -53 -12 -83 -14 -60 -2 -71 7 -117
96 -36 69 -95 156 -106 156 -13 0 -22 -31 -11 -39 6 -3 13 -33 16 -66 3 -33
13 -123 21 -200 16 -143 20 -212 12 -204 -4 4 -29 113 -50 219 -3 14 -3 -18
-1 -70 4 -101 20 -162 60 -222 14 -21 25 -52 25 -69 0 -75 53 -231 101 -301
26 -36 25 -66 -4 -70 -21 -3 -22 -7 -19 -67 2 -35 9 -82 17 -105 17 -47 19
-86 6 -86 -6 0 -22 16 -36 34 -26 34 -26 38 -21 135 5 104 -10 199 -38 231 -8
8 -25 37 -40 65 -30 58 -35 47 -6 -16 11 -24 19 -55 19 -69 0 -21 -4 -17 -24
22 -24 44 -45 69 -45 51 0 -5 9 -26 20 -48 25 -50 25 -102 0 -139 -18 -28 -19
-50 -20 -301 0 -260 1 -272 20 -290 11 -10 22 -16 25 -13 3 3 1 33 -4 68 -5
40 -4 78 2 100 5 20 6 78 2 140 l-7 104 82 -159 c72 -140 82 -168 92 -240 12
-92 17 -102 76 -139 23 -15 52 -41 62 -59 19 -30 27 -57 14 -44 -4 3 -22 0
-40 -8 -32 -13 -35 -13 -45 8 -7 12 -31 47 -55 77 -24 30 -50 71 -58 90 -9 20
-15 27 -16 17 0 -24 26 -73 65 -122 18 -22 38 -51 45 -64 11 -22 10 -27 -10
-43 -12 -10 -25 -18 -29 -18 -3 0 -17 19 -31 42 -14 22 -47 59 -74 82 -27 22
-64 63 -82 91 -31 46 -34 48 -34 23 0 -15 5 -48 12 -73 10 -37 10 -50 -1 -67
-12 -19 -11 -20 7 -16 15 4 26 -5 47 -38 34 -54 47 -49 16 6 -30 54 -9 51 29
-5 19 -27 39 -45 50 -45 29 0 24 -15 -10 -40 l-31 -22 -37 24 c-66 44 -82 51
-82 34 0 -8 44 -47 97 -86 54 -40 144 -121 201 -181 77 -81 125 -121 188 -160
57 -34 95 -65 117 -95 18 -25 47 -65 64 -90 18 -24 30 -44 27 -44 -3 0 -33 20
-67 44 -34 24 -111 69 -172 99 -94 48 -116 64 -153 112 -24 30 -41 55 -37 55
3 0 38 -24 78 -54 77 -58 196 -130 202 -124 3 2 -26 22 -63 43 -37 21 -94 60
-127 85 -33 26 -77 57 -97 69 -21 12 -65 53 -99 89 -34 37 -56 56 -49 43 7
-13 38 -52 69 -86 31 -34 83 -93 117 -131 49 -55 79 -78 152 -117 51 -27 114
-66 140 -87 27 -21 83 -53 125 -70 42 -17 95 -44 118 -60 43 -29 169 -148 169
-160 0 -21 -63 10 -115 58 -61 55 -138 112 -151 112 -4 0 22 -22 57 -49 35
-27 82 -65 104 -84 39 -36 40 -36 14 -37 -15 0 -32 7 -39 15 -6 8 -37 31 -68
52 -32 20 -96 74 -144 120 -50 48 -95 83 -107 83 -20 0 -20 0 2 -36 12 -20 49
-65 81 -100 33 -35 56 -64 52 -64 -3 0 -23 11 -44 24 -20 13 -62 36 -92 51
-30 15 -91 51 -135 81 -54 35 -128 71 -225 107 -191 72 -193 73 -188 52 2 -11
40 -30 108 -56 58 -22 128 -49 156 -60 28 -10 91 -45 141 -77 49 -31 131 -79
182 -107 57 -31 117 -73 155 -109 33 -32 111 -96 171 -141 177 -133 203 -167
83 -110 -40 19 -78 35 -85 35 -29 0 -111 34 -153 64 -55 39 -140 89 -140 82 0
-3 39 -31 88 -62 55 -37 121 -70 177 -89 91 -31 185 -79 185 -94 0 -5 -25 -11
-56 -15 -56 -6 -56 -6 -107 40 -51 46 -98 80 -169 123 -55 33 -46 19 15 -25
28 -21 81 -63 116 -93 61 -53 63 -56 40 -62 -44 -12 -109 -9 -140 7 -28 14
-89 99 -163 228 -27 46 -35 51 -190 127 -88 43 -215 108 -281 143 -114 63
-163 83 -120 50 26 -19 233 -130 410 -219 l140 -70 70 -117 c39 -64 79 -126
90 -138 l20 -22 -85 7 c-136 11 -202 29 -225 62 -11 15 -40 49 -65 76 -43 46
-51 50 -140 71 l-95 23 -68 88 c-79 102 -90 87 -15 -21 40 -59 48 -77 39 -87
-10 -9 -17 -7 -32 12 -21 26 -25 21 -8 -12 6 -13 -2 -7 -20 13 l-30 35 -1 -28
c0 -15 8 -40 17 -54 17 -26 17 -27 0 -20 -15 6 -17 -3 -17 -98 l0 -105 63 0
c86 0 140 -21 216 -83 60 -48 120 -132 105 -146 -4 -3 -9 -1 -11 6 -14 39 -56
81 -117 115 -38 21 -70 37 -72 35 -3 -2 28 -24 68 -48 43 -26 80 -57 91 -76
28 -49 15 -63 -17 -18 -26 36 -30 29 -11 -17 12 -29 -9 -21 -99 39 l-86 57 0
47 c0 26 -3 49 -7 51 -5 2 -28 1 -53 -3 l-45 -6 42 -1 42 -2 3 -47 c3 -47 5
-49 67 -90 35 -23 73 -51 85 -63 l21 -22 -76 6 c-42 4 -106 15 -143 26 l-66
19 0 -71 c0 -63 2 -69 18 -63 37 15 191 35 268 35 44 0 104 7 134 16 29 9 75
14 102 12 26 -1 48 0 48 5 0 4 -19 7 -42 7 -53 0 -102 29 -115 67 l-10 28 64
-3 c80 -5 203 15 203 32 0 8 35 19 98 29 150 25 242 32 242 18 0 -12 49 -15
100 -5 24 5 30 11 27 24 -4 15 8 19 85 29 50 7 127 25 172 40 107 38 116 42
116 50 0 4 -45 -8 -100 -26 -127 -43 -278 -65 -312 -47 -32 18 -44 17 -66 -6
-15 -16 -48 -23 -174 -40 -86 -11 -168 -25 -182 -31 -14 -7 -27 -10 -29 -8 -2
2 -15 20 -30 41 l-27 36 84 7 c46 4 106 6 135 4 28 -2 51 -1 51 2 0 3 30 9 66
13 37 4 79 13 95 21 20 11 66 15 166 16 107 0 150 5 193 19 30 10 47 19 38 19
-29 1 -31 21 -4 56 14 18 26 41 26 49 0 13 14 16 75 16 59 0 75 3 75 15 0 23
-38 38 -79 30 -26 -5 -33 -4 -25 4 22 23 320 52 380 37 l28 -7 -25 -13 c-21
-11 -24 -18 -22 -67 1 -52 0 -55 -33 -77 -19 -12 -34 -29 -34 -37 0 -8 19 -27
43 -41 45 -28 97 -73 97 -84 0 -14 -182 -90 -287 -120 -151 -44 -310 -108
-327 -131 -13 -19 -14 -19 -59 0 -26 11 -65 25 -88 31 -39 11 -43 10 -71 -17
-16 -15 -41 -47 -55 -70 -20 -34 -33 -45 -66 -53 -23 -6 -51 -14 -62 -17 -11
-3 -58 -25 -103 -50 -58 -31 -120 -54 -200 -74 -120 -29 -307 -101 -279 -107
9 -2 46 11 82 28 36 17 123 46 193 64 90 23 151 45 206 75 78 43 196 86 196
71 0 -8 -61 -39 -141 -70 -27 -11 -85 -38 -130 -61 -46 -22 -128 -56 -183 -75
l-101 -33 86 -1 c86 0 87 0 220 64 214 102 256 116 344 116 89 0 155 27 197
82 18 24 44 40 91 56 36 13 92 41 124 62 38 25 107 54 203 84 239 77 285 113
224 177 l-28 29 75 1 c41 0 83 4 94 9 13 6 -16 9 -85 8 -107 -1 -190 19 -190
46 0 6 16 21 36 34 30 19 35 28 30 48 -20 79 -21 73 17 89 20 8 78 22 129 30
127 22 125 21 98 50 l-22 24 38 10 c22 5 95 17 164 25 224 29 271 38 303 60
22 15 32 30 32 46 0 31 4 29 -344 115 -145 36 -284 75 -310 87 l-46 21 65 9
c42 6 71 16 83 28 14 16 31 20 77 20 54 0 309 30 404 48 l40 7 -56 39 c-64 43
-128 57 -178 36 -26 -11 -33 -10 -50 5 -18 16 -74 27 -140 27 -8 0 -25 22 -37
50 l-22 49 27 -5 c15 -3 77 -8 137 -11 61 -4 124 -12 140 -20 17 -7 37 -15 45
-19 8 -3 -1 -3 -20 1 -52 10 -271 10 -260 -1 5 -5 51 -10 102 -11 115 -4 327
-23 427 -39 l76 -12 -45 -13 c-104 -30 -110 -41 -35 -60 22 -6 67 -17 100 -25
33 -9 76 -16 96 -16 19 0 44 -6 54 -14 16 -12 13 -14 -36 -21 -93 -12 -121
-10 -135 11 -27 39 -36 44 -77 44 -26 0 -51 -8 -67 -20 -14 -11 -38 -20 -55
-20 -57 -1 -120 -21 -147 -47 -29 -27 -37 -53 -17 -53 91 0 710 -112 696 -126
-2 -2 -69 9 -148 25 -192 38 -202 40 -192 31 4 -4 51 -15 103 -24 204 -36 280
-60 232 -72 -12 -4 -22 -10 -22 -15 0 -16 54 -24 145 -22 119 4 299 -7 288
-17 -4 -4 -65 -15 -136 -24 -115 -15 -130 -15 -149 -1 -32 22 -72 19 -105 -9
-20 -16 -46 -25 -93 -30 -66 -6 -264 -55 -287 -69 -7 -5 -13 -17 -13 -27 0
-20 32 -34 110 -46 25 -3 80 -17 124 -30 95 -29 291 -54 417 -54 51 0 90 2 88
4 -2 2 -56 7 -119 10 -154 7 -251 21 -395 55 -66 16 -138 33 -160 37 -45 10
-59 38 -24 49 12 4 24 3 28 -3 13 -22 70 -34 186 -40 115 -5 119 -6 86 -19
-42 -18 -30 -28 36 -32 26 -1 50 -4 54 -7 4 -2 97 -9 206 -14 185 -9 369 -30
393 -45 5 -3 10 -13 10 -21 0 -11 15 -14 66 -14 47 0 63 -3 58 -12 -4 -7 -3
-8 4 -4 13 8 127 -12 156 -27 19 -9 19 -11 -8 -34 -22 -19 -35 -22 -64 -18
-34 5 -31 1 7 -11 11 -4 10 -8 -4 -24 -10 -11 -22 -17 -28 -13 -5 3 -7 1 -4
-5 8 -12 -45 -59 -80 -73 -38 -14 -172 -108 -186 -129 -7 -13 -23 -20 -42 -20
-55 0 -62 -17 -9 -23 27 -3 78 -12 114 -21 36 -9 75 -19 88 -21 13 -3 20 -10
17 -16 -4 -5 -16 -7 -28 -4 -19 5 -19 4 2 -9 28 -16 51 -11 51 10 0 8 9 14 20
14 18 0 20 -5 14 -39 -7 -45 4 -55 75 -64 29 -4 54 -15 75 -34 72 -67 122 -96
265 -153 l150 -60 316 0 c308 0 315 0 315 20 0 20 -8 24 -45 20 -16 -1 -13 5
15 29 43 37 33 40 -20 5 -59 -39 -58 -24 0 20 28 21 50 42 50 48 0 10 -1 9
-83 -46 -31 -21 -60 -37 -63 -34 -3 3 29 34 70 68 42 33 76 65 76 71 0 5 -37
-17 -82 -50 -46 -32 -94 -64 -108 -71 l-25 -13 20 22 c10 12 50 45 87 73 37
27 68 54 68 60 0 12 -7 7 -118 -74 -52 -38 -101 -68 -110 -66 -12 3 -6 11 23
30 22 15 52 37 66 50 35 31 139 153 139 163 0 5 -42 -35 -94 -88 -91 -94 -139
-128 -98 -69 36 52 33 57 -10 12 -47 -51 -88 -86 -88 -78 0 3 18 27 40 54 22
26 37 50 34 53 -2 3 -28 -17 -56 -45 l-52 -49 41 47 c22 26 65 68 97 94 31 26
56 48 56 51 0 13 -74 -42 -142 -106 -43 -40 -78 -69 -78 -64 0 12 154 161 198
192 18 13 31 25 29 28 -7 7 -72 -36 -160 -106 -75 -60 -99 -73 -54 -30 61 59
213 163 290 199 67 32 87 46 87 61 0 16 -5 19 -20 14 -11 -3 -20 -4 -20 -2 0
8 22 72 32 93 5 11 8 38 6 60 l-3 39 -87 20 c-48 11 -89 22 -92 25 -7 7 129
100 146 100 8 0 19 -5 26 -12 9 -9 12 -4 12 25 0 33 -3 38 -47 57 -77 34 -83
34 -164 -13 l-77 -44 -26 111 c-14 61 -26 118 -26 126 0 8 40 53 88 100 100
95 87 89 -33 -17 l-80 -70 -32 21 c-18 11 -33 27 -33 34 0 8 16 41 35 74 60
102 33 74 -52 -55 -89 -134 -103 -159 -103 -179 1 -7 12 8 26 35 13 26 29 47
35 47 6 0 8 3 6 7 -3 5 4 17 14 27 18 19 19 19 25 0 25 -69 48 -123 79 -185
20 -39 34 -77 31 -85 -9 -23 -79 -38 -117 -25 -17 6 -42 11 -55 11 -20 0 -26
9 -41 58 -10 31 -18 82 -18 112 0 49 6 65 54 145 96 162 135 209 218 266 43
29 126 98 185 153 101 94 108 104 108 139 l0 38 -45 -27 c-25 -14 -45 -22 -45
-17 0 5 20 28 45 50 25 22 45 46 45 54 0 24 -91 -75 -122 -133 -21 -40 -34
-55 -45 -51 -8 3 -18 2 -22 -3 -12 -18 -61 -33 -90 -28 -17 4 -41 -1 -60 -11
-18 -9 -37 -15 -43 -13 -18 6 31 46 101 83 61 32 62 33 40 8 l-24 -26 30 16
c17 8 44 30 60 47 17 18 53 49 80 70 73 55 95 78 95 101 0 16 -5 14 -31 -16
-17 -19 -45 -45 -61 -56 l-29 -21 7 29 c8 34 60 171 74 196 6 10 8 23 4 29 -4
6 -3 8 3 5 6 -4 17 1 24 11 13 15 12 16 -3 3 -22 -16 -23 -2 -3 25 19 25 19
40 1 24 -8 -6 -23 -33 -32 -58 -80 -218 -111 -287 -140 -314 -11 -9 -54 -35
-96 -58 -42 -22 -93 -57 -112 -77 -51 -53 -53 -36 -4 33 60 85 122 152 186
202 63 49 84 79 119 170 13 35 38 91 55 124 20 38 33 81 36 115 5 62 -2 68
-19 16 -6 -21 -36 -92 -66 -159 l-54 -121 -107 -16 -107 -16 -45 -50 c-25 -27
-55 -54 -68 -61 -13 -6 -37 -34 -54 -62 -26 -42 -33 -48 -38 -32 -5 14 -11 8
-25 -30 l-18 -47 -29 29 -29 29 30 59 c16 33 44 104 62 159 38 119 72 191 98
204 17 10 18 8 11 -24 -4 -20 -20 -51 -34 -70 -14 -18 -38 -66 -52 -107 -15
-40 -40 -99 -56 -132 -16 -32 -27 -60 -24 -63 7 -8 66 113 92 190 13 38 35 82
49 98 14 17 30 50 36 74 11 42 16 49 116 128 l22 18 -6 -38 c-3 -21 -11 -66
-18 -101 -7 -34 -10 -62 -6 -62 3 0 15 12 25 27 11 14 14 23 8 19 -15 -9 -15
7 -2 54 5 19 11 56 12 81 4 58 15 72 84 99 48 20 58 29 80 72 14 28 28 48 30
45 9 -8 -31 -78 -79 -140 -43 -54 -107 -191 -95 -202 3 -3 16 20 28 52 13 32
52 96 87 143 34 47 70 108 79 135 9 28 32 81 51 118 44 88 38 110 -6 26 -19
-35 -48 -84 -66 -109 -18 -25 -38 -58 -46 -75 -9 -20 -28 -35 -55 -45 -22 -8
-53 -23 -68 -33 -15 -10 -47 -24 -70 -31 l-43 -13 9 40 c5 22 18 51 29 66 11
14 43 62 71 106 28 44 72 107 98 140 41 52 102 140 157 225 8 14 -3 6 -26 -17
-22 -23 -41 -38 -41 -33 0 6 19 61 42 123 31 82 43 130 45 182 4 70 4 70 -12
36 -8 -18 -15 -46 -15 -61 0 -15 -9 -35 -19 -44 -19 -17 -19 -16 -5 26 12 40
41 182 51 253 4 26 3 28 -8 12 -6 -11 -22 -76 -35 -146 -29 -159 -27 -155 -87
-224 -39 -46 -51 -68 -55 -103 -4 -42 -8 -47 -71 -88 -36 -23 -72 -50 -80 -60
-18 -21 -71 -50 -78 -42 -3 3 -1 12 6 20 6 7 18 49 26 92 8 44 17 90 20 104 4
22 3 21 -9 -5 -9 -16 -15 -39 -16 -49 0 -11 -3 -17 -6 -14 -8 9 18 198 27 198
16 0 30 41 44 132 8 51 22 127 30 168 7 41 14 91 14 111 1 20 7 41 14 47 10 9
12 -2 5 -56 -4 -37 -7 -125 -7 -195 -1 -127 -1 -129 -33 -175 -23 -35 -26 -42
-9 -28 12 11 31 35 43 54 19 31 20 44 15 135 -3 56 -1 142 4 192 l9 90 51 50
c34 33 49 43 46 30 -3 -11 -9 -49 -12 -85 -4 -36 -15 -105 -25 -155 -23 -115
-34 -216 -20 -195 5 8 10 29 10 45 0 17 9 73 21 125 11 52 24 133 30 179 10
89 11 91 93 185 76 87 47 77 -46 -17 -94 -93 -183 -167 -203 -167 -7 0 -18 7
-25 15 -19 23 10 59 89 109 37 24 85 65 107 91 21 26 58 69 82 95 41 46 42 48
42 121 0 51 -3 69 -10 59 -5 -8 -10 -35 -10 -59 0 -39 -6 -50 -50 -97 -58 -61
-65 -57 -58 31 3 30 1 52 -4 49 -4 -3 -8 -43 -8 -89 0 -82 -1 -85 -33 -117
-19 -18 -49 -42 -67 -52 l-33 -19 6 52 c4 36 22 79 60 146 34 59 62 125 77
180 13 47 25 83 28 81 18 -18 58 38 100 139 2 6 -5 1 -17 -11 -12 -11 -28 -38
-36 -60 -8 -24 -20 -40 -32 -42 -17 -3 -18 3 -12 75 8 90 15 118 39 153 29 41
61 110 52 110 -14 0 -79 -126 -96 -184 -9 -30 -16 -80 -16 -113 0 -83 -41
-220 -90 -305 -68 -117 -70 -121 -70 -173 0 -48 -12 -75 -33 -75 -5 0 -7 11
-5 25 3 13 2 22 -2 20 -4 -3 -11 -20 -14 -39 -6 -31 -22 -52 -54 -70 -11 -6
-12 9 -7 81 7 95 41 295 55 328 5 11 11 56 15 99 3 43 12 93 20 110 l13 31 1
-29 c1 -41 13 -25 23 31 16 90 36 238 32 242 -9 9 -24 -55 -24 -102 -1 -58
-19 -119 -46 -148 -10 -11 -25 -59 -34 -109 -13 -66 -25 -98 -45 -121 l-27
-32 6 34 c7 45 22 160 36 284 19 168 17 161 63 199 42 34 85 56 112 56 21 0 9
-205 -15 -245 -10 -16 -21 -52 -25 -80 -6 -38 -17 -60 -46 -92 -38 -42 -39
-44 -39 -118 0 -91 15 -91 24 -1 6 49 14 71 36 97 l29 34 1 -65 c2 -90 17 -40
26 88 5 74 12 103 29 128 12 18 25 50 28 71 5 27 16 46 35 60 16 12 32 34 35
50 3 16 22 57 42 93 20 35 34 73 33 84 -3 17 -12 8 -43 -41 -58 -90 -69 -84
-61 30 4 50 7 109 7 130 0 27 10 54 39 99 l40 61 0 -42 c0 -23 -4 -40 -9 -37
-5 4 -16 3 -25 0 -13 -5 -16 -21 -16 -78 0 -39 5 -78 10 -86 7 -10 10 10 10
67 0 77 1 82 23 85 20 3 22 9 25 71 4 91 -13 89 -75 -9 l-48 -76 -20 27 c-32
42 -162 175 -173 175 -5 0 -16 -8 -24 -17z m28 -55 c-3 -18 -8 -70 -11 -115
-4 -46 -11 -98 -16 -115 -5 -18 -14 -86 -19 -150 -5 -64 -16 -134 -24 -155 -8
-21 -21 -56 -29 -78 -8 -22 -20 -92 -26 -155 -6 -63 -15 -157 -21 -208 -12
-99 -10 -186 2 -102 4 25 12 97 18 160 21 219 31 285 51 325 l19 40 -5 -35
c-2 -19 -14 -105 -25 -190 -45 -346 -50 -382 -61 -401 -5 -11 -16 -52 -24 -92
-8 -40 -25 -97 -39 -127 -14 -30 -26 -73 -26 -96 0 -30 -6 -46 -24 -63 -13
-13 -27 -34 -30 -47 -4 -13 -13 -24 -20 -24 -19 0 -28 43 -16 75 5 14 10 59
10 99 0 43 8 103 21 147 14 52 22 116 26 214 4 106 10 158 28 215 14 49 25
117 30 195 4 66 10 140 15 165 l7 45 3 -40 2 -40 9 40 c4 22 8 63 7 90 0 28 5
93 13 145 11 79 19 104 47 148 19 28 36 52 37 52 1 0 -7 -51 -17 -112 -11 -62
-21 -165 -23 -228 l-4 -115 14 83 c7 46 16 90 20 100 3 9 10 77 15 152 8 103
15 146 32 183 25 54 41 62 34 15z m38 -61 c-3 -29 -12 -101 -21 -161 -8 -60
-14 -135 -14 -166 0 -48 -4 -61 -24 -80 l-24 -23 4 34 c3 19 9 72 15 119 5 47
18 141 29 210 11 69 20 126 21 128 0 2 4 1 9 -3 6 -3 8 -29 5 -58z m67 -120
c-6 -53 -11 -120 -11 -149 0 -49 -3 -55 -35 -75 -19 -13 -37 -23 -40 -23 -10
0 -5 79 17 238 l23 162 28 -28 28 -29 -10 -96z m62 -32 c-5 -33 -8 -86 -7
-118 0 -53 -1 -58 -20 -55 -27 4 -30 30 -21 177 l7 114 24 -29 c22 -26 23 -34
17 -89z m31 -7 c-4 -24 -10 -72 -14 -108 -7 -65 -7 -65 -9 -14 -1 49 17 164
26 164 3 0 1 -19 -3 -42z m-277 -30 c-3 -7 -5 -2 -5 12 0 14 2 19 5 13 2 -7 2
-19 0 -25z m-127 -169 c-48 -285 -66 -361 -100 -430 -32 -63 -40 -100 -56
-271 -5 -43 -3 -68 3 -68 6 0 13 30 16 68 14 143 26 199 58 266 18 38 38 94
45 125 l14 56 -6 -73 c-3 -40 -15 -98 -26 -130 -15 -43 -22 -96 -28 -217 -5
-100 -14 -179 -24 -209 -9 -27 -17 -79 -17 -115 -1 -36 -4 -79 -8 -96 -6 -25
-8 -18 -13 35 -5 63 -33 140 -50 140 -4 0 -8 -23 -8 -52 0 -61 -11 -54 -29 18
-9 36 -9 63 -2 95 6 24 10 67 9 94 l-1 50 -8 -63 c-14 -108 -17 -112 -50 -56
-20 35 -29 62 -29 96 0 60 -15 70 -24 17 -6 -36 -9 -39 -22 -28 -14 12 -54 81
-54 94 0 3 4 3 10 0 6 -4 7 5 4 23 -4 18 4 62 19 113 14 46 35 122 47 169 14
53 30 94 45 110 44 46 95 200 95 286 0 43 3 53 20 57 18 5 20 0 22 -41 l2 -47
3 47 c3 30 9 48 20 52 12 5 14 1 8 -21 -3 -15 -11 -52 -16 -83 -30 -174 -56
-245 -108 -294 -17 -16 -40 -52 -50 -80 -11 -28 -29 -71 -40 -96 -11 -25 -20
-52 -20 -60 0 -17 50 88 69 144 6 20 34 62 60 92 39 45 52 69 69 134 12 44 25
103 28 132 7 66 22 98 22 48 0 -45 -15 -160 -30 -230 -9 -43 -21 -63 -55 -97
-36 -35 -44 -49 -44 -80 -1 -77 -18 -289 -26 -308 -5 -14 -4 -17 4 -10 13 12
28 109 37 253 7 101 8 104 40 134 18 16 38 42 44 56 19 48 41 202 41 288 l0
84 33 15 c17 9 43 22 57 30 13 8 26 13 27 11 2 -1 -10 -81 -27 -177z m117 109
c-3 -8 -6 -5 -6 6 -1 11 2 17 5 13 3 -3 4 -12 1 -19z m-10 -55 c-3 -10 -5 -4
-5 12 0 17 2 24 5 18 2 -7 2 -21 0 -30z m-318 -77 c-10 -55 -67 -203 -81 -212
-12 -8 -1 35 37 141 42 114 47 127 50 123 2 -2 -1 -25 -6 -52z m238 -8 c-3 -7
-5 -2 -5 12 0 14 2 19 5 13 2 -7 2 -19 0 -25z m353 0 c0 -18 -9 -51 -20 -73
l-20 -40 6 45 c9 74 15 100 25 100 5 0 9 -15 9 -32z m34 -6 c-11 -44 -20 -45
-16 -2 2 22 8 37 13 34 5 -3 6 -17 3 -32z m-1205 -74 c1 -63 -1 -68 -29 -88
l-30 -21 0 60 c0 42 7 74 22 106 27 56 36 42 37 -57z m52 -154 c-1 -190 -14
-324 -32 -324 -18 0 -25 220 -8 252 12 23 14 220 3 288 l-6 35 22 -21 c21 -21
22 -27 21 -230z m50 180 c8 -10 14 -47 15 -98 4 -157 23 -442 34 -506 6 -36
24 -130 41 -210 26 -126 29 -153 20 -205 -5 -33 -13 -94 -17 -135 -7 -82 -34
-143 -60 -133 -9 3 -12 13 -9 24 3 11 7 27 10 37 6 22 -8 75 -22 79 -7 3 -14
-21 -19 -59 l-8 -63 -7 46 c-4 26 -12 56 -18 67 -7 13 -9 42 -5 76 6 53 -8
116 -26 116 -4 0 -10 -24 -12 -52 -3 -29 -15 -73 -27 -98 l-21 -45 6 135 c3
74 6 169 8 210 5 160 18 255 36 281 11 15 23 42 28 60 14 46 15 -143 2 -256
-7 -63 -6 -95 7 -149 9 -39 18 -65 21 -58 3 11 -9 84 -23 127 -3 11 3 3 14
-17 12 -21 26 -72 32 -115 12 -91 28 -118 23 -41 -2 32 3 15 12 -42 8 -52 13
-113 10 -135 l-5 -40 15 34 c13 29 13 45 -1 145 -13 87 -23 123 -48 166 l-32
55 0 192 c0 202 5 212 35 62 10 -51 10 -73 2 -99 -7 -18 -11 -65 -11 -104 l2
-71 7 70 c4 39 12 90 19 114 11 38 10 54 -9 125 -12 44 -28 93 -36 108 -11 20
-14 75 -14 223 0 107 4 195 9 195 5 0 15 -7 22 -16z m-179 -128 c-6 -38 -21
-81 -37 -106 -17 -26 -30 -67 -36 -107 -5 -35 -15 -74 -23 -86 -7 -12 -17 -53
-20 -92 -9 -93 -30 -170 -70 -257 l-33 -73 -7 91 c-4 61 -3 101 5 120 6 16 14
86 17 156 4 119 6 127 25 130 14 2 23 14 29 38 12 47 61 159 71 160 17 0 6
-83 -15 -113 -39 -54 -50 -98 -58 -222 -5 -66 -11 -142 -14 -170 -3 -27 3 -5
13 50 11 55 17 118 14 141 -3 26 0 51 10 70 8 16 18 45 22 64 4 19 17 47 29
63 17 23 21 41 19 89 -2 56 0 64 30 97 17 20 33 33 35 29 2 -4 -1 -37 -6 -72z
m249 -125 c15 -109 25 -148 50 -198 30 -59 31 -65 20 -109 -7 -26 -9 -64 -6
-84 5 -29 2 -40 -18 -59 -14 -12 -27 -18 -30 -14 -11 18 -30 181 -38 338 -5
88 -12 192 -14 230 -9 118 15 50 36 -104z m-177 11 c-12 -32 -15 -62 -11 -107
4 -62 4 -64 -29 -96 l-34 -33 1 -195 c2 -189 2 -192 11 -96 5 55 7 140 4 188
-5 85 -4 89 23 119 l28 32 7 -47 c4 -26 4 -52 0 -59 -9 -14 -24 -165 -26 -243
0 -49 -11 -251 -24 -452 -6 -103 -25 -159 -39 -120 -4 9 0 33 10 54 18 38 15
117 -6 138 -7 7 -8 -3 -3 -32 7 -44 -2 -113 -14 -113 -4 0 -7 42 -6 93 1 78 6
103 32 167 30 75 55 219 35 207 -6 -4 -13 -35 -16 -69 -4 -35 -21 -101 -39
-147 l-33 -83 -14 33 c-21 50 -25 142 -11 236 13 78 30 113 30 58 0 -14 5 -25
11 -25 8 0 9 11 5 33 -4 17 -11 95 -16 172 -5 77 -11 147 -15 156 -3 9 -1 53
5 98 8 60 20 96 45 142 19 33 35 65 35 69 0 5 15 20 33 34 l32 26 3 -47 c2
-27 -4 -65 -14 -91z m195 120 c5 -10 17 -61 26 -113 9 -52 23 -115 31 -141 9
-26 14 -60 12 -75 -3 -26 -5 -24 -30 27 -20 41 -31 88 -42 180 -9 69 -16 129
-16 133 0 13 9 7 19 -11z m60 -61 c6 -10 8 -21 4 -24 -3 -3 2 -13 10 -22 9 -8
18 -37 22 -63 7 -54 35 -200 43 -221 3 -9 1 -12 -5 -8 -20 13 -71 162 -83 243
-6 43 -13 87 -16 97 -7 23 13 22 25 -2z m-797 -121 c9 -11 23 -20 32 -20 9 0
21 -9 28 -19 8 -14 19 -18 37 -15 15 3 34 -1 43 -8 17 -12 17 -15 1 -50 l-17
-38 -243 0 c-273 0 -268 -2 -192 72 41 40 94 57 126 40 15 -8 22 -6 31 9 36
56 118 72 154 29z m242 -97 c-3 -21 -10 -60 -15 -88 -20 -102 -20 -101 -9 -85
5 8 10 26 10 39 0 13 3 22 6 19 3 -4 2 -33 -2 -65 -6 -49 -9 -54 -16 -33 -6
19 -7 16 -3 -14 3 -28 -3 -52 -20 -87 -14 -27 -25 -61 -24 -76 1 -28 1 -27 15
7 9 22 12 26 9 10 -2 -14 -5 -70 -5 -126 0 -96 -1 -102 -32 -150 -39 -60 -47
-43 -23 51 9 36 15 87 14 113 -4 88 32 364 53 406 16 33 17 37 3 26 -9 -7 -25
-30 -35 -49 -18 -33 -19 -34 -20 -11 0 49 21 99 53 124 18 14 35 26 39 26 4 0
4 -17 2 -37z m-945 -6 c20 -19 34 -23 62 -20 24 3 39 0 48 -11 8 -9 12 -19 9
-21 -3 -3 -137 -4 -298 -3 l-294 3 57 28 c61 30 118 35 137 12 9 -11 16 -12
30 -3 14 9 24 8 43 -5 22 -14 26 -14 31 -2 3 8 20 24 38 35 42 27 100 21 137
-13z m285 -26 c16 -17 14 -18 -61 -24 -43 -3 -80 -3 -83 -1 -3 3 6 14 19 25
31 25 102 26 125 0z m1330 13 c19 -7 20 -28 2 -69 l-12 -30 -11 53 c-10 52 -8
57 21 46z m571 -124 c-8 -36 -20 -112 -25 -170 -15 -146 -23 -170 -30 -95 l-7
60 -1 -77 c-1 -42 -6 -79 -11 -83 -15 -9 -1 141 19 220 11 39 24 96 29 129 10
51 28 93 37 83 2 -1 -3 -32 -11 -67z m-4641 -225 c17 -177 42 -357 70 -505 8
-41 13 -76 11 -78 -7 -8 -55 162 -66 231 -5 40 -16 88 -23 107 -13 32 -19 80
-47 355 -5 55 -12 114 -15 130 -5 28 -3 27 24 -15 28 -42 31 -56 46 -225z
m3042 215 l27 -11 -21 -15 c-12 -8 -29 -28 -37 -44 l-15 -29 -35 20 c-21 13
-46 19 -60 17 -20 -4 -23 -2 -15 11 28 53 94 74 156 51z m270 -42 c-3 -29 -8
-98 -12 -153 -5 -83 -8 -96 -19 -82 -17 23 -24 21 -18 -5 4 -21 3 -21 -7 -5
-18 29 1 251 25 277 29 32 37 24 31 -32z m714 -147 c33 -77 34 -103 4 -149
-11 -16 -21 -21 -35 -17 -15 5 -19 2 -19 -19 0 -14 -3 -26 -8 -26 -16 0 -33
44 -51 129 l-18 89 28 16 c32 19 29 23 44 -64 3 -19 12 -48 21 -65 l14 -30 -6
35 c-3 19 -10 53 -15 75 -4 22 -8 72 -7 110 0 63 1 66 8 30 5 -22 23 -73 40
-114z m10 53 c7 -19 10 -38 7 -40 -3 -3 -12 16 -20 41 -9 25 -12 43 -7 40 5
-3 14 -21 20 -41z m-3937 -66 c3 -9 11 -62 17 -117 6 -54 20 -130 31 -168 11
-37 29 -97 38 -133 10 -36 27 -83 38 -105 11 -22 24 -60 28 -85 4 -25 22 -73
41 -107 19 -34 34 -64 34 -68 0 -11 -43 6 -90 35 -25 16 -57 32 -72 35 -16 4
-28 13 -28 21 0 7 -9 33 -20 56 -27 60 -90 421 -89 518 l0 35 14 -27 c8 -15
28 -107 44 -205 19 -120 38 -197 55 -237 37 -83 41 -65 6 24 -18 49 -36 128
-51 225 -12 85 -31 174 -44 205 -13 30 -26 88 -30 128 l-7 74 39 -44 c22 -23
42 -51 46 -60z m182 -198 c22 -236 42 -344 74 -420 16 -36 32 -81 36 -100 4
-19 18 -55 33 -79 14 -25 26 -56 28 -70 2 -14 17 -74 34 -134 29 -105 36 -177
20 -227 -8 -24 -8 -24 -15 9 -7 30 -9 32 -21 17 -11 -16 -13 -16 -17 1 -3 10
-6 50 -7 88 0 39 -5 88 -10 110 -5 22 -10 55 -10 74 0 24 -10 44 -35 72 -19
22 -35 46 -35 54 0 9 -13 42 -30 75 -17 34 -34 88 -40 129 -5 38 -14 81 -20
95 -5 15 -10 43 -10 62 0 18 -14 80 -31 136 -17 57 -35 143 -40 192 -4 48 -11
100 -14 115 -5 24 -2 28 27 36 l33 10 23 -100 c13 -55 25 -120 27 -145z m15
122 c5 -37 13 -87 18 -112 6 -25 13 -72 17 -105 3 -33 12 -85 20 -115 7 -30
16 -77 20 -105 3 -27 12 -70 20 -95 7 -25 16 -65 19 -90 l6 -45 -18 55 c-10
30 -26 70 -36 88 -20 39 -41 166 -51 306 -3 55 -17 141 -30 190 -13 50 -26
104 -30 121 l-7 30 22 -28 c14 -18 25 -51 30 -95z m3099 23 c0 -33 -7 -76 -14
-95 -13 -33 -14 -30 -14 62 -1 105 7 147 20 112 4 -10 8 -46 8 -79z m-3235 58
c3 -16 8 -68 12 -118 6 -79 5 -88 -8 -77 -9 7 -18 39 -22 80 -3 37 -9 84 -12
105 -5 29 -3 37 9 37 9 0 18 -12 21 -27z m194 -114 c18 -30 23 -55 25 -131 3
-89 5 -97 34 -135 20 -24 38 -65 49 -107 9 -37 19 -65 21 -62 2 2 0 21 -6 43
-6 21 -11 43 -10 48 1 20 50 -142 83 -277 33 -134 57 -188 100 -230 11 -12 15
-17 7 -13 -10 6 -12 3 -7 -12 12 -37 25 -169 24 -233 -1 -40 -3 -50 -5 -25 -8
91 -46 219 -99 336 -30 65 -60 160 -94 295 -55 217 -63 242 -54 174 15 -114
94 -389 138 -480 25 -51 46 -101 46 -111 0 -9 7 -34 16 -55 9 -22 12 -34 7
-29 -30 32 -84 117 -103 162 -12 29 -28 58 -36 64 -8 6 -14 19 -14 28 0 9 -11
32 -23 51 -16 23 -26 55 -29 96 -3 33 -13 85 -21 115 -16 54 -43 203 -73 399
-9 58 -18 119 -21 135 -5 28 -4 29 9 10 8 -11 24 -36 36 -56z m2862 -77 c-6
-34 -26 -117 -45 -184 -19 -67 -35 -130 -35 -139 0 -10 -5 -21 -12 -25 -33
-21 45 377 79 403 9 7 18 11 20 10 1 -2 -2 -31 -7 -65z m1296 -17 c-14 -38
-15 -39 -15 -11 -1 16 5 45 12 65 11 31 12 32 15 10 1 -13 -4 -42 -12 -64z
m-1251 65 c4 -6 11 -8 16 -5 5 4 9 -1 9 -9 0 -8 -6 -13 -13 -10 -9 3 -18 -23
-32 -88 -11 -51 -20 -101 -19 -110 0 -9 -3 -15 -7 -13 -6 5 -17 -18 -33 -70
-4 -11 2 -3 12 18 l19 38 7 -42 c4 -23 4 -44 1 -47 -3 -3 -5 6 -6 19 0 13 -8
-7 -19 -44 -21 -78 -30 -93 -31 -51 -2 39 -2 36 5 64 l7 25 -16 -25 -15 -25 6
30 c4 17 16 59 27 95 10 36 28 109 40 163 19 92 28 110 42 87z m1349 -56 c-15
-32 -38 -71 -52 -86 -17 -19 -26 -41 -29 -75 -2 -26 -15 -129 -29 -228 -24
-177 -25 -180 -63 -230 -43 -56 -72 -110 -91 -170 -16 -49 -56 -132 -69 -139
-19 -12 1 123 33 224 19 58 40 131 47 163 7 31 14 55 16 53 10 -10 -49 -253
-92 -381 -6 -16 -5 -17 4 -5 16 22 108 306 119 370 6 30 16 120 23 200 l13
144 50 57 c28 31 70 82 94 113 24 32 45 56 48 53 2 -2 -8 -31 -22 -63z m56 29
c0 -21 -5 -66 -10 -101 -6 -35 -12 -107 -15 -161 -2 -53 -10 -126 -18 -161 -8
-36 -25 -140 -38 -233 l-23 -167 -32 -19 c-17 -10 -40 -33 -50 -50 -10 -16
-37 -41 -61 -53 -24 -13 -43 -26 -43 -29 0 -18 -32 -185 -44 -233 -8 -31 -18
-94 -22 -139 l-6 -83 -47 -30 c-63 -40 -109 -81 -145 -131 -24 -33 -52 -53
-118 -86 -87 -43 -87 -43 -82 -17 4 14 30 77 60 141 30 65 54 121 54 127 0 5
12 25 28 44 15 19 41 63 57 98 17 35 38 73 48 84 37 42 97 144 104 177 3 19
19 51 34 72 16 22 43 78 61 125 20 53 52 113 82 152 54 71 49 50 91 390 15
118 30 179 40 168 3 -3 1 -70 -5 -149 -20 -291 -20 -287 -11 -244 5 22 14 117
21 210 10 149 15 180 43 253 17 45 34 82 39 82 4 0 8 -17 8 -37z m-485 -83 c4
-25 18 -64 32 -87 l24 -41 -23 -7 c-13 -4 -30 -13 -38 -21 -13 -11 -15 -7 -16
34 -1 26 -5 72 -9 102 -7 46 -9 51 -17 31 -6 -16 -3 -42 7 -78 15 -52 15 -54
-11 -101 -34 -61 -35 -62 -91 -102 -26 -18 -41 -25 -32 -14 37 43 58 104 67
190 7 72 15 100 42 148 l34 59 12 -34 c6 -19 15 -55 19 -79z m525 -5 c-6 -50
-19 -130 -29 -180 l-20 -90 0 69 c-1 60 10 177 25 285 5 29 7 32 19 20 12 -11
13 -31 5 -104z m-1439 5 c-6 -28 -11 -70 -12 -93 0 -23 -4 -51 -9 -62 -6 -13
-8 -2 -4 35 7 80 27 195 32 182 2 -7 -1 -35 -7 -62z m693 -8 c21 -84 20 -110
-6 -152 l-22 -35 -8 50 c-4 28 -3 65 2 85 6 19 10 55 10 79 0 56 4 51 24 -27z
m-3529 -37 c4 -22 9 -49 11 -60 4 -16 1 -15 -20 8 -22 23 -26 38 -26 85 1 54
1 56 15 32 7 -14 17 -43 20 -65z m-245 21 c6 -22 18 -58 26 -79 7 -20 14 -52
14 -71 0 -18 7 -53 15 -76 8 -24 14 -45 11 -47 -4 -4 -46 91 -46 104 0 4 -13
51 -30 103 -34 108 -36 122 -15 114 8 -3 20 -25 25 -48z m3316 -219 c5 -26 7
-27 19 -10 19 25 -5 -64 -35 -131 -22 -49 -24 -113 -5 -158 11 -26 -10 -22
-40 7 -29 30 -28 22 -10 105 23 105 17 118 -18 37 l-17 -42 6 58 c4 41 2 57
-7 57 -9 0 -11 -31 -6 -127 5 -124 -6 -233 -24 -233 -5 0 -9 17 -9 38 0 23
-13 61 -33 98 -32 58 -32 62 -15 73 16 10 18 25 18 119 l0 107 67 135 68 135
17 -120 c10 -66 20 -133 24 -148z m-477 216 c-1 -34 -2 -35 -9 -13 -11 36 -11
50 0 50 6 0 10 -17 9 -37z m-2467 -12 c19 -21 28 -50 37 -115 6 -48 14 -94 17
-104 3 -9 -24 42 -60 113 -36 72 -66 131 -66 133 0 1 11 2 24 2 14 0 34 -12
48 -29z m-27 -97 c40 -82 60 -139 70 -197 55 -312 63 -349 74 -357 5 -3 12
-16 15 -30 7 -22 5 -21 -12 6 -11 18 -25 35 -31 39 -23 14 -44 72 -67 184 -13
64 -39 163 -59 220 -19 58 -35 117 -35 132 0 14 -3 42 -7 60 l-7 34 -7 -30
c-6 -27 -7 -26 -8 13 0 23 3 42 9 42 5 0 35 -52 65 -116z m451 -19 c15 -20 56
-58 91 -86 l64 -51 58 6 c57 7 59 6 69 -21 58 -156 96 -239 126 -278 12 -15
12 -9 -3 27 -11 25 -17 55 -15 65 3 10 -4 40 -15 67 -24 54 -24 56 -13 56 15
0 71 -106 92 -175 27 -90 50 -128 97 -158 40 -26 58 -45 87 -90 l18 -29 -24 8
c-12 5 -36 9 -52 9 -16 1 -34 8 -40 16 -6 8 -24 21 -40 29 -17 8 -48 39 -70
69 -89 117 -135 168 -163 180 -15 6 -41 32 -57 57 -18 28 -34 43 -42 40 -8 -3
-26 8 -41 24 -21 24 -82 55 -103 53 -41 -5 -117 169 -96 222 8 22 37 5 72 -40z
m2115 0 c-8 -46 -9 -47 -10 -13 -1 34 8 73 15 66 2 -2 -1 -26 -5 -53z m-2624
13 c-3 -7 -5 -2 -5 12 0 14 2 19 5 13 2 -7 2 -19 0 -25z m203 -124 c23 -108
65 -236 108 -321 17 -32 47 -103 67 -158 21 -55 53 -133 73 -173 38 -80 47
-135 29 -188 l-12 -34 -38 38 c-27 28 -39 51 -47 89 -5 29 -23 79 -39 111 -16
32 -37 87 -46 123 -9 37 -29 80 -46 102 -41 51 -69 158 -79 302 -5 66 -14 138
-19 160 -6 22 -11 56 -11 75 l0 35 20 -33 c12 -19 30 -76 40 -128z m255 3 l17
-28 -39 7 c-21 4 -51 13 -67 21 -28 15 -28 15 -7 29 12 9 28 28 36 44 24 47
17 49 -11 3 -29 -49 -59 -56 -107 -24 l-29 19 54 24 c110 52 101 53 120 -11 9
-31 24 -69 33 -84z m3466 119 c-14 -16 -35 -22 -128 -34 -49 -7 -63 -6 -63 4
0 7 15 15 33 18 17 3 57 9 87 14 84 14 84 14 71 -2z m-3663 -166 c20 -146 11
-150 -24 -10 -18 74 -33 139 -34 143 0 5 11 -4 23 -20 18 -21 27 -50 35 -113z
m2252 55 c0 -92 -13 -114 -24 -39 -11 81 -8 124 9 124 12 0 15 -16 15 -85z
m1407 -7 c-5 -61 -15 -104 -27 -123 -10 -17 -32 -78 -49 -137 -16 -59 -34
-116 -40 -126 -10 -18 -68 -38 -79 -27 -3 2 3 33 12 67 10 35 29 143 44 241
l27 177 30 1 c16 0 39 4 50 9 40 17 41 14 32 -82z m-2627 41 c32 -62 108 -170
136 -191 33 -26 117 -71 109 -58 -3 6 -21 17 -38 26 -41 21 -104 81 -124 117
l-15 29 66 -36 c37 -20 113 -65 169 -100 57 -35 132 -78 166 -96 l64 -32 -31
-18 c-75 -46 -256 -120 -292 -120 -7 0 -80 41 -163 90 -91 54 -163 90 -179 90
-17 0 -43 14 -71 39 -27 23 -64 43 -93 50 -71 18 -95 43 -54 56 10 3 63 38
117 77 76 55 177 111 210 118 2 0 12 -18 23 -41z m2415 4 c-7 -21 -16 -65 -20
-98 -6 -57 -31 -202 -41 -236 -6 -21 -127 -119 -148 -119 -30 0 -16 29 33 70
64 54 79 88 85 191 l5 84 -13 -86 c-8 -47 -18 -94 -24 -105 -6 -10 -39 -46
-74 -80 l-63 -61 -53 -169 c-28 -93 -54 -191 -57 -219 -4 -36 3 -19 25 60 16
61 38 134 49 164 l19 54 4 -109 c4 -102 2 -115 -28 -209 -18 -55 -43 -133 -54
-173 -36 -125 -32 -73 6 82 19 80 34 154 32 163 -2 10 -23 -62 -47 -159 l-43
-177 -66 -38 c-56 -32 -72 -48 -105 -103 -21 -36 -41 -71 -46 -78 -4 -8 -36
-14 -87 -16 l-80 -4 38 167 c21 91 40 193 44 225 5 60 29 131 86 261 17 39 53
125 81 192 34 83 58 128 74 138 l24 16 -5 -53 c-5 -61 -62 -301 -78 -332 -6
-12 -30 -42 -53 -67 -24 -25 -53 -66 -65 -90 -12 -24 -30 -53 -39 -63 -15 -18
-15 -18 5 -8 12 6 34 36 50 67 15 31 40 65 54 75 36 26 76 103 90 175 19 99
50 208 67 239 9 16 11 26 4 22 -17 -11 -14 6 17 83 34 83 30 79 72 91 l32 9
-7 -37 c-3 -20 -17 -55 -29 -77 -13 -22 -29 -65 -36 -95 -7 -30 -23 -82 -36
-115 -13 -33 -40 -116 -59 -185 -22 -76 -53 -156 -80 -206 -45 -82 -68 -134
-60 -134 3 0 14 19 26 43 12 23 36 67 55 97 20 34 49 109 73 195 22 77 47 157
55 177 9 20 25 71 37 113 11 42 30 92 41 112 12 19 27 60 34 91 9 40 21 62 39
76 14 10 75 61 136 112 60 52 111 94 113 94 2 0 -2 -17 -9 -37z m-1234 -84 c1
-69 4 -97 10 -84 l9 20 -3 -20 c-2 -14 -10 -20 -27 -20 -17 0 -24 5 -21 15 2
8 6 51 8 95 8 147 23 144 24 -6z m1303 19 c-31 -221 -60 -360 -90 -423 -13
-27 -40 -108 -60 -180 -51 -181 -70 -219 -149 -295 -37 -36 -65 -56 -61 -45
13 36 46 180 46 200 0 14 19 30 67 55 66 34 67 36 84 95 9 33 24 77 33 97 18
41 22 113 6 103 -5 -3 -10 -18 -10 -31 0 -14 -14 -68 -32 -119 -30 -89 -34
-96 -78 -123 l-46 -29 7 36 c5 20 15 86 23 146 16 119 17 121 114 195 30 23
34 33 51 130 11 58 24 138 29 178 11 80 23 102 57 102 l22 0 -13 -92z m-2372
23 c51 -32 116 -70 143 -84 l51 -25 124 63 c68 35 126 62 128 60 2 -2 -30 -29
-72 -60 -42 -32 -76 -62 -76 -68 0 -6 12 1 28 15 15 13 43 35 62 48 54 36 90
72 83 84 -3 6 0 6 7 -1 20 -19 -11 -58 -83 -104 -69 -45 -74 -49 -60 -49 13 0
127 77 148 100 10 11 21 34 25 52 6 29 8 30 15 13 16 -41 58 -86 118 -127 61
-41 61 -42 34 -49 -15 -4 -43 -21 -62 -37 -18 -17 -47 -33 -63 -37 -16 -3 -49
-22 -72 -42 l-42 -36 -45 22 c-25 12 -107 57 -182 100 -75 43 -160 91 -190
105 -52 27 -93 63 -112 99 -5 9 -8 17 -5 17 3 0 47 -26 98 -59z m585 23 c27
-21 84 -54 127 -75 76 -37 78 -39 52 -49 -15 -5 -32 -10 -38 -10 -15 0 -107
58 -141 89 -27 25 -64 81 -52 81 3 0 26 -16 52 -36z m1235 -31 c-10 -26 -10
-24 -11 22 0 42 2 46 11 28 7 -15 7 -30 0 -50z m-2924 11 c1 0 16 -50 33 -110
29 -103 60 -182 114 -284 13 -25 27 -70 31 -100 l7 -55 -52 70 c-28 38 -51 79
-51 91 0 11 -13 39 -28 60 -46 63 -51 77 -67 186 -8 56 -17 118 -21 137 -5 33
-4 34 13 21 10 -8 19 -15 21 -16z m3242 8 c0 -13 -53 -83 -84 -111 -25 -24
-26 -24 -26 -3 0 39 19 70 57 96 40 27 53 32 53 18z m-3184 -70 c3 -21 14 -75
25 -121 11 -46 18 -86 16 -88 -5 -4 -58 170 -67 219 -5 28 -4 35 6 31 8 -3 16
-21 20 -41z m-209 16 c-3 -8 -6 -5 -6 6 -1 11 2 17 5 13 3 -3 4 -12 1 -19z
m2606 -56 c4 -36 3 -41 -9 -31 -9 7 -14 30 -13 63 0 58 12 40 22 -32z m1424
46 c-3 -8 -6 -5 -6 6 -1 11 2 17 5 13 3 -3 4 -12 1 -19z m-3713 -17 c8 -9 40
-95 70 -190 46 -145 61 -180 89 -210 19 -20 53 -67 75 -106 23 -38 46 -76 52
-82 14 -17 176 -123 187 -123 5 0 44 -21 88 -46 44 -26 85 -47 91 -47 21 -1
-20 -117 -42 -117 -22 0 -44 41 -37 69 6 23 4 24 -9 13 -13 -10 -18 -10 -24 0
-12 19 -33 -91 -27 -139 7 -51 1 -53 -81 -22 -45 17 -61 30 -78 60 -22 39 -47
55 -33 22 9 -22 20 -110 12 -103 -12 12 -63 129 -51 119 7 -6 18 -26 24 -45 7
-20 14 -33 17 -30 12 12 -23 81 -59 117 -41 40 -41 40 -34 100 3 33 11 69 17
80 9 17 7 25 -10 40 -12 11 -21 24 -21 29 0 6 -15 27 -34 47 -18 21 -36 52
-40 68 -4 17 -22 60 -41 96 -36 69 -85 200 -116 309 -17 57 -18 59 -14 20 7
-52 64 -225 106 -319 16 -35 29 -75 29 -88 0 -15 17 -45 39 -72 21 -25 44 -65
50 -89 11 -38 10 -45 -11 -72 -14 -20 -30 -30 -42 -28 -17 3 -24 20 -41 103
-12 55 -32 119 -43 142 -12 23 -22 60 -22 81 0 25 -12 62 -34 104 -27 50 -40
93 -56 187 -11 68 -22 127 -25 131 -10 16 64 8 79 -9z m-307 -23 c-3 -7 -5 -2
-5 12 0 14 2 19 5 13 2 -7 2 -19 0 -25z m2447 -40 c9 -31 32 -90 51 -130 19
-40 35 -84 35 -98 l0 -25 -24 30 c-15 19 -21 34 -15 40 5 5 9 16 9 25 -1 12
-2 12 -11 -2 -18 -32 -39 -21 -40 20 -1 20 -4 48 -9 62 l-7 25 -10 -25 c-6
-14 -14 -40 -18 -58 -3 -18 -15 -37 -25 -42 -10 -6 -33 -30 -51 -55 -18 -25
-34 -44 -35 -42 -8 7 59 181 85 223 21 33 31 60 31 88 0 51 13 38 34 -36z
m-1741 -26 c27 -62 36 -104 16 -70 -16 28 -61 154 -51 143 5 -5 21 -38 35 -73z
m-282 37 c9 -4 28 -45 44 -91 15 -46 41 -112 57 -148 17 -36 36 -85 44 -110
l14 -45 -6 45 c-4 25 -16 63 -27 85 -24 47 -79 207 -73 212 2 3 12 -20 21 -49
26 -80 195 -417 215 -428 9 -5 36 -25 59 -45 24 -19 47 -35 53 -35 9 0 -59 60
-105 92 -13 9 -32 38 -42 65 -10 26 -43 93 -73 148 -51 94 -102 212 -102 236
0 17 29 -10 46 -42 7 -15 23 -30 34 -34 13 -4 40 -48 80 -130 43 -90 67 -128
88 -140 15 -10 41 -37 57 -62 16 -25 49 -59 74 -75 51 -32 90 -94 91 -145 0
-18 -4 -33 -8 -33 -4 0 -30 14 -58 32 -27 17 -74 42 -104 56 -78 36 -192 118
-209 150 -25 50 -84 137 -113 168 -21 22 -38 63 -63 145 -19 63 -41 131 -49
151 -9 21 -16 40 -16 43 0 6 48 -4 71 -16z m1647 -27 c-3 -27 -17 -73 -32
-104 -24 -48 -26 -60 -17 -99 5 -24 9 -44 8 -45 -1 -2 -18 24 -37 57 -19 32
-40 59 -45 59 -6 0 -16 -20 -23 -44 l-11 -44 -93 -17 c-50 -9 -126 -27 -167
-40 -214 -65 -216 -66 -250 -54 -18 6 -29 15 -24 19 4 4 42 20 83 35 105 37
180 79 251 141 34 29 74 56 90 59 16 4 47 22 70 41 84 70 54 20 -43 -72 -57
-53 -92 -77 -153 -103 -44 -19 -84 -38 -90 -44 -17 -16 35 3 120 43 65 31 99
57 172 128 49 49 100 95 111 101 19 10 23 7 41 -26 11 -21 20 -31 21 -23 0 9
-7 26 -16 38 -14 21 -14 23 8 31 13 6 25 10 27 10 2 1 1 -21 -1 -47z m118 39
c-3 -4 -11 -21 -17 -37 -10 -27 -12 -27 -19 -9 -16 39 -12 55 16 55 14 0 23
-4 20 -9z m33 -13 c1 6 8 12 16 12 14 0 14 -3 1 -22 -8 -13 -17 -38 -21 -56
-7 -34 -21 -38 -39 -10 -7 12 -5 28 9 58 16 35 20 39 26 24 4 -11 8 -13 8 -6z
m2081 -60 c-15 -40 -33 -104 -41 -143 -12 -64 -13 -67 -20 -37 -11 52 -19 50
-19 -4 0 -29 -6 -59 -15 -70 -14 -18 -14 -17 -15 13 0 18 5 67 11 109 11 71
15 80 66 140 30 35 56 64 58 64 1 0 -10 -33 -25 -72z m-1807 17 l6 -39 -19 32
c-22 36 -25 46 -10 37 6 -3 10 -1 10 6 0 23 7 4 13 -36z m625 -47 c1 23 6 42
11 42 20 0 21 -21 1 -72 -16 -42 -29 -58 -63 -79 -35 -21 -46 -37 -67 -89 -13
-34 -26 -58 -28 -51 -2 6 -8 8 -14 5 -7 -4 -7 0 0 13 6 10 10 39 10 65 -1 28
6 58 18 79 22 38 44 49 45 22 0 -10 9 5 19 33 10 29 26 64 36 80 l19 28 6 -59
c5 -52 6 -54 7 -17z m-831 50 c7 -9 4 -26 -8 -53 l-18 -40 -1 53 c0 51 8 64
27 40z m-2920 -125 c-2 -21 -4 -6 -4 32 0 39 2 55 4 38 2 -18 2 -50 0 -70z
m1623 -44 c105 -109 132 -132 170 -143 52 -16 283 -106 290 -114 3 -3 -6 -2
-20 1 -14 4 -88 12 -165 17 -190 14 -236 27 -285 82 -21 24 -51 71 -65 106
-14 34 -43 92 -65 128 l-40 66 27 -6 c18 -4 73 -53 153 -137z m-873 109 c-3
-8 -6 -5 -6 6 -1 11 2 17 5 13 3 -3 4 -12 1 -19z m2122 -55 c-1 -55 -3 -71 -9
-56 -5 12 -8 44 -6 70 4 59 5 63 10 63 3 0 5 -35 5 -77z m-2719 8 c0 -41 38
-123 96 -207 l37 -53 -7 -78 c-9 -104 -9 -112 -1 -154 6 -29 4 -37 -10 -43
-10 -3 -20 -4 -23 -1 -11 11 -3 102 12 137 17 40 20 101 6 133 -6 14 -9 4 -9
-38 -1 -34 -8 -71 -18 -90 -9 -18 -20 -50 -24 -72 -6 -35 -7 -32 -8 26 -1 77
-19 135 -58 185 -18 25 -27 47 -26 71 1 19 -5 49 -12 67 -7 17 -16 54 -20 83
-8 59 5 82 42 75 19 -4 23 -11 23 -41z m1349 -56 c16 -33 32 -71 36 -85 5 -23
4 -22 -24 9 -17 19 -41 68 -56 110 -22 69 -23 74 -5 51 11 -14 33 -52 49 -85z
m1567 28 c-14 -15 -21 6 -12 37 l10 35 4 -33 c2 -19 1 -36 -2 -39z m-2855 32
c32 -21 39 -33 52 -94 9 -39 28 -94 43 -122 17 -35 27 -73 30 -113 l4 -61 -23
67 c-12 36 -38 90 -58 120 -61 90 -88 144 -95 187 -4 22 -3 41 2 41 5 0 26
-11 45 -25z m3085 -77 c4 -33 0 -51 -15 -75 -20 -33 -41 -43 -41 -22 0 6 7 36
16 66 9 32 14 71 11 92 l-6 36 15 -27 c8 -15 17 -47 20 -70z m-535 24 c1 -33
2 -34 9 -12 4 14 8 20 9 14 1 -6 12 -9 26 -7 19 4 27 0 36 -19 9 -21 7 -33
-12 -69 -12 -24 -23 -39 -25 -34 -1 6 -5 27 -9 48 -3 20 -10 37 -16 37 -6 0
-20 -23 -33 -52 -23 -51 -23 -52 -36 -28 -20 38 -17 91 9 133 27 44 41 40 42
-11z m-1105 26 c16 -7 91 -51 167 -96 160 -97 332 -181 437 -214 63 -20 92
-39 79 -53 -9 -8 -200 56 -344 115 -82 34 -172 69 -199 78 -39 14 -64 33 -124
100 -73 80 -76 96 -16 70z m-1356 -8 c5 0 14 -17 21 -37 7 -21 18 -47 24 -58
17 -26 71 -225 82 -295 4 -30 12 -53 17 -52 11 4 26 -18 26 -38 0 -8 -11 -28
-25 -45 -21 -25 -26 -28 -35 -15 -5 8 -10 38 -10 65 0 28 -9 69 -20 94 -11 23
-25 73 -31 109 -5 37 -20 82 -31 100 -12 19 -29 68 -38 109 -15 63 -16 73 -3
69 8 -3 18 -6 23 -6z m1043 -97 c53 -71 93 -111 140 -143 66 -45 67 -45 67
-93 0 -36 -3 -46 -12 -41 -41 23 -79 59 -98 92 -11 20 -34 44 -49 53 -20 12
-45 48 -80 118 -74 146 -71 147 32 14z m3264 40 c-3 -10 -5 -4 -5 12 0 17 2
24 5 18 2 -7 2 -21 0 -30z m-3777 -17 c0 -12 -5 -7 -19 24 -11 24 -11 24 3 6
9 -11 16 -24 16 -30z m1736 -54 c-14 -68 -52 -170 -60 -161 -6 6 24 129 45
184 10 28 20 57 20 65 1 12 2 12 6 -1 2 -9 -3 -48 -11 -87z m483 41 c0 -32 -4
-78 -8 -103 -6 -42 -7 -43 -14 -17 -4 15 -5 58 -1 95 4 37 3 63 -2 59 -4 -4
-9 -35 -11 -69 -2 -35 -8 -65 -13 -68 -4 -3 -24 -39 -43 -80 -29 -65 -40 -78
-79 -99 -26 -14 -55 -41 -71 -65 -28 -44 -126 -144 -109 -111 5 11 28 40 49
65 22 25 66 83 98 130 33 47 77 107 98 135 39 49 48 66 61 115 4 14 -4 4 -16
-21 -22 -43 -155 -229 -164 -229 -3 0 4 17 14 38 11 20 25 55 32 76 7 22 26
51 42 64 16 13 43 45 60 71 59 88 78 91 77 14z m65 -55 c6 -59 5 -73 -10 -89
-37 -41 -44 -26 -43 92 l2 110 22 -21 c17 -16 24 -37 29 -92z m366 48 c12 -30
28 -57 35 -60 8 -3 25 9 40 27 33 43 32 27 -6 -50 -23 -47 -33 -85 -39 -150
-13 -130 -21 -146 -82 -166 -29 -9 -53 -15 -55 -14 -5 6 28 168 50 237 l23 75
12 -78 c17 -109 16 -112 -23 -151 -19 -20 -35 -40 -35 -45 0 -6 19 10 41 34
41 44 42 47 36 99 -3 30 -1 71 3 92 10 41 -6 118 -21 108 -5 -3 -9 3 -9 13 0
10 -3 36 -7 57 -9 54 9 40 37 -28z m1324 -13 c-6 -62 -13 -77 -75 -173 -37
-58 -81 -124 -97 -146 -17 -23 -33 -60 -37 -82 -7 -46 -44 -90 -46 -56 -2 36
1 79 18 227 l17 148 32 14 c17 7 49 29 70 48 37 32 112 87 121 87 2 0 1 -30
-3 -67z m-2212 -45 c-6 -18 -13 -42 -17 -53 -6 -19 -6 -19 8 -2 9 10 19 42 23
70 l7 52 9 -34 c12 -45 -6 -112 -38 -142 l-23 -22 4 49 c2 27 9 65 15 84 5 19
11 48 12 65 l1 30 4 -32 c2 -18 0 -47 -5 -65z m-2194 65 c5 -10 12 -52 15 -93
l5 -75 -17 70 c-10 39 -21 80 -25 93 -9 26 9 30 22 5z m2382 -73 c-7 -16 -25
-40 -40 -54 -16 -14 -34 -42 -40 -63 -16 -59 -52 -115 -89 -140 -19 -13 -39
-23 -45 -22 -6 0 -6 3 2 6 6 2 9 10 5 16 -3 7 -2 9 2 4 10 -9 68 69 99 133 12
25 32 61 44 80 12 19 30 57 39 83 l18 49 8 -33 c5 -20 4 -42 -3 -59z m110 35
c-12 -20 -25 -34 -27 -31 -3 3 5 21 17 41 12 20 25 34 27 31 3 -3 -5 -21 -17
-41z m-366 21 c-8 -21 -32 -27 -70 -20 -29 5 -34 3 -47 -23 -8 -15 -23 -54
-32 -85 -9 -32 -20 -60 -25 -63 -5 -3 -46 7 -91 21 l-83 26 27 15 c16 8 60 23
100 33 40 10 60 19 45 19 -15 1 -64 -11 -109 -25 -69 -22 -85 -24 -110 -14
-16 7 -29 16 -29 20 0 4 28 15 63 24 34 10 94 27 132 38 61 17 185 44 222 47
7 1 10 -5 7 -13z m334 -31 c-25 -52 -51 -69 -38 -26 12 45 29 71 45 71 12 0
10 -9 -7 -45z m-2126 -25 c5 -14 14 -47 19 -74 5 -27 22 -77 38 -110 15 -34
31 -85 34 -115 6 -47 13 -61 51 -100 43 -46 44 -46 48 -131 5 -82 5 -83 -8
-42 -17 57 -74 156 -84 145 -5 -4 -10 -17 -12 -28 -2 -11 -12 20 -22 69 -15
68 -16 91 -7 94 8 3 2 21 -19 58 -20 35 -37 90 -50 155 -11 55 -25 110 -31
122 l-12 22 23 -20 c12 -11 27 -31 32 -45z m3865 38 c-3 -8 -6 -5 -6 6 -1 11
2 17 5 13 3 -3 4 -12 1 -19z m-4088 -38 c0 -10 -3 -8 -9 5 -12 27 -12 43 0 25
5 -8 9 -22 9 -30z m423 -129 l1 -56 6 50 6 50 27 -35 c37 -49 44 -98 21 -145
l-19 -37 -13 44 c-7 23 -23 59 -35 78 -13 19 -29 53 -36 75 -7 22 -18 51 -25
65 -7 14 -15 39 -19 55 -6 26 -1 22 38 -29 41 -52 46 -64 48 -115z m3048 157
c0 -17 -29 -227 -36 -257 -4 -17 -8 -21 -16 -13 -12 12 -7 249 5 270 10 16 47
16 47 0z m264 -50 c-8 -31 -37 -87 -69 -134 -83 -123 -89 -123 -55 5 42 154
44 159 82 170 56 16 56 15 42 -41z m-929 20 c-4 -13 -9 -76 -11 -140 -2 -121
-14 -161 -60 -198 -8 -7 -25 -27 -36 -44 l-22 -31 29 25 c16 14 39 36 53 50
l23 25 -5 -30 c-6 -27 -88 -115 -108 -115 -16 0 6 69 50 158 25 51 42 95 39
98 -3 3 -24 -29 -45 -72 -37 -73 -41 -77 -47 -52 -4 16 -18 31 -36 38 -26 11
-28 15 -15 29 23 27 126 204 126 219 0 15 48 62 63 62 5 0 6 -9 2 -22z m-865
-24 c0 -20 -7 -50 -15 -67 -26 -57 -56 -140 -52 -144 5 -5 65 138 82 197 10
34 14 39 15 20 l2 -25 7 24 c4 14 13 27 20 29 17 6 12 -23 -20 -131 -24 -78
-76 -144 -104 -133 -8 3 -15 0 -15 -6 0 -21 -72 -99 -105 -112 -19 -8 -44 -31
-57 -50 -15 -24 -45 -47 -88 -69 -72 -37 -232 -133 -296 -178 l-41 -28 -7 47
c-3 26 -13 57 -21 69 -13 19 -13 21 8 27 12 3 33 6 47 6 14 0 49 11 78 25 30
14 65 25 79 25 24 0 23 -3 -22 -42 -27 -24 -64 -54 -82 -66 -19 -13 -32 -26
-29 -29 7 -8 69 33 134 88 32 27 83 58 115 70 45 17 69 34 105 76 25 29 61 62
79 73 43 25 77 80 108 175 41 128 56 165 66 165 5 0 9 -16 9 -36z m1017 -26
c-2 -13 -4 -5 -4 17 -1 22 1 32 4 23 2 -10 2 -28 0 -40z m-2747 -102 c0 -11
12 -39 26 -64 20 -34 27 -60 29 -116 1 -39 6 -95 10 -123 5 -35 4 -53 -3 -53
-11 0 -20 41 -30 146 -7 71 -32 104 -32 42 0 -18 -5 -51 -11 -72 -9 -34 -12
-37 -21 -22 -5 10 -8 34 -6 54 5 37 -6 239 -17 310 -5 35 -3 33 25 -23 16 -33
30 -69 30 -79z m2277 41 c-12 -21 -58 -81 -102 -133 -44 -53 -92 -118 -107
-146 -15 -28 -36 -61 -46 -72 -11 -12 -22 -28 -26 -36 -4 -8 9 3 30 25 20 22
43 56 51 75 9 19 46 69 83 110 37 41 85 103 107 137 l41 62 23 -43 c21 -40 22
-48 11 -85 -19 -61 -42 -54 -43 12 -1 50 -1 51 -10 18 -7 -21 -7 -43 0 -61 8
-24 6 -32 -16 -52 -14 -12 -49 -59 -78 -103 -29 -44 -67 -90 -83 -102 -17 -13
-49 -54 -72 -92 -22 -38 -51 -82 -64 -98 -13 -15 -30 -42 -39 -59 -9 -18 -29
-37 -44 -43 -28 -11 -78 -38 -143 -79 -19 -12 -48 -22 -63 -22 -15 0 -43 -7
-62 -14 -19 -8 -35 -11 -35 -7 0 19 40 40 106 55 69 17 72 19 90 59 11 23 42
64 69 90 l50 49 -46 -31 c-32 -21 -55 -48 -75 -86 -25 -47 -34 -56 -64 -61
-99 -17 -150 -44 -150 -81 0 -15 -9 -16 -30 -3 -11 7 -12 15 -5 36 11 29 25
40 65 48 16 3 32 19 45 42 11 20 35 48 55 62 66 49 131 117 150 158 10 23 67
98 127 165 60 68 118 137 128 152 17 26 67 61 90 62 6 0 27 35 49 79 26 52 41
74 46 65 5 -7 0 -28 -13 -52z m1549 -9 c-4 -40 -12 -128 -18 -195 l-11 -123
-53 -36 c-37 -25 -54 -44 -58 -65 -15 -74 -40 -142 -62 -167 l-23 -27 -1 60
c0 44 8 82 31 140 35 91 71 207 65 212 -2 3 -11 -17 -20 -44 -9 -26 -30 -82
-46 -123 l-31 -75 6 50 c3 28 16 100 30 160 14 61 27 126 30 146 4 29 12 39
35 49 17 7 49 34 71 61 23 27 45 49 51 49 6 0 8 -26 4 -72z m-1766 59 c0 -2
-10 -12 -22 -23 l-23 -19 19 23 c18 21 26 27 26 19z m70 -6 c0 -29 -68 -176
-99 -213 -20 -25 -52 -73 -71 -107 -39 -71 -109 -157 -123 -153 -4 1 -6 -2 -3
-7 17 -28 -46 -109 -138 -177 -21 -15 -49 -45 -62 -66 -16 -25 -35 -40 -56
-46 -31 -8 -49 -29 -62 -74 -4 -14 -16 -18 -48 -17 l-43 0 29 22 c100 75 148
122 170 166 14 26 44 64 68 83 25 20 59 56 77 80 93 125 128 179 148 224 29
65 72 171 85 212 6 17 16 32 23 32 6 0 26 11 45 25 35 26 60 32 60 16z m-1793
-33 c-3 -8 -6 -5 -6 6 -1 11 2 17 5 13 3 -3 4 -12 1 -19z m604 -39 c36 -22 84
-47 107 -56 23 -9 42 -19 42 -22 0 -3 -35 -16 -77 -28 -61 -17 -81 -19 -92
-10 -21 18 -71 99 -71 116 0 8 -8 23 -17 34 -18 20 -17 20 12 13 17 -4 60 -25
96 -47z m254 12 c77 -6 151 -12 165 -15 55 -10 240 -71 240 -78 0 -19 -47 -79
-66 -84 -22 -6 -194 50 -264 86 -34 17 -52 20 -90 15 -42 -6 -56 -2 -126 33
-44 22 -90 49 -104 60 l-25 20 65 -13 c36 -8 128 -19 205 -24z m638 20 c3 -13
-8 -31 -35 -58 -38 -37 -39 -37 -28 -9 8 22 48 82 56 85 1 1 4 -8 7 -18z
m1693 -68 c-5 -46 -15 -80 -30 -103 -13 -19 -35 -55 -50 -80 -35 -61 -33 -49
13 66 79 199 53 168 -34 -41 -26 -60 -54 -127 -63 -149 -19 -44 -78 -122 -69
-91 32 112 47 168 58 209 9 34 28 66 58 101 25 28 62 74 81 103 19 29 37 52
39 52 2 0 1 -30 -3 -67z m-1652 35 c-9 -31 -49 -110 -95 -190 -34 -57 -46 -70
-92 -91 -28 -13 -77 -44 -107 -69 -30 -25 -64 -48 -76 -52 -11 -3 -63 -31
-115 -62 -127 -75 -310 -157 -323 -144 -22 22 110 109 204 137 65 18 129 49
208 101 31 20 88 53 126 72 38 19 74 44 80 55 6 11 21 38 35 60 21 34 21 38 4
22 -11 -10 -28 -35 -38 -57 -14 -31 -28 -43 -69 -60 -28 -12 -80 -42 -116 -65
-82 -54 -188 -107 -203 -102 -7 2 32 29 86 61 77 45 101 65 117 96 14 27 28
40 49 45 16 3 49 27 73 53 25 26 76 69 114 96 38 27 82 65 97 83 33 38 51 43
41 11z m959 7 c-3 -9 -8 -14 -10 -11 -3 3 -2 9 2 15 9 16 15 13 8 -4z m-26
-42 c-3 -10 -5 -2 -5 17 0 19 2 27 5 18 2 -10 2 -26 0 -35z m-3224 -64 c-6 -6
-7 3 -4 23 4 28 6 29 9 9 2 -13 0 -27 -5 -32z m2298 28 c-10 -9 -11 -8 -5 6 3
10 9 15 12 12 3 -3 0 -11 -7 -18z m-517 -71 c66 -25 121 -48 123 -49 1 -2 -12
-23 -30 -46 -41 -54 -93 -81 -179 -92 -37 -5 -85 -17 -105 -27 -21 -11 -62
-22 -91 -26 -29 -4 -58 -9 -66 -12 -22 -8 -44 63 -39 123 4 41 1 60 -15 86
l-20 34 57 18 c92 30 164 44 206 41 22 -2 94 -24 159 -50z m1274 -8 c-4 -9 -8
-25 -8 -36 0 -11 -7 -25 -15 -32 -13 -11 -13 -8 0 30 8 23 15 57 16 74 1 30 1
30 8 6 5 -14 4 -33 -1 -42z m-2325 -9 c8 -27 21 -48 34 -53 18 -8 20 -16 16
-45 -3 -20 -7 -38 -9 -40 -9 -11 -74 53 -84 84 -9 28 -8 40 6 70 9 20 18 34
21 32 2 -2 9 -24 16 -48z m-653 -6 c0 -23 -4 -33 -9 -27 -9 8 -4 64 5 64 2 0
4 -17 4 -37z m2239 -24 c-17 -34 -47 -83 -67 -109 -20 -26 -45 -62 -54 -79
-11 -19 -33 -38 -55 -48 -21 -8 -50 -24 -65 -34 -40 -29 -45 -23 -11 14 18 17
47 58 66 90 19 32 46 66 60 77 13 11 30 33 37 50 9 21 18 29 29 25 9 -2 23 0
31 5 11 7 7 10 -17 10 -26 0 -36 -6 -48 -29 -8 -17 -20 -33 -27 -37 -7 -4 -1
12 13 35 23 39 64 66 137 90 1 1 -12 -27 -29 -60z m379 -30 c-27 -51 -54 -89
-73 -100 -16 -10 -31 -17 -33 -14 -11 10 127 195 146 195 2 0 -16 -37 -40 -81z
m72 58 c0 -7 -9 -29 -20 -50 -25 -46 -17 -49 11 -4 18 28 20 29 14 7 -3 -14
-11 -58 -17 -99 -10 -67 -14 -74 -39 -83 -27 -9 -71 -65 -89 -113 -5 -14 -17
-25 -25 -25 -17 0 -12 13 31 80 12 19 25 58 29 85 6 51 84 225 98 218 4 -2 7
-10 7 -16z m51 -7 c19 -11 19 -11 -1 -50 -28 -54 -25 -63 5 -15 24 38 25 39
25 13 0 -15 -16 -53 -35 -85 -36 -60 -43 -79 -24 -67 8 5 8 1 0 -14 -13 -25
-130 -126 -137 -119 -12 11 48 87 79 100 32 14 32 14 45 121 7 59 10 111 7
116 -8 13 11 13 36 0z m195 -45 c-4 -14 -10 -25 -15 -25 -5 0 -4 16 2 36 12
39 23 29 13 -11z m-2710 -56 c31 -87 63 -132 88 -123 10 4 25 -9 45 -37 17
-23 31 -39 31 -34 0 4 7 2 15 -5 8 -7 21 -10 29 -7 17 7 21 -5 31 -78 7 -55 6
-55 -49 22 -34 47 -98 98 -185 145 -30 16 -31 20 -32 80 0 53 -2 59 -10 38 -6
-14 -8 -44 -4 -68 6 -38 4 -43 -17 -51 -13 -5 -25 -7 -27 -5 -6 5 47 204 54
204 2 0 16 -36 31 -81z m2843 -21 c-16 -51 -47 -130 -69 -176 -21 -45 -42 -99
-45 -120 -4 -20 -13 -56 -22 -80 -17 -49 -40 -62 -107 -62 -23 0 -51 -7 -62
-15 -33 -25 -37 -16 -10 29 14 25 26 52 26 61 0 24 30 77 55 97 34 26 99 143
131 233 15 44 28 81 30 83 1 2 24 11 50 22 27 10 50 19 50 19 1 1 -11 -41 -27
-91z m432 -5 c-24 -88 -42 -136 -48 -129 -2 2 10 52 28 110 37 122 51 136 20
19z m-556 -38 c-32 -86 -89 -183 -127 -215 -17 -15 -37 -48 -48 -81 -23 -72
-65 -137 -93 -148 -62 -23 -67 -23 -67 0 0 23 30 69 85 129 17 19 45 60 62 90
17 30 41 73 53 95 13 22 17 35 10 28 -14 -13 -45 -63 -81 -128 -11 -22 -38
-58 -59 -80 -49 -52 -90 -115 -90 -137 0 -12 -8 -18 -21 -18 -18 0 -20 4 -15
26 10 37 52 102 101 154 41 44 146 213 160 257 11 38 144 128 153 104 1 -5 -9
-39 -23 -76z m1325 45 c-19 -17 -60 -46 -91 -65 -49 -30 -59 -43 -82 -97 -15
-35 -36 -94 -48 -133 -17 -59 -72 -189 -86 -204 -2 -3 -8 0 -14 6 -7 7 -2 27
15 66 23 52 50 135 90 279 16 56 17 58 104 111 93 57 108 65 132 66 9 0 0 -12
-20 -29z m-3573 -52 c6 -7 14 -28 18 -46 l7 -33 -35 36 c-19 19 -36 35 -38 35
-3 0 -3 -30 -1 -67 4 -60 2 -66 -11 -53 -23 23 -37 78 -37 141 l0 58 44 -29
c24 -16 48 -35 53 -42z m-726 9 c14 -26 44 -61 66 -78 41 -31 46 -52 17 -63
-16 -6 -59 13 -106 46 -34 24 -53 84 -38 123 14 36 30 28 61 -28z m3649 -44
c-53 -171 -79 -222 -118 -241 -20 -9 -50 -37 -67 -61 -16 -24 -58 -71 -92
-106 -35 -34 -63 -67 -63 -73 0 -25 -22 -10 -37 26 -14 30 -17 33 -21 17 -5
-24 -20 -35 -49 -35 -41 0 -44 29 -8 79 18 25 49 77 70 115 39 71 53 83 163
138 45 23 67 41 78 64 12 25 155 164 169 164 1 0 -9 -39 -25 -87z m-1585 27
c-39 -77 -91 -129 -134 -136 -30 -5 -42 -14 -66 -51 -18 -30 -52 -60 -96 -88
-37 -24 -70 -48 -74 -54 -3 -6 -11 -11 -17 -11 -18 0 31 47 83 81 48 30 120
116 133 156 13 42 148 151 189 153 4 0 -4 -23 -18 -50z m711 12 c-18 -16 -18
-16 -6 6 6 13 14 21 18 18 3 -4 -2 -14 -12 -24z m-183 -9 c-4 -10 -35 -49 -69
-87 -35 -38 -76 -95 -91 -127 -22 -45 -36 -62 -65 -75 -57 -26 -64 -14 -25 41
19 28 56 85 81 127 41 68 54 82 104 107 67 35 73 37 65 14z m-2048 -178 c7
-102 2 -142 -16 -114 -4 8 -6 23 -3 35 9 34 -13 130 -39 171 -19 31 -21 43
-13 65 l10 28 27 -42 c23 -35 28 -55 34 -143z m2226 57 c-27 -48 -75 -116
-106 -152 -31 -36 -68 -91 -82 -122 -23 -48 -29 -55 -44 -47 -10 5 -30 9 -44
9 l-26 0 29 43 c17 23 42 61 56 84 14 23 33 44 43 47 10 3 28 27 40 53 12 27
36 57 53 68 17 11 52 47 77 80 66 84 69 49 4 -63z m-2621 63 c-21 -25 -32 -17
-13 9 10 13 20 20 21 15 2 -5 -2 -16 -8 -24z m987 -40 c-4 -22 1 -45 14 -69
22 -42 24 -75 6 -101 -28 -37 -37 -7 -37 118 1 92 3 117 11 103 6 -10 9 -33 6
-51z m1458 43 c-4 -13 -20 -42 -36 -65 -16 -23 -29 -46 -29 -51 0 -13 -77 -92
-90 -92 -11 0 10 57 33 90 14 20 119 137 125 139 2 0 0 -9 -3 -21z m465 -133
c-37 -162 -56 -215 -79 -215 -28 0 -31 10 -11 43 10 18 24 61 30 96 9 51 78
217 86 208 2 -1 -10 -61 -26 -132z m-2787 109 c68 -35 128 -87 172 -152 25
-37 67 -97 93 -134 101 -144 104 -170 4 -44 -57 72 -110 124 -168 164 -18 12
-53 56 -79 97 -26 42 -49 74 -52 71 -3 -3 13 -33 34 -68 22 -35 52 -85 66
-113 14 -27 48 -81 77 -120 47 -63 50 -70 31 -73 -24 -4 -55 28 -102 108 -18
30 -52 80 -75 110 -33 42 -74 136 -74 167 0 9 45 1 73 -13z m467 -51 c0 -13
-4 -23 -10 -23 -5 0 -10 6 -10 14 0 7 -3 29 -6 47 l-5 34 15 -25 c8 -14 15
-35 16 -47z m1105 -5 c-37 -58 -74 -97 -109 -115 -15 -8 -47 -31 -70 -52 -22
-21 -57 -47 -77 -58 l-36 -21 0 40 c0 32 4 41 23 48 12 5 37 25 55 44 18 20
39 36 48 37 13 0 12 2 -2 8 -14 5 5 20 85 63 56 31 105 55 107 52 2 -2 -9 -23
-24 -46z m-1700 -36 c-16 -45 -25 -94 -25 -130 0 -72 -11 -85 -56 -66 -18 8
-47 14 -63 14 -16 0 -32 4 -35 9 -3 5 18 35 47 68 28 33 74 88 100 122 27 35
50 61 53 59 2 -3 -7 -37 -21 -76z m1930 55 c-8 -13 -27 -30 -41 -38 -15 -8
-40 -40 -59 -79 -23 -45 -47 -75 -79 -99 -42 -31 -51 -34 -106 -32 -59 2 -62
1 -102 -39 -36 -35 -44 -40 -67 -32 -37 12 -41 42 -5 42 16 0 44 14 68 33 23
18 67 50 98 71 33 21 69 56 85 81 28 45 45 55 98 55 17 0 51 13 75 29 25 16
46 30 48 30 1 1 -4 -10 -13 -22z m-2079 -10 c33 -17 60 -44 52 -52 -3 -3 -31
10 -63 30 -33 19 -64 35 -69 34 -12 0 -9 -2 71 -52 l51 -32 -70 -82 c-62 -73
-74 -83 -103 -83 -27 0 -40 8 -73 48 l-39 47 18 40 c10 22 19 48 19 57 0 11
19 27 47 41 53 28 112 29 159 4z m214 -52 c0 -6 -16 -40 -35 -75 l-35 -65 0
44 c0 24 10 70 23 102 l22 59 12 -28 c7 -15 12 -32 13 -37z m853 15 c21 0 21
-3 1 -42 -9 -17 -13 -40 -10 -52 5 -21 -13 -86 -24 -86 -3 0 -19 34 -35 75
-15 41 -30 75 -33 75 -3 0 -2 -18 1 -41 6 -48 -2 -43 -23 14 -14 37 -14 45 0
72 l15 30 45 -22 c25 -12 53 -23 63 -23z m2539 -92 c-28 -57 -57 -123 -64
-148 -12 -42 -17 -47 -88 -81 -41 -20 -86 -40 -99 -44 l-25 -7 22 33 c14 23
32 37 58 44 28 7 46 22 77 65 22 30 55 72 72 93 18 20 45 67 60 104 16 37 31
61 33 55 2 -7 -19 -58 -46 -114z m-2244 -88 c-1 -154 -1 -155 -14 -95 l-14 60
5 -61 c8 -104 21 -119 50 -51 17 38 18 40 22 17 3 -14 20 -45 39 -70 35 -44
52 -86 40 -97 -3 -4 -41 -8 -84 -11 l-78 -4 -42 67 c-29 45 -52 71 -72 78 -28
11 -29 14 -23 52 7 49 75 217 90 222 6 2 2 -26 -10 -66 -16 -55 -18 -76 -10
-103 l10 -33 7 30 c3 17 16 64 28 105 12 41 23 95 26 119 4 44 5 44 18 20 10
-17 13 -66 12 -179z m-534 100 c-5 -39 -1 -59 25 -118 17 -38 31 -76 31 -84 0
-7 10 -24 21 -38 l21 -25 -15 26 c-9 14 -19 44 -22 65 -4 21 -15 53 -25 69
-10 17 -20 46 -23 65 l-6 35 20 -39 c22 -41 123 -181 137 -190 5 -3 6 9 4 26
-6 38 11 35 46 -10 l24 -32 -27 -10 c-14 -5 -42 -22 -61 -36 -29 -23 -37 -25
-52 -13 -118 89 -165 208 -131 334 18 69 20 73 30 46 5 -13 7 -45 3 -71z
m-1059 39 c-21 -59 -23 -61 -57 -43 l-31 16 29 24 c23 20 53 38 71 43 1 1 -4
-17 -12 -40z m4163 -129 l-23 -60 -52 0 c-28 0 -54 4 -57 9 -3 4 -19 11 -36
15 l-31 6 40 52 c36 48 106 109 156 136 19 10 20 7 23 -44 2 -38 -4 -72 -20
-114z m-3348 102 c0 -28 -3 -33 -10 -22 -13 20 -13 73 0 65 6 -3 10 -23 10
-43z m2033 21 c-4 -10 -22 -34 -42 -54 -20 -20 -53 -64 -75 -98 -32 -52 -48
-67 -93 -88 -30 -14 -65 -40 -78 -58 -20 -26 -30 -31 -55 -27 -16 2 -30 6 -30
8 0 9 75 70 126 102 43 27 63 50 104 117 44 73 56 85 93 98 55 20 57 20 50 0z
m-989 -19 c-23 -35 -62 -53 -131 -59 l-58 -6 90 45 c107 53 122 56 99 20z
m-1386 -121 c-2 -50 -6 -94 -9 -98 -4 -3 -32 8 -63 25 l-55 32 20 21 c12 12
37 53 56 92 34 66 36 69 45 45 5 -14 8 -66 6 -117z m1158 100 c-11 -11 -19 6
-11 24 8 17 8 17 12 0 3 -10 2 -21 -1 -24z m-657 -10 c10 -21 22 -58 26 -83
11 -75 49 -144 113 -209 54 -54 63 -60 80 -50 30 19 103 -31 101 -69 0 -10 40
-20 92 -21 25 -1 49 -5 55 -10 12 -13 164 -71 189 -72 11 -1 -18 -5 -65 -9
-74 -7 -88 -5 -111 11 -14 10 -50 28 -80 39 -30 12 -85 39 -124 60 -38 21 -86
41 -105 45 -19 4 -67 29 -107 55 -40 27 -81 51 -93 55 -13 4 -20 15 -21 33 0
15 -2 36 -4 46 -2 11 0 27 5 35 7 12 10 9 16 -14 8 -35 50 -95 66 -95 6 0 2
10 -9 23 -11 12 -31 42 -43 66 -19 39 -21 53 -15 122 4 44 9 79 11 79 2 0 12
-17 23 -37z m-413 -78 c20 -33 47 -72 60 -86 l24 -25 -30 -29 c-21 -20 -33
-25 -42 -18 -7 6 -30 13 -51 17 -35 6 -37 9 -30 34 10 34 10 125 1 177 l-7 40
20 -25 c11 -14 36 -52 55 -85z m4174 95 c0 -5 -19 -27 -42 -47 -257 -233 -275
-250 -310 -305 -29 -45 -53 -52 -82 -26 l-26 23 56 75 c30 41 64 92 75 113 11
20 25 37 31 37 7 0 37 26 68 59 49 53 60 59 105 65 50 6 50 6 25 -11 -43 -31
-130 -115 -130 -128 0 -6 -13 -21 -30 -33 -37 -28 -40 -12 -4 17 29 23 19 29
-11 7 -10 -7 -19 -22 -20 -32 -4 -34 -26 -78 -67 -132 -22 -30 -37 -56 -34
-59 8 -8 5 -12 69 87 51 79 100 134 109 124 3 -2 18 11 34 29 l29 32 -32 -29
c-46 -41 -41 -18 5 25 98 93 182 143 182 109z m-4073 -57 c28 -24 74 -75 101
-113 l51 -69 -46 14 c-25 7 -46 15 -47 17 -1 2 -20 28 -42 58 -55 74 -101 156
-84 145 8 -5 38 -28 67 -52z m3553 -15 c-21 -56 -49 -102 -50 -81 0 29 57 149
67 140 2 -3 -5 -29 -17 -59z m-1546 2 c-28 -47 -61 -78 -107 -101 -23 -12 -57
-32 -74 -46 -25 -18 -40 -23 -65 -18 -21 4 -40 1 -52 -8 -19 -14 -17 -15 18
-13 25 1 41 -4 44 -13 4 -11 -3 -13 -34 -6 -22 4 -49 7 -62 7 -22 0 -22 1 -7
18 24 26 103 66 170 85 33 10 65 21 70 27 6 6 5 8 -5 5 -8 -3 -37 -11 -65 -18
-66 -16 -135 -51 -182 -91 l-38 -33 36 45 c48 59 172 136 236 145 26 3 64 15
83 25 48 26 54 25 34 -10z m1053 -42 c-30 -40 -63 -74 -73 -75 -10 -2 -13 0
-6 3 7 3 29 31 49 62 34 54 59 81 76 82 4 0 -17 -33 -46 -72z m-1947 45 c0 -5
-7 -29 -17 -55 l-16 -47 -29 45 c-15 25 -28 47 -28 49 0 2 17 6 38 8 20 2 40
4 45 5 4 1 7 -1 7 -5z m-1548 -101 c26 -44 89 -99 148 -130 36 -20 56 -37 58
-51 3 -16 -2 -21 -20 -21 -35 0 -194 97 -253 154 l-50 49 39 17 c46 21 56 19
78 -18z m146 -31 c59 -33 123 -62 143 -66 21 -4 54 -23 80 -46 l44 -39 -40 16
c-63 25 -72 27 -105 15 -27 -9 -39 -7 -83 15 -82 42 -127 75 -153 113 -22 33
-23 51 -3 51 6 0 59 -27 117 -59z m1668 46 c-11 -7 -28 -20 -38 -30 -12 -12
-31 -17 -51 -15 l-32 3 27 28 c22 21 36 27 70 26 37 0 41 -2 24 -12z m1374 -5
c0 -4 -9 -13 -19 -19 -15 -10 -22 -9 -31 1 -8 11 -8 15 2 19 20 8 48 8 48 -1z
m586 -4 c2 -3 -16 -26 -41 -52 -24 -26 -50 -61 -57 -77 -7 -17 -22 -32 -33
-34 -108 -22 -167 -30 -177 -23 -10 6 -9 8 2 8 9 0 32 11 52 25 20 14 46 25
57 25 12 0 21 5 21 11 0 16 -46 2 -89 -27 -22 -15 -50 -24 -73 -24 -20 0 -40
-4 -43 -10 -4 -6 7 -10 24 -10 36 0 37 -5 12 -46 -14 -23 -29 -33 -58 -38 -21
-4 -48 -10 -60 -13 -20 -5 -19 -1 14 62 31 59 42 70 82 86 46 20 58 26 206
106 65 36 87 43 118 39 21 -2 40 -6 43 -8z m-659 -24 c13 -20 10 -24 -59 -75
-40 -29 -87 -66 -104 -82 -31 -28 -33 -29 -88 -17 -31 6 -61 8 -68 4 -32 -20
24 45 68 79 65 49 194 117 218 114 10 -1 25 -12 33 -23z m-1648 -36 c40 -71
92 -121 121 -116 17 2 27 -5 41 -31 21 -40 19 -47 -11 -31 -13 7 -37 9 -60 5
-37 -6 -38 -5 -50 29 -6 20 -27 54 -46 77 -26 31 -34 50 -34 80 0 21 2 39 4
39 3 0 18 -24 35 -52z m120 7 c0 -5 -4 -3 -9 5 -5 8 -9 22 -9 30 0 16 17 -16
18 -35z m1331 35 l-35 -7 35 -2 34 -1 -57 -36 -58 -36 -40 16 c-45 18 -61 20
-39 5 11 -8 6 -9 -20 -4 -27 5 -32 4 -20 -5 12 -9 9 -10 -13 -5 -21 4 -27 3
-21 -6 5 -9 2 -10 -9 -6 -10 3 -17 2 -17 -3 0 -5 -28 -25 -62 -44 -35 -20 -58
-36 -51 -36 7 0 42 16 78 36 47 26 82 37 125 41 33 3 60 3 60 -1 0 -4 -11 -22
-25 -40 -21 -27 -35 -34 -92 -45 -38 -7 -96 -24 -130 -38 -50 -19 -72 -23
-109 -17 -25 3 -42 10 -37 14 4 5 49 32 98 60 128 73 130 83 3 17 -59 -32
-120 -57 -135 -58 l-28 -1 25 -8 c23 -7 22 -8 -10 -9 -45 -1 -67 11 -48 26 23
20 191 93 248 109 97 28 235 74 250 84 8 5 42 9 75 9 52 -1 55 -3 25 -9z
m1002 -9 c37 -15 108 -87 108 -109 0 -27 -50 -42 -137 -42 -58 0 -66 -3 -102
-35 -51 -46 -69 -46 -69 3 0 61 61 112 135 112 21 0 51 9 68 20 l30 20 -60 -6
c-62 -6 -114 -32 -167 -82 -23 -21 -28 -23 -28 -9 0 10 26 45 58 77 52 54 62
60 99 60 23 0 52 -4 65 -9z m-2372 -27 c0 -8 -4 -12 -10 -9 -5 3 -10 13 -10
21 0 8 5 12 10 9 6 -3 10 -13 10 -21z m-415 -9 l30 -24 -34 -1 c-32 0 -71 23
-71 42 0 17 46 7 75 -17z m929 10 c-7 -18 -48 -30 -65 -19 -16 10 17 34 48 34
16 0 21 -4 17 -15z m480 -8 c16 -12 14 -14 -25 -26 -24 -7 -61 -22 -81 -32
-21 -11 -51 -19 -69 -19 -30 0 -31 1 -17 23 33 51 150 85 192 54z m-1914 -56
c89 -28 179 -75 194 -100 12 -18 -14 -12 -41 9 -32 25 -143 60 -192 60 -28 0
-44 7 -66 30 -16 17 -34 30 -39 30 -6 0 9 -17 33 -38 l43 -37 -20 -25 c-18
-22 -22 -23 -47 -12 -45 21 -95 63 -95 81 0 51 77 51 230 2z m2518 23 c8 -14
-6 -25 -86 -66 -52 -27 -97 -47 -99 -44 -6 5 155 126 167 126 5 0 13 -7 18
-16z m740 9 c-10 -2 -26 -2 -35 0 -10 3 -2 5 17 5 19 0 27 -2 18 -5z m712 -32
c-25 -21 -46 -38 -48 -36 -7 7 22 43 47 58 47 29 47 18 1 -22z m-3401 -12 c22
-8 44 -30 75 -78 31 -48 54 -73 82 -86 34 -16 67 -45 60 -52 -1 -2 -34 8 -72
21 -63 22 -66 25 -34 26 l35 2 -29 8 c-16 5 -47 26 -68 47 -43 42 -52 34 -10
-10 22 -24 23 -29 7 -22 -11 4 -43 11 -71 14 -41 5 -61 15 -93 44 -22 20 -52
39 -66 43 l-26 6 33 24 c36 27 119 33 177 13z m2081 -14 c7 -9 11 -17 9 -18
-60 -36 -293 -132 -284 -116 3 4 52 32 110 61 57 29 102 54 101 56 -5 4 -161
-71 -204 -98 -20 -12 -30 -25 -26 -32 4 -7 3 -8 -5 -4 -7 5 -28 -9 -53 -33
-31 -32 -48 -41 -74 -41 -82 0 -10 63 184 163 158 80 215 95 242 62z m-2565
-45 c28 -10 49 -23 48 -29 -2 -5 3 -8 11 -5 32 12 24 -17 -12 -41 l-38 -25
-74 25 c-106 36 -107 37 -79 74 20 28 27 30 58 25 20 -4 59 -15 86 -24z m-336
-11 c36 -11 120 -41 186 -66 66 -24 145 -54 175 -65 85 -32 390 -181 390 -191
0 -5 -20 -7 -45 -5 -39 3 -43 1 -28 -9 12 -10 13 -13 3 -13 -8 0 -26 12 -41
26 l-27 26 -52 -17 c-59 -20 -88 -17 -225 19 -113 30 -118 33 -200 110 l-60
57 35 -7 c19 -4 57 -15 83 -25 27 -11 46 -15 42 -9 -8 14 -135 51 -154 46 -17
-6 -90 48 -79 59 3 3 57 -8 120 -25 62 -17 127 -33 143 -36 43 -7 -73 33 -142
50 -32 7 -102 26 -155 41 -78 23 -95 31 -87 42 16 18 42 16 118 -8z m2921 12
c0 -5 -34 -25 -75 -46 -41 -20 -81 -45 -88 -56 -17 -24 -84 -69 -102 -69 -8 0
-20 9 -28 20 l-14 20 -26 -21 c-18 -13 -25 -15 -21 -6 6 17 82 59 139 77 22 7
76 30 119 52 84 40 96 44 96 29z m-1470 -16 c7 -9 10 -18 7 -21 -6 -7 -47 18
-47 28 0 14 27 9 40 -7z m2664 -16 c-10 -12 -36 -35 -57 -51 l-38 -30 7 28
c11 50 31 72 66 76 43 4 45 2 22 -23z m-2464 -1 l35 -22 -50 -7 c-83 -12 -102
-10 -109 8 -17 43 67 57 124 21z m1525 -17 c0 -36 -1 -38 -26 -31 -14 4 -38 5
-54 3 -22 -5 -26 -3 -23 13 3 19 60 54 88 54 12 0 16 -10 15 -39z m145 31 c0
-19 -69 -62 -100 -62 -24 0 -27 32 -4 54 16 17 104 23 104 8z m680 -4 c0 -6
-8 -29 -17 -50 -16 -35 -20 -38 -58 -38 -50 0 -120 -20 -208 -60 -76 -34 -207
-73 -207 -60 0 5 23 16 51 25 65 22 59 27 -11 9 -64 -17 -90 -18 -90 -4 0 6 6
10 13 10 9 0 9 3 -1 9 -17 11 33 25 51 15 7 -4 9 -4 5 1 -5 5 43 26 105 47
145 51 161 55 228 63 31 3 71 14 90 24 42 23 49 24 49 9z m-410 -18 l25 -20
-36 0 c-21 0 -59 -13 -90 -30 -64 -35 -58 -40 9 -6 51 25 129 40 138 25 3 -5
-3 -9 -13 -9 -10 0 -28 -7 -40 -15 -23 -16 -164 -65 -186 -65 -7 1 -1 10 12
20 13 11 19 20 14 20 -6 0 -18 -9 -28 -20 -10 -11 -24 -20 -32 -20 -21 0 23
74 65 111 27 24 41 29 85 29 36 0 60 -6 77 -20z m-2192 -10 c37 -23 43 -45 10
-37 -23 5 -89 29 -98 35 -7 5 23 22 40 22 8 0 30 -9 48 -20z m935 -14 c-32
-28 -48 -34 -105 -40 -75 -8 -89 3 -37 30 28 14 131 41 167 43 6 1 -5 -14 -25
-33z m165 23 l31 -11 -47 -32 c-44 -29 -52 -31 -107 -26 l-60 5 38 38 c42 40
83 48 145 26z m413 -7 c-5 -10 -28 -24 -49 -30 -22 -7 -45 -19 -52 -27 -7 -8
-20 -15 -28 -15 -40 0 36 50 136 89 1 0 -2 -7 -7 -17z m755 4 c30 -23 12 -27
-21 -6 -18 12 -24 20 -14 20 8 0 24 -6 35 -14z m-3714 -12 c31 -16 84 -81 74
-91 -3 -3 -41 -8 -83 -10 l-78 -5 -30 54 c-16 29 -31 55 -32 58 -7 12 124 7
149 -6z m706 -63 c199 -96 218 -111 140 -111 -23 0 -60 -4 -80 -9 -32 -8 -48
-4 -115 29 -43 20 -110 49 -150 65 -40 15 -70 32 -67 37 3 4 22 17 42 28 54
30 106 21 230 -39z m842 49 c0 -5 -4 -10 -9 -10 -6 0 -13 5 -16 10 -3 6 1 10
9 10 9 0 16 -4 16 -10z m-340 -23 c45 -24 63 -47 36 -47 -9 0 -44 16 -78 35
-58 32 -61 35 -32 35 17 0 50 -10 74 -23z m185 1 c14 -14 -126 -4 -151 11 -15
9 -2 10 61 5 44 -4 85 -11 90 -16z m-258 -20 l68 -32 -45 -4 c-29 -2 -46 1
-49 9 -2 7 -15 23 -29 36 -33 30 -27 29 55 -9z m2263 13 c0 -10 -48 -51 -59
-51 -3 0 -17 9 -31 20 l-25 19 25 10 c32 13 90 14 90 2z m-1436 -17 c26 -26
19 -41 -24 -47 -21 -3 -53 -15 -70 -27 -23 -16 -35 -19 -43 -11 -25 25 50 100
100 101 12 0 29 -7 37 -16z m1194 -6 c7 -7 12 -18 12 -24 0 -13 -220 -139
-262 -149 -13 -3 -48 -24 -76 -46 -39 -29 -62 -39 -89 -39 l-36 0 19 22 c10
11 39 34 63 50 25 15 42 28 37 28 -13 0 -71 -33 -107 -61 -50 -39 -73 -36 -29
3 33 29 33 30 5 13 -16 -10 -39 -24 -50 -32 -11 -7 -25 -13 -32 -13 -24 0 -13
19 28 47 22 15 50 36 62 46 21 17 21 18 -12 2 -18 -9 -52 -34 -76 -56 -50 -46
-95 -57 -54 -13 35 38 205 173 232 183 12 5 74 17 137 25 63 9 126 18 140 20
52 7 76 6 88 -6z m113 -14 c25 -22 24 -26 -10 -51 l-29 -22 -27 51 -28 51 38
-6 c21 -3 46 -14 56 -23z m709 11 c0 -2 -19 -9 -42 -16 -24 -6 -77 -25 -118
-43 -117 -51 -145 -52 -40 -1 89 43 141 62 183 64 9 1 17 -1 17 -4z m-2173
-21 c-3 -3 -12 -4 -19 -1 -8 3 -5 6 6 6 11 1 17 -2 13 -5z m607 -3 c17 -6 15
-9 -12 -20 -17 -7 -37 -19 -43 -27 -7 -8 -31 -14 -59 -14 -34 0 -58 -7 -84
-25 -37 -25 -61 -30 -91 -19 -13 5 -6 12 27 32 24 13 61 31 83 39 l40 13 -35
-5 c-19 -3 -63 -19 -96 -35 -75 -37 -104 -39 -49 -4 29 18 33 24 15 19 -14 -4
-35 -13 -47 -21 -26 -17 -33 -17 -33 -4 0 5 17 21 38 35 30 20 57 26 137 33
128 12 185 12 209 3z m1523 -61 c-68 -65 -75 -69 -119 -70 -25 0 -53 -3 -62
-6 -12 -5 -16 0 -16 22 0 26 7 32 58 53 77 32 184 70 199 70 7 1 -20 -30 -60
-69z m-2167 45 c0 -9 -12 -20 -27 -26 -47 -18 -74 8 -30 29 32 16 57 14 57 -3z
m-1583 -55 c67 -59 102 -77 196 -99 55 -13 127 -55 127 -75 0 -27 -26 -34
-141 -41 l-116 -8 -74 75 c-41 42 -99 89 -129 107 -30 17 -68 42 -85 56 l-30
25 40 1 c22 0 58 4 80 8 22 5 45 9 52 10 6 0 42 -26 80 -59z m2270 34 c4 -11
-75 -30 -84 -20 -7 7 50 36 66 33 8 -1 16 -7 18 -13z m698 -20 c-16 -13 -70
-44 -118 -69 -49 -24 -106 -58 -127 -75 -40 -32 -104 -44 -80 -15 7 8 40 28
74 44 33 16 108 56 166 90 104 60 142 71 85 25z m-1137 9 c-21 -20 -141 -33
-121 -13 13 14 64 27 108 29 27 1 28 0 13 -16z m1414 -3 c46 -13 98 -55 98
-80 0 -22 -47 -32 -136 -29 -35 1 -67 -1 -71 -4 -14 -15 -23 -6 -13 12 5 11
39 34 75 52 36 18 63 34 61 36 -2 3 -31 -8 -63 -24 -40 -19 -66 -40 -83 -67
l-25 -39 -12 54 c-12 52 -12 55 13 77 28 25 91 30 156 12z m-218 -29 c9 -16
20 -47 25 -70 8 -38 7 -42 -13 -46 -40 -9 -264 -35 -298 -35 l-33 1 25 20 c14
12 63 41 110 64 47 24 101 55 120 69 45 32 46 32 64 -3z m-3191 -181 c71 -47
71 -58 0 -59 -25 -1 -37 6 -54 30 -12 18 -48 60 -78 95 -31 34 -65 78 -75 96
-15 25 -1 15 60 -42 44 -41 110 -95 147 -120z m1128 174 c73 -26 406 -113 534
-140 66 -14 124 -29 129 -34 13 -12 -39 -42 -92 -52 -26 -5 -134 -22 -241 -38
-182 -27 -195 -28 -219 -12 l-25 16 25 7 c14 4 103 13 197 20 94 7 171 16 171
19 0 3 -16 12 -35 19 -20 7 -53 30 -75 52 -45 46 -58 48 -90 14 l-24 -25 -35
34 c-37 35 -96 52 -166 48 -39 -2 -136 65 -114 79 8 5 15 9 15 9 1 0 21 -7 45
-16z m1459 -26 c-29 -24 -62 -51 -73 -60 -20 -16 -30 -16 -102 -5 -59 9 -80
16 -80 27 0 12 -13 14 -64 12 -48 -2 -62 0 -59 10 7 20 217 54 356 57 l74 1
-52 -42z m-1523 -2 l37 -34 -42 -7 c-36 -6 -46 -3 -72 18 -16 14 -39 29 -50
32 -34 11 -11 25 41 25 42 0 55 -5 86 -34z m2637 2 c-8 -28 -1 -24 -51 -31
-53 -6 -55 6 -5 32 50 27 65 27 56 -1z m-2832 -4 c46 -6 109 -46 96 -60 -5 -4
-17 1 -28 11 -18 17 -20 17 -14 2 9 -25 -20 -22 -84 8 -30 14 -63 25 -74 25
-10 0 -16 5 -13 10 7 11 51 13 117 4z m-214 -76 c10 -10 2 -15 -38 -24 -28 -6
-62 -9 -76 -6 -24 4 -21 6 22 23 60 21 76 23 92 7z m505 -34 c37 -25 67 -50
67 -55 0 -12 -31 1 -57 24 -25 23 -29 17 -12 -16 7 -12 -15 2 -47 32 -32 30
-61 56 -63 58 -2 2 7 3 20 3 13 0 54 -21 92 -46z m125 38 c9 -6 6 -14 -13 -32
-27 -25 -39 -23 -95 20 l-25 20 60 0 c33 0 66 -4 73 -8z m2523 -20 c-19 -27
-27 -29 -133 -41 -62 -6 -129 -14 -148 -16 -29 -4 -41 1 -74 30 l-39 35 79 1
c43 1 111 5 149 9 39 4 96 8 128 8 l58 2 -20 -28z m-451 2 c0 -18 -159 -143
-182 -144 -23 -1 -2 33 40 66 94 76 69 66 -43 -15 -74 -54 -80 -57 -90 -41
-22 36 158 137 248 139 15 1 27 -2 27 -5z m-2279 -44 l44 -39 -50 -1 c-82 0
-162 17 -201 44 l-37 25 69 4 c38 1 83 4 100 5 24 2 42 -7 75 -38z m262 2 c12
-20 14 -32 7 -32 -6 0 -17 15 -25 33 -11 25 -15 28 -20 15 -4 -9 -13 -19 -21
-22 -10 -4 -13 -2 -8 7 26 46 40 45 67 -1z m137 -14 c0 -6 -12 -3 -26 7 -21
13 -28 14 -42 3 -9 -7 -6 0 8 15 l25 28 17 -21 c10 -12 18 -27 18 -32z m-618
2 l43 -40 -40 18 c-66 29 -86 42 -80 53 12 18 35 9 77 -31z m2546 27 c6 -7 8
-18 4 -24 -10 -14 -111 -65 -123 -61 -14 5 77 98 95 98 7 0 18 -6 24 -13z
m-938 -7 c11 -7 -3 -10 -47 -10 -36 0 -63 4 -63 10 0 13 90 13 110 0z m-1667
-52 c71 -41 88 -61 68 -81 -8 -8 -23 0 -59 35 l-47 46 -110 5 c-108 5 -110 5
-137 -21 -38 -35 -44 -23 -11 21 27 34 31 36 98 39 102 5 123 0 198 -44z
m2281 13 c-21 -15 -50 -40 -63 -55 -14 -15 -35 -26 -50 -26 -31 0 -59 -16 -47
-27 4 -4 88 -9 186 -11 l178 -4 -48 -72 c-26 -39 -52 -81 -59 -93 -10 -20 -19
-23 -80 -23 -55 0 -71 4 -86 20 -24 26 -62 36 -230 55 -106 13 -143 21 -152
33 -19 26 -28 35 -69 67 -47 36 -71 35 -173 -8 l-74 -30 -97 11 c-53 6 -108
16 -121 21 l-24 9 29 11 c48 19 160 31 212 22 57 -8 113 -3 259 27 55 11 128
24 163 28 49 5 62 10 58 21 -5 12 6 14 57 12 35 -1 69 1 76 5 10 6 138 31 180
35 8 0 -4 -12 -25 -28z m686 9 c0 -6 -10 -15 -22 -20 -13 -5 -17 -9 -11 -9 9
-1 7 -8 -5 -21 l-17 -21 -22 26 c-12 14 -30 25 -40 25 -10 0 -25 5 -33 11 -11
8 -8 9 15 5 23 -4 115 5 133 13 1 0 2 -4 2 -9z m-3185 -30 c-3 -5 -4 -10 -1
-10 2 0 13 -3 23 -6 15 -5 15 -4 3 5 -11 8 6 11 67 11 l82 0 30 -37 c16 -20
28 -40 25 -45 -11 -17 -110 -8 -169 16 -33 14 -72 27 -87 30 -34 8 -36 23 -5
36 30 12 39 12 32 0z m553 -19 c18 -22 -1 -25 -94 -16 -50 4 -81 13 -96 26
-23 19 -22 19 77 13 75 -5 103 -10 113 -23z m2518 8 c14 -15 7 -16 -73 -22
-48 -3 -95 -8 -103 -11 -8 -4 -60 -58 -115 -121 -55 -63 -106 -115 -112 -115
-38 0 30 137 114 230 39 43 50 49 91 53 93 9 181 2 198 -14z m318 -114 c9 -37
15 -69 13 -71 -5 -6 -87 173 -87 189 0 7 13 -2 29 -19 18 -20 34 -55 45 -99z
m-646 89 c-21 -22 -31 -25 -55 -19 -28 8 -28 8 14 19 23 6 45 14 49 19 4 4 10
7 13 7 3 0 -6 -12 -21 -26z m-908 -4 c0 -5 -13 -10 -30 -10 -16 0 -30 5 -30
10 0 6 14 10 30 10 17 0 30 -4 30 -10z m-2247 -14 c34 -8 118 -20 187 -26 188
-17 222 -38 237 -147 6 -48 1 -57 -59 -105 l-40 -31 2 29 c1 16 1 47 0 69 -1
31 -3 35 -9 20 -4 -11 -6 -39 -3 -61 l4 -42 -41 8 c-23 4 -43 9 -45 11 -2 2
-6 32 -9 67 -6 67 -6 67 53 54 25 -6 48 -3 80 9 49 19 33 26 -18 8 -26 -9 -50
-6 -132 15 -56 14 -125 26 -154 26 -45 0 -56 4 -82 31 -16 17 -38 35 -49 41
-11 5 -1 -8 23 -31 41 -39 54 -59 30 -45 -7 4 -42 28 -78 53 l-65 46 50 6 c28
3 51 7 53 7 2 1 31 -4 65 -12z m258 3 c-14 -5 -53 -6 -100 0 l-76 8 100 1 c72
1 93 -2 76 -9z m3247 -26 l3 -31 -38 9 c-57 13 -68 12 -53 -5 6 -8 19 -12 28
-9 13 4 14 3 3 -5 -9 -7 -10 -12 -2 -16 6 -4 9 -12 5 -17 -3 -5 -2 -9 3 -8 19
3 33 -2 33 -12 0 -6 -7 -9 -15 -5 -11 4 -8 -8 11 -45 37 -75 24 -69 -21 9 -22
37 -54 88 -71 114 -31 46 -31 47 -10 51 11 3 44 4 71 3 48 -1 50 -2 53 -33z
m-141 -10 c14 -20 12 -23 -44 -58 -32 -20 -81 -60 -110 -88 -29 -28 -61 -51
-72 -52 -18 -1 -18 0 -5 19 7 12 49 62 91 113 84 99 110 112 140 66z m-2947 2
c35 -18 59 -55 37 -55 -8 0 -20 7 -28 16 -7 8 -29 24 -48 34 -31 16 -33 19
-13 20 13 0 36 -7 52 -15z m620 -9 c0 -11 -14 -16 -47 -19 -36 -2 -29 -4 27
-5 75 -2 121 -15 90 -26 -44 -15 -170 -25 -217 -18 -49 8 -194 2 -317 -13 -63
-8 -108 -36 -100 -63 3 -9 -2 -6 -10 8 -8 14 -15 35 -16 46 0 24 16 27 185 39
44 3 100 8 124 11 l43 6 -23 24 -22 24 141 0 c117 0 142 -3 142 -14z m-276
-27 c-3 -5 -17 -9 -32 -9 -25 1 -26 2 -9 15 20 14 51 10 41 -6z m1596 2 c0 -5
-10 -16 -22 -25 -14 -10 -16 -15 -7 -12 11 3 21 -4 28 -20 10 -22 9 -24 -12
-20 -12 3 -53 8 -91 11 -78 8 -77 15 10 50 62 26 94 31 94 16z m1112 -148 l20
-33 -151 0 c-117 0 -151 3 -151 13 0 18 65 79 135 125 l60 39 33 -56 c19 -31
43 -71 54 -88z m23 137 c3 -6 -1 -7 -9 -4 -18 7 -21 14 -7 14 6 0 13 -4 16
-10z m-3395 -60 c0 -11 -2 -20 -4 -20 -2 0 -6 9 -9 20 -3 11 -1 20 4 20 5 0 9
-9 9 -20z m17 -12 c-3 -7 -5 -2 -5 12 0 14 2 19 5 13 2 -7 2 -19 0 -25z m60
-10 c-3 -7 -5 -2 -5 12 0 14 2 19 5 13 2 -7 2 -19 0 -25z m-997 -12 c26 -43
119 -129 171 -159 21 -12 39 -25 39 -28 0 -3 -9 -14 -21 -25 -20 -18 -21 -18
-110 76 -49 52 -89 100 -89 105 0 6 -7 20 -15 31 -13 17 -14 16 -3 -16 6 -19
31 -57 55 -84 24 -27 48 -57 53 -66 8 -15 5 -16 -33 -7 -32 7 -49 18 -66 44
-13 20 -21 44 -18 55 5 19 5 19 -13 3 -11 -10 -18 -21 -15 -24 2 -4 -7 -8 -20
-9 -22 -2 -23 1 -15 23 13 34 40 87 52 103 16 19 25 15 48 -22z m89 15 c95
-25 157 -82 167 -154 3 -18 6 -37 8 -42 5 -15 -14 -39 -41 -54 -26 -13 -31 0
-8 19 25 21 17 34 -49 78 -84 55 -192 173 -158 172 4 0 40 -9 81 -19z m4801
-33 l30 -21 -82 -54 c-61 -40 -90 -53 -118 -53 -35 0 -36 1 -32 30 5 33 36 61
107 99 50 26 59 26 95 -1z m-336 -117 c14 -12 191 -65 268 -80 32 -7 60 -16
63 -20 7 -12 -37 -92 -55 -102 -8 -4 -80 -35 -160 -69 -80 -33 -172 -75 -205
-93 l-60 -32 -7 -95 c-9 -118 -29 -204 -50 -208 -13 -3 -13 7 3 80 26 119 25
173 -6 214 -14 18 -25 37 -25 42 0 14 44 41 93 58 23 8 67 30 97 48 30 19 80
39 110 45 83 17 211 53 207 57 -11 11 -276 -62 -317 -87 -25 -15 -72 -37 -104
-50 -33 -12 -71 -33 -85 -48 -29 -29 -39 -29 -116 3 l-56 22 162 54 c90 30
182 68 207 84 24 16 72 40 106 52 33 13 54 23 45 23 -29 1 -128 -37 -162 -63
-18 -14 -102 -48 -187 -76 -85 -28 -169 -58 -188 -67 -23 -11 -36 -13 -41 -5
-3 6 -20 14 -36 18 -17 4 -51 17 -77 30 -53 27 -58 28 -58 15 0 -5 9 -13 21
-16 34 -11 62 -89 63 -172 1 -96 -11 -107 -64 -59 -22 20 -58 43 -79 52 l-39
15 25 57 c14 31 33 79 42 106 l16 49 240 82 c244 83 325 116 346 141 6 8 -22
-2 -63 -21 -42 -20 -131 -49 -199 -66 -68 -16 -148 -35 -178 -43 -48 -12 -52
-12 -38 1 8 9 39 24 69 35 l53 19 -45 -4 c-27 -3 -72 -20 -113 -43 -59 -33
-75 -49 -121 -119 -29 -44 -61 -87 -71 -95 -34 -27 89 144 138 192 26 26 47
50 47 54 0 13 -50 -38 -141 -144 -49 -56 -89 -99 -89 -94 0 4 5 13 12 20 9 9
9 12 0 12 -6 0 -15 -8 -21 -17 -5 -10 -13 -15 -16 -11 -19 19 121 190 201 248
47 33 189 74 293 84 l56 5 -80 -25 c-44 -14 -89 -29 -100 -35 -42 -20 81 0
190 32 149 43 192 49 234 32 19 -7 39 -17 45 -22z m-499 12 c-11 -2 -39 -10
-62 -18 -35 -11 -44 -11 -53 0 -15 18 2 24 75 23 33 0 51 -2 40 -5z m-3766
-63 c0 -10 -3 -8 -9 5 -12 27 -12 43 0 25 5 -8 9 -22 9 -30z m114 -81 c21 -17
36 -33 33 -36 -6 -6 -106 50 -106 60 0 17 38 5 73 -24z m-44 -11 c19 -13 44
-27 55 -33 10 -5 18 -14 18 -20 -2 -14 -46 -18 -131 -10 l-73 7 38 39 c21 21
42 39 47 39 5 0 26 -10 46 -22z m581 7 c10 -13 9 -15 -9 -15 -12 0 -21 6 -21
15 0 8 4 15 9 15 5 0 14 -7 21 -15z m-718 -37 c-9 -9 -15 -9 -24 0 -9 9 -7 12
12 12 19 0 21 -3 12 -12z m4607 -91 c-20 -53 -29 -61 -147 -149 -154 -114
-217 -174 -243 -233 -19 -44 -42 -65 -56 -51 -3 3 4 44 16 90 14 52 21 107 20
142 l-3 57 50 28 c27 16 119 59 204 95 85 36 159 70 164 75 18 16 16 2 -5 -54z
m-1122 10 c-17 -24 -34 -39 -36 -34 -3 7 56 77 66 77 1 0 -12 -19 -30 -43z
m346 -59 c29 -11 31 -16 20 -45 -6 -16 -8 -15 -14 7 -6 20 -7 15 -8 -20 -1
-25 -6 -52 -11 -60 -5 -8 -10 -13 -11 -10 -8 43 -28 119 -34 134 -7 16 -5 18
11 12 10 -5 31 -13 47 -18z m188 -50 c109 -38 128 -86 93 -241 -9 -40 -19 -75
-23 -80 -6 -6 -53 14 -230 101 -55 27 -57 39 -21 125 17 42 41 88 52 103 23
29 23 29 129 -8z m-3194 -39 c32 -12 60 -23 62 -25 2 -2 -9 -20 -24 -40 -27
-35 -29 -36 -42 -18 -13 17 -14 17 -8 -11 l6 -30 -18 27 c-9 16 -34 34 -55 40
l-38 13 20 33 c11 17 24 32 29 32 6 0 36 -10 68 -21z m3653 -233 c0 -2 -8 -10
-17 -17 -16 -13 -17 -12 -4 4 13 16 21 21 21 13z"/>
<path d="M4632 3763 c-3 -44 -59 -211 -77 -230 -20 -20 -19 -77 2 -94 15 -13
15 -12 5 8 -17 32 -15 48 13 89 14 20 25 45 25 55 0 9 9 39 20 65 14 32 20 63
17 93 -2 33 -4 37 -5 14z"/>
<path d="M4343 3655 c0 -33 2 -45 4 -27 2 18 2 45 0 60 -2 15 -4 0 -4 -33z"/>
<path d="M3551 3934 c-12 -27 -11 -28 4 -12 10 9 16 21 13 28 -2 7 -10 -1 -17
-16z"/>
<path d="M3543 3725 c0 -38 2 -53 4 -32 2 20 2 52 0 70 -2 17 -4 1 -4 -38z"/>
<path d="M3700 3650 c0 -35 3 -60 7 -57 7 8 5 108 -3 116 -2 2 -4 -24 -4 -59z"/>
<path d="M3410 3365 c-13 -34 -24 -81 -18 -75 8 8 37 100 32 100 -2 0 -9 -11
-14 -25z"/>
<path d="M4576 3269 c-10 -45 -26 -204 -25 -244 1 -22 10 27 20 110 10 82 16
151 14 153 -2 2 -6 -6 -9 -19z"/>
<path d="M926 2565 c3 -16 7 -38 9 -47 2 -9 20 -40 39 -69 20 -28 39 -63 42
-78 9 -40 26 -81 36 -87 5 -4 3 8 -6 24 -9 17 -16 40 -16 52 0 23 -21 68 -54
115 -12 17 -22 36 -24 43 -1 7 -9 27 -17 45 l-15 32 6 -30z"/>
<path d="M1763 3085 c-59 -44 -97 -87 -87 -98 3 -3 22 13 42 35 39 43 122 105
122 90 0 -5 -7 -30 -17 -57 l-16 -48 28 -23 28 -22 -23 -12 c-30 -16 -19 -24
13 -9 22 10 30 8 59 -12 18 -13 36 -27 39 -32 4 -5 9 -5 12 0 3 5 -26 31 -64
58 -62 44 -70 53 -64 75 27 116 19 122 -72 55z"/>
<path d="M4107 2953 c-4 -21 -9 -54 -12 -73 -5 -25 -3 -31 3 -20 11 16 27 130
19 130 -2 0 -7 -17 -10 -37z"/>
<path d="M3960 2659 c-6 -24 -28 -105 -50 -179 -21 -74 -43 -158 -49 -187 -6
-28 -29 -99 -51 -157 -22 -59 -40 -119 -40 -134 1 -45 83 198 130 383 12 50
35 139 51 199 16 60 27 111 25 113 -3 3 -10 -15 -16 -38z"/>
<path d="M1300 2355 c0 -3 9 -24 20 -45 17 -34 25 -40 53 -40 17 0 55 -12 82
-25 28 -14 61 -24 75 -24 19 1 16 3 -12 10 -20 4 -51 17 -70 29 -18 11 -48 20
-65 20 -28 0 -36 6 -53 40 -18 36 -30 49 -30 35z"/>
<path d="M1420 2160 c0 -12 112 -81 119 -73 3 3 0 8 -7 10 -7 3 -35 20 -62 38
-28 19 -50 30 -50 25z"/>
<path d="M1615 2340 c21 -16 41 -30 44 -30 9 1 -63 59 -73 60 -5 0 8 -13 29
-30z"/>
<path d="M1746 2690 c15 -28 29 -48 31 -46 5 5 -46 96 -54 96 -2 0 8 -23 23
-50z"/>
<path d="M3381 2595 c0 -17 -5 -45 -10 -63 -6 -18 -6 -30 -1 -27 12 8 23 67
17 96 -4 20 -4 20 -6 -6z"/>
<path d="M4610 2434 c-11 -27 -30 -163 -30 -211 0 -13 4 -23 9 -23 4 0 11 42
14 93 3 50 11 107 17 125 15 41 5 56 -10 16z"/>
<path d="M2676 2135 c-9 -26 -7 -32 5 -12 6 10 9 21 6 23 -2 3 -7 -2 -11 -11z"/>
<path d="M3396 2152 c-13 -22 -32 -46 -41 -55 -9 -10 -12 -17 -6 -17 11 0 51
50 70 88 19 36 3 25 -23 -16z"/>
<path d="M4033 2088 c-17 -18 -38 -49 -46 -68 -18 -44 -244 -237 -232 -198 4
12 19 38 32 57 22 29 23 32 6 22 -21 -10 -59 -89 -48 -99 2 -3 -7 -20 -21 -39
-14 -18 -20 -33 -15 -33 6 0 15 9 20 19 6 10 59 59 118 109 129 107 147 126
162 172 6 19 23 47 38 62 15 15 25 28 22 28 -3 0 -19 -15 -36 -32z"/>
<path d="M3860 1930 c-8 -5 -10 -10 -5 -10 6 0 17 5 25 10 8 5 11 10 5 10 -5
0 -17 -5 -25 -10z"/>
<path d="M2440 2099 l-45 -41 42 32 c38 28 60 50 51 50 -2 0 -23 -18 -48 -41z"/>
<path d="M2195 1965 c-22 -8 -31 -14 -20 -14 11 0 34 6 50 14 38 17 22 17 -30
0z"/>
<path d="M1283 1613 c4 -6 26 -26 50 -44 28 -23 36 -26 22 -10 -23 26 -82 71
-72 54z"/>
<path d="M505 1732 c33 -32 165 -123 165 -113 0 5 -42 36 -92 70 -51 34 -84
53 -73 43z"/>
<path d="M3405 1653 c-108 -63 -174 -111 -85 -61 120 67 190 109 195 118 8 13
14 16 -110 -57z"/>
<path d="M3308 1713 c7 -3 16 -2 19 1 4 3 -2 6 -13 5 -11 0 -14 -3 -6 -6z"/>
<path d="M1600 1597 c14 -14 32 -27 40 -27 8 0 32 -17 53 -37 33 -31 37 -33
22 -11 -9 15 -33 38 -54 50 -20 12 -47 29 -61 37 l-25 16 25 -28z"/>
<path d="M3690 1600 c-8 -5 -10 -10 -5 -10 6 0 17 5 25 10 8 5 11 10 5 10 -5
0 -17 -5 -25 -10z"/>
<path d="M1200 1351 c36 -4 98 -22 139 -39 97 -41 103 -35 9 8 -55 25 -90 33
-143 36 l-70 3 65 -8z"/>
<path d="M1100 1335 c0 -9 162 -83 195 -89 29 -5 29 -5 5 6 -170 77 -200 89
-200 83z"/>
<path d="M3228 1493 c7 -3 16 -2 19 1 4 3 -2 6 -13 5 -11 0 -14 -3 -6 -6z"/>
<path d="M1420 1439 c83 -46 200 -101 200 -94 0 5 -258 135 -268 135 -4 0 27
-19 68 -41z"/>
<path d="M3850 1421 c24 -8 22 -9 -25 -30 -27 -12 -59 -26 -70 -31 -17 -9 -17
-9 5 -4 39 9 115 48 115 59 0 6 -11 11 -25 12 l-25 2 25 -8z"/>
<path d="M3705 1388 c-106 -36 -184 -69 -192 -81 -3 -5 5 -4 18 3 50 25 85 38
124 48 52 13 174 61 155 61 -8 -1 -55 -14 -105 -31z"/>
<path d="M3078 1393 c7 -3 16 -2 19 1 4 3 -2 6 -13 5 -11 0 -14 -3 -6 -6z"/>
<path d="M2506 1146 c7 -19 38 -22 32 -3 -3 6 -12 13 -21 15 -12 2 -15 -1 -11
-12z"/>
<path d="M3225 1280 c-7 -12 22 -12 50 0 17 7 15 9 -12 9 -17 1 -35 -3 -38 -9z"/>
<path d="M4373 1183 c15 -2 37 -2 50 0 12 2 0 4 -28 4 -27 0 -38 -2 -22 -4z"/>
<path d="M3567 1070 c-27 -5 -52 -11 -55 -14 -5 -6 49 -1 143 14 l50 8 -45 0
c-25 0 -67 -4 -93 -8z"/>
<path d="M3413 1053 c9 -2 23 -2 30 0 6 3 -1 5 -18 5 -16 0 -22 -2 -12 -5z"/>
<path d="M2984 1006 c12 -10 37 -15 60 -15 l41 2 -45 6 c-25 4 -52 10 -60 15
-8 4 -6 0 4 -8z"/>
<path d="M3553 1011 c-24 -4 -46 -11 -50 -15 -7 -7 40 -1 122 14 l40 8 -35 0
c-19 0 -54 -4 -77 -7z"/>
<path d="M3953 983 c15 -2 39 -2 55 0 15 2 2 4 -28 4 -30 0 -43 -2 -27 -4z"/>
<path d="M3720 940 c0 -5 9 -10 20 -10 11 0 20 5 20 10 0 6 -9 10 -20 10 -11
0 -20 -4 -20 -10z"/>
<path d="M3486 930 c6 -6 104 -12 234 -14 l225 -5 -190 9 c-104 5 -210 11
-235 14 -29 4 -41 3 -34 -4z"/>
<path d="M1483 1073 c9 -2 25 -2 35 0 9 3 1 5 -18 5 -19 0 -27 -2 -17 -5z"/>
<path d="M1250 886 c0 -2 8 -10 18 -17 15 -13 16 -12 3 4 -13 16 -21 21 -21
13z"/>
<path d="M160 751 c0 -6 4 -13 10 -16 6 -3 7 1 4 9 -7 18 -14 21 -14 7z"/>
<path d="M4937 813 c-43 -25 -77 -47 -74 -49 4 -4 167 85 167 92 0 9 -18 0
-93 -43z"/>
<path d="M3799 4831 c-16 -16 -29 -36 -29 -44 0 -10 -18 -16 -62 -21 -35 -4
-72 -7 -83 -7 -32 1 -65 -9 -65 -20 0 -6 7 -6 20 1 11 6 24 9 29 6 16 -10 171
18 171 30 0 26 47 67 86 74 l39 8 -38 1 c-30 1 -45 -5 -68 -28z"/>
<path d="M199 4497 c-39 -21 -48 -23 -64 -11 -25 19 -70 18 -86 -2 -7 -9 -22
-20 -34 -24 -16 -7 -11 -9 20 -10 22 0 51 -3 65 -6 20 -4 22 -3 10 5 -8 6 -26
11 -39 11 -20 0 -21 2 -11 15 17 20 43 19 71 -4 23 -18 24 -18 59 5 51 35 119
33 162 -4 18 -16 48 -37 65 -47 32 -18 34 -19 83 -1 49 18 104 18 190 1 44 -9
60 -22 60 -47 0 -16 4 -18 18 -12 9 5 38 8 65 7 26 -1 47 2 47 7 0 17 69 50
104 50 28 0 45 -7 65 -27 21 -21 39 -28 71 -30 23 0 49 -8 58 -16 13 -14 18
-13 43 5 32 24 71 19 107 -14 12 -12 22 -17 22 -10 0 20 -52 52 -84 52 -18 0
-41 -6 -51 -14 -17 -12 -23 -12 -47 0 -15 8 -39 14 -54 14 -14 0 -39 11 -56
25 -40 34 -111 35 -160 1 -39 -26 -138 -42 -138 -21 0 20 -35 45 -61 44 -13
-1 -37 4 -53 10 -33 13 -101 6 -159 -16 -36 -15 -39 -14 -75 11 -20 14 -49 35
-63 47 -41 33 -96 35 -150 6z"/>
<path d="M5111 4474 c0 -11 3 -14 6 -6 3 7 2 16 -1 19 -3 4 -6 -2 -5 -13z"/>
<path d="M33 4385 c-18 -8 -33 -19 -33 -25 0 -6 9 -4 23 5 56 36 165 27 237
-19 19 -12 47 -31 63 -40 16 -11 27 -14 27 -7 0 6 -5 11 -11 11 -5 0 -27 13
-47 30 -71 56 -187 77 -259 45z"/>
<path d="M1406 4333 c-4 -5 -206 -10 -449 -13 l-442 -6 470 -2 c259 -2 484 -5
500 -7 17 -2 73 -9 125 -15 100 -12 174 -39 191 -71 5 -11 20 -19 35 -19 14 0
54 -11 88 -25 83 -33 187 -67 192 -62 5 4 -170 72 -245 95 -30 9 -66 27 -79
39 -28 26 -109 53 -160 53 -19 0 -45 9 -59 20 -20 15 -41 20 -93 20 -37 0 -70
-3 -74 -7z m151 -19 c-3 -3 -12 -4 -19 -1 -8 3 -5 6 6 6 11 1 17 -2 13 -5z"/>
<path d="M422 4180 c-18 -11 -35 -27 -38 -35 -4 -10 -20 -15 -48 -15 -22 0
-54 -8 -71 -18 -30 -18 -31 -18 -75 6 -36 19 -54 23 -94 18 -46 -5 -104 -32
-93 -43 3 -2 17 3 31 12 40 26 118 23 164 -7 l37 -25 28 21 c20 15 43 21 79
21 42 0 53 -4 74 -28 13 -15 24 -23 24 -17 0 6 -12 22 -26 35 -23 21 -25 27
-14 41 36 43 104 55 165 30 39 -17 80 -75 65 -90 -13 -13 -13 -29 0 -21 6 4
17 1 25 -5 11 -9 15 -9 15 -1 0 21 60 12 85 -14 14 -13 25 -28 25 -33 0 -5
-77 -10 -172 -11 -95 0 -197 -4 -226 -7 -29 -4 -72 -1 -95 5 -29 7 -81 8 -167
2 l-125 -8 147 -2 c140 -1 148 -2 163 -23 14 -22 23 -23 163 -26 126 -4 150
-2 161 12 14 17 2 23 -15 7 -10 -11 -294 -2 -294 9 0 9 182 20 340 20 100 0
130 -3 140 -15 11 -13 14 -13 27 0 23 24 86 19 112 -9 l22 -23 282 0 282 0
-278 7 c-265 8 -280 9 -301 29 -25 24 -63 29 -113 17 -27 -6 -33 -5 -33 9 0 9
-13 30 -29 46 -24 23 -38 29 -73 29 -41 0 -45 2 -57 35 -18 49 -63 78 -130 83
-44 2 -63 -2 -89 -18z"/>
<path d="M4936 4138 c-9 -62 -14 -163 -6 -143 8 23 22 175 15 175 -2 0 -6 -15
-9 -32z"/>
<path d="M485 3911 c-16 -4 137 -5 340 -3 204 2 377 5 385 6 8 2 -145 4 -340
4 -195 0 -368 -3 -385 -7z"/>
<path d="M1273 3850 c-12 -5 -28 -18 -35 -30 -7 -11 -23 -20 -35 -20 -33 0
-71 -20 -88 -47 -13 -19 -19 -21 -35 -13 -26 14 -70 12 -100 -5 -20 -11 -84
-15 -300 -17 l-275 -3 275 -5 c259 -5 277 -4 309 14 32 19 36 19 81 3 39 -14
86 -17 249 -17 188 0 202 1 221 20 23 23 50 26 68 8 9 -9 12 -9 12 0 0 21 40
13 64 -13 23 -24 27 -25 142 -23 l119 2 -112 3 c-104 3 -115 5 -137 28 -22 21
-34 25 -89 25 -45 0 -68 -5 -77 -15 -19 -23 -33 -18 -50 17 -8 17 -22 35 -30
39 -8 4 -39 19 -68 33 -57 28 -74 30 -109 16z m94 -29 c10 -11 31 -21 47 -23
32 -3 73 -49 62 -67 -5 -7 -67 -11 -187 -11 -176 0 -180 0 -169 20 13 24 67
53 85 46 7 -2 27 8 44 25 37 35 90 40 118 10z"/>
<path d="M1305 3800 c4 -8 15 -23 23 -32 14 -17 11 -18 -54 -19 l-69 -2 65 -7
c36 -5 69 -4 73 0 10 9 -5 41 -29 61 -16 12 -17 12 -9 -1z"/>
<path d="M5074 3714 c-32 -29 -33 -32 -8 -15 29 19 62 51 52 51 -3 0 -22 -16
-44 -36z"/>
<path d="M1633 3713 c9 -2 23 -2 30 0 6 3 -1 5 -18 5 -16 0 -22 -2 -12 -5z"/>
<path d="M1370 3660 l-315 -5 360 -2 c208 -1 352 2 340 7 -11 5 -31 8 -45 7
-14 -1 -167 -4 -340 -7z"/>
<path d="M2183 3603 c26 -2 68 -2 95 0 26 2 4 3 -48 3 -52 0 -74 -1 -47 -3z"/>
<path d="M2378 3603 c12 -2 30 -2 40 0 9 3 -1 5 -23 4 -22 0 -30 -2 -17 -4z"/>
<path d="M1739 3584 c-8 -9 -33 -14 -78 -15 -36 0 -84 -4 -106 -9 -46 -10 608
-1 725 10 54 5 14 8 -147 9 -122 0 -224 5 -227 10 -10 16 -153 12 -167 -5z
m75 0 c31 -12 15 -24 -30 -24 -40 0 -45 2 -34 15 13 16 38 19 64 9z m86 -4 c0
-5 -14 -10 -31 -10 -17 0 -28 4 -24 10 3 6 17 10 31 10 13 0 24 -4 24 -10z"/>
<path d="M940 3511 c-39 -8 -95 -35 -105 -51 -3 -5 -33 -10 -66 -10 -34 0 -69
-6 -82 -14 -12 -8 -41 -17 -64 -21 -24 -4 -45 -10 -48 -14 -7 -12 96 9 129 26
20 11 44 14 77 10 36 -5 51 -2 61 10 21 26 90 53 136 53 46 0 74 -11 108 -42
14 -13 24 -16 29 -9 8 14 52 14 60 1 3 -5 18 -7 34 -4 31 6 89 -18 97 -40 3
-9 31 -16 72 -21 37 -4 76 -12 87 -19 28 -19 263 -27 480 -17 l180 8 -241 1
c-206 2 -243 4 -255 18 -10 12 -31 15 -93 14 -112 -3 -217 10 -223 27 -10 25
-61 43 -136 47 -51 3 -85 11 -108 25 -19 12 -42 21 -51 21 -9 0 -22 2 -30 4
-7 2 -29 0 -48 -3z m685 -141 c4 -6 -20 -10 -64 -10 -41 0 -71 4 -71 10 0 6
28 10 64 10 36 0 68 -4 71 -10z"/>
<path d="M2752 3473 c48 -2 129 -2 180 0 51 1 12 3 -87 3 -99 0 -141 -2 -93
-3z"/>
<path d="M2185 3420 c-28 -4 56 -8 193 -8 160 -1 241 1 237 8 -7 11 -348 11
-430 0z"/>
<path d="M5075 2712 c-21 -31 -32 -51 -23 -44 20 16 72 91 67 96 -2 3 -22 -21
-44 -52z"/>
<path d="M4905 2523 c-37 -50 -98 -170 -109 -213 -3 -14 12 12 33 57 22 45 58
109 81 142 48 72 45 81 -5 14z"/>
<path d="M5090 1950 c-12 -16 -19 -30 -16 -30 2 0 14 14 26 30 12 17 19 30 16
30 -2 0 -14 -13 -26 -30z"/>
<path d="M90 1886 c14 -15 39 -37 55 -49 36 -24 26 -14 -35 39 -30 25 -37 29
-20 10z"/>
<path d="M4927 1761 c-21 -10 -50 -29 -65 -43 -15 -13 -47 -39 -71 -56 -25
-18 -41 -32 -36 -32 14 0 100 58 125 85 13 14 29 25 36 25 6 0 22 9 35 20 29
23 25 24 -24 1z"/>
<path d="M0 1744 c0 -6 13 -25 30 -44 37 -44 37 -50 0 -50 -17 0 -30 -4 -30
-10 0 -5 21 -10 48 -10 38 0 62 -8 122 -45 41 -24 93 -58 115 -74 188 -135
217 -153 228 -141 7 7 8 11 2 8 -5 -3 -73 39 -150 93 -77 55 -162 112 -190
127 -27 15 -78 56 -112 91 -35 35 -63 60 -63 55z"/>
<path d="M2590 1560 l-25 -8 25 0 c14 0 36 4 50 8 l25 8 -25 0 c-14 0 -36 -4
-50 -8z"/>
<path d="M5043 1447 c-37 -36 -66 -68 -63 -70 8 -8 145 121 137 129 -3 4 -37
-23 -74 -59z"/>
<path d="M0 1439 c0 -5 6 -9 13 -9 6 0 58 -22 114 -50 69 -34 138 -79 215
-141 142 -115 217 -166 271 -185 23 -8 85 -44 138 -80 74 -51 105 -66 140 -69
40 -4 41 -4 9 3 -45 11 -69 23 -160 88 -42 29 -100 63 -130 77 -61 27 -175
106 -282 197 -95 80 -328 200 -328 169z"/>
<path d="M2285 1420 c-16 -4 -48 -8 -70 -9 -26 -1 -35 -4 -26 -10 10 -7 8 -12
-10 -25 -23 -16 -23 -16 -4 -35 11 -10 31 -22 45 -25 22 -6 23 -5 8 6 -9 7
-25 18 -35 25 -17 12 -17 12 1 6 12 -4 17 -3 13 4 -10 17 18 34 86 54 60 17
53 25 -8 9z"/>
<path d="M2108 1413 c7 -3 16 -2 19 1 4 3 -2 6 -13 5 -11 0 -14 -3 -6 -6z"/>
<path d="M2352 1394 c-54 -14 -96 -33 -76 -34 6 0 33 7 60 15 27 8 59 15 72
15 13 0 20 4 17 10 -8 12 -7 12 -73 -6z"/>
<path d="M4903 1378 c-6 -7 -15 -26 -20 -43 -6 -18 -27 -42 -51 -58 -23 -16
-56 -48 -72 -73 -36 -52 -27 -60 10 -9 14 20 46 51 72 70 29 21 50 45 54 62 4
16 14 36 22 46 8 9 10 17 5 17 -6 0 -15 -6 -20 -12z"/>
<path d="M0 1365 c0 -8 120 -74 197 -108 43 -18 119 -61 168 -94 107 -71 115
-76 115 -69 0 15 -202 143 -278 175 -48 21 -111 53 -140 70 -53 31 -62 35 -62
26z"/>
<path d="M2465 1310 c19 -8 123 -14 114 -6 -2 2 -33 6 -69 9 -38 3 -57 1 -45
-3z"/>
<path d="M5040 1244 c-98 -82 -123 -112 -49 -57 109 81 146 115 122 112 -5 0
-37 -25 -73 -55z"/>
<path d="M2320 1280 c14 -4 32 -8 40 -9 13 -1 13 0 0 9 -8 5 -26 9 -40 9 l-25
-1 25 -8z"/>
<path d="M2575 1259 c-49 -6 -49 -6 -9 -7 122 -5 400 -79 379 -101 -4 -3 -34
-14 -68 -23 l-62 -18 70 6 c133 11 140 43 20 91 -91 36 -251 61 -330 52z"/>
<path d="M70 1206 c0 -2 7 -7 16 -10 8 -3 12 -2 9 4 -6 10 -25 14 -25 6z"/>
<path d="M5058 1164 c-41 -31 -94 -92 -137 -158 -7 -12 16 9 50 45 35 37 83
79 107 94 23 15 42 34 42 41 0 21 -10 17 -62 -22z"/>
<path d="M110 1185 c0 -7 121 -67 126 -63 2 2 -26 18 -61 36 -36 17 -65 30
-65 27z"/>
<path d="M4858 1125 c-32 -25 -58 -48 -58 -51 0 -7 86 55 107 78 26 29 12 21
-49 -27z"/>
<path d="M2750 1116 c0 -28 -43 -45 -194 -76 -82 -17 -161 -38 -175 -46 -16
-10 -18 -13 -6 -9 11 4 94 23 185 42 91 19 171 40 178 46 22 17 33 45 22 52
-5 3 -10 -1 -10 -9z"/>
<path d="M5047 1071 c-63 -51 -98 -91 -81 -91 4 0 25 17 48 38 22 20 56 49 75
63 18 15 32 31 30 36 -2 5 -35 -15 -72 -46z"/>
<path d="M2975 1100 l-40 -7 35 -1 c19 0 55 3 80 7 l45 8 -40 0 c-22 0 -58 -3
-80 -7z"/>
<path d="M2295 1025 c-5 -2 -27 -6 -47 -10 -21 -3 -38 -10 -38 -15 0 -6 10 -6
26 0 14 6 36 10 49 10 13 0 27 5 30 10 6 10 -1 12 -20 5z"/>
<path d="M2340 910 c-41 -7 -74 -24 -113 -56 -23 -19 -40 -24 -87 -24 -32 0
-61 -4 -64 -9 -3 -5 63 -12 152 -15 86 -4 185 -8 220 -9 59 -3 62 -2 56 18
-22 67 -92 108 -164 95z m79 -44 c15 -18 -13 -26 -89 -26 l-55 0 35 19 c41 23
93 27 109 7z"/>
<path d="M1628 903 c7 -3 16 -2 19 1 4 3 -2 6 -13 5 -11 0 -14 -3 -6 -6z"/>
<path d="M2964 851 c4 -6 19 -11 34 -11 34 0 93 -31 167 -88 75 -58 72 -76
-15 -119 -36 -17 -90 -39 -120 -48 -61 -19 -94 -41 -45 -29 61 14 191 67 223
91 22 17 32 32 30 46 -4 24 -105 109 -163 136 -51 25 -121 38 -111 22z"/>
<path d="M3599 820 c67 -10 121 -27 121 -40 0 -4 -9 -15 -19 -24 -36 -32 -16
-46 65 -46 57 0 74 3 74 14 0 22 -49 56 -81 56 -16 0 -29 4 -29 8 0 17 -52 32
-123 37 l-72 4 64 -9z m181 -76 c0 -2 -12 -4 -27 -4 -21 0 -24 3 -14 9 13 8
41 5 41 -5z"/>
<path d="M1537 783 c18 -9 34 -23 36 -32 3 -11 5 -9 6 5 1 13 -8 25 -24 32
-39 18 -55 13 -18 -5z"/>
<path d="M2980 786 c19 -8 42 -15 50 -15 26 -1 -10 16 -50 23 l-35 6 35 -14z"/>
<path d="M5078 782 c-40 -24 -35 -35 7 -15 19 9 35 20 35 25 0 12 -12 9 -42
-10z"/>
<path d="M1592 746 c-20 -19 -34 -38 -29 -42 11 -12 138 -7 151 6 8 8 3 19
-22 41 -18 16 -39 29 -47 29 -9 0 -32 -15 -53 -34z m73 -6 c3 -5 -3 -10 -14
-10 -12 0 -21 5 -21 10 0 6 6 10 14 10 8 0 18 -4 21 -10z"/>
<path d="M1435 750 c3 -5 10 -10 16 -10 5 0 9 5 9 10 0 6 -7 10 -16 10 -8 0
-12 -4 -9 -10z"/>
<path d="M5095 740 c-10 -11 -13 -20 -8 -20 13 0 38 29 31 35 -3 3 -13 -4 -23
-15z"/>
<path d="M2725 736 c-16 -7 -51 -30 -78 -50 -37 -28 -56 -36 -90 -36 -52 0
-105 -33 -147 -92 -36 -49 -37 -63 -7 -79 52 -29 451 -19 481 11 6 6 -5 23
-27 43 -21 18 -37 36 -37 40 0 4 17 7 37 7 53 0 163 21 163 30 0 5 -4 12 -10
15 -21 13 -9 25 25 25 39 0 105 24 117 43 13 20 8 33 -5 16 -18 -23 -46 -36
-104 -47 -52 -9 -53 -9 -84 25 -17 19 -46 41 -65 49 -42 17 -129 17 -169 0z
m197 -56 l29 -35 -31 -8 c-17 -4 -72 -6 -123 -5 l-92 3 27 28 c32 32 27 35
-11 8 -30 -22 -93 -41 -76 -23 6 5 33 24 60 41 46 29 56 31 119 28 65 -3 71
-5 98 -37z m-262 -71 c74 -20 150 -60 150 -79 0 -12 -142 -12 -180 -1 -21 7
-18 9 25 15 28 4 61 11 75 16 25 8 24 8 -5 9 -17 1 -53 -5 -80 -13 -28 -8 -61
-17 -75 -21 -23 -7 -22 -5 10 24 40 37 22 31 -31 -11 -56 -43 -63 -34 -22 27
21 30 42 55 48 55 6 0 44 -9 85 -21z m-152 -31 c-38 -46 -64 -66 -73 -56 -10
10 24 55 58 77 49 31 53 25 15 -21z"/>
<path d="M4028 733 c6 -2 18 -2 25 0 6 3 1 5 -13 5 -14 0 -19 -2 -12 -5z"/>
<path d="M3566 682 c-16 -9 -28 -22 -28 -27 2 -24 136 -34 166 -12 16 12 16
14 -3 31 -28 26 -99 30 -135 8z m77 -9 c-7 -2 -21 -2 -30 0 -10 3 -4 5 12 5
17 0 24 -2 18 -5z"/>
<path d="M1535 680 c-3 -5 -1 -10 4 -10 6 0 11 5 11 10 0 6 -2 10 -4 10 -3 0
-8 -4 -11 -10z"/>
<path d="M2061 617 c19 -12 35 -30 37 -39 6 -32 -50 -76 -188 -148 -78 -39
-139 -74 -136 -78 10 -10 270 126 309 161 20 19 37 44 37 55 0 23 -53 72 -77
72 -9 0 -1 -10 18 -23z"/>
<path d="M686 621 c-3 -5 24 -7 62 -4 94 6 100 11 15 12 -39 1 -74 -3 -77 -8z"/>
<path d="M1855 620 c-13 -21 -128 -71 -193 -85 -37 -8 -134 -26 -216 -40 -146
-26 -252 -52 -244 -61 2 -2 20 1 39 6 19 6 135 29 259 51 169 30 239 47 285
69 58 28 111 70 87 70 -6 0 -14 -5 -17 -10z"/>
<path d="M1324 612 c5 -8 66 -4 66 4 0 2 -16 4 -36 4 -19 0 -33 -4 -30 -8z"/>
<path d="M3494 603 c12 -12 98 -15 91 -3 -3 5 -27 10 -52 10 -26 0 -43 -3 -39
-7z"/>
<path d="M3883 603 c9 -2 23 -2 30 0 6 3 -1 5 -18 5 -16 0 -22 -2 -12 -5z"/>
<path d="M635 590 c3 -5 11 -10 16 -10 6 0 7 5 4 10 -3 6 -11 10 -16 10 -6 0
-7 -4 -4 -10z"/>
<path d="M3388 543 c7 -3 16 -2 19 1 4 3 -2 6 -13 5 -11 0 -14 -3 -6 -6z"/>
<path d="M0 520 c0 -5 7 -7 15 -4 19 8 19 14 0 14 -8 0 -15 -4 -15 -10z"/>
<path d="M3431 504 c-46 -13 -88 -27 -93 -32 -6 -6 32 2 84 15 51 14 125 29
163 33 l70 7 -70 0 c-43 0 -102 -8 -154 -23z"/>
<path d="M563 463 c9 -2 23 -2 30 0 6 3 -1 5 -18 5 -16 0 -22 -2 -12 -5z"/>
<path d="M2340 460 c-11 -7 -6 -10 20 -10 26 0 31 3 20 10 -8 5 -17 10 -20 10
-3 0 -12 -5 -20 -10z"/>
<path d="M3513 453 c9 -2 23 -2 30 0 6 3 -1 5 -18 5 -16 0 -22 -2 -12 -5z"/>
<path d="M2269 439 c-10 -6 -7 -9 14 -9 29 0 35 5 14 13 -8 3 -20 1 -28 -4z"/>
<path d="M2598 409 c-61 -27 -61 -44 -2 -53 138 -18 216 12 127 49 -60 25 -76
26 -125 4z m87 -19 c-3 -5 -27 -10 -53 -10 -34 0 -43 3 -32 10 20 13 93 13 85
0z"/>
<path d="M688 413 c7 -3 16 -2 19 1 4 3 -2 6 -13 5 -11 0 -14 -3 -6 -6z"/>
<path d="M1644 390 c-25 -11 -49 -32 -62 -54 -39 -66 -264 -191 -507 -282 -80
-30 -121 -50 -108 -52 12 -2 31 2 42 8 11 5 60 24 108 41 189 66 467 225 479
274 4 18 21 33 55 51 27 13 49 27 49 29 0 8 -13 5 -56 -15z"/>
<path d="M5072 390 c-55 -25 -54 -33 1 -12 48 18 52 20 46 26 -2 3 -23 -4 -47
-14z"/>
<path d="M743 381 l-32 -18 25 -12 c27 -12 92 -15 118 -5 24 9 19 29 -9 42
-35 16 -64 14 -102 -7z"/>
<path d="M3495 384 c-93 -34 -82 -64 23 -64 62 0 72 6 50 28 -7 7 -13 20 -13
29 0 22 -13 24 -60 7z m25 -23 c0 -5 -13 -11 -30 -13 -36 -5 -39 -1 -7 12 29
12 37 12 37 1z"/>
<path d="M3648 373 c6 -2 18 -2 25 0 6 3 1 5 -13 5 -14 0 -19 -2 -12 -5z"/>
<path d="M500 361 c0 -15 16 -22 34 -15 25 9 19 24 -9 24 -14 0 -25 -4 -25 -9z"/>
<path d="M3710 350 c0 -6 19 -10 42 -10 49 0 47 8 -5 14 -20 3 -37 1 -37 -4z"/>
<path d="M198 333 c6 -2 18 -2 25 0 6 3 1 5 -13 5 -14 0 -19 -2 -12 -5z"/>
<path d="M2280 314 c-227 -60 -493 -176 -623 -271 l-52 -38 138 -3 c129 -2
139 -1 168 20 28 21 41 23 133 21 55 -2 130 -10 166 -19 50 -13 122 -18 310
-21 l245 -3 -46 27 c-26 16 -112 90 -193 166 -158 148 -152 145 -246 121z
m199 -121 c110 -110 112 -122 4 -21 -34 32 -65 58 -71 58 -5 0 -17 -9 -27 -20
-11 -12 -46 -37 -79 -57 -49 -30 -56 -38 -40 -44 10 -3 28 -17 39 -29 l20 -23
-42 22 c-23 11 -47 21 -53 21 -20 0 -10 -16 18 -28 24 -10 21 -11 -23 -6 -27
3 -54 9 -58 14 -5 4 28 41 72 81 44 41 83 81 86 89 6 16 -2 9 -123 -103 l-72
-67 -93 -2 c-50 -1 -106 -1 -123 0 -17 2 -46 -5 -65 -13 -23 -11 -26 -14 -9
-10 76 17 85 18 73 5 -13 -14 -160 -49 -205 -50 -16 0 -28 4 -28 8 0 9 241
140 319 173 65 27 328 108 355 108 11 1 62 -42 125 -106z m-34 -84 c28 -28 43
-48 35 -44 -26 15 -120 98 -120 107 0 16 34 -10 85 -63z m-39 -8 c33 -30 53
-52 47 -50 -28 9 -132 92 -127 101 8 13 15 9 80 -51z"/>
<path d="M210 310 c-10 -6 3 -7 40 -3 30 3 57 7 59 9 10 9 -85 3 -99 -6z"/>
<path d="M558 289 c-27 -17 -48 -35 -48 -40 0 -26 157 -17 174 10 5 7 -62 61
-75 61 -2 0 -25 -14 -51 -31z m58 -17 c-22 -5 -30 3 -21 18 5 8 11 7 22 -2 15
-12 14 -13 -1 -16z"/>
<path d="M3146 260 c-121 -75 -120 -87 5 -109 69 -12 296 -15 323 -5 26 10 19
29 -25 69 -50 45 -153 95 -194 95 -18 0 -61 -20 -109 -50z m73 -25 c-34 -29
-57 -41 -70 -38 -10 3 -19 8 -19 12 0 3 26 22 57 43 76 49 97 39 32 -17z m108
24 c31 -11 83 -57 83 -72 0 -11 -187 -3 -198 8 -6 6 66 74 80 75 4 0 19 -5 35
-11z"/>
<path d="M3795 290 c3 -5 13 -10 21 -10 8 0 12 5 9 10 -3 6 -13 10 -21 10 -8
0 -12 -4 -9 -10z"/>
<path d="M5105 290 c-3 -5 -1 -10 4 -10 6 0 11 5 11 10 0 6 -2 10 -4 10 -3 0
-8 -4 -11 -10z"/>
<path d="M73 224 c-42 -38 -73 -74 -73 -85 0 -17 8 -19 101 -19 89 0 189 14
189 27 0 6 -102 126 -115 135 -19 14 -30 8 -102 -58z m127 -10 c17 -26 29 -48
27 -51 -10 -9 -56 10 -77 32 -15 16 -20 30 -15 44 10 33 31 25 65 -25z"/>
<path d="M1302 245 c-71 -54 -149 -90 -292 -138 -131 -43 -242 -87 -255 -100
-14 -14 10 -6 140 42 61 23 148 55 195 73 89 32 191 90 250 139 52 44 29 35
-38 -16z"/>
<path d="M15 260 c-18 -7 -18 -8 8 -15 30 -8 43 -2 32 14 -7 13 -12 13 -40 1z"/>
<path d="M300 250 c-14 -5 9 -6 55 -3 44 3 82 7 84 9 8 8 -115 2 -139 -6z"/>
<path d="M3530 250 c-11 -7 -9 -11 13 -19 35 -14 58 -14 77 -1 13 9 13 11 0
20 -19 12 -70 13 -90 0z"/>
<path d="M2914 225 c-38 -16 -51 -34 -34 -45 9 -6 6 -10 -11 -13 -13 -2 13 -5
59 -6 89 -1 101 8 60 46 -35 31 -41 32 -74 18z m33 -21 c-3 -3 -12 -4 -19 -1
-8 3 -5 6 6 6 11 1 17 -2 13 -5z"/>
<path d="M3702 219 c-68 -11 -85 -21 -119 -67 -15 -20 -31 -38 -35 -40 -16 -7
-7 -52 16 -79 23 -27 28 -28 130 -31 68 -3 106 0 106 6 0 16 -28 41 -70 62
-48 24 -98 86 -82 102 21 21 130 38 255 38 83 0 126 4 122 10 -8 12 -248 11
-323 -1z"/>
<path d="M4070 166 c0 -24 275 -166 320 -166 15 0 -137 72 -181 85 -13 4 -47
25 -76 46 -49 37 -63 44 -63 35z"/>
<path d="M3790 152 c0 -9 90 -35 97 -29 4 5 -72 37 -87 37 -6 0 -10 -4 -10 -8z"/>
<path d="M3931 156 c2 -2 22 -6 44 -9 27 -4 35 -3 25 3 -14 9 -79 15 -69 6z"/>
<path d="M2948 123 c7 -3 16 -2 19 1 4 3 -2 6 -13 5 -11 0 -14 -3 -6 -6z"/>
<path d="M3328 113 c12 -2 32 -2 45 0 12 2 2 4 -23 4 -25 0 -35 -2 -22 -4z"/>
<path d="M88 103 c7 -3 16 -2 19 1 4 3 -2 6 -13 5 -11 0 -14 -3 -6 -6z"/>
<path d="M25 90 c-3 -5 1 -10 9 -10 9 0 16 5 16 10 0 6 -4 10 -9 10 -6 0 -13
-4 -16 -10z"/>
<path d="M65 45 c-88 -43 -64 -45 35 -4 87 37 92 39 59 38 -13 0 -55 -16 -94
-34z"/>
<path d="M2842 72 c-41 -12 -24 -27 34 -30 65 -4 92 12 50 28 -30 11 -49 11
-84 2z"/>
<path d="M3426 59 c3 -5 29 -9 57 -8 59 1 54 5 -15 12 -26 2 -45 1 -42 -4z"/>
</g>
</svg>